<svg width="145" height="87" viewBox="0 0 145 87" fill="none" xmlns="http://www.w3.org/2000/svg">
<rect width="145" height="87" fill="#EA6F32"/>
<path d="M133 47.8311H128.055V39.1343H133V40.4376H129.614V42.6544H132.781V43.9577H129.614V46.5156H133V47.8311Z" fill="#F1E4D0"/>
<path d="M121.648 47.8311H119.711L115.594 41.0101H115.546C115.554 41.1887 115.562 41.3795 115.57 41.5826C115.586 41.7774 115.599 41.9804 115.607 42.1916C115.615 42.3946 115.623 42.6017 115.631 42.8128C115.639 43.0239 115.647 43.235 115.655 43.4462V47.8311H114.255V39.1343H116.179L120.284 45.9066H120.321C120.312 45.7442 120.304 45.5696 120.296 45.3829C120.288 45.188 120.28 44.989 120.272 44.786C120.272 44.583 120.268 44.3759 120.26 44.1648C120.251 43.9537 120.243 43.7507 120.235 43.5558V39.1343H121.648V47.8311Z" fill="#F1E4D0"/>
<path d="M108.553 47.8311H104.899V46.942L105.946 46.5522V40.4254L104.899 40.0235V39.1343H108.553V40.0235L107.505 40.4254V46.5522L108.553 46.942V47.8311Z" fill="#F1E4D0"/>
<path d="M94.7668 47.8311V39.1343H96.3259V46.5156H99.9557V47.8311H94.7668Z" fill="#F1E4D0"/>
<path d="M86.7971 47.8311H85.238V40.4498H82.741V39.1343H89.2941V40.4498H86.7971V47.8311Z" fill="#F1E4D0"/>
<path d="M78.0544 43.4702C78.0544 44.1442 77.9692 44.7573 77.7986 45.3095C77.6362 45.8535 77.3845 46.3245 77.0434 46.7224C76.7105 47.1203 76.2842 47.4248 75.7645 47.636C75.2529 47.8471 74.652 47.9526 73.9618 47.9526C73.2634 47.9526 72.6544 47.8471 72.1347 47.636C71.6231 47.4167 71.2009 47.1122 70.8679 46.7224C70.535 46.3245 70.2833 45.8495 70.1127 45.2973C69.9503 44.7451 69.8691 44.132 69.8691 43.4581C69.8691 42.5567 70.0153 41.7731 70.3076 41.1072C70.6081 40.4414 71.0588 39.9257 71.6597 39.5603C72.2687 39.1868 73.0401 39 73.974 39C74.8916 39 75.6508 39.1868 76.2517 39.5603C76.8526 39.9257 77.3033 40.4454 77.6037 41.1194C77.9042 41.7853 78.0544 42.5689 78.0544 43.4702ZM71.5135 43.4702C71.5135 44.128 71.5988 44.6923 71.7693 45.1633C71.9479 45.6343 72.2159 45.9957 72.5732 46.2474C72.9386 46.4991 73.4015 46.625 73.9618 46.625C74.5383 46.625 75.0052 46.4991 75.3625 46.2474C75.7198 45.9957 75.9837 45.6343 76.1543 45.1633C76.3248 44.6923 76.4101 44.128 76.4101 43.4702C76.4101 42.4877 76.2192 41.7162 75.8376 41.1559C75.4559 40.5956 74.8347 40.3155 73.974 40.3155C73.4055 40.3155 72.9386 40.4414 72.5732 40.6931C72.2159 40.9448 71.9479 41.3062 71.7693 41.7771C71.5988 42.2481 71.5135 42.8125 71.5135 43.4702Z" fill="#F1E4D0"/>
<path d="M59.6829 47.8311V39.1343H61.242V46.5156H64.8717V47.8311H59.6829Z" fill="#F1E4D0"/>
<path d="M50.5944 39.1343C51.7232 39.1343 52.5433 39.3698 53.0549 39.8407C53.5746 40.3117 53.8344 40.9613 53.8344 41.7896C53.8344 42.1632 53.7776 42.5204 53.6639 42.8615C53.5502 43.1944 53.3594 43.4949 53.0914 43.7629C52.8235 44.0308 52.4702 44.242 52.0317 44.3962C51.6014 44.5505 51.0654 44.6277 50.4239 44.6277H49.5591V47.8311H48V39.1343H50.5944ZM50.497 40.4254H49.5591V43.3365H50.2656C50.6878 43.3365 51.0451 43.2878 51.3374 43.1904C51.6379 43.0848 51.8653 42.9224 52.0196 42.7032C52.1738 42.4839 52.251 42.1997 52.251 41.8505C52.251 41.3714 52.1089 41.0141 51.8247 40.7786C51.5405 40.5432 51.0979 40.4254 50.497 40.4254Z" fill="#F1E4D0"/>
<path d="M24 32L26.6942 40.2918H35.4127L28.3593 45.4164L31.0534 53.7082L24 48.5836L16.9466 53.7082L19.6407 45.4164L12.5873 40.2918H21.3058L24 32Z" fill="#F1E4D0"/>
</svg>
