<svg width="420" height="363" viewBox="0 0 420 363" fill="none" xmlns="http://www.w3.org/2000/svg">
<ellipse cx="349.445" cy="348.799" rx="70.4449" ry="13.7985" fill="#DEC5B0"/>
<ellipse cx="70.4449" cy="348.799" rx="70.4449" ry="13.7985" fill="#DEC5B0"/>
<path d="M210.439 355.732C308.347 355.732 387.718 276.237 387.718 178.176C387.718 80.1146 308.347 0.620117 210.439 0.620117C112.531 0.620117 33.1606 80.1146 33.1606 178.176C33.1606 276.237 112.531 355.732 210.439 355.732Z" fill="#FFFEFC"/>
<path d="M86.6984 114.356H33.7388V207.748H86.6984V114.356Z" fill="#E6D0BE"/>
<path d="M44.0708 122.875H39.8657V130.291H44.0708V122.875Z" fill="#F2E6DC"/>
<path d="M56.1157 122.875H51.9106V130.291H56.1157V122.875Z" fill="#F2E6DC"/>
<path d="M68.1606 122.875H63.9556V130.291H68.1606V122.875Z" fill="#F2E6DC"/>
<path d="M80.2051 122.875H76V130.291H80.2051V122.875Z" fill="#F2E6DC"/>
<path d="M44.0708 139.838H39.8657V147.254H44.0708V139.838Z" fill="#F2E6DC"/>
<path d="M56.1157 139.838H51.9106V147.254H56.1157V139.838Z" fill="#F2E6DC"/>
<path d="M68.1606 139.838H63.9556V147.254H68.1606V139.838Z" fill="#F2E6DC"/>
<path d="M80.2051 139.838H76V147.254H80.2051V139.838Z" fill="#F2E6DC"/>
<path d="M44.0708 156.8H39.8657V164.215H44.0708V156.8Z" fill="#F2E6DC"/>
<path d="M56.1157 156.8H51.9106V164.215H56.1157V156.8Z" fill="#F2E6DC"/>
<path d="M68.1606 156.8H63.9556V164.215H68.1606V156.8Z" fill="#F2E6DC"/>
<path d="M80.2051 156.8H76V164.215H80.2051V156.8Z" fill="#F2E6DC"/>
<path d="M44.0708 173.762H39.8657V181.178H44.0708V173.762Z" fill="#F2E6DC"/>
<path d="M56.1157 173.762H51.9106V181.178H56.1157V173.762Z" fill="#F2E6DC"/>
<path d="M68.1606 173.762H63.9556V181.178H68.1606V173.762Z" fill="#F2E6DC"/>
<path d="M80.2051 173.762H76V181.178H80.2051V173.762Z" fill="#F2E6DC"/>
<path d="M44.0708 190.725H39.8657V198.14H44.0708V190.725Z" fill="#F2E6DC"/>
<path d="M56.1157 190.725H51.9106V198.14H56.1157V190.725Z" fill="#F2E6DC"/>
<path d="M68.1606 190.725H63.9556V198.14H68.1606V190.725Z" fill="#F2E6DC"/>
<path d="M80.2051 190.725H76V198.14H80.2051V190.725Z" fill="#F2E6DC"/>
<path d="M364.676 95.6338H306.624V213.753H364.676V95.6338Z" fill="#F1E4D0"/>
<path d="M317.949 106.409H313.34V115.788H317.949V106.409Z" fill="#E6D0BE"/>
<path d="M331.152 106.409H326.543V115.788H331.152V106.409Z" fill="#E6D0BE"/>
<path d="M344.355 106.409H339.746V115.788H344.355V106.409Z" fill="#E6D0BE"/>
<path d="M357.558 106.409H352.949V115.788H357.558V106.409Z" fill="#E6D0BE"/>
<path d="M317.949 127.862H313.34V137.241H317.949V127.862Z" fill="#E6D0BE"/>
<path d="M331.152 127.862H326.543V137.241H331.152V127.862Z" fill="#E6D0BE"/>
<path d="M344.355 127.862H339.746V137.241H344.355V127.862Z" fill="#E6D0BE"/>
<path d="M357.558 127.862H352.949V137.241H357.558V127.862Z" fill="#E6D0BE"/>
<path d="M317.949 149.315H313.34V158.694H317.949V149.315Z" fill="#E6D0BE"/>
<path d="M331.152 149.315H326.543V158.694H331.152V149.315Z" fill="#E6D0BE"/>
<path d="M344.355 149.315H339.746V158.694H344.355V149.315Z" fill="#E6D0BE"/>
<path d="M357.558 149.315H352.949V158.694H357.558V149.315Z" fill="#E6D0BE"/>
<path d="M317.949 170.769H313.34V180.147H317.949V170.769Z" fill="#E6D0BE"/>
<path d="M331.152 170.769H326.543V180.147H331.152V170.769Z" fill="#E6D0BE"/>
<path d="M344.355 170.769H339.746V180.147H344.355V170.769Z" fill="#E6D0BE"/>
<path d="M357.558 170.769H352.949V180.147H357.558V170.769Z" fill="#E6D0BE"/>
<path d="M317.949 192.222H313.34V201.601H317.949V192.222Z" fill="#E6D0BE"/>
<path d="M331.152 192.222H326.543V201.601H331.152V192.222Z" fill="#E6D0BE"/>
<path d="M344.355 192.222H339.746V201.601H344.355V192.222Z" fill="#E6D0BE"/>
<path d="M357.558 192.222H352.949V201.601H357.558V192.222Z" fill="#E6D0BE"/>
<path d="M387.536 110.947H330.791V211.017H387.536V110.947Z" fill="#E6D0BE"/>
<path d="M341.862 120.076H337.356V128.021H341.862V120.076Z" fill="#F2E6DC"/>
<path d="M354.767 120.076H350.262V128.021H354.767V120.076Z" fill="#F2E6DC"/>
<path d="M367.674 120.076H363.168V128.021H367.674V120.076Z" fill="#F2E6DC"/>
<path d="M380.579 120.076H376.074V128.021H380.579V120.076Z" fill="#F2E6DC"/>
<path d="M341.862 138.251H337.356V146.197H341.862V138.251Z" fill="#F2E6DC"/>
<path d="M354.767 138.251H350.262V146.197H354.767V138.251Z" fill="#F2E6DC"/>
<path d="M367.674 138.251H363.168V146.197H367.674V138.251Z" fill="#F2E6DC"/>
<path d="M380.579 138.251H376.074V146.197H380.579V138.251Z" fill="#F2E6DC"/>
<path d="M341.862 156.426H337.356V164.372H341.862V156.426Z" fill="#F2E6DC"/>
<path d="M354.767 156.426H350.262V164.372H354.767V156.426Z" fill="#F2E6DC"/>
<path d="M367.674 156.426H363.168V164.372H367.674V156.426Z" fill="#F2E6DC"/>
<path d="M380.579 156.426H376.074V164.372H380.579V156.426Z" fill="#F2E6DC"/>
<path d="M341.862 174.601H337.356V182.547H341.862V174.601Z" fill="#F2E6DC"/>
<path d="M354.767 174.601H350.262V182.547H354.767V174.601Z" fill="#F2E6DC"/>
<path d="M367.674 174.601H363.168V182.547H367.674V174.601Z" fill="#F2E6DC"/>
<path d="M380.579 174.601H376.074V182.547H380.579V174.601Z" fill="#F2E6DC"/>
<path d="M341.862 192.776H337.356V200.722H341.862V192.776Z" fill="#F2E6DC"/>
<path d="M354.767 192.776H350.262V200.722H354.767V192.776Z" fill="#F2E6DC"/>
<path d="M367.674 192.776H363.168V200.722H367.674V192.776Z" fill="#F2E6DC"/>
<path d="M380.579 192.776H376.074V200.722H380.579V192.776Z" fill="#F2E6DC"/>
<path d="M33 210.202C49.9608 293.41 122.653 355.361 210.117 355.361C297.581 355.361 370.565 293.129 387.525 209.922L33 210.202Z" fill="#DEC4B0"/>
<path d="M213.737 246.393L222.434 273.51L250.911 273.618L227.809 290.269L236.506 317.386L213.531 300.56L190.429 317.211L199.332 290.161L176.357 273.335L204.834 273.443L213.737 246.393Z" fill="#EDD4C1"/>
<path d="M272.713 45.5073L269.944 44.5747C270.151 43.1415 270.239 41.7096 270.216 40.2909L273.079 39.7144L271.126 30.0206L268.258 30.5985C267.724 29.2698 267.086 27.9848 266.351 26.7559L268.547 24.821L262.009 17.4021L259.818 19.3325C258.702 18.4562 257.509 17.6604 256.243 16.9579L257.175 14.1888L247.804 11.0328L246.871 13.8019C245.438 13.5952 244.006 13.5069 242.587 13.5294L242.011 10.667L232.317 12.6193L232.895 15.4882C231.566 16.022 230.281 16.6597 229.052 17.3945L227.117 15.1988L219.698 21.7366L221.629 23.9272C220.753 25.0432 219.957 26.2368 219.254 27.503L216.485 26.5704L213.329 35.9416L216.098 36.8742C215.891 38.3075 215.803 39.7394 215.826 41.1581L212.963 41.7346L214.916 51.4284L217.785 50.8505C218.318 52.1792 218.956 53.4642 219.691 54.6931L217.495 56.628L224.033 64.0469L226.224 62.1165C227.34 62.9928 228.533 63.7884 229.799 64.4911L228.867 67.26L238.238 70.4162L239.171 67.6471C240.604 67.8538 242.036 67.9423 243.454 67.9196L244.031 70.782L253.725 68.8295L253.147 65.9606C254.476 65.4268 255.761 64.7892 256.99 64.0541L258.925 66.2498L266.343 59.712L264.413 57.5214C265.289 56.4054 266.085 55.2118 266.788 53.9456L269.557 54.8782L272.713 45.5073ZM255.357 51.5439C252.605 54.9038 248.513 56.9342 244.172 57.0929C229.425 57.6324 221.333 41.3219 230.684 29.9055C233.437 26.5455 237.529 24.5152 241.87 24.3565C256.617 23.8172 264.709 40.1277 255.357 51.5439Z" fill="#F1E4D0"/>
<path d="M243 35L244.347 39.1459H248.706L245.18 41.7082L246.527 45.8541L243 43.2918L239.473 45.8541L240.82 41.7082L237.294 39.1459H241.653L243 35Z" fill="#F1E4D0"/>
<path d="M292.002 93.0695C291.957 93.0695 291.913 93.0536 291.877 93.0243C291.838 92.9913 291.813 92.944 291.809 92.8927L291.622 90.8001C290.621 90.6975 289.621 90.5226 288.644 90.2797L287.759 92.185C287.714 92.2821 287.599 92.3248 287.502 92.2792L280.571 89.0602C280.524 89.0387 280.488 88.9993 280.47 88.951C280.452 88.9027 280.455 88.8493 280.476 88.8026L281.359 86.902C280.541 86.3117 279.762 85.6593 279.039 84.9598L277.323 86.165C277.236 86.2265 277.114 86.2054 277.053 86.1177L272.66 79.8646C272.598 79.7769 272.62 79.6558 272.707 79.5943L274.423 78.3889C274.01 77.4716 273.661 76.5172 273.383 75.5476L271.295 75.7335C271.245 75.7375 271.193 75.722 271.154 75.689C271.114 75.6561 271.09 75.6087 271.085 75.5575L270.407 67.9457C270.403 67.8944 270.419 67.8434 270.452 67.804C270.485 67.7644 270.532 67.7398 270.583 67.7351L272.676 67.5488C272.779 66.5477 272.954 65.5474 273.197 64.5705L271.291 63.6855C271.245 63.6639 271.208 63.6245 271.191 63.5762C271.173 63.5279 271.175 63.4745 271.197 63.4278L274.416 56.4971C274.461 56.4001 274.576 56.3574 274.674 56.403L276.574 57.2857C277.164 56.4688 277.816 55.6894 278.517 54.9658L277.311 53.2498C277.25 53.1621 277.271 53.041 277.359 52.9795L283.612 48.5868C283.654 48.5571 283.707 48.5457 283.757 48.5544C283.808 48.5632 283.853 48.5919 283.882 48.634L285.088 50.35C286.005 49.937 286.959 49.5875 287.929 49.3097L287.743 47.2223C287.738 47.171 287.754 47.12 287.787 47.0806C287.82 47.041 287.868 47.0164 287.919 47.0119L295.531 46.3343C295.581 46.3296 295.633 46.3457 295.672 46.3787C295.712 46.4119 295.737 46.4591 295.741 46.5103L295.927 48.6029C296.929 48.7056 297.929 48.8804 298.906 49.1236L299.791 47.2182C299.812 47.1716 299.851 47.1353 299.9 47.1179C299.948 47.1 300.001 47.1023 300.048 47.1241L306.979 50.3432C307.026 50.3647 307.062 50.4041 307.08 50.4524C307.098 50.5007 307.095 50.5541 307.074 50.6009L306.191 52.5014C307.008 53.0917 307.788 53.7439 308.511 54.4438L310.227 53.2384C310.269 53.2087 310.322 53.1975 310.372 53.206C310.422 53.2147 310.467 53.2434 310.497 53.2856L314.89 59.5388C314.951 59.6265 314.93 59.7476 314.842 59.8091L313.126 61.0146C313.539 61.9313 313.889 62.8856 314.167 63.8559L316.254 63.67C316.305 63.6661 316.356 63.6814 316.396 63.7144C316.435 63.7474 316.46 63.7947 316.465 63.846L317.142 71.4578C317.152 71.5645 317.073 71.6588 316.966 71.6683L314.874 71.8546C314.771 72.8561 314.596 73.8564 314.353 74.8329L316.258 75.7177C316.305 75.7393 316.341 75.7787 316.359 75.8272C316.377 75.8755 316.374 75.9289 316.353 75.9756L313.134 82.9063C313.089 83.0034 312.973 83.0459 312.876 83.0005L310.975 82.1177C310.385 82.9354 309.733 83.7148 309.033 84.4376L310.238 86.1536C310.3 86.2413 310.279 86.3624 310.191 86.4239L303.938 90.8166C303.85 90.8781 303.729 90.857 303.667 90.7693L302.462 89.0533C301.545 89.466 300.59 89.8155 299.621 90.0938L299.806 92.1812C299.816 92.2879 299.737 92.3822 299.63 92.3915L292.019 93.0691C292.013 93.0693 292.008 93.0695 292.002 93.0695ZM288.536 89.8582C288.552 89.8582 288.568 89.8601 288.584 89.8642C289.643 90.1363 290.732 90.3264 291.82 90.4297C291.913 90.4384 291.986 90.5125 291.995 90.6057L292.178 92.6651L299.403 92.022L299.22 89.9676C299.212 89.8745 299.272 89.7887 299.362 89.7635C300.417 89.4695 301.455 89.0892 302.447 88.6334C302.532 88.5943 302.634 88.6213 302.687 88.6982L303.874 90.3872L309.809 86.2176L308.623 84.5286C308.569 84.452 308.578 84.3477 308.643 84.281C309.409 83.5021 310.119 82.6545 310.753 81.7613C310.807 81.6848 310.909 81.6584 310.993 81.6976L312.864 82.5664L315.919 75.9877L314.044 75.1168C313.959 75.0774 313.914 74.9831 313.938 74.8925C314.209 73.8339 314.4 72.7455 314.503 71.6569C314.512 71.5639 314.586 71.4904 314.679 71.482L316.738 71.2987L316.095 64.0736L314.041 64.2564C313.95 64.2649 313.862 64.2055 313.837 64.1153C313.542 63.0593 313.162 62.0211 312.707 61.0293C312.668 60.9443 312.695 60.8434 312.771 60.7895L314.46 59.603L310.291 53.6674L308.602 54.8539C308.525 54.9078 308.421 54.8991 308.354 54.8335C307.575 54.0676 306.727 53.3577 305.835 52.7236C305.758 52.6694 305.732 52.5685 305.771 52.4835L306.64 50.6131L300.061 47.5574L299.19 49.4327C299.151 49.5173 299.057 49.5617 298.966 49.5388C297.907 49.2668 296.819 49.0764 295.73 48.9734C295.637 48.9646 295.564 48.8905 295.556 48.7974L295.372 46.7379L288.147 47.381L288.33 49.4352C288.338 49.5284 288.279 49.6143 288.189 49.6394C287.134 49.9331 286.095 50.3133 285.103 50.7695C285.018 50.8083 284.917 50.7813 284.863 50.7047L283.677 49.0157L277.741 53.1854L278.927 54.8742C278.981 54.9507 278.973 55.0551 278.907 55.1217C278.141 55.9015 277.431 56.7494 276.798 57.6414C276.743 57.7179 276.641 57.7443 276.558 57.7051L274.687 56.8363L271.631 63.415L273.506 64.2859C273.591 64.3253 273.636 64.4196 273.613 64.5102C273.341 65.5691 273.151 66.6577 273.047 67.7458C273.039 67.8389 272.964 67.9125 272.872 67.9208L270.812 68.104L271.455 75.3293L273.51 75.1465C273.603 75.1391 273.689 75.1975 273.714 75.2877C274.008 76.343 274.388 77.3813 274.844 78.3737C274.883 78.4587 274.856 78.5596 274.779 78.6136L273.09 79.8L277.26 85.7356L278.948 84.5492C279.025 84.4954 279.129 84.504 279.196 84.5695C279.975 85.3353 280.823 86.0451 281.716 86.6793C281.792 86.7334 281.819 86.8343 281.779 86.9193L280.91 88.7897L287.489 91.8453L288.36 89.9702C288.392 89.9007 288.462 89.8582 288.536 89.8582ZM293.598 82.6452C291.23 82.6452 288.89 81.9394 286.894 80.5834C282.467 77.574 280.267 72.559 281.152 67.4955C282.037 62.4317 285.808 58.4605 290.993 57.1311C294.306 56.2817 297.828 56.8974 300.656 58.8197C305.083 61.8292 307.283 66.8442 306.399 71.908C305.513 76.9715 301.742 80.9429 296.557 82.2722C295.581 82.5219 294.587 82.6452 293.598 82.6452ZM293.952 57.1458C292.995 57.1458 292.034 57.2648 291.09 57.5069C286.054 58.7977 282.393 62.6508 281.534 67.562C280.676 72.4732 282.813 77.3398 287.113 80.2622C289.849 82.122 293.255 82.7173 296.46 81.8959C301.496 80.6051 305.158 76.7522 306.016 71.8408C306.875 66.9294 304.737 62.063 300.438 59.1404C298.508 57.8287 296.243 57.1458 293.952 57.1458Z" fill="#F1E4D0"/>
<path d="M115.434 207.544L273.034 207.544V88.09L115.434 88.09L115.434 207.544Z" fill="#D3BBA3"/>
<path d="M268.09 193.021V93.0347L120.379 93.0347L120.379 193.021L268.09 193.021Z" fill="#F2E6DC"/>
<path d="M191.268 199.695C191.268 201.334 192.596 202.662 194.234 202.662C195.873 202.662 197.201 201.334 197.201 199.695C197.201 198.057 195.873 196.729 194.234 196.729C192.596 196.729 191.268 198.057 191.268 199.695Z" fill="#F7F1EB"/>
<path d="M115.434 210.783C115.434 217.62 120.977 223.163 127.814 223.163H293.007C299.844 223.163 305.387 217.62 305.387 210.783H115.434Z" fill="#D3BBA3"/>
<path d="M238.465 219.163H219.946C216.938 219.163 214.492 216.716 214.492 213.709C214.492 213.602 214.578 213.515 214.686 213.515H243.726C243.833 213.515 243.92 213.602 243.92 213.709C243.92 216.716 241.473 219.163 238.465 219.163ZM214.883 213.903C214.986 216.607 217.217 218.775 219.946 218.775H238.465C241.194 218.775 243.426 216.606 243.528 213.903H214.883Z" fill="#F2E6DC"/>
<path d="M250.569 181.256C250.559 181.256 250.549 181.255 250.54 181.253C250.434 181.237 250.361 181.138 250.377 181.032C251.763 172.022 255.195 163.321 260.302 155.868C264.532 149.695 269.826 144.403 276.037 140.14C276.126 140.079 276.246 140.102 276.307 140.19C276.368 140.278 276.345 140.399 276.257 140.46C270.086 144.696 264.825 149.954 260.623 156.087C255.548 163.492 252.138 172.138 250.761 181.091C250.746 181.187 250.663 181.256 250.569 181.256Z" fill="#D3BBA3"/>
<path d="M247.081 181.921C247 181.921 246.925 181.871 246.897 181.79C244.577 175.03 243.535 167.635 243.884 160.405C244.172 154.416 245.375 148.592 247.457 143.093C247.495 142.993 247.608 142.942 247.708 142.981C247.808 143.018 247.858 143.131 247.82 143.231C245.752 148.691 244.558 154.476 244.271 160.424C243.925 167.605 244.96 174.95 247.264 181.664C247.299 181.765 247.245 181.876 247.144 181.911C247.123 181.918 247.101 181.921 247.081 181.921Z" fill="#D3BBA3"/>
<path d="M261.844 172.137H233.612V192.841H261.844V172.137Z" fill="#E6D0BE"/>
<path d="M288.928 149.972L271.628 146.833L294.634 139.916C298.91 130.312 300.329 121.241 300.329 121.241C300.329 121.241 296.219 121.006 290.322 121.601L279.833 139.229L280.795 123.164C275.916 124.297 270.72 126.068 265.966 128.826C265.297 129.214 264.656 129.617 264.041 130.033L261.869 154.33L255.545 138.936C251.472 145.949 251.772 153.591 255.399 158.019C260.963 164.81 275.264 165.223 286.115 153.42C287.116 152.33 288.052 151.174 288.928 149.972Z" fill="#E6D0BE"/>
<path d="M290.322 121.601C287.476 121.888 284.213 122.369 280.795 123.163L279.833 139.229L290.322 121.601Z" fill="#D3BBA3"/>
<path d="M264.041 130.033C260.215 132.619 257.417 135.711 255.544 138.936L261.869 154.33L264.041 130.033Z" fill="#D3BBA3"/>
<path d="M288.928 149.972C291.233 146.808 293.114 143.328 294.633 139.916L271.627 146.833L288.928 149.972Z" fill="#D3BBA3"/>
<path d="M282.5 138L283.51 141.109H286.78L284.135 143.031L285.145 146.141L282.5 144.219L279.855 146.141L280.865 143.031L278.22 141.109H281.49L282.5 138Z" fill="#3D342F"/>
<path d="M255.837 164.181C255.809 164.181 255.78 164.175 255.753 164.162C255.657 164.116 255.616 164 255.662 163.903C256.997 161.117 258.558 158.413 260.302 155.868C264.532 149.695 269.826 144.403 276.037 140.14C276.125 140.079 276.246 140.102 276.306 140.19C276.367 140.278 276.345 140.399 276.256 140.46C270.085 144.696 264.825 149.954 260.622 156.087C258.889 158.616 257.338 161.302 256.012 164.071C255.979 164.14 255.909 164.181 255.837 164.181Z" fill="#D3BBA3"/>
<path d="M258.296 144.51L247.309 149.517L258.088 135.246C257.217 126.885 254.896 120.071 254.896 120.071C254.896 120.071 252.462 121.611 249.293 124.46L249.379 140.902L244.38 129.476C241.979 132.274 239.617 135.64 237.848 139.501C237.599 140.044 237.372 140.586 237.163 141.126L244.314 158.702L235.376 150.753C235.468 157.253 238.28 162.374 241.885 163.912C247.416 166.27 255.744 160.634 257.877 148.041C258.074 146.879 258.21 145.698 258.296 144.51Z" fill="#E6D0BE"/>
<path d="M249.293 124.46C247.763 125.835 246.062 127.516 244.379 129.476L249.379 140.901L249.293 124.46Z" fill="#D3BBA3"/>
<path d="M237.163 141.126C235.867 144.484 235.334 147.764 235.376 150.753L244.314 158.702L237.163 141.126Z" fill="#D3BBA3"/>
<path d="M258.296 144.51C258.522 141.384 258.397 138.217 258.087 135.246L247.309 149.516L258.296 144.51Z" fill="#D3BBA3"/>
<path d="M244.142 167.262C244.041 167.262 243.955 167.184 243.948 167.081C243.799 164.868 243.777 162.622 243.884 160.406C244.173 154.417 245.375 148.592 247.458 143.094C247.496 142.993 247.608 142.943 247.708 142.981C247.808 143.019 247.859 143.131 247.821 143.231C245.753 148.692 244.559 154.476 244.272 160.425C244.166 162.626 244.187 164.856 244.335 167.055C244.343 167.162 244.262 167.254 244.155 167.262C244.15 167.262 244.146 167.262 244.142 167.262Z" fill="#D3BBA3"/>
<path d="M176.696 192.801L177.654 183.371L180.102 192.801H218.845L201.631 133.637L149.769 142.675L138.726 192.801H176.696Z" fill="#3D342F"/>
<path d="M137.007 101.405C129.786 97.07 99.5246 80.5736 105.009 70.5412C109.066 63.1212 133.25 72.807 140.699 76.6464C138.038 82.0923 139.668 95.9589 137.007 101.405Z" fill="#84524D"/>
<path d="M122.212 74.6056C127.792 68.7269 141.619 55.5334 142.918 54.1918C145.345 51.6837 158.245 39.6167 155.379 37.4008C154.028 36.3558 148.328 42.2687 147.049 43.5803C148.23 41.8519 154.154 34.9938 152.301 33.7763C150.394 32.5234 143.651 40.9348 143.566 40.9756C144.184 40.0509 149.339 33.6488 147.421 32.17C145.574 30.746 141.124 38.1576 140.201 38.9291C140.835 37.656 144.077 33.2305 142.872 32.3037C141.257 31.062 137.297 36.9611 136.394 37.558C134.236 39.7845 130.304 42.7052 125.814 46.4853C115.27 55.3633 110.94 59.7647 106.623 64.9757C104.949 66.9969 102.741 71.5154 105.273 76.7761C110.966 76.0585 116.518 75.3231 122.212 74.6056Z" fill="#84524D"/>
<path d="M234.804 113.085C234.804 113.085 213.424 82.6594 180.743 83.2651C168.656 83.489 134.055 70.6724 134.055 70.6724L131.873 104.16L146.785 110.907L144.077 153.926L211.231 155.022L206.297 124.597L234.804 113.085Z" fill="#EA6F32"/>
<path d="M240.117 185.846L179.958 180.753L183.362 140.539L188.831 141.002L190.774 138.466L201.745 139.395L203.094 142.21L243.522 145.633L240.117 185.846Z" fill="#E0AA63"/>
<path d="M246.44 184.682L186.804 194.096L180.511 154.232L185.932 153.377L187.213 150.45L198.089 148.734L200.071 151.145L240.147 144.818L246.44 184.682Z" fill="#EFBC73"/>
<path d="M230.793 159.126L234.684 166.106L242.526 164.562L237.09 170.421L240.981 177.401L233.73 174.041L228.294 179.9L229.248 171.965L221.997 168.605L229.838 167.061L230.793 159.126Z" fill="#E0AA63"/>
<path d="M237.366 185.106L175.144 175.479L168.267 219.924L230.489 229.551L237.366 185.106Z" fill="#C5614A"/>
<path d="M202.265 205.537C202.214 205.537 202.163 205.517 202.125 205.477L178.026 180.234C177.952 180.156 177.955 180.034 178.033 179.96C178.11 179.885 178.233 179.888 178.307 179.966L202.302 205.101L232.488 188.332C232.582 188.28 232.7 188.314 232.752 188.407C232.804 188.501 232.77 188.619 232.676 188.671L202.36 205.513C202.33 205.53 202.298 205.537 202.265 205.537Z" fill="#363E44"/>
<path d="M207.198 203.212L198.429 201.855L197.713 206.481L206.482 207.838L207.198 203.212Z" fill="#363E44"/>
<path d="M208.842 123.575C213.111 133.457 219.303 143.594 227.235 140.726C234.952 137.935 232.779 125.117 230.032 114.992L208.842 123.575Z" fill="#84524D"/>
<path d="M214.23 131.862C211.522 139.501 204.255 157.178 203.614 158.932C202.416 162.21 196.955 173.324 200.474 174.183C202.134 174.588 203.52 172.024 204.156 170.306C203.779 172.365 202.699 175.762 204.887 176.121C207.139 176.49 208.335 171.341 208.396 171.27C208.208 172.365 206.839 176.087 209.192 176.659C211.458 177.209 211.773 172.851 212.303 171.771C212.241 173.192 211.911 174.795 213.389 175.152C215.369 175.63 215.756 172.388 216.338 171.475C217.404 168.563 219.809 164.296 222.373 159.017C228.396 146.618 230.829 140.927 232.166 134.293C232.783 131.232 233.274 126.767 228.822 122.991C223.912 125.961 219.139 128.891 214.23 131.862Z" fill="#84524D"/>
<path d="M169.928 66.2539L188.414 67.9937L189.772 53.5567L171.286 51.8169L169.928 66.2539Z" fill="#3D342F"/>
<path d="M178.98 90.4282L173.244 83.5429L172.724 72.2414L185.015 71.6709L185.529 82.9846L178.98 90.4282Z" fill="#84524D"/>
<path d="M188.794 64.6078C188.552 69.745 185.499 77.7494 178.867 77.437C172.236 77.1246 169.949 68.8687 170.191 63.7314C170.432 58.5941 174.835 55.9741 179.972 56.2161C185.109 56.4582 189.036 59.4705 188.794 64.6078Z" fill="#84524D"/>
<path d="M172.092 65.9467C172.881 67.9782 172.423 70.0513 171.069 70.5773C169.714 71.1032 167.977 69.8828 167.188 67.8515C166.399 65.82 166.857 63.747 168.212 63.2209C169.566 62.6948 171.303 63.9152 172.092 65.9467Z" fill="#84524D"/>
<path d="M186.646 66.632C185.669 68.5803 185.931 70.6873 187.23 71.3384C188.528 71.9892 190.373 70.9376 191.349 68.9894C192.326 67.0411 192.064 64.9341 190.765 64.2831C189.467 63.632 187.622 64.6838 186.646 66.632Z" fill="#84524D"/>
<path d="M186.129 56.0606C186.681 57.4712 188.271 58.1678 189.681 57.6165C191.092 57.0652 193.966 55.4725 193.415 54.0619C192.863 52.6514 189.096 51.9572 187.685 52.5085C186.275 53.0596 185.578 54.6501 186.129 56.0606Z" fill="#3D342F"/>
<path d="M166.37 56.62C167.043 58.3422 171.378 58.1932 173.101 57.52C174.823 56.8471 175.673 54.9052 175 53.183C174.327 51.4608 172.386 50.6103 170.663 51.2833C168.941 51.9564 165.697 54.8978 166.37 56.62Z" fill="#3D342F"/>
<path d="M184.114 52.8883C184.787 54.6105 186.729 55.4611 188.451 54.7881C190.174 54.1151 193.049 50.1324 191.907 48.8077C190.7 47.4072 187.736 47.8784 186.014 48.5513C184.292 49.2243 183.441 51.1661 184.114 52.8883Z" fill="#3D342F"/>
<path d="M172.573 51.8791C172.997 52.9648 174.221 53.501 175.307 53.0766C176.392 52.6522 176.928 51.4283 176.504 50.3426C176.08 49.2569 174.034 47.6985 172.949 48.1227C171.863 48.5471 172.148 50.7934 172.573 51.8791Z" fill="#3D342F"/>
<path d="M175.624 52.6142C176.297 54.3364 178.239 55.1869 179.961 54.514C181.683 53.8408 182.534 51.8991 181.861 50.1769C181.188 48.4548 177.686 43.4754 175.964 44.1486C174.242 44.8215 174.951 50.8918 175.624 52.6142Z" fill="#3D342F"/>
<path d="M176.055 58.7671C176.728 60.4893 180.547 60.0731 182.27 59.3999C183.992 58.7268 184.842 56.7851 184.169 55.0629C183.496 53.3407 181.555 52.4902 179.832 53.1631C178.11 53.8363 175.382 57.0449 176.055 58.7671Z" fill="#3D342F"/>
<path d="M180.054 51.1822C180.727 52.9044 182.669 53.7549 184.391 53.0819C186.113 52.409 186.964 50.4671 186.291 48.7449C185.618 47.0227 182.893 44.6633 181.171 45.3364C179.449 46.0094 179.381 49.46 180.054 51.1822Z" fill="#3D342F"/>
<path d="M184.107 56.8582C183.021 57.2824 182.485 58.5065 182.91 59.5922C183.334 60.6779 184.974 62.2522 186.06 61.828C187.145 61.4038 187.265 59.1414 186.841 58.0557C186.417 56.9702 185.193 56.434 184.107 56.8582Z" fill="#3D342F"/>
<path d="M109.984 329.1C109.013 330.861 107.918 333.292 107.224 336.321C106.148 341.01 106.519 345.004 106.955 347.477C117.946 347.477 128.937 347.477 139.928 347.477C139.7 346.006 139.322 344.698 138.866 343.541C134.511 332.498 120.572 329.161 117.408 328.477C114.933 328.685 112.459 328.893 109.984 329.1Z" fill="#3D342F"/>
<path d="M106.036 317.953L108.546 329.591C109.1 331.937 111.366 333.526 113.742 333.119C113.878 333.096 114.017 333.068 114.157 333.034C116.357 332.507 117.838 330.439 117.672 328.183L116.586 316.795L106.036 317.953Z" fill="#BC8271"/>
<path d="M44.1695 325.644C44.1695 325.644 38.6711 336.261 39.6537 347.477C47.0282 347.477 54.4025 347.477 61.7768 347.477C61.2003 345.06 60.3195 342.241 58.9454 339.223C56.5904 334.05 53.6525 330.192 51.2696 327.556L44.1695 325.644Z" fill="#3D342F"/>
<path d="M43.1814 328.205C43.0244 324.329 43.0439 317.179 44.808 311.424L57.6702 315.222C57.6702 315.222 53.4498 321.639 52.1155 328.806C51.7121 330.973 49.7863 332.541 47.5881 332.378C47.3 332.356 46.9994 332.319 46.6875 332.263C44.715 331.907 43.2625 330.207 43.1814 328.205Z" fill="#BC8271"/>
<path d="M65.4766 212.354C65.4766 212.354 41.3109 250.094 41.0098 322.888H58.6573C58.6573 322.888 79.8194 259.985 93.7563 244.301L88.601 209.192L65.4766 212.354Z" fill="#C5614A"/>
<path d="M76.5728 252.137C76.5728 252.137 98.913 288.956 104.088 322.888H120.553C120.553 322.888 122.491 240.532 92.4626 207.237L77.3391 210.463L76.5728 252.137Z" fill="#C5614A"/>
<path d="M86.5845 184.172C86.5845 184.172 105.246 197.576 120.852 182.605L124.166 175.878C124.166 175.878 127.993 186.311 125.29 196.48C122.586 206.648 111.468 208.703 96.2191 205.593L86.5845 184.172Z" fill="#84524D"/>
<path d="M56.9944 224.555C66.5413 218.554 86.5217 207.095 100.64 206.57C100.64 206.57 102.255 194.143 88.2264 182.925C88.2264 182.925 72.0199 172.602 50.6228 181.865C50.6228 181.865 35.7712 206.636 42.8833 220.68C45.5134 225.873 52.0659 227.654 56.9944 224.555Z" fill="#EFBC73"/>
<path d="M51.0442 181.627C51.0442 188.579 51.3812 194.49 51.9684 204.531C52.6427 216.065 52.9511 221.676 48.675 223.384C25.0251 232.828 31.3215 192.031 51.0442 181.627Z" fill="#84524D"/>
<path d="M46.454 205.589C46.454 205.589 60.655 199.807 68.3988 197.274C76.5314 194.613 88.9262 191.868 89.2879 193.607C89.494 194.597 87.8808 195.321 83.4408 196.969C83.7485 197.11 84.5595 197.689 84.5998 198.639C84.6596 200.045 83.5527 200.484 83.4691 200.563C83.5774 200.602 84.7318 201.059 84.9311 201.993C85.1556 203.046 84.6912 203.855 84.0021 204.344C84.2676 204.45 85.2076 204.941 85.3727 205.844C85.5425 206.774 85.0452 207.868 84.1036 208.16C82.3766 208.697 77.2135 210.194 74.7896 211.229C70.0199 213.266 54.0519 222.772 46.3799 223.893C47.6624 217.306 46.454 205.589 46.454 205.589Z" fill="#84524D"/>
<path d="M118.138 193.514H103.996L113.322 171.694H127.465L118.138 193.514Z" fill="white"/>
<path d="M116.522 174.327C116.522 174.855 116.094 175.283 115.566 175.283C115.038 175.283 114.61 174.855 114.61 174.327C114.61 173.8 115.038 173.372 115.566 173.372C116.094 173.372 116.522 173.8 116.522 174.327Z" fill="#D3BBA3"/>
<path d="M127.12 179.152C127.12 180.584 126.999 181.745 124.519 181.745C122.039 181.745 118.138 180.584 118.138 179.152C118.138 177.72 122.039 176.559 124.519 176.559C126.999 176.559 127.12 177.72 127.12 179.152Z" fill="#84524D"/>
<path d="M116.821 182.963C116.821 181.53 120.721 180.37 123.202 180.37C125.682 180.37 125.803 181.53 125.803 182.963H116.821Z" fill="#84524D"/>
<path d="M125.803 182.962C125.803 184.394 125.682 185.555 123.202 185.555C120.721 185.555 116.821 184.394 116.821 182.962H125.803Z" fill="#84524D"/>
<path d="M115.504 186.773C115.504 185.341 119.405 184.18 121.885 184.18C124.365 184.18 124.486 185.341 124.486 186.773H115.504Z" fill="#84524D"/>
<path d="M124.486 186.773C124.486 188.205 124.365 189.366 121.885 189.366C119.404 189.366 115.504 188.205 115.504 186.773H124.486Z" fill="#84524D"/>
<path d="M116.029 190.052C116.029 188.913 119.13 187.991 121.101 187.991C123.073 187.991 123.169 188.913 123.169 190.052H116.029Z" fill="#84524D"/>
<path d="M123.169 190.051C123.169 191.19 123.073 192.112 121.101 192.112C119.13 192.112 116.029 191.19 116.029 190.051H123.169Z" fill="#84524D"/>
<path d="M71.0381 173.429C76.0788 173.429 80.165 169.343 80.165 164.302C80.165 159.262 76.0788 155.175 71.0381 155.175C65.9974 155.175 61.9111 159.262 61.9111 164.302C61.9111 169.343 65.9974 173.429 71.0381 173.429Z" fill="#3D342F"/>
<path d="M77.3421 168.852C76.1871 168.214 74.2084 166.509 73.5703 167.664L66.0829 179.638C65.4449 180.793 69.275 180.391 70.43 181.029C71.585 181.667 73.0384 181.248 73.6765 180.093L78.278 172.098C78.916 170.943 78.4971 169.49 77.3421 168.852Z" fill="#84524D"/>
<path d="M70.0214 182.507C73.5872 182.507 76.4778 181.637 76.4778 180.563C76.4778 179.49 73.5872 178.62 70.0214 178.62C66.4556 178.62 63.5649 179.49 63.5649 180.563C63.5649 181.637 66.4556 182.507 70.0214 182.507Z" fill="#84524D"/>
<path d="M83.3857 172.146C82.3497 174.085 76.2773 173.251 76.2773 173.251L70.9817 169.121C69.6018 166.354 70.7267 162.992 73.4942 161.612C76.2618 160.232 79.6237 161.357 81.0034 164.125C81.0034 164.125 84.441 170.171 83.3857 172.146Z" fill="#84524D"/>
<path d="M66.9917 170.139C66.9917 170.139 74.8598 170.486 79.8353 162.618C84.8107 154.75 71.1572 155.213 65.4874 157.874C61.856 159.579 66.9917 170.139 66.9917 170.139Z" fill="#3D342F"/>
<path d="M56.4713 137.993C56.4713 137.993 48.6743 155.202 66.8341 163.135C66.8341 163.135 58.723 148.969 72.3236 137.4L56.4713 137.993Z" fill="#3D342F"/>
<path d="M340.527 339.702H359.644L363.656 289.05H339.858L340.527 339.702Z" fill="#E2A18D"/>
<path d="M327.028 346.286H360.36V331.036H341.925C333.698 331.036 327.028 337.705 327.028 345.932L327.028 346.286Z" fill="#3D342F"/>
<path d="M342.521 334.268C342.472 334.268 342.422 334.249 342.384 334.211L339.443 331.27C339.367 331.194 339.367 331.071 339.443 330.995C339.519 330.92 339.642 330.92 339.718 330.995L342.659 333.936C342.734 334.012 342.734 334.135 342.659 334.211C342.621 334.249 342.571 334.268 342.521 334.268Z" fill="#363E44"/>
<path d="M339.178 335.271C339.128 335.271 339.078 335.252 339.04 335.214L336.099 332.273C336.024 332.197 336.024 332.075 336.099 331.999C336.175 331.923 336.298 331.923 336.374 331.999L339.315 334.94C339.391 335.016 339.391 335.138 339.315 335.214C339.277 335.252 339.227 335.271 339.178 335.271Z" fill="#363E44"/>
<path d="M292.798 333.364L311.283 336.621L322.27 293.349L298.813 289.332L292.798 333.364Z" fill="#E2A18D"/>
<path d="M279.398 346.286H312.73V331.036H294.295C286.068 331.036 279.398 337.705 279.398 345.932L279.398 346.286Z" fill="#3D342F"/>
<path d="M294.891 334.268C294.842 334.268 294.792 334.249 294.754 334.211L291.813 331.27C291.737 331.194 291.737 331.071 291.813 330.995C291.889 330.92 292.012 330.92 292.088 330.995L295.029 333.936C295.105 334.012 295.105 334.135 295.029 334.211C294.991 334.249 294.941 334.268 294.891 334.268Z" fill="#363E44"/>
<path d="M291.548 335.271C291.498 335.271 291.448 335.252 291.411 335.214L288.47 332.273C288.394 332.197 288.394 332.075 288.47 331.999C288.545 331.923 288.668 331.923 288.744 331.999L291.685 334.94C291.761 335.016 291.761 335.138 291.685 335.214C291.647 335.252 291.597 335.271 291.548 335.271Z" fill="#363E44"/>
<path d="M362.41 206.084C367.342 219.233 369.817 234.1 370.712 248.788C372.407 276.629 366.892 305.101 363.5 324.75C355.329 324.75 347.159 324.75 338.989 324.75C338.227 304.38 336.796 284.011 336.034 263.641C329.608 283.902 323.85 304.162 317.423 324.423C308.708 324.423 299.993 324.423 291.278 324.423C292.42 305.512 295.64 281.67 303.698 255.145C309.659 235.524 316.941 218.796 323.959 205.146C338.469 205.4 349.362 205.999 362.41 206.084Z" fill="#3D342F"/>
<path d="M315.974 171.629C299.834 178.329 291.957 184.019 294.992 189.921C296.753 193.345 308.203 192.765 321.218 188.153C319.909 182.788 317.702 178.085 315.974 171.629Z" fill="#E2A18D"/>
<path d="M368.881 171.158C374.889 177.578 393.308 195.124 386.258 202.268C380.427 208.178 363.202 190.351 356.843 184.334C360.856 179.942 364.868 175.55 368.881 171.158Z" fill="#E2A18D"/>
<path d="M373.759 169.959C373.759 169.959 357.674 162.312 342.907 163.63C328.141 164.949 313.704 170.75 313.704 170.75L320.757 188.681L318.648 211.272L370.858 206.232L366.903 189.802L373.759 169.959Z" fill="#C5614A"/>
<path d="M311.066 185.681C311.066 185.681 311.066 185.68 311.066 185.68C305.286 170.958 301.467 160.402 300.16 157.189C300.023 156.853 299.784 156.258 299.276 155.598C297.392 153.152 294.827 153.73 291.673 152.062C288.094 150.169 287.15 147.077 286.192 147.464C285.525 147.734 285.552 149.001 286.545 151.353C286.545 151.353 286.545 151.354 286.545 151.354C285.585 149.653 284.183 147.403 283.245 147.936C282.194 148.609 283.531 151.446 284.423 153.123C283.343 151.093 282.161 150.337 281.712 150.765C281.005 151.438 281.477 153.207 283.009 155.834C281.444 154.315 280.838 154.18 280.533 154.655C279.977 155.522 281.277 157.658 282.716 159.37C284.335 161.297 286.26 162.229 287.488 162.789C290.467 173.52 292.37 180.425 294.6 189.14C295.056 190.923 296.942 191.933 298.679 191.326C303.376 189.683 305.991 188.674 311.066 185.681Z" fill="#E2A18D"/>
<path d="M294.21 154.266C292.987 150.451 293.354 148.816 293.965 148.642C294.992 148.348 297.369 151.178 299.859 156.528C298.228 156.039 295.84 154.756 294.21 154.266Z" fill="#E2A18D"/>
<path d="M353.051 249.062C353.002 249.062 352.955 249.044 352.919 249.011C352.881 248.976 352.859 248.927 352.857 248.876L350.858 201.27C350.724 198.094 351.836 195.056 353.988 192.716C356.139 190.376 359.073 189.014 362.249 188.88L362.804 188.857C369.36 188.58 374.919 193.692 375.195 200.249L377.193 247.854C377.198 247.962 377.115 248.052 377.008 248.056L353.059 249.062C353.056 249.062 353.053 249.062 353.051 249.062ZM363.31 189.234C363.147 189.234 362.984 189.238 362.821 189.245L362.266 189.268C359.193 189.397 356.355 190.715 354.273 192.979C352.192 195.243 351.116 198.182 351.245 201.254L353.236 248.666L376.797 247.677L374.807 200.265C374.547 194.086 369.437 189.234 363.31 189.234Z" fill="#EA6F32"/>
<path d="M386.563 262.058L345.035 263.613L352.138 234.804L377.324 233.86L386.563 262.058Z" fill="#EA6F32"/>
<path d="M371.371 241.544L358.541 242.082L358.684 245.503L371.514 244.965L371.371 241.544Z" fill="#E6D0BE"/>
<path d="M379.699 189.215C372.908 190.693 356.742 193.381 355.175 193.706C352.245 194.314 336.604 197.985 336.889 200.299C337.025 201.405 340.07 200.834 341.094 200.611C340.356 201.199 338.797 202.295 339.266 203.452C339.817 204.812 342.321 203.905 342.401 203.917C341.591 204.438 340.363 205.514 340.681 206.395C341.095 207.542 342.634 207.526 343.707 207.21C343.637 207.39 342.422 208.59 342.704 209.282C343.017 210.048 344.371 210.188 345.745 210.018C348.349 209.48 358.58 207.932 363.586 207.416C375.343 206.206 378.971 204.86 384.553 203.274C386.738 202.654 383.031 190.915 379.699 189.215Z" fill="#E2A18D"/>
<path d="M351.617 211.606C351.515 211.606 351.43 211.527 351.423 211.424L350.841 202.035C350.425 195.317 355.774 189.287 362.523 188.869C362.629 188.862 362.722 188.943 362.729 189.05C362.735 189.157 362.654 189.249 362.547 189.256C356.008 189.661 350.825 195.503 351.228 202.011L351.811 211.4C351.817 211.506 351.736 211.599 351.629 211.605C351.625 211.606 351.621 211.606 351.617 211.606Z" fill="#B77250"/>
<path d="M347.325 138.435C346.953 138.238 343.356 136.406 340.07 138.031C337.625 139.24 336.427 141.588 335.014 145.831C333.349 150.827 333.052 154.046 334.057 155.58C335.646 158.003 343.662 157.331 347.895 154.109C350.95 151.784 352.364 147.754 351.707 143.944C351.053 140.144 347.563 138.561 347.325 138.435Z" fill="#E2A18D"/>
<path d="M342.598 171.151H342.814C345.328 171.151 347.366 169.113 347.366 166.6V152.896C347.366 150.382 345.328 148.345 342.814 148.345H342.598C340.085 148.345 338.047 150.382 338.047 152.896V166.6C338.047 169.113 340.085 171.151 342.598 171.151Z" fill="#E2A18D"/>
<path d="M362.061 146.161C365.57 144.132 366.771 139.643 364.743 136.134C362.714 132.624 358.225 131.424 354.716 133.452C351.206 135.48 350.006 139.969 352.034 143.479C354.062 146.988 358.552 148.189 362.061 146.161Z" fill="#B77250"/>
<path d="M360.79 148.082C359.838 148.082 358.84 147.955 357.832 147.685C355.716 147.119 353.876 146.019 352.651 144.588C351.409 143.137 350.944 141.516 351.342 140.027C352.157 136.979 356.394 135.456 360.79 136.632C362.906 137.198 364.746 138.298 365.971 139.729C367.214 141.18 367.679 142.8 367.28 144.29C366.652 146.639 363.989 148.082 360.79 148.082ZM351.717 140.127C351.353 141.489 351.789 142.984 352.946 144.336C354.121 145.708 355.892 146.764 357.933 147.31C362.12 148.43 366.145 147.031 366.905 144.19C367.269 142.827 366.833 141.332 365.676 139.981C364.501 138.609 362.73 137.552 360.689 137.006C356.502 135.886 352.477 137.286 351.717 140.127Z" fill="#D87355"/>
<path d="M360.321 149.937C359.762 149.937 359.174 149.854 358.566 149.687C356.749 149.188 354.971 147.991 353.557 146.318C352.144 144.644 351.263 142.69 351.075 140.816C350.884 138.914 351.428 137.319 352.607 136.324C355.017 134.289 359.365 135.46 362.3 138.936C365.234 142.411 365.661 146.894 363.251 148.929C362.461 149.596 361.454 149.937 360.321 149.937ZM352.857 136.62C351.78 137.53 351.284 139.006 351.461 140.777C351.641 142.574 352.491 144.453 353.854 146.067C355.217 147.682 356.927 148.834 358.669 149.313C360.385 149.785 361.923 149.543 363 148.633C365.247 146.736 364.8 142.498 362.004 139.186C359.207 135.874 355.103 134.723 352.857 136.62Z" fill="#D87355"/>
<path d="M338.253 139.359C341.353 134.882 349.441 135.786 352.813 139.745C356.417 143.977 355.213 150.355 352.817 153.507C351.393 155.381 348.402 157.763 346.924 156.572C345.135 155.13 347.83 151.91 346.05 147.04C344.676 143.279 339.478 142.399 338.253 139.359Z" fill="#B77250"/>
<path d="M348.15 152.168C349.504 150.935 349.757 149.008 348.715 147.864C347.673 146.72 345.731 146.791 344.377 148.024C343.023 149.256 342.77 151.183 343.812 152.327C344.854 153.472 346.796 153.4 348.15 152.168Z" fill="#E2A18D"/>
</svg>
