<svg width="32" height="32" viewBox="0 0 32 32" fill="none" xmlns="http://www.w3.org/2000/svg">
<g clip-path="url(#clip0_797_11454)">
<path d="M14 11H12V17H14V11Z" fill="#8D8D8D"/>
<path d="M9 13H7V17H9V13Z" fill="#8D8D8D"/>
<path d="M4 7H2V17H4V7Z" fill="#8D8D8D"/>
<path d="M30 28.5859L22.4478 21.0337C24.0396 19.1255 25 16.6733 25 14C25 7.9346 20.0654 3 14 3C11.5974 3 9.3147 3.7607 7.3987 5.2002L8.5999 6.7993C10.1668 5.6221 12.0342 5 14 5C18.9626 5 23 9.0371 23 14C23 18.9629 18.9626 23 14 23C11.1426 23 8.5181 21.688 6.7993 19.3999L5.2002 20.6016C7.3003 23.3965 10.5078 25 14 25C16.6733 25 19.1255 24.0396 21.0337 22.4478L28.5859 30L30 28.5859Z" fill="#8D8D8D"/>
</g>
<defs>
<clipPath id="clip0_797_11454">
<rect width="32" height="32" fill="white"/>
</clipPath>
</defs>
</svg>
