<svg width="28" height="28" viewBox="0 0 28 28" fill="none" xmlns="http://www.w3.org/2000/svg">
<g clip-path="url(#clip0_797_11297)">
<path d="M14 15.75C14.9665 15.75 15.75 14.9665 15.75 14C15.75 13.0335 14.9665 12.25 14 12.25C13.0335 12.25 12.25 13.0335 12.25 14C12.25 14.9665 13.0335 15.75 14 15.75Z" fill="#8D8D8D"/>
<path d="M26.25 14.875V13.125H20.8512L23.1087 10.8587L21.875 9.625L17.5 14L21.875 18.375L23.1087 17.1413L20.8512 14.875H26.25Z" fill="#8D8D8D"/>
<path d="M13.125 20.8512V26.25H14.875V20.8512L17.1413 23.1087L18.375 21.875L14 17.5L9.625 21.875L10.8587 23.1087L13.125 20.8512Z" fill="#8D8D8D"/>
<path d="M6.125 9.625L4.89125 10.8587L7.14875 13.125H1.75V14.875H7.14875L4.89125 17.1413L6.125 18.375L10.5 14L6.125 9.625Z" fill="#8D8D8D"/>
<path d="M14.875 7.14875V1.75H13.125V7.14875L10.8587 4.89125L9.625 6.125L14 10.5L18.375 6.125L17.1413 4.89125L14.875 7.14875Z" fill="#8D8D8D"/>
</g>
<defs>
<clipPath id="clip0_797_11297">
<rect width="28" height="28" fill="white"/>
</clipPath>
</defs>
</svg>
