<svg width="603" height="350" viewBox="0 0 603 350" fill="none" xmlns="http://www.w3.org/2000/svg">
<path d="M-11.7831 324.651C-11.7831 324.651 357.317 333.753 293.217 293.857C244.897 263.678 490.057 306.38 602.965 265.32C602.965 265.32 477.209 245.885 401.517 243.627C325.826 241.369 106.991 178.617 -14.1572 203.663" fill="#ADB256"/>
<g style="mix-blend-mode:multiply" opacity="0.44">
<path d="M565.473 279.595C523.158 274.189 436.574 256.465 370.169 265.635C236.243 284.043 177.868 264.061 133.459 245.584C76.062 221.77 12.7298 263.924 13.9168 324.966C13.9168 324.966 253.979 330.92 313.261 312.238C311.027 308.747 315.565 306.9 325.132 305.942C327.925 302.589 326.249 298.688 318.917 294.171C278.348 268.851 444.255 294.787 565.473 279.595Z" fill="#738E51"/>
</g>
<path d="M382.762 147.026V213.547H416.614V164.216L382.762 147.026Z" fill="#BEBEBE"/>
<path d="M382.279 147.552L416.921 165.443V162.943L382.323 145.447L382.279 147.552Z" fill="#7E7F7F"/>
<path d="M430.252 147.026V213.547H464.104V164.216L430.252 147.026Z" fill="#BEBEBE"/>
<path d="M429.77 147.552L464.411 165.443V162.943L429.813 145.447L429.77 147.552Z" fill="#7E7F7F"/>
<path d="M486.73 257.792H359.74V200.787H486.73V257.792Z" fill="#727272"/>
<path d="M486.73 205.128H359.74V200.787H486.73V205.128Z" fill="#543616"/>
<path d="M138.911 257.792H68.1807V141.326L138.911 182.589V257.792Z" fill="#727272"/>
<path d="M64.6729 132.556V139.133L138.911 182.589V175.88L64.6729 132.556Z" fill="#543616"/>
<path d="M70.9863 257.792H0.299805V141.326L70.9863 182.589V257.792Z" fill="#878787"/>
<path d="M-3.20801 132.556V139.133L70.9865 182.589V175.88L-3.20801 132.556Z" fill="#543616"/>
<path d="M249.8 24.6357H244.011H238.223L228.094 147.285H240.416H247.563H259.929L249.8 24.6357Z" fill="#DE774B"/>
<path d="M266.076 257.791V111.639L200.301 87.3896L134.613 111.727V257.791H266.076Z" fill="#878787"/>
<path d="M131.149 114.665L199.863 89.2755L269.848 114.665V110.324L199.687 83.4873L131.149 110.324V114.665Z" fill="#543616"/>
<path d="M352.529 101.28L348.188 101.324L343.847 101.28L336.217 193.76H345.513H350.863H360.159L352.529 101.28Z" fill="#DE774B"/>
<path d="M364.652 257.792V147.64L315.058 129.398L265.551 147.728V257.792H364.652Z" fill="#727272"/>
<path d="M262.919 149.921L314.706 130.802L367.458 149.921V146.676L314.574 126.417L262.919 146.676V149.921Z" fill="#543616"/>
<path d="M383.686 226.718H375.223V218.299H383.686V226.718Z" fill="#D9D9D9"/>
<path d="M307.727 194.555H299.264V186.136H307.727V194.555Z" fill="#D9D9D9"/>
<path d="M193.445 194.555H184.981V186.136H193.445V194.555Z" fill="#D9D9D9"/>
<path d="M94.218 194.555H85.7549V186.136H94.218V194.555Z" fill="#D9D9D9"/>
<path d="M28.5227 194.555H20.0596V186.136H28.5227V194.555Z" fill="#D9D9D9"/>
<path d="M193.445 126.807H184.981V118.388H193.445V126.807Z" fill="#D9D9D9"/>
<path d="M395.087 226.718H386.624V218.299H395.087V226.718Z" fill="#D9D9D9"/>
<path d="M319.127 194.555H310.664V186.136H319.127V194.555Z" fill="#D9D9D9"/>
<path d="M204.845 194.555H196.382V186.136H204.845V194.555Z" fill="#D9D9D9"/>
<path d="M105.618 194.555H97.1553V186.136H105.618V194.555Z" fill="#D9D9D9"/>
<path d="M39.923 194.555H31.46V186.136H39.923V194.555Z" fill="#D9D9D9"/>
<path d="M204.845 126.807H196.382V118.388H204.845V126.807Z" fill="#D9D9D9"/>
<path d="M406.489 226.718H398.069V218.299H406.489V226.718Z" fill="#D9D9D9"/>
<path d="M330.529 194.555H322.109V186.136H330.529V194.555Z" fill="#D9D9D9"/>
<path d="M216.246 194.555H207.827V186.136H216.246V194.555Z" fill="#D9D9D9"/>
<path d="M117.02 194.555H108.601V186.136H117.02V194.555Z" fill="#D9D9D9"/>
<path d="M51.3245 194.555H42.9053V186.136H51.3245V194.555Z" fill="#D9D9D9"/>
<path d="M216.246 126.807H207.827V118.388H216.246V126.807Z" fill="#D9D9D9"/>
<path d="M417.933 226.718H409.47V218.299H417.933V226.718Z" fill="#D9D9D9"/>
<path d="M429.334 226.718H420.871V218.299H429.334V226.718Z" fill="#D9D9D9"/>
<path d="M440.736 226.718H432.316V218.299H440.736V226.718Z" fill="#D9D9D9"/>
<path d="M452.18 226.718H443.717V218.299H452.18V226.718Z" fill="#D9D9D9"/>
<path d="M463.581 226.718H455.162V218.299H463.581V226.718Z" fill="#D9D9D9"/>
<path d="M474.982 226.718H466.562V218.299H474.982V226.718Z" fill="#D9D9D9"/>
<rect x="18.6904" y="38.3223" width="279.204" height="22.5827" rx="11.2913" fill="#B9C6A8"/>
<rect x="-21" width="279.204" height="22.5827" rx="11.2913" fill="#B9C6A8"/>
<path fill-rule="evenodd" clip-rule="evenodd" d="M146.996 30.5668C146.996 34.8956 145.324 38.4198 143.238 38.547V38.5505H238.783C234.382 38.5406 230.817 34.9699 230.817 30.5668C230.817 26.1575 234.392 22.583 238.801 22.583C238.882 22.583 238.963 22.5842 239.044 22.5866V22.583H143.238V22.5866C145.324 22.7137 146.996 26.2379 146.996 30.5668ZM239.044 38.547C238.969 38.5492 238.895 38.5504 238.82 38.5505H239.044V38.547Z" fill="#B9C6A8"/>
<rect x="266.416" y="76.6445" width="279.204" height="22.5827" rx="11.2913" fill="#B9C6A8"/>
<rect x="311" y="38.6777" width="195" height="22" rx="11" fill="#B9C6A8"/>
<path fill-rule="evenodd" clip-rule="evenodd" d="M390.865 60.8721H486.865V60.9116C486.753 60.9069 486.64 60.9045 486.527 60.9045C482.118 60.9045 478.543 64.479 478.543 68.8883C478.543 73.2976 482.118 76.8721 486.527 76.8721C486.64 76.8721 486.753 76.8697 486.865 76.865V76.8721H390.865V76.872C392.996 76.8508 394.721 73.2845 394.721 68.8883C394.721 64.4921 392.996 60.9258 390.865 60.9046V60.8721Z" fill="#B9C6A8"/>
<rect x="237.675" y="249.778" width="17.7924" height="23.267" fill="#727272"/>
<ellipse cx="246.571" cy="249.778" rx="8.8962" ry="2.73729" fill="#E9B556"/>
<ellipse cx="246.571" cy="273.045" rx="8.8962" ry="2.73729" fill="#727272"/>
<rect x="524.406" y="249.778" width="17.7924" height="23.267" fill="#727272"/>
<ellipse cx="533.302" cy="249.778" rx="8.8962" ry="2.73729" fill="#E9B556"/>
<ellipse cx="533.302" cy="273.045" rx="8.8962" ry="2.73729" fill="#727272"/>
<rect x="214.407" y="249.778" width="17.7924" height="23.267" fill="#727272"/>
<ellipse cx="223.303" cy="249.778" rx="8.8962" ry="2.73729" fill="#E9B556"/>
<ellipse cx="223.303" cy="273.045" rx="8.8962" ry="2.73729" fill="#727272"/>
<rect x="501.139" y="249.778" width="17.7924" height="23.267" fill="#727272"/>
<ellipse cx="510.035" cy="249.778" rx="8.8962" ry="2.73729" fill="#E9B556"/>
<ellipse cx="510.035" cy="273.045" rx="8.8962" ry="2.73729" fill="#727272"/>
<rect x="191.14" y="249.778" width="17.7924" height="23.267" fill="#727272"/>
<ellipse cx="200.036" cy="249.778" rx="8.8962" ry="2.73729" fill="#E9B556"/>
<ellipse cx="200.036" cy="273.045" rx="8.8962" ry="2.73729" fill="#727272"/>
<rect x="477.871" y="249.778" width="17.7924" height="23.267" fill="#727272"/>
<ellipse cx="486.767" cy="249.778" rx="8.8962" ry="2.73729" fill="#E9B556"/>
<ellipse cx="486.767" cy="273.045" rx="8.8962" ry="2.73729" fill="#727272"/>
<rect x="167.873" y="249.778" width="17.7924" height="23.267" fill="#727272"/>
<ellipse cx="176.769" cy="249.778" rx="8.8962" ry="2.73729" fill="#E9B556"/>
<ellipse cx="176.769" cy="273.045" rx="8.8962" ry="2.73729" fill="#727272"/>
<rect x="454.604" y="249.778" width="17.7924" height="23.267" fill="#727272"/>
<ellipse cx="463.501" cy="249.778" rx="8.8962" ry="2.73729" fill="#E9B556"/>
<ellipse cx="463.501" cy="273.045" rx="8.8962" ry="2.73729" fill="#727272"/>
<rect x="144.606" y="249.778" width="17.7924" height="23.267" fill="#727272"/>
<ellipse cx="153.503" cy="249.778" rx="8.8962" ry="2.73729" fill="#E9B556"/>
<ellipse cx="153.503" cy="273.045" rx="8.8962" ry="2.73729" fill="#727272"/>
<rect x="431.338" y="249.778" width="17.7924" height="23.267" fill="#727272"/>
<ellipse cx="440.234" cy="249.778" rx="8.8962" ry="2.73729" fill="#E9B556"/>
<ellipse cx="440.234" cy="273.045" rx="8.8962" ry="2.73729" fill="#727272"/>
<path d="M149 154.256C150.474 154.256 151.549 154.558 152.227 155.162C152.904 155.766 153.242 156.613 153.242 157.701C153.242 158.196 153.164 158.667 153.008 159.115C152.857 159.558 152.607 159.951 152.258 160.295C151.909 160.633 151.448 160.902 150.875 161.1C150.307 161.298 149.607 161.396 148.773 161.396H147.555V165.678H145.68V154.256H149ZM148.875 155.811H147.555V159.834H148.578C149.167 159.834 149.667 159.766 150.078 159.631C150.49 159.49 150.802 159.269 151.016 158.967C151.229 158.665 151.336 158.266 151.336 157.771C151.336 157.11 151.135 156.618 150.734 156.295C150.339 155.972 149.719 155.811 148.875 155.811ZM164.531 165.678H162.664V160.521H157.398V165.678H155.523V154.256H157.398V158.928H162.664V154.256H164.531V165.678ZM177.695 159.951C177.695 160.831 177.583 161.633 177.359 162.357C177.141 163.076 176.81 163.696 176.367 164.217C175.924 164.732 175.37 165.131 174.703 165.412C174.036 165.693 173.255 165.834 172.359 165.834C171.448 165.834 170.656 165.693 169.984 165.412C169.318 165.131 168.763 164.73 168.32 164.209C167.883 163.688 167.555 163.066 167.336 162.342C167.117 161.618 167.008 160.816 167.008 159.936C167.008 158.758 167.201 157.732 167.586 156.857C167.977 155.977 168.568 155.295 169.359 154.811C170.156 154.321 171.161 154.076 172.375 154.076C173.562 154.076 174.549 154.318 175.336 154.803C176.122 155.287 176.711 155.969 177.102 156.85C177.497 157.725 177.695 158.758 177.695 159.951ZM168.977 159.951C168.977 160.831 169.096 161.594 169.336 162.24C169.576 162.881 169.943 163.376 170.438 163.725C170.938 164.068 171.578 164.24 172.359 164.24C173.146 164.24 173.786 164.068 174.281 163.725C174.776 163.376 175.141 162.881 175.375 162.24C175.609 161.594 175.727 160.831 175.727 159.951C175.727 158.613 175.458 157.566 174.922 156.811C174.391 156.05 173.542 155.67 172.375 155.67C171.594 155.67 170.951 155.842 170.445 156.186C169.945 156.529 169.576 157.021 169.336 157.662C169.096 158.298 168.977 159.061 168.977 159.951ZM186.742 162.568C186.742 163.245 186.576 163.829 186.242 164.318C185.914 164.808 185.44 165.183 184.82 165.443C184.206 165.704 183.471 165.834 182.617 165.834C182.201 165.834 181.802 165.811 181.422 165.764C181.042 165.717 180.682 165.649 180.344 165.561C180.01 165.467 179.706 165.355 179.43 165.225V163.459C179.893 163.662 180.411 163.847 180.984 164.014C181.557 164.175 182.141 164.256 182.734 164.256C183.219 164.256 183.62 164.193 183.938 164.068C184.26 163.938 184.5 163.756 184.656 163.521C184.812 163.282 184.891 163.003 184.891 162.686C184.891 162.347 184.799 162.061 184.617 161.826C184.435 161.592 184.159 161.378 183.789 161.186C183.424 160.988 182.966 160.777 182.414 160.553C182.039 160.402 181.68 160.23 181.336 160.037C180.997 159.844 180.695 159.618 180.43 159.357C180.164 159.097 179.953 158.79 179.797 158.436C179.646 158.076 179.57 157.654 179.57 157.17C179.57 156.524 179.724 155.972 180.031 155.514C180.344 155.055 180.781 154.704 181.344 154.459C181.911 154.214 182.573 154.092 183.328 154.092C183.927 154.092 184.49 154.154 185.016 154.279C185.547 154.404 186.068 154.581 186.578 154.811L185.984 156.318C185.516 156.126 185.06 155.972 184.617 155.857C184.18 155.743 183.732 155.686 183.273 155.686C182.878 155.686 182.542 155.745 182.266 155.865C181.99 155.985 181.779 156.154 181.633 156.373C181.492 156.587 181.422 156.842 181.422 157.139C181.422 157.472 181.503 157.753 181.664 157.982C181.831 158.206 182.086 158.412 182.43 158.6C182.779 158.787 183.227 158.995 183.773 159.225C184.404 159.485 184.938 159.758 185.375 160.045C185.818 160.331 186.156 160.675 186.391 161.076C186.625 161.472 186.742 161.969 186.742 162.568ZM192.266 154.256C193.74 154.256 194.815 154.558 195.492 155.162C196.169 155.766 196.508 156.613 196.508 157.701C196.508 158.196 196.43 158.667 196.273 159.115C196.122 159.558 195.872 159.951 195.523 160.295C195.174 160.633 194.714 160.902 194.141 161.1C193.573 161.298 192.872 161.396 192.039 161.396H190.82V165.678H188.945V154.256H192.266ZM192.141 155.811H190.82V159.834H191.844C192.432 159.834 192.932 159.766 193.344 159.631C193.755 159.49 194.068 159.269 194.281 158.967C194.495 158.665 194.602 158.266 194.602 157.771C194.602 157.11 194.401 156.618 194 156.295C193.604 155.972 192.984 155.811 192.141 155.811ZM207.797 165.678H205.93V160.521H200.664V165.678H198.789V154.256H200.664V158.928H205.93V154.256H207.797V165.678ZM220.961 159.951C220.961 160.831 220.849 161.633 220.625 162.357C220.406 163.076 220.076 163.696 219.633 164.217C219.19 164.732 218.635 165.131 217.969 165.412C217.302 165.693 216.521 165.834 215.625 165.834C214.714 165.834 213.922 165.693 213.25 165.412C212.583 165.131 212.029 164.73 211.586 164.209C211.148 163.688 210.82 163.066 210.602 162.342C210.383 161.618 210.273 160.816 210.273 159.936C210.273 158.758 210.466 157.732 210.852 156.857C211.242 155.977 211.833 155.295 212.625 154.811C213.422 154.321 214.427 154.076 215.641 154.076C216.828 154.076 217.815 154.318 218.602 154.803C219.388 155.287 219.977 155.969 220.367 156.85C220.763 157.725 220.961 158.758 220.961 159.951ZM212.242 159.951C212.242 160.831 212.362 161.594 212.602 162.24C212.841 162.881 213.208 163.376 213.703 163.725C214.203 164.068 214.844 164.24 215.625 164.24C216.411 164.24 217.052 164.068 217.547 163.725C218.042 163.376 218.406 162.881 218.641 162.24C218.875 161.594 218.992 160.831 218.992 159.951C218.992 158.613 218.724 157.566 218.188 156.811C217.656 156.05 216.807 155.67 215.641 155.67C214.859 155.67 214.216 155.842 213.711 156.186C213.211 156.529 212.841 157.021 212.602 157.662C212.362 158.298 212.242 159.061 212.242 159.951ZM226.625 154.256C227.609 154.256 228.422 154.376 229.062 154.615C229.708 154.855 230.188 155.219 230.5 155.709C230.818 156.199 230.977 156.821 230.977 157.576C230.977 158.139 230.872 158.618 230.664 159.014C230.456 159.41 230.182 159.738 229.844 159.998C229.505 160.258 229.143 160.467 228.758 160.623L232 165.678H229.883L227.125 161.1H225.289V165.678H223.414V154.256H226.625ZM226.5 155.818H225.289V159.553H226.586C227.456 159.553 228.086 159.391 228.477 159.068C228.872 158.745 229.07 158.269 229.07 157.639C229.07 156.977 228.859 156.508 228.438 156.232C228.021 155.956 227.375 155.818 226.5 155.818ZM242.602 154.256V161.646C242.602 162.443 242.432 163.157 242.094 163.787C241.76 164.417 241.255 164.917 240.578 165.287C239.901 165.652 239.049 165.834 238.023 165.834C236.56 165.834 235.445 165.451 234.68 164.686C233.919 163.915 233.539 162.891 233.539 161.615V154.256H235.414V161.451C235.414 162.404 235.638 163.107 236.086 163.561C236.534 164.014 237.203 164.24 238.094 164.24C238.708 164.24 239.208 164.133 239.594 163.92C239.984 163.701 240.271 163.383 240.453 162.967C240.641 162.545 240.734 162.037 240.734 161.443V154.256H242.602ZM252.117 162.568C252.117 163.245 251.951 163.829 251.617 164.318C251.289 164.808 250.815 165.183 250.195 165.443C249.581 165.704 248.846 165.834 247.992 165.834C247.576 165.834 247.177 165.811 246.797 165.764C246.417 165.717 246.057 165.649 245.719 165.561C245.385 165.467 245.081 165.355 244.805 165.225V163.459C245.268 163.662 245.786 163.847 246.359 164.014C246.932 164.175 247.516 164.256 248.109 164.256C248.594 164.256 248.995 164.193 249.312 164.068C249.635 163.938 249.875 163.756 250.031 163.521C250.188 163.282 250.266 163.003 250.266 162.686C250.266 162.347 250.174 162.061 249.992 161.826C249.81 161.592 249.534 161.378 249.164 161.186C248.799 160.988 248.341 160.777 247.789 160.553C247.414 160.402 247.055 160.23 246.711 160.037C246.372 159.844 246.07 159.618 245.805 159.357C245.539 159.097 245.328 158.79 245.172 158.436C245.021 158.076 244.945 157.654 244.945 157.17C244.945 156.524 245.099 155.972 245.406 155.514C245.719 155.055 246.156 154.704 246.719 154.459C247.286 154.214 247.948 154.092 248.703 154.092C249.302 154.092 249.865 154.154 250.391 154.279C250.922 154.404 251.443 154.581 251.953 154.811L251.359 156.318C250.891 156.126 250.435 155.972 249.992 155.857C249.555 155.743 249.107 155.686 248.648 155.686C248.253 155.686 247.917 155.745 247.641 155.865C247.365 155.985 247.154 156.154 247.008 156.373C246.867 156.587 246.797 156.842 246.797 157.139C246.797 157.472 246.878 157.753 247.039 157.982C247.206 158.206 247.461 158.412 247.805 158.6C248.154 158.787 248.602 158.995 249.148 159.225C249.779 159.485 250.312 159.758 250.75 160.045C251.193 160.331 251.531 160.675 251.766 161.076C252 161.472 252.117 161.969 252.117 162.568Z" fill="#BEBEBE"/>
<path d="M79.869 258.139C79.5729 258.091 79.2831 258.045 79 258C79.2442 258.041 79.5349 258.088 79.869 258.139C93.5099 260.344 120.545 265.529 126.197 269.759C133.415 275.162 126.197 283.743 120.644 284.379C115.092 285.014 113.981 298.363 145.076 301.541C176.17 304.719 241.69 313.936 258.903 319.656C272.674 324.233 282.039 330.886 285 333.64C287.407 336.289 287.444 341.84 268.343 342.857C244.467 344.128 306.1 351.756 381.615 347.942C457.13 344.128 406.046 336.818 376.618 337.772C347.189 338.725 309.431 336.501 302.213 333.64C294.995 330.78 276.116 316.796 256.127 314.254C236.137 311.711 172.838 302.176 154.515 299.952C136.191 297.727 117.868 294.231 126.197 285.968C134.525 277.705 136.191 270.395 132.304 268.17C128.417 265.945 107.318 260.597 96.7678 259.907C89.1845 259.411 82.8267 258.594 79.869 258.139Z" fill="#92B5D8"/>
<path d="M79 258C92.3262 260.119 120.422 265.437 126.197 269.759C133.415 275.162 126.197 283.743 120.644 284.379C115.092 285.014 113.981 298.363 145.076 301.541C176.17 304.719 241.69 313.936 258.903 319.656C272.674 324.233 282.039 330.886 285 333.64C287.407 336.289 287.444 341.84 268.343 342.857C244.467 344.128 306.1 351.756 381.615 347.942C457.13 344.128 406.046 336.818 376.618 337.772C347.189 338.725 309.431 336.501 302.213 333.64C294.995 330.78 276.116 316.796 256.127 314.254C236.137 311.711 172.838 302.176 154.515 299.952C136.191 297.727 117.868 294.231 126.197 285.968C134.525 277.705 136.191 270.395 132.304 268.17C128.417 265.945 107.318 260.597 96.7678 259.907C88.3279 259.355 81.406 258.406 79 258Z" stroke="#92B5D8" stroke-width="0.4" stroke-linecap="round"/>
</svg>
