<svg width="300" height="100" viewBox="0 0 300 100" fill="none" xmlns="http://www.w3.org/2000/svg">
<rect x="40" y="28" width="157" height="16" rx="8" fill="#CBD6A4"/>
<rect y="83.6138" width="216.02" height="16.3862" rx="8.19309" fill="#CBD6A4"/>
<rect x="83.6543" y="55.8066" width="216.02" height="16.3862" rx="8.19309" fill="#CBD6A4"/>
<path fill-rule="evenodd" clip-rule="evenodd" d="M113.897 43.9727H187.897V44.3879C187.855 44.3871 187.813 44.3867 187.771 44.3867C184.359 44.3867 181.594 46.9803 181.594 50.1798C181.594 53.3623 184.33 55.9454 187.717 55.9727H115.199C117.965 55.2831 120 52.9508 120 50.1797C120 46.9892 117.302 44.3803 113.897 44.1907V43.9727ZM187.825 55.9727H187.897V55.9717C187.873 55.9721 187.849 55.9725 187.825 55.9727Z" fill="#CBD6A4"/>
<path fill-rule="evenodd" clip-rule="evenodd" d="M120 77.9858C120 80.7573 117.965 83.0899 115.198 83.7791H187.771H187.96V83.7764C187.897 83.7782 187.834 83.7791 187.771 83.7791C184.36 83.7791 181.594 81.1854 181.594 77.986C181.594 74.7865 184.36 72.1929 187.771 72.1929C187.834 72.1929 187.897 72.1938 187.96 72.1955V72.1929H187.771H115.199C117.965 72.8824 120 75.2147 120 77.9858Z" fill="#CBD6A4"/>
<path d="M118.593 59.4154C116.422 59.9048 113.133 61.2422 110.756 60.6072C110.005 60.7363 109.251 60.8915 108.446 60.8743C107.645 60.8571 106.145 60.7423 105.539 61.2704C104.095 62.5276 106.587 64.7225 107.497 65.4956C108.903 66.6905 112.275 67.0837 113.999 66.4657C117.173 65.328 119.863 64.9385 123.226 65.3024C124.891 65.4825 125.937 66.2952 127.447 66.8254C129.318 67.4825 132.202 67.4106 134.125 66.9684C135.823 66.578 137.391 66.4376 139.095 65.9144C140.449 65.4988 141.626 64.7299 143.186 64.7127C144.544 64.6977 146.553 64.7979 147.794 64.353C148.669 64.0395 151.078 64.0624 151.986 64.3282C152.719 64.5425 153.54 64.3747 154.297 64.5639C155.415 64.8432 156.511 65.2287 157.634 65.4806C159.555 65.9119 161.345 66.6489 163.359 66.692C165.858 66.7455 169.025 67.3254 171.31 66.2176C172.856 65.4682 174.515 64.8758 176.035 64.1269C177.285 63.5109 178.834 63.7084 180.149 63.3125C182.344 62.6513 185.475 62.8143 187.754 62.8307C190.214 62.8484 192.799 62.767 195.249 63.0485C198.201 63.3876 200.957 64.129 203.88 64.666C206.918 65.224 209.954 65.7643 212.982 66.4081C215.177 66.8748 217.363 66.2128 219.486 65.8311C220.747 65.6043 221.135 64.9293 221.963 64.208C223.073 63.2416 223.688 62.9416 225.254 62.8459C227.642 62.6999 229.984 62.4806 232.339 63.0693C236.518 64.1137 240.761 65.3767 245.111 65.6063C248.622 65.7917 252.934 65.9671 256.118 64.4238C260.964 62.075 259.284 56.0646 254.203 55.2428C251.607 54.8227 249.015 54.1784 246.435 53.787C245.113 53.5865 244.266 54.3421 243.002 54.4585C241.088 54.6345 238.95 54.4061 237.068 54.1451C232.614 53.5274 227.243 52.3204 223.482 49.9288C221.142 48.4413 219.677 45.2781 216.854 44.5006C214.916 43.9665 212.742 45.5374 211.143 46.3123C208.999 47.3515 207.386 49.3385 206.201 51.2205C204.777 53.4823 199.889 53.5328 197.544 53.7571C194.118 54.0848 190.124 53.7312 186.902 52.555C185.46 52.0285 184.15 51.2374 182.687 50.7456C181.443 50.3272 180.368 50.0499 179.315 49.298C178.022 48.3753 176.601 46.5377 175.194 46.0008C172.831 45.0991 170.019 41.8767 168.9 39.7344C167.673 37.3864 164.613 37.3214 162.071 37.2673L161.972 37.2652C157.841 37.1767 152.363 36.5355 148.568 38.5253C146.579 39.5685 145.54 41.1871 143.943 42.6095C142.065 44.282 141.261 46.272 139.916 48.1964C137.458 51.7111 133.51 53.3569 129.57 55.2667C128.055 56.0011 126.469 57.3114 124.822 57.7294C122.735 58.259 120.715 58.9372 118.593 59.4154Z" fill="#738E51"/>
<ellipse cx="147.581" cy="50.1777" rx="5.14603" ry="8.95805" transform="rotate(36.8138 147.581 50.1777)" fill="#ADB256"/>
<ellipse cx="153.434" cy="54.8686" rx="4.53627" ry="3.88753" transform="rotate(36.8138 153.434 54.8686)" fill="#ADB256"/>
<ellipse cx="218.384" cy="54.8684" rx="4.53627" ry="3.88753" transform="rotate(164.376 218.384 54.8684)" fill="#ADB256"/>
<ellipse cx="214.358" cy="51.9531" rx="1.62204" ry="1.39007" transform="rotate(164.376 214.358 51.9531)" fill="#ADB256"/>
<ellipse cx="246.264" cy="56.5112" rx="1.62204" ry="1.39007" transform="rotate(164.376 246.264 56.5112)" fill="#ADB256"/>
<ellipse cx="255.38" cy="61.0688" rx="1.62204" ry="1.39007" transform="rotate(164.376 255.38 61.0688)" fill="#ADB256"/>
<ellipse cx="160.803" cy="51.9531" rx="1.62204" ry="1.39007" transform="rotate(164.376 160.803 51.9531)" fill="#ADB256"/>
<ellipse cx="164.425" cy="37.8631" rx="1.62204" ry="2.14089" transform="rotate(94.7837 164.425 37.8631)" fill="#ADB256"/>
<ellipse cx="129.839" cy="60.1888" rx="3.36375" ry="2.88269" transform="rotate(164.376 129.839 60.1888)" fill="#ADB256"/>
<path d="M170.262 44.4806C170.262 43.8729 170.49 42.5663 171.401 42.2017" stroke="#425828" stroke-width="0.5" stroke-linecap="round"/>
<path d="M170.272 44.686C169.965 44.101 169.462 42.7851 169.904 42.2018" stroke="#425828" stroke-width="0.5" stroke-linecap="round"/>
<path d="M158.867 52.4567C158.867 51.849 159.095 50.5424 160.007 50.1777" stroke="#425828" stroke-width="0.5" stroke-linecap="round"/>
<path d="M158.877 52.6621C158.571 52.0771 158.068 50.7612 158.509 50.1779" stroke="#425828" stroke-width="0.5" stroke-linecap="round"/>
<path d="M146.333 42.2013C146.333 41.5936 146.561 40.287 147.472 39.9224" stroke="#425828" stroke-width="0.5" stroke-linecap="round"/>
<path d="M146.343 42.4067C146.037 41.8217 145.534 40.5058 145.975 39.9225" stroke="#425828" stroke-width="0.5" stroke-linecap="round"/>
<path d="M134.938 54.7355C134.938 54.1278 135.166 52.8212 136.078 52.4565" stroke="#425828" stroke-width="0.5" stroke-linecap="round"/>
<path d="M134.949 54.9409C134.642 54.3559 134.139 53.04 134.581 52.4567" stroke="#425828" stroke-width="0.5" stroke-linecap="round"/>
<path d="M111.009 61.5724C111.009 60.9647 111.237 59.6581 112.148 59.2935" stroke="#425828" stroke-width="0.5" stroke-linecap="round"/>
<path d="M111.019 61.7778C110.712 61.1928 110.209 59.8769 110.651 59.2936" stroke="#425828" stroke-width="0.5" stroke-linecap="round"/>
<path d="M179.378 60.4335C179.378 59.8258 179.606 58.5192 180.517 58.1545" stroke="#425828" stroke-width="0.5" stroke-linecap="round"/>
<path d="M179.388 60.6389C179.081 60.0539 178.579 58.738 179.02 58.1547" stroke="#425828" stroke-width="0.5" stroke-linecap="round"/>
<path d="M216.98 47.8991C216.98 47.2913 217.208 45.9847 218.12 45.6201" stroke="#425828" stroke-width="0.5" stroke-linecap="round"/>
<path d="M216.991 48.1044C216.684 47.5194 216.181 46.2036 216.623 45.6203" stroke="#425828" stroke-width="0.5" stroke-linecap="round"/>
<path d="M245.468 55.8751C245.468 55.2674 245.696 53.9608 246.607 53.5962" stroke="#425828" stroke-width="0.5" stroke-linecap="round"/>
<path d="M245.478 56.0803C245.171 55.4953 244.668 54.1794 245.11 53.5961" stroke="#425828" stroke-width="0.5" stroke-linecap="round"/>
<path d="M256.862 60.4335C256.862 59.8258 257.09 58.5192 258.002 58.1545" stroke="#425828" stroke-width="0.5" stroke-linecap="round"/>
<path d="M256.872 60.6389C256.566 60.0539 256.063 58.738 256.505 58.1547" stroke="#425828" stroke-width="0.5" stroke-linecap="round"/>
<path d="M279.844 13.5397C279.66 12.8819 279.208 12.3092 278.563 11.8087C278.283 11.5902 277.961 11.4501 277.616 11.3524C278.14 10.911 278.567 10.4182 278.865 10.0425C279.664 9.03604 279.189 7.77743 277.984 7.04301C276.784 6.3119 274.833 6.92934 273.779 7.48057C273.504 7.62514 272.912 8.04504 272.558 8.47267C271.718 7.81053 270.655 7.27255 269.477 6.89734C266.951 6.09394 263.892 6.27493 261.249 6.65124C258.591 7.02866 256.105 7.86847 253.957 8.98362C253.158 9.39801 252.47 9.86978 251.857 10.3791C251.648 9.65237 251.062 8.98583 250.027 8.52675C249.778 8.41694 249.491 8.34079 249.187 8.28837C249.494 6.71028 248.731 4.93465 247.335 3.75053C245.158 1.90483 241.765 0.818372 238.414 0.322322C235.257 -0.143933 231.188 -0.19525 228.224 0.784712C226.398 1.38781 224.447 2.37053 223.189 3.585C223.159 3.56348 223.138 3.54031 223.128 3.51548C219.715 1.92745 214.466 1.67308 210.704 1.95283C204.881 2.38708 199.738 4.4662 196.248 7.63286C192.562 10.9767 190.992 15.3821 192.673 19.4316C193.509 21.4439 195.223 23.2979 197.475 24.7232C198.555 25.4057 199.795 25.8758 201.123 26.1721C201.15 26.7289 201.326 27.2983 201.637 27.8556C201.894 28.3152 202.257 28.7462 202.694 29.138C202.858 29.2262 203.013 29.325 203.148 29.453C203.217 29.517 203.18 29.607 203.109 29.6599C202.652 30.007 202.277 30.4517 201.968 30.9351C201.61 31.5685 201.385 32.2412 201.244 32.8978C200.749 35.1882 201.438 37.6701 203.192 39.6565C205.096 41.8101 208.518 42.8867 212.127 43.066C213.503 43.1339 214.845 43.0334 216.118 42.789C218.922 42.0435 221.261 40.8716 223.243 39.3867C224.542 38.0106 225.358 36.4016 225.753 34.7794C226.514 35.0922 227.431 35.2495 228.293 35.2693C229.752 35.303 231.213 34.7291 232.186 33.9114C232.87 34.792 233.884 35.5502 235.188 36.0722C238.122 37.2502 242.082 37.1691 245.253 36.5555C246.746 36.2681 248.175 35.4095 249.333 34.7424C249.793 34.4764 250.239 34.216 250.661 33.9423C252.295 35.3863 254.665 36.4855 257.208 36.9583C260.734 37.6138 264.666 36.7856 267.729 35.5993C270.444 34.5487 272.523 32.9519 273.367 30.8976C274.034 29.2759 273.568 27.7684 272.457 26.4447C273.532 25.8068 274.452 25.0161 275.185 24.2083C276.149 23.1478 276.397 21.7932 276.381 20.5688C276.377 20.2521 276.299 19.9767 276.171 19.7279C277.469 19.2622 278.409 18.4775 279.045 17.5594C279.91 16.3146 280.217 14.891 279.844 13.5397ZM279.03 16.8846C278.537 17.9296 277.667 18.8401 276.254 19.404C276.188 19.4305 276.111 19.4581 276.026 19.4862C275.802 19.1689 275.482 18.8991 275.109 18.6469C275.406 19.0293 275.613 19.4448 275.728 19.8719C275.732 19.8702 275.736 19.8697 275.739 19.8686C275.79 19.9811 275.829 20.0981 275.847 20.2206C276.019 21.3921 275.763 22.835 274.975 23.8878C274.375 24.6895 273.459 25.4642 272.432 26.0943C271.767 26.6262 270.919 27.0329 270.088 27.4622C270.785 27.2658 271.443 27.0009 272.05 26.6765C272.222 26.8757 272.384 27.0815 272.524 27.3005C273.3 28.5133 273.296 29.9502 272.78 31.2049C271.928 33.2741 269.406 34.6872 266.695 35.6363C263.656 36.7018 259.985 37.1404 256.675 36.4336C254.937 36.0628 253.262 35.3212 251.89 34.3909C250.987 33.9153 250.244 33.2829 249.497 32.6815C249.774 33.0561 250.094 33.4181 250.46 33.7608C249.936 34.0913 249.371 34.3959 248.837 34.7065C247.411 35.5331 245.878 36.198 244.028 36.465C241.054 36.8932 237.758 36.7117 235.088 35.6854C233.928 35.2395 233.029 34.5338 232.407 33.7199C232.971 33.1819 233.323 32.5568 233.341 31.9333C233.33 31.9531 233.321 31.9735 233.309 31.9929C232.989 32.6456 232.564 33.2669 231.869 33.7492C230.94 34.5603 229.46 35.0707 227.817 34.9581C227.457 34.9338 227.108 34.8726 226.774 34.7838C225.776 34.5945 224.89 34.1768 224.257 33.6013C224.383 33.8016 224.532 33.9881 224.706 34.147C224.899 34.3247 225.132 34.4786 225.388 34.6122C224.844 36.6019 223.83 38.537 221.979 40.0764C219.293 41.9012 215.812 43.008 211.891 42.6985C208.575 42.437 205.716 41.4945 203.805 39.6036C202.208 38.0211 201.586 36.0369 201.555 34.1448C201.533 32.7918 201.926 31.4234 202.834 30.2139C202.983 30.0164 203.16 29.8326 203.35 29.6561C203.791 29.9634 204.281 30.2338 204.82 30.455C205.917 30.9053 207.68 31.19 208.927 30.8501C206.312 30.8976 203.48 30.1003 202.654 28.4433C202.282 28.0283 202.004 27.5781 201.812 27.1168C201.236 26.0866 201.419 24.9764 201.996 23.9363C201.487 24.4765 201.205 25.0813 201.138 25.7158C200.12 25.4796 199.138 25.1309 198.163 24.5885C195.942 23.3525 194.368 21.5719 193.397 19.761C191.275 15.8031 192.859 11.369 196.318 7.99372C199.544 4.84471 204.535 2.90521 210.082 2.3446C213.841 1.96442 219.204 2.19838 222.742 3.7715C222.772 3.77923 222.799 3.78861 222.827 3.79854C223.105 3.87469 223.366 3.9729 223.618 4.08602C223.964 4.17761 224.305 4.27914 224.628 4.40108C224.475 4.28245 224.318 4.16712 224.148 4.05953C223.855 3.9569 223.602 3.81399 223.342 3.67439C224.735 2.38653 226.957 1.35967 228.979 0.852582C231.879 0.124784 235.595 0.29087 238.549 0.736157C241.245 1.14282 243.892 2.03008 245.926 3.29918C247.787 4.46012 249.06 6.44874 248.835 8.24423C248.628 8.22326 248.418 8.20616 248.204 8.19954C248.103 8.2023 248.005 8.2023 247.906 8.2034C248.837 8.39653 249.656 8.67738 250.299 9.11715C250.379 9.16184 250.458 9.20433 250.537 9.25619C251.04 9.58726 251.344 9.99723 251.502 10.437C251.727 10.8718 251.772 11.3419 251.8 11.8148C251.923 11.4506 251.97 11.0798 251.925 10.7168C252.491 10.2439 253.123 9.80909 253.809 9.4107C255.958 8.16202 258.683 7.35973 261.435 6.97017C265.253 6.42833 269.79 6.83554 272.333 8.8225C272.331 8.8247 272.331 8.82581 272.331 8.82802C272.401 8.87547 272.467 8.92624 272.533 8.97645C272.533 8.97645 272.533 8.97535 272.533 8.97424C272.536 8.977 272.538 8.98086 272.543 8.98472C272.585 9.01618 272.629 9.04652 272.67 9.08073C272.829 9.21426 272.955 9.36104 273.077 9.51002C273.133 9.56961 273.188 9.63141 273.244 9.69155C273.135 9.39414 273.019 9.09728 272.919 8.79601C272.844 8.72759 272.775 8.65752 272.696 8.59185C273.169 8.02076 274.518 7.40387 274.989 7.25655C276.285 6.85375 277.508 7.08494 278.31 7.86406C279.33 8.8534 278.597 10.32 277.305 11.279C276.693 11.1587 276.024 11.1543 275.354 11.1587C275.342 11.1587 275.329 11.1626 275.317 11.1654C276.382 11.2989 277.41 11.3772 278.082 12.0603C278.536 12.3379 278.898 12.717 279.182 13.2224C279.838 14.3905 279.576 15.7258 279.03 16.8846Z" fill="#C2CB8E"/>
<path opacity="0.5" d="M278.083 12.0601C277.411 11.377 276.383 11.2986 275.318 11.1651C275.331 11.1623 275.343 11.1585 275.356 11.1585C276.025 11.1541 276.695 11.1585 277.306 11.2788C278.598 10.3198 279.331 8.85314 278.311 7.86379C277.509 7.08523 276.286 6.85348 274.99 7.25628C274.519 7.4036 273.169 8.0205 272.697 8.59159C272.776 8.65725 272.845 8.72733 272.92 8.79575C273.02 9.09702 273.137 9.39388 273.245 9.69129C273.189 9.63114 273.134 9.56934 273.078 9.50975C272.956 9.36021 272.83 9.21399 272.671 9.08046C272.631 9.0468 272.586 9.01591 272.544 8.98445C272.54 8.98059 272.537 8.97673 272.534 8.97397C272.534 8.97508 272.534 8.97563 272.534 8.97563C272.468 8.92597 272.402 8.8752 272.332 8.82775C272.333 8.82554 272.333 8.82444 272.334 8.82224C269.792 6.83527 265.254 6.42806 261.436 6.9699C258.685 7.35946 255.96 8.16175 253.81 9.41043C253.124 9.80882 252.491 10.2436 251.927 10.7165C251.971 11.0796 251.924 11.4504 251.801 11.8145C251.774 11.3417 251.729 10.8715 251.503 10.4367C251.345 9.99697 251.041 9.587 250.538 9.25593C250.459 9.20407 250.38 9.16158 250.3 9.11688C249.657 8.67712 248.838 8.3957 247.907 8.20313C248.006 8.20203 248.104 8.20203 248.205 8.19927C248.419 8.20589 248.629 8.223 248.836 8.24397C249.061 6.44847 247.787 4.45985 245.927 3.29891C243.894 2.02926 241.247 1.14256 238.551 0.735895C235.596 0.290608 231.88 0.124521 228.98 0.85232C226.958 1.35941 224.736 2.38627 223.343 3.67412C223.604 3.81372 223.856 3.95663 224.149 4.05927C224.319 4.16686 224.477 4.28219 224.629 4.40082C224.306 4.27832 223.965 4.17735 223.619 4.08575C223.367 3.97264 223.106 3.87386 222.828 3.79827C222.801 3.78834 222.774 3.77896 222.744 3.77123C219.204 2.19811 213.842 1.96415 210.083 2.34433C204.537 2.90549 199.544 4.84445 196.319 7.99346C192.86 11.3687 191.276 15.8028 193.398 19.7607C194.369 21.5717 195.942 23.3523 198.164 24.5883C199.139 25.1307 200.121 25.4794 201.139 25.7155C201.206 25.0815 201.487 24.4762 201.997 23.936C201.421 24.9762 201.238 26.0858 201.813 27.1165C202.005 27.5778 202.284 28.0281 202.655 28.443C203.481 30.1 206.314 30.8973 208.928 30.8499C207.68 31.1898 205.918 30.9056 204.821 30.4548C204.282 30.2335 203.792 29.9626 203.351 29.6558C203.161 29.8318 202.983 30.0156 202.835 30.2137C201.926 31.4232 201.534 32.7916 201.557 34.1445C201.588 36.0366 202.208 38.0208 203.806 39.6033C205.717 41.4948 208.576 42.4372 211.892 42.6982C215.813 43.0078 219.294 41.9009 221.98 40.0762C223.832 38.5367 224.846 36.6016 225.389 34.6119C225.133 34.4789 224.9 34.3244 224.707 34.1467C224.534 33.9878 224.385 33.8013 224.258 33.601C224.89 34.1771 225.777 34.5948 226.775 34.7835C227.11 34.8718 227.458 34.933 227.818 34.9579C229.461 35.0704 230.941 34.56 231.87 33.7489C232.565 33.2667 232.99 32.6454 233.311 31.9926C233.322 31.9733 233.331 31.9529 233.342 31.933C233.324 32.5565 232.972 33.1822 232.408 33.7197C233.03 34.5335 233.929 35.2393 235.089 35.6851C237.759 36.7114 241.055 36.893 244.029 36.4648C245.879 36.1983 247.413 35.5328 248.838 34.7062C249.373 34.3956 249.937 34.091 250.461 33.7605C250.095 33.4178 249.775 33.0559 249.498 32.6812C250.246 33.2827 250.988 33.9144 251.891 34.3906C253.263 35.3215 254.938 36.0625 256.676 36.4333C259.986 37.1396 263.657 36.7009 266.696 35.636C269.407 34.6864 271.929 33.2738 272.781 31.2047C273.298 29.9499 273.301 28.5131 272.525 27.3003C272.385 27.0817 272.223 26.8754 272.051 26.6762C271.443 27.0006 270.786 27.2649 270.09 27.4619C270.92 27.0332 271.768 26.626 272.433 26.0941C273.46 25.4639 274.376 24.6892 274.976 23.8875C275.764 22.8347 276.02 21.3918 275.848 20.2204C275.83 20.0979 275.791 19.9809 275.74 19.8683C275.737 19.8694 275.734 19.87 275.729 19.8716C275.615 19.4451 275.407 19.0296 275.11 18.6467C275.483 18.8983 275.804 19.1681 276.028 19.4859C276.112 19.4572 276.189 19.4297 276.256 19.4037C277.668 18.8398 278.538 17.9288 279.031 16.8843C279.577 15.7256 279.839 14.3902 279.184 13.2216C278.899 12.7167 278.538 12.3376 278.083 12.0601Z" fill="#ADB256"/>
<path opacity="0.5" d="M279.183 13.2221C278.9 12.7167 278.538 12.3371 278.083 12.0601C277.411 11.377 276.383 11.2986 275.318 11.1651C275.331 11.1623 275.343 11.1585 275.356 11.1585C276.025 11.1541 276.695 11.1585 277.306 11.2788C278.598 10.3198 279.331 8.85314 278.311 7.86379C277.509 7.08523 276.286 6.85348 274.99 7.25628C274.519 7.4036 273.169 8.0205 272.697 8.59159C272.776 8.65725 272.845 8.72733 272.92 8.79575C273.02 9.09702 273.137 9.39388 273.245 9.69129C273.189 9.63114 273.134 9.56934 273.078 9.50975C272.956 9.36021 272.83 9.21399 272.671 9.08046C272.631 9.0468 272.586 9.01591 272.544 8.98445C272.54 8.98059 272.537 8.97673 272.534 8.97397C272.534 8.97508 272.535 8.97563 272.535 8.97563C272.468 8.92597 272.402 8.8752 272.332 8.82775C272.333 8.82554 272.333 8.82444 272.334 8.82224C269.792 6.83527 265.254 6.42806 261.436 6.9699C258.685 7.35946 255.96 8.16175 253.81 9.41043C253.124 9.80882 252.491 10.2436 251.927 10.7165C251.971 11.0796 251.924 11.4504 251.801 11.8145C251.774 11.3417 251.729 10.8715 251.503 10.4367C251.345 9.99697 251.041 9.587 250.538 9.25593C250.459 9.20407 250.38 9.16158 250.3 9.11688C249.657 8.67712 248.838 8.3957 247.907 8.20313C248.006 8.20203 248.104 8.20203 248.205 8.19927C248.419 8.20589 248.629 8.223 248.836 8.24397C249.061 6.44847 247.787 4.45985 245.927 3.29891C243.894 2.02926 241.247 1.14256 238.551 0.735895C235.596 0.290608 231.88 0.124521 228.98 0.85232C226.958 1.35941 224.736 2.38627 223.343 3.67412C223.604 3.81372 223.856 3.95663 224.149 4.05927C224.319 4.16686 224.477 4.28219 224.629 4.40082C224.306 4.27832 223.965 4.17735 223.619 4.08575C223.367 3.97264 223.106 3.87386 222.828 3.79827C222.801 3.78834 222.774 3.77896 222.744 3.77123C219.204 2.19811 213.842 1.96415 210.083 2.34433C204.537 2.90549 199.544 4.84445 196.319 7.99346C192.86 11.3687 191.276 15.8028 193.398 19.7607C194.369 21.5717 195.942 23.3523 198.164 24.5883C199.139 25.1307 200.121 25.4794 201.139 25.7155C201.206 25.0815 201.487 24.4762 201.997 23.936C201.421 24.9762 201.238 26.0858 201.813 27.1165C202.005 27.5778 202.284 28.0281 202.655 28.443C203.481 30.1 206.314 30.8973 208.928 30.8499C207.68 31.1898 205.918 30.9056 204.821 30.4548C204.282 30.2335 203.792 29.9626 203.351 29.6558C203.161 29.8318 202.983 30.0156 202.835 30.2137C201.926 31.4232 201.534 32.7916 201.557 34.1445C201.588 36.0366 202.208 38.0208 203.806 39.6033C205.717 41.4948 208.576 42.4372 211.892 42.6982C215.813 43.0078 219.294 41.9009 221.98 40.0762C223.832 38.5367 224.846 36.6016 225.389 34.6119C225.133 34.4789 224.9 34.3244 224.707 34.1467C224.534 33.9878 224.385 33.8013 224.258 33.601C224.89 34.1771 225.777 34.5948 226.775 34.7835C227.11 34.8718 227.458 34.933 227.818 34.9579C229.461 35.0704 230.941 34.56 231.87 33.7489C232.565 33.2667 232.99 32.6454 233.311 31.9926C233.322 31.9733 233.331 31.9529 233.342 31.933C233.324 32.5565 232.972 33.1822 232.408 33.7197C233.03 34.5335 233.929 35.2393 235.089 35.6851C237.759 36.7114 241.055 36.893 244.029 36.4648C245.879 36.1983 247.413 35.5328 248.838 34.7062C249.373 34.3956 249.937 34.091 250.461 33.7605C250.095 33.4178 249.775 33.0559 249.498 32.6812C250.246 33.2827 250.988 33.9144 251.891 34.3906C253.263 35.3215 254.938 36.0625 256.676 36.4333C259.986 37.1396 263.657 36.7009 266.696 35.636C269.407 34.6864 271.929 33.2738 272.781 31.2047C273.298 29.9499 273.301 28.5131 272.525 27.3003C272.385 27.0817 272.223 26.8754 272.051 26.6762C271.443 27.0006 270.786 27.2649 270.09 27.4619C270.92 27.0332 271.768 26.626 272.433 26.0941C273.46 25.4639 274.376 24.6892 274.976 23.8875C275.764 22.8347 276.02 21.3918 275.848 20.2204C275.83 20.0979 275.791 19.9809 275.74 19.8683C275.737 19.8694 275.734 19.87 275.729 19.8716C275.615 19.4451 275.407 19.0296 275.11 18.6467C275.483 18.8983 275.804 19.1681 276.028 19.4859C276.112 19.4572 276.189 19.4297 276.256 19.4037C277.668 18.8398 278.538 17.9288 279.031 16.8843C279.576 15.7261 279.838 14.3908 279.183 13.2221ZM273.471 16.8904C273.41 17.0366 273.127 17.0542 273.01 16.9301C271.664 15.5115 269.761 13.796 267.318 13.1085C271.017 15.2996 272.636 18.7681 271.378 22.0418C270.631 23.9857 269.044 25.6962 266.825 27.0304C264.57 28.3862 261.94 28.9473 259.211 29.631C262.041 29.8004 265.15 29.2569 267.335 28.054C267.511 27.9569 267.85 28.0424 267.756 28.2206C266.188 31.2052 262.706 33.9834 257.57 33.499C252.765 33.0465 248.293 30.7698 247.185 27.5132C246.381 29.1338 245.838 31.198 247.524 32.5515C247.622 32.6305 247.626 32.7662 247.472 32.8197C245.287 33.5839 243.021 34.256 240.514 34.2207C239.139 34.2003 237.249 34.1434 236.173 33.473C234.76 32.5929 236.132 31.9992 236.791 31.1622C237.881 29.7772 238.768 28.3315 239.086 26.802C238.49 27.9977 237.42 29.2447 235.632 29.2182C233.905 29.1929 233.295 28.5798 233.101 27.7814C232.798 28.5258 232.336 29.2354 231.644 29.8456C230.501 30.8559 228.801 31.842 226.795 31.6742C225.431 31.5606 224.42 30.9376 223.705 30.1143C223.244 32.0147 222.109 33.8024 219.878 35.0257C215.23 37.5772 208.352 35.7259 205.781 32.4158C205.705 32.3187 205.77 32.1951 205.932 32.1648C207.946 31.7923 210.18 31.9137 212.042 31.2002C213.248 30.7384 214.313 30.1348 215.469 29.6244C214.2 29.7524 212.915 29.9598 211.648 29.8842C210.32 29.8048 209.061 29.4991 207.918 29.0339C205.866 28.1997 203.674 26.8859 203.235 25.2013C202.419 22.0677 205.938 19.5367 209.696 18.0105C205.559 18.7112 201.305 20.7843 200.278 23.6088C200.227 23.7446 199.996 23.7584 199.855 23.6839C192.556 19.7668 195.661 11.8785 200.773 7.75012C203.597 5.46906 207.448 3.61894 211.871 3.19683C213.986 2.99488 215.858 3.15986 217.565 3.62722C219.703 3.80379 221.752 4.43944 223.277 5.5259C225.83 7.34843 226.242 9.78398 227.045 12.1224C228.172 9.57375 228.077 6.37784 226.202 4.06257C226.124 3.96656 226.193 3.84242 226.353 3.81207C230.471 3.04896 234.675 1.60991 238.989 2.69857C242.31 3.53673 245.304 5.39733 245.581 7.90518C245.591 8.00063 245.458 8.07292 245.328 8.07623C242.592 8.14134 240.254 9.62563 239.264 11.3505C241.565 9.42423 244.938 8.21527 248.315 9.97876C250.693 11.2203 251.162 13.0869 250.903 15.0143C253.518 12.2769 257.779 10.1189 262.276 9.49761C265.318 9.07661 269.194 9.26862 271.537 10.8257C273.917 12.4077 274.355 14.7848 273.471 16.8904Z" fill="#738E51"/>
</svg>
