<svg width="299" height="299" viewBox="0 0 299 299" fill="none" xmlns="http://www.w3.org/2000/svg">
<path d="M298.951 149.448C298.951 231.987 232.041 298.896 149.503 298.896C138.955 298.896 128.663 297.805 118.731 295.723C99.0831 291.611 80.8502 283.642 64.8684 272.633C61.9659 270.642 59.1354 268.542 56.384 266.342C39.9015 253.201 26.2604 236.639 16.5373 217.737C6.00011 197.268 0.0546875 174.051 0.0546875 149.448C0.0546875 66.9095 66.9641 0 149.503 0C232.041 0 298.951 66.9095 298.951 149.448Z" fill="#F1E4D0"/>
<path d="M242.555 99L245.137 106.946H253.492L246.732 111.857L249.314 119.804L242.555 114.893L235.795 119.804L238.377 111.857L231.618 106.946H239.973L242.555 99Z" fill="#EA6F32"/>
<path d="M198.205 201H192.907V201.152H198.205V201Z" fill="#EBEBEB"/>
<path d="M225.162 89.6524C223.277 90.3952 224.838 83.8609 219.35 84.0023C213.862 84.1436 213.37 88.6634 213.37 88.6634C213.37 88.6634 209.482 85.4148 206.516 87.5336C203.551 89.6524 205.319 90.5 202.881 90.5C200.443 90.5 197.488 90.4884 197.058 91.9065C196.629 93.3245 233.213 93.737 233.213 91.9065C233.213 90.0759 231.377 90.5 230.246 90.5C229.117 90.5 229.823 87.8163 225.162 89.6524Z" fill="#C9C9C8"/>
<path d="M61.1622 79.6524C59.2768 80.3952 60.838 73.8609 55.35 74.0023C49.8619 74.1436 49.3696 78.6634 49.3696 78.6634C49.3696 78.6634 45.4817 75.4148 42.5159 77.5336C39.5507 79.6524 41.3191 80.5 38.881 80.5C36.4429 80.5 33.4881 80.4884 33.0584 81.9065C32.6288 83.3245 69.2126 83.737 69.2126 81.9065C69.2126 80.0759 67.3765 80.5 66.2462 80.5C65.117 80.5 65.8233 77.8163 61.1622 79.6524Z" fill="#8D8D8D"/>
<path d="M178.961 48.191C181.047 49.0046 179.32 41.8477 185.391 42.0025C191.462 42.1572 192.007 47.1082 192.007 47.1082C192.007 47.1082 196.308 43.5498 199.588 45.8703C202.869 48.191 200.912 49.1194 203.61 49.1194C206.307 49.1194 209.575 49.1067 210.051 50.6603C210.526 52.2139 170.055 52.6651 170.055 50.6603C170.055 48.6552 172.086 49.1194 173.336 49.1194C174.586 49.1191 173.805 46.1797 178.961 48.191Z" fill="#8D8D8D"/>
<path d="M148.711 214.714C213.964 214.714 266.862 211.625 266.862 207.814C266.862 204.003 213.964 200.914 148.711 200.914C83.4583 200.914 30.5603 204.003 30.5603 207.814C30.5603 211.625 83.4583 214.714 148.711 214.714Z" fill="#C5614A"/>
<path d="M178.395 191.557C174.193 188.516 168.149 180.622 171.906 171.781C175.663 162.941 178.766 178.77 181.616 175.848C184.467 172.925 173.611 165.399 180.882 159.407C188.153 153.416 187.672 168.492 191.011 166.193C194.351 163.895 184.226 152.512 195.386 147.422C206.546 142.332 199.102 155.583 203.574 155.745C208.045 155.908 203.684 147.641 211.37 144.382C219.057 141.123 223.284 147.1 218.029 151.583C212.774 156.067 227.646 153.897 226.51 159.26C225.374 164.624 210.963 162.781 209.407 164.898C207.85 167.015 222.705 166.134 221.567 169.422C220.429 172.709 215.151 179.783 210.877 178.985C206.603 178.187 200.354 173.405 198.815 175.009C197.276 176.612 212.413 180.82 210.756 182.911C209.101 185.003 203.37 190.446 200.711 189.319C198.053 188.191 191.662 182.674 190.761 184.344C189.859 186.014 203.057 190.865 200.645 192.268C198.233 193.669 191.662 201.162 178.395 191.557Z" fill="#C5614A"/>
<path d="M192.424 205.342C190.352 202.32 188.194 195.631 192.742 190.65C197.29 185.668 195.65 196.93 198.219 195.667C200.787 194.404 195.359 186.813 201.568 184.563C207.777 182.312 203.942 192.219 206.688 191.488C209.433 190.756 205.388 180.777 213.961 180.052C222.533 179.328 214.516 186.362 217.437 187.536C220.357 188.711 219.4 182.175 225.246 181.84C231.093 181.505 232.496 186.487 227.973 188.215C223.45 189.943 233.797 192.045 231.794 195.339C229.791 198.634 220.686 193.974 219.162 195.011C217.638 196.048 227.674 199.002 226.154 200.916C224.634 202.83 219.491 206.274 216.85 204.725C214.208 203.177 211.188 198.508 209.795 199.207C208.403 199.906 217.438 206.31 215.854 207.307C214.271 208.302 209.209 210.556 207.713 209.172C206.217 207.79 203.275 202.599 202.289 203.494C201.303 204.389 208.905 210.759 206.981 211.116C205.058 211.474 198.962 214.889 192.424 205.342Z" fill="#C5614A"/>
<path d="M124.335 198.578C124.32 198.677 124.91 198.907 123.527 199.533C120.12 201.074 113.9 203.315 110.324 201.106C105.217 197.952 112.958 195.304 111.217 193.132C109.475 190.959 102.158 196.262 99.135 193.377C96.1116 190.492 102.31 188.79 101.298 187.087C100.285 185.383 95.032 190.241 91.4639 187.327C87.895 184.413 94.1336 184.224 92.6245 183.029C91.1154 181.835 81.6033 178.163 83.8079 175.599C86.0124 173.035 95.2245 177.157 97.6517 177.015C100.079 176.874 97.8843 170.069 101.589 171.147C105.293 172.225 107.51 182.94 111.286 182.858C114.098 182.796 111.314 179.759 114.377 178.683C118.536 177.219 125.569 190.659 124.335 198.578Z" fill="#C5614A"/>
<path d="M119.442 185.596C119.375 185.673 119.752 186.201 118.224 185.976C114.462 185.421 107.907 183.911 106.065 180.004C103.436 174.427 111.516 176.429 111.225 173.574C110.934 170.719 101.752 171.26 100.757 167.073C99.7623 162.887 106.001 164.853 106.075 162.81C106.148 160.767 98.9768 162.069 97.5307 157.555C96.0854 153.04 101.525 156.342 100.893 154.466C100.261 152.59 94.1504 144.114 97.4494 143.112C100.749 142.109 106.354 150.809 108.508 152.035C110.661 153.262 112.537 146.13 115.111 149.126C117.685 152.121 113.673 162.661 116.948 164.687C119.386 166.195 118.681 162.01 121.894 162.777C126.259 163.819 124.864 179.402 119.442 185.596Z" fill="#C5614A"/>
<path d="M66.6401 132.356L67.5743 143.035C67.6706 144.133 68.6389 145.024 69.737 145.024H134.703L133.595 132.357H66.6401V132.356Z" fill="#8D8D8D"/>
<path d="M134.491 142.61H68.5418C67.9873 142.61 67.498 142.161 67.4492 141.606L60.5005 62.1841C60.4518 61.6295 60.8625 61.1798 61.417 61.1798H127.367L134.491 142.61Z" fill="#8D8D8D"/>
<path d="M68.9739 129.642L69.8014 139.104H134.185L133.357 129.642H68.9739Z" fill="#8D8D8D"/>
<path d="M127.367 61.1797C106.757 52.941 83.6679 52.2901 62.9839 61.1797L69.8016 139.105C90.4855 130.216 113.575 130.866 134.185 139.105L127.367 61.1797Z" fill="#C9C9C8"/>
<path d="M71.8257 128.235C71.5942 127.729 71.805 127.161 72.2968 126.979C80.1266 124.083 88.3867 122.433 96.8783 122.069C97.4152 122.046 97.9081 122.474 97.9721 123.013C98.0343 123.539 97.6626 123.975 97.1385 123.998C88.8346 124.352 80.7567 125.966 73.0993 128.8C72.6179 128.977 72.0524 128.728 71.8257 128.235Z" fill="#8D8D8D"/>
<path d="M129.085 128.795C120.571 125.839 111.833 124.213 103.082 123.957C102.555 123.942 102.102 123.513 102.065 122.987V122.984C102.028 122.446 102.439 122.013 102.978 122.029C111.927 122.291 120.863 123.954 129.569 126.976C130.092 127.157 130.402 127.724 130.259 128.229L130.258 128.231C130.118 128.725 129.596 128.973 129.085 128.795Z" fill="#8D8D8D"/>
<path d="M70.9734 118.493L70.9728 118.493C70.7413 117.988 70.9515 117.421 71.4426 117.239C76.317 115.437 81.3937 114.108 86.5594 113.281C87.0841 113.197 87.616 113.571 87.7404 114.104L87.741 114.105C87.8622 114.627 87.5472 115.105 87.0341 115.187C81.9812 115.995 77.0154 117.295 72.2464 119.059C71.7656 119.237 71.2001 118.987 70.9734 118.493Z" fill="#8D8D8D"/>
<path d="M112.771 115.192C106.102 114.156 99.4066 113.916 92.8412 114.477C92.3208 114.521 91.8266 114.142 91.7303 113.618C91.6316 113.082 91.9869 112.599 92.5201 112.554C99.2323 111.98 106.077 112.226 112.895 113.283C113.435 113.367 113.841 113.877 113.798 114.408V114.409C113.756 114.928 113.299 115.273 112.771 115.192Z" fill="#8D8D8D"/>
<path d="M128.233 119.054C125.056 117.953 121.816 117.028 118.575 116.296C118.051 116.178 117.684 115.674 117.751 115.159C117.82 114.633 118.314 114.296 118.848 114.416C122.161 115.164 125.472 116.11 128.718 117.235C129.24 117.416 129.549 117.983 129.407 118.487C129.267 118.981 128.745 119.232 128.233 119.054Z" fill="#8D8D8D"/>
<path d="M70.1208 108.752C69.8892 108.247 70.1007 107.68 70.5912 107.498C80.9482 103.665 91.9309 102.026 103.268 102.63C103.808 102.659 104.261 103.128 104.273 103.665C104.285 104.191 103.869 104.585 103.34 104.557C92.2606 103.971 81.521 105.567 71.395 109.317C70.9148 109.495 70.3475 109.247 70.1208 108.752Z" fill="#8D8D8D"/>
<path d="M127.38 109.314C121.733 107.354 115.936 105.969 110.118 105.19C109.589 105.119 109.18 104.648 109.199 104.124V104.124C109.218 103.589 109.676 103.205 110.216 103.278C116.165 104.075 122.092 105.492 127.866 107.494C128.388 107.676 128.698 108.242 128.555 108.747V108.747C128.414 109.242 127.892 109.491 127.38 109.314Z" fill="#8D8D8D"/>
<path d="M69.2688 99.0122C69.0373 98.507 69.2481 97.9391 69.7393 97.7569C76.5326 95.2444 83.672 93.6649 90.99 93.0562C91.5232 93.0117 92.0308 93.4212 92.1161 93.9586C92.1996 94.4845 91.8468 94.9355 91.3257 94.9787C84.1693 95.5735 77.1864 97.1182 70.5418 99.5771C70.0616 99.755 69.4955 99.5064 69.2688 99.0122Z" fill="#8D8D8D"/>
<path d="M126.527 99.5727C117.104 96.3022 107.432 94.6819 97.7864 94.7026C97.2599 94.7038 96.7943 94.2876 96.7407 93.7617L96.7401 93.7575C96.6846 93.22 97.0795 92.7715 97.6169 92.7685C107.489 92.7069 117.375 94.4065 127.012 97.7531C127.535 97.9347 127.846 98.5027 127.702 99.0072V99.0078C127.562 99.5014 127.039 99.7501 126.527 99.5727Z" fill="#8D8D8D"/>
<path d="M68.4164 89.27C68.1849 88.7655 68.3951 88.1988 68.8856 88.0178C72.6345 86.6321 76.5114 85.523 80.4357 84.7125C80.9537 84.6053 81.4991 84.9563 81.6459 85.4852V85.4858C81.7904 86.0044 81.4973 86.4992 80.989 86.604C77.15 87.3956 73.3572 88.4809 69.6906 89.8368C69.2092 90.0141 68.6431 89.7649 68.4164 89.27Z" fill="#8D8D8D"/>
<path d="M85.1839 84.8838C85.0596 84.35 85.3899 83.8479 85.9176 83.7766C92.6768 82.8619 99.6066 82.787 106.544 83.556C107.085 83.6157 107.513 84.1093 107.494 84.6443C107.475 85.1672 107.036 85.534 106.508 85.4749C99.7224 84.7217 92.9449 84.7936 86.332 85.6912C85.8158 85.7619 85.3052 85.4054 85.1839 84.8838Z" fill="#8D8D8D"/>
<path d="M125.677 89.8326C121.011 88.2141 116.228 86.9838 111.434 86.1678C110.907 86.0783 110.515 85.595 110.553 85.0746V85.0722C110.592 84.5408 111.065 84.1752 111.603 84.2666C116.505 85.1008 121.393 86.3592 126.162 88.013C126.684 88.194 126.994 88.7607 126.85 89.2653L126.85 89.2671C126.71 89.7613 126.189 90.0105 125.677 89.8326Z" fill="#8D8D8D"/>
<path d="M67.565 79.5323C67.3334 79.0271 67.5443 78.4591 68.0354 78.2769C75.7379 75.4263 83.8615 73.7822 92.2105 73.3831C92.7468 73.3575 93.2416 73.7834 93.308 74.3221V74.3227C93.3732 74.8492 93.0033 75.2861 92.4792 75.3111C84.3149 75.6993 76.3704 77.3074 68.838 80.0965C68.3572 80.2745 67.7911 80.0265 67.565 79.5323Z" fill="#8D8D8D"/>
<path d="M124.822 80.0911C116.195 77.0967 107.341 75.4678 98.4755 75.2448C97.9472 75.2314 97.4907 74.8024 97.4524 74.2746C97.4127 73.7366 97.8216 73.3021 98.3609 73.3155C107.429 73.5434 116.485 75.2094 125.309 78.2721C125.832 78.4537 126.142 79.0204 125.998 79.525C125.858 80.0198 125.334 80.2691 124.822 80.0911Z" fill="#8D8D8D"/>
<path d="M66.7124 69.7914L66.7118 69.7908C66.4803 69.2857 66.6905 68.7183 67.1817 68.5367C72.3071 66.6404 77.6611 65.2681 83.1229 64.4509C83.6488 64.3723 84.1789 64.7507 84.2978 65.2851V65.2863C84.4142 65.808 84.0942 66.2833 83.5799 66.3601C78.2369 67.1583 72.9994 68.5008 67.9842 70.3569C67.504 70.5343 66.9391 70.2856 66.7124 69.7914Z" fill="#8D8D8D"/>
<path d="M108.128 66.4295C101.909 65.4911 95.6573 65.2467 89.516 65.6989C88.9938 65.7373 88.5033 65.3527 88.4125 64.8275C88.3198 64.2906 88.6806 63.8129 89.2144 63.7739C95.4952 63.312 101.887 63.5618 108.245 64.5209C108.784 64.602 109.192 65.1096 109.151 65.641C109.111 66.1614 108.655 66.5093 108.128 66.4295Z" fill="#8D8D8D"/>
<path d="M123.973 70.3527C120.43 69.123 116.809 68.1139 113.183 67.3461C112.658 67.2352 112.285 66.7373 112.346 66.2206V66.2193C112.407 65.6916 112.896 65.3467 113.433 65.4601C117.137 66.2449 120.837 67.2766 124.457 68.5325C124.98 68.7141 125.289 69.2814 125.145 69.7866C125.005 70.2802 124.484 70.5301 123.973 70.3527Z" fill="#8D8D8D"/>
<path d="M200.549 132.356L201.484 143.035C201.58 144.133 200.767 145.024 199.669 145.024H134.703L133.594 132.357H200.549V132.356Z" fill="#8D8D8D"/>
<path d="M134.492 142.61H200.442C200.997 142.61 201.407 142.161 201.359 141.606L194.41 62.1841C194.361 61.6295 193.873 61.1798 193.317 61.1798H127.368L134.492 142.61Z" fill="#8D8D8D"/>
<path d="M197.74 129.642L198.568 139.104H134.185L133.357 129.642H197.74Z" fill="#8D8D8D"/>
<path d="M127.055 61.4254C146.223 53.1867 169.199 52.5359 191.438 61.4254L198.256 139.35C176.017 130.461 153.041 131.112 133.872 139.35L127.055 61.4254Z" fill="#C9C9C8"/>
<path d="M194.642 128.235C194.785 127.729 194.475 127.161 193.951 126.979C185.614 124.083 177.066 122.433 168.511 122.069C167.97 122.046 167.552 122.474 167.582 123.013C167.612 123.539 168.06 123.975 168.588 123.998C176.954 124.352 185.315 125.966 193.468 128.8C193.98 128.977 194.502 128.728 194.642 128.235Z" fill="#8D8D8D"/>
<path d="M137.481 128.795C145.478 125.839 153.932 124.213 162.637 123.957C163.162 123.942 163.54 123.513 163.484 122.987V122.984C163.428 122.446 162.941 122.013 162.404 122.029C153.502 122.291 144.857 123.954 136.678 126.976C136.187 127.157 135.977 127.724 136.208 128.229L136.209 128.231C136.435 128.725 137.001 128.973 137.481 128.795Z" fill="#8D8D8D"/>
<path d="M193.79 118.493C193.933 117.989 193.624 117.421 193.101 117.239C187.912 115.437 182.602 114.108 177.291 113.281C176.752 113.197 176.285 113.571 176.254 114.104V114.105C176.224 114.627 176.623 115.105 177.151 115.187C182.345 115.995 187.538 117.295 192.616 119.059C193.128 119.237 193.65 118.987 193.79 118.493Z" fill="#8D8D8D"/>
<path d="M151.414 115.192C157.902 114.156 164.556 113.916 171.219 114.477C171.747 114.521 172.175 114.142 172.18 113.618C172.185 113.082 171.745 112.599 171.204 112.554C164.392 111.98 157.59 112.226 150.957 113.283C150.433 113.367 150.115 113.877 150.251 114.408L150.252 114.409C150.385 114.928 150.902 115.273 151.414 115.192Z" fill="#8D8D8D"/>
<path d="M136.629 119.054C139.613 117.953 142.691 117.028 145.804 116.296C146.307 116.178 146.586 115.674 146.429 115.159C146.268 114.633 145.716 114.296 145.201 114.416C142.02 115.164 138.874 116.11 135.825 117.235C135.334 117.416 135.125 117.983 135.356 118.487C135.582 118.981 136.148 119.232 136.629 119.054Z" fill="#8D8D8D"/>
<path d="M192.938 108.752C193.081 108.247 192.771 107.68 192.248 107.498C181.221 103.665 169.951 102.026 158.72 102.63C158.185 102.659 157.814 103.128 157.896 103.665C157.976 104.191 158.461 104.585 158.985 104.557C169.962 103.971 180.981 105.567 191.763 109.317C192.274 109.495 192.798 109.247 192.938 108.752Z" fill="#8D8D8D"/>
<path d="M135.777 109.314C141.081 107.354 146.636 105.969 152.318 105.19C152.834 105.119 153.161 104.648 153.05 104.124V104.124C152.938 103.589 152.412 103.205 151.885 103.278C146.076 104.075 140.396 105.492 134.973 107.494C134.482 107.676 134.272 108.242 134.504 108.747V108.747C134.73 109.242 135.296 109.491 135.777 109.314Z" fill="#8D8D8D"/>
<path d="M192.086 99.0122C192.229 98.507 191.919 97.9391 191.395 97.7569C184.162 95.2444 176.747 93.6649 169.322 93.0562C168.781 93.0117 168.345 93.4212 168.354 93.9586C168.363 94.4845 168.794 94.9355 169.323 94.9787C176.584 95.5735 183.837 97.1182 190.912 99.5771C191.423 99.755 191.946 99.5064 192.086 99.0122Z" fill="#8D8D8D"/>
<path d="M134.925 99.5727C143.777 96.3022 153.166 94.6819 162.814 94.7026C163.34 94.7038 163.734 94.2876 163.695 93.7617V93.7575C163.656 93.22 163.183 92.7715 162.645 92.7685C152.762 92.7069 143.174 94.4065 134.123 97.7531C133.632 97.9347 133.42 98.5027 133.652 99.0072L133.652 99.0078C133.878 99.5014 134.445 99.7501 134.925 99.5727Z" fill="#8D8D8D"/>
<path d="M191.234 89.27C191.377 88.7655 191.068 88.1988 190.546 88.0178C186.554 86.6321 182.484 85.523 178.417 84.7125C177.88 84.6053 177.397 84.9563 177.342 85.4852V85.4858C177.288 86.0044 177.668 86.4992 178.194 86.604C182.172 87.3956 186.155 88.4809 190.058 89.8368C190.571 90.0141 191.094 89.7649 191.234 89.27Z" fill="#8D8D8D"/>
<path d="M173.699 84.8838C173.73 84.35 173.312 83.8479 172.771 83.7766C165.852 82.8619 158.909 82.787 152.106 83.556C151.575 83.6157 151.234 84.1093 151.347 84.6443C151.457 85.1672 151.96 85.534 152.479 85.4749C159.133 84.7217 165.922 84.7936 172.692 85.6912C173.221 85.7619 173.669 85.4054 173.699 84.8838Z" fill="#8D8D8D"/>
<path d="M134.071 89.8326C138.454 88.2141 143.021 86.9838 147.673 86.1678C148.185 86.0783 148.492 85.595 148.363 85.0746L148.362 85.0722C148.23 84.5408 147.694 84.1752 147.171 84.2666C142.416 85.1008 137.748 86.3592 133.268 88.013C132.778 88.194 132.568 88.7607 132.799 89.2653L132.799 89.2671C133.026 89.7613 133.591 90.0105 134.071 89.8326Z" fill="#8D8D8D"/>
<path d="M190.381 79.5323C190.525 79.0271 190.214 78.4591 189.691 78.2769C181.49 75.4263 173.079 73.7822 164.66 73.3831C164.119 73.3575 163.699 73.7834 163.727 74.3221V74.3227C163.753 74.8492 164.2 75.2861 164.728 75.3111C172.961 75.6993 181.186 77.3074 189.207 80.0965C189.719 80.2745 190.241 80.0265 190.381 79.5323Z" fill="#8D8D8D"/>
<path d="M133.222 80.0911C141.325 77.0967 149.894 75.4678 158.721 75.2448C159.247 75.2314 159.628 74.8024 159.575 74.2746C159.52 73.7366 159.035 73.3021 158.498 73.3155C149.47 73.5434 140.705 75.2094 132.418 78.2721C131.927 78.4537 131.716 79.0204 131.947 79.525C132.174 80.0198 132.741 80.2691 133.222 80.0911Z" fill="#8D8D8D"/>
<path d="M189.529 69.7914C189.673 69.2863 189.363 68.7183 188.84 68.5367C183.383 66.6404 177.789 65.2681 172.184 64.4509C171.644 64.3723 171.181 64.7507 171.155 65.2851V65.2863C171.13 65.808 171.533 66.2833 172.061 66.3601C177.544 67.1583 183.016 68.5008 188.356 70.3569C188.867 70.5343 189.389 70.2856 189.529 69.7914Z" fill="#8D8D8D"/>
<path d="M147.526 66.4295C153.58 65.4911 159.789 65.2467 166.01 65.6989C166.539 65.7373 166.962 65.3527 166.961 64.8275C166.96 64.2906 166.515 63.8129 165.975 63.7739C159.613 63.312 153.265 63.5618 147.075 64.5209C146.55 64.602 146.231 65.1096 146.365 65.641C146.496 66.1614 147.012 66.5093 147.526 66.4295Z" fill="#8D8D8D"/>
<path d="M132.367 70.3527C135.695 69.123 139.139 68.1139 142.632 67.3461C143.137 67.2352 143.423 66.7373 143.272 66.2206L143.271 66.2193C143.118 65.6916 142.568 65.3467 142.051 65.4601C138.484 66.2449 134.965 67.2766 131.565 68.5325C131.074 68.7141 130.864 69.2814 131.095 69.7866L131.096 69.7872C131.322 70.2808 131.887 70.5301 132.367 70.3527Z" fill="#8D8D8D"/>
<path d="M168.432 117.805L164.78 122.573L162.511 119.873L166.489 115.924L168.432 117.805Z" fill="#7F3E3B"/>
<path d="M147.174 118.219C146.314 115.622 145.108 108.956 147.542 106.4C149.976 103.844 151.871 109.5 153.199 113.888C154.525 118.276 155.512 124.266 157.689 122.97C159.866 121.675 163.335 118.397 163.335 118.397L166.207 121.736C166.207 121.736 158.84 132.348 155.127 130.138C151.416 127.929 148.264 121.513 147.174 118.219Z" fill="#EA6F32"/>
<path opacity="0.7" d="M162.401 119.254L165.37 122.877C165.894 122.187 166.207 121.737 166.207 121.737L163.335 118.398C163.335 118.398 162.967 118.745 162.401 119.254Z" fill="white"/>
<path opacity="0.2" d="M149.144 122.762C150.208 124.798 151.567 126.915 153.093 128.482C153.504 122.904 153.077 115.919 153.077 115.919L150.416 114.943L149.372 115.596L149.144 122.762Z" fill="black"/>
<path d="M179.783 190.839L182.403 203.019L186.496 201.611L186.016 190.087L179.783 190.839Z" fill="#7F3E3B"/>
<path d="M141.436 139.697C141.436 139.697 146.86 139.919 152.908 138.204L156.886 146.283C156.886 146.283 181 141.952 184.077 149.387C186.701 155.725 186.806 194.801 186.806 194.801L180.116 195.625C180.116 195.625 172.764 167.163 172.795 157.743C172.797 157.001 171.956 156.569 171.37 157.024C167.658 159.909 157.798 166.142 142.87 165.18C140.558 165.03 137.859 164.531 138.545 156.985C139.232 149.438 141.436 139.697 141.436 139.697Z" fill="#3D342F"/>
<path opacity="0.2" d="M154.804 161.154C161.42 158.219 170.6 150.193 174.844 147.209C176.063 146.352 177.174 145.902 178.144 145.685C174.461 144.887 169.749 144.933 165.692 145.226L156.064 149.479L140.604 156.367L138.697 161.828C139.361 164.77 141.212 165.073 142.87 165.18C149.789 165.626 155.603 164.52 160.237 162.924C159.469 162.996 148.414 163.988 154.804 161.154Z" fill="black"/>
<path d="M200.913 168.516L209.191 176.88L212.397 174.345L206.025 164.757L200.913 168.516Z" fill="#7F3E3B"/>
<path d="M211.805 173.203L208.077 176.057C207.916 176.181 207.862 176.4 207.947 176.584L209.839 180.663C210.004 181.026 210.433 181.186 210.795 181.021C210.842 181 210.886 180.974 210.927 180.943C212.451 179.735 213.759 178.599 215.684 177.131C217.954 175.395 217.586 176.108 220.283 174.104C221.907 172.896 220.803 170.843 220.053 171.275C216.633 173.269 215.031 172.999 212.974 172.802C212.549 172.788 212.133 172.93 211.805 173.203Z" fill="#263238"/>
<path d="M147.269 139.216C137.05 140.903 130.967 139.317 130.967 139.317C130.967 139.317 123.684 165.49 139.752 165.38C146.87 165.331 149.829 162.539 154.454 159.825C164.987 153.642 173.68 144.49 177.748 145.079C183.604 145.928 180.287 152.879 204.157 172.315L209.112 167.962C209.112 167.962 188.481 130.921 177.653 130.995C167.216 131.066 150.427 144.178 148.222 144.192C146.018 144.208 147.269 139.216 147.269 139.216Z" fill="#3D342F"/>
<path opacity="0.2" d="M181.011 146.585L181.004 146.589C182.467 147.248 183.567 148.153 184.078 149.387C184.387 150.132 184.66 151.331 184.902 152.865C185.579 153.842 186.373 154.926 187.319 156.121C186.699 148.27 181.011 146.585 181.011 146.585Z" fill="black"/>
<path d="M186.431 200.512L181.745 200.792C181.542 200.804 181.374 200.955 181.341 201.155L180.627 205.594C180.561 205.988 180.826 206.36 181.219 206.426C181.27 206.434 181.321 206.437 181.372 206.435C183.311 206.286 185.032 206.078 187.449 205.938C190.302 205.771 189.598 206.155 192.954 206.004C194.976 205.911 195.21 203.592 194.347 203.53C190.397 203.269 189.221 202.148 187.625 200.834C187.279 200.585 186.854 200.47 186.431 200.512Z" fill="#263238"/>
<path d="M130.747 139.912C130.747 139.912 144.757 142.571 154.051 140.254C154.051 140.254 151.601 136.624 151.853 129.704C152.1 122.925 155.701 115.015 149.623 106.316C149.383 105.972 148.98 105.771 148.556 105.771C144.955 105.77 128.172 105.923 127.669 108.827C127.029 112.532 133.615 120.984 130.747 139.912Z" fill="#EA6F32"/>
<path opacity="0.2" d="M133.246 122.027C132.137 115.532 129.836 110.036 129.836 110.036L129.501 112.629L128.627 113.703C130.005 118.14 132.206 125.095 131.224 135.94C134.923 135.169 139.672 129.829 139.672 129.829L137.943 125.164C135.475 126.272 133.847 125.544 133.246 122.027Z" fill="black"/>
<path d="M146.016 123.44L141.672 127.587L139.848 124.569L144.388 121.282L146.016 123.44Z" fill="#7F3E3B"/>
<path d="M125.037 120.357C124.59 117.658 124.429 110.886 127.229 108.737C130.029 106.588 131.027 112.469 131.66 117.009C132.291 121.55 132.34 127.62 134.691 126.677C137.043 125.734 140.976 123.032 140.976 123.032L143.298 126.775C143.298 126.775 134.377 136.12 131.052 133.363C127.726 130.605 125.605 123.779 125.037 120.357Z" fill="#EA6F32"/>
<path opacity="0.7" d="M139.98 123.696L142.346 127.722C142.94 127.15 143.298 126.775 143.298 126.775L140.976 123.032C140.976 123.032 140.586 123.3 139.98 123.696Z" fill="white"/>
<path d="M121.29 204.445H172.709C176.243 204.445 179.109 199.993 179.109 194.502C179.109 189.01 176.244 184.558 172.709 184.558H121.29V204.445Z" fill="#BDAC91"/>
<path d="M121.29 182.96C138.124 182.96 154.986 182.656 171.817 182.96C183.346 183.168 183.966 205.268 172.658 206.044C164.775 206.585 156.666 206.044 148.768 206.044C139.609 206.044 130.45 206.044 121.291 206.044C119.234 206.044 119.231 202.848 121.291 202.848C137.246 202.848 153.201 202.848 169.157 202.848C172.849 202.848 175.491 202.806 176.918 198.45C178.153 194.681 177.763 186.989 172.709 186.156C172.165 186.066 171.523 186.156 170.977 186.156C162.278 186.156 153.579 186.156 144.88 186.156C137.017 186.156 129.154 186.156 121.291 186.156C119.234 186.156 119.23 182.96 121.29 182.96Z" fill="#C5614A"/>
<path d="M165.522 194.461C165.522 194.461 170.796 196.856 170.866 207.469L168.779 205.944L166.672 207.484C166.606 196.858 161.327 194.461 161.327 194.461H165.522Z" fill="#C5614A"/>
<path d="M160.999 181.517H121.182C118.445 181.517 116.226 178.069 116.226 173.816C116.226 169.564 118.445 166.116 121.182 166.116H160.999V181.517Z" fill="#BDAC91"/>
<path d="M160.999 164.879C147.963 164.879 134.906 164.644 121.872 164.879C112.944 165.04 112.464 182.154 121.222 182.755C127.326 183.174 133.605 182.755 139.722 182.755C146.814 182.755 153.907 182.755 160.999 182.755C162.591 182.755 162.594 180.28 160.999 180.28C148.643 180.28 136.288 180.28 123.933 180.28C121.073 180.28 119.028 180.248 117.922 176.875C116.966 173.956 117.267 167.999 121.181 167.355C121.603 167.285 122.1 167.355 122.523 167.355C129.259 167.355 135.996 167.355 142.732 167.355C148.821 167.355 154.91 167.355 160.999 167.355C162.592 167.354 162.594 164.879 160.999 164.879Z" fill="#C5614A"/>
<path d="M126.481 171.705C126.481 171.705 122.006 173.738 121.947 182.742L123.718 181.448L125.506 182.754C125.561 173.739 130.04 171.705 130.04 171.705L126.481 171.705Z" fill="#3D342F"/>
<path d="M144.051 91.1737H143.419C143.419 89.3048 144.004 88.4717 145.314 88.4717V89.1037C144.811 89.1031 144.051 89.1031 144.051 91.1737Z" fill="#407BFF"/>
<path d="M148.49 94.131C148.49 96.2461 147.976 97.9603 145.741 97.9603C143.506 97.9603 142.992 96.2455 142.992 94.131C142.992 92.0159 143.506 90.3017 145.741 90.3017C147.976 90.3017 148.49 92.0165 148.49 94.131Z" fill="#EA6F32"/>
<path opacity="0.6" d="M144.777 90.9337C143.678 90.9337 142.66 91.3212 142.66 94.1317C142.66 96.9415 143.678 97.329 144.777 97.329C145.876 97.329 146.894 96.9415 146.894 94.1317C146.894 91.3206 145.876 90.9337 144.777 90.9337Z" fill="black"/>
<path d="M149.818 80.709C149.818 80.709 149.682 76.8638 146.979 78.7998C146.979 78.7998 145.412 74.834 142.89 78.3105C142.89 78.3105 139.047 77.4049 140.442 81.3457C140.442 81.3457 137.26 83.5316 140.907 85.066C140.907 85.066 141.7 88.4833 144.408 85.9477C144.408 85.9477 145.902 88.3225 147.835 85.8265C147.835 85.8265 150.57 86.278 149.812 83.4219C149.812 83.4219 151.581 81.9253 149.818 80.709Z" fill="#263238"/>
<path d="M142.635 83.1245C142.635 83.1245 143.728 82.3336 144.878 82.8107C146.029 83.2878 145.659 85.3445 145.659 85.3445L142.635 83.1245Z" fill="#C5614A"/>
<path d="M134.927 99.7068C134.927 99.7068 136.781 105.118 135.339 107.435C135.339 107.435 140.549 107.698 141.821 106C141.821 106 141.081 105.598 140.851 103.536C140.621 101.473 138.631 99.3296 134.927 99.7068Z" fill="#7F3E3B"/>
<path opacity="0.2" d="M140.851 103.536C140.638 101.625 138.911 99.6465 135.71 99.6672L135.493 99.861L135.261 100.272C135.261 100.272 137.229 105.553 141.174 104.991C141.043 104.635 140.922 104.172 140.851 103.536Z" fill="black"/>
<path d="M132.965 92.5168C133.586 97.4966 133.74 99.6173 136.424 102.024C140.462 105.646 146.44 103.798 147.323 98.7331C148.118 94.1749 146.972 86.8027 141.959 85.1178C138.382 83.896 134.493 85.8046 133.271 89.381C132.926 90.3889 132.822 91.462 132.965 92.5168Z" fill="#7F3E3B"/>
<path d="M132.031 96.5435C132.366 97.4539 133.05 98.1943 133.931 98.6008C135.103 99.1297 135.882 98.1297 135.719 96.9213C135.573 95.8379 134.786 94.2511 133.53 94.2297C132.615 94.2419 131.883 94.9933 131.895 95.9086C131.898 96.1267 131.944 96.343 132.031 96.5435Z" fill="#7F3E3B"/>
<path d="M137.62 83.9405C137.62 83.9405 130.735 83.353 127.334 88.771C123.932 94.1889 134.928 99.7062 134.928 99.7062L137.62 91.5832C137.62 91.5832 139.879 90.9251 140.229 88.8362C140.229 88.8362 140.745 89.5869 139.878 90.9251C139.878 90.9251 145.605 91.2517 145.344 88.281C145.344 88.281 145.785 89.1299 145.352 89.8807C145.352 89.8807 147.136 89.8807 146.942 88.3139C146.747 86.7472 145.498 80.2196 137.62 83.9405Z" fill="#263238"/>
<path d="M127.555 88.8855C127.555 88.8855 129.415 89.2651 129.415 90.8928C129.415 92.5576 127.038 92.6533 127.038 92.6533L127.555 88.8855Z" fill="#C5614A"/>
<path d="M128.142 89.5218C128.142 89.5218 128.007 85.6766 125.303 87.6126C125.303 87.6126 123.736 83.6468 121.214 87.1233C121.214 87.1233 117.371 86.2177 118.766 90.1586C118.766 90.1586 115.584 92.3444 119.231 93.8788C119.231 93.8788 120.024 97.2962 122.732 94.7605C122.732 94.7605 124.226 97.1353 126.159 94.6387C126.159 94.6387 128.894 95.0902 128.136 92.2341C128.136 92.2341 129.905 90.7381 128.142 89.5218Z" fill="#263238"/>
<path d="M146.132 88.2365C146.111 88.0714 146.078 87.8489 146.028 87.5918C144.975 85.5565 142.806 83.4645 138.346 84.1238C130.178 85.3316 131.085 92.7794 131.085 92.7794H134.117C134.117 92.7794 133.093 86.4212 139.073 84.9885C143.08 84.0288 145.138 86.3907 146.142 88.4169C146.139 88.3584 146.14 88.3011 146.132 88.2365Z" fill="#EA6F32"/>
<path d="M132.804 99.6586C134.322 99.6586 135.552 97.9442 135.552 95.8293C135.552 93.7144 134.322 92 132.804 92C131.285 92 130.055 93.7144 130.055 95.8293C130.055 97.9442 131.285 99.6586 132.804 99.6586Z" fill="#EA6F32"/>
<path d="M140.228 109.265C145.048 108.588 142.765 106.578 141.844 105.91C139.718 105.999 137.399 106.141 135.262 106.373C135.261 106.375 134.416 110.08 140.228 109.265Z" fill="#7F3E3B"/>
<path d="M167.724 112.396L166.712 113.04C166.332 113.282 166.092 113.692 166.068 114.143L165.957 116.246C165.913 117.087 166.278 117.898 166.938 118.421L167.347 118.745C169.097 117.793 170.287 115.474 170.287 115.474L170.7 114.85C171.067 114.295 170.94 113.588 170.408 113.226L169.183 112.392C168.76 112.105 168.179 112.106 167.724 112.396Z" fill="#7F3E3B"/>
<path d="M149.666 124.354H146.631C146.006 124.354 145.608 123.847 145.74 123.223L147.427 115.292C147.559 114.667 148.173 114.161 148.798 114.161H151.833C152.458 114.161 152.856 114.668 152.723 115.292L151.037 123.223C150.904 123.848 150.291 124.354 149.666 124.354Z" fill="#407BFF"/>
<path opacity="0.3" d="M149.666 124.354H146.631C146.006 124.354 145.608 123.847 145.74 123.223L147.427 115.292C147.559 114.667 148.173 114.161 148.798 114.161H151.833C152.458 114.161 152.856 114.668 152.723 115.292L151.037 123.223C150.904 123.848 150.291 124.354 149.666 124.354Z" fill="white"/>
<path d="M150.112 124.354H147.077C146.452 124.354 146.054 123.847 146.186 123.223L147.873 115.292C148.005 114.667 148.619 114.161 149.244 114.161H152.279C152.904 114.161 153.302 114.668 153.169 115.292L151.483 123.223C151.35 123.848 150.737 124.354 150.112 124.354Z" fill="#407BFF"/>
<path opacity="0.7" d="M150.112 124.354H147.077C146.452 124.354 146.054 123.847 146.186 123.223L147.873 115.292C148.005 114.667 148.619 114.161 149.244 114.161H152.279C152.904 114.161 153.302 114.668 153.169 115.292L151.483 123.223C151.35 123.848 150.737 124.354 150.112 124.354Z" fill="white"/>
<path d="M148.907 116.507H149.202C149.621 116.507 150.033 116.167 150.122 115.748L150.185 115.453C150.274 115.034 150.006 114.694 149.587 114.694H149.292C148.873 114.694 148.461 115.034 148.372 115.453L148.31 115.748C148.22 116.167 148.487 116.507 148.907 116.507Z" fill="#407BFF"/>
<path d="M149.636 115.147C149.599 115.321 149.428 115.462 149.255 115.462C149.081 115.462 148.97 115.321 149.007 115.147C149.044 114.973 149.215 114.833 149.389 114.833C149.562 114.833 149.673 114.973 149.636 115.147Z" fill="#263238"/>
<path d="M149.444 116.053C149.406 116.227 149.236 116.368 149.062 116.368C148.888 116.368 148.778 116.227 148.814 116.053C148.851 115.88 149.022 115.739 149.196 115.739C149.37 115.739 149.481 115.88 149.444 116.053Z" fill="#263238"/>
<path d="M149.69 121.99L149.047 123.001C148.805 123.381 148.394 123.622 147.944 123.645L145.84 123.756C144.999 123.801 144.189 123.435 143.665 122.775L143.341 122.366C144.294 120.616 146.613 119.426 146.613 119.426L147.236 119.014C147.792 118.647 148.499 118.773 148.861 119.305L149.695 120.53C149.982 120.953 149.98 121.534 149.69 121.99Z" fill="#7F3E3B"/>
<path d="M114.6 174.813C113.374 174.813 109.026 174.649 106.683 172.422C105.704 171.493 105.198 170.32 105.177 168.937C105.121 165.288 108.12 164.812 112.271 164.152C115.756 163.598 120.094 162.909 124.957 160.359C129.304 158.079 131.973 146.844 132.675 127.87C133.209 113.44 132.395 99.5343 132.387 99.3948L133.169 99.3491C133.305 101.629 136.372 155.257 125.321 161.052C120.344 163.662 115.749 164.392 112.393 164.926C107.901 165.64 105.917 166.076 105.96 168.924C105.977 170.089 106.402 171.075 107.221 171.854C109.669 174.181 114.839 174.032 114.894 174.025L114.922 174.809C114.893 174.809 114.781 174.813 114.6 174.813Z" fill="#3D342F"/>
<path d="M114.964 173.5H112.327C112.055 173.5 111.835 173.72 111.835 173.992V174.542C111.835 174.814 112.055 175.035 112.327 175.035H114.914C114.9 174.523 114.918 174.01 114.964 173.5Z" fill="black"/>
<path opacity="0.2" d="M154.051 140.254C154.051 140.254 146.815 141.686 137.157 140.792L148.222 144.193L154.255 140.938L154.051 140.254Z" fill="black"/>
<path d="M247.585 90H241.524C240.646 90 239.964 89.2722 240.064 88.4422L240.478 85H248.632L249.045 88.4422C249.145 89.2722 248.463 90 247.585 90Z" fill="#313333"/>
<path d="M249.111 85.733H239.999C239.574 85.733 239.229 85.388 239.229 84.9628V84.1436H249.882V84.9628C249.881 85.388 249.536 85.733 249.111 85.733Z" fill="#263238"/>
<path d="M239.68 84.5048C239.543 84.5048 239.413 84.427 239.351 84.2944L231.485 67.2406C231.401 67.0596 231.481 66.8454 231.662 66.7611C231.844 66.6781 232.058 66.7565 232.141 66.9381L240.008 83.992C240.092 84.1723 240.013 84.3872 239.831 84.4708C239.782 84.4943 239.731 84.5048 239.68 84.5048Z" fill="#263238"/>
<path d="M249.43 84.5049C249.379 84.5049 249.328 84.4944 249.279 84.4716C249.098 84.3873 249.018 84.173 249.102 83.9927L256.968 66.9389C257.053 66.7573 257.267 66.6776 257.448 66.7618C257.629 66.8461 257.709 67.0604 257.625 67.2413L249.758 84.2945C249.697 84.4271 249.566 84.5049 249.43 84.5049Z" fill="#263238"/>
<g opacity="0.5">
<path d="M249.111 85.733H239.999C239.574 85.733 239.229 85.388 239.229 84.9628V84.1436H249.882V84.9628C249.881 85.388 249.536 85.733 249.111 85.733Z" fill="#3D342F"/>
<path d="M239.68 84.5048C239.543 84.5048 239.413 84.427 239.351 84.2944L231.485 67.2406C231.401 67.0596 231.481 66.8454 231.662 66.7611C231.844 66.6781 232.058 66.7565 232.141 66.9381L240.008 83.992C240.092 84.1723 240.013 84.3872 239.831 84.4708C239.782 84.4943 239.731 84.5048 239.68 84.5048Z" fill="#3D342F"/>
<path d="M249.43 84.5049C249.379 84.5049 249.328 84.4944 249.279 84.4716C249.098 84.3873 249.018 84.173 249.102 83.9927L256.968 66.9389C257.053 66.7573 257.267 66.6776 257.448 66.7618C257.629 66.8461 257.709 67.0604 257.625 67.2413L249.758 84.2945C249.697 84.4271 249.566 84.5049 249.43 84.5049Z" fill="#3D342F"/>
</g>
<path d="M244.555 50C237.108 50 231.07 56.1103 231.055 63.6527L231.087 63.6818C231.087 63.6818 231.087 65 244.589 65C258.091 65 258.022 63.6818 258.022 63.6818L258.055 63.6507C258.038 56.109 252.001 50 244.555 50Z" fill="white"/>
<path d="M258.021 63.0309C258.021 63.0309 258.089 64.3408 244.589 64.3408C231.089 64.3408 231.089 63.0309 231.089 63.0309L231.056 63.002C231.056 63.0118 231.055 63.0211 231.055 63.0309C231.055 69.0726 236.587 71.6885 240.383 75.9577C241.62 77.3492 241.886 80 241.886 80H247.223C247.223 80 247.489 77.3492 248.727 75.9577C252.523 71.6878 258.055 69.0726 258.055 63.0309C258.055 63.0204 258.053 63.0105 258.053 63L258.021 63.0309Z" fill="#C5614A"/>
<path d="M244.555 50C241.518 50 239.055 56.1255 239.055 63.6818C239.055 64.1035 239.068 64.5048 239.088 64.8947C240.589 64.9596 242.395 65 244.587 65C246.75 65 248.535 64.9609 250.021 64.8974C250.042 64.5067 250.055 64.1042 250.055 63.6818C250.055 56.1255 247.592 50 244.555 50Z" fill="#C5614A"/>
<path d="M244.589 64.8013C242.256 64.8013 240.334 64.7614 238.738 64.6974C239.033 69.8642 241.214 72.3904 242.746 76.3362C243.283 77.7179 243.398 80.3499 243.398 80.3499H245.712C245.712 80.3499 245.827 77.7179 246.364 76.3362C247.895 72.391 250.076 69.8648 250.372 64.7C248.791 64.7627 246.891 64.8013 244.589 64.8013Z" fill="white"/>
<path d="M175.846 90.7211L201.097 85.7041C201.486 85.6267 201.81 86.0046 201.674 86.3775L192.856 110.564C192.723 110.93 192.245 111.017 191.991 110.721L175.559 91.5511C175.306 91.2561 175.465 90.7967 175.846 90.7211Z" fill="#C5614A"/>
<path d="M179.096 102.057L173.616 105.008L176.788 104.035L170.861 108.448L177.023 105.269L169.055 112.1L177.066 106.856L171.413 113.316L178.763 107.044L174.626 112.072L179.747 107.681L177.787 112.048L182.151 105.62L179.096 102.057Z" fill="#C9C9C8"/>
<path opacity="0.5" d="M181.536 104.903L178.06 109.127L179.748 107.681L182.151 105.62L181.536 104.903Z" fill="white"/>
<path opacity="0.8" d="M174.848 110.372L181.418 104.765L179.805 102.884L177.023 105.269L172.489 109.156L180.501 103.912L174.848 110.372Z" fill="white"/>
<path opacity="0.3" d="M179.673 102.73L179.096 102.057L178.481 102.388L175.906 104.306L176.788 104.035L175.984 104.633L179.673 102.73Z" fill="white"/>
<path d="M182.286 106.668L185.128 102.714L182.424 99.5595L178.082 101.763C178.753 103.816 180.208 105.613 182.286 106.668Z" fill="#263238"/>
<path opacity="0.2" d="M182.424 99.5594C182.424 99.5594 181.772 99.8903 181.407 100.075C182.051 101.493 183.089 102.742 184.462 103.64L185.128 102.714L182.424 99.5594Z" fill="white"/>
<path opacity="0.4" d="M180.316 100.629C180.041 100.768 179.763 100.909 179.5 101.043C180.253 102.782 181.518 104.308 183.214 105.375L183.748 104.632C182.329 103.514 181.175 102.149 180.316 100.629Z" fill="white"/>
<path d="M186.05 104.965C183.227 103.533 181.251 101.091 180.34 98.303L198.65 82.6067C201.79 79.9151 205.724 78.7506 209.546 79.0443C209.253 82.8663 207.501 86.5762 204.361 89.2678L186.05 104.965Z" fill="white"/>
<path d="M198.31 92.9314C196.956 94.0922 194.917 93.9356 193.756 92.581C192.595 91.2263 192.751 89.1874 194.106 88.0265C195.46 86.8657 197.5 87.0223 198.661 88.3769C199.821 89.7315 199.665 91.7705 198.31 92.9314Z" fill="#C9C9C8"/>
<path d="M193.756 92.5816C192.648 91.2898 192.742 89.3769 193.929 88.1954C193.863 88.2435 193.798 88.2911 193.735 88.3447C192.381 89.5055 192.224 91.5445 193.385 92.8991C194.546 94.2538 196.585 94.4104 197.94 93.2495C198.002 93.1959 198.06 93.1386 198.117 93.0813C196.768 94.0722 194.863 93.8729 193.756 92.5816Z" fill="#C5614A"/>
<path d="M197.695 92.2136C196.737 93.0344 195.295 92.9235 194.474 91.9661C193.653 91.0082 193.764 89.5664 194.722 88.7456C195.68 87.9248 197.121 88.0357 197.942 88.993C198.763 89.9503 198.652 91.3921 197.695 92.2136Z" fill="white"/>
<path d="M194.405 91.8668L198.354 89.7139C198.269 89.475 198.144 89.2471 197.975 89.0399L194.038 91.1867C194.116 91.4275 194.243 91.656 194.405 91.8668Z" fill="#C9C9C8"/>
<path d="M195.05 92.4359L198.484 90.5633C198.489 90.4207 198.481 90.2782 198.46 90.1362L194.704 92.1843C194.813 92.2806 194.928 92.364 195.05 92.4359Z" fill="#C9C9C8"/>
<path fill-rule="evenodd" clip-rule="evenodd" d="M137.509 36.016C139.054 36.1887 140.904 36.2102 143.115 35.9873C145.762 35.7203 147.699 36.1111 149.086 36.8846C150.343 36.0945 155.67 33.0927 157.931 37.3815C159.504 40.3647 158.887 42.65 158.321 44.7448C157.961 46.0771 157.622 47.3323 157.881 48.6409C158.546 52.0065 160.366 54.0168 160.366 54.0168C160.366 54.0168 159.831 53.9699 159.086 53.7615C157.835 52.4337 157.21 50.8066 157.21 50.8066C157.361 51.8072 157.785 52.7389 158.202 53.4611C157.686 53.2533 157.137 52.9711 156.626 52.5872C155.668 50.6226 155.165 47.4423 155.165 47.4423C155.014 48.8457 155.46 50.7567 155.73 51.7444C155.247 51.1686 154.865 50.4495 154.68 49.5513C154.462 48.4893 154.425 47.2314 154.388 45.9395C154.285 42.4401 154.175 38.6919 150.436 37.9156C152.994 40.5559 152.3 45.0445 151.101 46.6672C151.021 46.7758 150.954 46.882 150.899 46.9861C151.169 47.7283 152.014 48.3704 152.861 49.0145C153.812 49.7377 154.766 50.4634 154.914 51.3362C154.945 51.5138 154.974 51.6913 155.003 51.8679L155.003 51.8684L155.003 51.8689C155.323 53.8148 155.623 55.6449 156.946 56.1929C158.388 56.7907 158.003 58.9302 158.003 58.9302C158.003 58.9302 160.688 59.8351 159.986 62.7282C160.048 63.412 159.893 64.2568 159.363 65.2909C159.363 65.2909 155.266 63.1782 153.637 59.1703C153.338 58.4335 153.095 57.7588 152.874 57.1438L152.874 57.1434L152.873 57.1429L152.873 57.1423L152.873 57.1422C151.891 54.4129 151.332 52.8577 148.114 52.2521C144.2 51.515 140.861 47.1454 140.815 47.0846C140.796 47.0907 138.493 47.8218 135.292 48.0931L135.302 48.0919L135.29 48.0929L135.292 48.0931C132.435 48.335 128.863 48.2101 125.558 46.8756C125.232 46.7439 124.917 46.6098 124.612 46.4733C124.257 46.3143 123.916 46.1521 123.589 45.987C122.942 46.3969 122.28 46.6494 121.716 46.5496C120.821 46.391 118.226 45.5742 116.328 44.9583L115.239 46.7251C115.239 46.7251 114.883 47.9219 115.81 48.2119L116.755 48.2924C116.755 48.2924 117.244 50.7664 116.113 52.1296L114.251 50.1315C114.251 50.1315 114.078 49.8395 113.874 49.4217C113.969 50.1601 114.099 52.064 113.139 53.221L111.149 51.0833C111.149 51.0833 109.664 48.5812 110.154 47.6044C110.228 47.4577 110.341 47.2156 110.485 46.9103L110.485 46.9103C111.297 45.1816 113.061 41.4279 113.861 41.5149C114.034 41.5336 114.312 41.5909 114.655 41.6616L114.655 41.6616C115.025 41.7377 115.47 41.8294 115.942 41.9056C116.271 41.4497 116.568 41.1644 116.788 41.1883C116.949 41.2058 117.209 41.2594 117.53 41.3255C117.764 41.3736 118.029 41.4282 118.312 41.4806C117.401 39.8025 117.408 38.0445 118.237 36.3419C120.046 32.626 122.068 28.0002 121.175 26.5213C121.175 26.5213 118.331 26.4384 117.669 25.4317L115.917 25.283C115.917 25.283 113.294 27.3915 112.043 25.3391C112.043 25.3391 110.106 21.7578 113.104 21.6274L118.178 19.433C118.178 19.433 119.214 18.6644 120.55 18.2035L119.904 15.6427C121.295 14.4033 129.376 17.9949 130.592 25.149C130.953 27.2698 130.692 28.9453 130.325 30.1105C130.34 30.8945 130.311 31.7263 130.231 32.6083C130.231 32.6083 130.465 33.039 131.104 33.6C132.773 32.2578 136.028 28.9198 134.385 24.2715C132.217 18.1412 141.218 12.5307 153.892 8C153.892 8 155.624 12.371 144.742 15.9791L153.112 14.4624C153.112 14.4624 151.787 20.0114 143.088 20.299L150.128 21.6C150.128 21.6 148.095 25.4037 141.91 23.7267L145.924 26.7559C145.924 26.7559 144.665 28.8022 142.45 27.8065C142.451 27.806 142.229 34.843 137.509 36.016ZM114.173 44.2479C114.173 44.2479 114.303 44.2917 114.53 44.3673C114.182 45.0594 113.866 45.7317 113.633 46.2272C113.498 46.5144 113.391 46.7422 113.322 46.8798C113.064 47.3941 113.392 48.3609 113.727 49.1071L112.816 49.0297C111.824 48.7195 112.205 47.4392 112.205 47.4392L114.173 44.2479Z" fill="#8D8D8D"/>
<path d="M99.5855 104.667C96.6655 105.806 99.0829 95.787 90.5835 96.0035C82.0841 96.2199 81.3218 103.151 81.3218 103.151C81.3218 103.151 75.2999 98.1695 70.7072 101.419C66.1145 104.668 68.854 105.967 65.0779 105.967C61.3018 105.967 56.7259 105.95 56.0605 108.124C55.3951 110.299 112.055 110.931 112.055 108.124C112.055 105.318 109.211 105.967 107.461 105.967C105.711 105.966 106.805 101.851 99.5855 104.667Z" fill="#E7E7E7"/>
<path d="M234.027 118.906C230.742 120.207 233.461 108.757 223.9 109.004C214.338 109.251 213.48 117.173 213.48 117.173C213.48 117.173 206.706 111.48 201.539 115.193C196.372 118.906 199.454 120.392 195.206 120.392C190.958 120.392 185.81 120.371 185.061 122.856C184.313 125.342 248.055 126.064 248.055 122.856C248.055 119.649 244.856 120.392 242.886 120.392C240.917 120.392 242.148 115.688 234.027 118.906Z" fill="white"/>
</svg>
