<svg width="553" height="227" viewBox="0 0 553 227" fill="none" xmlns="http://www.w3.org/2000/svg">
<path d="M322.496 80.7287C322.077 80.7287 321.659 80.7478 321.24 80.7861C321.316 80.5947 321.373 80.3841 321.411 80.1544C322.553 75.8475 323.01 71.7129 322.896 67.8079C325.123 66.2574 326.951 63.6158 327.693 60.6871C328.95 55.8634 326.779 51.901 322.953 51.901C321.64 51.901 320.326 52.3604 319.07 53.1069C315.358 46.8475 309.19 43 301.309 43C291.258 43 280.749 49.2594 272.926 58.8495C270.698 53.0495 266.015 49.3168 259.619 49.3168C251.395 49.3168 242.772 55.4614 237.404 64.3049C235.919 63.2138 234.034 62.5248 231.921 62.5248C224.725 62.5248 217.016 69.8178 214.731 78.8337C214.693 78.9485 214.655 79.0825 214.617 79.2356C213.418 78.4317 211.933 77.9723 210.277 77.9723C207.307 77.9723 204.28 79.4079 201.596 81.7049C198.684 77.398 194.115 74.8139 188.347 74.8139C176.297 74.8139 151.968 86.299 147 101H195.029H204.395H204.794H213.646H242.372H248.083H261.732H283.148H297.711H310.96H336.831C338.087 89.4574 332.262 80.7287 322.496 80.7287Z" fill="#738E51"/>
<path d="M393 58L535.882 56.1143C539.185 52.9714 541.805 49.0857 543.115 44.9143C546.304 34.6286 540.609 26.2857 530.358 26.2857C524.948 26.2857 519.367 28.6286 514.811 32.3429C513.217 31.4857 511.281 31.0286 509.117 31.0286C505.358 31.0286 501.543 32.4 498.183 34.6857C497.044 28 492.317 23.0286 485.256 21.6C487.249 19.4857 488.786 16.9143 489.641 14.1714C492.089 6.34285 487.761 0 479.959 0C472.158 0 463.843 6.34285 461.394 14.1714C460.882 15.8286 460.711 17.4286 460.768 18.8571C459.363 18.5905 457.883 18.4571 456.326 18.4571C447.784 18.4571 438.843 22.7429 432.294 29.3143C431.668 25.3143 428.479 22.5714 423.809 22.5714C417.374 22.5714 410.483 27.8286 408.49 34.2857C407.294 38.1143 408.034 41.4857 410.198 43.6571C403.991 46.0571 396.929 52.4 393 58Z" fill="#738E51"/>
<path d="M603 153C603 153 575.765 36.2821 473.978 40.0912C438.733 41.3988 404.232 45.8902 371.276 71.758C343.24 93.703 316.062 102.572 262.279 95.2949C98.0126 72.9519 21 151.01 21 151.01L603 153Z" fill="#ADB256"/>
<path d="M7.03753 145.841C7.03753 145.841 113.174 140.342 135.488 145.727C157.802 151.111 216.907 152.257 252.495 145.841C288.084 139.426 301.358 145.956 322.642 149.049C343.984 152.142 405.72 142.347 437.933 141.545C470.146 140.801 602.43 139.598 614.159 147.445C625.946 155.235 617.592 160.448 573.707 175.685C529.822 190.921 590.014 196.249 604.203 203.294C618.45 210.282 548.933 238.923 465.511 215.209C382.033 191.437 368.816 187.485 326.934 202.263C284.994 217.042 263.938 186.11 222.342 190.921C180.746 195.733 123.358 243.448 75.3537 221.051C27.3493 198.597 69.861 172.706 45.6585 166.405C21.3988 160.162 -15.5629 148.304 7.03753 145.841Z" fill="#738E51"/>
<path d="M306 206L383.651 204.976C387.668 204.919 391.227 202.416 392.432 198.603C392.47 198.566 392.489 198.547 392.489 198.547C394.326 192.686 391.055 187.964 385.143 187.964C382.044 187.964 378.83 189.272 376.19 191.378C375.272 190.922 374.181 190.638 372.861 190.638C370.738 190.638 368.5 191.434 366.606 192.686C365.917 188.931 363.22 186.086 359.145 185.29C360.293 184.038 361.211 182.615 361.67 181.079C363.105 176.584 360.58 173 356.103 173C351.626 173 346.806 176.584 345.428 181.079C345.122 181.99 344.988 182.881 345.026 183.753C344.223 183.564 343.381 183.469 342.501 183.469C337.565 183.469 332.458 185.916 328.67 189.671C328.268 187.395 326.431 185.802 323.734 185.802C320.061 185.802 316.101 188.817 314.896 192.516C314.264 194.678 314.666 196.612 315.929 197.807C312.313 199.172 308.296 202.814 306 206Z" fill="#ADB256"/>
<path d="M177.318 84.298L171.543 81.0391L165.482 89.9012L175.374 93.9606L177.318 84.298Z" fill="#E1987D"/>
<path d="M165.483 93.047L153.819 85.3284C153.076 84.871 152.39 84.2992 151.875 83.6131L140.154 72.0638C137.582 69.4909 137.925 65.2027 140.955 63.1444C145.7 59.8283 152.333 61.2005 155.42 66.1747L161.709 74.8653L172.63 81.4976L165.483 93.047Z" fill="#DE774B"/>
<path d="M201.56 83.5015C196.814 82.701 192.469 82.9869 192.297 83.0441C192.259 83.0441 192.24 83.0441 192.24 83.0441C192.24 83.006 192.24 82.9869 192.24 82.9869L178.347 83.8445L178.575 83.3299C178.575 83.3299 176.803 81.7291 175.774 81.6719C174.745 81.6719 169.027 92.8782 169.37 93.4499C170.171 94.765 175.945 95.4511 175.945 95.4511C180.462 96.08 183.778 95.8513 186.237 95.108L194.527 98.367C195.442 98.71 196.528 98.2526 196.929 97.3378C197.272 96.3659 196.814 95.3367 195.9 94.9365L190.239 92.7067C190.43 92.5161 190.601 92.3255 190.754 92.1349L199.787 93.1069C199.787 93.1069 199.806 93.1069 199.845 93.1069C200.817 93.2212 201.674 92.478 201.789 91.506C201.903 90.8771 201.617 90.2481 201.16 89.9051C202.017 89.9051 202.818 89.3333 202.989 88.4757C203.161 87.8468 202.932 87.1607 202.475 86.7033C202.761 86.4746 202.989 86.0744 203.046 85.617C203.218 84.645 202.589 83.673 201.56 83.5015Z" fill="#E9B556"/>
<path d="M201.047 87.0453C200.989 87.0453 194.815 86.302 193.099 86.302C192.985 86.302 192.928 86.2449 192.928 86.1305C192.928 86.0162 193.042 85.959 193.099 85.959C194.815 85.959 200.818 86.7023 201.104 86.7023C201.161 86.7023 201.275 86.8166 201.218 86.931C201.218 86.9881 201.161 87.0453 201.047 87.0453Z" fill="#211F20"/>
<path d="M195.154 97.7368L181.832 89.7895L189.322 75.9531L193.038 78.526L193.61 80.6415L198.813 81.8421L203.559 83.3287L195.154 97.7368Z" fill="#EBDBC4"/>
<path d="M196.469 97.622L182.232 94.1343L182.861 88.4168L185.148 79.5547L187.778 81.3271L189.608 80.9269L200.071 82.2419L197.898 86.9874L196.469 97.622Z" fill="#D9D9D9"/>
<path d="M176.518 90.189C177.375 91.3897 178.805 92.0186 180.291 91.7899C182.349 91.3897 183.321 89.3886 183.436 87.2159C183.436 86.9491 183.436 86.7013 183.436 86.4726C184.465 86.93 185.78 87.7305 186.866 88.5881C187.209 88.8168 187.495 88.9312 187.838 88.9883C188.296 88.9883 188.753 88.9312 189.096 88.6453C189.287 88.5309 189.458 88.3785 189.611 88.1879C190.24 87.3874 190.068 86.1296 189.268 85.5007C188.925 85.2148 188.41 84.8717 187.838 84.4715C185.323 82.8134 180.977 80.5836 178.519 82.985L176.518 90.189Z" fill="#E9B556"/>
<path d="M109.967 151.538C108.481 153.139 109.853 154.568 109.853 154.568C109.853 154.568 121.574 165.317 129.578 172.636C134.552 177.21 137.525 175.837 138.612 174.351C138.955 173.951 139.126 173.493 139.126 173.15C139.069 171.435 131.351 167.376 128.492 165.146C125.69 162.916 124.261 159.828 119.058 153.997C115.57 150.109 113.398 149.537 111.854 150.109C111.111 150.395 110.482 150.966 109.967 151.538Z" fill="#375592"/>
<path d="M115.915 159.086C124.263 164.232 125.121 169.206 130.552 172.237C131.867 173.037 135.298 175.496 137.642 173.266C139.986 171.036 136.27 167.548 136.27 167.548C135.412 158.114 133.297 150.968 133.297 150.968L140.386 144.678L131.467 131.871L114.658 147.994C111.227 152.626 112.028 156.628 115.915 159.086Z" fill="#F3AE91"/>
<path d="M109.967 151.539C108.481 153.14 109.853 154.569 109.853 154.569C109.853 154.569 121.574 165.318 129.578 172.636C134.552 177.21 137.525 175.838 138.612 174.352C135.925 175.209 132.894 172.408 131.293 171.035C129.464 169.492 128.892 167.376 125.69 165.375C122.431 163.374 119.858 156.513 115.284 153.54C112.769 151.882 112.025 150.795 111.854 150.109C111.111 150.395 110.482 150.967 109.967 151.539Z" fill="#6E6E6E"/>
<path d="M130.494 170.749L136.954 169.663C137.583 169.549 137.984 168.977 137.869 168.348L136.954 162.802C136.84 162.173 136.211 161.716 135.582 161.83L126.148 163.374C124.89 163.545 124.376 165.032 125.176 166.004L129.007 170.235C129.407 170.692 129.922 170.864 130.494 170.749Z" fill="#6E6E6E"/>
<path d="M159.651 125.409C158.793 115.403 154.677 102.025 153.076 97.1075C153.076 97.1075 153.762 95.2207 153.762 94.7061C153.762 93.8485 153.19 91.4471 153.19 91.4471L132.436 90.418L138.725 95.5637L139.925 123.065L127.633 134.043L137.067 149.537L155.134 134.9C160.165 131.127 159.937 128.439 159.651 125.409Z" fill="#92B5D8"/>
<path d="M128.266 185.5C128.266 187.73 130.267 187.844 130.267 187.844C130.267 187.844 146.104 187.844 157.025 187.844C163.771 187.844 165.029 184.814 164.858 182.984C164.8 182.413 164.572 181.955 164.4 181.726C163.2 180.526 154.738 182.756 151.136 183.041C147.534 183.27 144.446 182.012 136.613 181.212C131.467 180.697 129.466 181.784 128.723 183.213C128.323 183.899 128.266 184.757 128.266 185.5Z" fill="#375592"/>
<path d="M137.473 185.27C147.249 184.298 150.966 187.729 157.084 186.814C158.627 186.585 162.858 186.471 163.373 183.326C163.83 180.124 158.742 179.61 158.742 179.61C152.338 172.634 146.277 168.289 146.277 168.289L148.05 158.97L133.184 154.281L129.754 177.323C129.811 183.04 132.841 185.785 137.473 185.27Z" fill="#F3AE91"/>
<path d="M128.266 185.5C128.266 187.73 130.267 187.844 130.267 187.844C130.267 187.844 146.104 187.844 157.025 187.844C163.771 187.844 165.029 184.814 164.858 182.984C163.428 185.386 159.312 185.386 157.196 185.5C154.795 185.557 152.965 184.357 149.192 185.1C145.475 185.786 138.9 182.527 133.583 183.442C130.61 183.899 129.295 183.556 128.723 183.213C128.323 183.899 128.266 184.757 128.266 185.5Z" fill="#6E6E6E"/>
<path d="M156.395 185.843L160.397 180.64C160.798 180.182 160.74 179.439 160.226 179.039L155.766 175.608C155.252 175.208 154.508 175.265 154.108 175.78L148.162 183.327C147.419 184.299 148.048 185.786 149.248 185.9L154.966 186.414C155.537 186.472 156.052 186.243 156.395 185.843Z" fill="#6E6E6E"/>
<path d="M148.22 161.258L131.811 158.57L135.184 136.729C133.126 131.126 128.552 115.689 126.151 109.8C124.836 106.484 125.693 101.109 127.694 95.449C128.838 92.3616 130.096 89.7315 130.153 89.6172L147.648 90.2461C147.648 90.2461 146.047 100.652 146.962 103.511C149.878 112.43 152.966 129.868 152.966 132.155C152.966 143.247 148.22 161.258 148.22 161.258Z" fill="#92B5D8"/>
<path d="M154.222 65.5468C152.564 61.2015 146.503 60.5726 141.986 60.401C137.469 60.1723 129.522 61.03 127.464 65.2038C126.149 67.891 127.464 82.585 128.035 88.1309C128.207 89.3316 129.179 90.3036 130.437 90.3608L152.849 91.4471C154.164 91.5043 155.251 90.4751 155.251 89.2173C155.308 83.3283 155.308 68.2912 154.222 65.5468Z" fill="#DE774B"/>
<path d="M124.262 81.4414L126.95 84.1858L123.748 95.3921L115.629 89.8461L124.262 81.4414Z" fill="#E1987D"/>
<path d="M124.262 80.6973L131.181 78.5247L136.498 76.8666L131.466 61.8867C131.466 61.8867 115.057 67.8901 108.139 76.7522C106.881 78.3531 106.538 81.4978 107.739 83.7276C109.568 86.8722 115.972 93.8476 115.972 93.8476L126.092 82.87L124.262 80.6973Z" fill="#DE774B"/>
<path d="M145.816 96.4778C145.13 91.5035 140.099 89.9598 138.441 89.5596L126.949 84.1851C126.949 84.1851 126.491 81.9553 125.462 81.9553C124.433 81.8981 118.429 93.0473 118.83 93.5618C119.23 94.0764 123.747 95.3914 123.747 95.3914C126.72 97.9071 129.693 98.4217 132.266 97.9643C133.009 98.7076 134.038 100.366 133.752 103.11C133.695 103.625 133.867 104.196 134.21 104.539C134.496 104.882 134.953 105.111 135.41 105.168C136.44 105.283 137.354 104.539 137.469 103.51C137.583 102.881 137.583 102.31 137.526 101.738C138.612 102.024 139.47 101.852 139.927 101.738C140.042 101.7 140.156 101.643 140.27 101.566C140.308 101.528 140.327 101.509 140.327 101.509C140.442 101.471 140.556 101.395 140.671 101.28C140.956 101.052 141.185 100.652 141.242 100.308L141.471 100.537C142.157 101.28 143.358 101.395 144.101 100.652C144.73 100.137 144.901 99.2222 144.558 98.5361C145.416 98.2502 145.931 97.3926 145.816 96.4778Z" fill="#E9B556"/>
<path d="M141.529 44.3913C141.072 46.9642 142.787 49.4799 145.36 49.9373C147.99 50.3947 150.448 48.6223 150.906 46.0494C151.363 43.4194 149.648 40.9608 147.075 40.5034C144.445 40.046 141.986 41.7613 141.529 44.3913Z" fill="#543616"/>
<path d="M147.646 53.4258L147.475 61.3159C147.589 63.0312 146.617 64.6321 145.073 65.3182C142.215 66.576 138.956 64.5177 138.898 61.3731V59.6007L147.646 53.4258Z" fill="#E1987D"/>
<path d="M138.041 54.6253C138.155 55.8831 137.24 56.9123 135.982 57.0266C134.782 57.0838 133.695 56.169 133.638 54.9683C133.524 53.7105 134.496 52.6813 135.696 52.567C136.897 52.5098 137.983 53.4246 138.041 54.6253Z" fill="#E1987D"/>
<path d="M132.781 49.2506C132.495 51.4805 134.381 53.5388 137.012 53.8818C139.642 54.282 142.043 52.7383 142.329 50.5657C142.615 48.3358 140.728 46.2204 138.098 45.8773C135.468 45.5343 133.124 47.0208 132.781 49.2506Z" fill="#543616"/>
<path d="M140.669 60.859C140.402 60.859 140.136 60.859 139.869 60.859C137.353 60.5731 135.638 58.6291 135.066 56.0563C135.066 55.98 135.047 55.9038 135.009 55.8275C134.933 55.3701 134.895 54.9127 134.895 54.4553C134.895 54.3791 134.895 54.3029 134.895 54.2267C134.895 54.0742 134.895 53.9408 134.895 53.8264C134.895 53.674 134.895 53.5215 134.895 53.369C135.238 47.7659 137.182 46.1078 141.012 45.9363C144.9 45.7647 148.159 48.9665 148.331 53.0832C148.502 57.1998 144.5 60.6874 140.669 60.859Z" fill="#E1987D"/>
<path d="M148.561 54.3965C148.561 54.3965 149.705 56.2833 148.79 56.855C147.818 57.4268 146.617 55.2541 146.617 55.2541L148.561 54.3965Z" fill="#91654E"/>
<path d="M136.84 46.1643C136.84 46.1643 137.697 51.4816 146.045 53.9973C146.045 53.9973 148.332 54.0544 148.847 53.5399C150.219 52.282 150.505 47.9367 147.532 45.8784C146.617 45.1923 145.302 44.7349 143.644 44.6777C141.871 44.6777 139.641 45.078 136.84 46.1643Z" fill="#543616"/>
<path d="M144.329 54.2816C144.386 55.5394 145.415 56.4542 146.673 56.4542C147.873 56.3971 148.845 55.3679 148.788 54.1101C148.731 52.9094 147.702 51.9374 146.444 51.9946C145.243 52.0518 144.271 53.0809 144.329 54.2816Z" fill="#E1987D"/>
<path d="M321.414 154.559C323.627 156.425 327.087 158.459 325.669 162.076C325.102 163.998 323.23 164.902 321.585 166.089C321.131 166.88 321.868 167.898 321.528 168.124C318.351 172.023 311.771 169.198 309.105 165.524C305.985 161.172 310.012 157.724 314.494 157.046C317.5 156.312 313.983 152.807 315.628 151.621C316.99 150.095 319.656 151.677 320.734 153.203C320.904 153.655 321.074 154.277 321.414 154.559Z" fill="#D9D9D9"/>
<path d="M314.16 128.559C316.495 130.425 320.147 132.459 318.65 136.076C318.052 137.998 316.076 138.902 314.339 140.089C313.86 140.88 314.639 141.898 314.279 142.124C310.926 146.023 303.98 143.198 301.166 139.524C297.873 135.172 302.124 131.724 306.854 131.046C310.028 130.312 306.315 126.807 308.052 125.621C309.489 124.095 312.303 125.677 313.441 127.203C313.621 127.655 313.8 128.277 314.16 128.559Z" fill="#D9D9D9"/>
<path d="M397.927 90.5804C398.039 90.3524 403.59 82.9433 399.497 83.0003C395.403 83.0573 392.319 86.8189 392.319 86.8189C392.319 86.8189 377.291 80.5496 380.432 87.0468C383.516 93.5441 391.478 94 391.478 94L397.927 90.5804Z" fill="#604E52"/>
<path d="M424.834 81L418.685 87.2321L404.356 91.0629C403.196 90.6055 397.047 88.2613 394.727 89.0617C392.928 89.6335 388.693 93.2355 388.693 93.2355C387.939 93.8073 387.765 94.9508 388.345 95.6941C388.751 96.2087 389.622 96.2658 390.202 96.2087C392.174 95.8656 395.365 93.7501 395.365 93.7501C395.655 95.2938 396.119 96.6089 397.047 97.8096C394.785 98.8959 392.87 100.097 392.754 100.954C392.348 103.927 398.381 102.784 398.381 102.784L406.561 102.041C406.561 102.041 422.398 99.9251 428.141 97.5809C431.332 96.2658 434 90.777 434 90.777L424.834 81Z" fill="#E1987D"/>
<path d="M418.712 134.041L419.742 142.389L404.133 141.702V134.041H418.712Z" fill="#EBDBC4"/>
<path d="M422.715 164.686C422.677 164.763 422.639 164.858 422.601 164.972C422.601 164.972 417.855 166.573 411.166 167.431C410.651 166.173 409.394 165.258 407.907 165.258C406.249 165.258 404.877 166.402 404.477 167.888C404.21 167.888 403.943 167.888 403.676 167.888C393.385 167.888 382.922 171.147 382.922 164.972C382.922 164.858 382.922 164.763 382.922 164.686C382.922 159.998 382.407 154.624 393.785 153.309C396.072 153.08 398.187 151.936 400.246 150.85L401.789 149.992L401.16 140.559H422.258L421.915 149.764C421.801 151.479 422.029 153.194 422.658 154.795C423.687 157.654 423.744 161.656 422.715 164.686Z" fill="#D9D9D9"/>
<path d="M424.201 166.288V170.119H412.766C412.023 170.119 411.394 167.889 411.166 167.432C410.651 166.174 409.393 165.259 407.907 165.259C406.249 165.259 404.876 166.403 404.476 167.889C404.362 168.232 403.733 170.119 403.047 170.119H380.291V167.546C380.291 165.945 381.549 164.688 383.15 164.688H422.601C423.515 164.688 424.201 165.374 424.201 166.288Z" fill="#6E6E6E"/>
<path d="M406.878 151.022C403.275 150.85 401.732 150.05 401.675 150.05C401.617 149.993 401.56 149.878 401.617 149.821C401.675 149.707 401.789 149.707 401.846 149.764C401.846 149.764 403.333 150.507 406.878 150.679C406.992 150.679 407.049 150.793 407.049 150.85C407.049 150.965 406.992 151.022 406.878 151.022Z" fill="#261718"/>
<path d="M403.961 154.394C403.961 154.394 403.942 154.375 403.904 154.337C400.759 153.193 399.844 151.192 399.787 151.135C399.787 151.021 399.787 150.906 399.901 150.906C399.959 150.849 400.073 150.906 400.13 150.964C400.13 151.021 401.045 152.965 404.018 154.051C404.132 154.051 404.19 154.165 404.132 154.28C404.132 154.337 404.018 154.394 403.961 154.394Z" fill="#261718"/>
<path d="M399.159 156.168C399.159 156.168 399.14 156.149 399.102 156.11C396.929 155.196 395.9 152.966 395.843 152.909C395.786 152.794 395.843 152.68 395.957 152.68C396.014 152.623 396.129 152.68 396.186 152.737C396.186 152.794 397.158 154.967 399.216 155.825C399.33 155.825 399.388 155.939 399.33 156.053C399.292 156.129 399.235 156.168 399.159 156.168Z" fill="#261718"/>
<path d="M401.697 137C401.697 137 399.151 112.811 403.79 103.216C404.751 101.263 406.448 99.2517 408.598 98.8495C422.174 96.6087 456 95 456 95L454.246 117.465L419.515 116.029L420.873 136.54L401.697 137Z" fill="#DE774B"/>
<path d="M486.635 132.041L495.898 131.584L495.555 145.992L484.291 147.25L486.635 132.041Z" fill="#EBDBC4"/>
<path d="M490.238 130.155L467.482 131.984L465.138 94.9922L442.611 100.138L448.215 146.107C448.443 148.279 451.817 151.024 453.932 151.195C463.823 151.824 487.379 149.537 487.379 149.537L490.238 130.155Z" fill="#DE774B"/>
<path d="M431.941 95C431.941 95 446.085 79.1875 443.737 75.5684C443.432 75.123 443.088 74.7147 442.706 74.3435C439.786 71.3926 434.861 71.1698 431.598 74.0094L419 84.8109C422.837 89.8219 427.761 93.107 431.941 95Z" fill="#D9D9D9"/>
<path d="M466.804 91.3716C465.387 87.6113 461.588 79.5122 455.579 75.1734C453.254 73.4378 450.306 72.3965 446.848 71.818C446.583 71.7795 446.319 71.7409 446.054 71.7023C442.312 71.1817 438.4 70.5453 435.055 71.4709C434.677 71.548 434.299 71.6637 433.921 71.818C433.865 71.8759 433.241 72.1073 433.241 72.1073C429.726 73.5535 427.118 76.7353 427.005 80.6113C426.778 88.1898 435.169 93.7435 435.169 93.7435C434.261 95.0162 434.828 96.8096 436.246 97.3302C451.44 103.115 462.325 98.1401 465.84 95.1319C466.918 94.2063 467.258 92.7021 466.804 91.3716Z" fill="#D9D9D9"/>
<path d="M430.033 77.1522L432.263 78.3529C432.263 78.3529 431.92 79.7822 433.235 80.4683C434.95 81.326 437.981 78.8675 438.895 76.0659C439.181 75.1511 438.953 74.1219 438.266 73.4358L435.979 70.0625L430.033 77.1522Z" fill="#E1987D"/>
<path d="M419.856 66.4601C420.599 70.4052 428.432 70.8626 431.119 70.9198C435.007 71.0341 435.236 67.4892 435.236 67.4892C435.236 67.4892 435.35 61.9433 429.176 62.0004C425.631 62.0576 419.056 62.2291 419.856 66.4601Z" fill="#E9B556"/>
<path d="M422.773 72.1208C423.459 76.2374 426.375 79.2105 430.092 78.1813C433.808 77.1522 436.953 72.8641 435.866 68.8618C434.78 64.9167 430.892 62.5154 427.118 63.4873C423.402 64.5165 421.916 66.5748 422.773 72.1208Z" fill="#E1987D"/>
<path d="M432.892 68.575L435.064 70.2331L435.636 70.862C436.208 71.5481 437.351 71.0907 437.294 70.1759L437.008 65.1445L430.262 66.917L432.892 68.575Z" fill="#E9B556"/>
<path d="M421.629 64.1163C422.372 68.0614 430.205 68.5188 432.893 68.576C436.78 68.6904 437.009 65.1455 437.009 65.1455C437.009 65.1455 437.124 59.5995 430.949 59.6567C427.347 59.7139 420.771 59.8854 421.629 64.1163Z" fill="#E9B556"/>
<path d="M432.779 69.8914C432.893 70.4631 433.351 70.9205 433.865 71.0921C434.208 71.2636 434.608 71.2636 434.951 71.1493C434.99 71.1493 435.028 71.1493 435.066 71.1493C435.58 70.9777 435.981 70.5775 436.152 70.1201C436.324 69.777 436.381 69.3768 436.266 68.9766C435.981 68.0046 435.009 67.4329 434.037 67.6616C433.065 67.9474 432.493 68.9194 432.779 69.8914Z" fill="#E1987D"/>
<path d="M517.912 142.733C518.027 136.043 517.112 131.069 517.112 131.069C517.036 131.031 516.959 130.993 516.883 130.955C514.024 129.468 510.079 128.896 507.106 129.525C505.448 129.926 503.676 129.868 502.018 129.582L492.927 127.867L489.896 148.736L499.33 149.479L499.902 151.137C500.474 152.681 501.16 153.367 501.446 155.14C494.585 157.198 494.928 161.658 494.928 165.603C494.928 167.432 500.931 169.891 508.25 169.262C508.135 168.347 517.055 151.938 517.283 150.223C517.321 149.956 517.36 149.689 517.398 149.422C515.968 148.793 515.054 147.307 515.339 145.649C515.511 144.219 516.597 143.076 517.912 142.733Z" fill="#D9D9D9"/>
<path d="M518.769 129.696C517.854 129.525 516.939 130.211 516.825 131.126C515.91 136.843 512.994 155.254 510.879 161.886C510.078 164.287 507.791 165.602 503.503 165.602H494.813C493.44 165.602 492.297 166.746 492.297 168.118V171.091H505.104H508.477C511.222 171.091 513.68 169.376 514.595 166.746L519.398 151.194C519.512 150.451 517.683 149.593 517.397 149.422C515.967 148.793 515.053 147.306 515.338 145.648C515.51 144.219 516.596 143.075 517.911 142.732C518.369 142.618 520.713 142.275 520.827 141.589L522.485 130.211L518.769 129.696Z" fill="#6E6E6E"/>
<path d="M390.891 97.8622C391.216 98.0349 391.648 98.0349 392.027 97.9198L396.946 96.1358C397.757 95.9056 398.19 94.9848 397.92 94.1215C397.649 93.2583 396.784 92.7979 396.027 93.0856L391.054 94.8121C390.243 95.0999 389.81 96.0207 390.08 96.8839C390.243 97.3443 390.513 97.632 390.891 97.8622Z" fill="#E1987D"/>
<path d="M392.477 100.939C392.848 101.061 393.281 101 393.653 100.757L398.11 98.208C398.977 97.7224 399.224 96.6906 398.791 95.8408C398.296 95.0518 397.182 94.7483 396.377 95.2338L391.858 97.7831C391.053 98.2687 390.743 99.3005 391.239 100.15C391.486 100.575 391.981 100.879 392.477 100.939Z" fill="#E1987D"/>
<path d="M394.87 101.338C394.87 101.338 377.375 171.663 421.514 170.806H477.431C477.431 170.806 490.81 116.718 431.291 126.895C431.291 126.895 408.078 111.916 401.16 100.595C401.16 100.595 400.188 100.195 399.559 99.8516L394.87 101.338Z" fill="#6F4C22"/>
<path d="M424.889 152.738C424.26 151.595 424.203 150.28 424.717 149.079L425.518 149.536C425.861 149.765 426.318 149.422 426.204 149.079L425.918 147.249L425.461 145.019C425.404 144.734 425.118 144.562 424.889 144.676L422.716 145.42L421.001 146.049C420.601 146.163 420.601 146.678 420.944 146.906L421.744 147.364C420.658 149.593 420.715 152.166 421.916 154.339C423.117 156.626 425.346 158.17 427.862 158.456C428.377 158.513 428.777 158.113 428.777 157.598V155.883C428.777 155.483 428.491 155.139 428.091 155.025C426.719 154.854 425.575 153.996 424.889 152.738Z" fill="#ADB256"/>
<path d="M444.329 147.249L442.843 148.107C442.5 148.278 442.328 148.736 442.5 149.136C442.957 150.279 442.843 151.537 442.271 152.681C441.585 154.053 440.327 154.911 438.841 155.082V154.11C438.841 153.71 438.383 153.538 438.04 153.767L436.668 154.968L434.953 156.454C434.724 156.626 434.724 156.969 434.953 157.14L436.668 158.627L438.04 159.828C438.326 160.056 438.784 159.885 438.784 159.485V158.455C441.585 158.341 444.044 156.74 445.301 154.224C446.388 152.166 446.445 149.708 445.53 147.592C445.359 147.135 444.787 146.963 444.329 147.249Z" fill="#ADB256"/>
<path d="M437.125 139.816L436.324 140.274C435.981 140.502 436.038 141.017 436.438 141.131L438.096 141.703L440.269 142.503C440.555 142.561 440.841 142.446 440.898 142.16L441.298 139.873L441.641 138.101C441.699 137.758 441.298 137.415 440.955 137.644L440.098 138.101C438.668 135.928 436.267 134.613 433.58 134.613C431.064 134.613 428.777 135.757 427.29 137.758C427.005 138.158 427.176 138.73 427.576 138.959L429.063 139.816C429.406 139.988 429.863 139.931 430.149 139.645C430.95 138.616 432.207 137.987 433.58 137.987C435.009 137.987 436.324 138.673 437.125 139.816Z" fill="#ADB256"/>
<path d="M394.268 102.975C394.53 103.039 394.793 102.975 395.055 102.848L398.099 101.447C398.834 101.065 399.202 99.9833 398.887 99.0921C398.572 98.201 397.68 97.7554 396.945 98.1373L393.901 99.5377C393.166 99.9196 392.798 101.002 393.113 101.893C393.323 102.466 393.743 102.848 394.268 102.975Z" fill="#E29C83"/>
<path d="M437.524 121.977C436.781 120.433 434.208 120.033 433.351 121.577C431.635 120.662 429.806 122.091 429.92 123.921C428.262 124.321 428.319 126.379 429.234 127.58C428.891 128.723 430.035 130.496 431.635 130.496C432.493 131.697 434.78 131.982 435.809 130.896C437.467 131.353 439.64 130.381 439.24 128.552C441.126 128.152 441.298 125.865 439.983 124.893C440.669 123.578 439.183 121.634 437.524 121.977Z" fill="#D9D9D9"/>
<path d="M429.12 122.377C429.52 123.749 432.493 124.95 436.095 125.121C439.983 125.35 443.185 124.263 443.356 122.72L443.699 116.202L429.406 115.516L429.063 121.862C429.063 121.919 429.062 122.262 429.12 122.377Z" fill="#D9D9D9"/>
<path d="M429.406 116.031C429.863 117.404 432.779 118.604 436.381 118.776C439.068 118.89 441.412 118.433 442.727 117.632C443.299 117.232 443.642 116.775 443.699 116.317C443.756 114.716 440.612 113.287 436.667 113.115C432.722 112.944 429.463 114.03 429.406 115.631C429.367 115.745 429.367 115.879 429.406 116.031Z" fill="#EBDBC4"/>
<path d="M449.646 113.747L441.184 104.713L454.563 92.7634L453.476 90.5908C457.993 88.6468 459.88 86.3598 464.625 83.3867C464.625 83.3867 470.457 88.1894 470.457 92.935C470.457 98.1951 456.792 109.23 449.646 113.747Z" fill="#E1987D"/>
<path d="M455.764 75.5524C451.933 73.0367 447.302 73.6656 444.672 77.4392C442.042 81.2127 443.3 85.5009 446.673 88.6455C448.217 90.1892 452.505 92.9336 452.505 92.9336C459.252 89.1601 464.912 83.271 464.912 83.271C458.966 77.8966 458.737 77.4963 455.764 75.5524Z" fill="#D9D9D9"/>
<path d="M443.47 101.968C442.956 101.796 440.44 104.884 440.44 104.884L429.005 107.857C428.929 107.895 428.853 107.933 428.776 107.971V107.857C428.605 107.857 424.374 108.772 422.201 114.375C421.344 116.662 421.801 119.406 423.345 120.893C424.202 121.693 425.346 122.093 426.547 121.922C427.404 123.294 428.719 124.323 430.149 124.609C430.873 124.762 431.54 124.723 432.15 124.495C433.293 124.723 434.494 124.438 435.58 123.637C435.695 123.561 435.809 123.466 435.923 123.351C436.038 123.237 436.095 123.123 436.152 122.951C436.381 122.989 436.609 123.008 436.838 123.008C438.553 122.951 439.239 120.721 437.924 119.692C437.543 119.425 437.105 119.216 436.609 119.063C436.609 119.063 436.59 119.044 436.552 119.006C436.438 118.968 436.323 118.873 436.209 118.72C436.171 118.72 436.152 118.701 436.152 118.663C436.038 118.377 436.266 117.634 436.781 116.719C439.182 117.348 442.098 117.291 445.414 116.147C446.158 115.861 446.901 115.518 447.53 115.061C448.102 114.718 448.845 114.26 449.645 113.746C449.645 113.746 453.247 112.717 453.076 112.202C452.961 111.688 443.985 102.197 443.47 101.968Z" fill="#E9B556"/>
<path d="M296.951 156.524L296.199 157.013L298.687 158.7C298.687 158.7 296.604 158.864 295.041 158.973L294 162.727L298.629 163.816L300.48 164.251C302.042 164.632 303.662 164.088 304.704 162.999C305.225 162.401 306.092 162.129 306.902 162.292L313.556 163.87L314.308 166.482C314.366 166.754 314.54 166.918 314.829 166.972C315.176 167.081 315.581 166.863 315.639 166.482L316.97 161.476C317.086 161.149 316.854 160.768 316.507 160.714H316.449C316.218 160.659 315.986 160.714 315.813 160.877L313.903 162.673L307.192 161.095C306.382 160.932 305.803 160.279 305.63 159.517C305.456 158.809 305.109 158.156 304.53 157.612C304.01 157.122 303.315 156.687 302.505 156.524L296.083 155L296.951 156.524Z" fill="#92B5D8"/>
<path d="M309 135.663L308.71 132.091C308.653 131.645 308.247 131.31 307.842 131.366C307.842 131.366 304.889 132.538 304.368 132.538C301.704 132.482 297.188 132.259 293.193 130.863C292.691 130.714 292.208 130.528 291.745 130.305C285.608 127.738 273.738 129.524 269.164 130.863C269.125 130.9 269.086 130.919 269.048 130.919C268.353 131.142 267.948 131.812 268.005 132.482L268.411 136.836L268.7 141.245C268.758 141.971 269.337 142.585 270.09 142.641C274.838 143.31 286.824 143.366 292.498 139.905C296.493 137.45 301.704 136.333 304.599 135.887C305.178 135.775 308.247 136.501 308.247 136.501C308.71 136.501 309 136.11 309 135.663Z" fill="#92B5D8"/>
<path d="M424.087 177.724L427.06 175.094C427.232 174.923 427.346 174.694 427.346 174.466L427.289 174.408L428.776 174.294C428.89 174.294 429.004 174.237 428.947 174.122L428.433 167.433C428.433 167.319 428.375 167.204 428.261 167.204L426.775 167.319C426.775 167.09 426.603 166.918 426.431 166.804L423.115 164.631C422.143 164.06 421.057 163.774 419.971 163.888C419.894 163.888 419.799 163.888 419.685 163.888L417.169 164.231L411.737 164.917L409.736 165.203L399.788 166.518C399.159 166.575 398.702 167.147 398.759 167.776L399.559 178.296C399.616 178.982 400.188 179.44 400.817 179.44L420.885 178.982C422.086 178.925 423.23 178.468 424.087 177.724Z" fill="#45282A"/>
<path d="M428.032 174.465L427.46 167.204C427.403 166.918 427.632 166.689 427.917 166.632L429.747 166.518C430.033 166.518 430.262 166.689 430.319 166.975L430.833 174.236C430.891 174.522 430.662 174.751 430.376 174.808L428.546 174.922C428.26 174.979 428.032 174.751 428.032 174.465Z" fill="#F4EDEE"/>
<path d="M429.177 173.037L428.834 168.406C428.834 167.948 429.177 167.548 429.634 167.548L430.378 167.434C430.721 167.777 430.949 167.948 431.293 168.234L431.636 172.865C431.35 173.208 431.178 173.437 430.892 173.78L430.092 173.837C429.634 173.837 429.234 173.494 429.177 173.037Z" fill="#F4EDEE"/>
<path d="M261.178 169.383C260.318 162.077 257.509 151.409 248.852 146.075C248.852 146.075 250.343 143.234 244.208 142.248C238.074 141.321 200.925 143.292 200.925 143.292C200.925 143.292 198.116 147.234 201.269 151.119C201.269 151.119 195.708 151.873 191.752 156.047C188.599 159.41 185.733 164.976 185.274 169.963C182.465 171.47 180 174.601 180 175.818C180 177.442 184.414 176.92 188.083 176.92H259.859C263.528 176.92 268 177.442 268 175.818C268 174.369 264.503 170.31 261.178 169.383Z" fill="#6F4C22"/>
<path d="M246 145.86C246 149.731 239.608 152.577 230.648 153.545C230.419 153.583 230.191 153.621 229.963 153.658C227.794 153.886 225.397 154 223 154C222.505 154 222.03 154 221.573 154C214.668 153.829 208.618 152.748 204.68 150.983C201.712 149.617 200 147.909 200 145.86C200 141.022 210.273 142.103 223 142.103C223.342 142.103 223.666 142.103 223.97 142.103H224.484C224.56 142.103 224.617 142.103 224.655 142.103C224.883 142.103 225.093 142.103 225.283 142.103C231.846 142.046 237.553 141.819 241.32 142.388C242.119 142.54 242.823 142.71 243.432 142.9C244.155 143.166 244.744 143.507 245.201 143.925C245.658 144.38 245.943 144.949 246 145.689C246 145.765 246 145.822 246 145.86Z" fill="#423336"/>
<path d="M230.354 171.893L229.515 172.445C229.124 172.691 229.179 173.243 229.571 173.428L231.36 174.103L233.597 174.962C233.876 175.085 234.156 174.901 234.212 174.532L234.659 172.016L234.995 169.99C235.051 169.56 234.659 169.192 234.268 169.438L233.429 169.99C231.919 167.473 229.403 166 226.663 166C224.035 166 221.687 167.289 220.177 169.56C219.842 169.99 220.009 170.665 220.457 170.911L221.966 171.893C222.358 172.138 222.805 172.077 223.085 171.709C223.923 170.542 225.209 169.867 226.663 169.867C228.117 169.867 229.515 170.604 230.354 171.893Z" fill="#ADB256"/>
<path d="M241.299 134.555L244.844 136.041L248.389 140.272L241.47 143.588L241.299 134.555Z" fill="#BB8E45"/>
<path d="M230.092 153.366C227.92 153.594 225.518 153.709 223.117 153.709C222.621 153.709 222.145 153.709 221.687 153.709C214.769 153.537 208.709 152.451 204.764 150.678L224.089 141.759H224.146L224.603 141.53C224.603 141.53 224.622 141.53 224.661 141.53C224.946 141.473 225.232 141.53 225.404 141.759C225.48 141.835 225.537 141.912 225.575 141.988L230.778 153.251C230.55 153.289 230.321 153.327 230.092 153.366Z" fill="#543616"/>
<path d="M230.094 153.366C230.322 153.328 230.551 153.29 230.78 153.252C239.756 152.28 246.16 149.421 246.16 145.533C246.16 145.495 246.16 145.438 246.16 145.362L245.359 143.589L244.616 142.046L242.444 137.243L241.3 134.784L240.957 134.041L237.584 135.585C237.203 135.737 236.84 135.947 236.497 136.214L235.926 136.557C235.316 136.976 234.649 137.3 233.924 137.529L233.467 137.7C232.438 138.043 231.466 138.558 230.608 139.301C229.465 140.33 228.035 140.959 226.492 141.245L224.662 141.531L224.776 141.76L230.094 153.366Z" fill="#BB8E45"/>
<path d="M224.661 141.531L224.603 141.76L223.003 153.252L221.687 153.71C214.769 153.538 208.709 152.452 204.764 150.679L224.146 141.76L224.603 141.531H224.661Z" fill="#BB8E45"/>
<path d="M255.005 146C254.967 145.4 255.158 144.763 255.578 144.088C257.24 141.277 261.769 139.084 265.724 139.084C267.329 139.084 268.591 139.422 269.45 140.04C272.202 135.598 277.476 132 281.374 132C285.329 132 286.361 135.711 283.609 140.265C283.342 140.715 283.055 141.165 282.749 141.614C284.527 141.333 286.361 141.221 288.253 141.221C295.475 141.221 300.176 143.189 298.743 145.55C298.666 145.7 298.571 145.85 298.456 146H255.005Z" fill="#738E51"/>
</svg>
