<svg width="422" height="253" viewBox="0 0 422 253" fill="none" xmlns="http://www.w3.org/2000/svg">
<rect width="209.046" height="15.8572" rx="7.92858" transform="matrix(-1 0 0 1 392.047 236.234)" fill="white" fill-opacity="0.5"/>
<rect width="209.046" height="15.8572" rx="7.92858" transform="matrix(-1 0 0 1 421.764 209.325)" fill="white" fill-opacity="0.5"/>
<path fill-rule="evenodd" clip-rule="evenodd" d="M298.795 225.183H227.063V225.185C227.124 225.183 227.184 225.183 227.245 225.183C230.547 225.183 233.223 227.693 233.223 230.789C233.223 233.882 230.551 236.39 227.254 236.395H298.795V236.283C298.691 236.287 298.586 236.289 298.48 236.289C294.891 236.289 291.98 233.827 291.98 230.789C291.98 227.751 294.891 225.289 298.48 225.289C298.586 225.289 298.691 225.291 298.795 225.295V225.183ZM227.237 236.395H227.063V236.392C227.121 236.394 227.179 236.395 227.237 236.395Z" fill="white" fill-opacity="0.5"/>
<path d="M393.297 164.624V168.714H395.334V164.624C394.973 163.431 394.977 161.045 397.88 161.045C400.783 161.045 401.127 163.431 400.936 164.624V168.714H402.464V164.624C402.464 162.749 401.547 159 397.88 159C394.214 159 393.297 162.749 393.297 164.624Z" fill="#DE774B"/>
<path d="M377 203.479H420.861V216.772H415.576C406.064 216.772 403.95 212.974 393.382 212.974C384.927 212.974 378.938 215.506 377 216.772V203.479Z" fill="#DE774B"/>
<path d="M389.915 168.714L385.148 203.48H388.856L389.915 196.215H407.393L408.453 203.48H411.631L406.334 168.714H389.915Z" fill="#DE774B"/>
<path d="M10.8397 177.272C11.1527 177.272 11.4657 177.287 11.7787 177.317C11.7218 177.168 11.6791 177.005 11.6506 176.827C10.797 173.485 10.4555 170.277 10.5409 167.248C8.87633 166.045 7.51053 163.995 6.95567 161.723C6.01668 157.98 7.63857 154.906 10.4982 154.906C11.4799 154.906 12.4616 155.262 13.4006 155.842C16.1749 150.985 20.7845 148 26.6745 148C34.1865 148 42.0399 152.856 47.8872 160.297C49.5518 155.797 53.0517 152.901 57.832 152.901C63.9782 152.901 70.4231 157.668 74.4352 164.53C75.5449 163.683 76.9534 163.149 78.5326 163.149C83.9105 163.149 89.6725 168.807 91.3797 175.802C91.4082 175.891 91.4366 175.995 91.4651 176.114C92.3614 175.49 93.4711 175.134 94.7089 175.134C96.9283 175.134 99.1904 176.248 101.196 178.03C103.373 174.688 106.788 172.683 111.099 172.683C120.104 172.683 138.287 181.594 142 193H106.105H99.1051H98.8063H92.1907H70.7219H66.4537H56.2528H40.2473H29.3635H19.4614H0.126633C-0.812363 184.045 3.54114 177.272 10.8397 177.272Z" fill="#738E51"/>
<path d="M343 196C343 196 327.511 143.322 269.622 145.041C249.577 145.631 229.955 147.658 211.212 159.333C195.267 169.238 179.81 173.24 149.222 169.956C55.7992 159.872 12 195.102 12 195.102L343 196Z" fill="#ADB256"/>
<path d="M4.00196 190.195C4.00196 190.195 64.3572 187.702 77.0465 190.144C89.7357 192.585 123.346 193.105 143.584 190.195C163.821 187.286 171.37 190.247 183.474 191.65C195.61 193.053 230.717 188.611 249.035 188.247C267.353 187.91 342.577 187.364 349.247 190.923C355.95 194.456 351.199 196.819 326.244 203.729C301.288 210.639 335.517 213.055 343.586 216.25C351.687 219.419 312.156 232.407 264.717 221.653C217.246 210.873 209.73 209.08 185.914 215.782C162.064 222.484 150.091 208.457 126.437 210.639C102.783 212.821 70.1487 234.459 42.8506 224.302C15.5524 214.12 39.7271 202.378 25.9641 199.521C12.1686 196.69 -8.84998 191.312 4.00196 190.195Z" fill="#738E51"/>
<path d="M223 135.683C223 135.349 222.879 135.04 222.671 134.782V134.781C222.452 134.51 222.137 134.296 221.767 134.177C221.655 134.139 221.536 134.112 221.415 134.094V134.094C221.305 134.077 221.192 134.068 221.076 134.068H221.076H220.511H210.861C210.898 134.064 210.934 134.059 210.971 134.054L210.973 134.054C211.094 134.036 211.212 134.008 211.324 133.97C211.577 133.889 211.801 133.761 211.99 133.602C212.008 133.587 212.029 133.574 212.046 133.558C212.049 133.556 212.051 133.553 212.054 133.551C212.116 133.493 212.175 133.432 212.228 133.366C212.436 133.108 212.558 132.799 212.558 132.464V128.274C212.558 127.94 212.436 127.63 212.228 127.372C212.228 127.372 212.227 127.371 212.227 127.371C212.203 127.341 212.177 127.313 212.151 127.285C212.133 127.264 212.114 127.244 212.095 127.226C212.093 127.224 212.091 127.221 212.089 127.219C212.078 127.209 212.067 127.199 212.056 127.189C212.054 127.187 212.052 127.186 212.051 127.184C212.047 127.181 212.044 127.178 212.04 127.175C212.025 127.161 212.009 127.146 211.992 127.133C211.963 127.109 211.931 127.089 211.902 127.067C211.871 127.044 211.843 127.021 211.811 127C211.807 126.998 211.804 126.995 211.8 126.992C211.772 126.974 211.743 126.956 211.714 126.94C211.709 126.937 211.704 126.934 211.698 126.931C211.666 126.913 211.634 126.896 211.601 126.88C211.6 126.879 211.598 126.879 211.597 126.878C211.592 126.875 211.587 126.873 211.583 126.871C211.553 126.857 211.523 126.843 211.492 126.83H211.639H212.66H213.564H214.518H215.422H216.481C216.597 126.83 216.71 126.821 216.82 126.804C216.941 126.786 217.06 126.759 217.172 126.721C217.542 126.602 217.856 126.388 218.076 126.117C218.284 125.859 218.405 125.549 218.405 125.215V121.025C218.405 120.69 218.284 120.381 218.076 120.123V120.122C217.856 119.851 217.542 119.638 217.172 119.518C217.06 119.481 216.941 119.453 216.82 119.435C216.78 119.429 216.739 119.425 216.698 119.421H217.007H217.911H218.97C219.004 119.421 219.038 119.42 219.072 119.418C219.094 119.417 219.115 119.416 219.135 119.415C219.137 119.414 219.139 119.414 219.139 119.414C219.142 119.414 219.142 119.414 219.142 119.414C219.162 119.412 219.18 119.411 219.198 119.409C219.235 119.406 219.272 119.4 219.31 119.395C219.431 119.377 219.549 119.349 219.662 119.312C219.782 119.273 219.894 119.221 220.001 119.163C220.141 119.088 220.271 119.001 220.383 118.9C220.45 118.839 220.51 118.775 220.565 118.707C220.774 118.449 220.895 118.14 220.895 117.806V113.615C220.895 113.281 220.774 112.972 220.565 112.714V112.713C220.346 112.442 220.031 112.229 219.662 112.109C219.549 112.072 219.431 112.044 219.31 112.026C219.199 112.009 219.086 112 218.97 112H218.405L176.603 112H167.633H166.729H139.429H139.223C138.308 112 137.553 112.682 137.507 113.532C137.506 113.56 137.505 113.588 137.505 113.615V117.806C137.505 117.833 137.506 117.861 137.507 117.889C137.55 118.677 138.202 119.32 139.026 119.409H136.94H136.733C136.664 119.409 136.596 119.413 136.53 119.421C135.709 119.513 135.06 120.155 135.017 120.941C135.016 120.969 135.015 120.996 135.015 121.024V125.215C135.015 125.242 135.016 125.27 135.017 125.298C135.018 125.32 135.02 125.342 135.023 125.364C135.079 125.929 135.448 126.414 135.966 126.658H131.092H130.885C129.97 126.658 129.216 127.34 129.169 128.19C129.168 128.218 129.167 128.245 129.167 128.273V132.464C129.167 132.491 129.168 132.519 129.169 132.546C129.216 133.397 129.97 134.079 130.885 134.079H131.092H141.125C140.304 134.17 139.655 134.813 139.612 135.599C139.611 135.627 139.61 135.654 139.61 135.682V139.872C139.61 139.9 139.611 139.928 139.612 139.955C139.659 140.805 140.413 141.487 141.328 141.487H135.035H134.828C133.913 141.487 133.159 142.169 133.112 143.019C133.111 143.047 133.11 143.075 133.11 143.102V147.293C133.11 147.32 133.111 147.348 133.112 147.376C133.113 147.4 133.115 147.424 133.119 147.448C133.175 148.002 133.533 148.477 134.037 148.725H130.925H130.718C129.803 148.725 129.049 149.407 129.002 150.256C129.002 150.284 129 150.312 129 150.339V154.53C129 154.558 129.002 154.585 129.002 154.613C129.045 155.397 129.689 156.038 130.508 156.133C129.855 156.271 129.344 156.764 129.208 157.382C129.193 157.439 129.182 157.497 129.175 157.557C129.173 157.579 129.17 157.601 129.169 157.624C129.168 157.652 129.167 157.68 129.167 157.708V161.898C129.167 161.926 129.168 161.953 129.169 161.981C129.216 162.831 129.97 163.513 130.885 163.513H131.091H136.53C135.709 163.605 135.06 164.248 135.017 165.033C135.016 165.061 135.015 165.089 135.015 165.116V169.307C135.015 169.335 135.016 169.362 135.017 169.39C135.064 170.24 135.818 170.922 136.733 170.922H135.034H134.828C133.913 170.922 133.159 171.604 133.112 172.454C133.111 172.481 133.11 172.509 133.11 172.537V176.727C133.11 176.755 133.111 176.782 133.112 176.81C133.113 176.834 133.115 176.859 133.118 176.882C133.175 177.437 133.533 177.912 134.036 178.159H130.925H130.718C129.802 178.159 129.049 178.841 129.002 179.691C129.001 179.719 129 179.746 129 179.774V183.965C129 183.992 129.001 184.02 129.002 184.047C129.049 184.897 129.802 185.579 130.718 185.579H130.925H139.223C138.308 185.579 137.553 186.262 137.507 187.111C137.506 187.139 137.505 187.167 137.505 187.194V191.385C137.505 191.413 137.506 191.44 137.507 191.468C137.553 192.318 138.308 193 139.223 193H139.429H166.729L167.633 193L174.353 193L175.257 193L181.836 193H182.891L183.795 193L192.01 193L192.914 193L197.958 193L198.862 193L203.583 193L204.487 193L207.252 193L208.157 193L210.313 193L211.217 193L213.226 193L214.13 193L215.15 193L216.054 193L217.008 193L217.912 193L218.406 193H218.971C219.087 193 219.2 192.991 219.31 192.974C219.432 192.956 219.55 192.929 219.663 192.891C220.032 192.771 220.347 192.558 220.566 192.287C220.774 192.029 220.896 191.719 220.896 191.385V187.194C220.896 186.86 220.774 186.551 220.566 186.293C220.347 186.021 220.032 185.808 219.663 185.688C219.55 185.651 219.432 185.623 219.31 185.605C219.2 185.588 219.087 185.579 218.971 185.579H218.406H210.467C210.583 185.579 210.696 185.571 210.806 185.554C210.927 185.536 211.046 185.508 211.158 185.471C211.527 185.351 211.843 185.138 212.061 184.866C212.27 184.608 212.391 184.299 212.391 183.965V179.774C212.391 179.44 212.27 179.13 212.061 178.872C212.061 178.872 212.061 178.872 212.061 178.871C212.038 178.844 212.014 178.817 211.99 178.79C211.977 178.777 211.966 178.763 211.953 178.751C211.941 178.738 211.928 178.726 211.915 178.713C211.909 178.708 211.902 178.703 211.896 178.697C211.878 178.681 211.86 178.666 211.842 178.651C211.82 178.631 211.799 178.611 211.775 178.593C211.76 178.58 211.742 178.568 211.726 178.556C211.725 178.555 211.723 178.553 211.722 178.553C211.708 178.543 211.694 178.534 211.68 178.524C211.671 178.518 211.663 178.512 211.654 178.506C211.651 178.505 211.65 178.503 211.647 178.502C211.615 178.48 211.583 178.46 211.549 178.44C211.519 178.423 211.489 178.407 211.458 178.392C211.45 178.387 211.442 178.384 211.434 178.38C211.428 178.377 211.422 178.374 211.415 178.37C211.413 178.369 211.411 178.369 211.409 178.368C211.391 178.359 211.372 178.35 211.354 178.342H211.659H212.614H213.518H214.576C214.692 178.342 214.805 178.333 214.916 178.316C215.037 178.298 215.155 178.27 215.268 178.233C215.303 178.221 215.335 178.205 215.369 178.192C215.694 178.068 215.973 177.874 216.171 177.629C216.379 177.37 216.501 177.061 216.501 176.727V172.536C216.501 172.202 216.379 171.892 216.171 171.635C215.952 171.363 215.637 171.15 215.268 171.03V171.03C215.155 170.993 215.037 170.965 214.915 170.947C214.805 170.93 214.692 170.921 214.576 170.921H215.423H216.481C216.597 170.921 216.71 170.912 216.821 170.896C216.942 170.878 217.06 170.85 217.173 170.812C217.542 170.693 217.857 170.479 218.076 170.208C218.285 169.95 218.406 169.64 218.406 169.306V165.116C218.406 164.782 218.285 164.472 218.076 164.214V164.214C217.857 163.942 217.542 163.729 217.173 163.609V163.61C217.06 163.572 216.942 163.545 216.821 163.527V163.526C216.71 163.51 216.597 163.501 216.481 163.501H215.917L215.423 163.501H214.518H213.564H212.66H211.64H210.861C210.898 163.497 210.935 163.492 210.973 163.487C211.094 163.469 211.212 163.441 211.325 163.404C211.694 163.284 212.009 163.07 212.228 162.799C212.437 162.541 212.558 162.231 212.558 161.897V157.707C212.558 157.373 212.437 157.063 212.228 156.805V156.805C212.009 156.534 211.694 156.32 211.325 156.201L211.325 156.201C211.212 156.163 211.094 156.136 210.973 156.118V156.117C210.968 156.117 210.963 156.116 210.958 156.116C210.933 156.112 210.908 156.108 210.883 156.105C210.977 156.088 211.069 156.065 211.158 156.035V156.036C211.435 155.946 211.681 155.803 211.879 155.623C211.945 155.563 212.006 155.499 212.061 155.431C212.269 155.173 212.391 154.863 212.391 154.529V150.338C212.391 150.005 212.269 149.695 212.061 149.437C212.038 149.409 212.014 149.382 211.99 149.355C211.977 149.341 211.965 149.329 211.952 149.316C211.941 149.303 211.928 149.29 211.914 149.278C211.908 149.272 211.9 149.267 211.894 149.261C211.878 149.246 211.86 149.232 211.843 149.217C211.82 149.197 211.799 149.176 211.774 149.158C211.759 149.145 211.741 149.133 211.725 149.121C211.724 149.119 211.722 149.118 211.721 149.117C211.706 149.106 211.691 149.096 211.676 149.086C211.669 149.082 211.662 149.077 211.655 149.072C211.652 149.07 211.65 149.068 211.647 149.066C211.615 149.045 211.582 149.025 211.548 149.005C211.518 148.988 211.488 148.972 211.457 148.957C211.45 148.953 211.442 148.95 211.434 148.946C211.426 148.942 211.418 148.938 211.41 148.934C211.392 148.925 211.373 148.916 211.354 148.907H211.658V148.907H212.613V148.907H213.517V148.907H214.011L214.576 148.907C214.691 148.907 214.804 148.898 214.915 148.881C215.036 148.863 215.154 148.835 215.267 148.798L215.267 148.798C215.636 148.678 215.951 148.465 216.17 148.194C216.379 147.936 216.5 147.626 216.5 147.292V143.101C216.5 142.767 216.379 142.458 216.17 142.199C216.017 142.01 215.814 141.851 215.582 141.73C215.565 141.721 215.55 141.71 215.533 141.702C215.528 141.7 215.523 141.698 215.518 141.696C215.437 141.658 215.354 141.624 215.267 141.595C215.154 141.558 215.036 141.53 214.915 141.512C214.804 141.495 214.691 141.487 214.575 141.487H215.33H216.234H217.255H218.159H219.113H220.017H220.511H221.075H221.076C221.192 141.487 221.305 141.478 221.415 141.46C221.536 141.443 221.654 141.415 221.767 141.378C222.136 141.258 222.451 141.045 222.671 140.773V140.773C222.879 140.515 223 140.205 223 139.872L223 135.683Z" fill="#D78B12"/>
<path d="M287.095 186.835V191.019C287.095 191.352 286.974 191.661 286.766 191.919C286.547 192.19 286.233 192.403 285.865 192.522C285.752 192.56 285.634 192.588 285.513 192.605C285.403 192.622 285.29 192.631 285.175 192.631H205.816C204.793 192.631 203.95 191.95 203.899 191.102C203.898 191.074 203.896 191.046 203.896 191.019V186.835C203.896 186.807 203.898 186.78 203.899 186.752C203.95 185.904 204.793 185.223 205.816 185.223H285.175C285.29 185.223 285.403 185.232 285.513 185.249C285.634 185.266 285.752 185.294 285.865 185.331C286.233 185.451 286.547 185.664 286.766 185.935C286.974 186.192 287.095 186.502 287.095 186.835Z" fill="#FFB93E"/>
<path d="M248.126 192.631H205.611C204.698 192.631 203.945 191.95 203.899 191.102C203.898 191.074 203.896 191.046 203.896 191.019V186.835C203.896 186.807 203.898 186.78 203.899 186.752C203.945 185.904 204.698 185.223 205.611 185.223H242.905C243.5 187.403 244.888 190.419 248.126 192.631Z" fill="#FFA412"/>
<path d="M277.439 185.223H276.537V192.631H277.439V185.223Z" fill="#FFA412"/>
<path d="M274.386 185.223H273.484V192.631H274.386V185.223Z" fill="#FFA412"/>
<path d="M270.724 185.223H269.822V192.631H270.724V185.223Z" fill="#FFA412"/>
<path d="M265.111 185.223H264.209V192.631H265.111V185.223Z" fill="#FFA412"/>
<path d="M259.179 185.223H258.277V192.631H259.179V185.223Z" fill="#FFA412"/>
<path d="M250.082 185.223H249.18V192.631H250.082V185.223Z" fill="#FFA412"/>
<path d="M241.564 185.223H240.662V192.631H241.564V185.223Z" fill="#FFA412"/>
<path d="M233.957 185.223H233.055V192.631H233.957V185.223Z" fill="#FFA412"/>
<path d="M280.345 185.223H279.443V192.631H280.345V185.223Z" fill="#FFA412"/>
<path d="M282.263 185.223H281.361V192.631H282.263V185.223Z" fill="#FFA412"/>
<path d="M284.119 185.223H283.217V192.631H284.119V185.223Z" fill="#FFA412"/>
<path d="M285.513 185.249V192.605C285.403 192.622 285.291 192.631 285.175 192.631H284.611V185.223H285.175C285.291 185.222 285.403 185.231 285.513 185.249Z" fill="#FFA412"/>
<path d="M286.766 185.936V191.92C286.548 192.19 286.233 192.404 285.865 192.523V185.332C286.233 185.451 286.548 185.665 286.766 185.936Z" fill="#FFA412"/>
<path d="M278.61 179.425V183.609C278.61 183.942 278.489 184.251 278.281 184.509C278.063 184.78 277.749 184.993 277.38 185.113C277.268 185.15 277.15 185.177 277.029 185.195C276.919 185.212 276.806 185.221 276.69 185.221H197.332C196.309 185.221 195.467 184.54 195.414 183.691C195.413 183.664 195.412 183.636 195.412 183.609V179.425C195.412 179.397 195.413 179.37 195.414 179.342C195.466 178.494 196.309 177.812 197.332 177.812H276.69C276.741 177.812 276.792 177.815 276.842 177.818C276.863 177.819 276.885 177.821 276.907 177.823C276.93 177.825 276.955 177.828 276.978 177.831C276.995 177.833 277.012 177.836 277.029 177.838C277.15 177.856 277.268 177.884 277.38 177.921C277.397 177.926 277.413 177.932 277.43 177.938C277.446 177.943 277.463 177.949 277.479 177.956C277.511 177.968 277.544 177.981 277.576 177.995C277.594 178.003 277.613 178.012 277.631 178.021C277.648 178.029 277.664 178.036 277.68 178.045C277.711 178.06 277.74 178.076 277.77 178.093C277.804 178.113 277.837 178.133 277.869 178.155C277.894 178.171 277.919 178.188 277.943 178.206C277.944 178.206 277.946 178.207 277.947 178.209C277.963 178.221 277.98 178.233 277.996 178.246C278.045 178.283 278.092 178.324 278.135 178.366C278.149 178.378 278.161 178.391 278.173 178.403C278.186 178.416 278.198 178.429 278.21 178.442C278.235 178.469 278.259 178.497 278.281 178.524C278.489 178.782 278.61 179.092 278.61 179.425Z" fill="#FFB93E"/>
<path d="M239.641 185.221H197.127C196.213 185.221 195.461 184.54 195.414 183.691C195.413 183.664 195.412 183.636 195.412 183.609V179.425C195.412 179.397 195.413 179.37 195.414 179.342C195.461 178.494 196.213 177.812 197.127 177.812H234.419C234.436 177.873 234.453 177.934 234.471 177.996C235.095 180.159 236.492 183.071 239.641 185.221Z" fill="#FFA412"/>
<path d="M268.955 177.812H268.053V185.221H268.955V177.812Z" fill="#FFA412"/>
<path d="M265.902 177.812H265V185.221H265.902V177.812Z" fill="#FFA412"/>
<path d="M262.24 177.812H261.338V185.221H262.24V177.812Z" fill="#FFA412"/>
<path d="M256.627 177.812H255.725V185.221H256.627V177.812Z" fill="#FFA412"/>
<path d="M250.695 177.812H249.793V185.221H250.695V177.812Z" fill="#FFA412"/>
<path d="M241.597 177.812H240.695V185.221H241.597V177.812Z" fill="#FFA412"/>
<path d="M233.08 177.812H232.178V185.221H233.08V177.812Z" fill="#FFA412"/>
<path d="M225.472 177.812H224.57V185.221H225.472V177.812Z" fill="#FFA412"/>
<path d="M271.861 177.812H270.959V185.221H271.861V177.812Z" fill="#FFA412"/>
<path d="M273.779 177.812H272.877V185.221H273.779V177.812Z" fill="#FFA412"/>
<path d="M275.634 177.812H274.732V185.221H275.634V177.812Z" fill="#FFA412"/>
<path d="M277.029 177.839V185.196C276.919 185.212 276.806 185.221 276.691 185.221H276.127V177.813H276.691C276.806 177.812 276.919 177.821 277.029 177.839Z" fill="#FFA412"/>
<path d="M278.28 178.525V184.51C278.062 184.78 277.747 184.994 277.379 185.113V177.922C277.747 178.041 278.062 178.254 278.28 178.525Z" fill="#FFA412"/>
<path d="M282.712 172.198V176.382C282.712 176.715 282.591 177.025 282.383 177.282C282.164 177.553 281.85 177.766 281.481 177.886C281.369 177.923 281.251 177.951 281.13 177.969C281.02 177.985 280.907 177.994 280.792 177.994H201.434C201.115 177.994 200.814 177.928 200.548 177.811C199.987 177.565 199.586 177.09 199.522 176.537C199.519 176.513 199.517 176.489 199.516 176.465C199.515 176.437 199.514 176.41 199.514 176.382V172.198C199.514 172.171 199.515 172.143 199.516 172.115C199.568 171.267 200.41 170.586 201.434 170.586H280.792C280.907 170.586 281.02 170.595 281.13 170.612C281.251 170.63 281.369 170.657 281.482 170.695C281.85 170.814 282.164 171.027 282.383 171.298C282.591 171.556 282.712 171.865 282.712 172.198Z" fill="#FFB93E"/>
<path d="M243.743 177.994H201.228C200.943 177.994 200.675 177.928 200.438 177.811C199.936 177.565 199.579 177.09 199.522 176.537C199.519 176.513 199.517 176.489 199.516 176.465C199.515 176.437 199.514 176.41 199.514 176.382V172.198C199.514 172.171 199.515 172.143 199.516 172.115C199.562 171.267 200.315 170.586 201.228 170.586H238.522C239.102 172.707 240.43 175.619 243.482 177.812C243.567 177.873 243.655 177.934 243.743 177.994Z" fill="#FFA412"/>
<path d="M273.056 170.586H272.154V177.994H273.056V170.586Z" fill="#FFA412"/>
<path d="M270.004 170.586H269.102V177.994H270.004V170.586Z" fill="#FFA412"/>
<path d="M266.342 170.586H265.439V177.994H266.342V170.586Z" fill="#FFA412"/>
<path d="M260.73 170.586H259.828V177.994H260.73V170.586Z" fill="#FFA412"/>
<path d="M254.797 170.586H253.895V177.994H254.797V170.586Z" fill="#FFA412"/>
<path d="M245.697 170.586H244.795V177.994H245.697V170.586Z" fill="#FFA412"/>
<path d="M237.181 170.586H236.279V177.994H237.181V170.586Z" fill="#FFA412"/>
<path d="M229.574 170.586H228.672V177.994H229.574V170.586Z" fill="#FFA412"/>
<path d="M275.963 170.586H275.061V177.994H275.963V170.586Z" fill="#FFA412"/>
<path d="M277.882 170.586H276.98V177.994H277.882V170.586Z" fill="#FFA412"/>
<path d="M279.736 170.586H278.834V177.994H279.736V170.586Z" fill="#FFA412"/>
<path d="M281.13 170.612V177.969C281.02 177.986 280.908 177.994 280.792 177.994H280.229V170.586H280.792C280.908 170.586 281.02 170.595 281.13 170.612Z" fill="#FFA412"/>
<path d="M282.384 171.299V177.283C282.165 177.554 281.851 177.767 281.482 177.886V170.695C281.851 170.815 282.165 171.028 282.384 171.299Z" fill="#FFA412"/>
<path d="M284.612 164.79V168.974C284.612 169.307 284.491 169.616 284.283 169.874C284.064 170.145 283.75 170.358 283.382 170.477C283.269 170.515 283.151 170.543 283.031 170.56C282.92 170.577 282.808 170.586 282.692 170.586H203.334C202.311 170.586 201.468 169.905 201.416 169.057C201.415 169.029 201.414 169.001 201.414 168.974V164.79C201.414 164.762 201.415 164.735 201.416 164.707C201.464 163.922 202.189 163.281 203.107 163.189C203.181 163.181 203.256 163.178 203.334 163.178H282.692C282.808 163.178 282.92 163.187 283.031 163.204C283.151 163.221 283.269 163.249 283.382 163.286C283.75 163.406 284.064 163.619 284.283 163.89C284.491 164.147 284.612 164.456 284.612 164.79Z" fill="#FFB93E"/>
<path d="M245.643 170.586H203.128C202.215 170.586 201.463 169.905 201.416 169.057C201.415 169.029 201.414 169.001 201.414 168.974V164.79C201.414 164.762 201.415 164.735 201.416 164.707C201.459 163.923 202.106 163.281 202.925 163.189C202.991 163.181 203.059 163.178 203.128 163.178H240.422C240.423 163.181 240.425 163.186 240.425 163.189C241.023 165.368 242.411 168.378 245.643 170.586Z" fill="#FFA412"/>
<path d="M274.957 163.178H274.055V170.586H274.957V163.178Z" fill="#FFA412"/>
<path d="M271.904 163.178H271.002V170.586H271.904V163.178Z" fill="#FFA412"/>
<path d="M268.242 163.178H267.34V170.586H268.242V163.178Z" fill="#FFA412"/>
<path d="M262.629 163.178H261.727V170.586H262.629V163.178Z" fill="#FFA412"/>
<path d="M256.697 163.178H255.795V170.586H256.697V163.178Z" fill="#FFA412"/>
<path d="M247.599 163.178H246.697V170.586H247.599V163.178Z" fill="#FFA412"/>
<path d="M239.082 163.178H238.18V170.586H239.082V163.178Z" fill="#FFA412"/>
<path d="M231.474 163.178H230.572V170.586H231.474V163.178Z" fill="#FFA412"/>
<path d="M277.863 163.178H276.961V170.586H277.863V163.178Z" fill="#FFA412"/>
<path d="M279.781 163.178H278.879V170.586H279.781V163.178Z" fill="#FFA412"/>
<path d="M281.636 163.178H280.734V170.586H281.636V163.178Z" fill="#FFA412"/>
<path d="M283.031 163.203V170.56C282.921 170.577 282.808 170.586 282.692 170.586H282.129V163.178H282.692C282.808 163.178 282.921 163.187 283.031 163.203Z" fill="#FFA412"/>
<path d="M284.282 163.889V169.873C284.063 170.144 283.749 170.357 283.381 170.476V163.285C283.749 163.405 284.063 163.618 284.282 163.889Z" fill="#FFA412"/>
<path d="M278.776 157.394V161.577C278.776 161.911 278.655 162.22 278.447 162.478C278.228 162.748 277.914 162.962 277.546 163.081C277.433 163.118 277.315 163.146 277.194 163.164C277.157 163.169 277.12 163.175 277.083 163.178C277.063 163.18 277.042 163.182 277.02 163.183C277 163.185 276.979 163.186 276.958 163.187C276.924 163.189 276.89 163.19 276.856 163.19H197.498C196.475 163.19 195.632 162.509 195.58 161.66C195.579 161.633 195.578 161.605 195.578 161.578V157.394C195.578 157.366 195.579 157.339 195.58 157.311C195.581 157.288 195.584 157.265 195.586 157.243C195.662 156.56 196.252 155.997 197.025 155.831C197.044 155.827 197.064 155.823 197.083 155.819C197.217 155.795 197.356 155.781 197.499 155.781H276.856C276.915 155.781 276.972 155.784 277.028 155.787C277.054 155.79 277.079 155.792 277.105 155.794H277.106C277.136 155.798 277.165 155.803 277.195 155.807C277.316 155.825 277.434 155.852 277.547 155.89C277.915 156.009 278.229 156.222 278.448 156.493C278.655 156.751 278.776 157.06 278.776 157.394Z" fill="#FFB93E"/>
<path d="M239.807 163.189H197.292C196.38 163.189 195.627 162.509 195.58 161.66C195.579 161.632 195.578 161.605 195.578 161.577V157.394C195.578 157.366 195.579 157.338 195.58 157.311C195.581 157.287 195.584 157.265 195.586 157.243C195.655 156.545 196.203 155.973 196.916 155.822C196.94 155.815 196.964 155.811 196.989 155.807C197.088 155.79 197.188 155.781 197.292 155.781H234.587C234.591 155.799 234.596 155.816 234.601 155.834C235.203 158.007 236.591 160.986 239.79 163.178C239.796 163.181 239.802 163.186 239.807 163.189Z" fill="#FFA412"/>
<path d="M269.121 155.781H268.219V163.19H269.121V155.781Z" fill="#FFA412"/>
<path d="M266.068 155.781H265.166V163.19H266.068V155.781Z" fill="#FFA412"/>
<path d="M262.406 155.781H261.504V163.19H262.406V155.781Z" fill="#FFA412"/>
<path d="M256.793 155.781H255.891V163.19H256.793V155.781Z" fill="#FFA412"/>
<path d="M250.861 155.781H249.959V163.19H250.861V155.781Z" fill="#FFA412"/>
<path d="M241.763 155.781H240.861V163.19H241.763V155.781Z" fill="#FFA412"/>
<path d="M233.246 155.781H232.344V163.19H233.246V155.781Z" fill="#FFA412"/>
<path d="M225.638 155.781H224.736V163.19H225.638V155.781Z" fill="#FFA412"/>
<path d="M272.027 155.781H271.125V163.19H272.027V155.781Z" fill="#FFA412"/>
<path d="M273.945 155.781H273.043V163.19H273.945V155.781Z" fill="#FFA412"/>
<path d="M275.8 155.781H274.898V163.19H275.8V155.781Z" fill="#FFA412"/>
<path d="M277.195 155.807V163.164C277.085 163.181 276.972 163.19 276.856 163.19H276.293V155.781H276.856C276.972 155.781 277.084 155.79 277.195 155.807Z" fill="#FFA412"/>
<path d="M278.446 156.494V162.478C278.227 162.749 277.913 162.962 277.545 163.082V155.891C277.913 156.01 278.227 156.223 278.446 156.494Z" fill="#FFA412"/>
<path d="M278.61 150.038V154.222C278.61 154.555 278.489 154.864 278.281 155.122C278.063 155.393 277.749 155.606 277.38 155.725C277.292 155.755 277.2 155.778 277.106 155.795H277.104C277.079 155.8 277.054 155.805 277.029 155.808C276.919 155.825 276.806 155.834 276.69 155.834H197.332C197.249 155.834 197.165 155.829 197.084 155.82C197.052 155.817 197.02 155.813 196.99 155.807C196.127 155.676 195.46 155.056 195.414 154.305C195.413 154.277 195.412 154.249 195.412 154.222V150.038C195.412 150.01 195.413 149.983 195.414 149.955C195.466 149.107 196.309 148.426 197.332 148.426H276.69C276.741 148.426 276.792 148.428 276.842 148.431C276.863 148.433 276.885 148.435 276.907 148.436C276.93 148.438 276.955 148.441 276.978 148.444C276.995 148.446 277.012 148.449 277.029 148.451C277.15 148.469 277.268 148.497 277.38 148.534C277.397 148.539 277.413 148.545 277.43 148.551C277.446 148.556 277.463 148.563 277.479 148.569C277.512 148.582 277.544 148.595 277.576 148.608C277.611 148.624 277.646 148.64 277.68 148.658C277.711 148.673 277.74 148.689 277.77 148.706C277.804 148.726 277.837 148.746 277.869 148.768C277.894 148.784 277.919 148.801 277.943 148.818C277.944 148.82 277.946 148.82 277.947 148.822C277.963 148.834 277.98 148.846 277.996 148.859C278.045 148.896 278.092 148.937 278.135 148.979C278.149 148.991 278.161 149.004 278.173 149.017C278.186 149.03 278.198 149.042 278.21 149.056C278.235 149.082 278.259 149.11 278.281 149.138C278.489 149.395 278.61 149.705 278.61 150.038Z" fill="#FFB93E"/>
<path d="M239.641 155.834H197.127C197.093 155.834 197.059 155.833 197.026 155.832C196.989 155.83 196.953 155.826 196.916 155.822C196.099 155.727 195.457 155.087 195.414 154.305C195.413 154.277 195.412 154.249 195.412 154.222V150.038C195.412 150.01 195.413 149.983 195.414 149.955C195.461 149.107 196.213 148.426 197.127 148.426H234.419C234.436 148.486 234.453 148.547 234.471 148.609C235.089 150.755 236.47 153.636 239.565 155.782C239.591 155.8 239.616 155.817 239.641 155.834Z" fill="#FFA412"/>
<path d="M268.955 148.426H268.053V155.834H268.955V148.426Z" fill="#FFA412"/>
<path d="M265.902 148.426H265V155.834H265.902V148.426Z" fill="#FFA412"/>
<path d="M262.24 148.426H261.338V155.834H262.24V148.426Z" fill="#FFA412"/>
<path d="M256.627 148.426H255.725V155.834H256.627V148.426Z" fill="#FFA412"/>
<path d="M250.695 148.426H249.793V155.834H250.695V148.426Z" fill="#FFA412"/>
<path d="M241.597 148.426H240.695V155.834H241.597V148.426Z" fill="#FFA412"/>
<path d="M233.08 148.426H232.178V155.834H233.08V148.426Z" fill="#FFA412"/>
<path d="M225.472 148.426H224.57V155.834H225.472V148.426Z" fill="#FFA412"/>
<path d="M271.861 148.426H270.959V155.834H271.861V148.426Z" fill="#FFA412"/>
<path d="M273.779 148.426H272.877V155.834H273.779V148.426Z" fill="#FFA412"/>
<path d="M275.634 148.426H274.732V155.834H275.634V148.426Z" fill="#FFA412"/>
<path d="M277.029 148.451V155.808C276.919 155.825 276.806 155.834 276.691 155.834H276.127V148.426H276.691C276.806 148.426 276.919 148.435 277.029 148.451Z" fill="#FFA412"/>
<path d="M278.28 149.139V155.123C278.062 155.394 277.747 155.607 277.379 155.726V148.535C277.747 148.654 278.062 148.867 278.28 149.139Z" fill="#FFA412"/>
<path d="M282.712 142.811V146.995C282.712 147.328 282.591 147.638 282.383 147.895C282.164 148.166 281.85 148.38 281.481 148.499C281.369 148.536 281.251 148.564 281.13 148.582C281.02 148.599 280.907 148.607 280.792 148.607H201.434C201.115 148.607 200.814 148.541 200.548 148.425C199.987 148.178 199.586 147.704 199.522 147.15C199.519 147.126 199.517 147.102 199.516 147.078C199.515 147.05 199.514 147.023 199.514 146.995V142.811C199.514 142.784 199.515 142.756 199.516 142.729C199.568 141.88 200.41 141.199 201.434 141.199H280.792C280.907 141.199 281.02 141.208 281.13 141.225C281.251 141.243 281.369 141.27 281.482 141.308C281.85 141.427 282.164 141.64 282.383 141.911C282.591 142.169 282.712 142.478 282.712 142.811Z" fill="#FFB93E"/>
<path d="M243.743 148.607H201.228C200.943 148.607 200.675 148.541 200.438 148.425C199.936 148.178 199.579 147.704 199.522 147.15C199.519 147.126 199.517 147.102 199.516 147.078C199.515 147.05 199.514 147.023 199.514 146.995V142.811C199.514 142.784 199.515 142.756 199.516 142.729C199.562 141.88 200.315 141.199 201.228 141.199H238.522C239.102 143.321 240.43 146.232 243.482 148.425C243.567 148.486 243.655 148.547 243.743 148.607Z" fill="#FFA412"/>
<path d="M273.056 141.199H272.154V148.608H273.056V141.199Z" fill="#FFA412"/>
<path d="M270.004 141.199H269.102V148.608H270.004V141.199Z" fill="#FFA412"/>
<path d="M266.342 141.199H265.439V148.608H266.342V141.199Z" fill="#FFA412"/>
<path d="M260.73 141.199H259.828V148.608H260.73V141.199Z" fill="#FFA412"/>
<path d="M254.797 141.199H253.895V148.608H254.797V141.199Z" fill="#FFA412"/>
<path d="M245.697 141.199H244.795V148.608H245.697V141.199Z" fill="#FFA412"/>
<path d="M237.181 141.199H236.279V148.608H237.181V141.199Z" fill="#FFA412"/>
<path d="M229.574 141.199H228.672V148.608H229.574V141.199Z" fill="#FFA412"/>
<path d="M275.963 141.199H275.061V148.608H275.963V141.199Z" fill="#FFA412"/>
<path d="M277.882 141.199H276.98V148.608H277.882V141.199Z" fill="#FFA412"/>
<path d="M279.736 141.199H278.834V148.608H279.736V141.199Z" fill="#FFA412"/>
<path d="M281.13 141.225V148.582C281.02 148.599 280.908 148.608 280.792 148.608H280.229V141.199H280.792C280.908 141.199 281.02 141.208 281.13 141.225Z" fill="#FFA412"/>
<path d="M282.384 141.912V147.896C282.165 148.167 281.851 148.38 281.482 148.5V141.309C281.851 141.428 282.165 141.641 282.384 141.912Z" fill="#FFA412"/>
<path d="M289.196 135.405V139.589C289.196 139.922 289.075 140.232 288.867 140.489C288.649 140.76 288.334 140.973 287.966 141.093C287.854 141.13 287.736 141.158 287.615 141.175C287.505 141.192 287.392 141.201 287.276 141.201H207.918C206.895 141.201 206.052 140.521 206 139.672C205.999 139.644 205.998 139.616 205.998 139.589V135.405C205.998 135.378 205.999 135.35 206 135.322C206.048 134.538 206.773 133.896 207.691 133.805C207.765 133.797 207.842 133.793 207.918 133.793H287.276C287.392 133.793 287.505 133.802 287.615 133.819C287.736 133.836 287.854 133.864 287.966 133.902C288.334 134.021 288.649 134.234 288.867 134.505C289.075 134.763 289.196 135.072 289.196 135.405Z" fill="#FFB93E"/>
<path d="M250.227 141.201H207.712C206.8 141.201 206.047 140.521 206 139.672C205.999 139.644 205.998 139.616 205.998 139.589V135.405C205.998 135.378 205.999 135.35 206 135.322C206.043 134.538 206.69 133.896 207.509 133.805C207.575 133.797 207.643 133.793 207.712 133.793H245.006C245.007 133.797 245.008 133.801 245.01 133.805C245.607 135.985 246.995 138.994 250.227 141.201Z" fill="#FFA412"/>
<path d="M279.541 133.793H278.639V141.201H279.541V133.793Z" fill="#FFA412"/>
<path d="M276.488 133.793H275.586V141.201H276.488V133.793Z" fill="#FFA412"/>
<path d="M272.826 133.793H271.924V141.201H272.826V133.793Z" fill="#FFA412"/>
<path d="M267.212 133.793H266.311V141.201H267.212V133.793Z" fill="#FFA412"/>
<path d="M261.281 133.793H260.379V141.201H261.281V133.793Z" fill="#FFA412"/>
<path d="M252.181 133.793H251.279V141.201H252.181V133.793Z" fill="#FFA412"/>
<path d="M243.663 133.793H242.762V141.201H243.663V133.793Z" fill="#FFA412"/>
<path d="M236.058 133.793H235.156V141.201H236.058V133.793Z" fill="#FFA412"/>
<path d="M282.445 133.793H281.543V141.201H282.445V133.793Z" fill="#FFA412"/>
<path d="M284.365 133.793H283.463V141.201H284.365V133.793Z" fill="#FFA412"/>
<path d="M286.22 133.793H285.318V141.201H286.22V133.793Z" fill="#FFA412"/>
<path d="M287.615 133.819V141.176C287.505 141.193 287.392 141.202 287.276 141.202H286.713V133.793H287.276C287.392 133.793 287.505 133.802 287.615 133.819Z" fill="#FFA412"/>
<path d="M288.868 134.506V140.49C288.649 140.761 288.335 140.974 287.967 141.093V133.902C288.335 134.022 288.649 134.235 288.868 134.506Z" fill="#FFA412"/>
<path d="M278.776 128.006V132.19C278.776 132.524 278.655 132.833 278.447 133.091C278.229 133.362 277.914 133.575 277.546 133.694C277.434 133.732 277.316 133.759 277.195 133.777C277.158 133.782 277.12 133.788 277.083 133.791C277.054 133.795 277.024 133.797 276.994 133.798C276.979 133.799 276.964 133.8 276.949 133.801C276.919 133.802 276.888 133.803 276.856 133.803H197.498C196.475 133.803 195.632 133.122 195.58 132.273C195.579 132.246 195.578 132.218 195.578 132.191V128.007C195.578 127.979 195.579 127.952 195.58 127.924C195.633 127.076 196.475 126.395 197.498 126.395H276.856C276.89 126.395 276.924 126.396 276.958 126.397C277.039 126.401 277.117 126.409 277.195 126.421C277.316 126.438 277.434 126.466 277.546 126.503C277.603 126.522 277.66 126.543 277.713 126.566C277.746 126.58 277.78 126.594 277.812 126.61C277.815 126.611 277.819 126.613 277.822 126.616C277.855 126.632 277.887 126.649 277.919 126.666C277.925 126.669 277.93 126.672 277.935 126.675C277.964 126.691 277.993 126.709 278.02 126.728C278.088 126.771 278.152 126.817 278.212 126.868C278.231 126.883 278.249 126.899 278.266 126.915C278.269 126.918 278.272 126.92 278.275 126.924C278.287 126.934 278.298 126.943 278.308 126.954C278.311 126.956 278.313 126.958 278.315 126.96C278.334 126.979 278.353 126.999 278.371 127.019C278.397 127.048 278.423 127.076 278.447 127.106C278.655 127.364 278.776 127.673 278.776 128.006Z" fill="#FFB93E"/>
<path d="M239.807 133.803H197.292C196.38 133.803 195.627 133.122 195.58 132.273C195.579 132.246 195.578 132.218 195.578 132.191V128.007C195.578 127.979 195.579 127.952 195.58 127.924C195.627 127.076 196.38 126.395 197.292 126.395H234.587C234.601 126.451 234.617 126.508 234.635 126.566C235.254 128.727 236.649 131.638 239.79 133.791C239.796 133.795 239.802 133.8 239.807 133.803Z" fill="#FFA412"/>
<path d="M269.121 126.395H268.219V133.803H269.121V126.395Z" fill="#FFA412"/>
<path d="M266.068 126.395H265.166V133.803H266.068V126.395Z" fill="#FFA412"/>
<path d="M262.406 126.395H261.504V133.803H262.406V126.395Z" fill="#FFA412"/>
<path d="M256.793 126.395H255.891V133.803H256.793V126.395Z" fill="#FFA412"/>
<path d="M250.861 126.395H249.959V133.803H250.861V126.395Z" fill="#FFA412"/>
<path d="M241.761 126.395H240.859V133.803H241.761V126.395Z" fill="#FFA412"/>
<path d="M233.244 126.395H232.342V133.803H233.244V126.395Z" fill="#FFA412"/>
<path d="M225.638 126.395H224.736V133.803H225.638V126.395Z" fill="#FFA412"/>
<path d="M272.027 126.395H271.125V133.803H272.027V126.395Z" fill="#FFA412"/>
<path d="M273.945 126.395H273.043V133.803H273.945V126.395Z" fill="#FFA412"/>
<path d="M275.8 126.395H274.898V133.803H275.8V126.395Z" fill="#FFA412"/>
<path d="M277.195 126.42V133.777C277.085 133.794 276.972 133.803 276.856 133.803H276.293V126.395H276.856C276.972 126.395 277.084 126.403 277.195 126.42Z" fill="#FFA412"/>
<path d="M278.446 127.107V133.092C278.227 133.363 277.913 133.576 277.545 133.695V126.504C277.913 126.623 278.227 126.836 278.446 127.107Z" fill="#FFA412"/>
<path d="M284.612 120.769V124.952C284.612 125.286 284.491 125.595 284.283 125.853C284.064 126.124 283.75 126.337 283.382 126.456C283.269 126.493 283.151 126.521 283.031 126.539C282.92 126.556 282.808 126.565 282.692 126.565H203.334C203.026 126.565 202.734 126.503 202.476 126.393C201.898 126.15 201.484 125.666 201.421 125.101C201.419 125.08 201.417 125.058 201.416 125.035C201.415 125.008 201.414 124.98 201.414 124.952V120.769C201.414 120.741 201.415 120.714 201.416 120.686C201.464 119.9 202.189 119.26 203.107 119.168C203.181 119.16 203.256 119.156 203.334 119.156H282.692C282.808 119.156 282.92 119.165 283.031 119.182C283.151 119.2 283.269 119.228 283.382 119.265C283.75 119.384 284.064 119.597 284.283 119.868C284.491 120.126 284.612 120.435 284.612 120.769Z" fill="#FFB93E"/>
<path d="M245.643 126.565H203.128C202.853 126.565 202.593 126.503 202.363 126.393C201.846 126.15 201.478 125.666 201.421 125.101C201.419 125.08 201.417 125.058 201.416 125.035C201.415 125.008 201.414 124.98 201.414 124.952V120.769C201.414 120.741 201.415 120.714 201.416 120.686C201.459 119.902 202.106 119.26 202.925 119.168C202.991 119.16 203.059 119.156 203.128 119.156H240.422C240.423 119.16 240.425 119.164 240.425 119.168C241.007 121.292 242.341 124.204 245.399 126.394C245.478 126.451 245.56 126.508 245.643 126.565Z" fill="#FFA412"/>
<path d="M274.955 119.156H274.053V126.565H274.955V119.156Z" fill="#FFA412"/>
<path d="M271.902 119.156H271V126.565H271.902V119.156Z" fill="#FFA412"/>
<path d="M268.24 119.156H267.338V126.565H268.24V119.156Z" fill="#FFA412"/>
<path d="M262.627 119.156H261.725V126.565H262.627V119.156Z" fill="#FFA412"/>
<path d="M256.695 119.156H255.793V126.565H256.695V119.156Z" fill="#FFA412"/>
<path d="M247.595 119.156H246.693V126.565H247.595V119.156Z" fill="#FFA412"/>
<path d="M239.078 119.156H238.176V126.565H239.078V119.156Z" fill="#FFA412"/>
<path d="M231.472 119.156H230.57V126.565H231.472V119.156Z" fill="#FFA412"/>
<path d="M277.861 119.156H276.959V126.565H277.861V119.156Z" fill="#FFA412"/>
<path d="M279.779 119.156H278.877V126.565H279.779V119.156Z" fill="#FFA412"/>
<path d="M281.634 119.156H280.732V126.565H281.634V119.156Z" fill="#FFA412"/>
<path d="M283.029 119.182V126.539C282.919 126.556 282.806 126.565 282.69 126.565H282.127V119.156H282.69C282.806 119.156 282.919 119.165 283.029 119.182Z" fill="#FFA412"/>
<path d="M284.28 119.869V125.853C284.061 126.124 283.747 126.337 283.379 126.457V119.266C283.747 119.385 284.061 119.598 284.28 119.869Z" fill="#FFA412"/>
<path d="M287.095 113.372V117.556C287.095 117.889 286.973 118.198 286.765 118.456C286.547 118.727 286.232 118.94 285.864 119.059C285.752 119.097 285.634 119.124 285.513 119.142C285.476 119.147 285.439 119.153 285.402 119.156C285.381 119.158 285.36 119.16 285.339 119.162C285.319 119.164 285.297 119.165 285.276 119.166C285.243 119.167 285.208 119.168 285.175 119.168H205.816C204.793 119.168 203.95 118.487 203.899 117.639C203.898 117.611 203.896 117.583 203.896 117.556V113.372C203.896 113.344 203.898 113.317 203.899 113.289C203.95 112.441 204.793 111.76 205.816 111.76H285.175C285.29 111.76 285.403 111.769 285.513 111.786C285.634 111.804 285.752 111.831 285.865 111.868C286.233 111.988 286.547 112.201 286.766 112.472C286.973 112.729 287.095 113.039 287.095 113.372Z" fill="#FFB93E"/>
<path d="M248.126 119.168H205.611C204.698 119.168 203.945 118.487 203.899 117.639C203.898 117.611 203.896 117.583 203.896 117.556V113.372C203.896 113.344 203.898 113.317 203.899 113.289C203.945 112.441 204.698 111.76 205.611 111.76H242.905C243.499 113.937 244.883 116.946 248.109 119.157C248.114 119.16 248.12 119.165 248.126 119.168Z" fill="#FFA412"/>
<path d="M277.437 111.76H276.535V119.168H277.437V111.76Z" fill="#FFA412"/>
<path d="M274.384 111.76H273.482V119.168H274.384V111.76Z" fill="#FFA412"/>
<path d="M270.722 111.76H269.82V119.168H270.722V111.76Z" fill="#FFA412"/>
<path d="M265.109 111.76H264.207V119.168H265.109V111.76Z" fill="#FFA412"/>
<path d="M259.177 111.76H258.275V119.168H259.177V111.76Z" fill="#FFA412"/>
<path d="M250.08 111.76H249.178V119.168H250.08V111.76Z" fill="#FFA412"/>
<path d="M241.562 111.76H240.66V119.168H241.562V111.76Z" fill="#FFA412"/>
<path d="M233.955 111.76H233.053V119.168H233.955V111.76Z" fill="#FFA412"/>
<path d="M280.343 111.76H279.441V119.168H280.343V111.76Z" fill="#FFA412"/>
<path d="M282.261 111.76H281.359V119.168H282.261V111.76Z" fill="#FFA412"/>
<path d="M284.117 111.76H283.215V119.168H284.117V111.76Z" fill="#FFA412"/>
<path d="M285.512 111.786V119.143C285.401 119.159 285.289 119.168 285.173 119.168H284.609V111.76H285.173C285.289 111.76 285.401 111.769 285.512 111.786Z" fill="#FFA412"/>
<path d="M286.764 112.472V118.457C286.546 118.728 286.232 118.941 285.863 119.06V111.869C286.232 111.989 286.546 112.201 286.764 112.472Z" fill="#FFA412"/>
<path d="M278.776 106.088V110.272C278.776 110.606 278.655 110.915 278.447 111.173C278.229 111.443 277.914 111.657 277.546 111.776C277.434 111.814 277.316 111.841 277.195 111.859C277.158 111.864 277.12 111.87 277.083 111.873C277.054 111.877 277.024 111.878 276.994 111.88C276.979 111.881 276.964 111.882 276.949 111.883C276.919 111.884 276.888 111.885 276.856 111.885H197.498C196.475 111.885 195.632 111.204 195.58 110.355C195.579 110.328 195.578 110.3 195.578 110.273V106.089C195.578 106.061 195.579 106.034 195.58 106.006C195.633 105.158 196.475 104.477 197.498 104.477H276.856C276.89 104.477 276.924 104.477 276.958 104.479C277.039 104.483 277.117 104.491 277.195 104.503C277.316 104.52 277.434 104.548 277.546 104.585C277.603 104.604 277.66 104.625 277.713 104.648C277.746 104.662 277.78 104.676 277.812 104.692C277.815 104.693 277.819 104.695 277.822 104.697C277.855 104.714 277.887 104.731 277.919 104.748C277.925 104.751 277.93 104.754 277.935 104.757C277.964 104.773 277.993 104.791 278.02 104.81C278.088 104.852 278.152 104.899 278.212 104.95C278.231 104.965 278.249 104.981 278.266 104.997C278.269 105 278.272 105.002 278.275 105.006C278.287 105.015 278.298 105.025 278.308 105.036C278.311 105.038 278.313 105.041 278.315 105.042C278.334 105.061 278.353 105.081 278.371 105.101C278.397 105.13 278.423 105.158 278.447 105.188C278.655 105.446 278.776 105.755 278.776 106.088Z" fill="#FFB93E"/>
<path d="M239.807 111.885H197.292C196.38 111.885 195.627 111.204 195.58 110.355C195.579 110.328 195.578 110.3 195.578 110.273V106.089C195.578 106.061 195.579 106.034 195.58 106.006C195.627 105.158 196.38 104.477 197.292 104.477H234.587C234.601 104.533 234.617 104.59 234.635 104.648C235.254 106.809 236.649 109.72 239.79 111.873C239.796 111.877 239.802 111.882 239.807 111.885Z" fill="#FFA412"/>
<path d="M269.121 104.477H268.219V111.885H269.121V104.477Z" fill="#FFA412"/>
<path d="M266.068 104.477H265.166V111.885H266.068V104.477Z" fill="#FFA412"/>
<path d="M262.406 104.477H261.504V111.885H262.406V104.477Z" fill="#FFA412"/>
<path d="M256.793 104.477H255.891V111.885H256.793V104.477Z" fill="#FFA412"/>
<path d="M250.861 104.477H249.959V111.885H250.861V104.477Z" fill="#FFA412"/>
<path d="M241.761 104.477H240.859V111.885H241.761V104.477Z" fill="#FFA412"/>
<path d="M233.244 104.477H232.342V111.885H233.244V104.477Z" fill="#FFA412"/>
<path d="M225.638 104.477H224.736V111.885H225.638V104.477Z" fill="#FFA412"/>
<path d="M272.027 104.477H271.125V111.885H272.027V104.477Z" fill="#FFA412"/>
<path d="M273.945 104.477H273.043V111.885H273.945V104.477Z" fill="#FFA412"/>
<path d="M275.8 104.477H274.898V111.885H275.8V104.477Z" fill="#FFA412"/>
<path d="M277.195 104.502V111.859C277.085 111.876 276.972 111.885 276.856 111.885H276.293V104.477H276.856C276.972 104.476 277.084 104.485 277.195 104.502Z" fill="#FFA412"/>
<path d="M278.446 105.189V111.174C278.227 111.444 277.913 111.658 277.545 111.777V104.586C277.913 104.705 278.227 104.918 278.446 105.189Z" fill="#FFA412"/>
<path d="M284.612 98.8507V103.034C284.612 103.368 284.491 103.677 284.283 103.935C284.064 104.206 283.75 104.419 283.382 104.538C283.269 104.575 283.151 104.603 283.031 104.621C282.92 104.638 282.808 104.647 282.692 104.647H203.334C203.026 104.647 202.734 104.585 202.476 104.475C201.898 104.232 201.484 103.748 201.421 103.183C201.419 103.162 201.417 103.14 201.416 103.117C201.415 103.089 201.414 103.062 201.414 103.034V98.8507C201.414 98.823 201.415 98.7953 201.416 98.7676C201.464 97.9824 202.189 97.3417 203.107 97.2501C203.181 97.2421 203.256 97.2383 203.334 97.2383H282.692C282.808 97.2383 282.92 97.2474 283.031 97.2641C283.151 97.2821 283.269 97.3097 283.382 97.3469C283.75 97.4665 284.064 97.6794 284.283 97.9505C284.491 98.2079 284.612 98.5173 284.612 98.8507Z" fill="#FFB93E"/>
<path d="M245.643 104.647H203.128C202.853 104.647 202.593 104.585 202.363 104.475C201.846 104.232 201.478 103.748 201.421 103.183C201.419 103.162 201.417 103.14 201.416 103.117C201.415 103.089 201.414 103.062 201.414 103.034V98.8507C201.414 98.823 201.415 98.7953 201.416 98.7676C201.459 97.9833 202.106 97.3417 202.925 97.2501C202.991 97.2421 203.059 97.2383 203.128 97.2383H240.422C240.423 97.2421 240.425 97.2464 240.425 97.2501C241.007 99.3739 242.341 102.286 245.399 104.476C245.478 104.533 245.56 104.59 245.643 104.647Z" fill="#FFA412"/>
<path d="M274.955 97.2383H274.053V104.647H274.955V97.2383Z" fill="#FFA412"/>
<path d="M271.902 97.2383H271V104.647H271.902V97.2383Z" fill="#FFA412"/>
<path d="M268.24 97.2383H267.338V104.647H268.24V97.2383Z" fill="#FFA412"/>
<path d="M262.627 97.2383H261.725V104.647H262.627V97.2383Z" fill="#FFA412"/>
<path d="M256.695 97.2383H255.793V104.647H256.695V97.2383Z" fill="#FFA412"/>
<path d="M247.595 97.2383H246.693V104.647H247.595V97.2383Z" fill="#FFA412"/>
<path d="M239.078 97.2383H238.176V104.647H239.078V97.2383Z" fill="#FFA412"/>
<path d="M231.472 97.2383H230.57V104.647H231.472V97.2383Z" fill="#FFA412"/>
<path d="M277.861 97.2383H276.959V104.647H277.861V97.2383Z" fill="#FFA412"/>
<path d="M279.779 97.2383H278.877V104.647H279.779V97.2383Z" fill="#FFA412"/>
<path d="M281.634 97.2383H280.732V104.647H281.634V97.2383Z" fill="#FFA412"/>
<path d="M283.029 97.2641V104.621C282.919 104.638 282.806 104.647 282.69 104.647H282.127V97.2383H282.69C282.806 97.2381 282.919 97.2469 283.029 97.2641Z" fill="#FFA412"/>
<path d="M284.28 97.9507V103.935C284.061 104.206 283.747 104.419 283.379 104.539V97.3477C283.747 97.4667 284.061 97.6799 284.28 97.9507Z" fill="#FFA412"/>
<path d="M287.095 91.4537V95.6376C287.095 95.971 286.973 96.2802 286.765 96.5379C286.547 96.8089 286.232 97.0218 285.864 97.1411C285.752 97.1788 285.634 97.2065 285.513 97.2242C285.476 97.2294 285.439 97.2348 285.402 97.2385C285.381 97.2403 285.36 97.2423 285.339 97.2439C285.319 97.2457 285.297 97.2466 285.276 97.2475C285.243 97.2491 285.208 97.2503 285.175 97.2503H205.816C204.793 97.2503 203.95 96.5694 203.899 95.7207C203.898 95.693 203.896 95.6653 203.896 95.6379V91.454C203.896 91.4265 203.898 91.3988 203.899 91.3712C203.95 90.5229 204.793 89.8418 205.816 89.8418H285.175C285.29 89.8418 285.403 89.8506 285.513 89.8677C285.634 89.8853 285.752 89.9128 285.865 89.9504C286.233 90.07 286.547 90.2829 286.766 90.554C286.973 90.8112 287.095 91.1208 287.095 91.4537Z" fill="#FFB93E"/>
<path d="M248.126 97.2503H205.611C204.698 97.2503 203.945 96.5694 203.899 95.7207C203.898 95.693 203.896 95.6653 203.896 95.6379V91.454C203.896 91.4265 203.898 91.3988 203.899 91.3712C203.945 90.5229 204.698 89.8418 205.611 89.8418H242.905C243.499 92.0194 244.883 95.0284 248.109 97.2387C248.114 97.2423 248.12 97.2466 248.126 97.2503Z" fill="#FFA412"/>
<path d="M277.437 89.8418H276.535V97.2503H277.437V89.8418Z" fill="#FFA412"/>
<path d="M274.384 89.8418H273.482V97.2503H274.384V89.8418Z" fill="#FFA412"/>
<path d="M270.722 89.8418H269.82V97.2503H270.722V89.8418Z" fill="#FFA412"/>
<path d="M265.109 89.8418H264.207V97.2503H265.109V89.8418Z" fill="#FFA412"/>
<path d="M259.177 89.8418H258.275V97.2503H259.177V89.8418Z" fill="#FFA412"/>
<path d="M250.08 89.8418H249.178V97.2503H250.08V89.8418Z" fill="#FFA412"/>
<path d="M241.562 89.8418H240.66V97.2503H241.562V89.8418Z" fill="#FFA412"/>
<path d="M233.955 89.8418H233.053V97.2505H233.955V89.8418Z" fill="#FFA412"/>
<path d="M280.343 89.8418H279.441V97.2503H280.343V89.8418Z" fill="#FFA412"/>
<path d="M282.261 89.8418H281.359V97.2503H282.261V89.8418Z" fill="#FFA412"/>
<path d="M284.117 89.8418H283.215V97.2503H284.117V89.8418Z" fill="#FFA412"/>
<path d="M285.512 89.8677V97.2246C285.401 97.2414 285.289 97.2505 285.173 97.2505H284.609V89.8418H285.173C285.289 89.8418 285.401 89.8509 285.512 89.8677Z" fill="#FFA412"/>
<path d="M286.764 90.5545V96.5388C286.546 96.8094 286.232 97.0228 285.863 97.1421V89.9512C286.232 90.0705 286.546 90.2832 286.764 90.5545Z" fill="#FFA412"/>
<path d="M238.676 181.602C253.405 166.873 253.405 142.993 238.676 128.265C223.948 113.536 200.068 113.536 185.339 128.265C170.61 142.994 170.61 166.874 185.339 181.602C200.067 196.331 223.947 196.331 238.676 181.602Z" fill="#E2810E"/>
<path d="M235.385 181.602C250.114 166.873 250.114 142.993 235.385 128.265C220.657 113.536 196.777 113.536 182.048 128.265C167.319 142.994 167.319 166.874 182.048 181.602C196.776 196.331 220.656 196.331 235.385 181.602Z" fill="#FFB93E"/>
<path d="M208.723 189.742C199.544 189.742 190.914 186.167 184.424 179.677C177.934 173.187 174.359 164.557 174.359 155.379C174.359 146.2 177.934 137.571 184.424 131.081C190.914 124.59 199.544 121.016 208.723 121.016C217.901 121.016 226.531 124.59 233.021 131.081C239.511 137.571 243.086 146.2 243.086 155.379C243.086 164.557 239.511 173.187 233.021 179.677C226.531 186.167 217.901 189.742 208.723 189.742ZM208.723 123.066C190.905 123.066 176.409 137.561 176.409 155.379C176.409 173.197 190.905 187.692 208.723 187.692C226.54 187.692 241.036 173.197 241.036 155.379C241.036 137.561 226.54 123.066 208.723 123.066Z" fill="#FFA412"/>
<path d="M213.453 165.351C213.541 164.61 213.514 163.945 213.372 163.356C213.23 162.766 212.948 162.214 212.528 161.699C212.108 161.184 211.545 160.688 210.841 160.21C210.136 159.733 209.265 159.245 208.227 158.746C206.442 157.872 204.833 156.987 203.399 156.093C201.963 155.198 200.76 154.219 199.789 153.155C198.817 152.092 198.106 150.898 197.657 149.574C197.207 148.251 197.085 146.724 197.29 144.995C197.467 143.495 197.896 142.159 198.574 140.987C199.252 139.815 200.14 138.829 201.236 138.029C202.333 137.228 203.604 136.623 205.049 136.213C206.494 135.803 208.081 135.62 209.81 135.664L210.482 130L215.04 130.541L214.359 136.284C215.967 136.69 217.397 137.298 218.65 138.108C219.901 138.919 220.931 139.9 221.739 141.051C222.545 142.203 223.117 143.519 223.452 144.999C223.787 146.479 223.849 148.102 223.64 149.865L215.406 148.889C215.657 146.771 215.375 145.132 214.559 143.97C213.743 142.809 212.547 142.134 210.971 141.948C210.116 141.846 209.366 141.878 208.72 142.043C208.074 142.207 207.528 142.474 207.08 142.841C206.632 143.209 206.279 143.663 206.022 144.206C205.765 144.748 205.598 145.345 205.521 145.998C205.443 146.651 205.468 147.253 205.595 147.805C205.722 148.357 205.992 148.885 206.404 149.391C206.815 149.896 207.383 150.392 208.105 150.881C208.827 151.369 209.733 151.892 210.822 152.451C212.583 153.358 214.176 154.263 215.6 155.165C217.024 156.068 218.222 157.055 219.193 158.128C220.163 159.2 220.873 160.399 221.323 161.722C221.773 163.047 221.896 164.564 221.693 166.275C221.509 167.828 221.073 169.19 220.385 170.36C219.697 171.532 218.805 172.509 217.711 173.291C216.617 174.074 215.339 174.656 213.878 175.037C212.417 175.418 210.822 175.587 209.094 175.543L208.469 180.81L203.939 180.272L204.561 175.032C203.002 174.686 201.519 174.161 200.11 173.457C198.701 172.753 197.485 171.836 196.464 170.703C195.443 169.571 194.68 168.206 194.176 166.607C193.672 165.008 193.546 163.15 193.797 161.033L202.032 162.01C201.883 163.263 201.934 164.33 202.187 165.209C202.438 166.089 202.829 166.815 203.358 167.388C203.887 167.961 204.515 168.393 205.241 168.685C205.968 168.977 206.72 169.169 207.499 169.261C208.392 169.367 209.189 169.346 209.89 169.196C210.592 169.047 211.195 168.796 211.699 168.444C212.203 168.093 212.602 167.652 212.896 167.123C213.19 166.595 213.375 166.004 213.453 165.351Z" fill="#FFA412"/>
<path d="M199.628 82.8223C202.703 88.1747 206.571 90.2405 206.571 90.2405H222.662C222.662 90.2405 197.282 78.7389 199.628 82.8223Z" fill="#DE774B"/>
<path d="M211.984 124.236C212.404 124.716 212.457 125.253 212.249 125.827C212.249 125.829 212.248 125.833 212.245 125.835C211.862 126.895 210.594 128.08 209.121 129.262C208.933 129.414 208.765 129.552 208.619 129.68C208.581 129.714 208.543 129.748 208.507 129.781C208.477 129.807 208.448 129.835 208.42 129.86C207.047 131.126 207.564 131.416 205.096 133.985C202.283 136.912 200.345 136.965 199.795 136.698C199.328 136.471 200.275 134.918 201.325 133.173C201.376 133.089 201.426 133.004 201.478 132.919C201.618 132.687 201.757 132.451 201.895 132.218C203.125 130.118 202.81 129.133 202.518 126.007C202.281 123.467 198.566 111.817 198.566 111.817L203.958 110.889C203.958 110.889 205.582 120.165 207.371 121.594C208.328 122.355 209.398 122.365 210.318 122.929C210.383 122.969 210.447 123.009 210.509 123.05C211.032 123.396 211.564 123.754 211.984 124.236Z" fill="#FFB27D"/>
<path d="M211.986 124.236C212.405 124.716 212.459 125.254 212.251 125.827C212.251 125.829 212.249 125.833 212.247 125.835C211.777 126.895 210.541 128.073 209.117 129.252C208.931 129.406 208.767 129.548 208.621 129.681C208.582 129.714 208.544 129.748 208.508 129.782C208.479 129.808 208.45 129.835 208.422 129.86C207.048 131.126 207.565 131.416 205.098 133.985C202.284 136.913 200.347 136.965 199.796 136.699C199.33 136.471 200.277 134.919 201.326 133.174C201.874 132.973 204.418 131.94 206.342 129.478C208.036 127.316 209.166 124.539 210.319 122.93C210.384 122.969 210.448 123.009 210.511 123.051C211.033 123.396 211.565 123.754 211.986 124.236Z" fill="#375592"/>
<path d="M168.51 120.867C168.177 122.531 165.805 122.253 163.155 121.606C160.504 120.958 161.134 121.728 157.362 121.31C153.59 120.893 152.447 119.486 152.332 118.925C152.229 118.428 154.093 118.252 156.092 118.022C156.343 117.994 156.596 117.963 156.849 117.931C159.106 117.648 160.759 116.192 162.809 114.995C164.751 113.863 167.649 109.246 167.649 109.246L172.822 109.656C172.822 109.656 170.108 113.779 169.058 115.572C168.44 116.626 168.473 118.021 168.55 119.097C168.59 119.682 168.628 120.281 168.51 120.867Z" fill="#FFB27D"/>
<path d="M163.155 121.607C160.504 120.96 161.134 121.73 157.362 121.312C153.59 120.894 152.447 119.488 152.332 118.927C152.229 118.429 154.093 118.254 156.092 118.023L156.111 118.062C156.111 118.062 158.373 119.666 161.513 119.741C164.072 119.803 166.782 119.07 168.55 119.099C168.59 119.684 168.628 120.282 168.51 120.868C168.177 122.533 165.805 122.255 163.155 121.607Z" fill="#375592"/>
<path d="M188.336 87.7889L193.172 100.802L199.485 117.793C199.485 117.793 201.199 117.959 202.84 117.486C204.35 117.05 206.083 115.907 206.083 115.907C206.083 115.907 204.33 97.6636 201.06 87.191C200.222 84.5029 199.283 82.3285 198.246 81.1046C193.176 75.1131 188.336 87.7889 188.336 87.7889Z" fill="#DE774B"/>
<path d="M232.433 75.6502C232.433 75.6502 200.396 64.8179 193.252 67.1225C186.107 69.4273 164.654 112.108 164.654 112.108C164.654 112.108 165.138 112.752 166.46 113.247C167.689 113.709 170.665 113.679 170.665 113.679C170.665 113.679 190.025 97.0845 192.33 92.2444C194.635 87.4043 195.556 82.7949 197.861 83.2558C199.269 83.5375 210.154 90.2401 219.905 90.2401C223.694 90.2401 234.018 90.2401 234.018 90.2401C240.119 83.6715 238.411 73.2579 238.411 73.2579L232.433 75.6502Z" fill="#DE774B"/>
<path d="M210.884 27.9665C210.293 26.9529 209.577 25.1268 209.038 21.8141C209.107 22.1418 210.009 26.3026 211.811 28.5573C218.793 32.4015 232.658 45.9727 232.621 48.7518C232.621 48.7518 236.513 40.7967 236.587 40.745C236.587 40.745 244.041 29.582 233.768 24.3192C228.547 21.644 228.266 17.7118 228.208 14.2814C228.153 10.8502 225.44 -3.72559 215.757 0.897208C215.757 0.897208 214.1 0.310213 213.391 0.472608C213.391 0.472608 213.986 0.53907 214.308 0.823714C213.145 0.845261 211.497 1.05958 210.178 1.95184C206.68 4.31586 204.857 23.2269 210.884 27.9665Z" fill="#543616"/>
<path d="M214.726 28.1539C214.696 28.1737 218.161 29.3569 220.479 28.3306C222.659 27.3669 224.311 23.78 224.278 23.7784C223.286 23.7326 222.198 22.8655 221.359 17.1758L220.937 17.3273L213.836 19.8825C213.836 19.8825 214.351 22.161 214.683 24.3302C214.964 26.1512 215.114 27.8961 214.726 28.1539Z" fill="#E1987D"/>
<path d="M213.836 19.8833C213.836 19.8833 214.351 22.1618 214.683 24.331C218.762 23.5969 220.362 19.5334 220.937 17.3281L213.836 19.8833Z" fill="#E1987D"/>
<path d="M222.65 15.5521C222.65 15.5521 224.82 12.1221 225.341 9.18907C225.714 7.09518 224.647 -0.666637 216.847 0.451298C216.847 0.451298 214.582 0.674471 212.452 2.11243C210.759 3.25622 208.315 5.7255 211.048 12.4987L211.758 14.7867L222.65 15.5521Z" fill="#543616"/>
<path d="M212.779 22.1435C212.779 22.1435 222.494 20.8396 221.589 14.802C220.684 8.76438 221.328 4.52988 215.087 5.10733C208.846 5.68433 207.989 8.16854 207.801 10.2572C207.613 12.3459 210.228 22.327 212.779 22.1435Z" fill="#E1987D"/>
<path d="M210.65 5.62745C210.65 5.62745 214.373 12.3087 218.604 12.7408C222.834 13.1726 224.436 11.8148 224.436 11.8148C224.436 11.8148 220.937 9.80547 219.635 5.57211C219.635 5.57211 212.143 1.9543 210.65 5.62745Z" fill="#543616"/>
<path d="M211.394 6.1008C211.394 6.1008 209.651 7.98126 209.4 9.59159C209.149 11.2017 209.41 14.399 208.472 14.4308C208.472 14.4308 205.745 9.91889 207.58 6.85653C209.527 3.60933 211.394 6.1008 211.394 6.1008Z" fill="#543616"/>
<path d="M239.948 75.8193C239.42 77.2868 237.798 77.6649 235.626 77.4097C231.483 76.9257 225.329 74.1446 220.895 72.2206C214.133 69.2902 211.06 72.0439 208.909 70.1784C206.758 68.3129 211.368 64.1657 207.372 44.9077C206.017 38.377 214.684 24.3297 214.684 24.3297C214.684 24.3297 215.346 28.429 223.56 23.5533C223.851 23.3814 227.084 28.1693 230.199 34.0715C233.631 40.5834 236.92 48.4495 235.953 52.5031C234.109 60.2304 241.485 71.5551 239.948 75.8193Z" fill="#375592"/>
<path d="M239.949 75.8186C239.421 77.286 237.799 77.6641 235.626 77.4089C232.759 76.1597 220.373 71.3609 220.511 68.1094C220.717 63.2952 222.893 63.1416 221.356 57.1995C220.122 52.4286 231.567 43.5572 233.392 41.6289C236.825 48.141 236.92 48.4488 235.953 52.5023C234.11 60.2296 241.485 71.5544 239.949 75.8186Z" fill="#375592"/>
<path d="M193.172 100.802L199.485 117.793C199.485 117.793 201.199 117.959 202.84 117.487C204.35 117.05 206.083 115.908 206.083 115.908C206.083 115.908 204.33 97.664 201.06 87.1914L193.172 100.802Z" fill="#DE774B"/>
<path d="M214.684 24.3301C214.684 24.3301 206.233 25.7628 205.24 29.4015C204.248 33.0402 198.408 54.4306 198.408 54.4306C198.408 54.4306 202.704 55.2023 204.689 53.2177C206.674 51.2331 211.595 34.8038 211.595 34.8038L214.684 24.3301Z" fill="#375592"/>
<path d="M223.561 23.5547C223.561 23.5547 231.549 24.0466 234.314 27.9035C238.207 33.3328 245.929 56.4711 241.503 59.5575C236.519 63.0326 218.82 60.4665 218.82 60.4665C218.82 60.4665 218.231 57.7135 219.051 56.3819C219.87 55.0501 233.187 52.8988 233.802 52.2844C234.417 51.6698 226.119 40.2988 226.119 38.4548C226.119 36.6109 223.561 23.5547 223.561 23.5547Z" fill="#375592"/>
<path d="M223.234 67.3106H189.121L182.971 45.8652H217.031L223.234 67.3106Z" fill="#D9D9D9"/>
<path d="M233.835 66.4746H189.238V67.3102H233.835V66.4746Z" fill="#D9D9D9"/>
<path d="M199.952 56.2399C199.736 55.486 200.172 54.875 200.925 54.875C201.679 54.875 202.466 55.486 202.682 56.2399C202.898 56.9936 202.462 57.6049 201.708 57.6049C200.955 57.6049 200.168 56.9936 199.952 56.2399Z" fill="#E0C2A1"/>
<path d="M11.5234 111.541V114.922C11.3906 115.082 11.1855 115.256 10.9082 115.443C10.6309 115.627 10.2734 115.785 9.83594 115.918C9.39844 116.051 8.86914 116.117 8.24805 116.117C7.69727 116.117 7.19531 116.027 6.74219 115.848C6.28906 115.664 5.89844 115.396 5.57031 115.045C5.24609 114.693 4.99609 114.264 4.82031 113.756C4.64453 113.244 4.55664 112.66 4.55664 112.004V111.471C4.55664 110.814 4.64062 110.23 4.80859 109.719C4.98047 109.207 5.22461 108.775 5.54102 108.424C5.85742 108.072 6.23438 107.805 6.67188 107.621C7.10938 107.438 7.5957 107.346 8.13086 107.346C8.87305 107.346 9.48242 107.467 9.95898 107.709C10.4355 107.947 10.7988 108.279 11.0488 108.705C11.3027 109.127 11.459 109.611 11.5176 110.158H9.8125C9.76953 109.869 9.6875 109.617 9.56641 109.402C9.44531 109.188 9.27148 109.02 9.04492 108.898C8.82227 108.777 8.5332 108.717 8.17773 108.717C7.88477 108.717 7.62305 108.777 7.39258 108.898C7.16602 109.016 6.97461 109.189 6.81836 109.42C6.66211 109.65 6.54297 109.936 6.46094 110.275C6.37891 110.615 6.33789 111.01 6.33789 111.459V112.004C6.33789 112.449 6.38086 112.844 6.4668 113.188C6.55273 113.527 6.67969 113.814 6.84766 114.049C7.01953 114.279 7.23047 114.453 7.48047 114.57C7.73047 114.688 8.02148 114.746 8.35352 114.746C8.63086 114.746 8.86133 114.723 9.04492 114.676C9.23242 114.629 9.38281 114.572 9.49609 114.506C9.61328 114.436 9.70312 114.369 9.76562 114.307V112.795H8.16016V111.541H11.5234ZM14.5234 111.043V116H12.8359V109.66H14.4238L14.5234 111.043ZM16.4336 109.619L16.4043 111.184C16.3223 111.172 16.2227 111.162 16.1055 111.154C15.9922 111.143 15.8887 111.137 15.7949 111.137C15.5566 111.137 15.3496 111.168 15.1738 111.23C15.002 111.289 14.8574 111.377 14.7402 111.494C14.627 111.611 14.541 111.754 14.4824 111.922C14.4277 112.09 14.3965 112.281 14.3887 112.496L14.0488 112.391C14.0488 111.98 14.0898 111.604 14.1719 111.26C14.2539 110.912 14.373 110.609 14.5293 110.352C14.6895 110.094 14.8848 109.895 15.1152 109.754C15.3457 109.613 15.6094 109.543 15.9062 109.543C16 109.543 16.0957 109.551 16.1934 109.566C16.291 109.578 16.3711 109.596 16.4336 109.619ZM20.0312 116.117C19.5391 116.117 19.0977 116.039 18.707 115.883C18.3164 115.723 17.9844 115.502 17.7109 115.221C17.4414 114.939 17.2344 114.613 17.0898 114.242C16.9453 113.867 16.873 113.469 16.873 113.047V112.812C16.873 112.332 16.9414 111.893 17.0781 111.494C17.2148 111.096 17.4102 110.75 17.6641 110.457C17.9219 110.164 18.2344 109.939 18.6016 109.783C18.9688 109.623 19.3828 109.543 19.8438 109.543C20.293 109.543 20.6914 109.617 21.0391 109.766C21.3867 109.914 21.6777 110.125 21.9121 110.398C22.1504 110.672 22.3301 111 22.4512 111.383C22.5723 111.762 22.6328 112.184 22.6328 112.648V113.352H17.5938V112.227H20.9746V112.098C20.9746 111.863 20.9316 111.654 20.8457 111.471C20.7637 111.283 20.6387 111.135 20.4707 111.025C20.3027 110.916 20.0879 110.861 19.8262 110.861C19.6035 110.861 19.4121 110.91 19.252 111.008C19.0918 111.105 18.9609 111.242 18.8594 111.418C18.7617 111.594 18.6875 111.801 18.6367 112.039C18.5898 112.273 18.5664 112.531 18.5664 112.812V113.047C18.5664 113.301 18.6016 113.535 18.6719 113.75C18.7461 113.965 18.8496 114.15 18.9824 114.307C19.1191 114.463 19.2832 114.584 19.4746 114.67C19.6699 114.756 19.8906 114.799 20.1367 114.799C20.4414 114.799 20.7246 114.74 20.9863 114.623C21.252 114.502 21.4805 114.32 21.6719 114.078L22.4922 114.969C22.3594 115.16 22.1777 115.344 21.9473 115.52C21.7207 115.695 21.4473 115.84 21.127 115.953C20.8066 116.062 20.4414 116.117 20.0312 116.117ZM27.0156 114.57V111.746C27.0156 111.543 26.9824 111.369 26.916 111.225C26.8496 111.076 26.7461 110.961 26.6055 110.879C26.4688 110.797 26.291 110.756 26.0723 110.756C25.8848 110.756 25.7227 110.789 25.5859 110.855C25.4492 110.918 25.3438 111.01 25.2695 111.131C25.1953 111.248 25.1582 111.387 25.1582 111.547H23.4707C23.4707 111.277 23.5332 111.021 23.6582 110.779C23.7832 110.537 23.9648 110.324 24.2031 110.141C24.4414 109.953 24.7246 109.807 25.0527 109.701C25.3848 109.596 25.7559 109.543 26.166 109.543C26.6582 109.543 27.0957 109.625 27.4785 109.789C27.8613 109.953 28.1621 110.199 28.3809 110.527C28.6035 110.855 28.7148 111.266 28.7148 111.758V114.471C28.7148 114.818 28.7363 115.104 28.7793 115.326C28.8223 115.545 28.8848 115.736 28.9668 115.9V116H27.2617C27.1797 115.828 27.1172 115.613 27.0742 115.355C27.0352 115.094 27.0156 114.832 27.0156 114.57ZM27.2383 112.139L27.25 113.094H26.3066C26.084 113.094 25.8906 113.119 25.7266 113.17C25.5625 113.221 25.4277 113.293 25.3223 113.387C25.2168 113.477 25.1387 113.582 25.0879 113.703C25.041 113.824 25.0176 113.957 25.0176 114.102C25.0176 114.246 25.0508 114.377 25.1172 114.494C25.1836 114.607 25.2793 114.697 25.4043 114.764C25.5293 114.826 25.6758 114.857 25.8438 114.857C26.0977 114.857 26.3184 114.807 26.5059 114.705C26.6934 114.604 26.8379 114.479 26.9395 114.33C27.0449 114.182 27.0996 114.041 27.1035 113.908L27.5488 114.623C27.4863 114.783 27.4004 114.949 27.291 115.121C27.1855 115.293 27.0508 115.455 26.8867 115.607C26.7227 115.756 26.5254 115.879 26.2949 115.977C26.0645 116.07 25.791 116.117 25.4746 116.117C25.0723 116.117 24.707 116.037 24.3789 115.877C24.0547 115.713 23.7969 115.488 23.6055 115.203C23.418 114.914 23.3242 114.586 23.3242 114.219C23.3242 113.887 23.3867 113.592 23.5117 113.334C23.6367 113.076 23.8203 112.859 24.0625 112.684C24.3086 112.504 24.6152 112.369 24.9824 112.279C25.3496 112.186 25.7754 112.139 26.2598 112.139H27.2383ZM33.1211 109.66V110.855H29.4297V109.66H33.1211ZM30.3438 108.096H32.0312V114.09C32.0312 114.273 32.0547 114.414 32.1016 114.512C32.1523 114.609 32.2266 114.678 32.3242 114.717C32.4219 114.752 32.5449 114.77 32.6934 114.77C32.7988 114.77 32.8926 114.766 32.9746 114.758C33.0605 114.746 33.1328 114.734 33.1914 114.723L33.1973 115.965C33.0527 116.012 32.8965 116.049 32.7285 116.076C32.5605 116.104 32.375 116.117 32.1719 116.117C31.8008 116.117 31.4766 116.057 31.1992 115.936C30.9258 115.811 30.7148 115.611 30.5664 115.338C30.418 115.064 30.3438 114.705 30.3438 114.26V108.096ZM42.6602 114.629V116H38.3652V114.629H42.6602ZM38.9336 107.469V116H37.1758V107.469H38.9336ZM46.9844 114.57V111.746C46.9844 111.543 46.9512 111.369 46.8848 111.225C46.8184 111.076 46.7148 110.961 46.5742 110.879C46.4375 110.797 46.2598 110.756 46.041 110.756C45.8535 110.756 45.6914 110.789 45.5547 110.855C45.418 110.918 45.3125 111.01 45.2383 111.131C45.1641 111.248 45.127 111.387 45.127 111.547H43.4395C43.4395 111.277 43.502 111.021 43.627 110.779C43.752 110.537 43.9336 110.324 44.1719 110.141C44.4102 109.953 44.6934 109.807 45.0215 109.701C45.3535 109.596 45.7246 109.543 46.1348 109.543C46.627 109.543 47.0645 109.625 47.4473 109.789C47.8301 109.953 48.1309 110.199 48.3496 110.527C48.5723 110.855 48.6836 111.266 48.6836 111.758V114.471C48.6836 114.818 48.7051 115.104 48.748 115.326C48.791 115.545 48.8535 115.736 48.9355 115.9V116H47.2305C47.1484 115.828 47.0859 115.613 47.043 115.355C47.0039 115.094 46.9844 114.832 46.9844 114.57ZM47.207 112.139L47.2188 113.094H46.2754C46.0527 113.094 45.8594 113.119 45.6953 113.17C45.5312 113.221 45.3965 113.293 45.291 113.387C45.1855 113.477 45.1074 113.582 45.0566 113.703C45.0098 113.824 44.9863 113.957 44.9863 114.102C44.9863 114.246 45.0195 114.377 45.0859 114.494C45.1523 114.607 45.248 114.697 45.373 114.764C45.498 114.826 45.6445 114.857 45.8125 114.857C46.0664 114.857 46.2871 114.807 46.4746 114.705C46.6621 114.604 46.8066 114.479 46.9082 114.33C47.0137 114.182 47.0684 114.041 47.0723 113.908L47.5176 114.623C47.4551 114.783 47.3691 114.949 47.2598 115.121C47.1543 115.293 47.0195 115.455 46.8555 115.607C46.6914 115.756 46.4941 115.879 46.2637 115.977C46.0332 116.07 45.7598 116.117 45.4434 116.117C45.041 116.117 44.6758 116.037 44.3477 115.877C44.0234 115.713 43.7656 115.488 43.5742 115.203C43.3867 114.914 43.293 114.586 43.293 114.219C43.293 113.887 43.3555 113.592 43.4805 113.334C43.6055 113.076 43.7891 112.859 44.0312 112.684C44.2773 112.504 44.584 112.369 44.9512 112.279C45.3184 112.186 45.7441 112.139 46.2285 112.139H47.207ZM51.6719 106.994V116H49.9844V106.994H51.6719ZM55.668 109.66L52.9141 112.801L51.4375 114.295L50.8223 113.076L51.9941 111.588L53.6406 109.66H55.668ZM53.916 116L52.041 113.07L53.207 112.051L55.8613 116H53.916ZM59.1953 116.117C58.7031 116.117 58.2617 116.039 57.8711 115.883C57.4805 115.723 57.1484 115.502 56.875 115.221C56.6055 114.939 56.3984 114.613 56.2539 114.242C56.1094 113.867 56.0371 113.469 56.0371 113.047V112.812C56.0371 112.332 56.1055 111.893 56.2422 111.494C56.3789 111.096 56.5742 110.75 56.8281 110.457C57.0859 110.164 57.3984 109.939 57.7656 109.783C58.1328 109.623 58.5469 109.543 59.0078 109.543C59.457 109.543 59.8555 109.617 60.2031 109.766C60.5508 109.914 60.8418 110.125 61.0762 110.398C61.3145 110.672 61.4941 111 61.6152 111.383C61.7363 111.762 61.7969 112.184 61.7969 112.648V113.352H56.7578V112.227H60.1387V112.098C60.1387 111.863 60.0957 111.654 60.0098 111.471C59.9277 111.283 59.8027 111.135 59.6348 111.025C59.4668 110.916 59.252 110.861 58.9902 110.861C58.7676 110.861 58.5762 110.91 58.416 111.008C58.2559 111.105 58.125 111.242 58.0234 111.418C57.9258 111.594 57.8516 111.801 57.8008 112.039C57.7539 112.273 57.7305 112.531 57.7305 112.812V113.047C57.7305 113.301 57.7656 113.535 57.8359 113.75C57.9102 113.965 58.0137 114.15 58.1465 114.307C58.2832 114.463 58.4473 114.584 58.6387 114.67C58.834 114.756 59.0547 114.799 59.3008 114.799C59.6055 114.799 59.8887 114.74 60.1504 114.623C60.416 114.502 60.6445 114.32 60.8359 114.078L61.6562 114.969C61.5234 115.16 61.3418 115.344 61.1113 115.52C60.8848 115.695 60.6113 115.84 60.291 115.953C59.9707 116.062 59.6055 116.117 59.1953 116.117ZM66.1855 114.248C66.1855 114.127 66.1504 114.018 66.0801 113.92C66.0098 113.822 65.8789 113.732 65.6875 113.65C65.5 113.564 65.2285 113.486 64.873 113.416C64.5527 113.346 64.2539 113.258 63.9766 113.152C63.7031 113.043 63.4648 112.912 63.2617 112.76C63.0625 112.607 62.9062 112.428 62.793 112.221C62.6797 112.01 62.623 111.77 62.623 111.5C62.623 111.234 62.6797 110.984 62.793 110.75C62.9102 110.516 63.0762 110.309 63.291 110.129C63.5098 109.945 63.7754 109.803 64.0879 109.701C64.4043 109.596 64.7598 109.543 65.1543 109.543C65.7051 109.543 66.1777 109.631 66.5723 109.807C66.9707 109.982 67.2754 110.225 67.4863 110.533C67.7012 110.838 67.8086 111.186 67.8086 111.576H66.1211C66.1211 111.412 66.0859 111.266 66.0156 111.137C65.9492 111.004 65.8438 110.9 65.6992 110.826C65.5586 110.748 65.375 110.709 65.1484 110.709C64.9609 110.709 64.7988 110.742 64.6621 110.809C64.5254 110.871 64.4199 110.957 64.3457 111.066C64.2754 111.172 64.2402 111.289 64.2402 111.418C64.2402 111.516 64.2598 111.604 64.2988 111.682C64.3418 111.756 64.4102 111.824 64.5039 111.887C64.5977 111.949 64.7188 112.008 64.8672 112.062C65.0195 112.113 65.207 112.16 65.4297 112.203C65.8867 112.297 66.2949 112.42 66.6543 112.572C67.0137 112.721 67.2988 112.924 67.5098 113.182C67.7207 113.436 67.8262 113.77 67.8262 114.184C67.8262 114.465 67.7637 114.723 67.6387 114.957C67.5137 115.191 67.334 115.396 67.0996 115.572C66.8652 115.744 66.584 115.879 66.2559 115.977C65.9316 116.07 65.5664 116.117 65.1602 116.117C64.5703 116.117 64.0703 116.012 63.6602 115.801C63.2539 115.59 62.9453 115.322 62.7344 114.998C62.5273 114.67 62.4238 114.334 62.4238 113.99H64.0234C64.0312 114.221 64.0898 114.406 64.1992 114.547C64.3125 114.688 64.4551 114.789 64.627 114.852C64.8027 114.914 64.9922 114.945 65.1953 114.945C65.4141 114.945 65.5957 114.916 65.7402 114.857C65.8848 114.795 65.9941 114.713 66.0684 114.611C66.1465 114.506 66.1855 114.385 66.1855 114.248ZM4.76172 121.469H7.94336C8.5957 121.469 9.15625 121.566 9.625 121.762C10.0977 121.957 10.4609 122.246 10.7148 122.629C10.9688 123.012 11.0957 123.482 11.0957 124.041C11.0957 124.498 11.0176 124.891 10.8613 125.219C10.709 125.543 10.4922 125.814 10.2109 126.033C9.93359 126.248 9.60742 126.42 9.23242 126.549L8.67578 126.842H5.91016L5.89844 125.471H7.95508C8.26367 125.471 8.51953 125.416 8.72266 125.307C8.92578 125.197 9.07812 125.045 9.17969 124.85C9.28516 124.654 9.33789 124.428 9.33789 124.17C9.33789 123.896 9.28711 123.66 9.18555 123.461C9.08398 123.262 8.92969 123.109 8.72266 123.004C8.51562 122.898 8.25586 122.846 7.94336 122.846H6.51953V130H4.76172V121.469ZM9.53125 130L7.58594 126.197L9.44336 126.186L11.4121 129.918V130H9.53125ZM15.2617 130.117C14.7695 130.117 14.3281 130.039 13.9375 129.883C13.5469 129.723 13.2148 129.502 12.9414 129.221C12.6719 128.939 12.4648 128.613 12.3203 128.242C12.1758 127.867 12.1035 127.469 12.1035 127.047V126.812C12.1035 126.332 12.1719 125.893 12.3086 125.494C12.4453 125.096 12.6406 124.75 12.8945 124.457C13.1523 124.164 13.4648 123.939 13.832 123.783C14.1992 123.623 14.6133 123.543 15.0742 123.543C15.5234 123.543 15.9219 123.617 16.2695 123.766C16.6172 123.914 16.9082 124.125 17.1426 124.398C17.3809 124.672 17.5605 125 17.6816 125.383C17.8027 125.762 17.8633 126.184 17.8633 126.648V127.352H12.8242V126.227H16.2051V126.098C16.2051 125.863 16.1621 125.654 16.0762 125.471C15.9941 125.283 15.8691 125.135 15.7012 125.025C15.5332 124.916 15.3184 124.861 15.0566 124.861C14.834 124.861 14.6426 124.91 14.4824 125.008C14.3223 125.105 14.1914 125.242 14.0898 125.418C13.9922 125.594 13.918 125.801 13.8672 126.039C13.8203 126.273 13.7969 126.531 13.7969 126.812V127.047C13.7969 127.301 13.832 127.535 13.9023 127.75C13.9766 127.965 14.0801 128.15 14.2129 128.307C14.3496 128.463 14.5137 128.584 14.7051 128.67C14.9004 128.756 15.1211 128.799 15.3672 128.799C15.6719 128.799 15.9551 128.74 16.2168 128.623C16.4824 128.502 16.7109 128.32 16.9023 128.078L17.7227 128.969C17.5898 129.16 17.4082 129.344 17.1777 129.52C16.9512 129.695 16.6777 129.84 16.3574 129.953C16.0371 130.062 15.6719 130.117 15.2617 130.117ZM22.252 128.248C22.252 128.127 22.2168 128.018 22.1465 127.92C22.0762 127.822 21.9453 127.732 21.7539 127.65C21.5664 127.564 21.2949 127.486 20.9395 127.416C20.6191 127.346 20.3203 127.258 20.043 127.152C19.7695 127.043 19.5312 126.912 19.3281 126.76C19.1289 126.607 18.9727 126.428 18.8594 126.221C18.7461 126.01 18.6895 125.77 18.6895 125.5C18.6895 125.234 18.7461 124.984 18.8594 124.75C18.9766 124.516 19.1426 124.309 19.3574 124.129C19.5762 123.945 19.8418 123.803 20.1543 123.701C20.4707 123.596 20.8262 123.543 21.2207 123.543C21.7715 123.543 22.2441 123.631 22.6387 123.807C23.0371 123.982 23.3418 124.225 23.5527 124.533C23.7676 124.838 23.875 125.186 23.875 125.576H22.1875C22.1875 125.412 22.1523 125.266 22.082 125.137C22.0156 125.004 21.9102 124.9 21.7656 124.826C21.625 124.748 21.4414 124.709 21.2148 124.709C21.0273 124.709 20.8652 124.742 20.7285 124.809C20.5918 124.871 20.4863 124.957 20.4121 125.066C20.3418 125.172 20.3066 125.289 20.3066 125.418C20.3066 125.516 20.3262 125.604 20.3652 125.682C20.4082 125.756 20.4766 125.824 20.5703 125.887C20.6641 125.949 20.7852 126.008 20.9336 126.062C21.0859 126.113 21.2734 126.16 21.4961 126.203C21.9531 126.297 22.3613 126.42 22.7207 126.572C23.0801 126.721 23.3652 126.924 23.5762 127.182C23.7871 127.436 23.8926 127.77 23.8926 128.184C23.8926 128.465 23.8301 128.723 23.7051 128.957C23.5801 129.191 23.4004 129.396 23.166 129.572C22.9316 129.744 22.6504 129.879 22.3223 129.977C21.998 130.07 21.6328 130.117 21.2266 130.117C20.6367 130.117 20.1367 130.012 19.7266 129.801C19.3203 129.59 19.0117 129.322 18.8008 128.998C18.5938 128.67 18.4902 128.334 18.4902 127.99H20.0898C20.0977 128.221 20.1562 128.406 20.2656 128.547C20.3789 128.688 20.5215 128.789 20.6934 128.852C20.8691 128.914 21.0586 128.945 21.2617 128.945C21.4805 128.945 21.6621 128.916 21.8066 128.857C21.9512 128.795 22.0605 128.713 22.1348 128.611C22.2129 128.506 22.252 128.385 22.252 128.248ZM28.0938 123.66V124.855H24.4023V123.66H28.0938ZM25.3164 122.096H27.0039V128.09C27.0039 128.273 27.0273 128.414 27.0742 128.512C27.125 128.609 27.1992 128.678 27.2969 128.717C27.3945 128.752 27.5176 128.77 27.666 128.77C27.7715 128.77 27.8652 128.766 27.9473 128.758C28.0332 128.746 28.1055 128.734 28.1641 128.723L28.1699 129.965C28.0254 130.012 27.8691 130.049 27.7012 130.076C27.5332 130.104 27.3477 130.117 27.1445 130.117C26.7734 130.117 26.4492 130.057 26.1719 129.936C25.8984 129.811 25.6875 129.611 25.5391 129.338C25.3906 129.064 25.3164 128.705 25.3164 128.26V122.096ZM28.6328 126.895V126.771C28.6328 126.307 28.6992 125.879 28.832 125.488C28.9648 125.094 29.1582 124.752 29.4121 124.463C29.666 124.174 29.9785 123.949 30.3496 123.789C30.7207 123.625 31.1465 123.543 31.627 123.543C32.1074 123.543 32.5352 123.625 32.9102 123.789C33.2852 123.949 33.5996 124.174 33.8535 124.463C34.1113 124.752 34.3066 125.094 34.4395 125.488C34.5723 125.879 34.6387 126.307 34.6387 126.771V126.895C34.6387 127.355 34.5723 127.783 34.4395 128.178C34.3066 128.568 34.1113 128.91 33.8535 129.203C33.5996 129.492 33.2871 129.717 32.916 129.877C32.5449 130.037 32.1191 130.117 31.6387 130.117C31.1582 130.117 30.7305 130.037 30.3555 129.877C29.9844 129.717 29.6699 129.492 29.4121 129.203C29.1582 128.91 28.9648 128.568 28.832 128.178C28.6992 127.783 28.6328 127.355 28.6328 126.895ZM30.3203 126.771V126.895C30.3203 127.16 30.3438 127.408 30.3906 127.639C30.4375 127.869 30.5117 128.072 30.6133 128.248C30.7188 128.42 30.8555 128.555 31.0234 128.652C31.1914 128.75 31.3965 128.799 31.6387 128.799C31.873 128.799 32.0742 128.75 32.2422 128.652C32.4102 128.555 32.5449 128.42 32.6465 128.248C32.748 128.072 32.8223 127.869 32.8691 127.639C32.9199 127.408 32.9453 127.16 32.9453 126.895V126.771C32.9453 126.514 32.9199 126.271 32.8691 126.045C32.8223 125.814 32.7461 125.611 32.6406 125.436C32.5391 125.256 32.4043 125.115 32.2363 125.014C32.0684 124.912 31.8652 124.861 31.627 124.861C31.3887 124.861 31.1855 124.912 31.0176 125.014C30.8535 125.115 30.7188 125.256 30.6133 125.436C30.5117 125.611 30.4375 125.814 30.3906 126.045C30.3438 126.271 30.3203 126.514 30.3203 126.771ZM37.3633 125.043V130H35.6758V123.66H37.2637L37.3633 125.043ZM39.2734 123.619L39.2441 125.184C39.1621 125.172 39.0625 125.162 38.9453 125.154C38.832 125.143 38.7285 125.137 38.6348 125.137C38.3965 125.137 38.1895 125.168 38.0137 125.23C37.8418 125.289 37.6973 125.377 37.5801 125.494C37.4668 125.611 37.3809 125.754 37.3223 125.922C37.2676 126.09 37.2363 126.281 37.2285 126.496L36.8887 126.391C36.8887 125.98 36.9297 125.604 37.0117 125.26C37.0938 124.912 37.2129 124.609 37.3691 124.352C37.5293 124.094 37.7246 123.895 37.9551 123.754C38.1855 123.613 38.4492 123.543 38.7461 123.543C38.8398 123.543 38.9355 123.551 39.0332 123.566C39.1309 123.578 39.2109 123.596 39.2734 123.619ZM43.293 128.57V125.746C43.293 125.543 43.2598 125.369 43.1934 125.225C43.127 125.076 43.0234 124.961 42.8828 124.879C42.7461 124.797 42.5684 124.756 42.3496 124.756C42.1621 124.756 42 124.789 41.8633 124.855C41.7266 124.918 41.6211 125.01 41.5469 125.131C41.4727 125.248 41.4355 125.387 41.4355 125.547H39.748C39.748 125.277 39.8105 125.021 39.9355 124.779C40.0605 124.537 40.2422 124.324 40.4805 124.141C40.7188 123.953 41.002 123.807 41.3301 123.701C41.6621 123.596 42.0332 123.543 42.4434 123.543C42.9355 123.543 43.373 123.625 43.7559 123.789C44.1387 123.953 44.4395 124.199 44.6582 124.527C44.8809 124.855 44.9922 125.266 44.9922 125.758V128.471C44.9922 128.818 45.0137 129.104 45.0566 129.326C45.0996 129.545 45.1621 129.736 45.2441 129.9V130H43.5391C43.457 129.828 43.3945 129.613 43.3516 129.355C43.3125 129.094 43.293 128.832 43.293 128.57ZM43.5156 126.139L43.5273 127.094H42.584C42.3613 127.094 42.168 127.119 42.0039 127.17C41.8398 127.221 41.7051 127.293 41.5996 127.387C41.4941 127.477 41.416 127.582 41.3652 127.703C41.3184 127.824 41.2949 127.957 41.2949 128.102C41.2949 128.246 41.3281 128.377 41.3945 128.494C41.4609 128.607 41.5566 128.697 41.6816 128.764C41.8066 128.826 41.9531 128.857 42.1211 128.857C42.375 128.857 42.5957 128.807 42.7832 128.705C42.9707 128.604 43.1152 128.479 43.2168 128.33C43.3223 128.182 43.377 128.041 43.3809 127.908L43.8262 128.623C43.7637 128.783 43.6777 128.949 43.5684 129.121C43.4629 129.293 43.3281 129.455 43.1641 129.607C43 129.756 42.8027 129.879 42.5723 129.977C42.3418 130.07 42.0684 130.117 41.752 130.117C41.3496 130.117 40.9844 130.037 40.6562 129.877C40.332 129.713 40.0742 129.488 39.8828 129.203C39.6953 128.914 39.6016 128.586 39.6016 128.219C39.6016 127.887 39.6641 127.592 39.7891 127.334C39.9141 127.076 40.0977 126.859 40.3398 126.684C40.5859 126.504 40.8926 126.369 41.2598 126.279C41.627 126.186 42.0527 126.139 42.5371 126.139H43.5156ZM49.3984 123.66V124.855H45.707V123.66H49.3984ZM46.6211 122.096H48.3086V128.09C48.3086 128.273 48.332 128.414 48.3789 128.512C48.4297 128.609 48.5039 128.678 48.6016 128.717C48.6992 128.752 48.8223 128.77 48.9707 128.77C49.0762 128.77 49.1699 128.766 49.252 128.758C49.3379 128.746 49.4102 128.734 49.4688 128.723L49.4746 129.965C49.3301 130.012 49.1738 130.049 49.0059 130.076C48.8379 130.104 48.6523 130.117 48.4492 130.117C48.0781 130.117 47.7539 130.057 47.4766 129.936C47.2031 129.811 46.9922 129.611 46.8438 129.338C46.6953 129.064 46.6211 128.705 46.6211 128.26V122.096ZM52.1406 123.66V130H50.4473V123.66H52.1406ZM50.3418 122.008C50.3418 121.762 50.4277 121.559 50.5996 121.398C50.7715 121.238 51.002 121.158 51.291 121.158C51.5762 121.158 51.8047 121.238 51.9766 121.398C52.1523 121.559 52.2402 121.762 52.2402 122.008C52.2402 122.254 52.1523 122.457 51.9766 122.617C51.8047 122.777 51.5762 122.857 51.291 122.857C51.002 122.857 50.7715 122.777 50.5996 122.617C50.4277 122.457 50.3418 122.254 50.3418 122.008ZM53.2656 126.895V126.771C53.2656 126.307 53.332 125.879 53.4648 125.488C53.5977 125.094 53.791 124.752 54.0449 124.463C54.2988 124.174 54.6113 123.949 54.9824 123.789C55.3535 123.625 55.7793 123.543 56.2598 123.543C56.7402 123.543 57.168 123.625 57.543 123.789C57.918 123.949 58.2324 124.174 58.4863 124.463C58.7441 124.752 58.9395 125.094 59.0723 125.488C59.2051 125.879 59.2715 126.307 59.2715 126.771V126.895C59.2715 127.355 59.2051 127.783 59.0723 128.178C58.9395 128.568 58.7441 128.91 58.4863 129.203C58.2324 129.492 57.9199 129.717 57.5488 129.877C57.1777 130.037 56.752 130.117 56.2715 130.117C55.791 130.117 55.3633 130.037 54.9883 129.877C54.6172 129.717 54.3027 129.492 54.0449 129.203C53.791 128.91 53.5977 128.568 53.4648 128.178C53.332 127.783 53.2656 127.355 53.2656 126.895ZM54.9531 126.771V126.895C54.9531 127.16 54.9766 127.408 55.0234 127.639C55.0703 127.869 55.1445 128.072 55.2461 128.248C55.3516 128.42 55.4883 128.555 55.6562 128.652C55.8242 128.75 56.0293 128.799 56.2715 128.799C56.5059 128.799 56.707 128.75 56.875 128.652C57.043 128.555 57.1777 128.42 57.2793 128.248C57.3809 128.072 57.4551 127.869 57.502 127.639C57.5527 127.408 57.5781 127.16 57.5781 126.895V126.771C57.5781 126.514 57.5527 126.271 57.502 126.045C57.4551 125.814 57.3789 125.611 57.2734 125.436C57.1719 125.256 57.0371 125.115 56.8691 125.014C56.7012 124.912 56.498 124.861 56.2598 124.861C56.0215 124.861 55.8184 124.912 55.6504 125.014C55.4863 125.115 55.3516 125.256 55.2461 125.436C55.1445 125.611 55.0703 125.814 55.0234 126.045C54.9766 126.271 54.9531 126.514 54.9531 126.771ZM61.9609 125.014V130H60.2734V123.66H61.8555L61.9609 125.014ZM61.7148 126.607H61.2578C61.2578 126.139 61.3184 125.717 61.4395 125.342C61.5605 124.963 61.7305 124.641 61.9492 124.375C62.168 124.105 62.4277 123.9 62.7285 123.76C63.0332 123.615 63.373 123.543 63.748 123.543C64.0449 123.543 64.3164 123.586 64.5625 123.672C64.8086 123.758 65.0195 123.895 65.1953 124.082C65.375 124.27 65.5117 124.518 65.6055 124.826C65.7031 125.135 65.752 125.512 65.752 125.957V130H64.0527V125.951C64.0527 125.67 64.0137 125.451 63.9355 125.295C63.8574 125.139 63.7422 125.029 63.5898 124.967C63.4414 124.9 63.2578 124.867 63.0391 124.867C62.8125 124.867 62.6152 124.912 62.4473 125.002C62.2832 125.092 62.1465 125.217 62.0371 125.377C61.9316 125.533 61.8516 125.717 61.7969 125.928C61.7422 126.139 61.7148 126.365 61.7148 126.607ZM71.998 121.469V130H70.2461V121.469H71.998ZM75.1914 125.014V130H73.5039V123.66H75.0859L75.1914 125.014ZM74.9453 126.607H74.4883C74.4883 126.139 74.5488 125.717 74.6699 125.342C74.791 124.963 74.9609 124.641 75.1797 124.375C75.3984 124.105 75.6582 123.9 75.959 123.76C76.2637 123.615 76.6035 123.543 76.9785 123.543C77.2754 123.543 77.5469 123.586 77.793 123.672C78.0391 123.758 78.25 123.895 78.4258 124.082C78.6055 124.27 78.7422 124.518 78.8359 124.826C78.9336 125.135 78.9824 125.512 78.9824 125.957V130H77.2832V125.951C77.2832 125.67 77.2441 125.451 77.166 125.295C77.0879 125.139 76.9727 125.029 76.8203 124.967C76.6719 124.9 76.4883 124.867 76.2695 124.867C76.043 124.867 75.8457 124.912 75.6777 125.002C75.5137 125.092 75.377 125.217 75.2676 125.377C75.1621 125.533 75.082 125.717 75.0273 125.928C74.9727 126.139 74.9453 126.365 74.9453 126.607ZM82.0469 123.66V130H80.3535V123.66H82.0469ZM80.248 122.008C80.248 121.762 80.334 121.559 80.5059 121.398C80.6777 121.238 80.9082 121.158 81.1973 121.158C81.4824 121.158 81.7109 121.238 81.8828 121.398C82.0586 121.559 82.1465 121.762 82.1465 122.008C82.1465 122.254 82.0586 122.457 81.8828 122.617C81.7109 122.777 81.4824 122.857 81.1973 122.857C80.9082 122.857 80.6777 122.777 80.5059 122.617C80.334 122.457 80.248 122.254 80.248 122.008ZM86.5469 123.66V124.855H82.8555V123.66H86.5469ZM83.7695 122.096H85.457V128.09C85.457 128.273 85.4805 128.414 85.5273 128.512C85.5781 128.609 85.6523 128.678 85.75 128.717C85.8477 128.752 85.9707 128.77 86.1191 128.77C86.2246 128.77 86.3184 128.766 86.4004 128.758C86.4863 128.746 86.5586 128.734 86.6172 128.723L86.623 129.965C86.4785 130.012 86.3223 130.049 86.1543 130.076C85.9863 130.104 85.8008 130.117 85.5977 130.117C85.2266 130.117 84.9023 130.057 84.625 129.936C84.3516 129.811 84.1406 129.611 83.9922 129.338C83.8438 129.064 83.7695 128.705 83.7695 128.26V122.096ZM89.2891 123.66V130H87.5957V123.66H89.2891ZM87.4902 122.008C87.4902 121.762 87.5762 121.559 87.748 121.398C87.9199 121.238 88.1504 121.158 88.4395 121.158C88.7246 121.158 88.9531 121.238 89.125 121.398C89.3008 121.559 89.3887 121.762 89.3887 122.008C89.3887 122.254 89.3008 122.457 89.125 122.617C88.9531 122.777 88.7246 122.857 88.4395 122.857C88.1504 122.857 87.9199 122.777 87.748 122.617C87.5762 122.457 87.4902 122.254 87.4902 122.008ZM94.1055 128.57V125.746C94.1055 125.543 94.0723 125.369 94.0059 125.225C93.9395 125.076 93.8359 124.961 93.6953 124.879C93.5586 124.797 93.3809 124.756 93.1621 124.756C92.9746 124.756 92.8125 124.789 92.6758 124.855C92.5391 124.918 92.4336 125.01 92.3594 125.131C92.2852 125.248 92.248 125.387 92.248 125.547H90.5605C90.5605 125.277 90.623 125.021 90.748 124.779C90.873 124.537 91.0547 124.324 91.293 124.141C91.5312 123.953 91.8145 123.807 92.1426 123.701C92.4746 123.596 92.8457 123.543 93.2559 123.543C93.748 123.543 94.1855 123.625 94.5684 123.789C94.9512 123.953 95.252 124.199 95.4707 124.527C95.6934 124.855 95.8047 125.266 95.8047 125.758V128.471C95.8047 128.818 95.8262 129.104 95.8691 129.326C95.9121 129.545 95.9746 129.736 96.0566 129.9V130H94.3516C94.2695 129.828 94.207 129.613 94.1641 129.355C94.125 129.094 94.1055 128.832 94.1055 128.57ZM94.3281 126.139L94.3398 127.094H93.3965C93.1738 127.094 92.9805 127.119 92.8164 127.17C92.6523 127.221 92.5176 127.293 92.4121 127.387C92.3066 127.477 92.2285 127.582 92.1777 127.703C92.1309 127.824 92.1074 127.957 92.1074 128.102C92.1074 128.246 92.1406 128.377 92.207 128.494C92.2734 128.607 92.3691 128.697 92.4941 128.764C92.6191 128.826 92.7656 128.857 92.9336 128.857C93.1875 128.857 93.4082 128.807 93.5957 128.705C93.7832 128.604 93.9277 128.479 94.0293 128.33C94.1348 128.182 94.1895 128.041 94.1934 127.908L94.6387 128.623C94.5762 128.783 94.4902 128.949 94.3809 129.121C94.2754 129.293 94.1406 129.455 93.9766 129.607C93.8125 129.756 93.6152 129.879 93.3848 129.977C93.1543 130.07 92.8809 130.117 92.5645 130.117C92.1621 130.117 91.7969 130.037 91.4688 129.877C91.1445 129.713 90.8867 129.488 90.6953 129.203C90.5078 128.914 90.4141 128.586 90.4141 128.219C90.4141 127.887 90.4766 127.592 90.6016 127.334C90.7266 127.076 90.9102 126.859 91.1523 126.684C91.3984 126.504 91.7051 126.369 92.0723 126.279C92.4395 126.186 92.8652 126.139 93.3496 126.139H94.3281ZM100.211 123.66V124.855H96.5195V123.66H100.211ZM97.4336 122.096H99.1211V128.09C99.1211 128.273 99.1445 128.414 99.1914 128.512C99.2422 128.609 99.3164 128.678 99.4141 128.717C99.5117 128.752 99.6348 128.77 99.7832 128.77C99.8887 128.77 99.9824 128.766 100.064 128.758C100.15 128.746 100.223 128.734 100.281 128.723L100.287 129.965C100.143 130.012 99.9863 130.049 99.8184 130.076C99.6504 130.104 99.4648 130.117 99.2617 130.117C98.8906 130.117 98.5664 130.057 98.2891 129.936C98.0156 129.811 97.8047 129.611 97.6562 129.338C97.5078 129.064 97.4336 128.705 97.4336 128.26V122.096ZM102.953 123.66V130H101.26V123.66H102.953ZM101.154 122.008C101.154 121.762 101.24 121.559 101.412 121.398C101.584 121.238 101.814 121.158 102.104 121.158C102.389 121.158 102.617 121.238 102.789 121.398C102.965 121.559 103.053 121.762 103.053 122.008C103.053 122.254 102.965 122.457 102.789 122.617C102.617 122.777 102.389 122.857 102.104 122.857C101.814 122.857 101.584 122.777 101.412 122.617C101.24 122.457 101.154 122.254 101.154 122.008ZM106.504 128.77L107.91 123.66H109.674L107.535 130H106.469L106.504 128.77ZM105.537 123.66L106.949 128.775L106.979 130H105.906L103.768 123.66H105.537ZM113.266 130.117C112.773 130.117 112.332 130.039 111.941 129.883C111.551 129.723 111.219 129.502 110.945 129.221C110.676 128.939 110.469 128.613 110.324 128.242C110.18 127.867 110.107 127.469 110.107 127.047V126.812C110.107 126.332 110.176 125.893 110.312 125.494C110.449 125.096 110.645 124.75 110.898 124.457C111.156 124.164 111.469 123.939 111.836 123.783C112.203 123.623 112.617 123.543 113.078 123.543C113.527 123.543 113.926 123.617 114.273 123.766C114.621 123.914 114.912 124.125 115.146 124.398C115.385 124.672 115.564 125 115.686 125.383C115.807 125.762 115.867 126.184 115.867 126.648V127.352H110.828V126.227H114.209V126.098C114.209 125.863 114.166 125.654 114.08 125.471C113.998 125.283 113.873 125.135 113.705 125.025C113.537 124.916 113.322 124.861 113.061 124.861C112.838 124.861 112.646 124.91 112.486 125.008C112.326 125.105 112.195 125.242 112.094 125.418C111.996 125.594 111.922 125.801 111.871 126.039C111.824 126.273 111.801 126.531 111.801 126.812V127.047C111.801 127.301 111.836 127.535 111.906 127.75C111.98 127.965 112.084 128.15 112.217 128.307C112.354 128.463 112.518 128.584 112.709 128.67C112.904 128.756 113.125 128.799 113.371 128.799C113.676 128.799 113.959 128.74 114.221 128.623C114.486 128.502 114.715 128.32 114.906 128.078L115.727 128.969C115.594 129.16 115.412 129.344 115.182 129.52C114.955 129.695 114.682 129.84 114.361 129.953C114.041 130.062 113.676 130.117 113.266 130.117Z" fill="#738E51"/>
</svg>
