<svg width="550" height="115" viewBox="0 0 550 115" fill="none" xmlns="http://www.w3.org/2000/svg">
<path d="M438.781 37.7287C438.363 37.7287 437.946 37.7478 437.529 37.7861C437.605 37.5947 437.662 37.3841 437.7 37.1544C438.837 32.8475 439.293 28.7129 439.179 24.8079C441.397 23.2574 443.218 20.6158 443.957 17.6871C445.209 12.8634 443.047 8.90099 439.236 8.90099C437.927 8.90099 436.619 9.36038 435.367 10.1069C431.67 3.84751 425.526 0 417.676 0C407.664 0 397.196 6.25939 389.403 15.8495C387.184 10.0495 382.52 6.31683 376.148 6.31683C367.957 6.31683 359.367 12.4614 354.019 21.3049C352.54 20.2138 350.663 19.5248 348.558 19.5248C341.391 19.5248 333.711 26.8178 331.435 35.8337C331.397 35.9485 331.36 36.0825 331.322 36.2356C330.127 35.4317 328.648 34.9723 326.998 34.9723C324.04 34.9723 321.025 36.4079 318.351 38.7049C315.45 34.398 310.899 31.8139 305.154 31.8139C293.151 31.8139 268.917 43.299 263.968 58H311.809H321.139H321.537H330.355H358.969H364.657H378.253H399.586H414.092H427.289H453.059C454.311 46.4574 448.508 37.7287 438.781 37.7287Z" fill="#738E51"/>
<path d="M-35.8594 115L106.466 113.114C109.757 109.971 112.366 106.086 113.671 101.914C116.847 91.6286 111.175 83.2857 100.964 83.2857C95.575 83.2857 90.0158 85.6286 85.4778 89.3429C83.8894 88.4857 81.9607 88.0286 79.8051 88.0286C76.0612 88.0286 72.2606 89.4 68.9137 91.6857C67.7792 85 63.0709 80.0286 56.0369 78.6C58.0223 76.4857 59.5539 73.9143 60.4048 71.1714C62.844 63.3429 58.5329 57 50.7614 57C42.9899 57 34.7079 63.3429 32.2687 71.1714C31.7581 72.8286 31.588 74.4286 31.6447 75.8571C30.2454 75.5905 28.7706 75.4571 27.22 75.4571C18.7111 75.4571 9.80513 79.7429 3.28163 86.3143C2.65764 82.3143 -0.518997 79.5714 -5.17054 79.5714C-11.5806 79.5714 -18.4445 84.8286 -20.4299 91.2857C-21.6211 95.1143 -20.8837 98.4857 -18.7281 100.657C-24.9112 103.057 -31.9453 109.4 -35.8594 115Z" fill="#738E51"/>
<path d="M39.8444 113C39.8444 113 63.7102 -3.71786 152.906 0.0912452C183.791 1.39885 214.025 5.89017 242.904 31.758C267.472 53.703 291.288 62.572 338.418 55.2949C482.365 32.9519 549.851 111.01 549.851 111.01L39.8444 113Z" fill="#ADB256"/>
</svg>
