<svg width="566" height="145" viewBox="0 0 566 145" fill="none" xmlns="http://www.w3.org/2000/svg">
<rect x="76" width="408" height="33" rx="16.5" fill="#92B5D8" fill-opacity="0.15"/>
<rect y="112" width="408" height="33" rx="16.5" fill="#92B5D8" fill-opacity="0.15"/>
<rect x="158" y="56" width="408" height="33" rx="16.5" fill="#92B5D8" fill-opacity="0.15"/>
<path fill-rule="evenodd" clip-rule="evenodd" d="M220.491 44.6667C220.491 50.9919 218.048 56.1415 215 56.3281V56.3333H354.646H355V56.3281C354.882 56.3316 354.765 56.3333 354.646 56.3333C348.203 56.3333 342.979 51.11 342.979 44.6667C342.979 38.2233 348.203 33 354.646 33C354.765 33 354.882 33.0018 355 33.0053V33H354.646H215V33.0052C218.048 33.1918 220.491 38.3414 220.491 44.6667Z" fill="#92B5D8" fill-opacity="0.15"/>
<path fill-rule="evenodd" clip-rule="evenodd" d="M220.491 100.667C220.491 106.992 218.048 112.142 215 112.328V112.333H354.646H355V112.328C354.882 112.332 354.765 112.333 354.646 112.333C348.203 112.333 342.979 107.11 342.979 100.667C342.979 94.2233 348.203 89 354.646 89C354.765 89 354.882 89.0018 355 89.0053V89H354.646H215V89.0052C218.048 89.1918 220.491 94.3414 220.491 100.667Z" fill="#92B5D8" fill-opacity="0.15"/>
</svg>
