<svg width="554" height="312" viewBox="0 0 554 312" fill="none" xmlns="http://www.w3.org/2000/svg">
<path d="M249.583 65.9589C249.852 64.6097 249.996 63.2151 249.996 61.7868C249.996 50.0632 240.492 40.5594 228.769 40.5594C227.266 40.5594 225.801 40.7197 224.387 41.0174C224.428 40.2889 224.453 39.556 224.453 38.8171C224.453 17.3791 207.074 0 185.636 0C168.66 0 154.239 10.901 148.967 26.0812C144.834 23.6332 140.013 22.2243 134.862 22.2243C119.552 22.2243 107.142 34.6349 107.142 49.9443C107.142 54.0737 108.051 57.9886 109.671 61.5094C95.7478 65.2862 85.5 77.9988 85.5 93.1081C85.5 111.184 100.168 125.859 118.251 125.859H218.614H266.305H266.549C273.366 119.465 277.621 110.381 277.621 100.298C277.621 83.3426 265.581 69.2033 249.583 65.9589Z" fill="#CACACA"/>
<path d="M517.583 65.9589C517.852 64.6097 517.996 63.2151 517.996 61.7868C517.996 50.0632 508.492 40.5594 496.769 40.5594C495.266 40.5594 493.801 40.7197 492.387 41.0174C492.428 40.2889 492.453 39.556 492.453 38.8171C492.453 17.3791 475.074 0 453.636 0C436.66 0 422.239 10.901 416.967 26.0812C412.834 23.6332 408.013 22.2243 402.862 22.2243C387.552 22.2243 375.142 34.6349 375.142 49.9443C375.142 54.0737 376.051 57.9886 377.671 61.5094C363.748 65.2862 353.5 77.9988 353.5 93.1081C353.5 111.184 368.168 125.859 386.251 125.859H486.614H534.305H534.549C541.366 119.465 545.621 110.381 545.621 100.298C545.621 83.3426 533.581 69.2033 517.583 65.9589Z" fill="#CACACA"/>
<path d="M220 218L255.5 126H117L82 226L220 218Z" fill="#92B5D8" stroke="#92B5D8" stroke-width="0.4" stroke-linecap="round"/>
<path d="M488 218L523.5 126H385L350 226L488 218Z" fill="#92B5D8" stroke="#92B5D8" stroke-width="0.4" stroke-linecap="round"/>
<path d="M573.589 288.007C573.589 288.007 229.801 296.484 289.505 259.324C334.511 231.215 106.165 270.989 0.999817 232.745C0.999817 232.745 118.132 214.643 188.633 212.54C259.133 210.436 462.96 151.988 575.8 175.316" fill="#ADB256"/>
<g style="mix-blend-mode:multiply" opacity="0.44">
<path d="M35.9218 246.041C75.3344 241.005 155.981 224.497 217.831 233.038C342.573 250.184 396.944 231.572 438.308 214.362C491.768 192.181 550.757 231.444 549.652 288.3C549.652 288.3 326.053 293.845 270.837 276.444C272.918 273.194 268.69 271.473 259.78 270.58C257.179 267.457 258.74 263.824 265.569 259.617C303.355 236.034 148.827 260.191 35.9218 246.041Z" fill="#738E51"/>
</g>
<path d="M288.14 173.52C288.086 172.97 288.488 172.481 289.037 172.426L324.069 168.974C324.619 168.92 325.108 169.322 325.163 169.871L325.546 173.758L325.802 176.363C325.841 176.758 325.643 177.138 325.297 177.333L308.54 186.758C308.296 186.896 308.005 186.924 307.739 186.837L289.464 180.864C289.087 180.741 288.819 180.406 288.78 180.012L288.523 177.407L288.14 173.52Z" fill="#E9B556"/>
<path d="M335.294 151.767C335.273 151.237 335.668 150.784 336.195 150.732L357.073 148.674C357.517 148.63 357.936 148.886 358.1 149.301L370.154 179.681C370.387 180.269 370.022 180.924 369.399 181.034L337.82 186.632C337.224 186.738 336.671 186.293 336.646 185.687L335.294 151.767Z" fill="#618238"/>
<path d="M361.811 161.196C362.018 161.013 362.291 160.924 362.566 160.95L384.359 163.003C384.791 163.043 385.148 163.358 385.242 163.782L388.184 177.06C388.309 177.621 387.936 178.171 387.369 178.263L335.647 186.713C334.657 186.875 334.072 185.639 334.825 184.976L361.811 161.196Z" fill="#618238"/>
<circle cx="375.81" cy="183.594" r="10.6291" transform="rotate(-5.62794 375.81 183.594)" fill="#727272"/>
<circle cx="375.809" cy="183.593" r="4.90574" transform="rotate(-5.62794 375.809 183.593)" fill="#D9D9D9"/>
<rect x="336.299" y="149.488" width="19.6229" height="1.22643" transform="rotate(-5.62794 336.299 149.488)" fill="#727272"/>
<rect x="311.265" y="183.073" width="24.9375" height="1.63525" transform="rotate(-5.62794 311.265 183.073)" fill="#D9D9D9"/>
<path d="M337.727 163.978L337.177 153.511L357.381 151.52L362.84 164.538L359.179 164.899L352.669 165.54C347.82 161.971 340.591 163.156 337.727 163.978Z" fill="#92B5D8"/>
<circle cx="343.615" cy="182.042" r="16.7613" transform="rotate(-5.62794 343.615 182.042)" fill="#727272"/>
<circle cx="308.681" cy="190.208" r="10.6291" transform="rotate(-5.62794 308.681 190.208)" fill="#727272"/>
<ellipse cx="343.596" cy="181.839" rx="7.76742" ry="7.56301" transform="rotate(-5.62794 343.596 181.839)" fill="#D9D9D9"/>
<circle cx="308.682" cy="190.209" r="4.90574" transform="rotate(-5.62794 308.682 190.209)" fill="#D9D9D9"/>
<circle cx="291.333" cy="185.443" r="1.59348" fill="#D9D9D9"/>
<circle cx="286.233" cy="183.531" r="1.59348" fill="#D9D9D9"/>
<circle cx="286.871" cy="188.631" r="1.59348" fill="#D9D9D9"/>
<circle cx="293.882" cy="189.267" r="1.59348" fill="#D9D9D9"/>
<circle cx="287.508" cy="195.005" r="1.59348" fill="#D9D9D9"/>
<circle cx="280.497" cy="196.916" r="1.59348" fill="#D9D9D9"/>
<circle cx="282.408" cy="191.179" r="1.59348" fill="#D9D9D9"/>
<circle cx="279.859" cy="186.718" r="1.59348" fill="#D9D9D9"/>
<circle cx="277.31" cy="193.092" r="1.59348" fill="#D9D9D9"/>
<circle cx="273.485" cy="184.806" r="1.59348" fill="#D9D9D9"/>
<circle cx="269.023" cy="191.179" r="1.59348" fill="#D9D9D9"/>
<circle cx="268.386" cy="196.279" r="1.59348" fill="#D9D9D9"/>
<circle cx="260.738" cy="186.718" r="1.59348" fill="#D9D9D9"/>
<circle cx="258.826" cy="192.455" r="1.59348" fill="#D9D9D9"/>
<circle cx="241.616" cy="206.477" r="1.59348" fill="#D9D9D9"/>
<circle cx="269.023" cy="208.389" r="1.59348" fill="#D9D9D9"/>
<circle cx="274.123" cy="197.553" r="1.59348" fill="#D9D9D9"/>
<circle cx="277.947" cy="205.203" r="1.59348" fill="#D9D9D9"/>
<circle cx="263.926" cy="203.291" r="1.59348" fill="#D9D9D9"/>
<circle cx="291.333" cy="205.203" r="1.59348" fill="#D9D9D9"/>
<circle cx="251.176" cy="212.851" r="1.59348" fill="#D9D9D9"/>
<circle cx="228.23" cy="217.313" r="1.59348" fill="#D9D9D9"/>
<circle cx="215.483" cy="210.939" r="1.59348" fill="#D9D9D9"/>
<circle cx="204.647" cy="221.137" r="1.59348" fill="#D9D9D9"/>
<circle cx="179.151" cy="216.038" r="1.59348" fill="#D9D9D9"/>
<circle cx="170.866" cy="222.412" r="1.59348" fill="#D9D9D9"/>
<circle cx="158.755" cy="216.038" r="1.59348" fill="#D9D9D9"/>
<circle cx="155.567" cy="224.324" r="1.59348" fill="#D9D9D9"/>
<path d="M491.474 191.499V218.907H484.781V191.499H491.474Z" fill="#6F4C22"/>
<path d="M421.361 205.521V232.929H414.668V205.521H421.361Z" fill="#6F4C22"/>
<path d="M325.751 199.147V226.555H319.059V199.147H325.751Z" fill="#6F4C22"/>
<path d="M61.6926 202.679V230.087H55V202.679H61.6926Z" fill="#6F4C22"/>
<path d="M202.735 191.498V218.906H196.042V191.498H202.735Z" fill="#6F4C22"/>
<path d="M568.916 209.027L488.924 194.048L418.492 209.027L324.158 203.927L200.185 196.597L58.0469 206.796" stroke="#878787" stroke-width="2"/>
<path d="M193.187 126L179 158.983H190.75L180.6 185L208.4 149.492H201.4L218 126H193.187Z" fill="#FFDC40"/>
<path d="M501.731 126L493 146.125H500.231L493.985 162L511.092 140.334H506.785L517 126H501.731Z" fill="#FFDC40"/>
<path d="M497.183 168.219C497.45 168.144 497.711 168.071 497.965 168C497.746 168.065 497.484 168.138 497.183 168.219C484.9 171.688 460.555 179.844 455.465 186.5C448.965 195 455.465 208.5 460.465 209.5C465.465 210.5 466.465 231.5 438.465 236.5C410.465 241.5 351.465 256 335.965 265C323.565 272.2 315.132 282.667 312.465 287C310.299 291.167 310.265 299.9 327.465 301.5C348.965 303.5 293.465 315.5 225.465 309.5C157.465 303.5 203.465 292 229.965 293.5C256.465 295 290.466 291.5 296.966 287C303.466 282.5 320.466 260.5 338.466 256.5C356.466 252.5 413.466 237.5 429.966 234C446.466 230.5 462.965 225 455.465 212C447.966 199 446.466 187.5 449.966 184C453.466 180.5 472.466 172.085 481.966 171C488.794 170.22 494.52 168.935 497.183 168.219Z" fill="#92B5D8"/>
<path d="M497.965 168C485.965 171.333 460.665 179.7 455.465 186.5C448.965 195 455.465 208.5 460.465 209.5C465.465 210.5 466.465 231.5 438.465 236.5C410.465 241.5 351.465 256 335.965 265C323.565 272.2 315.132 282.667 312.465 287C310.299 291.167 310.265 299.9 327.465 301.5C348.965 303.5 293.465 315.5 225.465 309.5C157.465 303.5 203.465 292 229.965 293.5C256.465 295 290.466 291.5 296.966 287C303.466 282.5 320.466 260.5 338.466 256.5C356.466 252.5 413.466 237.5 429.966 234C446.466 230.5 462.965 225 455.465 212C447.966 199 446.466 187.5 449.966 184C453.466 180.5 472.466 172.085 481.966 171C489.566 170.132 495.799 168.638 497.965 168Z" stroke="#92B5D8" stroke-width="0.4" stroke-linecap="round"/>
<path d="M195.505 214.104C195.673 214.068 195.839 214.034 196 214C195.861 214.031 195.695 214.066 195.505 214.104C187.727 215.752 172.312 219.626 169.09 222.787C164.974 226.824 169.09 233.237 172.255 233.712C175.421 234.187 176.055 244.161 158.325 246.536C140.596 248.911 103.238 255.798 93.4235 260.073C85.572 263.493 80.2321 268.464 78.5436 270.522C77.1717 272.502 77.1506 276.65 88.0414 277.41C101.655 278.36 66.5131 284.059 23.4563 281.209C-19.6005 278.36 9.52616 272.897 26.3056 273.61C43.0851 274.322 64.6137 272.66 68.7295 270.522C72.8452 268.385 83.6094 257.936 95.0068 256.036C106.404 254.136 142.496 247.011 152.943 245.349C163.391 243.686 173.838 241.074 169.09 234.899C164.341 228.724 163.391 223.262 165.607 221.6C167.823 219.937 179.854 215.94 185.869 215.425C190.193 215.054 193.818 214.444 195.505 214.104Z" fill="#92B5D8"/>
<path d="M196 214C188.402 215.583 172.382 219.557 169.09 222.787C164.974 226.824 169.09 233.237 172.255 233.712C175.421 234.187 176.055 244.161 158.325 246.536C140.596 248.911 103.238 255.798 93.4235 260.073C85.572 263.493 80.2321 268.464 78.5436 270.522C77.1717 272.502 77.1506 276.65 88.0414 277.41C101.655 278.36 66.5131 284.059 23.4563 281.209C-19.6005 278.36 9.52616 272.897 26.3056 273.61C43.0851 274.322 64.6137 272.66 68.7295 270.522C72.8452 268.385 83.6094 257.936 95.0068 256.036C106.404 254.136 142.496 247.011 152.943 245.349C163.391 243.686 173.838 241.074 169.09 234.899C164.341 228.724 163.391 223.262 165.607 221.6C167.823 219.937 179.854 215.94 185.869 215.425C190.681 215.013 194.628 214.303 196 214Z" stroke="#92B5D8" stroke-width="0.4" stroke-linecap="round"/>
</svg>
