<svg width="566" height="136" viewBox="0 0 566 136" fill="none" xmlns="http://www.w3.org/2000/svg">
<rect x="76" width="408" height="30.9488" rx="15.4744" fill="#ADB256" fill-opacity="0.25"/>
<rect y="105.038" width="408" height="30.9488" rx="15.4744" fill="#ADB256" fill-opacity="0.25"/>
<rect x="158" y="52.5195" width="408" height="30.9488" rx="15.4744" fill="#ADB256" fill-opacity="0.25"/>
<path fill-rule="evenodd" clip-rule="evenodd" d="M355 30.9541V30.9492H354.688C354.792 30.9496 354.896 30.9512 355 30.9541ZM354.605 30.9492H215V30.9541C218.048 31.129 220.491 35.9585 220.491 41.8906C220.491 47.8228 218.048 52.6523 215 52.8272V52.8322H355V52.8272C354.882 52.8305 354.765 52.8321 354.646 52.8321C348.203 52.8321 342.979 47.9335 342.979 41.8906C342.979 35.8609 348.18 30.9703 354.605 30.9492Z" fill="#ADB256" fill-opacity="0.25"/>
<path fill-rule="evenodd" clip-rule="evenodd" d="M215 83.4678H355V83.4728C354.882 83.4695 354.765 83.4679 354.646 83.4679C348.203 83.4679 342.979 88.3665 342.979 94.4094C342.979 100.437 348.177 105.327 354.599 105.351H215V105.346C218.048 105.171 220.491 100.341 220.491 94.4094C220.491 88.4772 218.048 83.6477 215 83.4728V83.4678ZM354.693 105.351H355V105.346C354.898 105.349 354.796 105.35 354.693 105.351Z" fill="#ADB256" fill-opacity="0.25"/>
</svg>
