<svg width="241" height="62" viewBox="0 0 241 62" fill="none" xmlns="http://www.w3.org/2000/svg">
<rect x="42.3574" y="18" width="198.642" height="16.0667" rx="8.03333" fill="#ECF2E2"/>
<rect y="45.2646" width="198.642" height="16.0667" rx="8.03333" fill="#ECF2E2"/>
<path fill-rule="evenodd" clip-rule="evenodd" d="M184.837 34.0664H185.01V34.069C184.953 34.0673 184.895 34.0664 184.837 34.0664ZM184.837 45.4267H116.849V45.4241C118.332 45.3331 119.522 42.826 119.522 39.7466C119.522 36.6671 118.332 34.16 116.849 34.069V34.0664H184.837C181.7 34.0664 179.157 36.6095 179.157 39.7465C179.157 42.8836 181.7 45.4267 184.837 45.4267ZM184.837 45.4267H185.01V45.4241C184.953 45.4258 184.895 45.4267 184.837 45.4267Z" fill="#ECF2E2"/>
<path d="M141.429 3.39772L137.044 5.41723C136.506 5.69706 136.269 6.36337 136.527 6.84875C136.527 6.84875 139.373 10.0306 139.614 10.6878C140.773 14.0732 142.576 19.8731 142.656 25.5585C142.699 26.2604 142.687 26.9552 142.618 27.6428C142.204 36.5733 149.945 50.7177 153.751 55.8668C153.816 55.8983 153.858 55.9384 153.875 55.9871C154.479 56.7601 155.513 56.9611 156.334 56.5779L161.654 54.0504L167.098 51.6432C167.99 51.2341 168.499 50.2195 168.222 49.2442C166.877 42.9454 161.413 27.8019 154.415 22.2474C149.464 18.3455 145.645 12.2896 143.744 8.8448C143.335 8.16618 142.836 3.9594 142.836 3.9594C142.622 3.37514 141.994 3.19093 141.429 3.39772Z" fill="#92B5D8"/>
<path d="M155.725 34.824C167.605 34.824 175.525 30.9413 178 29V58H124V29H134.8C136.825 30.9413 143.845 34.824 155.725 34.824Z" fill="#ECF2E2"/>
</svg>
