<svg width="525" height="159" viewBox="0 0 525 159" fill="none" xmlns="http://www.w3.org/2000/svg">
<rect x="479.905" y="158.907" width="211.481" height="11.2405" rx="5.62024" transform="rotate(180 479.905 158.907)" fill="#92B5D8" fill-opacity="0.15"/>
<rect x="494.937" y="120.757" width="211.481" height="11.2405" rx="5.62024" transform="rotate(180 494.937 120.757)" fill="#92B5D8" fill-opacity="0.15"/>
<rect x="525" y="139.832" width="211.481" height="11.2405" rx="5.62024" transform="rotate(180 525 139.832)" fill="#92B5D8" fill-opacity="0.15"/>
<path fill-rule="evenodd" clip-rule="evenodd" d="M400.598 147.665H328.031V147.663C328.091 147.664 328.152 147.665 328.212 147.665C331.552 147.665 334.259 145.886 334.259 143.691C334.259 141.499 331.559 139.722 328.225 139.717H400.598V139.719C399.019 139.783 397.752 141.537 397.752 143.691C397.752 145.845 399.019 147.599 400.598 147.663V147.665ZM328.199 139.717H328.031V139.719C328.087 139.718 328.143 139.717 328.199 139.717Z" fill="#92B5D8" fill-opacity="0.15"/>
<path fill-rule="evenodd" clip-rule="evenodd" d="M400.598 128.592H328.031V128.591C328.091 128.592 328.152 128.592 328.212 128.592C331.552 128.592 334.259 126.813 334.259 124.619C334.259 122.427 331.559 120.649 328.225 120.645H400.598V120.646C399.019 120.71 397.752 122.464 397.752 124.619C397.752 126.773 399.019 128.527 400.598 128.591V128.592ZM328.199 120.645H328.031V120.646C328.087 120.645 328.143 120.645 328.199 120.645Z" fill="#92B5D8" fill-opacity="0.15"/>
<rect width="39.8079" height="21.0891" transform="matrix(-1 0 0 1 238.545 24.6384)" fill="#ADB256"/>
<rect width="39.8079" height="21.0891" transform="matrix(-1 0 0 1 238.545 46.3008)" fill="#DE774B"/>
<rect width="39.8079" height="21.0891" transform="matrix(-1 0 0 1 238.545 67.9637)" fill="#E9B556"/>
<rect width="39.8079" height="21.0891" transform="matrix(-1 0 0 1 238.545 89.6263)" fill="#375592"/>
<rect width="39.831" height="21.0891" transform="matrix(-1 0 0 1 319.345 24.6384)" fill="#ADB256"/>
<rect width="39.831" height="21.0891" transform="matrix(-1 0 0 1 319.345 46.3008)" fill="#DE774B"/>
<rect width="39.831" height="21.0891" transform="matrix(-1 0 0 1 319.345 67.9637)" fill="#E9B556"/>
<rect width="39.831" height="21.0891" transform="matrix(-1 0 0 1 319.345 89.6263)" fill="#375592"/>
<rect width="39.8079" height="21.0891" transform="matrix(-1 0 0 1 278.817 24.6384)" fill="#ADB256"/>
<rect width="39.8079" height="21.0891" transform="matrix(-1 0 0 1 278.817 46.301)" fill="#DE774B"/>
<rect width="39.8079" height="21.0891" transform="matrix(-1 0 0 1 278.817 67.9636)" fill="#E9B556"/>
<rect width="39.8079" height="21.0891" transform="matrix(-1 0 0 1 278.817 89.6263)" fill="#375592"/>
<rect width="39.8079" height="21.0891" transform="matrix(-1 0 0 1 198.155 24.6384)" fill="#ADB256"/>
<rect width="39.8079" height="21.0891" transform="matrix(-1 0 0 1 198.155 46.3008)" fill="#DE774B"/>
<rect width="39.8079" height="21.0891" transform="matrix(-1 0 0 1 198.155 67.9637)" fill="#E9B556"/>
<rect width="39.8079" height="21.0891" transform="matrix(-1 0 0 1 198.155 89.6263)" fill="#375592"/>
<rect width="39.8079" height="21.0891" transform="matrix(-1 0 0 1 157.766 24.6384)" fill="#ADB256"/>
<rect width="39.8079" height="21.0891" transform="matrix(-1 0 0 1 157.766 46.301)" fill="#DE774B"/>
<rect width="39.8079" height="21.0891" transform="matrix(-1 0 0 1 157.766 67.9637)" fill="#E9B556"/>
<rect width="39.8079" height="21.0891" transform="matrix(-1 0 0 1 157.766 89.6263)" fill="#375592"/>
<rect width="39.8079" height="21.0891" transform="matrix(-1 0 0 1 117.377 24.6384)" fill="#ADB256"/>
<rect width="39.8079" height="21.0891" transform="matrix(-1 0 0 1 117.377 46.301)" fill="#DE774B"/>
<rect width="39.8079" height="21.0891" transform="matrix(-1 0 0 1 117.377 67.9637)" fill="#E9B556"/>
<rect width="39.8079" height="21.0891" transform="matrix(-1 0 0 1 117.377 89.6263)" fill="#375592"/>
<path d="M351.073 74.2532V85.5938H362.56V97.194H376.452V117.779H333.974V97.194V85.8334V85.5938V74.2532H351.073Z" fill="white"/>
<path d="M335.959 79.4805H339.287V76.1661H335.959V79.4805Z" fill="#4A4A4A"/>
<path d="M335.959 74.0737H339.287V70.7594H335.959V74.0737Z" fill="#F84B29"/>
<path d="M0.0097127 102.724H3.3374V99.4094H0.0097127V102.724Z" fill="#F84B29"/>
<path d="M345.762 79.4804H349.089V76.166H345.762V79.4804Z" fill="#4A4A4A"/>
<path d="M340.871 79.48H344.199V76.1656H340.871V79.48Z" fill="#4A4A4A"/>
<path d="M335.959 90.4245H339.287V87.1101H335.959V90.4245Z" fill="#4A4A4A"/>
<path d="M345.761 90.425H349.089V87.1107H345.761V90.425Z" fill="#4A4A4A"/>
<path d="M340.871 90.4245H344.199V87.1101H340.871V90.4245Z" fill="#4A4A4A"/>
<path d="M357.429 90.4245H360.757V87.1101H357.429V90.4245Z" fill="#4A4A4A"/>
<path d="M335.96 101.887H339.288V98.5726H335.96V101.887Z" fill="#4A4A4A"/>
<path d="M345.761 101.887H349.089V98.5728H345.761V101.887Z" fill="#4A4A4A"/>
<path d="M340.872 101.887H344.199V98.5726H340.872V101.887Z" fill="#4A4A4A"/>
<path d="M357.429 101.887H360.757V98.5729H357.429V101.887Z" fill="#4A4A4A"/>
<path d="M367.21 101.887H370.538V98.5726H367.21V101.887Z" fill="#4A4A4A"/>
<path d="M362.32 101.887H365.648V98.5726H362.32V101.887Z" fill="#4A4A4A"/>
<path d="M0.00559094 102.903H56.6115L66.0122 113.529H341.807L344.604 102.903H382.236V122.082C382.236 127.521 380.888 132.647 378.508 137.143C378.508 137.143 362.313 137.143 349.91 137.143H36.426H29.3899C26.0737 134.552 21.8348 133.486 18.0284 131.701C12.5783 129.166 7.90678 125.048 4.73477 119.98C1.56277 114.883 -0.109755 108.893 0.00559094 102.903Z" fill="#666666"/>
<path d="M18.1257 108.872C18.1257 109.619 18.7315 110.251 19.5104 110.251C20.2604 110.251 20.895 109.619 20.895 108.872C20.895 108.096 20.2604 107.464 19.5104 107.464C18.7315 107.464 18.1257 108.096 18.1257 108.872Z" fill="#4A4A4A"/>
<path d="M11.4026 108.872C11.4026 109.619 12.0084 110.251 12.7872 110.251C13.5661 110.251 14.1719 109.619 14.1719 108.872C14.1719 108.096 13.5661 107.464 12.7872 107.464C12.0084 107.464 11.4026 108.096 11.4026 108.872Z" fill="#4A4A4A"/>
<path d="M4.68383 108.872C4.68383 109.619 5.31847 110.251 6.06848 110.251C6.84735 110.251 7.45312 109.619 7.45312 108.872C7.45312 108.096 6.84735 107.464 6.06848 107.464C5.31847 107.464 4.68383 108.096 4.68383 108.872Z" fill="#4A4A4A"/>
<rect x="23.6211" y="99.7971" width="30.0635" height="4.29478" fill="#666666"/>
<circle cx="38.6532" cy="22.491" r="4.29478" fill="#666666"/>
<rect x="34.3584" y="22.491" width="8.58956" height="77.3061" fill="#666666"/>
<path d="M102.003 18.1975L102.003 21.4173L41.8706 43.9649L41.8666 37.5227L102.003 18.1975Z" fill="#666666"/>
<rect x="100.927" y="18.1962" width="2.14739" height="6.44217" fill="#666666"/>
<path d="M99.8535 20.3436L40.8003 22.491" stroke="#666666" stroke-width="0.4" stroke-linecap="round"/>
</svg>
