<svg width="114" height="24" viewBox="0 0 114 24" fill="none" xmlns="http://www.w3.org/2000/svg">
<path d="M114 16.7274H109.113V8.13281H114V9.42079H110.654V11.6116H113.784V12.8995H110.654V15.4273H114V16.7274Z" fill="#EA6F32"/>
<path d="M102.781 16.7274H100.867L96.7987 9.98654H96.7506C96.7586 10.1631 96.7666 10.3517 96.7746 10.5523C96.7907 10.7449 96.8027 10.9455 96.8107 11.1541C96.8188 11.3548 96.8268 11.5594 96.8348 11.768C96.8428 11.9767 96.8509 12.1853 96.8589 12.394V16.7274H95.4746V8.13281H97.3765L101.433 14.8255H101.469C101.461 14.665 101.453 14.4925 101.445 14.3079C101.437 14.1153 101.429 13.9187 101.421 13.7181C101.421 13.5174 101.417 13.3128 101.409 13.1042C101.401 12.8955 101.393 12.6949 101.385 12.5023V8.13281H102.781V16.7274Z" fill="#EA6F32"/>
<path d="M89.8397 16.7274H86.2285V15.8486L87.2637 15.4634V9.40875L86.2285 9.01153V8.13281H89.8397V9.01153L88.8045 9.40875V15.4634L89.8397 15.8486V16.7274Z" fill="#EA6F32"/>
<path d="M76.2168 16.7274V8.13281H77.7576V15.4273H81.3446V16.7274H76.2168Z" fill="#EA6F32"/>
<path d="M68.3404 16.7274H66.7996V9.43283H64.332V8.13281H70.808V9.43283H68.3404V16.7274Z" fill="#EA6F32"/>
<path d="M59.7003 12.4176C59.7003 13.0837 59.616 13.6896 59.4475 14.2353C59.287 14.7729 59.0383 15.2384 58.7012 15.6316C58.3722 16.0248 57.9509 16.3257 57.4373 16.5344C56.9318 16.743 56.3379 16.8473 55.6558 16.8473C54.9657 16.8473 54.3638 16.743 53.8502 16.5344C53.3447 16.3177 52.9274 16.0168 52.5984 15.6316C52.2694 15.2384 52.0206 14.7689 51.8521 14.2232C51.6916 13.6775 51.6113 13.0717 51.6113 12.4056C51.6113 11.5149 51.7558 10.7405 52.0447 10.0824C52.3416 9.4244 52.787 8.91483 53.3808 8.55371C53.9827 8.18457 54.745 8 55.6679 8C56.5747 8 57.325 8.18457 57.9188 8.55371C58.5126 8.91483 58.958 9.42841 59.2549 10.0945C59.5518 10.7525 59.7003 11.5269 59.7003 12.4176ZM53.2363 12.4176C53.2363 13.0676 53.3206 13.6254 53.4891 14.0908C53.6657 14.5562 53.9305 14.9133 54.2836 15.1621C54.6447 15.4109 55.1021 15.5353 55.6558 15.5353C56.2256 15.5353 56.687 15.4109 57.0401 15.1621C57.3932 14.9133 57.654 14.5562 57.8225 14.0908C57.991 13.6254 58.0753 13.0676 58.0753 12.4176C58.0753 11.4466 57.8867 10.6843 57.5095 10.1306C57.1324 9.57687 56.5185 9.30001 55.6679 9.30001C55.1061 9.30001 54.6447 9.4244 54.2836 9.67317C53.9305 9.92193 53.6657 10.279 53.4891 10.7445C53.3206 11.2099 53.2363 11.7676 53.2363 12.4176Z" fill="#EA6F32"/>
<path d="M41.5449 16.7274V8.13281H43.0857V15.4273H46.6728V16.7274H41.5449Z" fill="#EA6F32"/>
<path d="M32.5639 8.13281C33.6794 8.13281 34.4899 8.36553 34.9954 8.83097C35.509 9.29641 35.7658 9.93839 35.7658 10.7569C35.7658 11.1261 35.7096 11.4791 35.5973 11.8162C35.4849 12.1452 35.2964 12.4421 35.0315 12.7069C34.7667 12.9718 34.4176 13.1804 33.9843 13.3329C33.559 13.4853 33.0294 13.5616 32.3954 13.5616H31.5408V16.7274H30V8.13281H32.5639ZM32.4676 9.40875H31.5408V12.2856H32.2389C32.6562 12.2856 33.0093 12.2375 33.2982 12.1412C33.5951 12.0369 33.8198 11.8764 33.9723 11.6597C34.1247 11.443 34.201 11.1622 34.201 10.8171C34.201 10.3436 34.0605 9.99055 33.7797 9.75783C33.4988 9.52511 33.0615 9.40875 32.4676 9.40875Z" fill="#EA6F32"/>
<path d="M12 0L14.6942 8.2918H23.4127L16.3593 13.4164L19.0534 21.7082L12 16.5836L4.94658 21.7082L7.64074 13.4164L0.587322 8.2918H9.30583L12 0Z" fill="#EA6F32"/>
</svg>
