<svg width="495" height="145" viewBox="0 0 495 145" fill="none" xmlns="http://www.w3.org/2000/svg">
<rect x="87" width="408" height="33" rx="16.5" fill="#92B5D8" fill-opacity="0.15"/>
<rect x="58" y="112" width="408" height="33" rx="16.5" fill="#92B5D8" fill-opacity="0.15"/>
<rect y="56" width="408" height="33" rx="16.5" fill="#92B5D8" fill-opacity="0.15"/>
<path fill-rule="evenodd" clip-rule="evenodd" d="M245.49 44.6667C245.49 50.9917 243.048 56.1412 240 56.3281V56.3333H379.646H380V56.3281C379.883 56.3316 379.765 56.3333 379.646 56.3333C373.203 56.3333 367.98 51.11 367.98 44.6667C367.98 38.2233 373.203 33 379.646 33C379.765 33 379.883 33.0018 380 33.0053V33H379.646H240V33.0053C243.048 33.1922 245.49 38.3416 245.49 44.6667Z" fill="#92B5D8" fill-opacity="0.15"/>
<path fill-rule="evenodd" clip-rule="evenodd" d="M245.49 100.667C245.49 106.992 243.048 112.141 240 112.328V112.333H379.646H380V112.328C379.883 112.332 379.765 112.333 379.646 112.333C373.203 112.333 367.98 107.11 367.98 100.667C367.98 94.2233 373.203 89 379.646 89C379.765 89 379.883 89.0018 380 89.0053V89H379.646H240V89.0053C243.048 89.1922 245.49 94.3416 245.49 100.667Z" fill="#92B5D8" fill-opacity="0.15"/>
</svg>
