<svg width="301" height="290" viewBox="0 0 301 290" fill="none" xmlns="http://www.w3.org/2000/svg">
<path d="M290.491 144.912C290.491 224.946 225.613 289.824 145.579 289.824C135.352 289.824 125.372 288.766 115.741 286.748C96.6898 282.76 79.0103 275.033 63.5136 264.358C60.6991 262.427 57.9545 260.391 55.2867 258.258C39.3044 245.516 26.0773 229.457 16.6493 211.128C6.43196 191.281 0.666992 168.769 0.666992 144.912C0.666992 64.8787 65.5457 0 145.579 0C225.613 0 290.491 64.8787 290.491 144.912Z" fill="#F1E4D0" fill-opacity="0.75"/>
<path d="M45.534 161.152C45.534 159.898 44.6994 142.762 45.534 142.762C46.3687 142.762 35.1008 142.762 35.1008 142.762V133.15H49.29L54.5065 138.374V128.134L65.2527 117.372H75.9988V109.744H90.188V87.1751L84.7628 81.7418L73.4949 93.0264L68.487 88.011L79.7548 76.7264L82.4675 79.4431L88.7274 73.1739L96.6565 81.1149L101.038 76.7265V67.1137H80.5895L85.5974 62.0983H56.3845L48.1423 53.8439H36.7701L11.9912 78.6593H22.1636L28.9713 71.8415L35.9355 78.816L28.6322 86.13V98.4596L20.0509 107.054V140.672L45.534 161.152Z" fill="#D3BBA3"/>
<path d="M51.8495 161.152H66.2466L86.3367 181.272L91.4098 183.195L94.7278 194.81L88.6247 200.922V215.66C88.6247 215.66 83.7764 219.264 83.7764 220.515C83.7764 221.766 83.7764 254.051 83.7764 254.051L89.252 259.535V265.022L64.7902 240.524V221.139L57.4294 213.768V203.273L46.502 192.329V171.369L51.8495 161.152Z" fill="#D3BBA3"/>
<path d="M63.5137 264.358L66.9605 204.384L55.2868 258.258C39.3045 245.516 26.0774 229.457 16.6494 211.128L25.0439 155.164L112.882 169.732L115.741 286.748C96.69 282.76 79.0106 275.033 63.5137 264.358Z" fill="#3D342F"/>
<path d="M1.69434 99.8766C2.24975 99.6669 5.56737 48.3575 79.5196 45.6085C153.472 42.8593 159.028 75.9471 159.028 75.9471L158.067 89.9217L116.949 96.4175L119.793 181.716L22.1448 156.411L33.8742 114.126L1.69434 99.8766Z" fill="#C5614A"/>
<path d="M162.532 48.0393C165.45 55.8156 161.664 61.0049 154.319 64.0945C146.975 67.184 138.854 67.0041 135.937 59.2281L143.907 80.4687C146.825 88.2451 155.144 92.0443 162.488 88.9547C169.832 85.8652 173.421 77.0566 170.503 69.2803L162.532 48.0393Z" fill="#C5614A"/>
<path d="M1.69475 99.8765C1.69475 99.8765 -7.24007 134.156 38.7048 134.156L62.4001 110.633L26.9419 94.0878L1.69475 99.8765Z" fill="#C5614A"/>
<path d="M117.246 94.2461C117.233 94.2461 117.219 94.2442 117.205 94.2405C117.12 94.2176 117.071 94.1306 117.093 94.0462L119.64 84.6491C119.663 84.5645 119.75 84.5149 119.835 84.5376C119.919 84.5605 119.969 84.6475 119.946 84.7319L117.399 94.129C117.38 94.1997 117.316 94.2461 117.246 94.2461Z" fill="#363E44"/>
<path d="M91.2687 37.4264C82.2483 36.6826 68.3781 36.8049 52.0181 41.2289C46.133 42.8203 41.5139 47.6497 39.9004 53.8501C39.9004 53.8501 61.9985 51.8945 70.8671 59.0298C75.0162 62.368 80.2574 63.7963 85.3715 62.7367L85.7587 62.6564C91.5316 61.4604 96.4529 57.5416 98.8798 51.9567C100.352 48.5694 103.264 46.1547 109.005 46.6318C106.308 40.7752 97.953 37.9773 91.2687 37.4264Z" fill="#ACAAA4"/>
<path d="M72.3535 47.4514L78.7458 31.9601L91.3449 36.7444L86.2209 49.5892L72.3535 47.4514Z" fill="#674533"/>
<path d="M95.821 13.5826C94.8879 10.3404 91.5204 8.65372 88.5611 9.94653L76.4333 15.2452C73.3946 16.2178 72.0438 19.9689 73.6996 22.8366L78.0199 30.3191L98.1953 21.8319L95.821 13.5826Z" fill="#3D342F"/>
<path d="M97.0865 17.5175C99.7058 23.6456 100.843 34.7854 93.3716 38.3657C85.9 41.9461 78.7468 33.6894 76.1274 27.5611C73.5081 21.433 79.4422 14.799 85.2298 12.0256C91.0176 9.25214 94.4671 11.3894 97.0865 17.5175Z" fill="#674533"/>
<path d="M77.6269 26.3675C79.6359 28.2645 80.2962 30.9521 79.1017 32.3702C77.9073 33.7882 75.3102 33.4001 73.3013 31.5029C71.2923 29.6059 70.632 26.9183 71.8265 25.5002C73.021 24.082 75.6178 24.4703 77.6269 26.3675Z" fill="#674533"/>
<path d="M100.164 15.0555C100.164 15.0555 100.049 16.1298 99.5367 17.4001C99.1963 18.2442 97.7175 18.1834 96.9432 18.9431C95.9758 19.8923 95.7508 21.387 94.8027 21.6528C93.85 21.9198 93.1396 21.9473 93.1396 21.9473C93.1396 21.9473 93.2033 21.3507 93.4479 20.5209C93.7494 19.4973 94.9676 19.2971 96.0387 18.2461C96.9411 17.3607 97.3937 15.6854 98.3061 15.4068C99.355 15.0867 100.164 15.0555 100.164 15.0555Z" fill="white"/>
<path d="M95.397 17.068C94.3247 18.1204 93.7495 19.499 93.4482 20.5229C93.8022 21.0148 94.2662 21.4049 94.7965 21.6545C95.7456 21.3892 96.9367 20.8861 97.9062 19.9349C98.6865 19.1693 99.201 18.2317 99.5414 17.3824C99.342 16.572 98.8963 15.8902 98.3056 15.4092C97.3927 15.6878 96.2999 16.182 95.397 17.068Z" fill="#363E44"/>
<path d="M94.1818 27.6158C94.1497 27.6158 94.1172 27.6061 94.0892 27.5857C94.0184 27.5345 94.0024 27.4354 94.0535 27.3646C94.3939 26.8941 94.5242 26.4953 94.4408 26.1796C94.3738 25.9262 94.1858 25.7869 93.9252 25.594C93.7137 25.4372 93.4737 25.2595 93.229 24.9739C92.8719 24.5573 92.6195 24.0405 92.4788 23.4382C92.4589 23.353 92.5118 23.2678 92.597 23.248C92.6819 23.228 92.7674 23.2809 92.7872 23.3661C92.9161 23.9185 93.1459 24.39 93.4696 24.7677C93.6912 25.0262 93.9157 25.1927 94.1139 25.3395C94.4024 25.5533 94.6517 25.7379 94.747 26.0987C94.8557 26.5108 94.7089 26.9991 94.3103 27.5502C94.2792 27.593 94.2309 27.6158 94.1818 27.6158Z" fill="#363E44"/>
<path d="M72.1882 18.3153L93.9597 9.15651C91.5711 2.79082 84.7611 -0.319326 78.749 2.20975C72.737 4.73898 69.7996 11.9496 72.1882 18.3153Z" fill="#EA6F32"/>
<path d="M73.2838 20.244C79.7138 15.2368 86.665 12.119 94.2815 11.4108C95.3754 10.9507 95.9098 9.63875 95.4752 8.48056C95.0406 7.32238 93.8015 6.7565 92.7078 7.21674L71.7101 16.0499C70.6162 16.5101 70.0818 17.8219 70.5164 18.9801C70.951 20.1383 72.1899 20.704 73.2838 20.244Z" fill="#EA6F32"/>
<path d="M79.5199 51.4522C85.0235 51.4522 89.4851 50.1439 89.4851 48.5301C89.4851 46.9162 85.0235 45.6079 79.5199 45.6079C74.0163 45.6079 69.5547 46.9162 69.5547 48.5301C69.5547 50.1439 74.0163 51.4522 79.5199 51.4522Z" fill="#674533"/>
<path d="M159.665 25.0319C160.412 32.5022 154.922 41.3804 148.877 41.3804C142.831 41.3804 136.998 31.8312 136.998 25.43C136.998 19.0289 141.991 14.9528 147.944 13.8399C156.346 12.2693 159.029 18.6808 159.665 25.0319Z" fill="#674533"/>
<path d="M155.871 67.4163C162.545 64.6088 165.805 56.6046 163.154 49.5384L149.935 21.2837L129.764 29.7692L138.987 59.7055C141.638 66.7714 149.198 70.2236 155.871 67.4163Z" fill="#674533"/>
<path d="M132.32 12.2694C131.48 12.2694 129.91 12.6416 129.91 12.6416C129.91 12.6416 120.488 15.6111 120.292 15.673C117.893 16.3779 116.104 19.1169 116.104 22.3906C116.104 25.6701 117.9 28.4129 120.305 29.1119V29.1125L129.911 32.0361C130.671 32.3449 131.48 32.5118 132.32 32.5118C136.702 32.5118 140.254 27.9804 140.254 22.3906C140.254 16.8008 136.702 12.2694 132.32 12.2694Z" fill="#E0AA63"/>
<path d="M144.066 7.41077C142.823 7.41077 140.5 7.96159 140.5 7.96159C140.5 7.96159 126.555 12.3566 126.264 12.4482C122.714 13.4915 120.066 17.5451 120.066 22.3904C120.066 27.2443 122.723 31.3037 126.282 32.3382V32.339L140.499 36.6661C141.624 37.1231 142.823 37.3702 144.066 37.3702C150.551 37.3702 155.808 30.6635 155.808 22.3906C155.808 14.1174 150.551 7.41077 144.066 7.41077Z" fill="#DABD90"/>
<path d="M144.066 34.6347C149.367 34.6347 153.664 29.1527 153.664 22.3904C153.664 15.628 149.367 10.146 144.066 10.146C138.765 10.146 134.468 15.628 134.468 22.3904C134.468 29.1527 138.765 34.6347 144.066 34.6347Z" fill="#3D342F"/>
<path d="M103.5 12.2694C102.66 12.2694 101.09 12.6416 101.09 12.6416C101.09 12.6416 91.6681 15.6111 91.4716 15.673C89.0732 16.3779 87.2842 19.1169 87.2842 22.3906C87.2842 25.6701 89.0794 28.4129 91.4841 29.1119V29.1125L101.09 32.0361C101.85 32.3449 102.66 32.5118 103.5 32.5118C107.882 32.5118 111.434 27.9804 111.434 22.3906C111.434 16.8008 107.881 12.2694 103.5 12.2694Z" fill="#DABD90"/>
<path d="M115.246 7.41077C114.002 7.41077 111.679 7.96159 111.679 7.96159C111.679 7.96159 97.7345 12.3566 97.4436 12.4482C93.8938 13.4915 91.2461 17.5451 91.2461 22.3904C91.2461 27.2443 93.903 31.3037 97.4623 32.3382V32.339L111.679 36.6661C112.804 37.1231 114.002 37.3702 115.246 37.3702C121.731 37.3702 126.988 30.6635 126.988 22.3906C126.988 14.1174 121.731 7.41077 115.246 7.41077Z" fill="#DABD90"/>
<path d="M115.246 34.6347C120.547 34.6347 124.844 29.1527 124.844 22.3904C124.844 15.628 120.547 10.146 115.246 10.146C109.945 10.146 105.647 15.628 105.647 22.3904C105.647 29.1527 109.945 34.6347 115.246 34.6347Z" fill="#3D342F"/>
<path d="M136.569 35.4697C136.569 35.4697 132.454 34.2174 129.764 29.7691C127.426 25.9048 123.849 32.8145 129.778 37.3701C135.707 41.9259 136.569 35.4697 136.569 35.4697Z" fill="#674533"/>
<path d="M118.333 197.365C149.918 197.365 175.522 170.255 175.522 136.812C175.522 103.37 149.918 76.2599 118.333 76.2599C86.7488 76.2599 61.1445 103.37 61.1445 136.812C61.1445 170.255 86.7488 197.365 118.333 197.365Z" fill="white"/>
<path d="M118.331 197.523C110.615 197.523 103.128 195.928 96.0768 192.782C89.2441 189.733 83.1057 185.363 77.8325 179.794C72.5597 174.226 68.4174 167.739 65.5208 160.513C62.522 153.034 60.9965 145.086 60.9864 136.891C60.9764 128.696 62.4824 120.745 65.463 113.256C68.3419 106.023 72.468 99.5251 77.7271 93.9423C82.9867 88.3588 89.1142 83.9723 95.9397 80.9046C103.007 77.7281 110.516 76.1122 118.259 76.1014C118.285 76.1014 118.31 76.1014 118.335 76.1014C126.051 76.1014 133.538 77.6967 140.59 80.8433C147.423 83.8923 153.561 88.262 158.834 93.8309C164.107 99.3994 168.249 105.886 171.146 113.111C174.145 120.591 175.67 128.539 175.68 136.734C175.69 144.929 174.184 152.881 171.204 160.369C168.325 167.602 164.199 174.1 158.94 179.683C153.68 185.266 147.552 189.653 140.727 192.72C133.66 195.897 126.151 197.513 118.408 197.523C118.382 197.523 118.356 197.523 118.331 197.523ZM118.335 76.418C118.309 76.418 118.286 76.418 118.259 76.418C86.8129 76.4613 61.2624 103.589 61.3033 136.891C61.3231 153.024 67.2749 168.183 78.0626 179.576C88.8293 190.946 103.129 197.206 118.332 197.206C118.358 197.206 118.381 197.206 118.408 197.206C149.854 197.163 175.405 170.035 175.364 136.734C175.344 120.6 169.392 105.441 158.604 94.0485C147.838 82.6781 133.538 76.418 118.335 76.418Z" fill="#EA6F32"/>
<path d="M118.141 183.88C116.97 183.88 115.796 183.832 114.619 183.735C102.658 182.751 91.7747 176.892 83.9746 167.239C76.1769 157.588 72.3938 145.299 73.3225 132.635C73.8092 125.997 75.5502 119.68 78.4969 113.86C81.3439 108.238 85.1733 103.345 89.8797 99.318C98.8356 91.6552 110.093 87.9553 121.577 88.9006C133.538 89.8848 144.421 95.7432 152.221 105.397C160.019 115.048 163.802 127.337 162.873 140C162.386 146.639 160.645 152.955 157.699 158.775C154.852 164.398 151.022 169.291 146.316 173.317C138.278 180.195 128.386 183.88 118.141 183.88ZM118.055 89.0725C107.885 89.0725 98.0655 92.7309 90.0858 99.5587C80.4395 107.812 74.5986 119.567 73.6383 132.658C71.7337 158.631 90.129 181.402 114.645 183.419C115.812 183.515 116.979 183.563 118.14 183.563C128.311 183.564 138.129 179.905 146.11 173.077C155.756 164.824 161.597 153.069 162.557 139.977C164.462 114.005 146.067 91.2335 121.551 89.2163C120.382 89.1201 119.216 89.0725 118.055 89.0725Z" fill="#EA6F32"/>
<path d="M120.68 101.115C102.325 99.605 86.2893 114.142 84.8635 133.583C83.4376 153.025 97.1615 170.011 115.517 171.521C133.872 173.031 149.907 158.495 151.333 139.053C152.759 119.611 139.035 102.625 120.68 101.115ZM116.549 157.44C105.536 156.533 97.3019 146.342 98.1574 134.677C99.0129 123.012 108.634 114.29 119.647 115.196C130.66 116.102 138.895 126.294 138.039 137.959C137.184 149.624 127.562 158.346 116.549 157.44Z" fill="#ACAAA4"/>
<path d="M118.098 145.809C123.046 145.809 127.058 141.56 127.058 136.318C127.058 131.076 123.046 126.827 118.098 126.827C113.149 126.827 109.138 131.076 109.138 136.318C109.138 141.56 113.149 145.809 118.098 145.809Z" fill="#EA6F32"/>
<path d="M168.231 95.7296L139.485 120.846L136.681 117.245L165.427 92.1292L168.231 95.7296Z" fill="#8B865C"/>
<path d="M136.01 122.728L117.349 137.161L134.275 120.499L136.01 122.728Z" fill="#3D342F"/>
<path d="M178.966 83.4349L168.138 92.895L166.963 84.8658L177.79 75.4056L178.966 83.4349Z" fill="#D87355"/>
<path d="M179.783 84.4844L168.955 93.9444L176.173 96.6936L187.001 87.2334L179.783 84.4844Z" fill="#D87355"/>
<path d="M138.609 122.894L137.14 124.178L133.146 119.049L134.615 117.765L138.609 122.894Z" fill="#EA6F32"/>
<path d="M140.079 121.61L138.609 122.894L134.615 117.765L136.085 116.481L140.079 121.61Z" fill="white"/>
<path d="M23.2188 123.372C26.8176 134.491 49.7948 137.599 64.6333 139.221C66.5557 140.135 69.564 141.191 73.0113 140.63C76.941 139.99 77.6773 137.862 81.7249 136.503C88.5567 134.21 93.2559 138.207 94.3303 135.771C95.0677 134.099 92.4248 131.645 89.4641 130.07C86.4245 128.454 83.8161 128.763 83.7951 128.174C83.772 127.527 86.4603 127.575 89.8083 127.311C91.3637 127.188 95.8309 129.636 97.1565 127.509C98.2134 125.814 94.1704 122.038 89.5346 121.205C86.2549 120.616 83.4849 122.373 83.2825 121.767C83.1305 121.312 84.8056 120.308 86.4924 119.898C89.2762 119.222 93.872 121.674 95.0559 119.691C96.2159 117.748 92.6304 114.517 88.4122 113.465C84.8559 112.578 81.8554 114.694 81.5996 113.942C81.4197 113.413 82.5769 112.17 85.6217 110.446C88.1629 109.008 93.9811 107.945 92.9565 104.905C92.0947 102.347 85.96 103.31 80.4595 105.305C78.5614 105.993 75.9447 107.516 73.5784 108.951C70.7242 110.682 67.3116 111.038 64.1889 109.944C57.8422 107.722 46.0637 104.451 40.6959 102.897C35.3775 101.997 17.6379 106.127 23.2188 123.372Z" fill="#674533"/>
<path d="M300.667 140.786L233.445 151.047L249.606 164.441L178.6 224.934L149.131 197.431L62.3994 286.748L142.828 230.828L172.163 259.722L276.395 186.642L292.352 199.867L300.667 140.786Z" fill="#D87355"/>
<path d="M229.638 65.66C221.582 69.8087 212.392 70.5719 203.761 67.8089C195.131 65.0459 188.093 59.0873 183.944 51.0308C179.796 42.9743 179.032 33.7845 181.795 25.1541C184.559 16.5236 190.517 9.48582 198.574 5.33689C206.63 1.18813 215.82 0.424926 224.45 3.18808C233.081 5.95123 240.119 11.9097 244.267 19.9662C248.416 28.0227 249.18 37.2125 246.416 45.8429C243.653 54.4734 237.695 61.5112 229.638 65.66ZM202.403 12.7737C189.873 19.2266 184.928 34.6706 191.381 47.2011C197.834 59.7317 213.278 64.6763 225.809 58.2233C238.339 51.7704 243.284 36.3264 236.831 23.7959C230.378 11.2653 214.934 6.32071 202.403 12.7737Z" fill="white"/>
<path d="M190.527 45.3673C185.424 33.2004 190.478 18.9149 202.403 12.7735C205.563 11.1462 208.909 10.2446 212.248 10.0059L212.302 1.604C207.574 1.8536 202.909 3.10412 198.574 5.33687C190.517 9.48564 184.559 16.5236 181.796 25.1541C179.239 33.1394 179.704 41.6032 183.073 49.2055L190.527 45.3673Z" fill="#ACAAA4"/>
<path d="M216.345 1.63391L216.291 10.039C224.75 10.7787 232.664 15.7051 236.831 23.7957C239.068 28.1408 239.934 32.8361 239.59 37.3854L247.893 38.6668C248.506 32.2677 247.281 25.8179 244.267 19.966C240.119 11.9095 233.081 5.95102 224.45 3.18787C221.785 2.33471 219.067 1.81889 216.345 1.63391Z" fill="#C9C9C8"/>
<path d="M223.975 59.0777C212.425 63.9216 198.967 59.6128 192.378 48.9615L184.925 52.7997C189.156 59.9584 195.777 65.2522 203.762 67.8087C211.747 70.3653 220.211 69.9006 227.813 66.5308L223.975 59.0777Z" fill="#C5614A"/>
<path d="M238.968 41.3806C237.449 47.7802 233.49 53.5646 227.569 57.2269L231.408 64.68C238.566 60.4484 243.86 53.8283 246.416 45.8428C246.754 44.7898 247.037 43.7283 247.27 42.6615L238.968 41.3806Z" fill="#8D8D8D"/>
<path d="M248.036 136.724H185.35C185.262 136.724 185.191 136.653 185.191 136.566V95.4278C185.191 95.3404 185.262 95.2694 185.35 95.2694C185.437 95.2694 185.508 95.3404 185.508 95.4278V136.407H248.036C248.124 136.407 248.194 136.478 248.194 136.566C248.194 136.653 248.123 136.724 248.036 136.724Z" fill="#3D342F"/>
<path d="M225.573 108.974C225.519 108.974 225.466 108.946 225.436 108.897C225.392 108.822 225.416 108.725 225.491 108.68L232.937 104.229C233.012 104.184 233.109 104.209 233.154 104.284C233.199 104.359 233.175 104.456 233.1 104.501L225.654 108.951C225.628 108.967 225.6 108.974 225.573 108.974Z" fill="white"/>
<path d="M220.858 107.784C220.807 107.784 220.756 107.759 220.726 107.713L210.637 92.3543C210.589 92.2813 210.61 92.1831 210.683 92.1349C210.756 92.0871 210.854 92.1072 210.902 92.1804L220.99 107.539C221.038 107.612 221.018 107.71 220.945 107.758C220.918 107.776 220.888 107.784 220.858 107.784Z" fill="white"/>
<path d="M198.538 97.8149C198.491 97.8149 198.444 97.7937 198.413 97.7533C198.359 97.6841 198.372 97.5846 198.442 97.5311L206.279 91.4763C206.348 91.4226 206.448 91.4359 206.501 91.5048C206.554 91.574 206.542 91.6735 206.472 91.727L198.635 97.7819C198.606 97.8041 198.572 97.8149 198.538 97.8149Z" fill="white"/>
<path d="M199.228 99.6797C199.228 101.465 197.781 102.911 195.996 102.911C194.212 102.911 192.765 101.465 192.765 99.6797C192.765 97.8948 194.212 96.4479 195.996 96.4479C197.781 96.4479 199.228 97.8948 199.228 99.6797Z" fill="#ACAAA4"/>
<path d="M212.258 89.6253C212.258 91.4102 210.811 92.8571 209.026 92.8571C207.241 92.8571 205.794 91.4102 205.794 89.6253C205.794 87.8405 207.241 86.3936 209.026 86.3936C210.811 86.3936 212.258 87.8405 212.258 89.6253Z" fill="#ACAAA4"/>
<path d="M225.958 110.361C225.958 112.146 224.511 113.593 222.726 113.593C220.941 113.593 219.494 112.146 219.494 110.361C219.494 108.577 220.941 107.13 222.726 107.13C224.511 107.13 225.958 108.577 225.958 110.361Z" fill="#ACAAA4"/>
<path d="M239.091 102.824C239.091 104.609 237.645 106.056 235.86 106.056C234.075 106.056 232.628 104.609 232.628 102.824C232.628 101.039 234.075 99.5922 235.86 99.5922C237.645 99.5922 239.091 101.039 239.091 102.824Z" fill="#ACAAA4"/>
<path d="M200.215 108.046H192.178V130.084H200.215V108.046Z" fill="#D87355"/>
<path d="M213.479 103.655H205.441V130.084H213.479V103.655Z" fill="#D87355"/>
<path d="M226.742 115.842H218.705V130.084H226.742V115.842Z" fill="#D87355"/>
<path d="M240.006 111.753H231.969V130.084H240.006V111.753Z" fill="#D87355"/>
<path d="M286.069 108.452C285.9 97.6333 277.082 88.9136 266.223 88.9136C265.906 88.9136 265.591 88.9228 265.277 88.9375V108.452H286.069Z" fill="#D87355"/>
<path d="M263.318 110.411V98.2823C256.776 98.5893 251.566 103.989 251.566 110.607C251.566 117.422 257.091 122.946 263.906 122.946C270.721 122.946 276.245 117.422 276.245 110.607C276.245 110.541 276.241 110.477 276.24 110.411L263.318 110.411Z" fill="#674533"/>
</svg>
