<svg width="178" height="53" viewBox="0 0 178 53" fill="none" xmlns="http://www.w3.org/2000/svg">
<path d="M20.6767 17.5466C6.26772 17.9037 10.3517 22.7337 14.7777 24.0577C19.2037 25.3817 -1.90327 26.7437 0.139726 29.1267C2.18173 31.5097 37.5867 33.8927 43.7137 36.9567C49.8417 40.0207 43.0327 45.7267 49.5007 47.1287C55.9687 48.5307 75.0327 53.2966 88.6497 52.6157C102.267 51.9347 124.905 53.2967 136.564 50.9137C148.224 48.5307 151.628 45.5807 148.564 44.1617C145.5 42.7427 148.904 38.6577 163.883 36.9557C178.862 35.2537 180.904 30.1467 174.096 28.7857C167.288 27.4247 179.543 20.9877 170.692 20.1207C161.841 19.2537 140.379 16.9907 139.366 16.0797C138.352 15.1687 146.921 13.9297 132.948 10.8767C118.975 7.82367 107.712 10.0567 97.3307 8.70067C86.9497 7.34467 66.8627 14.2667 61.0757 16.0797C55.2877 17.8927 24.9457 17.4417 20.6767 17.5466Z" fill="#C2CB8E"/>
<path d="M21.915 23.8546C27.695 26.1146 32.926 30.5766 37.586 30.9996C42.246 31.4226 47.969 36.1856 52.394 38.5286C56.82 40.8716 61.075 42.5336 67.543 44.0856C74.011 45.6376 45.075 23.3396 37.926 20.7866C30.777 18.2336 21.915 23.8546 21.915 23.8546Z" fill="#D9D9D9"/>
<path d="M129.093 2.23349C134.436 8.02049 126.096 4.44649 124.393 8.19049C122.691 11.9355 123.059 13.9775 126.79 15.8505C130.521 17.7225 140.955 19.3605 145.525 22.7125C150.095 26.0635 153.329 28.6165 157.584 27.5955C161.839 26.5745 166.435 15.5105 164.222 13.6385C164.222 13.6385 166.839 13.0135 167.743 13.5815C168.647 14.1495 169.669 19.7665 166.094 24.8725C162.52 29.9785 159.115 30.8295 156.392 32.8725C153.669 34.9155 156.731 33.0425 150.264 35.9365C143.797 38.8305 81.8395 41.2135 76.7335 32.0215C71.6275 22.8305 87.9675 11.2555 87.9675 11.2555L97.3295 8.70248C97.3295 8.70248 98.1805 12.7875 105.159 13.2985C112.138 13.8095 114.691 13.8095 117.244 10.4045C119.797 7.00048 120.478 4.10648 123.712 3.76648C126.946 3.42648 124.738 0.0214844 124.738 0.0214844L129.093 2.23349Z" fill="#D9D9D9"/>
<path d="M43.9093 32.1915C43.8753 32.1625 43.8403 32.1365 43.8023 32.1135C43.5823 31.9765 43.2863 31.9425 43.0453 31.8115C42.7813 31.6685 42.5273 31.5255 42.2443 31.4225C41.6363 31.1995 41.0723 30.8935 40.4833 30.6255C40.0723 30.4395 39.7023 30.2155 39.2773 30.0485C38.8543 29.8815 38.4233 29.7015 38.0363 29.4625C37.5203 29.1445 37.0323 28.7955 36.4853 28.5335C35.7053 28.1595 34.9393 27.9695 34.0993 27.7715C33.6013 27.6545 33.1623 27.3995 32.6623 27.2925C31.9803 27.1465 31.2923 26.9745 30.6033 26.8665C28.6503 26.5615 26.9453 25.8815 25.1643 25.0795C24.1153 24.6065 22.9643 24.3435 21.9143 23.8545C21.2093 23.5255 20.5153 22.9585 19.9673 22.4035C19.7153 22.1485 19.5003 21.9635 19.3693 21.6375C19.2833 21.4225 19.2273 21.2515 19.0973 21.0485C18.7563 20.5145 18.8263 19.9995 18.9923 19.4215C19.0193 19.3265 19.0133 19.1575 19.0663 19.0755C19.1423 18.9605 19.2743 18.9675 19.3403 18.8765C19.4673 18.7005 19.4023 18.4395 19.5773 18.2675C19.8123 18.0375 20.3883 17.6855 20.6763 17.5475C20.9663 17.4095 21.2663 17.3885 21.5583 17.2685C21.8463 17.1505 22.0783 16.9475 22.3533 16.8035C22.7703 16.5835 23.2083 16.3985 23.6303 16.1875C24.2953 15.8545 24.9643 15.3595 25.6863 15.1875C25.9673 15.1205 26.2143 15.0885 26.4873 15.0015C26.6923 14.9355 26.7453 14.8495 26.9843 14.8175C27.3113 14.7735 27.6983 14.8305 28.0263 14.8305C29.1413 14.8295 30.2963 14.7375 31.4053 14.8655C32.0983 14.9455 32.7353 15.1875 33.4133 15.3075C34.0233 15.4165 34.7133 15.4555 35.3323 15.5075C35.8343 15.5495 36.2603 15.7455 36.7473 15.8375C37.5173 15.9825 38.4003 16.0015 39.1863 16.0315C40.5983 16.0855 42.0653 16.0695 43.4753 16.0165C44.6423 15.9725 45.7903 15.7035 46.9483 15.5585C48.1673 15.4065 49.3713 15.1265 50.5663 14.8395C51.5983 14.5915 52.5583 14.1315 53.5953 13.9045C55.9723 13.3855 58.1713 12.4645 60.4943 11.7715C61.5363 11.4605 62.4523 11.0455 63.4253 10.5845C63.7403 10.4355 64.0803 10.3915 64.4253 10.4065C64.9593 10.4295 65.3073 10.2855 65.8393 10.0655C75.7113 5.98048 93.7013 8.02248 96.9613 7.00148C100.221 5.98048 118.203 -0.147509 119.765 0.192491C121.328 0.532491 126.788 -1.33951 129.091 2.23549C129.091 2.23549 120.647 1.21449 113.838 4.61849C107.029 8.02249 105.045 9.38447 103.314 10.4055C101.583 11.4265 121.837 18.9165 136.561 21.9795C151.285 25.0435 149.923 19.2565 157.072 14.8305C164.221 10.4045 168.646 14.1495 168.646 14.1495C168.646 14.1495 161.497 13.4685 158.093 18.5755C154.689 23.6815 156.389 27.0865 150.262 30.8305C144.135 34.5745 144.816 36.9585 152.986 35.5965C152.986 35.5965 137.852 45.4685 126.525 46.8305C126.408 46.8445 126.291 46.8585 126.173 46.8725C122.45 47.3115 118.712 47.6245 114.969 47.8285C110.509 48.0705 106.041 48.1575 101.575 48.1055C96.3963 48.0455 91.2203 47.8005 86.0573 47.3905C84.7503 47.2865 83.3983 47.0495 82.0863 47.1005C81.3163 47.1305 80.6103 47.4085 79.8553 47.5175C78.6783 47.6875 77.4373 47.4475 76.2743 47.2715C74.9163 47.0655 73.5693 46.7965 72.2333 46.4815C71.5433 46.3185 70.8133 46.1145 70.1193 45.9965C69.7173 45.9285 69.3853 45.7295 68.9953 45.6495C68.3653 45.5195 67.8713 45.2805 67.2983 44.9585C66.4683 44.4915 65.4823 44.2615 64.6043 43.8985C64.1963 43.7295 63.8573 43.4605 63.4503 43.2945C63.0273 43.1215 62.7533 42.8795 62.3433 42.6735C62.0693 42.5355 61.6233 42.4545 61.3973 42.2395C61.3143 42.1605 61.2943 42.0035 61.2133 41.9325C61.0973 41.8305 60.8863 41.8285 60.7633 41.7295C60.3283 41.3775 59.9573 40.9935 59.4533 40.6985C59.1583 40.5255 58.8733 40.4675 58.5593 40.3665C58.2183 40.2575 57.9863 40.0465 57.6653 39.8855C57.2873 39.6965 56.8723 39.7385 56.4933 39.5865C56.1783 39.4595 55.9363 39.2745 55.6153 39.1675C55.0433 38.9775 54.5473 38.7225 53.9583 38.5755C53.0383 38.3455 52.0883 37.9295 51.2173 37.5565C50.5063 37.2525 49.7533 36.9875 49.0793 36.6265C47.9743 36.0345 46.5913 35.2745 45.9143 34.1485C45.6643 33.7335 45.4623 33.3895 45.0783 33.0845C44.8743 32.9225 44.5983 32.8175 44.3883 32.6635C44.2133 32.5305 44.0793 32.3345 43.9093 32.1915Z" fill="white"/>
<path d="M45.2461 17.3823C54.6081 18.9143 66.1821 28.1053 74.8631 27.5953C83.5441 27.0843 106.863 32.0213 111.288 32.1913C115.714 32.3613 87.9691 23.7563 83.5431 24.0593C79.1181 24.3623 73.1601 25.3833 68.9051 22.6603C64.6501 19.9353 45.2461 17.3823 45.2461 17.3823Z" fill="#D9D9D9"/>
<path d="M92.5648 9.2115C92.1628 9.6135 91.8078 10.1395 91.8668 10.7335C91.9748 11.8315 93.2538 12.5425 94.1168 12.9915C95.7498 13.8415 97.5428 14.3915 99.3078 14.8925C101.466 15.5055 103.654 16.0095 105.845 16.4905C106.88 16.7175 107.989 16.8475 108.962 17.2735C109.393 17.4625 109.757 17.5445 110.233 17.5515C110.458 17.5545 111.841 17.5905 111.947 17.3525C112.076 17.0635 111.929 17.0135 111.802 16.8295C111.707 16.7575 111.637 16.6675 111.591 16.5595C111.492 16.5115 111.39 16.5055 111.284 16.5395C111.097 16.4155 111.001 16.2855 110.782 16.1855C110.561 16.0845 110.321 15.9955 110.093 15.8875C109.855 15.7745 109.495 15.5505 109.255 15.4995C108.807 15.4045 108.338 15.4245 107.885 15.3475C107.11 15.2155 106.152 14.9005 105.464 14.5345C105.308 14.4515 104.979 14.3865 104.859 14.2875C104.71 14.1655 104.689 13.9165 104.485 13.8305C104.021 13.6365 103.422 13.7515 102.95 13.6015C102.481 13.4535 102.063 13.2435 101.587 13.1295C101.151 13.0245 100.803 12.8165 100.396 12.6505C100.043 12.5065 99.6318 12.2835 99.2378 12.3235C99.1278 12.3345 99.0318 12.4125 98.9238 12.4235C98.5688 12.4595 98.3058 12.2715 98.0088 12.0995C97.7868 11.9715 97.5668 11.9405 97.3358 11.8565C96.7838 11.6555 96.4748 11.1305 96.1868 10.6945C95.8658 10.2095 95.4698 9.65849 95.0858 9.21449C94.8538 8.94649 94.6418 8.78949 94.4798 8.48649C94.3938 8.32449 94.4738 8.26249 94.2808 8.17549C93.6748 7.90549 92.9188 8.8575 92.5648 9.2115Z" fill="#D9D9D9"/>
<path d="M82.0903 47.0995C78.1513 47.4555 92.0534 44.4455 98.0104 44.1055C103.968 43.7655 104.478 45.6375 113.84 44.1055C123.202 42.5735 127.287 41.0415 128.138 41.0415C128.989 41.0415 119.725 47.5095 111.763 45.9775C103.802 44.4455 86.4023 46.7095 82.0903 47.0995Z" fill="#D9D9D9"/>
</svg>
