<svg width="318" height="113" viewBox="0 0 318 113" fill="none" xmlns="http://www.w3.org/2000/svg">
<path d="M400.496 37.7287C400.077 37.7287 399.659 37.7478 399.24 37.7861C399.316 37.5947 399.373 37.3841 399.411 37.1544C400.553 32.8475 401.01 28.7129 400.896 24.8079C403.123 23.2574 404.951 20.6158 405.693 17.6871C406.95 12.8634 404.779 8.90099 400.953 8.90099C399.64 8.90099 398.326 9.36038 397.07 10.1069C393.358 3.84751 387.19 0 379.309 0C369.258 0 358.749 6.25939 350.926 15.8495C348.698 10.0495 344.015 6.31683 337.619 6.31683C329.395 6.31683 320.772 12.4614 315.404 21.3049C313.919 20.2138 312.034 19.5248 309.921 19.5248C302.725 19.5248 295.016 26.8178 292.731 35.8337C292.693 35.9485 292.655 36.0825 292.617 36.2356C291.418 35.4317 289.933 34.9723 288.277 34.9723C285.307 34.9723 282.28 36.4079 279.596 38.7049C276.684 34.398 272.115 31.8139 266.347 31.8139C254.297 31.8139 229.968 43.299 225 58H273.029H282.395H282.794H291.646H320.372H326.083H339.732H361.148H375.711H388.96H414.831C416.087 46.4574 410.262 37.7287 400.496 37.7287Z" fill="#738E51"/>
<path d="M3.05176e-05 113C3.05176e-05 113 23.9591 -3.71786 113.504 0.0912452C144.51 1.39885 174.861 5.89017 203.854 31.758C228.518 53.703 252.426 62.572 299.74 55.2949C444.25 32.9519 512 111.01 512 111.01L3.05176e-05 113Z" fill="#ADB256"/>
</svg>
