<svg width="301" height="299" viewBox="0 0 301 299" fill="none" xmlns="http://www.w3.org/2000/svg">
<path d="M299.563 149.448C299.563 231.987 232.654 298.896 150.115 298.896C139.567 298.896 129.275 297.805 119.343 295.723C99.6954 291.611 81.4625 283.642 65.4807 272.633C62.5782 270.642 59.7477 268.542 56.9963 266.342C40.5138 253.201 26.8727 236.639 17.1496 217.737C6.61241 197.268 0.666992 174.051 0.666992 149.448C0.666992 66.9095 67.5765 0 150.115 0C232.654 0 299.563 66.9095 299.563 149.448Z" fill="#F1E4D0" fill-opacity="0.75"/>
<path d="M153.352 233.967C234.712 233.967 300.667 225.988 300.667 216.146C300.667 206.303 234.712 198.324 153.352 198.324C71.9922 198.324 6.03711 206.303 6.03711 216.146C6.03711 225.988 71.9922 233.967 153.352 233.967Z" fill="#C5614A"/>
<path d="M84.4456 119.407C84.4456 119.407 47.6237 61.2501 32.2276 71.8406C16.8315 82.4308 65.5312 105.341 75.7141 122.611L84.4456 119.407Z" fill="#DFC7A1"/>
<path d="M83.8807 128.297C83.8807 128.297 42.5785 84.9058 28.546 97.3894C14.5132 109.873 64.1306 119.877 75.6627 132.917L83.8807 128.297Z" fill="#D1B995"/>
<path d="M33.0314 178.367C47.591 184.75 40.393 207.3 58.6103 206.537C76.8307 205.765 75.6169 204.362 82.4366 213.595C82.4366 213.595 83.8541 222.764 90.8667 224.152C112.836 228.501 115.962 212.392 136.577 201.199C142.35 198.065 141.499 191.375 146.338 188.269C145.844 184.362 144.141 178.4 138.598 173.744C136.567 172.032 134.01 170.503 130.81 169.315C113.444 162.881 106.19 169.985 96.3432 145.979C86.4928 121.965 61.1828 148.403 49.3731 144.899C37.5635 141.395 27.6961 135.639 15.7452 146.491C3.79108 157.353 18.469 171.995 33.0314 178.367Z" fill="#DFC7A1"/>
<path d="M70.9353 160.836C83.2483 153.567 86.5875 146.492 86.7235 146.194L85.7732 145.758C85.741 145.829 82.402 152.851 70.4033 159.935L70.9353 160.836Z" fill="#C4C695"/>
<path d="M202.488 150.464C202.488 150.464 257.368 144.468 259.835 161.611C262.302 178.754 221.405 156.282 205.532 158.608L202.488 150.464Z" fill="#DFC7A1"/>
<path d="M205.805 147.198C205.805 147.198 264.717 103.809 278.938 121.814C293.16 139.82 231.352 141.279 214.706 154.506L205.805 147.198Z" fill="#D1B995"/>
<path d="M222.377 209.676C212.943 205.021 204.6 218.278 197.222 208.724C189.847 199.165 191.074 199.182 183.495 199.662C183.495 199.662 178.252 202.852 174.56 199.891C162.996 190.615 174.252 183.846 171.129 168.632C170.254 164.372 169.565 160.271 169.074 156.496C171.261 155.081 175.004 153.403 179.723 154.226C181.455 154.525 183.318 155.169 185.284 156.284C195.94 162.339 195.437 169.042 211.782 163.798C228.13 158.553 225.541 182.643 232.347 187.132C239.154 191.622 246.272 194.167 245.874 204.847C245.474 215.532 231.809 214.337 222.377 209.676Z" fill="#D1B995"/>
<path d="M152.034 100.173C152.034 100.173 123.368 57.6741 84.152 68.3567C36.0395 81.4628 49.3694 135.1 58.9068 150.247C68.4438 165.394 144.741 213.026 152.034 213.89C159.327 214.755 152.034 100.173 152.034 100.173Z" fill="#ACAAA4"/>
<path d="M151.903 100.173C151.903 100.173 181.075 56.195 219.784 68.3565C258.494 80.5177 259.265 125.493 245.03 150.247C228.466 179.049 159.196 213.026 151.903 213.89C144.609 214.755 151.903 100.173 151.903 100.173Z" fill="#C9C9C8"/>
<path d="M162.325 63.0091C159.101 64.4136 157.691 63.8233 157.135 62.5802C156.578 61.3366 157.086 59.9109 160.31 58.5062C166.184 55.9474 170.03 56.962 170.03 56.962C170.03 56.962 168.284 60.4129 162.325 63.0091Z" fill="#EA6F32"/>
<path d="M150.032 89.9649C147.47 90.2261 146.625 89.5019 146.523 88.5134C146.422 87.5247 147.101 86.6455 149.663 86.3846C154.33 85.9091 156.77 87.4695 156.77 87.4695C156.77 87.4695 154.767 89.4825 150.032 89.9649Z" fill="#EA6F32"/>
<path d="M151.255 143.299L150.602 143.168C150.623 143.069 152.65 133.072 150.957 117.902C149.394 103.905 144.255 82.515 128.64 60.1003L129.19 59.728C144.891 82.2663 150.055 103.78 151.622 117.858C153.322 133.123 151.276 143.199 151.255 143.299Z" fill="#3D342F"/>
<path d="M143.894 87.4629L143.378 87.0482C158.711 68.5604 153.762 43.4545 153.71 43.203L154.364 43.0712C154.416 43.3256 159.431 68.7293 143.894 87.4629Z" fill="#3D342F"/>
<path d="M135.173 75.753C128.446 74.9944 123.755 71.1032 123.701 71.058L124.135 70.5588C124.195 70.6091 130.208 75.5857 138.312 75.2029L138.343 75.8589C137.246 75.9106 136.186 75.8671 135.173 75.753Z" fill="#3D342F"/>
<path d="M151.877 128.475C138.453 125.416 128.202 117.639 121.408 105.36C121.173 104.935 120.95 104.532 120.879 104.457C120.88 104.458 120.901 104.48 120.943 104.499L121.225 103.904C121.403 103.986 121.501 104.156 121.993 105.045C128.693 117.153 138.798 124.82 152.028 127.835L151.877 128.475Z" fill="#3D342F"/>
<path d="M133.473 119.28L132.854 119.038C136.216 110.756 131.918 97.536 131.874 97.4035L132.508 97.199C132.519 97.2326 133.629 100.617 134.299 104.996C134.92 109.054 135.282 114.826 133.473 119.28Z" fill="#3D342F"/>
<path d="M128.628 56.4129C131.764 59.9215 131.855 61.6946 130.818 62.5941C129.78 63.4937 128.007 63.1791 124.871 59.6704C119.16 53.2789 118.277 48.5609 118.277 48.5609C118.277 48.5609 122.833 49.9282 128.628 56.4129Z" fill="#EA6F32"/>
<path d="M125.728 69.1496C129.793 71.5621 130.423 73.2238 129.709 74.3892C128.995 75.5543 127.206 75.7814 123.141 73.3692C115.734 68.9752 113.448 64.7416 113.448 64.7416C113.448 64.7416 118.213 64.6915 125.728 69.1496Z" fill="#EA6F32"/>
<path d="M133.969 95.4895C135.193 98.7402 134.508 100.092 133.213 100.567C131.918 101.042 130.504 100.461 129.28 97.2101C127.05 91.2884 128.317 87.5663 128.317 87.5663C128.317 87.5663 131.707 89.4815 133.969 95.4895Z" fill="#EA6F32"/>
<path d="M143.177 66.1254C143.578 69.5715 142.585 70.7244 141.213 70.882C139.841 71.0394 138.61 70.142 138.209 66.6959C137.479 60.4186 139.61 57.0992 139.61 57.0992C139.61 57.0992 142.436 59.7566 143.177 66.1254Z" fill="#EA6F32"/>
<path d="M142.643 116.813C142.044 120.233 140.762 121.065 139.402 120.837C138.041 120.608 137.116 119.405 137.715 115.985C138.807 109.755 141.798 107.158 141.798 107.158C141.798 107.158 143.75 110.492 142.643 116.813Z" fill="#EA6F32"/>
<path d="M124.291 105.053C126.194 107.969 125.818 109.434 124.656 110.171C123.494 110.908 121.986 110.638 120.083 107.722C116.617 102.411 117.045 98.5094 117.045 98.5094C117.045 98.5094 120.774 99.6644 124.291 105.053Z" fill="#EA6F32"/>
<path d="M156.216 40.678C156.758 45.3251 155.807 46.8352 154.435 46.9932C153.063 47.151 151.79 45.8966 151.248 41.2497C150.262 32.7843 152.269 28.4073 152.269 28.4073C152.269 28.4073 155.215 32.0895 156.216 40.678Z" fill="#EA6F32"/>
<path d="M161.437 141.814C161.437 143.149 156.495 144.232 150.399 144.232C144.302 144.232 139.36 143.149 139.36 141.814C139.36 140.478 144.302 139.395 150.399 139.395C156.495 139.395 161.437 140.478 161.437 141.814Z" fill="#3D342F"/>
<path d="M239.105 221.905C238.88 221.905 238.685 221.737 238.657 221.508L228.474 137.79C228.444 137.542 228.62 137.316 228.868 137.286C229.117 137.256 229.341 137.433 229.372 137.681L239.555 221.398C239.584 221.646 239.408 221.872 239.16 221.902C239.142 221.904 239.123 221.905 239.105 221.905Z" fill="#3D342F"/>
<path d="M272.542 211.41C272.331 211.41 272.143 211.262 272.1 211.047L257.461 137.823C257.412 137.578 257.571 137.34 257.816 137.291C258.061 137.242 258.299 137.401 258.348 137.646L272.986 210.87C273.035 211.114 272.876 211.353 272.632 211.402C272.602 211.408 272.572 211.41 272.542 211.41Z" fill="#3D342F"/>
<path d="M259.841 148.13H230.251V149.176H259.841V148.13Z" fill="#3D342F"/>
<path d="M265.872 177.068H233.771V178.115H265.872V177.068Z" fill="#3D342F"/>
<path d="M270.145 197.086L236.547 199.327L236.616 200.37L270.214 198.13L270.145 197.086Z" fill="#3D342F"/>
<path d="M84.1684 220.024C84.1503 220.024 84.1318 220.023 84.1133 220.021C83.8657 219.99 83.6891 219.765 83.7192 219.517L92.2049 149.751C92.235 149.503 92.4604 149.327 92.7083 149.357C92.9561 149.387 93.1327 149.613 93.1026 149.861L84.6169 219.626C84.5889 219.856 84.3938 220.024 84.1684 220.024Z" fill="#3D342F"/>
<path d="M49.0337 223.481C49.0044 223.481 48.9745 223.478 48.9445 223.472C48.6997 223.423 48.541 223.185 48.5899 222.94L63.2286 149.717C63.2776 149.471 63.5156 149.313 63.7606 149.362C64.0053 149.411 64.1642 149.649 64.1152 149.894L49.4765 223.118C49.4336 223.333 49.2449 223.481 49.0337 223.481Z" fill="#3D342F"/>
<path d="M91.3262 160.201H61.7363V161.247H91.3262V160.201Z" fill="#3D342F"/>
<path d="M87.806 189.139H55.7041V190.185H87.806V189.139Z" fill="#3D342F"/>
<path d="M51.4416 209.159L51.3721 210.202L84.9702 212.443L85.0397 211.399L51.4416 209.159Z" fill="#3D342F"/>
<path d="M237.949 143.669C237.949 143.669 237.906 145.393 236.74 145.88C235.574 146.366 232.194 146.805 233.457 147.914C234.181 148.551 237.596 148.139 238.56 148.139C239.524 148.139 240.429 148.56 241.146 147.914C241.934 147.204 241.146 143.669 241.146 143.669C241.146 143.669 240.314 144.102 239.566 144.083C238.488 144.055 237.949 143.669 237.949 143.669Z" fill="#2F1A31"/>
<path d="M251.344 143.668C251.344 143.668 251.301 145.393 250.134 145.88C248.968 146.366 245.589 146.805 246.851 147.914C247.576 148.55 250.991 148.139 251.955 148.139C252.919 148.139 253.824 148.56 254.541 147.914C255.329 147.203 254.541 143.668 254.541 143.668C254.541 143.668 253.708 144.102 252.961 144.083C251.882 144.055 251.344 143.668 251.344 143.668Z" fill="#2F1A31"/>
<path d="M229.281 96.3882C229.281 96.3882 229.065 103.608 231.368 117.457C233.031 127.455 234.993 137.53 235.956 142.36C236.301 144.088 237.753 145.351 239.474 145.42L240.399 145.457C242.26 145.532 243.77 143.932 243.634 142.031L241.298 109.353L240.722 98.5978L229.281 96.3882Z" fill="#EA6F32"/>
<path d="M236.261 99.4778L249.241 143.126C249.784 144.953 251.355 146.205 253.145 146.237L253.925 146.251C255.767 146.284 257.175 144.501 256.84 142.561L249.739 101.548C249.636 101.06 249.293 100.672 248.843 100.537C246.409 99.8017 236.022 97.6725 236.261 99.4778Z" fill="#EA6F32"/>
<path d="M251.174 99.7948L248.231 96.3744C248.284 96.3418 254.06 92.6926 253.507 87.4963C253.219 84.7875 251.596 82.6085 248.684 81.0195C246.366 79.755 244.092 79.3585 244.069 79.3549L244.761 74.9172C244.882 74.9372 247.752 75.4194 250.748 77.054C254.959 79.3512 257.422 82.7938 257.871 87.0094C258.233 90.4139 257.043 93.7993 254.43 96.7998C252.555 98.9523 252.639 99.0816 251.174 99.7948Z" fill="#F7B686"/>
<path d="M228.183 85.2937C225.815 85.2937 223.306 84.3929 220.716 82.6112C218.76 81.266 217.457 79.8758 217.402 79.8174L220.578 76.7157L218.99 78.2664L220.575 76.7123C221.696 77.9048 225.292 80.9618 228.447 80.793C229.879 80.7159 231.115 79.9684 232.225 78.5073L235.69 81.2661C233.801 83.7531 231.369 85.1414 228.658 85.2813C228.5 85.2897 228.342 85.2937 228.183 85.2937Z" fill="#F7B686"/>
<path d="M248.316 78.7216C248.316 78.7216 246.589 73.8599 240.437 74.0811C234.285 74.3023 229.64 82.3912 228.489 99.7768C228.489 99.7768 238.563 97.5664 250.364 102.723C250.364 102.723 251.018 85.8076 248.316 78.7216Z" fill="#C5614A"/>
<path d="M253.148 77.6939L248.279 81.2204C248.279 81.2204 237.076 82.342 234.102 81.8021C231.128 81.2621 230.312 78.8555 230.312 78.8555C230.312 78.8555 233.479 75.2434 238.863 74.2789C239.369 74.1877 239.893 74.1208 240.437 74.0817C241.35 74.0167 242.263 74.0448 243.159 74.1415C248.478 74.7156 253.148 77.6939 253.148 77.6939Z" fill="#C5614A"/>
<path d="M223.22 81.4145C223.22 81.4145 221.898 77.6417 220.578 76.7156C219.259 75.7893 218.479 76.9381 218.479 76.9381L217.115 76.6294C217.115 76.6294 215.776 82.4654 219.998 82.195C220.331 82.1739 223.22 81.4145 223.22 81.4145Z" fill="#F7B686"/>
<path d="M243.148 74.14C242.49 74.0696 241.918 73.6564 241.657 73.0484L240.836 71.1429L240.599 70.5898L239.199 67.3378L239.442 70.7079L239.588 72.7308L239.629 73.3073C239.663 73.778 239.335 74.1941 238.871 74.2777L238.863 74.2791C238.614 74.6844 238.27 75.508 239.297 75.835C240.504 76.2195 242.458 75.2684 243.158 74.1414C243.155 74.1408 243.151 74.1405 243.148 74.14Z" fill="#F7B686"/>
<path d="M250.604 94.8651C250.604 94.8651 248.781 93.1956 247.342 93.343C245.902 93.4903 244.175 94.7673 245.087 94.8654C245.998 94.9635 247.198 94.7671 247.198 94.7671C247.198 94.7671 244.655 95.3072 245.039 95.8475C245.423 96.3877 247.63 95.8964 247.63 95.8964C247.63 95.8964 244.655 96.7806 245.183 97.1734C245.711 97.5664 247.965 96.8787 247.965 96.8787C247.965 96.8787 245.231 97.8118 245.854 98.2541C246.478 98.6959 248.109 97.4682 248.493 98.0083C248.877 98.5485 249.596 100.66 251.227 99.7761L250.604 94.8651Z" fill="#F7B686"/>
<path d="M249.177 81.2858C249.177 81.2858 248.907 80.4756 250.13 79.5731C251.353 78.6707 252.939 78.468 252.939 78.468L253.26 80.0152L251.533 80.7702L249.177 81.2858Z" fill="#F7B686"/>
<path d="M243.006 66.7828C243.006 66.7828 242.875 67.336 243.193 68.4696C243.658 70.128 241.764 70.8205 241.279 70.347C241.219 70.2885 241.299 67.4676 241.299 67.4676L241.904 67.1075L243.006 66.7828Z" fill="#74A1BD"/>
<path d="M235.882 67.8766C235.882 65.7191 237.299 63.9702 239.046 63.9701C240.794 63.9701 242.211 65.719 242.211 67.8766C242.211 70.034 240.794 71.7829 239.047 71.7829C237.299 71.783 235.882 70.034 235.882 67.8766Z" fill="#F7B686"/>
<path d="M237.793 64.8781C237.881 64.9981 237.383 67.0077 241.104 67.4875C244.824 67.9673 242.589 63.4503 239.844 63.3484C235.879 63.201 235.303 65.8679 235.683 66.8276C236.064 67.7875 237.793 64.8781 237.793 64.8781Z" fill="#3D342F"/>
<path d="M242.189 63.1392C242.189 63.1392 240.518 64.258 241.803 65.311C243.089 66.364 246.625 66.8246 245.66 68.6015C244.696 70.3783 243.861 73.0109 245.596 73.3399C247.332 73.6691 248.425 73.5371 249.132 74.9193C249.839 76.3013 252.989 75.4457 252.732 73.8005C252.474 72.1553 255.174 70.7075 254.017 69.1937C252.86 67.6801 250.032 66.364 249.324 64.3896C248.618 62.415 243.539 62.2836 242.189 63.1392Z" fill="#3D342F"/>
<path d="M240.693 66.8478C240.693 66.8478 242.214 68.4518 241.687 70.0914C241.687 70.0914 242.569 69.1273 242.588 68.7673C242.607 68.4074 242.373 67.1076 242.373 67.1076L240.693 66.8478Z" fill="#3D342F"/>
<path d="M241.788 68.4659C241.429 68.8085 240.928 68.8434 240.668 68.5444C240.408 68.245 240.488 67.7249 240.847 67.3826C241.205 67.0402 241.706 67.0051 241.966 67.3043C242.226 67.6032 242.146 68.1234 241.788 68.4659Z" fill="#F7B686"/>
<path d="M247.217 94.8174L247.18 94.7173C247.209 94.706 247.91 94.4482 248.299 94.7236L248.237 94.8107C247.895 94.5684 247.224 94.8147 247.217 94.8174Z" fill="#DD8964"/>
<path d="M247.65 95.9462L247.61 95.8467C247.639 95.8356 248.314 95.574 248.929 95.8476L248.885 95.9452C248.311 95.6899 247.656 95.9437 247.65 95.9462Z" fill="#DD8964"/>
<path d="M247.985 96.9287L247.947 96.8286C247.982 96.8153 248.811 96.509 249.2 96.8378L249.131 96.9194C248.79 96.6316 247.993 96.9257 247.985 96.9287Z" fill="#DD8964"/>
<path d="M217.433 86.3117L216.645 85.6099C217.684 84.4398 219.031 81.346 218.861 78.968C218.794 78.0311 218.495 77.3334 217.972 76.8909C216.247 75.4318 212.434 77.3773 211.111 78.2505L210.531 77.3694C210.753 77.2219 215.976 73.821 218.654 76.0856C219.402 76.7174 219.826 77.6624 219.914 78.8923C220.11 81.6511 218.572 85.0299 217.433 86.3117Z" fill="#8D8D8D"/>
<path d="M216.511 77.8514C216.357 77.8514 216.203 77.7941 216.082 77.6784C215.829 77.436 215.815 77.0292 216.052 76.7693L217.107 75.6116C217.344 75.352 217.741 75.3384 217.995 75.5803C218.249 75.8225 218.262 76.2296 218.026 76.4893L216.97 77.647C216.847 77.7826 216.679 77.8514 216.511 77.8514Z" fill="#F7B686"/>
<path d="M216.91 78.9193C216.757 78.9193 216.603 78.862 216.482 78.7463C216.228 78.5041 216.215 78.0969 216.451 77.8373L217.507 76.6795C217.743 76.4203 218.141 76.4061 218.394 76.648C218.648 76.8905 218.662 77.2975 218.425 77.5572L217.37 78.7149C217.246 78.8506 217.078 78.9193 216.91 78.9193Z" fill="#F7B686"/>
<path d="M217.333 79.9033C217.18 79.9033 217.026 79.846 216.905 79.7304C216.651 79.4879 216.637 79.081 216.874 78.8214L217.929 77.6635C218.166 77.4043 218.564 77.3901 218.817 77.6321C219.071 77.8745 219.085 78.2815 218.848 78.5412L217.793 79.6991C217.669 79.8345 217.501 79.9033 217.333 79.9033Z" fill="#F7B686"/>
<path d="M217.999 80.5482C217.903 80.5482 217.807 80.515 217.728 80.4471C217.552 80.2941 217.53 80.0237 217.679 79.8428L218.641 78.6779C218.791 78.4965 219.055 78.4739 219.232 78.6271C219.408 78.7801 219.43 79.0505 219.281 79.2313L218.319 80.3962C218.236 80.4965 218.118 80.5482 217.999 80.5482Z" fill="#F7B686"/>
<path d="M194.357 77.3517L200.204 96.2827C200.8 98.2126 203.008 99.2182 205.24 98.5761L217.825 94.9557C219.9 94.3591 221.023 92.2063 220.116 90.5654L210.243 72.6954L194.357 77.3517Z" fill="#ACAAA4"/>
<path d="M168.936 88.8483C170.092 89.2028 199.751 90.2577 199.751 90.2577L197.347 82.0477L173.395 84.9516L168.936 88.8483Z" fill="#8D8D8D"/>
<path d="M175.912 87.5318C176.216 91.171 174.639 94.4255 172.389 94.8012C170.139 95.1769 168.068 92.5314 167.763 88.8925C167.458 85.2536 169.036 81.9991 171.286 81.6233C173.536 81.2478 175.607 83.893 175.912 87.5318Z" fill="#ACAAA4"/>
<path d="M209.457 72.1317C210.075 73.5016 207.332 76.0802 203.329 77.8904C199.326 79.7009 195.579 80.0575 194.96 78.6876C194.341 77.3174 197.085 74.7389 201.088 72.9287C205.091 71.1184 208.838 70.7615 209.457 72.1317Z" fill="#ACAAA4"/>
<path d="M202.73 71.9689C202.895 72.3326 202.687 72.782 202.266 72.9721C201.845 73.1626 201.371 73.0217 201.207 72.6578C201.042 72.294 201.25 71.8447 201.671 71.6544C202.091 71.4641 202.566 71.6049 202.73 71.9689Z" fill="#ACAAA4"/>
<path d="M210.305 72.9131L194.289 78.5728C193.934 78.6984 193.561 78.5464 193.461 78.2355C193.362 77.9241 193.57 77.5668 193.926 77.4412L209.941 71.7815C210.296 71.6559 210.669 71.8079 210.769 72.119C210.869 72.4301 210.66 72.7876 210.305 72.9131Z" fill="#ACAAA4"/>
<path d="M156.546 103.264C156.434 103.264 156.345 103.175 156.345 103.063C156.345 103.047 156.346 102.672 156.461 102.022C156.48 101.913 156.585 101.839 156.694 101.859C156.804 101.879 156.878 101.984 156.858 102.094C156.749 102.704 156.747 103.059 156.747 103.063C156.747 103.174 156.657 103.264 156.546 103.264ZM156.881 101.275C156.864 101.275 156.846 101.273 156.828 101.269C156.72 101.239 156.657 101.129 156.686 101.021C156.773 100.699 156.876 100.37 156.99 100.043C157.026 99.9391 157.144 99.8834 157.247 99.9212C157.353 99.9569 157.408 100.073 157.371 100.178C157.259 100.493 157.16 100.812 157.075 101.125C157.051 101.217 156.969 101.275 156.881 101.275ZM157.546 99.373C157.519 99.373 157.492 99.369 157.466 99.3571C157.365 99.3134 157.317 99.1957 157.361 99.0919C157.487 98.7948 157.631 98.4879 157.791 98.1671C157.841 98.0654 157.96 98.0276 158.062 98.0753C158.16 98.1251 158.201 98.2466 158.152 98.3464C157.995 98.6594 157.856 98.9624 157.731 99.2514C157.698 99.3271 157.624 99.373 157.546 99.373ZM158.449 97.571C158.416 97.571 158.381 97.5629 158.349 97.545C158.252 97.4893 158.219 97.3657 158.275 97.2699C158.438 96.9849 158.615 96.6958 158.806 96.3989C158.868 96.3053 158.993 96.2812 159.085 96.339C159.178 96.3989 159.205 96.5243 159.145 96.6181C158.958 96.9071 158.784 97.1922 158.624 97.4692C158.587 97.5351 158.519 97.571 158.449 97.571ZM159.545 95.8805C159.504 95.8805 159.462 95.8686 159.427 95.8428C159.337 95.777 159.317 95.6513 159.382 95.5617C159.574 95.2966 159.778 95.0254 159.996 94.7504C160.065 94.6645 160.191 94.6468 160.28 94.7184C160.367 94.7861 160.382 94.914 160.313 95.0016C160.099 95.2728 159.897 95.5359 159.708 95.7969C159.669 95.8527 159.608 95.8805 159.545 95.8805ZM160.8 94.3017C160.753 94.3017 160.706 94.2858 160.668 94.2519C160.584 94.1801 160.575 94.0525 160.648 93.969C160.865 93.7178 161.093 93.4666 161.332 93.2155C161.411 93.1358 161.537 93.1338 161.618 93.2094C161.699 93.285 161.702 93.4127 161.625 93.4946C161.39 93.7417 161.166 93.9889 160.953 94.2322C160.913 94.2779 160.856 94.3017 160.8 94.3017ZM162.186 92.8386C162.133 92.8386 162.081 92.8186 162.041 92.7786C161.964 92.6989 161.966 92.5713 162.045 92.4936C162.281 92.2624 162.528 92.0312 162.783 91.7979C162.863 91.7261 162.994 91.7303 163.067 91.812C163.143 91.8937 163.137 92.0211 163.054 92.097C162.803 92.3262 162.56 92.5534 162.326 92.7806C162.287 92.8207 162.237 92.8386 162.186 92.8386ZM163.679 91.487C163.621 91.487 163.564 91.4632 163.525 91.4153C163.453 91.3296 163.464 91.2038 163.55 91.1322C163.803 90.9189 164.064 90.7037 164.336 90.4904C164.422 90.4225 164.549 90.4365 164.618 90.5262C164.687 90.6138 164.672 90.7395 164.585 90.8093C164.317 91.0185 164.058 91.2299 163.809 91.4391C163.771 91.4712 163.725 91.487 163.679 91.487ZM165.261 90.239C165.199 90.239 165.138 90.2112 165.099 90.1575C165.033 90.0679 165.052 89.9422 165.141 89.8764C165.407 89.6791 165.681 89.4839 165.964 89.2844C166.055 89.2206 166.18 89.2426 166.245 89.3343C166.309 89.4259 166.287 89.5515 166.195 89.6153C165.916 89.8105 165.644 90.006 165.38 90.1993C165.345 90.2271 165.303 90.239 165.261 90.239ZM166.916 89.0889C166.85 89.0889 166.786 89.0572 166.747 88.9993C166.685 88.9057 166.711 88.7799 166.805 88.7183C167.082 88.537 167.368 88.3555 167.659 88.1761C167.752 88.1184 167.878 88.1462 167.937 88.2419C167.995 88.3357 167.966 88.4611 167.871 88.5189C167.583 88.6984 167.301 88.8757 167.026 89.0572C166.992 89.079 166.953 89.0889 166.916 89.0889ZM168.63 88.0305C168.561 88.0305 168.493 87.9946 168.455 87.9308C168.4 87.8351 168.431 87.7115 168.528 87.6556C168.815 87.4861 169.109 87.3208 169.409 87.1534C169.506 87.1035 169.629 87.1373 169.683 87.2331C169.736 87.3309 169.701 87.4525 169.604 87.5082C169.306 87.6716 169.016 87.8371 168.731 88.0025C168.699 88.0226 168.665 88.0305 168.63 88.0305Z" fill="#3D342F"/>
<path d="M159.835 124.518C159.725 124.518 159.636 124.43 159.634 124.32C159.626 123.983 159.62 123.646 159.615 123.314C159.613 123.202 159.701 123.11 159.813 123.108C159.814 123.108 159.815 123.108 159.816 123.108C159.926 123.108 160.016 123.196 160.017 123.306C160.022 123.638 160.028 123.975 160.036 124.312C160.039 124.422 159.951 124.515 159.84 124.518C159.838 124.518 159.837 124.518 159.835 124.518ZM159.808 122.502C159.698 122.502 159.608 122.413 159.607 122.303L159.606 121.964C159.605 121.739 159.606 121.516 159.608 121.29C159.609 121.181 159.699 121.091 159.809 121.091C159.81 121.091 159.81 121.091 159.811 121.091C159.923 121.091 160.012 121.183 160.01 121.294C160.009 121.516 160.007 121.739 160.008 121.964L160.009 122.299C160.01 122.411 159.922 122.502 159.81 122.502C159.809 122.502 159.809 122.502 159.808 122.502ZM159.821 120.485C159.82 120.485 159.819 120.485 159.817 120.485C159.707 120.483 159.618 120.391 159.62 120.28C159.626 119.941 159.634 119.602 159.644 119.269C159.647 119.16 159.736 119.074 159.845 119.074C159.847 119.074 159.849 119.074 159.851 119.074C159.963 119.077 160.05 119.169 160.046 119.281C160.036 119.614 160.029 119.949 160.023 120.288C160.02 120.397 159.931 120.485 159.821 120.485ZM159.878 118.468C159.875 118.468 159.872 118.468 159.869 118.468C159.757 118.464 159.672 118.368 159.677 118.258C159.692 117.918 159.707 117.583 159.724 117.25C159.727 117.138 159.815 117.056 159.935 117.058C160.046 117.064 160.132 117.158 160.126 117.27C160.109 117.603 160.094 117.937 160.079 118.274C160.074 118.384 159.985 118.468 159.878 118.468ZM159.982 116.456C159.978 116.456 159.973 116.456 159.969 116.456C159.858 116.448 159.774 116.353 159.781 116.243C159.803 115.9 159.827 115.565 159.852 115.232C159.861 115.123 159.953 115.053 160.068 115.047C160.18 115.055 160.262 115.153 160.254 115.264C160.229 115.593 160.205 115.928 160.183 116.267C160.177 116.374 160.088 116.456 159.982 116.456ZM160.137 114.443C160.131 114.443 160.125 114.443 160.119 114.443C160.007 114.433 159.926 114.333 159.936 114.224C159.967 113.885 159.999 113.55 160.033 113.219C160.044 113.107 160.141 113.04 160.254 113.038C160.365 113.05 160.446 113.149 160.434 113.259C160.4 113.59 160.368 113.925 160.338 114.26C160.328 114.365 160.24 114.443 160.137 114.443ZM160.343 112.438C160.336 112.438 160.328 112.438 160.32 112.438C160.209 112.424 160.13 112.324 160.143 112.212C160.182 111.874 160.223 111.539 160.266 111.21C160.281 111.1 160.378 111.012 160.492 111.036C160.603 111.05 160.681 111.152 160.667 111.262C160.624 111.59 160.582 111.921 160.543 112.26C160.531 112.362 160.445 112.438 160.343 112.438ZM160.606 110.44C160.597 110.44 160.587 110.44 160.577 110.438C160.467 110.422 160.391 110.32 160.407 110.209C160.455 109.872 160.507 109.537 160.56 109.21C160.577 109.101 160.673 109.023 160.791 109.043C160.902 109.061 160.976 109.164 160.959 109.274C160.906 109.601 160.854 109.932 160.805 110.269C160.791 110.369 160.705 110.44 160.606 110.44ZM160.929 108.449C160.917 108.449 160.905 108.449 160.893 108.447C160.783 108.427 160.711 108.321 160.731 108.211C160.791 107.875 160.853 107.544 160.917 107.219C160.938 107.109 161.044 107.028 161.154 107.059C161.263 107.079 161.334 107.187 161.313 107.294C161.25 107.619 161.188 107.95 161.127 108.283C161.109 108.381 161.024 108.449 160.929 108.449ZM161.318 106.471C161.304 106.471 161.29 106.469 161.276 106.467C161.167 106.443 161.098 106.336 161.121 106.228C161.193 105.891 161.267 105.564 161.343 105.239C161.368 105.132 161.48 105.072 161.585 105.088C161.694 105.114 161.761 105.224 161.735 105.331C161.66 105.652 161.587 105.979 161.515 106.312C161.496 106.408 161.412 106.471 161.318 106.471ZM161.777 104.508C161.761 104.508 161.744 104.506 161.728 104.502C161.62 104.474 161.554 104.364 161.582 104.257C161.667 103.924 161.754 103.599 161.841 103.278C161.871 103.17 161.984 103.109 162.089 103.136C162.196 103.166 162.26 103.278 162.23 103.385C162.142 103.702 162.057 104.027 161.973 104.356C161.95 104.448 161.867 104.508 161.777 104.508ZM162.312 102.562C162.293 102.562 162.274 102.56 162.255 102.554C162.148 102.522 162.087 102.409 162.119 102.303C162.219 101.972 162.318 101.651 162.419 101.336C162.453 101.231 162.561 101.165 162.673 101.207C162.778 101.241 162.837 101.354 162.803 101.46C162.703 101.771 162.603 102.092 162.505 102.419C162.48 102.507 162.399 102.562 162.312 102.562ZM162.93 100.643C162.908 100.643 162.885 100.639 162.863 100.633C162.758 100.595 162.703 100.479 162.74 100.376C162.852 100.051 162.967 99.7319 163.083 99.4228C163.122 99.3211 163.242 99.2732 163.342 99.3052C163.447 99.3449 163.5 99.4606 163.46 99.5663C163.345 99.8713 163.233 100.186 163.12 100.507C163.091 100.591 163.014 100.643 162.93 100.643ZM163.637 98.757C163.612 98.757 163.586 98.7528 163.561 98.743C163.458 98.7011 163.408 98.5835 163.451 98.4799C163.58 98.1589 163.711 97.848 163.841 97.5469C163.885 97.4453 164 97.3934 164.107 97.4413C164.209 97.4851 164.256 97.6047 164.212 97.7065C164.081 98.0072 163.953 98.3143 163.824 98.6313C163.793 98.709 163.717 98.757 163.637 98.757ZM164.443 96.907C164.414 96.907 164.385 96.9009 164.357 96.889C164.257 96.8412 164.213 96.7216 164.261 96.6201C164.408 96.3052 164.557 96.0019 164.704 95.7091C164.755 95.6094 164.875 95.5676 164.976 95.6215C165.074 95.6712 165.114 95.7928 165.064 95.8924C164.917 96.1817 164.771 96.4806 164.625 96.7914C164.591 96.8653 164.519 96.907 164.443 96.907ZM165.353 95.111C165.321 95.111 165.288 95.1028 165.257 95.0872C165.159 95.0333 165.123 94.9117 165.176 94.8141C165.346 94.503 165.513 94.2101 165.68 93.9308C165.736 93.8352 165.858 93.8014 165.956 93.8612C166.052 93.9189 166.083 94.0427 166.026 94.1383C165.862 94.4132 165.696 94.7024 165.531 95.0053C165.494 95.0731 165.424 95.111 165.353 95.111ZM166.383 93.3748C166.345 93.3748 166.307 93.3647 166.273 93.3428C166.18 93.281 166.153 93.1554 166.215 93.0637C166.409 92.7648 166.599 92.4835 166.784 92.2244C166.848 92.1327 166.974 92.1126 167.065 92.1746C167.155 92.2405 167.177 92.3659 167.113 92.4557C166.931 92.7147 166.744 92.9918 166.552 93.2829C166.513 93.3428 166.449 93.3748 166.383 93.3748ZM167.549 91.7322C167.505 91.7322 167.461 91.7181 167.424 91.6903C167.337 91.6205 167.322 91.4947 167.389 91.4072C167.619 91.1121 167.836 90.8509 168.037 90.6197C168.111 90.536 168.237 90.5261 168.322 90.5996C168.405 90.6716 168.414 90.799 168.342 90.8827C168.145 91.1101 167.932 91.3672 167.708 91.6542C167.668 91.7062 167.609 91.7322 167.549 91.7322ZM168.876 90.2131C168.824 90.2131 168.773 90.1932 168.733 90.1554C168.654 90.0757 168.654 89.9481 168.733 89.8704C169.206 89.3958 169.493 89.1825 169.505 89.1725C169.594 89.1087 169.721 89.1266 169.787 89.2164C169.853 89.3059 169.834 89.4317 169.744 89.4975C169.741 89.4995 169.466 89.7046 169.018 90.1532C168.979 90.1932 168.928 90.2131 168.876 90.2131Z" fill="#3D342F"/>
<path d="M155.522 93.4523C155.491 93.4523 155.461 93.4463 155.431 93.4324C155.332 93.3825 155.292 93.261 155.342 93.1613C155.351 93.1412 155.369 93.1175 155.384 93.1014C155.46 93.0237 155.587 93.0215 155.669 93.1035C155.744 93.1772 155.748 93.2969 155.68 93.3746C155.642 93.4244 155.583 93.4523 155.522 93.4523ZM156.193 92.6888C156.144 92.6888 156.095 92.6707 156.056 92.6349C155.974 92.5592 155.97 92.4316 156.046 92.3497C156.281 92.0986 156.519 91.8555 156.761 91.6244C156.842 91.5485 156.969 91.5504 157.046 91.6301C157.123 91.7099 157.121 91.8375 157.04 91.9152C156.804 92.1426 156.57 92.3777 156.341 92.625C156.301 92.667 156.247 92.6888 156.193 92.6888ZM157.645 91.2915C157.589 91.2915 157.532 91.2675 157.491 91.2198C157.419 91.1359 157.43 91.0085 157.515 90.9367C157.776 90.7155 158.039 90.5002 158.303 90.2949C158.391 90.2271 158.516 90.241 158.586 90.3307C158.654 90.4184 158.638 90.5459 158.55 90.6137C158.29 90.8151 158.033 91.0263 157.776 91.2436C157.738 91.2756 157.691 91.2915 157.645 91.2915ZM159.24 90.0596C159.177 90.0596 159.114 90.0297 159.074 89.9719C159.011 89.8801 159.034 89.7547 159.126 89.6928C159.41 89.4975 159.693 89.3122 159.977 89.1347C160.069 89.0808 160.195 89.1049 160.255 89.1985C160.313 89.2941 160.284 89.4178 160.19 89.4776C159.912 89.6511 159.633 89.8324 159.355 90.0238C159.32 90.0477 159.28 90.0596 159.24 90.0596ZM160.953 88.997C160.882 88.997 160.813 88.9592 160.776 88.8934C160.722 88.7956 160.757 88.672 160.855 88.6184C161.158 88.4529 161.459 88.2955 161.758 88.1479C161.856 88.098 161.978 88.1419 162.028 88.2397C162.076 88.3412 162.035 88.4609 161.935 88.5108C161.642 88.6544 161.347 88.8078 161.05 88.9733C161.019 88.989 160.986 88.997 160.953 88.997ZM162.761 88.1041C162.684 88.1041 162.609 88.058 162.576 87.9825C162.533 87.8809 162.579 87.7611 162.682 87.7173C163.001 87.5796 163.315 87.4522 163.622 87.3345C163.727 87.2906 163.842 87.3425 163.883 87.4502C163.923 87.5537 163.871 87.6694 163.768 87.7094C163.464 87.827 163.154 87.9545 162.841 88.088C162.815 88.1 162.788 88.1041 162.761 88.1041ZM164.643 87.3846C164.559 87.3846 164.48 87.3307 164.452 87.2468C164.417 87.1411 164.474 87.0276 164.58 86.9918C164.915 86.8801 165.24 86.7784 165.553 86.6908C165.659 86.651 165.772 86.7227 165.802 86.8283C165.832 86.936 165.77 87.0477 165.662 87.0776C165.355 87.1652 165.037 87.263 164.707 87.3747C164.686 87.3824 164.664 87.3846 164.643 87.3846ZM166.585 86.8322C166.493 86.8322 166.41 86.7705 166.388 86.6766C166.362 86.5691 166.43 86.4594 166.538 86.4354C166.895 86.3496 167.228 86.2798 167.534 86.2222C167.652 86.1862 167.749 86.2739 167.77 86.3814C167.791 86.4911 167.719 86.5968 167.61 86.6167C167.31 86.6745 166.981 86.7443 166.631 86.8262C166.615 86.8302 166.6 86.8322 166.585 86.8322ZM168.568 86.4554C168.468 86.4554 168.382 86.3818 168.369 86.282C168.353 86.1704 168.43 86.0688 168.54 86.0547C169.179 85.9672 169.55 85.9491 169.565 85.9491C169.661 85.955 169.77 86.0288 169.775 86.1425C169.78 86.2522 169.694 86.3476 169.583 86.3516C169.579 86.3516 169.213 86.3696 168.596 86.4533C168.586 86.4554 168.577 86.4554 168.568 86.4554Z" fill="#3D342F"/>
<path d="M164.576 122.664C164.467 122.664 164.378 122.578 164.375 122.468C164.365 122.127 164.358 121.791 164.353 121.458C164.351 121.346 164.439 121.254 164.551 121.252C164.552 121.252 164.553 121.252 164.554 121.252C164.664 121.252 164.754 121.34 164.755 121.45C164.76 121.783 164.767 122.12 164.777 122.456C164.781 122.568 164.694 122.662 164.582 122.664C164.58 122.664 164.578 122.664 164.576 122.664ZM164.543 120.649C164.433 120.649 164.342 120.559 164.342 120.449L164.341 119.998L164.343 119.436C164.343 119.327 164.434 119.237 164.544 119.237H164.545C164.657 119.237 164.746 119.329 164.745 119.44L164.743 119.998L164.745 120.445C164.745 120.557 164.656 120.648 164.544 120.648L164.543 120.649ZM164.556 118.631C164.555 118.631 164.554 118.631 164.552 118.631C164.442 118.629 164.353 118.538 164.355 118.426C164.361 118.087 164.369 117.748 164.379 117.415C164.382 117.306 164.472 117.22 164.58 117.22C164.582 117.22 164.584 117.22 164.586 117.22C164.698 117.224 164.785 117.315 164.781 117.427C164.772 117.76 164.763 118.095 164.757 118.434C164.755 118.543 164.666 118.631 164.556 118.631ZM164.617 116.614C164.614 116.614 164.612 116.614 164.609 116.614C164.497 116.61 164.411 116.516 164.416 116.404C164.43 116.064 164.445 115.729 164.464 115.396C164.47 115.288 164.558 115.205 164.665 115.205C164.668 115.205 164.672 115.205 164.676 115.205C164.786 115.21 164.872 115.306 164.866 115.416C164.848 115.749 164.832 116.084 164.818 116.421C164.814 116.53 164.724 116.614 164.617 116.614ZM164.727 114.603C164.723 114.603 164.718 114.603 164.714 114.603C164.602 114.594 164.518 114.499 164.525 114.389C164.547 114.046 164.572 113.709 164.599 113.378C164.609 113.267 164.709 113.211 164.816 113.193C164.928 113.203 165.011 113.299 165.001 113.41C164.975 113.741 164.95 114.074 164.928 114.415C164.921 114.521 164.832 114.603 164.727 114.603ZM164.887 112.591C164.881 112.591 164.874 112.591 164.868 112.591C164.757 112.581 164.676 112.481 164.687 112.372C164.719 112.031 164.752 111.696 164.787 111.363C164.799 111.253 164.899 111.192 165.008 111.184C165.119 111.196 165.2 111.295 165.188 111.407C165.153 111.736 165.119 112.071 165.087 112.408C165.078 112.513 164.99 112.591 164.887 112.591ZM165.101 110.586C165.093 110.586 165.085 110.586 165.077 110.584C164.967 110.572 164.888 110.47 164.901 110.361C164.942 110.02 164.985 109.687 165.029 109.356C165.044 109.248 165.15 109.162 165.257 109.184C165.367 109.198 165.445 109.3 165.43 109.412C165.385 109.739 165.342 110.071 165.301 110.408C165.289 110.51 165.202 110.586 165.101 110.586ZM165.371 108.587C165.361 108.587 165.351 108.587 165.341 108.584C165.231 108.568 165.155 108.465 165.172 108.355C165.223 108.016 165.275 107.683 165.329 107.357C165.348 107.245 165.456 107.171 165.561 107.189C165.671 107.207 165.746 107.31 165.728 107.42C165.674 107.747 165.621 108.08 165.57 108.415C165.555 108.515 165.469 108.587 165.371 108.587ZM165.7 106.597C165.688 106.597 165.676 106.597 165.663 106.595C165.553 106.573 165.482 106.469 165.502 106.36C165.563 106.023 165.626 105.692 165.69 105.367C165.712 105.255 165.818 105.18 165.927 105.208C166.036 105.227 166.107 105.335 166.086 105.443C166.022 105.768 165.96 106.099 165.898 106.431C165.88 106.529 165.795 106.597 165.7 106.597ZM166.091 104.616C166.077 104.616 166.063 104.613 166.049 104.612C165.941 104.588 165.871 104.482 165.894 104.372C165.965 104.037 166.039 103.709 166.114 103.386C166.14 103.276 166.241 103.224 166.356 103.234C166.465 103.26 166.532 103.37 166.507 103.477C166.432 103.796 166.359 104.125 166.289 104.456C166.268 104.552 166.185 104.616 166.091 104.616ZM166.546 102.652C166.53 102.652 166.515 102.65 166.498 102.646C166.39 102.62 166.324 102.51 166.351 102.403C166.434 102.068 166.519 101.741 166.605 101.424C166.634 101.317 166.743 101.261 166.853 101.281C166.96 101.311 167.024 101.42 166.994 101.528C166.909 101.845 166.825 102.168 166.742 102.499C166.72 102.59 166.637 102.652 166.546 102.652ZM167.071 100.704C167.052 100.704 167.033 100.702 167.015 100.697C166.908 100.665 166.846 100.553 166.878 100.447C166.975 100.114 167.071 99.7915 167.169 99.4764C167.2 99.3709 167.313 99.3071 167.421 99.3429C167.527 99.3769 167.586 99.4884 167.553 99.5961C167.458 99.9073 167.361 100.23 167.265 100.559C167.239 100.649 167.159 100.704 167.071 100.704ZM167.67 98.7788C167.649 98.7788 167.627 98.7768 167.606 98.7689C167.501 98.7331 167.444 98.6192 167.479 98.5137C167.59 98.1809 167.7 97.8619 167.81 97.557C167.847 97.4513 167.967 97.3996 168.067 97.4354C168.173 97.4732 168.227 97.5889 168.189 97.6926C168.08 97.9977 167.971 98.3125 167.861 98.6415C167.833 98.725 167.755 98.7788 167.67 98.7788ZM168.35 96.8792C168.327 96.8792 168.302 96.8753 168.278 96.8653C168.174 96.8254 168.122 96.7097 168.162 96.6041C168.291 96.2752 168.415 95.9602 168.538 95.6632C168.581 95.5595 168.698 95.5138 168.801 95.5535C168.903 95.5974 168.953 95.7151 168.91 95.8187C168.79 96.1118 168.665 96.4229 168.539 96.7517C168.508 96.8313 168.431 96.8792 168.35 96.8792ZM169.121 95.0152C169.093 95.0152 169.066 95.0093 169.039 94.9973C168.937 94.9536 168.892 94.834 168.937 94.7322C169.089 94.3935 169.232 94.0864 169.365 93.8111C169.414 93.7096 169.535 93.6676 169.634 93.7177C169.735 93.7656 169.777 93.887 169.728 93.9866C169.596 94.2578 169.455 94.5609 169.306 94.8956C169.272 94.9713 169.198 95.0152 169.121 95.0152ZM170.004 93.2014C169.971 93.2014 169.939 93.1933 169.908 93.1775C169.811 93.1256 169.774 93.002 169.827 92.9044C170.14 92.3204 170.333 92.0273 170.341 92.0133C170.402 91.9215 170.529 91.8977 170.62 91.9555C170.713 92.0171 170.738 92.1429 170.677 92.2365C170.675 92.2387 170.486 92.5275 170.181 93.0958C170.145 93.1635 170.076 93.2014 170.004 93.2014Z" fill="#3D342F"/>
<path d="M111.041 110.592C109.888 110.938 108.673 110.284 108.327 109.13L104.644 96.8584C104.298 95.7048 104.952 94.4887 106.105 94.1422C107.259 93.7959 108.474 94.4504 108.82 95.6041L112.502 107.876C112.848 109.029 112.194 110.246 111.041 110.592Z" fill="#8D8D8D"/>
<path d="M116.135 93.9353L98.2525 99.3074C96.8092 99.7411 95.2881 98.9218 94.8548 97.4777L93.5596 93.1616L116.668 86.2192L117.964 90.5354C118.397 91.9796 117.578 93.5017 116.135 93.9353Z" fill="#8D8D8D"/>
<path d="M115.639 82.7504L92.5293 89.6937L93.5693 93.1593L116.679 86.2159L115.639 82.7504Z" fill="#8D8D8D"/>
<path d="M115.629 82.7538C115.629 82.7538 115.17 79.1623 113.872 75.7436C112.735 72.7493 109.475 71.1454 106.409 72.0667L89.8488 77.0414C87.9101 77.6238 87.1697 79.9825 88.4328 81.565C90.1989 83.7782 92.1765 86.8242 92.5195 89.696L115.629 82.7538Z" fill="#EA6F32"/>
<path d="M57.441 138.496C57.1418 138.472 56.8772 138.697 56.8527 138.996L56.4745 143.642C56.4501 143.941 56.675 144.206 56.9739 144.231C57.2731 144.255 57.5378 144.03 57.5622 143.731L57.9404 139.084C57.965 138.785 57.7403 138.52 57.441 138.496Z" fill="#F7B686"/>
<path d="M58.8334 138.609C58.5342 138.585 58.2696 138.81 58.2453 139.109L57.8221 144.305C57.7979 144.605 58.0228 144.87 58.3217 144.894C58.621 144.918 58.8856 144.693 58.91 144.394L59.333 139.198C59.3574 138.899 59.1324 138.634 58.8334 138.609Z" fill="#F7B686"/>
<path d="M59.4274 135.936L59.2662 136.044C58.9649 136.246 58.8837 136.659 59.0858 136.96L61.055 139.898C61.2572 140.199 61.6693 140.281 61.9706 140.078L62.1319 139.97C62.4333 139.768 62.5145 139.356 62.3124 139.054L60.3432 136.116C60.1409 135.815 59.7289 135.734 59.4274 135.936Z" fill="#F7B686"/>
<path d="M60.226 138.723C59.9267 138.698 59.6621 138.923 59.6377 139.223L59.2987 143.388C59.2744 143.687 59.499 143.952 59.7982 143.976C60.0974 144.001 60.3619 143.776 60.3864 143.477L60.7257 139.311C60.75 139.012 60.525 138.747 60.226 138.723Z" fill="#F7B686"/>
<path d="M56.7116 135.773C56.7116 135.773 54.9192 138.326 55.5605 140.449C55.7824 141.183 59.8905 141.405 60.3288 140.665C60.7671 139.925 60.722 137.09 60.722 137.09L56.7116 135.773Z" fill="#F7B686"/>
<path d="M56.0583 138.379C55.7596 138.355 55.4956 138.579 55.4712 138.878L55.1327 143.034C55.1084 143.333 55.3329 143.597 55.6314 143.622C55.9302 143.646 56.194 143.422 56.2185 143.123L56.5569 138.967C56.5812 138.668 56.3569 138.404 56.0583 138.379Z" fill="#F7B686"/>
<path d="M110.146 106.258L110.269 106.346C110.48 106.495 110.775 106.445 110.925 106.234L112.58 103.898C112.73 103.687 112.679 103.392 112.468 103.242L112.345 103.155C112.134 103.005 111.839 103.056 111.69 103.267L110.034 105.602C109.885 105.813 109.935 106.109 110.146 106.258Z" fill="#F7B686"/>
<path d="M109.015 105.455L109.123 105.532C109.338 105.684 109.639 105.633 109.791 105.418L111.946 102.377C112.099 102.162 112.047 101.861 111.832 101.708L111.725 101.632C111.509 101.479 111.208 101.53 111.056 101.746L108.901 104.786C108.749 105.001 108.8 105.302 109.015 105.455Z" fill="#F7B686"/>
<path d="M107.194 107.489L107.388 107.479C107.75 107.458 108.03 107.145 108.01 106.783L107.814 103.251C107.794 102.888 107.482 102.608 107.119 102.628L106.925 102.639C106.563 102.659 106.283 102.972 106.303 103.335L106.498 106.866C106.518 107.229 106.832 107.509 107.194 107.489Z" fill="#F7B686"/>
<path d="M107.929 104.685C108.174 104.859 108.516 104.8 108.69 104.555L111.105 101.147C111.279 100.901 111.221 100.559 110.976 100.385C110.731 100.211 110.389 100.27 110.215 100.515L107.799 103.923C107.626 104.169 107.684 104.511 107.929 104.685Z" fill="#F7B686"/>
<path d="M109.447 109.016C109.447 109.016 112.291 107.735 112.822 105.583C113.005 104.838 110.207 101.74 109.453 102.153C108.699 102.565 106.67 105.836 106.67 105.836L109.447 109.016Z" fill="#F7B686"/>
<path d="M111.259 107.052L111.416 107.164C111.617 107.307 111.898 107.259 112.041 107.058L113.373 105.179C113.515 104.977 113.467 104.696 113.266 104.553L113.109 104.442C112.908 104.299 112.627 104.347 112.484 104.548L111.152 106.427C111.01 106.628 111.058 106.91 111.259 107.052Z" fill="#F7B686"/>
<path d="M61.4171 137.685C63.528 131.973 67.0051 123.93 71.5845 118.053C72.6455 116.691 73.0707 116.187 73.801 115.484C74.389 114.919 74.0624 113.239 73.1065 112.222C72.2095 111.267 70.5049 110.924 70.1512 111.181C69.5498 111.618 68.7799 112.559 67.5729 114.058C63.3786 119.263 59.762 126.474 56.4775 136.144L61.4171 137.685Z" fill="#F7B686"/>
<path d="M83.3319 108.726L83.9637 105.981L84.1474 105.181L85.228 100.481L85.755 105.037L86.0711 107.772L86.1711 108.637C86.2388 109.225 86.6072 109.322 87.0822 109.802C87.2747 109.996 88.5011 111.17 87.2577 111.834C85.7087 112.662 82.6346 111.812 81.3916 110.492C81.4002 110.49 83.1279 109.614 83.3319 108.726Z" fill="#F7B686"/>
<path d="M89.1447 101.379C88.5905 98.7099 86.3476 96.9185 84.1351 97.3785C81.9226 97.8386 80.5783 100.375 81.1326 103.045C81.6868 105.714 83.9296 107.505 86.142 107.046C88.3546 106.586 89.6989 104.049 89.1447 101.379Z" fill="#F7B686"/>
<path d="M87.3084 100.326C89.6478 100.24 90.6792 98.8089 90.6134 97.56C90.5288 95.9583 89.4172 94.6165 88.2896 95.2983C87.162 95.98 87.5565 94.4849 86.4183 94.414C84.2911 94.2818 84.0075 95.8094 82.2896 96.0107C80.0235 96.2761 77.7139 100.259 79.8244 102.883C79.8244 102.883 85.4608 100.394 87.3084 100.326Z" fill="#2F1A31"/>
<path d="M89.2661 98.5587C89.2661 98.5587 86.9523 101.146 87.3815 102.473C87.8108 103.799 87.767 104.335 86.3646 105.164C84.9624 105.993 86.3351 107.068 84.4011 107.297C82.4674 107.526 79.9199 105.409 79.6401 101.637C79.4839 99.5348 80.5885 98.0692 80.5885 98.0692L89.2661 98.5587Z" fill="#2F1A31"/>
<path d="M88.6351 102.319C88.3228 101.939 87.7945 101.857 87.455 102.137C87.1159 102.416 87.0938 102.95 87.4061 103.33C87.7184 103.71 88.2467 103.792 88.5862 103.512C88.9255 103.233 88.9472 102.699 88.6351 102.319Z" fill="#F7B686"/>
<path d="M80.3171 102.346C80.3102 102.346 80.3029 102.345 80.296 102.343C80.2649 102.331 80.249 102.296 80.2606 102.265C80.4624 101.726 81.0149 101.492 81.0382 101.483C81.0689 101.47 81.1041 101.485 81.1169 101.515C81.1298 101.546 81.1149 101.581 81.0844 101.594C81.0791 101.596 80.5566 101.818 80.3736 102.308C80.3644 102.332 80.3415 102.346 80.3171 102.346Z" fill="#2F1A31"/>
<path d="M81.1015 101.308C81.0975 101.308 81.0935 101.308 81.0895 101.307C81.0822 101.305 80.3722 101.154 80.3467 100.562C80.3452 100.529 80.371 100.501 80.4042 100.499C80.438 100.497 80.4656 100.524 80.467 100.557C80.4888 101.056 81.1071 101.188 81.1135 101.189C81.1461 101.196 81.1673 101.227 81.1606 101.26C81.1548 101.289 81.1294 101.308 81.1015 101.308Z" fill="#2F1A31"/>
<path d="M109.901 108.698C110.37 107.565 106.727 105.616 106.727 105.616C106.329 105.53 103.262 112.552 96.6094 113.174C94.2404 113.396 89.8051 110.959 89.3672 110.504C89.3088 110.443 85.4141 114.053 85.4141 114.053C86.2072 114.877 87.9594 117.806 91.0834 118.925C97.5457 121.241 108.047 116.304 109.901 108.698Z" fill="#F7B686"/>
<path d="M81.08 184.774C81.08 184.774 81.1232 186.498 82.2898 186.985C83.456 187.471 86.8354 187.91 85.5728 189.019C84.8483 189.655 81.4333 189.244 80.4693 189.244C79.5052 189.244 78.5999 189.665 77.8835 189.019C77.0954 188.309 77.8835 184.774 77.8835 184.774C77.8835 184.774 78.7156 185.207 79.4637 185.188C80.542 185.16 81.08 184.774 81.08 184.774Z" fill="#2F1A31"/>
<path d="M91.1422 132.724C91.1422 132.724 91.375 140.508 88.8925 155.44C87.1003 166.219 84.9848 177.081 83.9466 182.289C83.5753 184.152 82.0095 185.514 80.1539 185.588L79.1568 185.628C77.1505 185.709 75.522 183.984 75.6683 181.934L78.1867 146.703L78.8073 135.107L91.1422 132.724Z" fill="#F1E4D0"/>
<path d="M70.0332 184.774C70.0332 184.774 70.0764 186.498 71.2429 186.985C72.409 187.471 75.7885 187.91 74.526 189.019C73.8013 189.655 70.3865 189.244 69.4223 189.244C68.4582 189.244 67.553 189.665 66.8367 189.019C66.0484 188.309 66.8367 184.774 66.8367 184.774C66.8367 184.774 67.6688 185.207 68.4167 185.188C69.4949 185.16 70.0332 184.774 70.0332 184.774Z" fill="#2F1A31"/>
<path d="M80.0963 132.724C80.0963 132.724 80.329 140.508 77.8464 155.44C76.0545 166.219 73.9387 177.081 72.9006 182.289C72.5293 184.152 70.9636 185.514 69.108 185.588L68.1109 185.628C66.1045 185.709 64.4759 183.984 64.6225 181.934L67.1408 146.703L67.7614 135.107L80.0963 132.724Z" fill="#F1E4D0"/>
<path d="M72.3731 112.367C72.3731 112.367 74.2871 107.665 83.3624 108.891C96.4499 110.66 93.5496 122.513 92.1924 140.955C92.1924 140.955 79.567 137.321 66.998 138.225C66.998 138.225 68.4868 119.415 72.3731 112.367Z" fill="#EA6F32"/>
<path d="M67.3135 112.161C67.3135 112.161 68.8705 117.289 72.9646 118.797C76.8555 120.23 90.5119 122.698 93.3808 120.651C99.7136 116.133 96.1917 109.966 96.1917 109.966C96.1917 109.966 92.6 111.437 86.5101 109.546C85.938 109.368 85.3406 109.212 84.7167 109.082C83.6692 108.865 82.6075 108.757 81.5576 108.702C71.8862 108.192 67.3135 112.161 67.3135 112.161Z" fill="#EA6F32"/>
<path d="M66.9722 138.454C66.8655 139.387 72.4333 140.547 79.4146 141.308C86.396 142.069 92.0853 141.888 92.1922 140.955C92.299 140.022 86.783 138.689 79.8016 137.928C72.8203 137.168 67.079 137.521 66.9722 138.454Z" fill="#EA6F32"/>
<path d="M164.78 178.083L164.78 113.434C164.78 113.344 164.853 113.271 164.943 113.271L207.369 113.271C207.459 113.271 207.532 113.344 207.532 113.434C207.532 113.525 207.459 113.598 207.369 113.598L165.107 113.598L165.107 178.083C165.107 178.173 165.034 178.246 164.943 178.246C164.853 178.246 164.78 178.173 164.78 178.083Z" fill="#3D342F"/>
<path d="M193.398 154.916C193.398 154.86 193.427 154.806 193.478 154.776C193.555 154.729 193.655 154.755 193.702 154.832L198.291 162.511C198.338 162.588 198.312 162.689 198.235 162.735C198.157 162.781 198.057 162.756 198.011 162.679L193.422 155C193.406 154.973 193.398 154.945 193.398 154.916Z" fill="white"/>
<path d="M194.625 150.054C194.625 150.001 194.651 149.948 194.699 149.917L210.538 139.513C210.613 139.464 210.715 139.484 210.764 139.56C210.814 139.635 210.793 139.736 210.717 139.786L194.878 150.19C194.803 150.24 194.701 150.219 194.652 150.143C194.634 150.116 194.625 150.085 194.625 150.054Z" fill="white"/>
<path d="M204.906 127.035C204.906 126.986 204.928 126.938 204.97 126.906C205.041 126.851 205.144 126.864 205.199 126.935L211.443 135.018C211.499 135.09 211.485 135.192 211.414 135.247C211.343 135.302 211.24 135.289 211.185 135.218L204.94 127.135C204.918 127.105 204.906 127.07 204.906 127.035Z" fill="white"/>
<path d="M202.983 127.747C201.143 127.747 199.651 126.254 199.651 124.414C199.651 122.573 201.143 121.081 202.983 121.081C204.824 121.081 206.316 122.573 206.316 124.414C206.316 126.254 204.824 127.747 202.983 127.747Z" fill="#ACAAA4"/>
<path d="M213.353 141.184C211.512 141.184 210.02 139.692 210.02 137.851C210.02 136.011 211.512 134.518 213.353 134.518C215.193 134.518 216.686 136.011 216.686 137.851C216.686 139.692 215.193 141.184 213.353 141.184Z" fill="#ACAAA4"/>
<path d="M191.968 155.313C190.127 155.313 188.635 153.821 188.635 151.98C188.635 150.139 190.127 148.647 191.968 148.647C193.809 148.647 195.301 150.139 195.301 151.98C195.301 153.821 193.809 155.313 191.968 155.313Z" fill="#ACAAA4"/>
<path d="M199.741 168.858C197.901 168.858 196.408 167.365 196.408 165.525C196.408 163.684 197.901 162.192 199.741 162.192C201.582 162.192 203.074 163.684 203.074 165.525C203.074 167.365 201.582 168.858 199.741 168.858Z" fill="#ACAAA4"/>
<path d="M194.355 128.764L194.355 120.475L171.627 120.475L171.627 128.764L194.355 128.764Z" fill="#8D8D8D"/>
<path d="M198.884 142.443L198.884 134.154L171.628 134.154L171.628 142.443L198.884 142.443Z" fill="#8D8D8D"/>
<path d="M186.315 156.122L186.315 147.833L171.628 147.833L171.628 156.122L186.315 156.122Z" fill="#8D8D8D"/>
<path d="M190.533 169.801L190.533 161.512L171.628 161.512L171.628 169.801L190.533 169.801Z" fill="#8D8D8D"/>
<path d="M179.478 128.764L179.478 120.475L171.628 120.475L171.628 128.764L179.478 128.764Z" fill="#ACAAA4"/>
<path d="M181.042 142.443L181.042 134.154L171.628 134.154L171.628 142.443L181.042 142.443Z" fill="#ACAAA4"/>
<path d="M176.7 156.122L176.7 147.833L171.627 147.833L171.627 156.122L176.7 156.122Z" fill="#ACAAA4"/>
<path d="M178.157 169.801L178.157 161.512L171.628 161.512L171.628 169.801L178.157 169.801Z" fill="#ACAAA4"/>
</svg>
