<svg width="241" height="53" viewBox="0 0 241 53" fill="none" xmlns="http://www.w3.org/2000/svg">
<rect x="42.3574" y="9" width="198.642" height="16.0667" rx="8.03333" fill="#E7E8D0"/>
<rect y="36.2646" width="198.642" height="16.0667" rx="8.03333" fill="#E7E8D0"/>
<path fill-rule="evenodd" clip-rule="evenodd" d="M184.837 25.0667H185.01V25.0692C184.953 25.0675 184.895 25.0667 184.837 25.0667ZM184.837 36.4269H116.849V36.4244C118.332 36.3334 119.522 33.8263 119.522 30.7468C119.522 27.6673 118.332 25.1602 116.849 25.0692V25.0667H184.837C181.7 25.0667 179.157 27.6097 179.157 30.7468C179.157 33.8838 181.7 36.4269 184.837 36.4269ZM184.837 36.4269H185.01V36.4243C184.953 36.4261 184.895 36.4269 184.837 36.4269Z" fill="#E7E8D0"/>
<rect x="151.928" y="3.2666" width="26" height="34" transform="rotate(35.2433 151.928 3.2666)" fill="#727272"/>
<ellipse cx="162.545" cy="10.7685" rx="13" ry="4" transform="rotate(35.2433 162.545 10.7685)" fill="#E9B556"/>
<ellipse cx="142.925" cy="38.5365" rx="13" ry="4" transform="rotate(35.2433 142.925 38.5365)" fill="#727272"/>
<path d="M155.725 25.824C167.605 25.824 175.525 21.9413 178 20V49H124V20H134.8C136.825 21.9413 143.845 25.824 155.725 25.824Z" fill="#E7E8D0"/>
</svg>
