<svg width="631" height="280" viewBox="0 0 631 280" fill="none" xmlns="http://www.w3.org/2000/svg">
<rect x="217.062" y="157" width="343.909" height="27.8162" rx="13.9081" fill="white" fill-opacity="0.5"/>
<rect x="153" y="251.406" width="343.909" height="27.8162" rx="13.9081" fill="white" fill-opacity="0.5"/>
<rect x="286.18" y="204.203" width="343.909" height="27.8162" rx="13.9081" fill="white" fill-opacity="0.5"/>
<path fill-rule="evenodd" clip-rule="evenodd" d="M452.235 204.48C452.136 204.483 452.037 204.484 451.937 204.484C446.506 204.484 442.103 200.081 442.103 194.65C442.103 189.241 446.471 184.852 451.872 184.816H334.227V184.821C336.796 184.977 338.855 189.318 338.855 194.65C338.855 199.983 336.796 204.324 334.227 204.48V204.484H452.235V204.48ZM452.003 184.816C452.081 184.817 452.158 184.818 452.235 184.821V184.816H452.003Z" fill="white" fill-opacity="0.5"/>
<path fill-rule="evenodd" clip-rule="evenodd" d="M452.235 251.683C452.136 251.686 452.037 251.687 451.937 251.687C446.506 251.687 442.103 247.285 442.103 241.853C442.103 236.438 446.481 232.045 451.891 232.02H334.227V232.024C336.796 232.18 338.855 236.521 338.855 241.854C338.855 247.186 336.796 251.527 334.227 251.683V251.688H452.235V251.683ZM451.984 232.02C452.068 232.02 452.151 232.021 452.235 232.024V232.02H451.984Z" fill="white" fill-opacity="0.5"/>
<path d="M356.496 144.729C356.077 144.729 355.659 144.748 355.24 144.786C355.316 144.595 355.373 144.384 355.411 144.154C356.553 139.848 357.01 135.713 356.896 131.808C359.123 130.257 360.951 127.616 361.693 124.687C362.95 119.863 360.779 115.901 356.953 115.901C355.64 115.901 354.326 116.36 353.07 117.107C349.358 110.848 343.19 107 335.309 107C325.258 107 314.749 113.259 306.926 122.849C304.698 117.049 300.015 113.317 293.619 113.317C285.395 113.317 276.772 119.461 271.404 128.305C269.919 127.214 268.034 126.525 265.921 126.525C258.725 126.525 251.016 133.818 248.731 142.834C248.693 142.949 248.655 143.082 248.617 143.236C247.418 142.432 245.933 141.972 244.277 141.972C241.307 141.972 238.28 143.408 235.596 145.705C232.684 141.398 228.115 138.814 222.347 138.814C210.297 138.814 185.968 150.299 181 165H229.029H238.395H238.794H247.646H276.372H282.083H295.732H317.148H331.711H344.96H370.831C372.087 153.457 366.262 144.729 356.496 144.729Z" fill="#738E51"/>
<path d="M-37 169.195C-37 169.195 -18.6563 52.4775 49.9013 56.2866C73.6402 57.5942 96.8781 62.0855 119.076 87.9533C137.959 109.898 156.264 118.767 192.489 111.49C303.129 89.1472 355 167.205 355 167.205L-37 169.195Z" fill="#ADB256"/>
<path d="M364.259 162.037C364.259 162.037 292.759 156.538 277.726 161.922C262.694 167.306 222.877 168.452 198.902 162.037C174.927 155.621 165.985 162.151 151.646 165.244C137.269 168.338 95.6795 158.542 73.9789 157.741C52.2782 156.996 -36.8372 155.793 -44.7388 163.64C-52.679 171.431 -47.0515 176.643 -17.4878 191.88C12.076 207.117 -28.473 212.444 -38.0321 219.489C-47.6297 226.478 -0.797913 255.118 55.4003 231.404C111.637 207.632 120.541 203.68 148.756 218.458C177.009 233.237 191.193 202.305 219.215 207.117C247.237 211.928 285.898 259.644 318.237 237.247C350.576 214.792 321.937 188.901 338.241 182.601C354.584 176.357 379.484 164.5 364.259 162.037Z" fill="#738E51"/>
<path d="M12 241L89.651 239.976C93.6685 239.919 97.2268 237.416 98.432 233.603C98.4703 233.566 98.4894 233.547 98.4894 233.547C100.326 227.686 97.0546 222.964 91.1432 222.964C88.0441 222.964 84.8301 224.272 82.1901 226.378C81.2718 225.922 80.1814 225.638 78.8614 225.638C76.7379 225.638 74.4996 226.434 72.6057 227.686C71.917 223.931 69.2196 221.086 65.1448 220.29C66.2926 219.038 67.2109 217.615 67.67 216.079C69.1048 211.584 66.5796 208 62.103 208C57.6264 208 52.8055 211.584 51.4281 216.079C51.1221 216.99 50.9881 217.881 51.0264 218.753C50.2229 218.564 49.3812 218.469 48.5012 218.469C43.5655 218.469 38.4576 220.916 34.6697 224.671C34.268 222.395 32.4315 220.802 29.7341 220.802C26.061 220.802 22.1009 223.817 20.8957 227.516C20.2644 229.678 20.6661 231.612 21.9288 232.807C18.3131 234.172 14.2957 237.814 12 241Z" fill="#ADB256"/>
<path d="M39.1595 149.559C41.4948 151.425 45.1474 153.459 43.6504 157.076C43.0516 158.998 41.0757 159.902 39.3392 161.089C38.8602 161.88 39.6386 162.898 39.2793 163.124C35.9261 167.023 28.9802 164.198 26.1659 160.524C22.8726 156.172 27.124 152.724 31.8544 152.046C35.0279 151.312 31.3155 147.807 33.052 146.621C34.489 145.095 37.3033 146.677 38.441 148.203C38.6207 148.655 38.8003 149.277 39.1595 149.559Z" fill="#D9D9D9"/>
<path d="M331.16 130.559C333.495 132.425 337.147 134.459 335.65 138.076C335.052 139.998 333.076 140.902 331.339 142.089C330.86 142.88 331.639 143.898 331.279 144.124C327.926 148.023 320.98 145.198 318.166 141.524C314.873 137.172 319.124 133.724 323.854 133.046C327.028 132.312 323.315 128.807 325.052 127.621C326.489 126.095 329.303 127.677 330.441 129.203C330.621 129.655 330.8 130.277 331.16 130.559Z" fill="#D9D9D9"/>
<path d="M363 160.663L362.71 157.091C362.653 156.645 362.247 156.31 361.842 156.366C361.842 156.366 358.889 157.538 358.368 157.538C355.704 157.482 351.188 157.259 347.193 155.863C346.691 155.714 346.208 155.528 345.745 155.305C339.608 152.738 327.738 154.524 323.164 155.863C323.125 155.9 323.086 155.919 323.048 155.919C322.353 156.142 321.948 156.812 322.005 157.482L322.411 161.836L322.7 166.245C322.758 166.971 323.337 167.585 324.09 167.641C328.838 168.31 340.824 168.366 346.498 164.905C350.493 162.45 355.704 161.333 358.599 160.887C359.178 160.775 362.247 161.501 362.247 161.501C362.71 161.501 363 161.11 363 160.663Z" fill="#92B5D8"/>
<path d="M289.249 182.656C289.544 185.536 286.959 185.905 286.959 185.905C286.959 185.905 266.575 187.752 252.616 189.081C243.9 189.894 241.906 186.201 241.906 183.764C241.906 183.099 242.128 182.434 242.349 182.139C243.753 180.44 254.831 182.286 259.558 182.213C264.211 182.065 268.052 180.071 278.022 178.15C284.596 176.821 287.255 178.003 288.436 179.701C288.953 180.588 289.175 181.696 289.249 182.656Z" fill="#331E20"/>
<path d="M285.555 173.646L283.265 108.504L259.336 117.662L264.58 163.823C264.58 163.823 257.563 169.584 250.104 178.594C250.104 178.594 243.9 179.481 244.712 183.395C245.524 187.236 250.768 187.088 252.689 187.236C260.222 187.9 264.58 183.469 276.618 183.986C282.305 184.207 285.85 180.736 285.555 173.646Z" fill="#6F4C22"/>
<path d="M289.249 182.657C289.544 185.538 286.959 185.907 286.959 185.907C286.959 185.907 266.575 187.754 252.616 189.083C243.9 189.895 241.906 186.203 241.906 183.765C244.048 186.72 249.366 186.203 252.099 186.055C255.127 185.907 257.416 184.135 262.291 184.652C267.165 185.095 275.216 180.072 282.232 180.589C286.073 180.885 287.698 180.294 288.436 179.703C288.953 180.589 289.175 181.697 289.249 182.657Z" fill="#45282A"/>
<path d="M268.126 184.872L256.383 171.874C255.792 171.209 255.866 170.175 256.531 169.584L262.365 164.34C263.03 163.749 263.99 163.823 264.581 164.488L280.682 181.623C281.642 182.657 280.977 184.355 279.574 184.503L269.603 185.463C269.013 185.463 268.496 185.316 268.126 184.872Z" fill="#F4EDEE"/>
<path d="M253.132 186.423L247.371 180.293C246.78 179.702 246.78 178.742 247.371 178.151L252.689 173.203C253.279 172.612 254.24 172.686 254.83 173.277L263.398 182.213C264.506 183.395 263.841 185.315 262.29 185.685L254.978 187.088C254.313 187.162 253.649 186.94 253.132 186.423Z" fill="#F4EDEE"/>
<path d="M260.886 126.969L280.458 125.713C283.338 125.492 289.025 107.84 291.463 76.8199C291.832 72.4623 296.411 61.9746 294.195 59.8328C286.514 52.2255 263.175 62.1224 262.732 65.0766C259.556 87.5292 258.596 93.1424 258.375 105.329C258.227 112.567 257.931 127.117 260.886 126.969Z" fill="#EBDBC4"/>
<path d="M259.779 38.4883L244.195 49.9362V50.01L248.405 58.6513L250.916 64.0428C250.916 64.0428 266.279 54.8107 270.71 51.4133C271.449 50.7486 272.335 49.9361 273.147 48.976C267.83 45.6524 260.001 38.7099 259.779 38.4883Z" fill="#6F4C22"/>
<path d="M221.153 69.1397C219.971 69.5829 218.568 68.992 218.125 67.8103C217.608 66.5547 218.198 65.2253 219.454 64.7083L230.533 60.2769C231.714 59.7599 233.117 60.3507 233.561 61.6063C234.078 62.788 233.487 64.1913 232.305 64.6344L221.226 69.1397C221.177 69.1397 221.153 69.1397 221.153 69.1397Z" fill="#F3AE91"/>
<path d="M239.174 66.5548L229.573 73.7927C228.539 74.6052 226.988 74.3836 226.249 73.3496C225.437 72.3156 225.658 70.8385 226.692 70.026L236.294 62.788C237.328 61.9756 238.805 62.1972 239.617 63.2312C240.43 64.2652 240.208 65.7423 239.174 66.5548Z" fill="#F3AE91"/>
<path d="M218.715 65.5195C218.617 65.5195 218.543 65.4702 218.493 65.3718C218.42 65.2979 218.493 65.1502 218.567 65.0763C218.863 64.9286 225.879 61.4573 227.947 60.7188C228.095 60.7188 228.243 60.7188 228.243 60.8665C228.316 61.0142 228.243 61.088 228.095 61.1619C226.101 61.9005 218.863 65.4456 218.789 65.5195C218.74 65.5195 218.715 65.5195 218.715 65.5195Z" fill="#211F20"/>
<path d="M274.327 49.9364C279.054 44.6187 284.298 35.0172 284.298 35.0172C286.883 29.8472 284.446 23.5694 278.98 21.5752C277.872 21.1321 276.691 20.9844 275.583 20.9844C272.111 20.9844 269.231 22.9047 266.868 25.4158C264.947 27.5577 258.965 38.2669 258.965 38.2669C261.993 41.4428 268.936 46.6128 274.327 49.9364Z" fill="#8D9E36"/>
<path d="M257.933 62.5658C261.995 62.9351 261.256 68.179 260.887 69.5822C255.2 91.0008 273.812 183.322 264.654 189.674L194.489 189.305C164.577 166.409 205.494 95.7277 205.494 95.7277C205.494 95.7277 219.97 59.39 257.933 62.5658Z" fill="#6F4C22"/>
<path d="M252.171 60.4236C250.398 55.032 239.911 53.3333 228.684 57.0261C208.448 63.7471 201.948 83.3931 203.647 88.8586C205.346 94.324 226.69 76.4506 236.513 70.025C245.967 63.821 253.87 65.889 252.171 60.4236Z" fill="#423336"/>
<path d="M202.316 142.628C201.504 141.077 201.43 139.378 202.021 137.827L203.129 138.492C203.572 138.714 204.089 138.344 204.015 137.827L203.572 135.538L203.055 132.657C202.981 132.288 202.612 132.067 202.243 132.214L199.51 133.174L197.294 133.913C196.777 134.135 196.703 134.799 197.146 135.021L198.18 135.612C196.851 138.492 196.925 141.816 198.402 144.696C200.027 147.65 202.907 149.571 206.157 149.94C206.822 150.014 207.339 149.497 207.339 148.906V146.69C207.339 146.173 206.969 145.656 206.452 145.582C204.68 145.287 203.129 144.253 202.316 142.628Z" fill="#ADB256"/>
<path d="M227.429 135.462L225.509 136.57C224.992 136.866 224.844 137.456 225.065 137.973C225.582 139.451 225.509 141.075 224.77 142.553C223.884 144.325 222.185 145.433 220.265 145.581V144.399C220.265 143.882 219.674 143.587 219.304 143.956L217.532 145.433L215.242 147.353C215.021 147.649 215.021 148.018 215.242 148.313L217.532 150.234L219.304 151.711C219.674 152.08 220.265 151.785 220.265 151.268V150.012C223.81 149.791 226.986 147.723 228.684 144.547C230.014 141.814 230.161 138.712 228.98 135.979C228.684 135.388 227.946 135.167 227.429 135.462Z" fill="#ADB256"/>
<path d="M218.122 125.935L217.088 126.526C216.644 126.748 216.718 127.413 217.161 127.634L219.377 128.373L222.184 129.333C222.479 129.481 222.848 129.259 222.922 128.89L223.513 126.009L223.956 123.72C224.03 123.203 223.513 122.833 223.07 123.055L221.962 123.72C220.042 120.839 216.94 119.141 213.542 119.141C210.293 119.141 207.338 120.692 205.418 123.203C205.049 123.72 205.197 124.458 205.787 124.754L207.708 125.935C208.151 126.157 208.742 126.083 209.037 125.64C210.145 124.311 211.77 123.572 213.542 123.572C215.389 123.572 217.088 124.458 218.122 125.935Z" fill="#ADB256"/>
<path d="M204.09 89.3025C204.09 89.3025 204.016 94.5463 209.038 92.4783L224.179 80.0703L204.09 89.3025Z" fill="#604E52"/>
<path d="M249.659 57.5431C248.921 59.2419 245.892 61.6053 243.972 61.6053C241.313 61.6053 239.541 59.2419 238.95 56.4353C238.851 56.1399 238.802 55.8198 238.802 55.4752C237.547 56.4353 236.069 57.6909 234.814 59.0203C234.518 59.3896 234.149 59.6111 233.706 59.685C233.189 59.9066 232.598 59.8327 232.007 59.6111C231.761 59.5127 231.515 59.365 231.269 59.168C230.309 58.2079 230.235 56.6569 231.121 55.6229C231.49 55.1797 232.081 54.6627 232.746 53.998C235.552 51.3392 240.575 47.4986 244.194 50.0097L249.659 57.5431Z" fill="#E9B556"/>
<path d="M207.71 76.0808C208.817 74.7514 209.408 73.1265 209.482 71.5755C209.531 70.7877 209.458 70.0491 209.261 69.3598C208.891 67.8826 209.261 66.3317 210.221 65.0761L211.255 63.8944C211.698 63.8944 211.993 63.7466 212.215 63.4512C212.88 62.7126 212.141 61.0139 210.516 59.7584C209.039 58.5028 207.34 58.1335 206.602 58.7982C206.602 58.7982 206.602 58.8228 206.602 58.8721C206.553 58.8721 206.528 58.8721 206.528 58.8721C206.528 58.9213 206.528 58.9459 206.528 58.9459C206.38 59.1921 206.331 59.5122 206.38 59.9061L205.346 61.0878C204.755 61.9002 203.943 62.4172 203.057 62.7126C202.515 62.9096 201.973 62.9834 201.432 62.9342C199.142 62.7865 196.779 63.8205 195.08 65.8147L193.381 67.9565L185.109 78.1488L184.888 78.4442C184.839 78.4442 184.814 78.4688 184.814 78.5181C184.297 79.3305 184.371 80.5861 185.035 81.9894C185.035 82.0386 185.06 82.0878 185.109 82.1371L192.938 88.4888C193.824 89.2274 194.932 89.5967 196.04 89.3751C196.705 89.3012 197.222 89.0058 197.591 88.5627L207.71 76.0808Z" fill="#92B5D8"/>
<path d="M196.113 68.0308C196.064 68.0308 196.015 68.0062 195.966 67.957C195.892 67.8831 195.892 67.7354 195.966 67.6616L196.409 67.0707C198.034 65.0765 200.471 63.9687 202.908 64.0425C203.056 64.0425 203.13 64.1903 203.13 64.2641C203.13 64.4118 203.056 64.4857 202.908 64.4857C200.619 64.4118 198.329 65.4458 196.778 67.3661L196.261 67.957C196.261 68.0062 196.212 68.0308 196.113 68.0308Z" fill="white"/>
<path d="M189.615 76.0068C189.566 76.0068 189.517 76.0068 189.468 76.0068C189.394 75.9329 189.394 75.7852 189.468 75.7114L191.979 72.4616C192.053 72.3878 192.2 72.3878 192.274 72.4616C192.348 72.5355 192.422 72.6094 192.348 72.7571L189.837 75.9329C189.788 75.9822 189.714 76.0068 189.615 76.0068Z" fill="white"/>
<path d="M110.587 149.348L105.121 154.592L100.764 157.989L112.507 169.289L122.256 160.722L110.587 149.348Z" fill="#E1987D"/>
<path d="M141.164 159.171L141.533 166.705L141.238 172.244L157.486 170.841L157.413 157.842L141.164 159.171Z" fill="#E1987D"/>
<path d="M134.147 162.347L137.323 122.612L97.5879 98.1649L117.603 87.1602L156.009 104.96C158.668 106.658 160.44 109.613 160.514 112.862L159.776 161.756L134.147 162.347Z" fill="#375592"/>
<path d="M125.8 164.046L105.49 149.127L126.244 126.01C123.363 124.237 106.45 115.079 102.979 112.051C97.9563 107.841 93.0079 102.523 93.968 95.8023C94.5589 91.5925 97.3654 86.9395 103.569 79.923C107.188 75.8609 111.915 73.1282 112.063 72.9805L124.397 86.3486C123.068 87.678 120.557 90.1892 119.301 91.5186C119.301 91.5186 142.861 110.057 149.361 117.59C152.02 120.692 155.269 126.896 149.435 133.986L125.8 164.046Z" fill="#375592"/>
<path d="M149.216 62.2695L161.846 67.3657L180.975 69.286L178.907 84.279C178.907 84.279 163.692 83.6881 156.085 82.1371C148.699 80.5861 143.086 75.49 143.086 75.49L149.216 62.2695Z" fill="#E1987D"/>
<path d="M127.945 62.1229C125.951 66.7759 128.314 72.4629 133.041 74.4571C137.177 76.3035 149.363 81.9166 149.363 81.9166C150.988 76.5989 152.835 67.6622 153.647 62.1229C153.647 62.1229 143.381 57.9131 140.205 57.3222C134.961 56.4359 130.087 57.1745 127.945 62.1229Z" fill="#F4EDEE"/>
<path d="M209.041 67.661C208.967 67.5871 207.859 66.8485 206.234 65.8884C206.431 65.6915 206.603 65.4699 206.751 65.2237C206.973 64.7806 207.12 64.3374 207.12 63.8943C207.047 62.5648 205.939 61.457 204.535 61.5308C203.428 61.6047 200.03 61.7524 196.411 62.491C192.127 62.6387 187.548 65.4453 185.702 66.7008C184.372 67.2917 182.895 68.0303 181.492 68.8427C181.492 68.8427 175.657 67.2917 174.993 67.661C174.328 68.0303 171.152 84.5004 171.743 84.5743C172.186 84.722 176.987 84.3527 178.095 84.2789C178.538 84.6235 179.005 84.9928 179.498 85.3867C181.492 87.0116 184.742 89.3011 188.213 89.5965C189.469 89.6704 190.65 89.0057 191.241 87.9717C191.487 87.5778 191.635 87.11 191.684 86.5684C191.758 85.0174 190.798 83.688 189.395 83.2448L186.588 81.6938C186.145 81.4723 185.997 81.0291 186.071 80.8076C186.219 80.5121 186.391 80.2413 186.588 79.9951C187.474 78.5918 188.582 77.7794 189.838 77.1886C191.241 76.5977 192.792 76.2284 193.974 76.0807C195.082 75.8591 195.894 75.8591 196.116 75.8591C197.962 75.933 199.956 76.45 201.877 77.5578C202.984 78.2226 204.462 77.7794 205.126 76.6716C205.175 76.6716 205.2 76.6469 205.2 76.5977C205.496 76.0807 205.569 75.416 205.422 74.899C206.53 75.416 207.859 75.0467 208.524 74.0127C208.524 73.9635 208.548 73.9142 208.598 73.865C208.967 73.2003 208.967 72.4617 208.745 71.797C209.041 71.6 209.311 71.3538 209.558 71.0584C209.607 71.0092 209.656 70.9353 209.705 70.8368C210.296 69.8028 210.075 68.3996 209.041 67.661Z" fill="#EFBC51"/>
<path d="M135.476 56.287C116.643 54.8098 106.081 72.0185 105.121 75.4898C104.087 78.8872 111.399 86.4207 121.591 91.2214C127.426 94.028 128.607 83.9095 136.51 82.3585C143.083 81.0291 144.265 75.4898 145.151 70.6891C146.407 63.6727 145.89 57.0994 135.476 56.287Z" fill="#ADB256"/>
<path d="M147.442 47.2787C147.442 47.2787 157.929 42.9211 161.844 50.6761C166.054 58.8004 155.714 58.1357 159.85 68.4018C163.247 76.6 158.225 83.9118 152.833 84.4288C140.647 85.5367 142.493 75.7876 144.34 68.4018C146.851 57.9141 147.442 47.2787 147.442 47.2787Z" fill="#45282A"/>
<path d="M141.163 55.5488L137.027 59.2417C135.328 60.645 134.737 63.0084 135.55 65.0764C137.027 68.8431 141.828 69.8771 144.782 67.0705L145.89 65.9627L141.163 55.5488Z" fill="#E1987D"/>
<path d="M155.86 62.6398C153.792 67.2928 149.36 69.8778 145.298 67.4405C141.162 65.0771 138.872 58.9469 141.384 54.5894C143.969 50.2318 149.36 48.6069 153.496 50.9704C157.558 53.3338 158.74 56.2881 155.86 62.6398Z" fill="#E1987D"/>
<path d="M141.014 56.7309L144.781 56.8048C154.013 51.6348 157.189 56.1401 157.484 56.7309C157.484 56.7309 157.558 56.8048 157.632 56.7309C163.762 50.9701 151.133 45.0615 146.406 45.5785C140.793 46.2432 139.389 52.8165 138.651 56.8787C138.503 58.0604 141.014 56.7309 141.014 56.7309Z" fill="#45282A"/>
<path d="M144.782 56.8039C144.412 57.3948 143.748 57.7641 143.083 57.8379C142.64 57.9118 142.123 57.8379 141.754 57.5425C141.704 57.5425 141.655 57.5179 141.606 57.4686C141.089 57.1732 140.72 56.5823 140.646 55.9915C140.572 55.4745 140.646 54.9575 140.941 54.5143C141.532 53.4803 142.861 53.111 143.969 53.7019C145.003 54.3666 145.373 55.6961 144.782 56.8039Z" fill="#C17E67"/>
<path d="M130.973 185.685C130.899 185.021 130.604 184.356 130.087 183.839C129.791 183.494 129.422 183.224 128.979 183.027C126.246 181.771 121.076 179.186 116.497 176.379C116.423 175.05 116.423 173.868 116.645 172.908C118.122 166.113 113.691 165.744 113.691 165.744C113.691 165.744 107.191 165.596 106.896 161.313C106.6 157.029 106.157 153.41 103.498 154.444C103.498 154.444 94.7093 154.887 90.9426 158.949C90.9426 158.998 90.9426 159.023 90.9426 159.023C90.4256 159.983 89.687 160.943 88.8007 161.682C87.3974 162.79 85.6987 163.381 84.0739 163.454C84.0739 163.553 84.0739 163.651 84.0739 163.75C84.0739 163.799 84.0492 163.848 84 163.898C84 164.144 84.0246 164.39 84.0739 164.636C84.0739 164.685 84.0739 164.735 84.0739 164.784C84.0739 164.833 84.0739 164.907 84.0739 165.005C84.1231 165.055 84.1477 165.129 84.1477 165.227C84.1477 165.325 84.1723 165.424 84.2216 165.522C84.2216 165.621 84.2462 165.719 84.2954 165.818C84.2954 165.916 84.2954 165.99 84.2954 166.039C84.3447 166.138 84.3693 166.212 84.3693 166.261C84.4185 166.458 84.4924 166.655 84.5909 166.852C84.5909 166.852 84.5909 166.876 84.5909 166.926C84.6401 167.024 84.6647 167.098 84.6647 167.147C84.714 167.197 84.7386 167.246 84.7386 167.295C84.7878 167.344 84.8124 167.418 84.8124 167.517C84.8124 167.566 84.8371 167.615 84.8863 167.664C84.9355 167.812 85.0094 167.96 85.1079 168.107C85.1079 168.157 85.1079 168.206 85.1079 168.255C85.2063 168.403 85.3048 168.575 85.4033 168.772C85.4525 168.871 85.5018 168.944 85.551 168.994C85.551 169.043 85.5756 169.117 85.6249 169.215C85.6741 169.265 85.7234 169.338 85.7726 169.437C85.8218 169.535 85.8711 169.634 85.9203 169.732C85.9695 169.831 86.0188 169.905 86.068 169.954C86.1173 170.052 86.1665 170.126 86.2157 170.175C86.2157 170.225 86.2403 170.299 86.2896 170.397C86.3388 170.446 86.3881 170.495 86.4373 170.545C86.5358 170.692 86.6342 170.84 86.7327 170.988C86.8312 171.185 86.9543 171.357 87.102 171.505C87.1512 171.603 87.2005 171.702 87.2497 171.8C87.299 171.85 87.3236 171.874 87.3236 171.874C87.422 172.022 87.4959 172.145 87.5452 172.243C87.6436 172.293 87.7175 172.367 87.7667 172.465C87.816 172.514 87.8652 172.588 87.9144 172.687C88.0129 172.785 88.0868 172.859 88.136 172.908C89.5639 174.779 91.3857 176.724 93.6014 178.743C94.1184 179.26 94.7831 179.555 95.4479 179.629C96.925 179.777 99.7316 180.663 99.8793 184.725C99.9531 186.572 101.061 188.714 102.686 190.782C106.231 189.231 109.776 187.606 113.174 185.759C112.386 187.926 111.549 190.068 110.662 192.185C116.054 193.071 122.627 192.48 124.104 192.259C124.252 192.209 124.449 192.16 124.695 192.111C124.745 192.111 124.794 192.111 124.843 192.111C124.892 192.111 124.941 192.086 124.991 192.037C126.837 191.52 129.644 190.191 130.678 187.606C130.776 187.409 130.85 187.187 130.899 186.941C130.998 186.498 131.022 186.079 130.973 185.685Z" fill="#DE774B"/>
<path d="M130.973 185.686C130.899 185.021 130.604 184.356 130.087 183.839C130.161 183.987 131.121 188.049 123.292 185.317C119.673 184.061 116.571 183.839 113.912 183.766C109.038 184.726 106.748 182.953 106.083 180.368C104.828 175.641 101.283 174.755 100.175 173.204C100.175 173.204 96.1126 161.018 90.9426 159.023C90.4256 159.984 89.687 160.944 88.8007 161.682C87.3974 162.79 85.6987 163.381 84.0739 163.455C84.0739 163.553 84.0739 163.652 84.0739 163.75C84.0739 163.8 84.0492 163.849 84 163.898C84 164.144 84.0246 164.39 84.0739 164.637C84.0739 164.686 84.0739 164.735 84.0739 164.784C84.0739 164.834 84.0739 164.907 84.0739 165.006C84.1231 165.055 84.1477 165.129 84.1477 165.227C84.1477 165.326 84.1723 165.424 84.2216 165.523C84.2216 165.621 84.2462 165.72 84.2954 165.818C84.2954 165.917 84.2954 165.991 84.2954 166.04C84.3447 166.138 84.3693 166.212 84.3693 166.261C84.4185 166.458 84.4924 166.655 84.5909 166.852C84.5909 166.852 84.5909 166.877 84.5909 166.926C84.6401 167.025 84.6647 167.098 84.6647 167.148C84.714 167.197 84.7386 167.246 84.7386 167.295C84.7878 167.345 84.8124 167.419 84.8124 167.517C84.8124 167.566 84.8371 167.615 84.8863 167.665C84.9355 167.812 85.0094 167.96 85.1079 168.108C85.1079 168.157 85.1079 168.206 85.1079 168.256C85.2063 168.403 85.3048 168.576 85.4033 168.773C85.4525 168.871 85.5018 168.945 85.551 168.994C85.551 169.043 85.5756 169.117 85.6249 169.216C85.6741 169.265 85.7234 169.339 85.7726 169.437C85.8218 169.536 85.8711 169.634 85.9203 169.733C85.9695 169.831 86.0188 169.905 86.068 169.954C86.1173 170.053 86.1665 170.127 86.2157 170.176C86.2157 170.225 86.2403 170.299 86.2896 170.397C86.3388 170.447 86.3881 170.496 86.4373 170.545C86.5358 170.693 86.6342 170.841 86.7327 170.988C86.8312 171.185 86.9543 171.358 87.102 171.505C87.1512 171.604 87.2005 171.702 87.2497 171.801C87.299 171.85 87.3236 171.875 87.3236 171.875C87.422 172.022 87.4959 172.145 87.5452 172.244C87.6436 172.293 87.7175 172.367 87.7667 172.465C87.816 172.515 87.8652 172.589 87.9144 172.687C88.0129 172.785 88.0868 172.859 88.136 172.909C89.5639 174.78 91.3857 176.725 93.6014 178.743C94.1184 179.26 94.7831 179.556 95.4479 179.63C96.925 179.777 99.7316 180.664 99.8793 184.726C99.8793 186.498 100.987 188.566 102.464 190.56C102.514 190.659 102.587 190.733 102.686 190.782C104.754 192.628 115.094 192.628 115.094 192.628C119.156 192.776 122.997 192.407 124.104 192.259C124.252 192.21 124.449 192.161 124.695 192.111C124.745 192.111 124.794 192.111 124.843 192.111C124.892 192.111 124.941 192.087 124.991 192.038C126.837 191.521 129.644 190.191 130.678 187.606C130.776 187.409 130.85 187.188 130.899 186.941C130.998 186.498 131.022 186.08 130.973 185.686Z" fill="#6E6E6E"/>
<path d="M186.364 184.282C186.315 184.479 186.266 184.676 186.216 184.873C185.33 187.606 182.671 189.157 180.825 189.748C180.825 189.797 180.8 189.822 180.751 189.822C180.702 189.822 180.652 189.846 180.603 189.896C180.357 189.945 180.16 189.994 180.012 190.043C177.797 190.56 164.502 192.628 160.219 189.009C157.043 186.424 154.605 187.901 153.498 188.935C152.907 189.379 152.242 189.674 151.577 189.748C148.574 189.994 145.915 190.043 143.601 189.896C143.502 189.896 143.404 189.896 143.305 189.896C143.256 189.896 143.231 189.896 143.231 189.896C143.182 189.896 143.108 189.896 143.01 189.896C143.01 189.896 143.01 189.871 143.01 189.822C142.911 189.822 142.813 189.822 142.714 189.822C142.567 189.822 142.444 189.822 142.345 189.822C142.296 189.822 142.247 189.797 142.197 189.748C142.099 189.748 141.976 189.748 141.828 189.748C141.631 189.699 141.41 189.674 141.163 189.674C141.016 189.625 140.868 189.6 140.72 189.6C140.622 189.551 140.548 189.526 140.499 189.526C140.4 189.526 140.302 189.526 140.203 189.526C140.154 189.477 140.08 189.452 139.982 189.452C139.932 189.452 139.859 189.428 139.76 189.379C139.662 189.379 139.539 189.354 139.391 189.305C139.292 189.305 139.194 189.305 139.095 189.305C139.046 189.256 138.997 189.231 138.948 189.231C138.948 189.231 138.923 189.231 138.874 189.231C138.825 189.182 138.775 189.157 138.726 189.157C138.48 189.108 138.258 189.059 138.061 189.009C138.012 188.96 137.963 188.935 137.914 188.935C137.766 188.886 137.618 188.837 137.471 188.788C137.421 188.788 137.372 188.763 137.323 188.714C137.274 188.714 137.224 188.689 137.175 188.64C137.077 188.64 137.003 188.64 136.954 188.64C136.904 188.591 136.855 188.566 136.806 188.566C136.757 188.517 136.707 188.492 136.658 188.492C136.461 188.394 136.289 188.32 136.141 188.271C136.043 188.222 135.969 188.172 135.92 188.123C135.87 188.123 135.796 188.098 135.698 188.049C135.6 188 135.501 187.951 135.403 187.901C135.353 187.852 135.279 187.803 135.181 187.754C135.132 187.705 135.058 187.655 134.959 187.606C134.91 187.557 134.861 187.508 134.812 187.458C134.762 187.458 134.738 187.434 134.738 187.384C134.492 187.237 134.295 187.089 134.147 186.941C134.098 186.892 134.049 186.843 133.999 186.794C133.95 186.744 133.901 186.695 133.852 186.646C134.886 185.316 135.55 183.692 135.624 181.919C135.698 180.737 135.476 179.556 135.107 178.522C134.516 172.982 140.056 166.114 140.056 166.114C141.016 163.455 144.044 165.523 147.441 168.182C150.839 170.84 155.27 166.114 155.27 166.114C155.27 166.114 158.52 163.012 162.582 168.625C165.832 173.13 179.126 178.522 184.148 180.442C184.641 180.639 185.059 180.885 185.404 181.18C185.847 181.697 186.216 182.288 186.364 182.953C186.462 183.396 186.462 183.839 186.364 184.282Z" fill="#DE774B"/>
<path d="M186.364 184.282C186.315 184.479 186.266 184.676 186.216 184.873C185.33 187.606 182.671 189.157 180.825 189.748C180.825 189.797 180.8 189.822 180.751 189.822C180.702 189.822 180.652 189.846 180.603 189.895C180.357 189.945 180.16 189.994 180.012 190.043C177.797 190.56 164.502 192.628 160.219 189.009C157.043 186.424 154.605 187.901 153.498 188.935C152.907 189.378 152.242 189.674 151.577 189.748C148.574 189.994 145.915 190.043 143.601 189.895C143.502 189.895 143.404 189.895 143.305 189.895C143.256 189.895 143.231 189.895 143.231 189.895C143.182 189.895 143.108 189.895 143.01 189.895C143.01 189.895 143.01 189.871 143.01 189.822C142.911 189.822 142.813 189.822 142.714 189.822C142.567 189.822 142.444 189.822 142.345 189.822C142.296 189.822 142.247 189.797 142.197 189.748C142.099 189.748 141.976 189.748 141.828 189.748C141.631 189.699 141.41 189.674 141.163 189.674C141.016 189.625 140.868 189.6 140.72 189.6C140.622 189.551 140.548 189.526 140.499 189.526C140.4 189.526 140.302 189.526 140.203 189.526C140.154 189.477 140.08 189.452 139.982 189.452C139.932 189.452 139.859 189.428 139.76 189.378C139.662 189.378 139.539 189.354 139.391 189.305C139.292 189.305 139.194 189.305 139.095 189.305C139.046 189.255 138.997 189.231 138.948 189.231C138.948 189.231 138.923 189.231 138.874 189.231C138.825 189.182 138.775 189.157 138.726 189.157C138.48 189.108 138.258 189.058 138.061 189.009C138.012 188.96 137.963 188.935 137.914 188.935C137.766 188.886 137.618 188.837 137.471 188.788C137.421 188.788 137.372 188.763 137.323 188.714C137.274 188.714 137.224 188.689 137.175 188.64C137.077 188.64 137.003 188.64 136.954 188.64C136.904 188.591 136.855 188.566 136.806 188.566C136.757 188.517 136.707 188.492 136.658 188.492C136.461 188.394 136.289 188.32 136.141 188.271C136.043 188.221 135.969 188.172 135.92 188.123C135.87 188.123 135.796 188.098 135.698 188.049C135.6 188 135.501 187.951 135.403 187.901C135.353 187.852 135.279 187.803 135.181 187.754C135.132 187.704 135.058 187.655 134.959 187.606C134.91 187.557 134.861 187.507 134.812 187.458C134.762 187.458 134.738 187.434 134.738 187.384C134.492 187.237 134.295 187.089 134.147 186.941C134.098 186.892 134.049 186.843 133.999 186.793C133.95 186.744 133.901 186.695 133.852 186.646C134.886 185.316 135.55 183.691 135.624 181.919C135.698 180.737 135.476 179.555 135.107 178.521C140.056 176.01 151.799 181.033 151.799 181.033C153.719 181.328 156.747 179.26 161.105 181.476C165.536 183.765 170.485 180.959 178.683 183.174C186.659 185.316 185.404 181.328 185.404 181.18C185.847 181.697 186.216 182.288 186.364 182.953C186.462 183.396 186.462 183.839 186.364 184.282Z" fill="#6E6E6E"/>
<path d="M132.154 115.151C131.711 115.447 131.317 115.717 130.972 115.964C130.529 116.259 130.307 116.85 130.381 117.515C130.43 117.662 130.48 117.81 130.529 117.958L132.228 122.758L133.779 127.559C134.074 128.372 134.739 128.962 135.403 128.889C138.653 128.741 145.374 127.264 150.027 124.457C151.504 123.497 152.76 122.463 153.646 121.281C155.419 118.918 157.708 117.145 159.776 115.89C160.884 115.225 161.918 114.708 162.731 114.339C163.174 114.117 166.054 114.339 166.054 114.339C166.423 114.191 166.571 113.674 166.423 113.231L165.02 109.243C164.872 108.799 164.429 108.504 164.06 108.652C164.06 108.652 161.918 110.498 161.475 110.646C160.663 110.794 159.702 111.015 158.521 111.163C157.339 111.311 155.936 111.384 154.459 111.384C153.769 111.335 153.08 111.286 152.391 111.237C152.243 111.187 152.095 111.163 151.947 111.163C151.307 111.064 150.667 110.917 150.027 110.72C150.027 110.72 150.003 110.72 149.953 110.72C147.885 110.203 145.374 110.35 142.863 110.867C138.801 111.754 134.739 113.674 132.154 115.151Z" fill="#92B5D8"/>
<path d="M125.505 85.4627C119.892 84.6503 114.501 83.3947 109.183 81.8438L107.632 85.832C106.229 88.8602 106.746 92.4053 109.035 94.7688L124.471 110.722C129.198 115.67 137.027 115.818 141.976 111.091L144.487 108.654L124.324 87.6785L125.505 85.4627Z" fill="#E1987D"/>
<path d="M127.426 60.2026C122.699 58.2824 117.012 60.7196 115.092 65.3726C113.319 69.5825 107.854 81.8428 107.854 81.8428C113.171 83.3938 122.108 85.0925 127.721 85.9049C127.721 85.9049 131.783 75.5649 132.3 72.3891C133.113 67.1452 132.374 62.2706 127.426 60.2026Z" fill="#ADB256"/>
<path d="M159.553 113.527C158.224 110.647 155.86 108.874 153.94 107.84C150.247 105.994 139.686 101.636 136.953 100.529C135.993 99.1252 133.482 95.5801 132.965 95.5801C132.448 95.5801 119.301 106.659 119.966 107.397C120.63 108.136 123.954 110.278 123.954 110.278C127.942 114.857 133.555 116.039 138.652 115.595C141.015 116.334 141.384 116.999 141.384 117.22C141.532 117.516 141.237 118.328 140.276 119.51C139.39 120.544 139.464 122.021 140.498 122.907C140.941 123.35 141.532 123.498 142.049 123.498C142.492 123.498 142.886 123.4 143.231 123.203C143.378 123.72 143.674 124.163 144.043 124.458C144.486 124.828 145.003 124.975 145.52 124.975C146.259 124.975 146.997 124.68 147.514 124.015C148.253 122.981 148.844 121.996 149.287 121.061C149.238 121.75 149.139 122.464 148.992 123.203C148.696 124.532 149.582 125.788 150.912 126.083C151.06 126.132 151.207 126.157 151.355 126.157C152.463 126.157 153.497 125.345 153.719 124.163C154.531 120.396 154.457 116.851 154.235 114.266C154.629 114.66 154.925 115.078 155.122 115.522C155.786 116.999 155.639 118.697 154.605 120.765C154.014 121.947 154.457 123.424 155.639 124.015C156.033 124.212 156.402 124.311 156.747 124.311C157.633 124.311 158.519 123.794 158.962 122.981C160.661 119.584 160.883 116.408 159.553 113.527Z" fill="#E9B556"/>
<path d="M294.27 189.23C294.27 192.111 291.759 192.259 291.759 192.259C291.759 192.259 271.227 192.259 257.194 192.259C248.479 192.259 246.854 188.344 247.076 185.981C247.149 185.242 247.371 184.651 247.666 184.356C249.217 182.805 260.074 185.685 264.727 186.055C269.38 186.35 273.443 184.725 283.561 183.691C290.208 183.026 292.793 184.43 293.753 186.276C294.196 187.162 294.27 188.27 294.27 189.23Z" fill="#331E20"/>
<path d="M290.43 118.105H266.501L270.932 168.402C270.932 168.402 263.472 173.72 255.496 182.213C255.496 182.213 249.218 182.73 249.809 186.645C250.4 190.559 255.643 190.781 257.49 191.076C265.023 192.184 269.602 188.048 281.567 189.378C287.254 189.968 291.021 186.645 291.169 179.628L290.43 118.105Z" fill="#6F4C22"/>
<path d="M265.095 127.781L292.792 126.821C295.524 126.821 294.416 82.3591 296.041 74.3087C296.928 70.025 296.411 61.9745 294.195 59.8327C286.514 52.2254 263.766 62.0484 263.618 65.0765C263.47 69.311 263.347 73.3978 263.249 77.3368C262.879 89.154 262.732 99.3463 262.806 107.471C262.953 120.248 263.692 127.781 265.095 127.781Z" fill="#D9D9D9"/>
<path d="M294.27 189.23C294.27 192.111 291.759 192.258 291.759 192.258C291.759 192.258 271.227 192.258 257.194 192.258C248.479 192.258 246.854 188.344 247.076 185.98C248.922 189.082 254.24 189.082 256.972 189.23C260.001 189.304 262.438 187.753 267.239 188.713C272.113 189.599 280.533 185.39 287.475 186.571C291.316 187.162 293.015 186.793 293.753 186.276C294.196 187.162 294.27 188.27 294.27 189.23Z" fill="#45282A"/>
<path d="M273.073 189.526L262.585 175.419C262.068 174.754 262.216 173.72 262.955 173.203L269.233 168.55C269.897 167.959 270.931 168.107 271.448 168.846L285.85 187.458C286.737 188.565 285.924 190.19 284.521 190.19H274.476C273.886 190.19 273.369 189.969 273.073 189.526Z" fill="#6E6E6E"/>
<path d="M258.006 189.673L252.762 183.026C252.319 182.361 252.392 181.401 253.057 180.884L258.818 176.453C259.483 175.936 260.369 176.009 260.886 176.674L268.567 186.423C269.601 187.679 268.789 189.599 267.164 189.747L259.778 190.412C259.113 190.485 258.449 190.19 258.006 189.673Z" fill="#6E6E6E"/>
<path d="M297.741 68.3254L284.225 68.7686L283.191 62.86L280.68 68.9163L261.551 69.581C261.551 69.581 264.357 30.0674 269.01 23.4941C269.01 23.4941 279.867 16.4777 294.048 25.0451C294.048 25.0451 300.621 36.0499 297.741 68.3254Z" fill="#8D9E36"/>
<path d="M277.726 41.8848L277.579 45.2083L263.324 52.1509L274.181 62.6386C274.181 62.6386 292.572 55.3268 294.049 53.3326C296.117 50.526 295.083 43.0665 295.083 43.0665L277.726 41.8848Z" fill="#6F4C22"/>
<path d="M266.205 50.1573C265.688 50.0096 263.915 51.4128 262.881 52.2991L262.364 52.4468L249.07 56.2874C249.07 56.2874 249.095 56.2874 249.144 56.2874C247.888 56.6567 246.263 57.3953 244.639 59.3156C241.61 62.713 243.9 67.8091 244.122 68.3261C244.269 68.6216 244.466 68.8678 244.712 69.0647C245.303 69.5817 246.263 69.7294 247.076 69.3601C247.273 69.2617 247.47 69.1139 247.667 68.917C247.962 69.5078 248.258 69.8771 248.331 70.0248C248.528 70.271 248.775 70.468 249.07 70.6157C249.809 70.985 250.695 70.985 251.433 70.3941C251.803 70.0987 252.024 69.7294 252.172 69.3601C252.689 70.0248 253.206 70.468 253.354 70.6157C253.551 70.8619 253.797 71.0342 254.092 71.1327C254.905 71.3543 255.791 71.2066 256.382 70.5418C256.677 70.2464 256.825 69.951 256.899 69.6556C258.745 70.3941 260.592 69.951 260.813 69.951C261.995 69.5817 262.734 68.4 262.438 67.2183C262.069 66.1104 260.887 65.3718 259.705 65.6673C259.558 65.7411 258.893 65.815 258.524 65.5934C258.524 65.5934 258.376 65.5196 258.302 65.0764C258.253 64.8795 258.253 64.6579 258.302 64.4117C262.143 66.0365 267.165 66.4058 273.147 63.1561C273.147 63.1561 277.874 63.4516 277.948 61.9744C278.022 60.4973 266.87 50.4527 266.205 50.1573Z" fill="#E9B556"/>
<path d="M288.436 22.9777C282.97 22.6084 280.459 26.8182 278.539 31.9144C277.8 33.9824 276.988 40.3341 276.914 43.1407C282.527 46.7597 290.135 49.3447 296.412 50.9695C297.742 44.1747 297.742 40.2602 297.446 33.0961C297.225 26.8182 293.975 23.3469 288.436 22.9777Z" fill="#8D9E36"/>
<path d="M282.158 15.0742L282.971 21.2782C283.414 23.4201 278.909 25.8574 278.909 25.8574C274.034 28.1469 272.557 26.6698 272.04 22.6815L271.818 21.1305L282.158 15.0742Z" fill="#6F4C22"/>
<path d="M266.574 12.5651C266.525 12.959 266.5 13.3775 266.5 13.8207C266.5 17.8828 268.494 21.2064 272.187 21.7234C272.482 21.7726 272.802 21.7973 273.147 21.7973C277.8 21.7973 282.749 17.809 282.749 12.8605C282.749 7.91212 278.982 3.92383 274.329 3.92383C269.676 3.92383 267.312 5.77027 266.574 12.5651Z" fill="#6F4C22"/>
<path d="M277.283 0.0085447C266.869 -0.286884 264.653 7.17269 267.681 7.76354C267.681 7.76354 267.681 7.73892 267.681 7.68968C267.903 7.3204 269.897 3.92297 275.289 6.65569C276.175 7.09883 277.209 7.24654 278.169 7.17269C278.908 7.17269 279.646 7.17268 279.868 7.61582C280.016 7.98511 279.72 8.57597 279.277 9.01911C278.834 9.60997 278.686 10.4224 278.982 11.0871L280.533 13.8937L281.493 15.6663C282.305 17.0695 282.305 16.7741 283.044 15.1493L284.595 11.8257C285.432 11.1364 286.023 10.2747 286.367 9.24069C287.475 5.54783 285.629 0.303973 277.283 0.0085447Z" fill="#543616"/>
<path d="M277.873 13.5241C277.873 15.0012 279.055 16.1829 280.532 16.1829C282.009 16.1829 283.191 15.0012 283.191 13.5241C283.191 12.0469 282.009 10.8652 280.532 10.8652C279.055 10.8652 277.873 12.0469 277.873 13.5241Z" fill="#6F4C22"/>
</svg>
