<svg width="152" height="84" viewBox="0 0 152 84" fill="none" xmlns="http://www.w3.org/2000/svg">
<path d="M36.0445 64.997C30.3065 65.772 27.5745 67.711 25.5115 69.583C23.4485 71.455 22.0875 71.796 17.4915 72.647C12.8955 73.498 8.12954 73.328 9.49154 75.711C10.8535 78.094 -3.10446 74.969 0.640538 78.489C4.38554 82.009 39.7895 80.136 48.6405 82.179C57.4915 84.222 104.13 84.392 113.152 83.37C122.173 82.349 119.79 80.647 127.109 79.966C134.428 79.285 154.173 78.604 148.896 76.051C143.619 73.498 146.513 71.467 150.939 70.865C155.365 70.263 142.599 66.859 120.301 66.349C98.0025 65.839 49.8325 63.134 36.0445 64.997Z" fill="#C2CB8E"/>
<path d="M108 76.0568C107.96 76.0568 107.91 76.0668 107.87 76.0668C93.9203 77.4168 96.9803 78.7768 80.3003 78.4368C63.6203 78.0968 36.0403 78.8168 29.2403 76.0668C22.4303 73.3268 26.5103 71.6268 29.2403 69.9268C30.3203 69.2568 30.8703 68.3068 31.1303 67.4068C31.5303 66.0568 31.2803 64.8168 31.2803 64.8168C32.6403 58.3468 50.0003 56.3069 54.0903 54.2669C58.1703 52.2269 61.9203 47.4568 66.0003 49.4968C68.8003 50.8868 71.1103 52.9268 74.4703 53.5268C76.0203 53.8068 77.8003 53.7868 79.9603 53.2468C81.0603 52.9668 82.0503 52.7069 82.9703 52.4569C87.6903 51.1869 90.2203 50.5069 94.0803 52.2269C98.6803 54.2669 104.15 55.4668 105.5 56.9068C105.67 57.0868 105.86 57.2869 106.09 57.4869C107.49 58.7369 110.15 60.3968 115.61 61.5968C116.43 61.7768 117.31 61.9468 118.26 62.0968C126.6 63.4568 130.12 69.5868 134.66 71.2868C139.18 72.9769 121.94 74.7168 108 76.0568Z" fill="#738E51"/>
<path d="M90.1707 61.757C83.0207 57.497 82.1707 62.947 80.4507 61.757C79.2407 60.917 77.6407 57.257 74.4707 53.527C76.0207 53.807 77.8007 53.787 79.9607 53.247C81.0607 52.967 82.0507 52.707 82.9707 52.457C82.6107 53.617 82.3807 54.777 82.6407 55.457C83.2907 57.157 89.8307 57.157 93.2407 59.197C96.6407 61.247 97.3207 66.007 90.1707 61.757Z" fill="#425828"/>
<path d="M108 76.0567C107.96 76.0567 107.91 76.0667 107.87 76.0667C93.9203 77.4167 96.9803 78.7767 80.3003 78.4367C63.6203 78.0967 36.0403 78.8167 29.2403 76.0667C22.4303 73.3267 26.5103 71.6267 29.2403 69.9267C30.3203 69.2567 30.8703 68.3067 31.1303 67.4067C32.4603 69.9867 32.6603 72.0567 34.5103 73.3267C37.2403 75.1967 49.3203 75.0267 53.4103 74.5167C57.4903 74.0067 62.4303 76.0567 63.4503 76.3967C64.4703 76.7367 74.8503 79.2867 75.0203 76.3967C75.1903 73.4967 74.3403 70.4367 66.6803 66.1767C59.0203 61.9267 69.5803 62.7767 73.6603 65.6667C77.7503 68.5667 77.4103 71.7967 77.7503 73.8367C78.0903 75.8767 85.0703 77.5867 89.1503 76.9067C93.2403 76.2267 95.6203 66.1367 100.9 70.4967C102.6 71.8967 105.67 73.9257 108 76.0567Z" fill="#ADB256"/>
<path d="M115.61 61.5968C112.7 62.6968 110.69 63.3668 109.19 62.4368C107.28 61.2468 107.36 66.3468 105.5 64.6468C103.83 63.1168 102.82 61.0368 106.09 57.4868C107.49 58.7358 110.15 60.3968 115.61 61.5968Z" fill="#425828"/>
<path d="M120.727 16.6821C120.574 15.8717 120.196 15.166 119.658 14.5494C119.424 14.2802 119.156 14.1075 118.868 13.9872C119.305 13.4433 119.661 12.8362 119.91 12.3732C120.577 11.1332 120.18 9.58249 119.175 8.67762C118.173 7.77683 116.545 8.53758 115.665 9.21674C115.435 9.39486 114.941 9.91221 114.645 10.4391C113.944 9.62328 113.056 8.96043 112.073 8.49814C109.965 7.50829 107.411 7.73128 105.205 8.19493C102.986 8.65994 100.911 9.69467 99.1174 11.0686C98.4512 11.5792 97.8767 12.1605 97.3648 12.7879C97.1907 11.8926 96.7012 11.0713 95.8372 10.5057C95.6291 10.3704 95.3898 10.2766 95.1356 10.212C95.3926 8.26767 94.7555 6.07994 93.5903 4.62099C91.7724 2.34692 88.9402 1.00831 86.1433 0.39713C83.5075 -0.177338 80.111 -0.240565 77.6371 0.966836C76.1122 1.7099 74.484 2.9207 73.4336 4.41704C73.4091 4.39052 73.3915 4.36198 73.3826 4.33138C70.5341 2.37479 66.1518 2.06139 63.0116 2.40607C58.1514 2.9411 53.8575 5.50276 50.9444 9.40438C47.8674 13.5242 46.5567 18.9521 47.9606 23.9415C48.6581 26.4208 50.0892 28.7051 51.9689 30.4612C52.8704 31.3021 53.9051 31.8813 55.0139 32.2464C55.0364 32.9324 55.1832 33.634 55.4429 34.3206C55.6578 34.8869 55.9603 35.4179 56.3254 35.9006C56.4627 36.0094 56.5919 36.131 56.7047 36.2888C56.7618 36.3676 56.7312 36.4784 56.6721 36.5437C56.29 36.9713 55.9773 37.5193 55.7196 38.1148C55.4205 38.8953 55.2329 39.724 55.1146 40.533C54.7019 43.3551 55.277 46.413 56.7407 48.8604C58.3302 51.5139 61.1869 52.8402 64.1993 53.0612C65.3482 53.1448 66.4686 53.0211 67.5312 52.7199C69.8719 51.8014 71.8244 50.3574 73.4792 48.528C74.5635 46.8325 75.244 44.85 75.5738 42.8513C76.2094 43.2368 76.9749 43.4305 77.6942 43.455C78.9125 43.4965 80.1321 42.7894 80.9438 41.7819C81.5149 42.8669 82.362 43.801 83.4504 44.4442C85.8992 45.8956 89.2046 45.7957 91.8519 45.0397C93.0981 44.6855 94.2912 43.6277 95.2579 42.8057C95.6421 42.4781 96.0139 42.1572 96.3661 41.82C97.7305 43.5991 99.7089 44.9534 101.831 45.536C104.775 46.3436 108.057 45.3232 110.614 43.8615C112.88 42.5671 114.616 40.5997 115.32 38.0686C115.877 36.0705 115.488 34.2132 114.561 32.5823C115.458 31.7964 116.226 30.8221 116.838 29.8269C117.642 28.5202 117.85 26.8512 117.836 25.3426C117.833 24.9524 117.768 24.6131 117.661 24.3065C118.744 23.7327 119.529 22.766 120.061 21.6347C120.782 20.101 121.039 18.347 120.727 16.6821ZM120.048 20.8033C119.636 22.0909 118.91 23.2127 117.731 23.9075C117.676 23.9401 117.611 23.9741 117.54 24.0088C117.354 23.6179 117.086 23.2854 116.775 22.9747C117.022 23.4459 117.196 23.9578 117.292 24.484C117.294 24.4819 117.298 24.4812 117.3 24.4799C117.343 24.6186 117.376 24.7627 117.391 24.9136C117.534 26.3569 117.32 28.1347 116.663 29.4319C116.162 30.4197 115.397 31.3742 114.54 32.1506C113.985 32.8059 113.277 33.307 112.584 33.8359C113.165 33.5939 113.714 33.2676 114.221 32.8678C114.365 33.1132 114.5 33.3668 114.616 33.6367C115.264 35.131 115.262 36.9013 114.831 38.4473C114.12 40.9967 112.014 42.7378 109.751 43.9071C107.214 45.2199 104.15 45.7603 101.387 44.8895C99.9359 44.4326 98.5375 43.5189 97.392 42.3727C96.6387 41.7867 96.0187 41.0076 95.3946 40.2665C95.6257 40.7281 95.8929 41.1741 96.1988 41.5963C95.761 42.0035 95.2899 42.3788 94.8439 42.7616C93.6535 43.78 92.3734 44.5992 90.8294 44.9282C88.3467 45.4558 85.5953 45.2321 83.3668 43.9676C82.398 43.4183 81.6475 42.5488 81.1288 41.546C81.5992 40.8832 81.8929 40.1129 81.9085 39.3447C81.899 39.3691 81.8915 39.3943 81.882 39.4181C81.6142 40.2223 81.26 40.9878 80.6794 41.582C79.9037 42.5814 78.6684 43.2102 77.2972 43.0716C76.9967 43.0416 76.705 42.9662 76.4263 42.8567C75.5935 42.6235 74.8538 42.1089 74.3256 41.3998C74.4309 41.6466 74.5547 41.8764 74.7002 42.0722C74.8613 42.2911 75.0557 42.4808 75.2692 42.6453C74.8157 45.0968 73.9687 47.481 72.4234 49.3778C70.1812 51.626 67.2756 52.9898 64.0028 52.6084C61.2345 52.2862 58.8483 51.125 57.2527 48.7952C55.9195 46.8454 55.4008 44.4007 55.3749 42.0695C55.3566 40.4025 55.6843 38.7165 56.4423 37.2263C56.5667 36.9829 56.7142 36.7565 56.8726 36.539C57.2411 36.9176 57.6504 37.2507 58.0998 37.5234C59.0162 38.0781 60.4874 38.4289 61.5282 38.0101C59.3459 38.0686 56.9814 37.0862 56.2921 35.0447C55.9814 34.5334 55.7495 33.9787 55.5891 33.4103C55.1084 32.141 55.2607 30.7732 55.7427 29.4917C55.3178 30.1573 55.0826 30.9024 55.0262 31.6842C54.1771 31.3932 53.3572 30.9636 52.5427 30.2953C50.6888 28.7724 49.3753 26.5786 48.5643 24.3473C46.7933 19.4708 48.1156 14.0076 51.0029 9.84899C53.6957 5.96912 57.8625 3.57948 62.4929 2.88876C65.6304 2.42035 70.1071 2.7086 73.0611 4.64683C73.0855 4.65635 73.1087 4.66791 73.1318 4.68014C73.3636 4.77396 73.5818 4.89497 73.7919 5.03434C74.0808 5.14719 74.3657 5.27228 74.6349 5.42253C74.5071 5.27636 74.3766 5.13427 74.2345 5.0017C73.9897 4.87525 73.779 4.69917 73.5614 4.52717C74.724 2.94042 76.5793 1.67523 78.2673 1.05046C80.6875 0.153745 83.7897 0.358378 86.2561 0.907012C88.5064 1.40806 90.7159 2.50125 92.4135 4.06489C93.9669 5.49528 95.0302 7.94542 94.8419 10.1576C94.6692 10.1318 94.4938 10.1107 94.315 10.1026C94.2314 10.106 94.1491 10.106 94.0669 10.1073C94.8439 10.3453 95.5272 10.6913 96.0642 11.2331C96.1309 11.2882 96.1968 11.3406 96.2627 11.4045C96.6829 11.8124 96.9365 12.3175 97.0684 12.8593C97.2567 13.395 97.2941 13.9743 97.3172 14.5569C97.4198 14.1082 97.4593 13.6513 97.4219 13.204C97.8937 12.6214 98.4212 12.0857 98.9944 11.5948C100.788 10.0563 103.063 9.06785 105.36 8.58788C108.548 7.92028 112.335 8.422 114.457 10.8701C114.456 10.8728 114.456 10.8742 114.455 10.8769C114.514 10.9354 114.569 10.9979 114.625 11.0598C114.625 11.0598 114.624 11.0584 114.624 11.0571C114.627 11.0605 114.629 11.0652 114.633 11.07C114.667 11.1087 114.705 11.1461 114.739 11.1883C114.871 11.3528 114.977 11.5336 115.078 11.7172C115.125 11.7906 115.171 11.8668 115.217 11.9409C115.127 11.5744 115.03 11.2087 114.946 10.8375C114.884 10.7532 114.827 10.6668 114.761 10.5859C115.155 9.8823 116.281 9.12224 116.674 8.94072C117.756 8.44443 118.777 8.72929 119.447 9.68922C120.298 10.9082 119.686 12.7152 118.608 13.8968C118.097 13.7486 117.538 13.7431 116.98 13.7486C116.969 13.7486 116.959 13.7533 116.948 13.7567C117.838 13.9212 118.696 14.0178 119.256 14.8594C119.636 15.2014 119.938 15.6684 120.175 16.2912C120.722 17.7304 120.503 19.3756 120.048 20.8033Z" fill="#C2CB8E"/>
<path opacity="0.5" d="M119.258 14.859C118.697 14.0173 117.839 13.9208 116.949 13.7563C116.96 13.7529 116.971 13.7481 116.981 13.7481C117.54 13.7427 118.099 13.7481 118.609 13.8963C119.687 12.7148 120.299 10.9077 119.448 9.68877C118.778 8.72951 117.757 8.44397 116.675 8.94026C116.283 9.12177 115.155 9.88185 114.762 10.5855C114.828 10.6664 114.885 10.7527 114.947 10.837C115.031 11.2082 115.129 11.574 115.219 11.9404C115.172 11.8663 115.126 11.7902 115.079 11.7167C114.978 11.5325 114.873 11.3523 114.74 11.1878C114.706 11.1463 114.669 11.1083 114.634 11.0695C114.631 11.0648 114.628 11.06 114.625 11.0566C114.625 11.058 114.626 11.0587 114.626 11.0587C114.57 10.9975 114.515 10.9349 114.456 10.8765C114.457 10.8737 114.457 10.8724 114.459 10.8697C112.336 8.42154 108.549 7.91981 105.362 8.58742C103.064 9.06739 100.79 10.0559 98.9955 11.5944C98.4224 12.0852 97.8941 12.6209 97.423 13.2036C97.4604 13.6509 97.421 14.1077 97.3183 14.5564C97.2959 13.9738 97.2585 13.3946 97.0695 12.8589C96.9376 12.317 96.684 11.8119 96.2639 11.404C96.1979 11.3401 96.132 11.2878 96.0654 11.2327C95.5283 10.6909 94.845 10.3441 94.068 10.1069C94.1502 10.1055 94.2325 10.1055 94.3161 10.1021C94.4949 10.1103 94.6703 10.1313 94.843 10.1572C95.0306 7.94497 93.9674 5.49481 92.4146 4.06442C90.7177 2.5001 88.5082 1.4076 86.2573 0.906559C83.7908 0.357926 80.6887 0.153292 78.2684 1.05C76.5804 1.67478 74.7251 2.93997 73.5626 4.52672C73.7801 4.69872 73.9909 4.8748 74.2356 5.00125C74.3777 5.13382 74.5089 5.27591 74.636 5.42208C74.3668 5.27115 74.082 5.14674 73.793 5.03389C73.5823 4.89452 73.3647 4.77282 73.1329 4.67968C73.1105 4.66744 73.0873 4.65589 73.0622 4.64637C70.1076 2.70814 65.6315 2.41989 62.494 2.8883C57.8636 3.5797 53.6962 5.96867 51.004 9.84854C48.1167 14.0071 46.7944 19.4703 48.5654 24.3469C49.3765 26.5781 50.6892 28.772 52.5438 30.2948C53.3583 30.9631 54.1775 31.3928 55.0273 31.6837C55.0837 30.9026 55.3183 30.1568 55.7439 29.4912C55.2625 30.7727 55.1103 32.1399 55.5902 33.4099C55.7507 33.9782 55.9832 34.533 56.2932 35.0442C56.9825 37.0858 59.347 38.0681 61.5293 38.0097C60.4878 38.4285 59.0166 38.0783 58.1009 37.5229C57.6515 37.2503 57.2422 36.9165 56.8738 36.5385C56.7154 36.7554 56.5672 36.9817 56.4434 37.2258C55.6847 38.716 55.357 40.402 55.3761 42.069C55.4019 44.4002 55.9199 46.8449 57.2538 48.7947C58.8487 51.1252 61.2356 52.2864 64.004 52.6079C67.2767 52.9893 70.1824 51.6256 72.4245 49.3773C73.9705 47.4806 74.8169 45.0964 75.2703 42.6448C75.0569 42.481 74.8624 42.2906 74.7013 42.0717C74.5565 41.8759 74.4321 41.6462 74.3267 41.3994C74.8543 42.1091 75.5946 42.6238 76.4274 42.8563C76.7068 42.965 76.9978 43.0405 77.2983 43.0711C78.6695 43.2098 79.9048 42.5809 80.6805 41.5816C81.2611 40.9874 81.6153 40.2219 81.8832 39.4176C81.8927 39.3938 81.9002 39.3687 81.9097 39.3442C81.894 40.1124 81.6003 40.8834 81.1299 41.5455C81.6486 42.5483 82.3992 43.4178 83.3679 43.9671C85.5965 45.2316 88.3478 45.4553 90.8306 44.9278C92.3745 44.5994 93.6553 43.7795 94.845 42.7611C95.291 42.3783 95.7621 42.0031 96.2 41.5958C95.894 41.1737 95.6269 40.7277 95.3957 40.2661C96.0205 41.0071 96.6398 41.7855 97.3931 42.3722C98.5386 43.5191 99.9371 44.4322 101.388 44.889C104.151 45.7592 107.215 45.2187 109.752 43.9066C112.015 42.7366 114.12 40.9962 114.832 38.4468C115.263 36.9009 115.265 35.1305 114.618 33.6362C114.501 33.367 114.366 33.1128 114.222 32.8673C113.715 33.2671 113.166 33.5927 112.585 33.8354C113.278 33.3072 113.986 32.8055 114.541 32.1501C115.398 31.3737 116.163 30.4192 116.664 29.4314C117.322 28.1343 117.535 26.3565 117.392 24.9132C117.377 24.7623 117.344 24.6181 117.302 24.4794C117.299 24.4808 117.296 24.4815 117.293 24.4835C117.197 23.958 117.024 23.4461 116.776 22.9743C117.087 23.2843 117.355 23.6167 117.542 24.0083C117.612 23.9729 117.676 23.939 117.732 23.907C118.911 23.2122 119.638 22.0898 120.049 20.8028C120.504 19.3752 120.723 17.7299 120.177 16.29C119.939 15.668 119.637 15.2009 119.258 14.859Z" fill="#ADB256"/>
<path opacity="0.5" d="M120.176 16.2907C119.939 15.668 119.637 15.2003 119.258 14.859C118.697 14.0173 117.839 13.9208 116.949 13.7563C116.96 13.7529 116.971 13.7481 116.981 13.7481C117.54 13.7427 118.099 13.7481 118.609 13.8963C119.687 12.7148 120.299 10.9077 119.448 9.68877C118.778 8.72951 117.757 8.44397 116.675 8.94026C116.283 9.12177 115.155 9.88185 114.762 10.5855C114.828 10.6664 114.885 10.7527 114.947 10.837C115.031 11.2082 115.129 11.574 115.219 11.9404C115.172 11.8663 115.126 11.7902 115.079 11.7167C114.978 11.5325 114.873 11.3523 114.74 11.1878C114.706 11.1463 114.669 11.1083 114.634 11.0695C114.631 11.0648 114.628 11.06 114.625 11.0566C114.625 11.058 114.626 11.0587 114.626 11.0587C114.57 10.9975 114.515 10.9349 114.456 10.8765C114.457 10.8737 114.457 10.8724 114.459 10.8697C112.336 8.42154 108.549 7.91981 105.362 8.58742C103.064 9.06739 100.79 10.0559 98.9955 11.5944C98.4224 12.0852 97.8941 12.6209 97.423 13.2036C97.4604 13.6509 97.421 14.1077 97.3183 14.5564C97.2959 13.9738 97.2585 13.3946 97.0695 12.8589C96.9376 12.317 96.684 11.8119 96.2639 11.404C96.1979 11.3401 96.132 11.2878 96.0654 11.2327C95.5283 10.6909 94.845 10.3441 94.068 10.1069C94.1502 10.1055 94.2325 10.1055 94.3161 10.1021C94.4949 10.1103 94.6703 10.1313 94.843 10.1572C95.0306 7.94497 93.9674 5.49481 92.4146 4.06442C90.7177 2.5001 88.5082 1.4076 86.2573 0.906559C83.7908 0.357926 80.6887 0.153292 78.2684 1.05C76.5804 1.67478 74.7251 2.93997 73.5626 4.52672C73.7801 4.69872 73.9909 4.8748 74.2356 5.00125C74.3777 5.13382 74.5089 5.27591 74.636 5.42208C74.3668 5.27115 74.082 5.14674 73.793 5.03389C73.5823 4.89452 73.3647 4.77282 73.1329 4.67968C73.1105 4.66744 73.0873 4.65589 73.0622 4.64637C70.1076 2.70814 65.6315 2.41989 62.494 2.8883C57.8636 3.5797 53.6962 5.96867 51.004 9.84854C48.1167 14.0071 46.7944 19.4703 48.5654 24.3469C49.3765 26.5781 50.6892 28.772 52.5438 30.2948C53.3583 30.9631 54.1775 31.3928 55.0273 31.6837C55.0837 30.9026 55.3183 30.1568 55.7439 29.4912C55.2625 30.7727 55.1103 32.1399 55.5902 33.4099C55.7507 33.9782 55.9832 34.533 56.2932 35.0442C56.9825 37.0858 59.347 38.0681 61.5293 38.0097C60.4878 38.4285 59.0166 38.0783 58.1009 37.5229C57.6515 37.2503 57.2422 36.9165 56.8738 36.5385C56.7154 36.7554 56.5672 36.9817 56.4434 37.2258C55.6847 38.716 55.357 40.402 55.3761 42.069C55.4019 44.4002 55.9199 46.8449 57.2538 48.7947C58.8487 51.1252 61.2356 52.2864 64.004 52.6079C67.2767 52.9893 70.1824 51.6256 72.4245 49.3773C73.9705 47.4806 74.8169 45.0964 75.2703 42.6448C75.0569 42.481 74.8624 42.2906 74.7013 42.0717C74.5565 41.8759 74.4321 41.6462 74.3267 41.3994C74.8543 42.1091 75.5946 42.6238 76.4274 42.8563C76.7068 42.965 76.9978 43.0405 77.2983 43.0711C78.6695 43.2098 79.9048 42.5809 80.6805 41.5816C81.2611 40.9874 81.6153 40.2219 81.8832 39.4176C81.8927 39.3938 81.9002 39.3687 81.9097 39.3442C81.894 40.1124 81.6003 40.8834 81.1299 41.5455C81.6486 42.5483 82.3992 43.4178 83.3679 43.9671C85.5965 45.2316 88.3478 45.4553 90.8306 44.9278C92.3745 44.5994 93.6553 43.7795 94.845 42.7611C95.291 42.3783 95.7621 42.0031 96.2 41.5958C95.894 41.1737 95.6269 40.7277 95.3957 40.2661C96.0205 41.0071 96.6398 41.7855 97.3931 42.3722C98.5386 43.5191 99.9371 44.4322 101.388 44.889C104.151 45.7592 107.215 45.2187 109.752 43.9066C112.015 42.7366 114.12 40.9962 114.832 38.4468C115.263 36.9009 115.265 35.1305 114.618 33.6362C114.501 33.367 114.366 33.1128 114.222 32.8673C113.715 33.2671 113.166 33.5927 112.585 33.8354C113.278 33.3072 113.986 32.8055 114.541 32.1501C115.398 31.3737 116.163 30.4192 116.664 29.4314C117.322 28.1343 117.535 26.3565 117.392 24.9132C117.377 24.7623 117.344 24.6181 117.302 24.4794C117.299 24.4808 117.296 24.4815 117.293 24.4835C117.197 23.958 117.024 23.4461 116.776 22.9743C117.087 23.2843 117.355 23.6167 117.542 24.0083C117.612 23.9729 117.676 23.939 117.732 23.907C118.911 23.2122 119.638 22.0898 120.049 20.8028C120.504 19.3759 120.723 17.7306 120.176 16.2907ZM115.408 20.8103C115.357 20.9905 115.121 21.0122 115.023 20.8593C113.899 19.1114 112.311 16.9978 110.271 16.1507C113.359 18.8503 114.711 23.1238 113.66 27.1573C113.037 29.5524 111.712 31.6599 109.859 33.3038C107.977 34.9742 105.782 35.6656 103.504 36.5079C105.866 36.7166 108.462 36.047 110.286 34.5649C110.432 34.4453 110.715 34.5506 110.637 34.7702C109.328 38.4475 106.421 41.8705 102.134 41.2736C98.1226 40.7161 94.3896 37.9111 93.465 33.8987C92.794 35.8954 92.3405 38.4387 93.7478 40.1063C93.83 40.2035 93.8334 40.3708 93.7043 40.4367C91.8809 41.3783 89.9889 42.2063 87.8964 42.1628C86.7488 42.1377 85.1709 42.0677 84.2728 41.2416C83.0933 40.1573 84.2381 39.4258 84.7881 38.3945C85.6984 36.6881 86.4388 34.9069 86.7046 33.0223C86.207 34.4956 85.3136 36.032 83.8207 35.9994C82.3794 35.9681 81.8702 35.2128 81.7078 34.2291C81.4549 35.1462 81.0694 36.0205 80.4915 36.7724C79.5377 38.0172 78.1189 39.232 76.4444 39.0254C75.3057 38.8853 74.4613 38.1178 73.8651 37.1034C73.4803 39.4448 72.5326 41.6475 70.6698 43.1547C66.79 46.2983 61.0487 44.0174 58.9024 39.9391C58.8392 39.8194 58.8929 39.6671 59.0282 39.6297C60.7101 39.1708 62.5743 39.3204 64.1291 38.4414C65.1359 37.8723 66.0245 37.1286 66.9898 36.4997C65.93 36.6575 64.8578 36.9131 63.8 36.8199C62.6919 36.722 61.6401 36.3454 60.6863 35.7723C58.9738 34.7444 57.1437 33.1257 56.7772 31.0501C56.096 27.1893 59.0336 24.0708 62.1704 22.1904C58.7168 23.0538 55.166 25.608 54.3087 29.0881C54.2666 29.2553 54.0735 29.2723 53.9559 29.1805C47.8631 24.3543 50.4547 14.6353 54.7221 9.54872C57.0791 6.73825 60.2941 4.45873 63.9863 3.93865C65.7518 3.68983 67.3141 3.8931 68.7391 4.46893C70.5243 4.68648 72.2348 5.46967 73.5075 6.80828C75.6388 9.0538 75.9828 12.0546 76.6524 14.9358C77.594 11.7956 77.5145 7.85795 75.9495 5.00533C75.8842 4.88703 75.9413 4.73407 76.0753 4.69668C79.5125 3.75646 83.0219 1.98342 86.623 3.32476C89.3954 4.35744 91.8945 6.64987 92.1257 9.73976C92.1345 9.85737 92.023 9.94643 91.9149 9.95051C89.6306 10.0307 87.6795 11.8595 86.8528 13.9847C88.7734 11.6114 91.5893 10.1218 94.4079 12.2946C96.3931 13.8243 96.7846 16.1242 96.5684 18.4989C98.7514 15.1262 102.308 12.4673 106.062 11.7018C108.602 11.1831 111.837 11.4197 113.793 13.3382C115.78 15.2873 116.145 18.216 115.408 20.8103Z" fill="#738E51"/>
</svg>
