<svg width="751" height="413" viewBox="0 0 751 413" fill="none" xmlns="http://www.w3.org/2000/svg">
<rect x="677" y="51" width="58" height="345" fill="#D3D3D3"/>
<rect x="681" y="61" width="50" height="330" fill="#F1E4D0"/>
<rect x="681" y="362" width="50" height="29" fill="#F7EFE2"/>
<rect x="681" y="61" width="50" height="13" fill="#F7EFE2"/>
<rect x="681" y="55" width="42" height="3" fill="#ACACAC"/>
<rect x="685" y="80" width="42" height="3" fill="#C9C9C8"/>
<rect x="685" y="124" width="42" height="3" fill="#C9C9C8"/>
<rect x="685" y="129" width="42" height="3" fill="#C9C9C8"/>
<rect x="685" y="159" width="42" height="3" fill="#C9C9C8"/>
<rect x="685" y="154" width="42" height="3" fill="#C9C9C8"/>
<rect x="685" y="283" width="42" height="3" fill="#C9C9C8"/>
<rect x="685" y="278" width="42" height="3" fill="#C9C9C8"/>
<rect x="685" y="347" width="42" height="3" fill="#C9C9C8"/>
<rect x="685" y="367" width="42" height="3" fill="#C9C9C8"/>
<rect x="685" y="342" width="42" height="3" fill="#C9C9C8"/>
<rect x="685" y="189" width="42" height="3" fill="#C9C9C8"/>
<rect x="685" y="184" width="42" height="3" fill="#C9C9C8"/>
<rect x="685" y="313" width="42" height="3" fill="#C9C9C8"/>
<rect x="685" y="308" width="42" height="3" fill="#C9C9C8"/>
<rect x="685" y="377" width="11" height="3" fill="#C9C9C8"/>
<rect x="716" y="377" width="11" height="3" fill="#C9C9C8"/>
<rect x="700" y="377" width="12" height="3" fill="#C9C9C8"/>
<rect x="694" y="383" width="24" height="3" fill="#EA6F32"/>
<rect x="685" y="372" width="11" height="3" fill="#C9C9C8"/>
<rect x="716" y="372" width="11" height="3" fill="#C9C9C8"/>
<rect x="700" y="372" width="12" height="3" fill="#C9C9C8"/>
<rect x="728" y="55" width="3" height="3" fill="#ACACAC"/>
<rect x="724" y="55" width="3" height="3" fill="#ACACAC"/>
<path d="M723.316 90.1317H691.077V114.611H723.316V90.1317Z" fill="#FFF3E0"/>
<path d="M695.443 96.882H694.017V116.452H695.443V96.882Z" fill="#1D1D26"/>
<path d="M696.87 100.563H695.443V116.452H696.87V100.563Z" fill="#EA6F32"/>
<path d="M694.017 107.596H692.591V116.452H694.017V107.596Z" fill="#C9C9C8"/>
<path d="M702.076 97.5051H700.65V116.452H702.076V97.5051Z" fill="#1D1D26"/>
<path d="M703.503 100.563H702.076V116.452H703.503V100.563Z" fill="#EA6F32"/>
<path d="M700.65 103.442H699.224V116.452H700.65V103.442Z" fill="#C9C9C8"/>
<path d="M708.709 101.036H707.283V116.452H708.709V101.036Z" fill="#1D1D26"/>
<path d="M710.135 104.717H708.709V116.452H710.135V104.717Z" fill="#EA6F32"/>
<path d="M707.283 99.2876H705.856V116.452H707.283V99.2876Z" fill="#C9C9C8"/>
<path d="M715.342 92.7277H713.916V116.452H715.342V92.7277Z" fill="#1D1D26"/>
<path d="M716.768 96.4087H715.342V116.452H716.768V96.4087Z" fill="#EA6F32"/>
<path d="M713.916 97.2104H712.489V116.452H713.916V97.2104Z" fill="#C9C9C8"/>
<path d="M689 90V116.48" stroke="#1D1D26" stroke-miterlimit="10"/>
<path d="M689 116.48H722.382" stroke="#1D1D26" stroke-miterlimit="10"/>
<path d="M722.067 250.334H688" stroke="white" stroke-width="0.5" stroke-miterlimit="10"/>
<path d="M722.067 245.467H688" stroke="white" stroke-width="0.5" stroke-miterlimit="10"/>
<path d="M722.067 240.601H688" stroke="#F9F5EF" stroke-width="0.5" stroke-miterlimit="10"/>
<path d="M722.067 235.734H688" stroke="#F9F5EF" stroke-width="0.5" stroke-miterlimit="10"/>
<path d="M722.067 230.867H688" stroke="#F9F5EF" stroke-width="0.5" stroke-miterlimit="10"/>
<path d="M722.067 226H688" stroke="#F9F5EF" stroke-width="0.5" stroke-miterlimit="10"/>
<path d="M692.867 252.228V226" stroke="#F9F5EF" stroke-width="0.5" stroke-miterlimit="10"/>
<path d="M697.734 252.228V226" stroke="#F9F5EF" stroke-width="0.5" stroke-miterlimit="10"/>
<path d="M702.6 252.228V226" stroke="#F9F5EF" stroke-width="0.5" stroke-miterlimit="10"/>
<path d="M707.467 252.228V226" stroke="#F9F5EF" stroke-width="0.5" stroke-miterlimit="10"/>
<path d="M712.334 252.228V226" stroke="#F9F5EF" stroke-width="0.5" stroke-miterlimit="10"/>
<path d="M717.201 252.228V226" stroke="#F9F5EF" stroke-width="0.5" stroke-miterlimit="10"/>
<path d="M695.213 230.418C699.665 230.353 698.885 240.345 702.283 241.323C706.428 242.515 706.153 239.114 710.026 239.114C714.048 239.114 714.448 251.382 722.068 241.732V252.228H688C688 252.228 690.761 230.483 695.213 230.418Z" fill="#C9C9C8"/>
<path d="M715.587 243.23C711.135 243.164 709.04 247.943 705.504 248.009C701.969 248.074 698.171 235.242 691.951 235.242C690.454 235.242 689.136 236.093 688 237.861V252.228H722.067C722.067 252.228 720.038 243.295 715.587 243.23Z" fill="#1D1D26"/>
<path d="M688 252.228H722.067" stroke="#1D1D26" stroke-width="0.5" stroke-miterlimit="10"/>
<path d="M688 252.228V226" stroke="#1D1D26" stroke-width="0.5" stroke-miterlimit="10"/>
<path d="M714.189 243.376C710.654 244.168 708.647 247.951 705.504 248.009C701.969 248.074 698.171 235.242 691.951 235.242C691.851 235.242 691.754 235.256 691.654 235.264C689.339 241.689 688 252.228 688 252.228H722.067C722.067 252.228 721.003 247.547 718.726 244.937C716.628 246.141 715.321 244.973 714.189 243.376Z" fill="#EA6F32"/>
<path d="M209.916 151.004C209.56 150.123 208.558 149.697 207.677 150.053C206.796 150.409 206.37 151.411 206.726 152.292C207.082 153.173 208.084 153.599 208.965 153.243C209.846 152.887 210.271 151.884 209.916 151.004Z" fill="#EE986D"/>
<path d="M205.378 145.339C205.378 145.339 207.798 144.1 208.837 146.178C209.876 148.256 207.446 150.262 207.446 150.262L205.378 145.339Z" fill="#EE986D"/>
<path d="M208.308 152.082C208.316 152.445 208.308 172.655 208.308 172.655L192.111 170.547L195.852 152.083L208.308 152.082Z" fill="#1D1D26"/>
<path d="M186.887 162.369L184.039 171.254C184.039 171.254 195.202 173.304 195.202 172.963C195.202 172.621 195.202 161.23 195.202 161.23L186.887 162.369Z" fill="#EE986D"/>
<path d="M195.2 165.925L187.827 165.803L195.2 170.116V165.925Z" fill="#1D1D26"/>
<path d="M195.85 165.795C195.63 165.845 195.42 165.885 195.2 165.925C192.14 166.505 189.15 166.295 186.54 165.445C186.34 165.385 186.15 165.325 185.96 165.255C182.02 163.805 179.05 160.865 178.18 157.025C177.84 155.535 177.85 154.025 178.16 152.565C178.17 152.525 178.18 152.505 178.18 152.495C178.18 152.475 178.19 152.455 178.2 152.415C178.217 152.354 178.245 152.256 178.277 152.144C178.353 151.845 178.43 151.546 178.53 151.255C180.08 146.725 184.54 142.845 190.4 141.525C192.03 141.155 193.64 141.015 195.2 141.075C201.52 141.325 206.86 144.915 208.07 150.305C209.58 157.005 204.11 163.935 195.85 165.795Z" fill="#EE986D"/>
<path d="M195.2 141.075V141.085C195.2 141.085 194.04 147.915 186.54 153.665V169.825L184.58 169.575L171.78 167.905C171.78 167.905 177.75 153.745 178.16 152.565C178.17 152.525 178.18 152.505 178.18 152.495C178.18 152.475 178.19 152.455 178.2 152.415C178.25 152.235 178.37 151.825 178.53 151.255C180.08 146.725 184.54 142.845 190.4 141.525C192.03 141.155 193.64 141.015 195.2 141.075Z" fill="#1D1D26"/>
<path d="M194.772 141.571C195.863 140.808 197.019 139.982 198.363 139.762C199.475 139.58 200.725 139.873 201.439 140.789C201.624 141.026 202.024 140.716 201.856 140.467C201.125 139.38 199.79 138.952 198.525 139.103C196.996 139.286 195.701 140.206 194.488 141.086C194.199 141.295 194.473 141.78 194.772 141.571Z" fill="#1D1D26"/>
<path d="M194.682 141.716C197.693 141.421 199.56 144.241 200.651 146.637C200.808 146.982 201.363 146.737 201.258 146.381C200.814 144.884 200.099 143.444 198.899 142.409C197.749 141.418 196.213 140.803 194.682 141.005C194.239 141.063 194.22 141.761 194.682 141.716Z" fill="#1D1D26"/>
<path d="M181.214 154.943C181.214 154.943 177.767 155.677 178.329 157.932C178.891 160.187 182.844 160.027 182.844 160.027L181.214 154.943Z" fill="#EE986D"/>
<path d="M183.269 162.077C182.913 161.196 181.911 160.77 181.03 161.126C180.149 161.482 179.723 162.484 180.079 163.365C180.435 164.246 181.437 164.672 182.318 164.316C183.199 163.96 183.625 162.957 183.269 162.077Z" fill="#EA6F32"/>
<path d="M157.84 404.862H174.793L176.793 385.028H159.84L157.84 404.862Z" fill="#EE986D"/>
<path d="M158.84 394.945C158.84 394.945 142.426 401.184 135.329 412.899H181.401C181.401 412.899 180.323 403.012 175.793 394.945L173.476 400.416L169.864 394.945H158.84Z" fill="white"/>
<path d="M143.197 402.004C144.309 401.736 145.31 401.206 146.457 401.016C147.593 400.828 148.78 400.898 149.903 401.133C152.21 401.615 154.322 402.748 156.475 403.666C156.984 403.883 157.418 403.212 156.921 402.904C154.706 401.532 152.287 400.386 149.682 400.025C148.456 399.855 147.21 399.884 146.005 400.186C144.948 400.451 143.733 400.938 143.057 401.821C142.985 401.913 143.102 402.027 143.197 402.004Z" fill="#1D1D26"/>
<path d="M149.472 397.766C153.493 396.988 157.733 398.534 160.597 401.4C161.011 401.814 161.604 401.199 161.232 400.765C158.309 397.351 153.585 396.002 149.233 396.899C148.666 397.016 148.908 397.875 149.472 397.766Z" fill="#1D1D26"/>
<path d="M213.173 404.862H230.126L226.126 385.028H209.173L213.173 404.862Z" fill="#EE986D"/>
<path d="M228.06 394.945C228.06 394.945 244.474 401.184 251.571 412.899H209.173C209.173 402.466 211.107 394.945 211.107 394.945L214.138 400.416L217.54 394.945H228.06Z" fill="white"/>
<path d="M227.76 400.126C229.417 398.619 231.688 397.853 233.921 398.119C236.007 398.368 237.954 399.533 239.291 401.129C239.559 401.449 240.116 401.025 239.874 400.679C236.916 396.466 230.865 396.064 227.141 399.507C226.726 399.891 227.344 400.504 227.76 400.126Z" fill="#1D1D26"/>
<path d="M232.781 403.653C236.479 401.769 240.748 401.921 244.505 403.558C244.936 403.746 245.314 403.157 244.884 402.91C241.089 400.735 236.186 400.941 232.355 402.924C231.872 403.175 232.298 403.899 232.781 403.653Z" fill="#1D1D26"/>
<path d="M236.829 391.745H199.029L184.109 271.685L182.839 391.745H143.399C143.399 391.745 154.109 253.815 155.379 239.145C155.969 232.225 157.679 226.875 159.329 223.175C161.169 219.035 162.919 216.925 162.919 216.925H197.929C212.079 228.155 214.829 237.775 217.119 251.065C219.419 264.355 236.829 391.745 236.829 391.745Z" fill="#EA6F32"/>
<path d="M197.93 216.925L159.33 223.175C161.17 219.035 162.92 216.925 162.92 216.925H197.93Z" fill="#1D1D26"/>
<path d="M178.403 246.428L178.903 246.435L178.904 246.324L178.858 246.222L176.87 241.831L179.727 246.335L183.609 271.72L182.345 391.245H182.344H182.334H182.324H182.315H182.304H182.294H182.284H182.274H182.264H182.253H182.243H182.232H182.222H182.211H182.2H182.189H182.178H182.167H182.156H182.145H182.134H182.122H182.111H182.1H182.088H182.076H182.065H182.053H182.041H182.029H182.018H182.006H181.993H181.981H181.969H181.957H181.945H181.932H181.92H181.907H181.895H181.882H181.869H181.857H181.844H181.831H181.818H181.805H181.792H181.779H181.766H181.752H181.739H181.726H181.712H181.699H181.685H181.672H181.658H181.644H181.631H181.617H181.603H181.589H181.575H181.561H181.547H181.533H181.519H181.505H181.49H181.476H181.462H181.447H181.433H181.418H181.404H181.389H181.375H181.36H181.345H181.331H181.316H181.301H181.286H181.271H181.256H181.241H181.226H181.211H181.196H181.181H181.165H181.15H181.135H181.119H181.104H181.089H181.073H181.058H181.042H181.027H181.011H180.996H180.98H180.964H180.948H180.933H180.917H180.901H180.885H180.869H180.854H180.838H180.822H180.806H180.79H180.774H180.757H180.741H180.725H180.709H180.693H180.677H180.66H180.644H180.628H180.612H180.595H180.579H180.563H180.546H180.53H180.513H180.497H180.481H180.464H180.448H180.431H180.414H180.398H180.381H180.365H180.348H180.332H180.315H180.298H180.282H180.265H180.248H180.232H180.215H180.198H180.181H180.165H180.148H180.131H180.114H180.097H180.081H180.064H180.047H180.03H180.013H179.997H179.98H179.963H179.946H179.929H179.912H179.896H179.879H179.862H179.845H179.828H179.811H179.794H179.777H179.761H179.744H179.727H179.71H179.693H179.676H179.659H179.643H179.626H179.609H179.592H179.575H179.558H179.542H179.525H179.508H179.491H179.474H179.458H179.441H179.424H179.407H179.391H179.374H179.357H179.34H179.324H179.307H179.29H179.274H179.257H179.24H179.224H179.207H179.191H179.174H179.157H179.141H179.124H179.108H179.091H179.075H179.058H179.042H179.026H179.009H178.993H178.977H178.96H178.944H178.928H178.911H178.895H178.879H178.863H178.847H178.831H178.815H178.798H178.782H178.766H178.75H178.734H178.719H178.703H178.687H178.671H178.655H178.639H178.624H178.608H178.592H178.577H178.561H178.545H178.53H178.514H178.499H178.483H178.468H178.453H178.437H178.422H178.407H178.392H178.376H178.361H178.346H178.331H178.316H178.301H178.286H178.271H178.257H178.242H178.227H178.212H178.198H178.183H178.168H178.154H178.139H178.125H178.111H178.096H178.082H178.068H178.054H178.039H178.025H178.011H177.997H177.983H177.969H177.956H177.942H177.928H177.914H177.901H177.887H177.874H177.86H177.847H177.834H177.82H177.807H177.794H177.781H177.768H177.755H177.742H177.729H177.716H177.703H177.691H177.678H177.666H177.653H177.641H177.628H177.616H177.604H177.591H177.579H177.567H177.555H177.543H177.532H177.52H177.508H177.496H177.485H177.473H177.462H177.451H177.439H177.428H177.417H177.406H177.395H177.384H177.373H177.362H177.352H177.341H177.33H177.32H177.31H177.299H177.289H177.279H177.269H177.259H177.249H177.248C177.238 390.979 177.23 390.598 177.223 390.107C177.21 389.046 177.206 387.488 177.21 385.502C177.218 381.53 177.258 375.855 177.321 369.044C177.447 355.421 177.665 337.257 177.899 319.093C178.133 300.929 178.384 282.764 178.577 269.141C178.673 262.329 178.754 256.653 178.812 252.679C178.84 250.693 178.863 249.132 178.879 248.067L178.896 246.852L178.901 246.541L178.902 246.462L178.902 246.442L178.903 246.437C178.903 246.436 178.903 246.435 178.403 246.428Z" fill="#1D1D26" stroke="#3D342F"/>
<path d="M189.174 219.501C191.629 225.19 197.579 229.008 203.711 229.329C205.447 229.42 207.19 229.202 208.854 228.7C209.401 228.535 209.171 227.683 208.617 227.841C202.955 229.457 196.593 227.488 192.59 223.232C191.449 222.019 190.53 220.625 189.855 219.103C189.649 218.638 188.975 219.041 189.174 219.501Z" fill="#1D1D26"/>
<path d="M156.867 231.049C161.986 229.713 166.71 225.308 167.513 219.931C167.577 219.5 166.968 219.304 166.843 219.746C166.137 222.239 165 224.556 163.22 226.461C161.454 228.351 159.205 229.777 156.706 230.461C156.327 230.565 156.487 231.149 156.867 231.049Z" fill="#1D1D26"/>
<path d="M165.75 167.115V188.265L165.74 188.285C165.6 188.655 163.57 193.665 159.92 199.465C158.24 202.145 156.2 205.005 153.83 207.655C148.84 213.255 142.39 217.905 134.74 217.935C109.15 218.025 112.21 168.885 112.21 168.885C106.09 168.415 103.58 163.545 101.69 159.465C99.8097 155.385 95.8897 150.985 97.2997 149.265C98.7097 147.535 103.11 152.875 103.11 152.875C103.11 152.875 100.28 143.925 103.11 142.825C105.93 141.725 108.29 156.485 108.29 156.485C108.29 156.485 107.82 142.035 111.11 142.195C112.95 142.285 113.18 146.475 113.02 150.245C113.41 148.175 114.11 146.315 115.35 146.125C118.34 145.655 117.24 157.735 117.24 157.735H120.63C123.09 157.735 125.27 159.345 126.01 161.695L134.98 190.395C134.98 190.395 138.49 185.975 143.4 180.985C150.04 174.225 159.25 166.415 165.75 167.115Z" fill="#EE986D"/>
<path d="M130.116 171.555L130.831 173.746L112.54 189.404L111.826 187.214L130.116 171.555Z" fill="#EA6F32"/>
<path d="M131.247 176.557L131.962 178.748L113.671 192.406L112.956 190.215L131.247 176.557Z" fill="#EA6F32"/>
<path d="M165.75 167.115V188.265L165.74 188.285L159.92 199.465L154.62 209.665L153.83 207.655L143.4 180.985C150.04 174.225 159.25 166.415 165.75 167.115Z" fill="#C9C9C8"/>
<path d="M118.621 116.971H116.335V157.735H118.621V116.971Z" fill="#1D1D26"/>
<path d="M157.098 157.736V155.45H116.334V157.736H157.098Z" fill="#1D1D26"/>
<path d="M208.39 193.455H208.38C206.51 200.375 203.32 208.495 197.93 216.925H162.92C162.92 216.925 161.15 214.745 159.58 210.565C159.39 210.085 159.21 209.575 159.04 209.035C156.41 200.875 155.09 186.585 165.75 167.115L210.96 173.005C210.96 173.005 211.66 181.405 208.39 193.455Z" fill="#C9C9C8"/>
<path d="M208.38 193.455C206.51 200.375 203.32 208.495 197.93 216.925H162.92C162.92 216.925 161.15 214.745 159.58 210.565L208.38 193.455Z" fill="#1D1D26"/>
<path d="M212.35 187.235C209.41 193.675 202.73 200.395 193.46 204.865C189.32 206.865 184.66 208.415 179.59 209.295C163.16 212.145 153.84 198.335 154.17 180.885C154.42 167.725 156.61 145.305 156.61 145.305C156.61 145.305 156.2 146.225 154.52 149.285C152.85 152.355 150.63 151.605 150.63 151.605C150.07 152.535 148.59 152.835 148.59 152.835L146.93 154.597C145.17 156.367 142.46 155.347 143.99 151.657C145.52 147.967 144.897 147.781 145.62 144.355C146.299 141.137 150.72 130.445 160.88 130.505C173.02 130.585 175.42 148.825 175.42 148.825L178.51 181.055C178.51 181.055 180.91 179.965 184.11 178.505L184.67 178.255C190.71 175.525 199.11 171.745 199.79 171.565L199.83 171.555C200.2 171.595 210.96 173.005 210.96 173.005C210.96 173.005 216.62 177.925 212.35 187.235Z" fill="#EE986D"/>
<path d="M212.35 187.235C209.41 193.675 203.039 201.035 193.769 205.505C190.929 197.455 184.16 178.505 184.11 178.505L184.67 178.255L193.012 174.365L199.79 171.565L199.83 171.555C200.2 171.595 210.96 173.005 210.96 173.005C210.96 173.005 216.62 177.925 212.35 187.235Z" fill="#C9C9C8"/>
<path d="M184.11 178.505L191.514 205.753L192.522 205.378L193.531 204.833L184.11 178.505Z" fill="#1D1D26"/>
<path d="M486.914 219.338H484.628V260.102H486.914V219.338Z" fill="#1D1D26"/>
<path d="M525.393 260.103V257.817H484.629V260.103H525.393Z" fill="#1D1D26"/>
<path d="M41.8123 246.112C41.3673 234.842 46.6823 223.665 55.5273 216.727C55.8563 216.469 55.4113 215.883 55.0753 216.142C45.8973 223.229 40.7433 234.555 41.2713 246.113C41.2883 246.459 41.8263 246.461 41.8123 246.112Z" fill="white"/>
<path d="M43.3961 244.722C44.3861 237.146 50.0261 230.645 57.2351 228.265C57.7671 228.089 57.5441 227.251 57.0021 227.42C49.3741 229.797 43.7351 236.846 42.7311 244.722C42.6771 245.146 43.3411 245.141 43.3961 244.722Z" fill="white"/>
<path d="M40.3112 244.369C39.5502 239.227 38.6782 233.992 36.9982 229.06C35.5152 224.706 33.1162 220.013 28.6312 218.185C28.3082 218.053 28.0702 218.609 28.3922 218.753C32.9492 220.786 35.2952 225.941 36.7232 230.439C38.1762 235.016 39.0352 239.782 39.7542 244.522C39.8102 244.889 40.3652 244.733 40.3112 244.369Z" fill="white"/>
<path d="M23.6104 294.379C24.8084 283 34.7294 275.473 35.4134 268.289C36.0974 261.104 35.4134 243.778 35.4134 243.778L47.9014 242.972C47.9014 242.972 45.1644 260.078 47.2174 264.013C49.2704 267.947 58.6614 279.244 59.2683 294.38H23.6104V294.379Z" fill="#1D1D26"/>
<path d="M39.4592 243.517C30.5422 234.408 26.1052 254.005 29.2532 266.401C30.2562 270.352 33.7052 271.086 34.3472 266.029C34.9472 261.307 32.7312 251.061 33.8522 246.645C35.3902 240.578 39.4542 243.559 39.4592 243.517Z" fill="#EA6F32"/>
<path d="M40.9258 243.454C45.9358 235.851 53.5658 233.668 58.6678 239.337C63.7698 245.007 57.4208 249.97 51.8718 241.623C48.4208 236.431 40.9258 243.454 40.9258 243.454Z" fill="#EA6F32"/>
<path d="M41.6631 243.383C47.0861 240.27 51.8241 244.236 51.4001 253.568C51.2141 257.651 50.2281 260.701 48.5211 260.257C47.1411 259.898 46.9061 252.414 47.1351 248.346C47.5411 241.114 41.6631 243.383 41.6631 243.383Z" fill="#EA6F32"/>
<path d="M40.033 243.481C38.55 234.497 31.385 228.231 26.117 233.748C21.998 238.061 22.316 244.268 24.185 244.437C26.553 244.651 26.743 241.111 30.779 237.356C35.143 233.296 40.033 243.481 40.033 243.481Z" fill="#EA6F32"/>
<path d="M54.735 216.554C52.383 213.615 57.456 204.426 58.362 208.053C59.269 211.68 57.119 213.676 57.119 213.676C57.119 213.676 60.539 207.872 62.806 209.414C65.073 210.956 58.559 214.855 58.559 214.855C58.559 214.855 64.529 212.988 63.985 215.599C63.44 218.21 56.095 218.254 54.735 216.554Z" fill="#EE986D"/>
<path d="M57.119 227.843C56.339 223.802 60.448 219.117 62.715 220.658C64.982 222.2 60.541 225.464 60.541 225.464C60.541 225.464 67.227 222.021 67.238 225.058C67.249 228.094 61.717 227.843 61.717 227.843C61.717 227.843 66.977 229.13 65.344 231.288C63.712 233.445 57.507 229.859 57.119 227.843Z" fill="#EE986D"/>
<path d="M29.5321 218.823C27.2391 221.807 20.4171 220.158 20.4121 217.326C20.4081 214.914 26.1691 217.194 26.1691 217.194C26.1691 217.194 20.0971 214.73 21.0541 212.161C22.0111 209.592 26.9711 215.515 26.9711 215.515C26.9711 215.515 23.7351 210.161 26.4011 210.068C29.0651 209.973 30.8581 217.097 29.5321 218.823Z" fill="#EE986D"/>
<path d="M108.976 412.415H8.38623V294.375H84.5962L103.376 385.285L108.976 412.415Z" fill="#EA6F32"/>
<path d="M108.976 412.415H15.5562V297.515C15.5562 297.515 69.9462 320.445 103.376 385.285L108.976 412.415Z" fill="#1D1D26"/>
<path d="M57.488 353.396C57.488 353.396 59.72 412.413 57.488 412.413C55.255 412.413 0 412.413 0 412.413L57.488 353.396Z" fill="#1D1D26"/>
<path d="M411.197 248.779C412.265 243.347 411.124 237.982 408.381 233.635C405.44 228.931 400.617 225.411 394.732 224.252C383.404 222.022 372.42 229.397 370.198 240.721C369.564 243.952 369.714 247.146 370.507 250.125C372.499 257.596 378.581 263.662 386.674 265.251C387.79 265.469 388.89 265.591 389.99 265.627C400.064 265.986 409.193 258.987 411.197 248.779ZM388.745 254.7C384.764 253.921 381.788 250.919 380.862 247.24C380.502 245.826 380.452 244.315 380.749 242.792C381.829 237.296 387.154 233.721 392.657 234.796C395.631 235.382 398.034 237.204 399.456 239.631C400.659 241.683 401.15 244.171 400.652 246.705C399.567 252.204 394.241 255.779 388.745 254.7Z" fill="#1D1D26"/>
<path d="M408.382 233.635L399.456 239.629C398.035 237.207 395.63 235.382 392.658 234.798L394.73 224.251C400.618 225.408 405.436 228.931 408.382 233.635Z" fill="#C9C9C8"/>
<path d="M389.99 265.627C388.89 265.591 387.79 265.469 386.674 265.251C378.581 263.662 372.499 257.596 370.507 250.125L380.862 247.24C381.788 250.919 384.764 253.921 388.745 254.7C394.241 255.779 399.566 252.205 400.653 246.704C401.15 244.171 400.66 241.683 399.457 239.63L408.382 233.635C411.124 237.982 412.265 243.347 411.198 248.779C409.193 258.987 400.064 265.986 389.99 265.627Z" fill="#EA6F32"/>
<path d="M269.885 228.993C265.693 232.629 262.955 237.934 262.721 243.929C262.271 255.462 271.253 265.174 282.777 265.624C294.309 266.074 304.022 257.092 304.473 245.559C304.517 244.425 304.469 243.312 304.336 242.221C303.132 232.211 294.806 224.277 284.408 223.871C278.879 223.657 273.759 225.612 269.885 228.993ZM293.733 245.141C293.514 250.745 288.801 255.104 283.197 254.885C277.602 254.666 273.243 249.953 273.461 244.349C273.579 241.322 275.011 238.664 277.185 236.886C279.031 235.38 281.412 234.512 283.988 234.613C289.592 234.832 293.951 239.546 293.733 245.141Z" fill="#1D1D26"/>
<path d="M269.885 228.993L277.185 236.886C275.011 238.663 273.579 241.322 273.461 244.349L262.721 243.93C262.955 237.934 265.693 232.629 269.885 228.993Z" fill="#C9C9C8"/>
<path d="M284.408 223.873C294.806 224.279 303.132 232.212 304.336 242.223L304.473 245.561L293.733 245.142C293.952 239.547 289.592 234.833 283.989 234.614C281.412 234.513 279.032 235.381 277.186 236.887L269.886 228.994C273.759 225.612 278.879 223.657 284.408 223.873Z" fill="#EA6F32"/>
<path d="M350.656 228.814C346.433 225.234 341.193 223.615 336.06 223.89C330.519 224.165 325.095 226.661 321.214 231.234C313.753 240.038 314.838 253.223 323.634 260.684C332.438 268.145 345.623 267.06 353.084 258.256C353.818 257.388 354.469 256.487 355.037 255.544C360.253 246.923 358.592 235.541 350.656 228.814ZM344.889 251.305C341.259 255.586 334.858 256.112 330.586 252.482C326.313 248.86 325.788 242.468 329.409 238.187C331.37 235.875 334.141 234.665 336.945 234.607C339.323 234.557 341.735 235.341 343.704 237.01C347.977 240.64 348.511 247.032 344.889 251.305Z" fill="#1D1D26"/>
<path d="M350.653 228.811C358.591 235.54 360.256 246.919 355.034 255.544L353.084 258.256L344.885 251.305C348.506 247.034 347.979 240.635 343.701 237.009C341.734 235.341 339.325 234.557 336.943 234.605L336.06 223.89C341.196 223.616 346.433 225.233 350.653 228.811Z" fill="#EA6F32"/>
<path d="M329.409 238.186L329.412 238.187C331.371 235.876 334.137 234.666 336.945 234.606L336.062 223.891C330.52 224.17 325.095 226.659 321.215 231.235C313.754 240.039 314.839 253.224 323.635 260.685L330.586 252.482C326.313 248.859 325.787 242.467 329.409 238.186Z" fill="#C9C9C8"/>
<path d="M421.206 89.634H266V207.48H421.206V89.634Z" fill="#F9F5EF"/>
<path d="M287.02 122.131H280.153V216.345H287.02V122.131Z" fill="#1D1D26"/>
<path d="M293.887 139.852H287.02V216.345H293.887V139.852Z" fill="#EA6F32"/>
<path d="M280.153 173.712H273.286V216.345H280.153V173.712Z" fill="#C9C9C8"/>
<path d="M318.951 125.131H312.084V216.345H318.951V125.131Z" fill="#1D1D26"/>
<path d="M325.818 139.852H318.951V216.345H325.818V139.852Z" fill="#EA6F32"/>
<path d="M312.084 153.712H305.217V216.345H312.084V153.712Z" fill="#C9C9C8"/>
<path d="M350.883 142.131H344.016V216.345H350.883V142.131Z" fill="#1D1D26"/>
<path d="M357.75 159.852H350.883V216.345H357.75V159.852Z" fill="#EA6F32"/>
<path d="M344.016 133.712H337.149V216.345H344.016V133.712Z" fill="#C9C9C8"/>
<path d="M382.815 102.131H375.948V216.345H382.815V102.131Z" fill="#1D1D26"/>
<path d="M389.682 119.852H382.815V216.345H389.682V119.852Z" fill="#EA6F32"/>
<path d="M375.948 123.712H369.081V216.345H375.948V123.712Z" fill="#C9C9C8"/>
<path d="M256 89V216.48" stroke="#1D1D26" stroke-miterlimit="10"/>
<path d="M256 216.48H416.71" stroke="#1D1D26" stroke-miterlimit="10"/>
<path d="M735 412H18" stroke="#1D1D26" stroke-width="2" stroke-miterlimit="10"/>
<path d="M65 61.865L404 61.865" stroke="#3D342F" stroke-width="0.7008" stroke-miterlimit="10"/>
<path d="M65 78.729L404 78.729" stroke="#3D342F" stroke-width="0.7008" stroke-miterlimit="10"/>
<path d="M65 45L404 45" stroke="#3D342F" stroke-width="0.7008" stroke-miterlimit="10"/>
<path d="M65 53.432L404 53.432" stroke="#3D342F" stroke-width="0.7008" stroke-miterlimit="10"/>
<path d="M65 70.297L404 70.297" stroke="#3D342F" stroke-width="0.7008" stroke-miterlimit="10"/>
<path d="M65 52.844C70.8433 52.844 70.8433 71.505 76.6867 71.505C82.5313 71.505 82.5313 52.844 88.376 52.844C94.2193 52.844 94.2193 80.244 100.063 80.244C105.907 80.244 105.907 58.737 111.751 58.737C117.595 58.737 117.595 71.505 123.439 71.505C129.279 71.505 129.279 52.844 135.121 52.844C140.965 52.844 140.965 68.031 146.808 68.031C152.649 68.031 152.649 49.13 158.489 49.13C164.333 49.13 164.333 77.245 170.177 77.245C176.019 77.245 176.019 57.866 181.861 57.866C187.705 57.866 187.705 71.506 193.548 71.506C199.391 71.506 199.391 45.001 205.233 45.001C211.078 45.001 211.078 74.861 216.923 74.861C222.766 74.861 222.766 52.844 228.609 52.844C234.454 52.844 234.454 71.505 240.299 71.505C246.145 71.505 246.145 49.13 251.991 49.13C257.835 49.13 257.835 66.103 263.68 66.103C269.524 66.103 269.524 55.959 275.369 55.959C281.215 55.959 281.215 71.505 287.06 71.505C292.906 71.505 292.906 47.859 298.753 47.859C304.599 47.859 304.599 71.505 310.444 71.505C316.288 71.505 316.288 60.724 322.133 60.724C327.978 60.724 327.978 78.638 333.822 78.638C339.667 78.638 339.667 52.843 345.511 52.843C351.357 52.843 351.357 66.102 357.205 66.102C363.053 66.102 363.053 49.605 368.902 49.605C374.749 49.605 374.749 71.504 380.595 71.504C386.445 71.504 385.913 58.182 391.765 58.182C397.616 58.182 398.148 71.504 403.997 71.504" stroke="#EA6F32" stroke-width="0.7008" stroke-miterlimit="10"/>
<path d="M578.969 9.4569C657.77 16.8885 678.026 46.4066 722 88.8486C669.417 88.8486 691.913 88.8486 691.913 88.8486C565.991 -52.9578 469.914 59.1665 404 118C428.44 87.2562 500.168 2.02529 578.969 9.4569Z" fill="#B9B9B9" fill-opacity="0.5"/>
<path d="M608 147C650 150.305 712.5 194.5 721.5 223C676.991 223 687.442 223 687.442 223C611.5 106.5 561 171 515 198.5C533.5 165 585.5 145.229 608 147Z" fill="#B9B9B9" fill-opacity="0.5"/>
<path d="M641.493 170.601L598.043 161.628" stroke="white" stroke-width="0.5" stroke-miterlimit="10"/>
<path d="M642.775 164.393L599.325 155.421" stroke="white" stroke-width="0.5" stroke-miterlimit="10"/>
<path d="M644.056 158.187L600.607 149.214" stroke="#F9F5EF" stroke-width="0.5" stroke-miterlimit="10"/>
<path d="M645.338 151.98L601.889 143.007" stroke="#F9F5EF" stroke-width="0.5" stroke-miterlimit="10"/>
<path d="M646.62 145.772L603.171 136.8" stroke="#F9F5EF" stroke-width="0.5" stroke-miterlimit="10"/>
<path d="M647.902 139.565L604.453 130.593" stroke="#F9F5EF" stroke-width="0.5" stroke-miterlimit="10"/>
<path d="M603.752 165.325L610.66 131.874" stroke="#F9F5EF" stroke-width="0.5" stroke-miterlimit="10"/>
<path d="M609.959 166.607L616.867 133.156" stroke="#F9F5EF" stroke-width="0.5" stroke-miterlimit="10"/>
<path d="M616.166 167.889L623.074 134.438" stroke="#F9F5EF" stroke-width="0.5" stroke-miterlimit="10"/>
<path d="M622.374 169.17L629.282 135.719" stroke="#F9F5EF" stroke-width="0.5" stroke-miterlimit="10"/>
<path d="M628.581 170.452L635.488 137.001" stroke="#F9F5EF" stroke-width="0.5" stroke-miterlimit="10"/>
<path d="M634.788 171.734L641.696 138.283" stroke="#F9F5EF" stroke-width="0.5" stroke-miterlimit="10"/>
<path d="M612.488 138.128C618.184 139.216 614.556 151.756 618.633 153.897C623.606 156.51 624.151 152.099 629.09 153.119C634.22 154.179 631.498 169.931 643.759 159.63L640.994 173.016L597.545 164.044C597.545 164.044 606.793 137.038 612.488 138.128Z" fill="#F1E4D0"/>
<path d="M635.098 159.833C629.438 158.577 625.507 164.121 620.98 163.273C616.454 162.426 614.99 145.059 607.058 143.421C605.148 143.026 603.243 143.765 601.328 145.72L597.544 164.044L640.994 173.016C640.994 173.016 640.759 161.089 635.098 159.833Z" fill="#1D1D26"/>
<path d="M597.545 164.043L640.994 173.016" stroke="#1D1D26" stroke-width="0.5" stroke-miterlimit="10"/>
<path d="M597.544 164.043L604.452 130.593" stroke="#1D1D26" stroke-width="0.5" stroke-miterlimit="10"/>
<path d="M633.278 159.652C628.56 159.731 625.005 164.027 620.98 163.273C616.454 162.426 614.99 145.059 607.058 143.421C606.93 143.394 606.802 143.386 606.673 143.37C602.027 150.955 597.544 164.044 597.544 164.044L640.994 173.016C640.994 173.016 640.869 166.766 638.653 162.838C635.659 163.821 634.3 161.987 633.278 159.652Z" fill="#EA6F32"/>
<path d="M651.469 19.5595L612.631 2.27246L599.505 31.7616L638.343 49.0486L651.469 19.5595Z" fill="#F9F5EF"/>
<path d="M614.27 12.7457L612.552 11.9808L602.058 35.5564L603.776 36.3213L614.27 12.7457Z" fill="#1D1D26"/>
<path d="M614.015 17.9448L612.297 17.1799L603.777 36.3211L605.495 37.086L614.015 17.9448Z" fill="#EA6F32"/>
<path d="M606.807 24.8881L605.089 24.1233L600.34 34.7915L602.059 35.5564L606.807 24.8881Z" fill="#C9C9C8"/>
<path d="M621.926 17.0529L620.208 16.2881L610.048 39.113L611.767 39.8778L621.926 17.0529Z" fill="#1D1D26"/>
<path d="M622.006 21.5014L620.288 20.7366L611.768 39.8778L613.486 40.6426L622.006 21.5014Z" fill="#EA6F32"/>
<path d="M617.026 23.44L615.308 22.6752L608.331 38.3481L610.05 39.113L617.026 23.44Z" fill="#C9C9C8"/>
<path d="M628.024 24.8635L626.306 24.0986L618.04 42.6695L619.758 43.4344L628.024 24.8635Z" fill="#1D1D26"/>
<path d="M627.768 30.0626L626.05 29.2977L619.758 43.4342L621.476 44.1991L627.768 30.0626Z" fill="#EA6F32"/>
<path d="M627.243 21.9919L625.525 21.2271L616.321 41.9047L618.04 42.6695L627.243 21.9919Z" fill="#C9C9C8"/>
<path d="M640.469 18.4107L638.75 17.6459L626.029 46.2262L627.748 46.991L640.469 18.4107Z" fill="#1D1D26"/>
<path d="M640.213 23.6099L638.495 22.8451L627.748 46.991L629.466 47.7558L640.213 23.6099Z" fill="#EA6F32"/>
<path d="M636.347 23.0461L634.629 22.2812L624.311 45.4612L626.03 46.2261L636.347 23.0461Z" fill="#C9C9C8"/>
<path d="M610.199 1L596 32.8999" stroke="#1D1D26" stroke-miterlimit="10"/>
<path d="M596 32.9L636.215 50.8001" stroke="#1D1D26" stroke-miterlimit="10"/>
<path d="M727.817 381.455C726.659 380.923 725.729 380.356 725.029 379.753C724.357 379.139 723.863 378.528 723.546 377.919C723.238 377.29 723.074 376.686 723.054 376.107C723.043 375.507 723.135 374.974 723.33 374.508C723.584 373.9 723.925 373.483 724.353 373.257C724.789 373.011 725.254 372.896 725.747 372.912C726.261 372.936 726.75 373.046 727.217 373.241C726.896 374.178 726.685 375.054 726.582 375.868C726.5 376.69 726.605 377.437 726.896 378.106C727.196 378.755 727.74 379.304 728.529 379.753L731.249 373.248C730.061 371.99 729.178 370.883 728.602 369.927C728.045 368.981 727.739 368.091 727.683 367.258C727.647 366.433 727.806 365.595 728.162 364.744C728.569 363.772 729.168 363.022 729.959 362.496C730.751 361.97 731.665 361.662 732.703 361.572C733.748 361.462 734.84 361.585 735.976 361.941L736.955 359.6L738.688 360.325L737.722 362.635C738.88 363.167 739.785 363.736 740.436 364.341C741.096 364.927 741.515 365.519 741.694 366.117C741.872 366.715 741.851 367.278 741.631 367.805C741.36 368.453 740.892 368.888 740.228 369.111C739.584 369.341 738.694 369.219 737.559 368.745C737.805 368.157 737.959 367.591 738.02 367.045C738.09 366.479 738.045 365.96 737.885 365.489C737.754 365.005 737.471 364.601 737.035 364.276L734.506 370.325C735.406 371.249 736.191 372.16 736.862 373.06C737.562 373.948 738.033 374.871 738.275 375.829C738.518 376.787 738.41 377.814 737.952 378.908C737.308 380.448 736.233 381.51 734.727 382.094C733.25 382.667 731.533 382.675 729.575 382.118L728.025 385.827L726.292 385.102L727.817 381.455ZM730.274 380.447C731.1 380.578 731.817 380.485 732.426 380.168C733.043 379.831 733.496 379.318 733.784 378.629C734.046 378.001 734.093 377.377 733.923 376.759C733.782 376.128 733.375 375.423 732.702 374.641L730.274 380.447ZM735.303 363.552C734.673 363.407 734.062 363.473 733.47 363.75C732.907 364.014 732.482 364.491 732.194 365.18C732.024 365.585 731.943 365.98 731.949 366.363C731.964 366.727 732.068 367.103 732.262 367.494C732.476 367.893 732.761 368.322 733.117 368.78L735.303 363.552Z" fill="black"/>
<path d="M727.045 354.125C726.337 353.8 725.769 353.453 725.34 353.085C724.93 352.71 724.628 352.336 724.434 351.964C724.246 351.58 724.145 351.21 724.133 350.856C724.127 350.49 724.183 350.164 724.302 349.879C724.457 349.507 724.666 349.253 724.927 349.115C725.194 348.964 725.478 348.894 725.779 348.903C726.093 348.918 726.393 348.985 726.678 349.104C726.482 349.677 726.352 350.212 726.29 350.71C726.24 351.213 726.304 351.669 726.482 352.078C726.665 352.475 726.998 352.811 727.48 353.085L729.142 349.109C728.416 348.34 727.877 347.663 727.524 347.079C727.184 346.5 726.997 345.957 726.962 345.447C726.94 344.943 727.038 344.431 727.256 343.911C727.504 343.317 727.87 342.858 728.354 342.537C728.838 342.215 729.397 342.027 730.031 341.972C730.67 341.905 731.337 341.98 732.032 342.198L732.63 340.767L733.689 341.21L733.099 342.622C733.807 342.947 734.36 343.295 734.758 343.665C735.161 344.023 735.417 344.384 735.526 344.75C735.635 345.116 735.623 345.46 735.488 345.782C735.322 346.178 735.036 346.444 734.63 346.58C734.237 346.721 733.693 346.646 732.999 346.356C733.15 345.997 733.244 345.651 733.281 345.317C733.324 344.971 733.296 344.654 733.199 344.366C733.119 344.071 732.945 343.824 732.679 343.625L731.133 347.322C731.683 347.887 732.163 348.444 732.573 348.994C733.001 349.537 733.289 350.101 733.437 350.687C733.585 351.272 733.519 351.9 733.24 352.568C732.846 353.51 732.189 354.159 731.268 354.516C730.365 354.866 729.316 354.871 728.119 354.531L727.171 356.797L726.112 356.355L727.045 354.125ZM728.546 353.509C729.051 353.589 729.49 353.532 729.862 353.339C730.239 353.133 730.516 352.819 730.692 352.398C730.852 352.014 730.881 351.633 730.777 351.255C730.69 350.87 730.442 350.438 730.03 349.96L728.546 353.509ZM731.62 343.182C731.235 343.094 730.862 343.134 730.5 343.303C730.156 343.465 729.896 343.756 729.72 344.177C729.616 344.425 729.566 344.666 729.57 344.901C729.579 345.123 729.643 345.353 729.761 345.592C729.892 345.836 730.066 346.098 730.284 346.378L731.62 343.182Z" fill="black"/>
<path d="M742.644 349.51C742.1 349.26 741.663 348.993 741.334 348.71C741.018 348.421 740.785 348.134 740.636 347.848C740.492 347.552 740.414 347.268 740.405 346.996C740.4 346.714 740.443 346.463 740.535 346.244C740.654 345.958 740.815 345.762 741.016 345.656C741.221 345.541 741.439 345.486 741.671 345.494C741.912 345.505 742.143 345.557 742.362 345.648C742.211 346.089 742.112 346.501 742.064 346.883C742.025 347.27 742.074 347.621 742.211 347.936C742.352 348.241 742.608 348.499 742.979 348.71L744.257 345.652C743.699 345.06 743.284 344.54 743.013 344.091C742.751 343.646 742.607 343.228 742.581 342.836C742.564 342.449 742.639 342.055 742.806 341.655C742.998 341.197 743.279 340.845 743.651 340.598C744.023 340.35 744.453 340.206 744.941 340.163C745.432 340.112 745.945 340.169 746.48 340.337L746.94 339.237L747.754 339.577L747.3 340.663C747.844 340.913 748.27 341.181 748.576 341.465C748.886 341.74 749.083 342.019 749.167 342.3C749.251 342.581 749.241 342.846 749.137 343.093C749.01 343.398 748.79 343.603 748.478 343.707C748.175 343.816 747.757 343.758 747.224 343.535C747.339 343.259 747.411 342.993 747.44 342.736C747.473 342.47 747.452 342.226 747.377 342.005C747.315 341.777 747.182 341.587 746.977 341.435L745.788 344.278C746.211 344.712 746.58 345.141 746.896 345.564C747.225 345.981 747.446 346.415 747.56 346.865C747.674 347.316 747.623 347.798 747.408 348.312C747.106 349.036 746.6 349.536 745.892 349.81C745.198 350.08 744.391 350.083 743.47 349.822L742.742 351.565L741.927 351.224L742.644 349.51ZM743.799 349.036C744.187 349.098 744.525 349.054 744.811 348.905C745.101 348.746 745.313 348.505 745.449 348.181C745.572 347.886 745.594 347.593 745.514 347.302C745.448 347.006 745.257 346.674 744.94 346.307L743.799 349.036ZM746.163 341.094C745.867 341.026 745.58 341.057 745.301 341.187C745.037 341.312 744.837 341.536 744.701 341.859C744.622 342.05 744.583 342.235 744.586 342.416C744.593 342.586 744.642 342.764 744.733 342.947C744.834 343.135 744.968 343.336 745.135 343.552L746.163 341.094Z" fill="black"/>
<path d="M504 196L506.694 204.292H515.413L508.359 209.416L511.053 217.708L504 212.584L496.947 217.708L499.641 209.416L492.587 204.292H501.306L504 196Z" fill="#1D1D26"/>
<path d="M405 103L407.694 111.292H416.413L409.359 116.416L412.053 124.708L405 119.584L397.947 124.708L400.641 116.416L393.587 111.292H402.306L405 103Z" fill="#1D1D26"/>
<path d="M134.5 122L136.633 128.564H143.535L137.951 132.621L140.084 139.186L134.5 135.129L128.916 139.186L131.049 132.621L125.465 128.564H132.367L134.5 122Z" fill="#1D1D26"/>
<path d="M512.41 324.293C460.497 328.889 417.489 364.46 402 412.413H512.41V324.293Z" fill="#EA6F32"/>
<path d="M502.862 399.732L503.244 399.682L503.293 399.3L511.91 332.121V411.914H409.681L502.862 399.732Z" fill="#1D1D26" stroke="#3D342F"/>
<path d="M589.143 294.389H512.41V412.414H616.297L589.143 294.389Z" fill="#1D1D26"/>
<path d="M436.67 328.519L425.012 316.211L442.164 305.475L453.822 317.784L436.67 328.519Z" fill="#EE986D"/>
<path d="M433.633 310.891C433.633 310.891 417.816 303.264 404.43 306.168L433.586 336.95C441.161 329.776 445.291 323.199 445.291 323.199L439.235 324.761L440.868 318.529L433.633 310.891Z" fill="white"/>
<path d="M430.954 314.683C430.933 312.28 429.908 309.898 428.107 308.289C426.25 306.63 423.792 305.893 421.332 306.261C420.92 306.323 421.015 307.016 421.431 306.99C423.594 306.853 425.874 307.536 427.501 308.996C429.11 310.439 430.042 312.527 430.078 314.684C430.088 315.246 430.959 315.248 430.954 314.683Z" fill="#1D1D26"/>
<path d="M424.882 313.244C423.704 309.112 420.448 305.395 416.275 304.153C415.798 304.011 415.646 304.695 416.076 304.876C419.849 306.466 422.907 309.493 424.068 313.468C424.221 313.988 425.032 313.768 424.882 313.244Z" fill="#1D1D26"/>
<path d="M491.709 269.844C478.499 280.213 436.363 307.976 436.363 307.976L455.997 337.572L494.604 304.054L491.709 269.844Z" fill="#C9C9C8"/>
<path d="M491.709 269.844C491.709 269.844 478.748 286.926 480.859 315.987L494.604 304.053L491.709 269.844Z" fill="#1D1D26"/>
<path d="M514.474 367.64L497.521 367.679V347.835L514.474 347.796V367.64Z" fill="#EE986D"/>
<path d="M497.474 357.757C497.474 357.757 481.074 364.034 474.005 375.765L516.403 375.667C516.379 365.234 514.427 357.717 514.427 357.717L511.409 363.195L507.994 357.732L497.474 357.757Z" fill="white"/>
<path d="M498.404 362.318C494.673 358.884 488.623 359.299 485.674 363.518C485.435 363.86 485.986 364.292 486.257 363.968C487.591 362.369 489.534 361.2 491.619 360.945C493.851 360.672 496.126 361.434 497.785 362.937C498.201 363.313 498.82 362.701 498.404 362.318Z" fill="#1D1D26"/>
<path d="M493.198 365.747C489.363 363.773 484.46 363.578 480.669 365.761C480.24 366.008 480.616 366.598 481.048 366.409C484.802 364.764 489.07 364.601 492.772 366.476C493.255 366.72 493.682 365.996 493.198 365.747Z" fill="#1D1D26"/>
<path d="M588.508 265.705L589.135 282.756C589.369 289.105 584.285 294.379 577.932 294.38L512.41 294.388L515.737 355.979H482.272C482.272 355.979 485.467 305.361 486.644 290.898C487.821 276.436 491.521 261.257 506.151 260.102C520.781 258.947 554.763 265.704 554.763 265.704L588.508 265.705Z" fill="#C9C9C8"/>
<path d="M575.553 202.824L577.817 211.875C577.817 211.875 566.544 213.195 566.567 212.854C566.589 212.513 567.33 201.146 567.33 201.146L575.553 202.824Z" fill="#EE986D"/>
<path d="M567.026 205.833L575.505 203.5L566.754 210.015L567.026 205.833Z" fill="#1D1D26"/>
<path d="M576.794 202.745C576.434 202.975 576.074 203.195 575.694 203.395C575.624 203.435 575.554 203.475 575.484 203.515H575.474C574.094 204.235 572.574 204.795 570.944 205.165C570.724 205.215 570.514 205.255 570.294 205.295C569.504 205.445 568.714 205.545 567.944 205.585H567.914C567.624 205.615 567.324 205.625 567.034 205.625C565.134 205.645 563.304 205.355 561.634 204.815C561.434 204.755 561.244 204.695 561.054 204.625C557.114 203.175 554.144 200.235 553.274 196.395C552.934 194.905 552.944 193.395 553.254 191.935C553.264 191.895 553.274 191.875 553.274 191.865C553.274 191.845 553.284 191.825 553.294 191.785C553.314 191.725 553.344 191.625 553.374 191.515C553.454 191.215 553.524 190.915 553.624 190.625C554.584 187.825 556.654 185.275 559.474 183.435C560.594 182.685 561.834 182.065 563.174 181.585L563.184 181.575L563.244 181.555C563.964 181.285 564.714 181.065 565.494 180.895C565.854 180.815 566.204 180.745 566.564 180.685L566.584 180.675C567.844 180.475 569.084 180.395 570.294 180.445C576.614 180.695 581.954 184.285 583.164 189.675C584.274 194.615 581.594 199.685 576.794 202.745Z" fill="#EE986D"/>
<path d="M576.794 202.745L571.134 190.525C571.134 190.525 566.618 190.648 563.1 188.163C559.582 185.678 559.474 183.435 559.474 183.435C560.594 182.685 561.834 182.065 563.174 181.585L563.184 181.575L563.244 181.555C563.964 181.285 564.714 181.065 565.494 180.895C565.854 180.815 566.204 180.745 566.564 180.685L566.584 180.675C567.844 180.475 569.084 180.395 570.294 180.445C576.614 180.695 581.954 184.285 583.164 189.675C584.274 194.615 581.594 199.685 576.794 202.745Z" fill="#1D1D26"/>
<path d="M579.802 184.905C580.111 184.028 580.438 183.137 580.575 182.213C580.705 181.337 580.623 180.462 580.263 179.648C580.127 179.341 579.617 179.559 579.72 179.877C580.25 181.501 579.749 183.193 579.213 184.743C579.086 185.115 579.672 185.273 579.802 184.905Z" fill="#1D1D26"/>
<path d="M580.039 184.618C580.611 184.046 581.185 183.483 581.901 183.092C582.56 182.733 583.377 182.492 584.126 182.657C584.48 182.735 584.619 182.23 584.276 182.115C582.379 181.48 580.839 182.957 579.608 184.187C579.331 184.465 579.761 184.896 580.039 184.618Z" fill="#1D1D26"/>
<path d="M571.129 190.528C571.129 190.528 576.212 188.646 576.4 192.369C576.517 194.69 572.902 195.911 572.902 195.911L571.129 190.528Z" fill="#EE986D"/>
<path d="M564.354 207.955L579.508 205.626L577.817 211.876L566.566 212.855L564.354 207.955Z" fill="#1D1D26"/>
<path d="M566.566 212.855C566.566 212.855 555.771 218.532 554.764 265.706H588.507C588.507 265.706 590.796 222.847 577.816 211.876L566.566 212.855Z" fill="#1D1D26"/>
<path d="M577.721 217.793C584.9 220.862 587.735 229.553 583.731 236.256C575.561 249.933 557.36 274.275 546.847 271.585C539.73 269.759 532.133 262.549 526.726 256.38L526.562 256.193C522.161 251.16 519.235 246.887 519.235 246.887C519.235 246.887 518.755 247.964 516.789 251.546C514.834 255.14 512.236 254.262 512.236 254.262C511.58 255.351 509.848 255.702 509.848 255.702L507.905 257.762C505.845 259.834 502.673 258.64 504.464 254.321C506.255 250.002 505.529 249.779 506.372 245.776C507.168 242.007 512.447 228.043 524.234 229.564C526.423 229.845 529.923 232.209 533.481 235.089C539.685 240.099 546.076 246.689 546.076 246.689L561.531 223.123C564.816 217.524 571.751 215.242 577.721 217.793Z" fill="#EE986D"/>
<path d="M577.721 217.793C584.9 220.862 587.735 229.553 583.731 236.256C575.561 249.933 557.36 274.275 546.847 271.585C539.73 269.759 532.133 262.549 526.726 256.38L526.562 256.193L533.48 235.089C539.684 240.099 546.075 246.689 546.075 246.689L561.53 223.123C564.816 217.524 571.751 215.242 577.721 217.793Z" fill="#1D1D26" stroke="#3D342F" stroke-width="0.25" stroke-miterlimit="10"/>
<path d="M503.958 359L505.866 364.873L512.042 364.873L507.046 368.503L508.954 374.377L503.958 370.747L498.962 374.377L500.87 368.503L495.874 364.873L502.05 364.873L503.958 359Z" fill="#1D1D26"/>
<path d="M706.5 139L707.51 142.109H710.78L708.135 144.031L709.145 147.141L706.5 145.219L703.855 147.141L704.865 144.031L702.22 142.109H705.49L706.5 139Z" fill="#1D1D26"/>
<path d="M706.5 169L707.51 172.109H710.78L708.135 174.031L709.145 177.141L706.5 175.219L703.855 177.141L704.865 174.031L702.22 172.109H705.49L706.5 169Z" fill="#1D1D26"/>
<path d="M706.5 206L707.51 209.109H710.78L708.135 211.031L709.145 214.141L706.5 212.219L703.855 214.141L704.865 211.031L702.22 209.109H705.49L706.5 206Z" fill="#1D1D26"/>
<path d="M706.5 293L707.51 296.109H710.78L708.135 298.031L709.145 301.141L706.5 299.219L703.855 301.141L704.865 298.031L702.22 296.109H705.49L706.5 293Z" fill="#1D1D26"/>
<path d="M706.5 327L707.51 330.109H710.78L708.135 332.031L709.145 335.141L706.5 333.219L703.855 335.141L704.865 332.031L702.22 330.109H705.49L706.5 327Z" fill="#1D1D26"/>
<path d="M706.5 263L707.51 266.109H710.78L708.135 268.031L709.145 271.141L706.5 269.219L703.855 271.141L704.865 268.031L702.22 266.109H705.49L706.5 263Z" fill="#1D1D26"/>
</svg>
