<svg width="304" height="188" viewBox="0 0 304 188" fill="none" xmlns="http://www.w3.org/2000/svg">
<rect width="44" height="7.2" transform="matrix(-1 0 0 1 256.162 172.8)" fill="#666666"/>
<ellipse cx="6.4" cy="7.6" rx="6.4" ry="7.6" transform="matrix(-1 0 0 1 240.163 32.0001)" fill="#666666"/>
<rect width="12.8" height="133.6" transform="matrix(-1 0 0 1 240.163 39.2)" fill="#666666"/>
<path d="M140.341 31.5406L140.341 37.1212L229.196 76.2014L229.202 65.0356L140.341 31.5406Z" fill="#666666"/>
<rect width="3.2" height="10.4" transform="matrix(-1 0 0 1 143.116 31.2971)" fill="#666666"/>
<path d="M143.363 35.2L230.562 39.2" stroke="#666666" stroke-width="2" stroke-linecap="round"/>
<rect width="44" height="7.2" transform="matrix(-1 0 0 1 118.162 172.8)" fill="#666666"/>
<ellipse cx="6.4" cy="7.6" rx="6.4" ry="7.6" transform="matrix(-1 0 0 1 102.163 32.0001)" fill="#666666"/>
<rect width="12.8" height="133.6" transform="matrix(-1 0 0 1 102.163 39.2)" fill="#666666"/>
<path d="M2.34104 31.5406L2.34104 37.1212L91.1965 76.2014L91.2023 65.0356L2.34104 31.5406Z" fill="#666666"/>
<rect width="3.2" height="10.4" transform="matrix(-1 0 0 1 5.11621 31.2971)" fill="#666666"/>
<path d="M5.36251 35.2L92.5625 39.2" stroke="#666666" stroke-width="2" stroke-linecap="round"/>
<path d="M153.5 188H296.5C299.803 184.857 301.805 180.086 303.115 175.914C306.304 165.629 300.609 157.286 290.358 157.286C284.948 157.286 279.367 159.629 274.811 163.343C273.217 162.486 271.281 162.029 269.117 162.029C265.358 162.029 261.543 163.4 258.183 165.686C257.044 159 252.317 154.029 245.256 152.6C247.249 150.486 248.786 147.914 249.641 145.171C252.089 137.343 247.761 131 239.959 131C232.158 131 223.843 137.343 221.394 145.171C220.882 146.829 220.711 148.429 220.768 149.857C219.363 149.59 217.883 149.457 216.326 149.457C207.784 149.457 198.843 153.743 192.294 160.314C191.668 156.314 188.479 153.571 183.809 153.571C177.374 153.571 170.483 158.829 168.49 165.286C167.294 169.114 168.034 172.486 170.198 174.657C163.991 177.057 157.429 182.4 153.5 188Z" fill="#738E51"/>
</svg>
