<svg width="551" height="130" viewBox="0 0 551 130" fill="none" xmlns="http://www.w3.org/2000/svg">
<rect width="91" height="32" transform="matrix(-1 0 0 1 183 0)" fill="#ADB256"/>
<rect x="135.325" y="6.6156" width="4.73906" height="18.644" rx="2" fill="#989E34" fill-opacity="0.5"/>
<rect x="115.184" y="6.6156" width="4.73906" height="18.644" rx="2" fill="#989E34" fill-opacity="0.5"/>
<rect x="105.113" y="6.6156" width="4.73906" height="18.644" rx="2" fill="#989E34" fill-opacity="0.5"/>
<rect x="125.254" y="6.6156" width="4.73906" height="18.644" rx="2" fill="#989E34" fill-opacity="0.5"/>
<rect x="145.396" y="6.6156" width="4.73906" height="18.644" rx="2" fill="#989E34" fill-opacity="0.5"/>
<rect x="165.536" y="6.6156" width="4.73907" height="18.644" rx="2" fill="#989E34" fill-opacity="0.5"/>
<rect x="155.466" y="6.6156" width="4.73906" height="18.644" rx="2" fill="#989E34" fill-opacity="0.5"/>
<rect width="91" height="32" transform="matrix(-1 0 0 1 275 0)" fill="#ADB256"/>
<rect x="227.325" y="6.6156" width="4.73906" height="18.644" rx="2" fill="#989E34" fill-opacity="0.5"/>
<rect x="207.184" y="6.6156" width="4.73906" height="18.644" rx="2" fill="#989E34" fill-opacity="0.5"/>
<rect x="197.113" y="6.6156" width="4.73906" height="18.644" rx="2" fill="#989E34" fill-opacity="0.5"/>
<rect x="217.254" y="6.6156" width="4.73906" height="18.644" rx="2" fill="#989E34" fill-opacity="0.5"/>
<rect x="237.396" y="6.6156" width="4.73906" height="18.644" rx="2" fill="#989E34" fill-opacity="0.5"/>
<rect x="257.536" y="6.6156" width="4.73907" height="18.644" rx="2" fill="#989E34" fill-opacity="0.5"/>
<rect x="247.466" y="6.6156" width="4.73906" height="18.644" rx="2" fill="#989E34" fill-opacity="0.5"/>
<rect width="91" height="32" transform="matrix(-1 0 0 1 367 0)" fill="#ADB256"/>
<rect x="319.325" y="6.6156" width="4.73906" height="18.644" rx="2" fill="#989E34" fill-opacity="0.5"/>
<rect x="299.184" y="6.6156" width="4.73906" height="18.644" rx="2" fill="#989E34" fill-opacity="0.5"/>
<rect x="289.113" y="6.6156" width="4.73906" height="18.644" rx="2" fill="#989E34" fill-opacity="0.5"/>
<rect x="309.254" y="6.6156" width="4.73906" height="18.644" rx="2" fill="#989E34" fill-opacity="0.5"/>
<rect x="329.396" y="6.6156" width="4.73906" height="18.644" rx="2" fill="#989E34" fill-opacity="0.5"/>
<rect x="349.536" y="6.6156" width="4.73907" height="18.644" rx="2" fill="#989E34" fill-opacity="0.5"/>
<rect x="339.466" y="6.6156" width="4.73906" height="18.644" rx="2" fill="#989E34" fill-opacity="0.5"/>
<rect width="91" height="32" transform="matrix(-1 0 0 1 459 0)" fill="#ADB256"/>
<rect x="411.325" y="6.6156" width="4.73906" height="18.644" rx="2" fill="#989E34" fill-opacity="0.5"/>
<rect x="391.184" y="6.6156" width="4.73906" height="18.644" rx="2" fill="#989E34" fill-opacity="0.5"/>
<rect x="381.113" y="6.6156" width="4.73906" height="18.644" rx="2" fill="#989E34" fill-opacity="0.5"/>
<rect x="401.254" y="6.6156" width="4.73906" height="18.644" rx="2" fill="#989E34" fill-opacity="0.5"/>
<rect x="421.396" y="6.6156" width="4.73906" height="18.644" rx="2" fill="#989E34" fill-opacity="0.5"/>
<rect x="441.536" y="6.6156" width="4.73907" height="18.644" rx="2" fill="#989E34" fill-opacity="0.5"/>
<rect x="431.466" y="6.6156" width="4.73906" height="18.644" rx="2" fill="#989E34" fill-opacity="0.5"/>
<rect width="91" height="32" transform="matrix(-1 0 0 1 551 0)" fill="#ADB256"/>
<rect x="503.325" y="6.6156" width="4.73906" height="18.644" rx="2" fill="#989E34" fill-opacity="0.5"/>
<rect x="483.184" y="6.6156" width="4.73906" height="18.644" rx="2" fill="#989E34" fill-opacity="0.5"/>
<rect x="473.113" y="6.6156" width="4.73906" height="18.644" rx="2" fill="#989E34" fill-opacity="0.5"/>
<rect x="493.254" y="6.6156" width="4.73906" height="18.644" rx="2" fill="#989E34" fill-opacity="0.5"/>
<rect x="513.396" y="6.6156" width="4.73906" height="18.644" rx="2" fill="#989E34" fill-opacity="0.5"/>
<rect x="533.536" y="6.6156" width="4.73907" height="18.644" rx="2" fill="#989E34" fill-opacity="0.5"/>
<rect x="523.466" y="6.6156" width="4.73906" height="18.644" rx="2" fill="#989E34" fill-opacity="0.5"/>
<rect width="91" height="32" transform="matrix(-1 0 0 1 91 0)" fill="#ADB256"/>
<rect x="43.3252" y="6.6156" width="4.73906" height="18.644" rx="2" fill="#989E34" fill-opacity="0.5"/>
<rect x="23.1836" y="6.6156" width="4.73906" height="18.644" rx="2" fill="#989E34" fill-opacity="0.5"/>
<rect x="13.1133" y="6.6156" width="4.73906" height="18.644" rx="2" fill="#989E34" fill-opacity="0.5"/>
<rect x="33.2539" y="6.6156" width="4.73906" height="18.644" rx="2" fill="#989E34" fill-opacity="0.5"/>
<rect x="53.3955" y="6.6156" width="4.73906" height="18.644" rx="2" fill="#989E34" fill-opacity="0.5"/>
<rect x="73.5361" y="6.6156" width="4.73907" height="18.644" rx="2" fill="#989E34" fill-opacity="0.5"/>
<rect x="63.4658" y="6.6156" width="4.73906" height="18.644" rx="2" fill="#989E34" fill-opacity="0.5"/>
<rect width="91" height="31" transform="matrix(-1 0 0 1 183 33)" fill="#DE774B"/>
<rect x="135.325" y="39.0276" width="4.73906" height="18.0614" rx="2" fill="#C9673D" fill-opacity="0.5"/>
<rect x="115.184" y="39.0276" width="4.73906" height="18.0614" rx="2" fill="#C9673D" fill-opacity="0.5"/>
<rect x="105.113" y="39.0276" width="4.73906" height="18.0614" rx="2" fill="#C9673D" fill-opacity="0.5"/>
<rect x="125.254" y="39.0276" width="4.73906" height="18.0614" rx="2" fill="#C9673D" fill-opacity="0.5"/>
<rect x="145.396" y="39.0276" width="4.73906" height="18.0614" rx="2" fill="#C9673D" fill-opacity="0.5"/>
<rect x="165.536" y="39.0276" width="4.73907" height="18.0614" rx="2" fill="#C9673D" fill-opacity="0.5"/>
<rect x="155.466" y="39.0276" width="4.73906" height="18.0614" rx="2" fill="#C9673D" fill-opacity="0.5"/>
<rect width="91" height="31" transform="matrix(-1 0 0 1 275 33)" fill="#DE774B"/>
<rect x="227.325" y="39.0276" width="4.73906" height="18.0614" rx="2" fill="#C9673D" fill-opacity="0.5"/>
<rect x="207.184" y="39.0276" width="4.73906" height="18.0614" rx="2" fill="#C9673D" fill-opacity="0.5"/>
<rect x="197.113" y="39.0276" width="4.73906" height="18.0614" rx="2" fill="#C9673D" fill-opacity="0.5"/>
<rect x="217.254" y="39.0276" width="4.73906" height="18.0614" rx="2" fill="#C9673D" fill-opacity="0.5"/>
<rect x="237.396" y="39.0276" width="4.73906" height="18.0614" rx="2" fill="#C9673D" fill-opacity="0.5"/>
<rect x="257.536" y="39.0276" width="4.73907" height="18.0614" rx="2" fill="#C9673D" fill-opacity="0.5"/>
<rect x="247.466" y="39.0276" width="4.73906" height="18.0614" rx="2" fill="#C9673D" fill-opacity="0.5"/>
<rect width="91" height="31" transform="matrix(-1 0 0 1 367 33)" fill="#DE774B"/>
<rect x="319.325" y="39.0276" width="4.73906" height="18.0614" rx="2" fill="#C9673D" fill-opacity="0.5"/>
<rect x="299.184" y="39.0276" width="4.73906" height="18.0614" rx="2" fill="#C9673D" fill-opacity="0.5"/>
<rect x="289.113" y="39.0276" width="4.73906" height="18.0614" rx="2" fill="#C9673D" fill-opacity="0.5"/>
<rect x="309.254" y="39.0276" width="4.73906" height="18.0614" rx="2" fill="#C9673D" fill-opacity="0.5"/>
<rect x="329.396" y="39.0276" width="4.73906" height="18.0614" rx="2" fill="#C9673D" fill-opacity="0.5"/>
<rect x="349.536" y="39.0276" width="4.73907" height="18.0614" rx="2" fill="#C9673D" fill-opacity="0.5"/>
<rect x="339.466" y="39.0276" width="4.73906" height="18.0614" rx="2" fill="#C9673D" fill-opacity="0.5"/>
<rect width="91" height="31" transform="matrix(-1 0 0 1 459 33)" fill="#DE774B"/>
<rect x="411.325" y="39.0276" width="4.73906" height="18.0614" rx="2" fill="#C9673D" fill-opacity="0.5"/>
<rect x="391.184" y="39.0276" width="4.73906" height="18.0614" rx="2" fill="#C9673D" fill-opacity="0.5"/>
<rect x="381.113" y="39.0276" width="4.73906" height="18.0614" rx="2" fill="#C9673D" fill-opacity="0.5"/>
<rect x="401.254" y="39.0276" width="4.73906" height="18.0614" rx="2" fill="#C9673D" fill-opacity="0.5"/>
<rect x="421.396" y="39.0276" width="4.73906" height="18.0614" rx="2" fill="#C9673D" fill-opacity="0.5"/>
<rect x="441.536" y="39.0276" width="4.73907" height="18.0614" rx="2" fill="#C9673D" fill-opacity="0.5"/>
<rect x="431.466" y="39.0276" width="4.73906" height="18.0614" rx="2" fill="#C9673D" fill-opacity="0.5"/>
<rect width="91" height="31" transform="matrix(-1 0 0 1 551 33)" fill="#DE774B"/>
<rect x="503.325" y="39.0276" width="4.73906" height="18.0614" rx="2" fill="#C9673D" fill-opacity="0.5"/>
<rect x="483.184" y="39.0276" width="4.73906" height="18.0614" rx="2" fill="#C9673D" fill-opacity="0.5"/>
<rect x="473.113" y="39.0276" width="4.73906" height="18.0614" rx="2" fill="#C9673D" fill-opacity="0.5"/>
<rect x="493.254" y="39.0276" width="4.73906" height="18.0614" rx="2" fill="#C9673D" fill-opacity="0.5"/>
<rect x="513.396" y="39.0276" width="4.73906" height="18.0614" rx="2" fill="#C9673D" fill-opacity="0.5"/>
<rect x="533.536" y="39.0276" width="4.73907" height="18.0614" rx="2" fill="#C9673D" fill-opacity="0.5"/>
<rect x="523.466" y="39.0276" width="4.73906" height="18.0614" rx="2" fill="#C9673D" fill-opacity="0.5"/>
<rect width="91" height="31" transform="matrix(-1 0 0 1 91 33)" fill="#DE774B"/>
<rect x="43.3252" y="39.0276" width="4.73906" height="18.0614" rx="2" fill="#C9673D" fill-opacity="0.5"/>
<rect x="23.1836" y="39.0276" width="4.73906" height="18.0614" rx="2" fill="#C9673D" fill-opacity="0.5"/>
<rect x="13.1133" y="39.0276" width="4.73906" height="18.0614" rx="2" fill="#C9673D" fill-opacity="0.5"/>
<rect x="33.2539" y="39.0276" width="4.73906" height="18.0614" rx="2" fill="#C9673D" fill-opacity="0.5"/>
<rect x="53.3955" y="39.0276" width="4.73906" height="18.0614" rx="2" fill="#C9673D" fill-opacity="0.5"/>
<rect x="73.5361" y="39.0276" width="4.73907" height="18.0614" rx="2" fill="#C9673D" fill-opacity="0.5"/>
<rect x="63.4658" y="39.0276" width="4.73906" height="18.0614" rx="2" fill="#C9673D" fill-opacity="0.5"/>
<rect width="91" height="31" transform="matrix(-1 0 0 1 183 66)" fill="#E9B556"/>
<rect x="135.325" y="72.2302" width="4.73906" height="18.0614" rx="2" fill="#D8A342" fill-opacity="0.5"/>
<rect x="115.184" y="72.2302" width="4.73906" height="18.0614" rx="2" fill="#D8A342" fill-opacity="0.5"/>
<rect x="105.113" y="72.2302" width="4.73906" height="18.0614" rx="2" fill="#D8A342" fill-opacity="0.5"/>
<rect x="125.254" y="72.2302" width="4.73906" height="18.0614" rx="2" fill="#D8A342" fill-opacity="0.5"/>
<rect x="145.396" y="72.2302" width="4.73906" height="18.0614" rx="2" fill="#D8A342" fill-opacity="0.5"/>
<rect x="165.536" y="72.2302" width="4.73907" height="18.0614" rx="2" fill="#D8A342" fill-opacity="0.5"/>
<rect x="155.466" y="72.2302" width="4.73906" height="18.0614" rx="2" fill="#D8A342" fill-opacity="0.5"/>
<rect width="91" height="31" transform="matrix(-1 0 0 1 275 66)" fill="#E9B556"/>
<rect x="227.325" y="72.2302" width="4.73906" height="18.0614" rx="2" fill="#D8A342" fill-opacity="0.5"/>
<rect x="207.184" y="72.2302" width="4.73906" height="18.0614" rx="2" fill="#D8A342" fill-opacity="0.5"/>
<rect x="197.113" y="72.2302" width="4.73906" height="18.0614" rx="2" fill="#D8A342" fill-opacity="0.5"/>
<rect x="217.254" y="72.2302" width="4.73906" height="18.0614" rx="2" fill="#D8A342" fill-opacity="0.5"/>
<rect x="237.396" y="72.2302" width="4.73906" height="18.0614" rx="2" fill="#D8A342" fill-opacity="0.5"/>
<rect x="257.536" y="72.2302" width="4.73907" height="18.0614" rx="2" fill="#D8A342" fill-opacity="0.5"/>
<rect x="247.466" y="72.2302" width="4.73906" height="18.0614" rx="2" fill="#D8A342" fill-opacity="0.5"/>
<rect width="91" height="31" transform="matrix(-1 0 0 1 367 66)" fill="#E9B556"/>
<rect x="319.325" y="72.2302" width="4.73906" height="18.0614" rx="2" fill="#D8A342" fill-opacity="0.5"/>
<rect x="299.184" y="72.2302" width="4.73906" height="18.0614" rx="2" fill="#D8A342" fill-opacity="0.5"/>
<rect x="289.113" y="72.2302" width="4.73906" height="18.0614" rx="2" fill="#D8A342" fill-opacity="0.5"/>
<rect x="309.254" y="72.2302" width="4.73906" height="18.0614" rx="2" fill="#D8A342" fill-opacity="0.5"/>
<rect x="329.396" y="72.2302" width="4.73906" height="18.0614" rx="2" fill="#D8A342" fill-opacity="0.5"/>
<rect x="349.536" y="72.2302" width="4.73907" height="18.0614" rx="2" fill="#D8A342" fill-opacity="0.5"/>
<rect x="339.466" y="72.2302" width="4.73906" height="18.0614" rx="2" fill="#D8A342" fill-opacity="0.5"/>
<rect width="91" height="31" transform="matrix(-1 0 0 1 459 66)" fill="#E9B556"/>
<rect x="411.325" y="72.2302" width="4.73906" height="18.0614" rx="2" fill="#D8A342" fill-opacity="0.5"/>
<rect x="391.184" y="72.2302" width="4.73906" height="18.0614" rx="2" fill="#D8A342" fill-opacity="0.5"/>
<rect x="381.113" y="72.2302" width="4.73906" height="18.0614" rx="2" fill="#D8A342" fill-opacity="0.5"/>
<rect x="401.254" y="72.2302" width="4.73906" height="18.0614" rx="2" fill="#D8A342" fill-opacity="0.5"/>
<rect x="421.396" y="72.2302" width="4.73906" height="18.0614" rx="2" fill="#D8A342" fill-opacity="0.5"/>
<rect x="441.536" y="72.2302" width="4.73907" height="18.0614" rx="2" fill="#D8A342" fill-opacity="0.5"/>
<rect x="431.466" y="72.2302" width="4.73906" height="18.0614" rx="2" fill="#D8A342" fill-opacity="0.5"/>
<rect width="91" height="31" transform="matrix(-1 0 0 1 551 66)" fill="#E9B556"/>
<rect x="503.325" y="72.2302" width="4.73906" height="18.0614" rx="2" fill="#D8A342" fill-opacity="0.5"/>
<rect x="483.184" y="72.2302" width="4.73906" height="18.0614" rx="2" fill="#D8A342" fill-opacity="0.5"/>
<rect x="473.113" y="72.2302" width="4.73906" height="18.0614" rx="2" fill="#D8A342" fill-opacity="0.5"/>
<rect x="493.254" y="72.2302" width="4.73906" height="18.0614" rx="2" fill="#D8A342" fill-opacity="0.5"/>
<rect x="513.396" y="72.2302" width="4.73906" height="18.0614" rx="2" fill="#D8A342" fill-opacity="0.5"/>
<rect x="533.536" y="72.2302" width="4.73907" height="18.0614" rx="2" fill="#D8A342" fill-opacity="0.5"/>
<rect x="523.466" y="72.2302" width="4.73906" height="18.0614" rx="2" fill="#D8A342" fill-opacity="0.5"/>
<rect width="91" height="31" transform="matrix(-1 0 0 1 91 66)" fill="#E9B556"/>
<rect x="43.3252" y="72.2302" width="4.73906" height="18.0614" rx="2" fill="#D8A342" fill-opacity="0.5"/>
<rect x="23.1836" y="72.2302" width="4.73906" height="18.0614" rx="2" fill="#D8A342" fill-opacity="0.5"/>
<rect x="13.1133" y="72.2302" width="4.73906" height="18.0614" rx="2" fill="#D8A342" fill-opacity="0.5"/>
<rect x="33.2539" y="72.2302" width="4.73906" height="18.0614" rx="2" fill="#D8A342" fill-opacity="0.5"/>
<rect x="53.3955" y="72.2302" width="4.73906" height="18.0614" rx="2" fill="#D8A342" fill-opacity="0.5"/>
<rect x="73.5361" y="72.2302" width="4.73907" height="18.0614" rx="2" fill="#D8A342" fill-opacity="0.5"/>
<rect x="63.4658" y="72.2302" width="4.73906" height="18.0614" rx="2" fill="#D8A342" fill-opacity="0.5"/>
<rect width="91" height="32" transform="matrix(-1 0 0 1 183 98)" fill="#375592"/>
<rect x="135.325" y="104.639" width="4.73906" height="18.644" rx="2" fill="#29457D" fill-opacity="0.5"/>
<rect x="115.184" y="104.639" width="4.73906" height="18.644" rx="2" fill="#29457D" fill-opacity="0.5"/>
<rect x="105.113" y="104.639" width="4.73906" height="18.644" rx="2" fill="#29457D" fill-opacity="0.5"/>
<rect x="125.254" y="104.639" width="4.73906" height="18.644" rx="2" fill="#29457D" fill-opacity="0.5"/>
<rect x="145.396" y="104.639" width="4.73906" height="18.644" rx="2" fill="#29457D" fill-opacity="0.5"/>
<rect x="165.536" y="104.639" width="4.73907" height="18.644" rx="2" fill="#29457D" fill-opacity="0.5"/>
<rect x="155.466" y="104.639" width="4.73906" height="18.644" rx="2" fill="#29457D" fill-opacity="0.5"/>
<rect width="91" height="32" transform="matrix(-1 0 0 1 275 98)" fill="#375592"/>
<rect x="227.325" y="104.639" width="4.73906" height="18.644" rx="2" fill="#29457D" fill-opacity="0.5"/>
<rect x="207.184" y="104.639" width="4.73906" height="18.644" rx="2" fill="#29457D" fill-opacity="0.5"/>
<rect x="197.113" y="104.639" width="4.73906" height="18.644" rx="2" fill="#29457D" fill-opacity="0.5"/>
<rect x="217.254" y="104.639" width="4.73906" height="18.644" rx="2" fill="#29457D" fill-opacity="0.5"/>
<rect x="237.396" y="104.639" width="4.73906" height="18.644" rx="2" fill="#29457D" fill-opacity="0.5"/>
<rect x="257.536" y="104.639" width="4.73907" height="18.644" rx="2" fill="#29457D" fill-opacity="0.5"/>
<rect x="247.466" y="104.639" width="4.73906" height="18.644" rx="2" fill="#29457D" fill-opacity="0.5"/>
<rect width="91" height="32" transform="matrix(-1 0 0 1 367 98)" fill="#375592"/>
<rect x="319.325" y="104.639" width="4.73906" height="18.644" rx="2" fill="#29457D" fill-opacity="0.5"/>
<rect x="299.184" y="104.639" width="4.73906" height="18.644" rx="2" fill="#29457D" fill-opacity="0.5"/>
<rect x="289.113" y="104.639" width="4.73906" height="18.644" rx="2" fill="#29457D" fill-opacity="0.5"/>
<rect x="309.254" y="104.639" width="4.73906" height="18.644" rx="2" fill="#29457D" fill-opacity="0.5"/>
<rect x="329.396" y="104.639" width="4.73906" height="18.644" rx="2" fill="#29457D" fill-opacity="0.5"/>
<rect x="349.536" y="104.639" width="4.73907" height="18.644" rx="2" fill="#29457D" fill-opacity="0.5"/>
<rect x="339.466" y="104.639" width="4.73906" height="18.644" rx="2" fill="#29457D" fill-opacity="0.5"/>
<rect width="91" height="32" transform="matrix(-1 0 0 1 459 98)" fill="#375592"/>
<rect x="411.325" y="104.639" width="4.73906" height="18.644" rx="2" fill="#29457D" fill-opacity="0.5"/>
<rect x="391.184" y="104.639" width="4.73906" height="18.644" rx="2" fill="#29457D" fill-opacity="0.5"/>
<rect x="381.113" y="104.639" width="4.73906" height="18.644" rx="2" fill="#29457D" fill-opacity="0.5"/>
<rect x="401.254" y="104.639" width="4.73906" height="18.644" rx="2" fill="#29457D" fill-opacity="0.5"/>
<rect x="421.396" y="104.639" width="4.73906" height="18.644" rx="2" fill="#29457D" fill-opacity="0.5"/>
<rect x="441.536" y="104.639" width="4.73907" height="18.644" rx="2" fill="#29457D" fill-opacity="0.5"/>
<rect x="431.466" y="104.639" width="4.73906" height="18.644" rx="2" fill="#29457D" fill-opacity="0.5"/>
<rect width="91" height="32" transform="matrix(-1 0 0 1 551 98)" fill="#375592"/>
<rect x="503.325" y="104.639" width="4.73906" height="18.644" rx="2" fill="#29457D" fill-opacity="0.5"/>
<rect x="483.184" y="104.639" width="4.73906" height="18.644" rx="2" fill="#29457D" fill-opacity="0.5"/>
<rect x="473.113" y="104.639" width="4.73906" height="18.644" rx="2" fill="#29457D" fill-opacity="0.5"/>
<rect x="493.254" y="104.639" width="4.73906" height="18.644" rx="2" fill="#29457D" fill-opacity="0.5"/>
<rect x="513.396" y="104.639" width="4.73906" height="18.644" rx="2" fill="#29457D" fill-opacity="0.5"/>
<rect x="533.536" y="104.639" width="4.73907" height="18.644" rx="2" fill="#29457D" fill-opacity="0.5"/>
<rect x="523.466" y="104.639" width="4.73906" height="18.644" rx="2" fill="#29457D" fill-opacity="0.5"/>
<rect width="91" height="32" transform="matrix(-1 0 0 1 91 98)" fill="#375592"/>
<rect x="43.3252" y="104.639" width="4.73906" height="18.644" rx="2" fill="#29457D" fill-opacity="0.5"/>
<rect x="23.1836" y="104.639" width="4.73906" height="18.644" rx="2" fill="#29457D" fill-opacity="0.5"/>
<rect x="13.1133" y="104.639" width="4.73906" height="18.644" rx="2" fill="#29457D" fill-opacity="0.5"/>
<rect x="33.2539" y="104.639" width="4.73906" height="18.644" rx="2" fill="#29457D" fill-opacity="0.5"/>
<rect x="53.3955" y="104.639" width="4.73906" height="18.644" rx="2" fill="#29457D" fill-opacity="0.5"/>
<rect x="73.5361" y="104.639" width="4.73907" height="18.644" rx="2" fill="#29457D" fill-opacity="0.5"/>
<rect x="63.4658" y="104.639" width="4.73906" height="18.644" rx="2" fill="#29457D" fill-opacity="0.5"/>
</svg>
