<svg width="220" height="212" viewBox="0 0 220 212" fill="none" xmlns="http://www.w3.org/2000/svg">
<path d="M147.25 205.431C147.245 205.431 147.239 205.431 147.234 205.431C146.133 205.37 144.988 205.194 143.831 204.908C143.679 204.871 143.587 204.718 143.624 204.566C143.662 204.415 143.815 204.323 143.967 204.359C145.09 204.637 146.199 204.807 147.265 204.866C147.421 204.875 147.54 205.008 147.532 205.164C147.524 205.315 147.399 205.431 147.25 205.431ZM150.624 205.185C150.495 205.185 150.379 205.097 150.349 204.966C150.314 204.813 150.408 204.661 150.561 204.626C151.736 204.354 152.703 203.874 153.438 203.2C153.554 203.094 153.733 203.103 153.838 203.217C153.944 203.333 153.935 203.511 153.821 203.617C153.013 204.358 151.959 204.883 150.688 205.177C150.667 205.183 150.645 205.185 150.624 205.185ZM140.661 203.902C140.629 203.902 140.598 203.896 140.566 203.885C139.499 203.504 138.431 203.081 137.394 202.629C137.251 202.567 137.185 202.4 137.248 202.257C137.31 202.114 137.477 202.05 137.62 202.111C138.645 202.558 139.701 202.976 140.757 203.353C140.904 203.406 140.98 203.568 140.928 203.715C140.887 203.83 140.778 203.902 140.661 203.902ZM134.443 201.192C134.399 201.192 134.354 201.181 134.313 201.16C133.303 200.636 132.302 200.073 131.339 199.486C131.205 199.405 131.163 199.23 131.244 199.097C131.325 198.964 131.499 198.92 131.633 199.002C132.586 199.582 133.575 200.139 134.573 200.657C134.712 200.729 134.766 200.899 134.694 201.038C134.644 201.136 134.545 201.192 134.443 201.192ZM155.244 200.772C155.226 200.772 155.207 200.77 155.189 200.767C155.035 200.736 154.936 200.587 154.967 200.434C155.052 200.006 155.095 199.541 155.095 199.053C155.095 198.471 155.036 197.853 154.916 197.163C154.889 197.009 154.992 196.863 155.146 196.836C155.303 196.809 155.447 196.912 155.473 197.066C155.599 197.788 155.661 198.438 155.661 199.054C155.661 199.579 155.614 200.081 155.522 200.545C155.495 200.679 155.376 200.772 155.244 200.772ZM147.666 197.961C147.31 197.961 146.959 197.913 146.622 197.82C146.472 197.778 146.384 197.622 146.425 197.472C146.467 197.322 146.621 197.233 146.773 197.275C147.733 197.54 148.826 197.353 149.806 196.759C149.94 196.678 150.114 196.721 150.195 196.854C150.275 196.988 150.232 197.161 150.099 197.243C149.324 197.712 148.483 197.961 147.666 197.961ZM128.647 197.666C128.591 197.666 128.534 197.65 128.485 197.614C127.554 196.957 126.639 196.263 125.765 195.552C125.643 195.454 125.625 195.276 125.724 195.155C125.822 195.033 126 195.015 126.121 195.114C126.986 195.817 127.89 196.502 128.81 197.152C128.938 197.242 128.969 197.418 128.879 197.546C128.823 197.624 128.735 197.666 128.647 197.666ZM144.275 195.626C144.165 195.626 144.06 195.56 144.014 195.453C143.75 194.826 143.61 194.116 143.61 193.4C143.61 192.9 143.677 192.408 143.808 191.939C143.85 191.788 144.007 191.7 144.156 191.742C144.307 191.784 144.395 191.941 144.353 192.09C144.236 192.51 144.176 192.95 144.176 193.399C144.176 194.041 144.3 194.674 144.536 195.232C144.596 195.376 144.529 195.542 144.385 195.602C144.349 195.618 144.312 195.626 144.275 195.626ZM152.119 194.747C152.085 194.747 152.05 194.74 152.017 194.727C151.871 194.671 151.799 194.507 151.855 194.361C152.026 193.921 152.112 193.477 152.112 193.042C152.112 192.608 152.025 192.187 151.853 191.791C151.786 191.637 151.71 191.488 151.626 191.344C151.547 191.209 151.593 191.036 151.728 190.957C151.816 190.905 151.92 190.908 152.002 190.951C152.013 190.935 152.026 190.919 152.041 190.905C152.154 190.797 152.333 190.8 152.441 190.914C153.204 191.709 153.885 192.696 154.412 193.769C154.481 193.909 154.424 194.078 154.283 194.148C154.143 194.217 153.974 194.159 153.905 194.019C153.504 193.203 153.009 192.439 152.457 191.78C152.604 192.183 152.678 192.607 152.678 193.041C152.678 193.546 152.579 194.059 152.383 194.566C152.339 194.678 152.232 194.747 152.119 194.747ZM123.386 193.385C123.316 193.385 123.247 193.36 123.193 193.309C122.566 192.723 121.948 192.112 121.354 191.494C121.245 191.381 121.249 191.202 121.362 191.094C121.475 190.986 121.654 190.989 121.762 191.102C122.349 191.713 122.96 192.316 123.579 192.896C123.693 193.003 123.699 193.181 123.592 193.296C123.536 193.355 123.462 193.385 123.386 193.385ZM146.129 189.724C146.023 189.724 145.922 189.664 145.873 189.563C145.806 189.422 145.866 189.253 146.007 189.186C146.092 189.145 146.18 189.108 146.27 189.073C147.257 188.688 148.295 188.638 149.318 188.923L148.833 188.52C148.142 187.94 147.468 187.318 146.831 186.672C146.722 186.561 146.723 186.382 146.834 186.272C146.946 186.163 147.125 186.164 147.234 186.275C147.859 186.909 148.518 187.518 149.197 188.086L149.732 188.531C149.852 188.63 149.869 188.809 149.769 188.929C149.726 188.982 149.667 189.015 149.605 189.026C149.7 189.097 149.744 189.222 149.706 189.341C149.658 189.489 149.501 189.571 149.35 189.523C148.384 189.212 147.407 189.238 146.475 189.599C146.398 189.629 146.324 189.661 146.251 189.696C146.211 189.715 146.17 189.724 146.129 189.724ZM144.8 184.202C144.715 184.202 144.632 184.164 144.576 184.092C143.87 183.18 143.222 182.225 142.651 181.256C142.572 181.121 142.617 180.948 142.751 180.868C142.888 180.789 143.059 180.835 143.139 180.968C143.697 181.917 144.331 182.853 145.024 183.746C145.119 183.87 145.097 184.047 144.973 184.143C144.921 184.183 144.86 184.202 144.8 184.202ZM141.377 178.363C141.266 178.363 141.161 178.297 141.116 178.188C140.668 177.106 140.311 176.006 140.055 174.921C140.019 174.769 140.113 174.616 140.265 174.581C140.419 174.542 140.57 174.639 140.605 174.791C140.855 175.848 141.202 176.917 141.638 177.971C141.698 178.115 141.629 178.281 141.485 178.34C141.45 178.356 141.414 178.363 141.377 178.363ZM139.856 171.784C139.705 171.784 139.581 171.666 139.573 171.514C139.562 171.259 139.556 171.005 139.556 170.75C139.555 169.847 139.63 168.946 139.776 168.073C139.802 167.918 139.952 167.817 140.102 167.841C140.257 167.867 140.36 168.013 140.335 168.167C140.193 169.009 140.122 169.878 140.122 170.75C140.122 170.996 140.128 171.243 140.139 171.489C140.146 171.645 140.025 171.777 139.869 171.784C139.864 171.784 139.86 171.784 139.856 171.784ZM140.981 165.145C140.946 165.145 140.91 165.138 140.875 165.124C140.73 165.065 140.66 164.9 140.718 164.755C141.146 163.698 141.69 162.676 142.337 161.716C142.424 161.587 142.6 161.552 142.729 161.64C142.859 161.727 142.893 161.903 142.806 162.032C142.182 162.959 141.656 163.946 141.242 164.968C141.199 165.078 141.093 165.145 140.981 165.145ZM144.725 159.544C144.653 159.544 144.582 159.516 144.526 159.462C144.415 159.351 144.414 159.173 144.524 159.062C145.3 158.278 146.177 157.525 147.128 156.824C147.252 156.732 147.431 156.758 147.523 156.883C147.616 157.009 147.589 157.186 147.464 157.279C146.535 157.963 145.682 158.696 144.926 159.46C144.871 159.515 144.798 159.544 144.725 159.544ZM150.15 155.5C150.05 155.5 149.954 155.448 149.903 155.355C149.826 155.219 149.874 155.047 150.01 154.97C150.958 154.437 151.988 153.923 153.071 153.443C153.214 153.38 153.38 153.443 153.444 153.587C153.508 153.73 153.443 153.897 153.3 153.96C152.234 154.433 151.22 154.938 150.288 155.463C150.244 155.488 150.197 155.5 150.15 155.5ZM156.341 152.734C156.225 152.734 156.116 152.661 156.075 152.546C156.023 152.398 156.1 152.237 156.247 152.184C157.277 151.819 158.37 151.469 159.498 151.144C159.648 151.098 159.805 151.188 159.848 151.337C159.891 151.488 159.805 151.644 159.654 151.687C158.538 152.01 157.455 152.356 156.436 152.718C156.405 152.729 156.373 152.734 156.341 152.734ZM162.86 150.84C162.732 150.84 162.616 150.752 162.585 150.622C162.549 150.47 162.643 150.318 162.795 150.282C163.844 150.033 164.953 149.794 166.089 149.57C166.243 149.543 166.408 149.636 166.439 149.788C166.47 149.941 166.389 150.086 166.238 150.118C166.233 150.119 166.193 150.127 166.188 150.127C165.068 150.348 163.967 150.585 162.926 150.833C162.904 150.838 162.882 150.84 162.86 150.84ZM169.513 149.486C169.38 149.486 169.261 149.391 169.236 149.255C169.207 149.101 169.308 148.954 169.462 148.925L172.799 148.305C172.954 148.275 173.1 148.378 173.129 148.531C173.157 148.684 173.056 148.832 172.903 148.861L169.565 149.481C169.549 149.485 169.53 149.486 169.513 149.486ZM176.186 148.237C176.053 148.237 175.935 148.143 175.909 148.008C175.879 147.854 175.98 147.706 176.133 147.677C177.243 147.462 178.352 147.243 179.457 147.013C179.611 146.981 179.76 147.079 179.792 147.232C179.824 147.386 179.725 147.535 179.572 147.567C178.464 147.797 177.352 148.018 176.239 148.232C176.222 148.235 176.204 148.237 176.186 148.237ZM182.83 146.847C182.701 146.847 182.585 146.759 182.555 146.628C182.52 146.476 182.614 146.323 182.767 146.289C183.901 146.026 185.007 145.753 186.054 145.478C186.206 145.437 186.359 145.528 186.399 145.679C186.439 145.83 186.349 145.985 186.198 146.025C185.146 146.302 184.035 146.576 182.895 146.839C182.873 146.845 182.851 146.847 182.83 146.847ZM189.391 145.11C189.271 145.11 189.158 145.031 189.121 144.909C189.075 144.76 189.159 144.602 189.309 144.556C190.416 144.218 191.496 143.862 192.519 143.496C192.667 143.444 192.828 143.52 192.88 143.667C192.933 143.814 192.856 143.976 192.71 144.029C191.679 144.398 190.591 144.757 189.474 145.098C189.447 145.106 189.419 145.11 189.391 145.11ZM195.777 142.814C195.667 142.814 195.562 142.749 195.517 142.641C195.456 142.498 195.523 142.332 195.667 142.271C196.713 141.828 197.745 141.354 198.734 140.86C198.873 140.789 199.043 140.847 199.113 140.986C199.184 141.126 199.126 141.296 198.987 141.366C197.987 141.865 196.945 142.345 195.887 142.791C195.851 142.807 195.814 142.814 195.777 142.814ZM201.844 139.777C201.747 139.777 201.652 139.727 201.6 139.638C201.521 139.503 201.566 139.33 201.7 139.251C202.683 138.671 203.638 138.059 204.537 137.43C204.666 137.34 204.842 137.372 204.931 137.5C205.021 137.628 204.989 137.804 204.861 137.893C203.949 138.531 202.982 139.151 201.986 139.737C201.941 139.764 201.892 139.777 201.844 139.777ZM207.396 135.885C207.315 135.885 207.235 135.851 207.179 135.783C207.079 135.663 207.095 135.485 207.215 135.385C208.086 134.658 208.919 133.891 209.691 133.106C209.802 132.995 209.98 132.994 210.091 133.103C210.203 133.213 210.204 133.392 210.094 133.503C209.309 134.301 208.462 135.08 207.577 135.819C207.524 135.863 207.46 135.885 207.396 135.885ZM212.143 131.05C212.081 131.05 212.019 131.03 211.967 130.989C211.845 130.892 211.825 130.714 211.921 130.591C212.623 129.707 213.274 128.784 213.855 127.845C213.937 127.712 214.112 127.671 214.245 127.753C214.378 127.836 214.418 128.01 214.337 128.143C213.743 129.1 213.08 130.042 212.365 130.943C212.309 131.013 212.226 131.05 212.143 131.05ZM215.711 125.294C215.671 125.294 215.63 125.285 215.591 125.267C215.45 125.2 215.389 125.032 215.455 124.891C215.924 123.891 216.346 122.842 216.71 121.773C216.761 121.625 216.92 121.547 217.069 121.596C217.217 121.647 217.296 121.807 217.246 121.955C216.875 123.044 216.444 124.112 215.968 125.13C215.919 125.234 215.817 125.294 215.711 125.294ZM52.5907 122.766C52.5498 122.766 52.5088 122.756 52.4693 122.738C51.4538 122.255 50.4282 121.746 49.4212 121.223C49.2827 121.151 49.2286 120.981 49.3004 120.842C49.3727 120.704 49.5436 120.649 49.6817 120.721C50.6831 121.24 51.7031 121.747 52.7126 122.227C52.8537 122.295 52.9134 122.463 52.8466 122.604C52.7981 122.706 52.6964 122.766 52.5907 122.766ZM46.5653 119.64C46.5183 119.64 46.4702 119.628 46.4268 119.604C45.4426 119.049 44.4549 118.47 43.4904 117.882C43.3569 117.801 43.3149 117.627 43.3959 117.493C43.4768 117.36 43.6507 117.317 43.7848 117.399C44.7437 117.983 45.7258 118.559 46.7039 119.111C46.8399 119.187 46.888 119.36 46.8116 119.496C46.7605 119.589 46.6645 119.64 46.5653 119.64ZM217.907 118.885C217.886 118.885 217.864 118.882 217.843 118.877C217.691 118.842 217.596 118.69 217.631 118.538C217.878 117.469 218.083 116.355 218.238 115.225C218.26 115.07 218.406 114.962 218.557 114.983C218.712 115.005 218.82 115.147 218.799 115.302C218.64 116.448 218.433 117.58 218.182 118.665C218.152 118.796 218.036 118.885 217.907 118.885ZM40.7711 116.106C40.718 116.106 40.6638 116.091 40.6158 116.059C39.6665 115.434 38.7208 114.788 37.8049 114.139C37.6775 114.048 37.6476 113.872 37.7381 113.745C37.8282 113.617 38.0047 113.587 38.1326 113.677C39.0429 114.323 39.9831 114.966 40.9273 115.587C41.0578 115.673 41.0942 115.848 41.0083 115.978C40.9536 116.061 40.8631 116.106 40.7711 116.106ZM35.2332 112.18C35.1735 112.18 35.1133 112.162 35.0623 112.123C34.1595 111.435 33.2603 110.725 32.3899 110.013C32.2691 109.915 32.2514 109.736 32.35 109.615C32.4491 109.494 32.6266 109.477 32.748 109.576C33.6133 110.283 34.5075 110.988 35.4047 111.673C35.5291 111.768 35.5528 111.945 35.4583 112.069C35.4026 112.142 35.3182 112.18 35.2332 112.18ZM218.845 112.169C218.839 112.169 218.834 112.168 218.828 112.168C218.672 112.159 218.553 112.026 218.562 111.869C218.614 110.977 218.639 110.056 218.639 109.133C218.639 108.92 218.637 108.708 218.635 108.496C218.633 108.339 218.758 108.211 218.914 108.21C218.916 108.21 218.917 108.21 218.918 108.21C219.073 108.21 219.199 108.334 219.201 108.49C219.204 108.705 219.205 108.919 219.205 109.133C219.205 110.067 219.179 110.999 219.127 111.902C219.118 112.052 218.993 112.169 218.845 112.169ZM29.9786 107.885C29.9123 107.885 29.8456 107.861 29.792 107.814C28.9428 107.069 28.0947 106.3 27.2719 105.526C27.1581 105.419 27.1525 105.24 27.2597 105.126C27.3669 105.012 27.5455 105.007 27.6598 105.114C28.478 105.883 29.3211 106.649 30.1652 107.389C30.2825 107.492 30.2942 107.671 30.1915 107.789C30.1354 107.852 30.0575 107.885 29.9786 107.885ZM218.769 105.385C218.623 105.385 218.499 105.272 218.488 105.123C218.408 104.028 218.293 102.897 218.149 101.761C218.13 101.606 218.239 101.464 218.394 101.445C218.547 101.426 218.69 101.535 218.71 101.689C218.856 102.835 218.971 103.976 219.052 105.081C219.063 105.237 218.946 105.373 218.79 105.384C218.783 105.384 218.776 105.385 218.769 105.385ZM25.0339 103.235C24.9611 103.235 24.8883 103.207 24.8332 103.151C24.0371 102.349 23.2446 101.522 22.4784 100.693C22.3727 100.578 22.3793 100.399 22.4941 100.293C22.6094 100.187 22.788 100.194 22.8942 100.309C23.6558 101.133 24.4438 101.955 25.2347 102.753C25.345 102.864 25.344 103.043 25.2332 103.153C25.1781 103.208 25.1063 103.235 25.0339 103.235ZM217.923 98.6514C217.788 98.6514 217.668 98.5543 217.645 98.4167C217.457 97.3405 217.238 96.2238 216.995 95.0976C216.962 94.9448 217.059 94.7941 217.212 94.7612C217.366 94.7299 217.516 94.825 217.548 94.9782C217.793 96.1121 218.013 97.2363 218.202 98.3201C218.229 98.4739 218.126 98.6206 217.972 98.6469C217.955 98.6499 217.939 98.6514 217.923 98.6514ZM20.4267 98.2514C20.3473 98.2514 20.2684 98.218 20.2122 98.1532C19.5108 97.3385 18.8128 96.5 18.1387 95.6615L18.0542 95.5558C17.9566 95.4339 17.9678 95.2452 18.0896 95.1476C18.211 95.0495 18.3809 95.0591 18.4791 95.181L18.5797 95.3064C19.2503 96.1404 19.9437 96.9739 20.6411 97.784C20.7433 97.9024 20.7296 98.0809 20.6113 98.1831C20.5576 98.2286 20.4919 98.2514 20.4267 98.2514ZM16.1941 92.9461C16.1071 92.9461 16.0212 92.9062 15.9655 92.8303C15.2797 91.8932 14.6258 90.951 14.0215 90.03C13.936 89.8996 13.9724 89.7241 14.1029 89.6386C14.2329 89.5531 14.4084 89.589 14.4943 89.72C15.0931 90.6329 15.7415 91.567 16.4217 92.4965C16.5143 92.6225 16.4864 92.7995 16.3605 92.8915C16.3104 92.9284 16.2523 92.9461 16.1941 92.9461ZM216.493 92.0176C216.367 92.0176 216.252 91.9326 216.219 91.8052C215.93 90.6754 215.621 89.5804 215.302 88.5502C215.256 88.4011 215.34 88.2428 215.489 88.1967C215.637 88.1502 215.796 88.2342 215.843 88.3834C216.164 89.4216 216.475 90.5257 216.767 91.6641C216.806 91.8153 216.715 91.9696 216.563 92.0085C216.541 92.0146 216.517 92.0176 216.493 92.0176ZM12.4805 87.2667C12.3824 87.2667 12.2873 87.2156 12.2347 87.1246C11.6566 86.1166 11.1195 85.1016 10.6386 84.1073C10.5703 83.9667 10.6295 83.7978 10.7701 83.7295C10.9107 83.6613 11.0801 83.7204 11.1478 83.861C11.6232 84.8432 12.1538 85.8466 12.7258 86.8429C12.8031 86.9784 12.7566 87.1514 12.6211 87.2293C12.5766 87.2551 12.528 87.2667 12.4805 87.2667ZM214.474 85.5386C214.36 85.5386 214.253 85.4688 214.21 85.356C213.799 84.2712 213.358 83.2258 212.9 82.2482C212.833 82.1071 212.894 81.9387 213.036 81.8719C213.175 81.8057 213.345 81.8659 213.413 82.008C213.877 82.9982 214.323 84.0573 214.739 85.1552C214.794 85.3014 214.721 85.4647 214.575 85.5199C214.541 85.5325 214.507 85.5386 214.474 85.5386ZM9.53656 81.1563C9.42327 81.1563 9.31605 81.0875 9.27307 80.9758C8.85431 79.895 8.48816 78.8046 8.18421 77.7345C8.14173 77.5843 8.22871 77.428 8.37892 77.385C8.53013 77.342 8.6859 77.4295 8.72838 77.5797C9.02728 78.6327 9.38787 79.7064 9.80055 80.771C9.85719 80.9166 9.78487 81.0805 9.63922 81.1371C9.60534 81.1503 9.57044 81.1563 9.53656 81.1563ZM211.576 79.4085C211.479 79.4085 211.385 79.3584 211.332 79.2694C210.747 78.2792 210.119 77.3395 209.466 76.4767C209.371 76.3523 209.395 76.1748 209.52 76.0802C209.645 75.9856 209.822 76.0104 209.916 76.1348C210.583 77.0148 211.223 77.9727 211.819 78.9822C211.898 79.1167 211.854 79.2901 211.719 79.3696C211.674 79.3959 211.624 79.4085 211.576 79.4085ZM194.204 79.3342C193.174 79.3342 192.128 79.0358 191.258 78.4936C191.126 78.4107 191.085 78.2367 191.168 78.1037C191.25 77.9717 191.424 77.9297 191.557 78.0132C192.458 78.5745 193.576 78.8436 194.627 78.7485C194.781 78.7298 194.921 78.8481 194.934 79.0039C194.949 79.1592 194.835 79.2972 194.679 79.3114C194.522 79.3271 194.364 79.3342 194.204 79.3342ZM197.425 77.6141C197.379 77.6141 197.333 77.603 197.29 77.5797C197.152 77.5049 197.102 77.3329 197.176 77.1959C197.469 76.6249 197.6 76.0276 197.6 75.3287C197.6 74.9377 197.559 74.5256 197.475 74.0694C197.446 73.9156 197.548 73.768 197.702 73.7402C197.852 73.7108 198.003 73.813 198.031 73.9667C198.122 74.4573 198.166 74.9028 198.166 75.3287C198.166 76.1085 198.01 76.809 197.702 77.4113L197.673 77.467C197.622 77.561 197.525 77.6141 197.425 77.6141ZM189.528 75.8375C189.394 75.8375 189.275 75.7414 189.25 75.6048C189.198 75.3196 189.172 75.0257 189.172 74.7319C189.172 73.8605 189.394 72.9881 189.833 72.139C189.905 71.9999 190.075 71.9453 190.215 72.0171C190.353 72.0889 190.408 72.2593 190.336 72.3979C189.94 73.1661 189.738 73.9516 189.738 74.7314C189.738 74.9919 189.761 75.2518 189.807 75.5042C189.835 75.6579 189.733 75.8051 189.579 75.8324C189.562 75.8359 189.545 75.8375 189.528 75.8375ZM17.022 74.9575C16.0571 74.9575 15.0825 74.8052 14.1241 74.5048C13.9754 74.4583 13.8925 74.2995 13.939 74.1503C13.9856 74.0016 14.1433 73.9167 14.2935 73.9652C15.3687 74.3025 16.4708 74.4416 17.5399 74.3759C17.7032 74.3637 17.8302 74.4846 17.8398 74.6404C17.8499 74.7966 17.7311 74.9307 17.5753 74.9403C17.3922 74.9519 17.2071 74.9575 17.022 74.9575ZM7.70021 74.6333C7.56518 74.6333 7.44583 74.5362 7.42155 74.3986C7.22532 73.2637 7.09434 72.1193 7.03163 70.9965C7.02303 70.8402 7.14238 70.7072 7.29815 70.6981C7.45645 70.69 7.58743 70.8089 7.59654 70.9647C7.65773 72.0657 7.78619 73.1884 7.97888 74.302C8.00517 74.4558 7.902 74.6024 7.74826 74.6287C7.73208 74.6323 7.71589 74.6333 7.70021 74.6333ZM207.47 74.0264C207.397 74.0264 207.324 73.9986 207.269 73.943C206.472 73.1424 205.621 72.4055 204.738 71.7526C204.612 71.6595 204.585 71.4825 204.678 71.3571C204.772 71.2312 204.949 71.2054 205.074 71.2979C205.98 71.9675 206.853 72.7231 207.67 73.5439C207.781 73.6547 207.78 73.8337 207.669 73.944C207.614 73.9991 207.542 74.0264 207.47 74.0264ZM20.7746 73.9693C20.6795 73.9693 20.587 73.9212 20.5334 73.8347C20.4514 73.7017 20.4929 73.5277 20.6259 73.4453C21.1296 73.1348 21.5747 72.7509 21.9489 72.3049C22.2564 71.9382 22.526 71.521 22.7505 71.0643C22.8198 70.9242 22.9887 70.866 23.1293 70.9353C23.2694 71.0041 23.3271 71.174 23.2583 71.3141C23.0135 71.8113 22.7192 72.2669 22.3829 72.668C21.9697 73.1611 21.4781 73.5849 20.9228 73.9268C20.8763 73.9556 20.8252 73.9693 20.7746 73.9693ZM11.2161 72.9552C11.1549 72.9552 11.0932 72.9355 11.0411 72.8946C10.8682 72.758 10.7008 72.6154 10.5399 72.4667C9.86579 71.8441 9.25132 71.1229 8.71372 70.3239C8.62622 70.1944 8.66112 70.0184 8.79059 69.9314C8.91955 69.8439 9.09606 69.8788 9.18304 70.0083C9.69637 70.771 10.282 71.4588 10.9238 72.0515C11.074 72.1901 11.2303 72.3231 11.3921 72.451C11.5145 72.5476 11.5357 72.7256 11.4386 72.8485C11.3825 72.9183 11.2996 72.9552 11.2161 72.9552ZM196.753 71.0628C196.641 71.0628 196.535 70.9955 196.49 70.8853C196.206 70.1808 195.883 69.4808 195.521 68.795C195.509 68.7991 195.495 68.8021 195.482 68.8041C195.186 68.8466 194.892 68.9063 194.607 68.9801C193.859 69.1743 193.141 69.5112 192.473 69.9805C192.345 70.0705 192.168 70.0397 192.079 69.9117C191.989 69.7843 192.02 69.6072 192.148 69.5177C192.871 69.0095 193.651 68.6438 194.465 68.4324C194.717 68.3672 194.976 68.3126 195.236 68.2696C195.163 68.1391 195.09 68.0096 195.014 67.8807C194.936 67.7456 194.981 67.5727 195.116 67.4938C195.251 67.4154 195.424 67.4604 195.503 67.5954C196.085 68.5927 196.594 69.6285 197.015 70.6744C197.073 70.8195 197.003 70.9839 196.858 71.0425C196.824 71.0562 196.788 71.0628 196.753 71.0628ZM202.016 70.0397C201.974 70.0397 201.932 70.0306 201.892 70.0113C200.841 69.5026 199.787 69.1379 198.759 68.9275C198.606 68.8962 198.508 68.747 198.539 68.5938C198.57 68.4405 198.718 68.3419 198.872 68.3732C199.947 68.5927 201.046 68.9725 202.139 69.5015C202.279 69.5698 202.338 69.7387 202.27 69.8793C202.222 69.9805 202.12 70.0397 202.016 70.0397ZM23.8854 68.2119C23.8748 68.2119 23.8642 68.2114 23.8536 68.2099C23.6983 68.1922 23.587 68.0521 23.6042 67.8968C23.6497 67.4933 23.6806 67.0745 23.6983 66.6163C23.7074 66.3892 23.7119 66.1606 23.7119 65.931C23.7119 65.4642 23.6927 65.004 23.6548 64.5635C23.6411 64.4077 23.7565 64.2707 23.9122 64.2575C24.0695 64.2454 24.205 64.3592 24.2182 64.515C24.2581 64.9716 24.2779 65.4485 24.2774 65.9315C24.2774 66.1682 24.2728 66.4044 24.2637 66.638C24.2455 67.1104 24.2136 67.5428 24.1666 67.9606C24.1499 68.1052 24.0275 68.2119 23.8854 68.2119ZM7.37351 67.8731C7.3644 67.8731 7.35479 67.8731 7.34569 67.8721C7.18992 67.8569 7.07664 67.7183 7.09181 67.563C7.10293 67.4508 7.11457 67.339 7.12772 67.2272C6.74538 66.236 6.42727 65.1684 6.15568 63.9652C6.12129 63.813 6.21688 63.6613 6.36911 63.6274C6.52234 63.594 6.67305 63.6886 6.70694 63.8408C6.88496 64.6272 7.0822 65.3535 7.30523 66.0372C7.42408 65.3919 7.57631 64.7714 7.7609 64.1822C7.80692 64.033 7.96472 63.9495 8.11543 63.9966C8.26462 64.0431 8.34756 64.2019 8.30103 64.3511C7.98646 65.355 7.76899 66.4545 7.6547 67.6182C7.64003 67.7643 7.51714 67.8731 7.37351 67.8731ZM193.355 65.2139C193.271 65.2139 193.188 65.1765 193.132 65.1046C192.46 64.2413 191.714 63.3927 190.913 62.582C190.803 62.4707 190.805 62.2917 190.916 62.182C191.027 62.0722 191.205 62.0737 191.316 62.1845C192.132 63.0109 192.893 63.8762 193.579 64.7572C193.675 64.8806 193.653 65.0581 193.529 65.1542C193.477 65.1947 193.416 65.2139 193.355 65.2139ZM23.1855 61.525C23.0742 61.525 22.9685 61.4588 22.9235 61.349C22.4835 60.2713 21.8584 59.3847 21.0649 58.7131C20.9455 58.6125 20.9309 58.4339 21.032 58.3146C21.1322 58.1952 21.3107 58.1806 21.4306 58.2817C22.2938 59.0125 22.9726 59.9724 23.4469 61.1356C23.5061 61.2802 23.4368 61.4451 23.2922 61.5043C23.2573 61.5179 23.2214 61.525 23.1855 61.525ZM9.45918 61.483C9.40608 61.483 9.35196 61.4679 9.30392 61.4365C9.17344 61.3505 9.13702 61.175 9.22249 61.0446C9.54667 60.5505 9.9103 60.0842 10.3038 59.6578C10.6881 59.2411 11.1256 58.8552 11.604 58.5108C11.731 58.4198 11.9075 58.4486 11.999 58.575C12.09 58.702 12.0612 58.8785 11.9348 58.97C11.4872 59.2922 11.0786 59.6523 10.72 60.0412C10.3478 60.4448 10.0034 60.8868 9.69586 61.3551C9.64175 61.438 9.55122 61.483 9.45918 61.483ZM5.84465 60.8433C5.70558 60.8433 5.5842 60.7401 5.56498 60.598C5.41326 59.4758 5.2939 58.3343 5.21045 57.2055C5.19882 57.0497 5.31565 56.9137 5.47142 56.9026C5.62769 56.8904 5.76272 57.0077 5.77436 57.1635C5.8573 58.2812 5.97513 59.411 6.12534 60.5221C6.14658 60.6769 6.03785 60.819 5.88309 60.8402C5.86994 60.8423 5.8573 60.8433 5.84465 60.8433ZM188.604 60.382C188.541 60.382 188.478 60.3608 188.425 60.3178C187.576 59.6209 186.666 58.9442 185.723 58.307C185.594 58.2195 185.56 58.0435 185.647 57.9145C185.735 57.7846 185.911 57.7517 186.04 57.8387C186.998 58.4855 187.921 59.1728 188.784 59.8814C188.905 59.9805 188.922 60.1585 188.823 60.2794C188.767 60.3471 188.686 60.382 188.604 60.382ZM14.8266 57.5919C14.7007 57.5919 14.5864 57.5074 14.553 57.3805C14.5135 57.2293 14.6041 57.075 14.7553 57.0356C15.9311 56.7296 17.1318 56.6623 18.2368 56.8419C18.3911 56.8672 18.4957 57.0123 18.4705 57.1665C18.4452 57.3208 18.3005 57.424 18.1458 57.4002C17.1186 57.2323 15.9969 57.2965 14.8979 57.5828C14.8746 57.5888 14.8504 57.5919 14.8266 57.5919ZM182.991 56.5763C182.944 56.5763 182.896 56.5647 182.853 56.5404C181.888 56.0003 180.877 55.486 179.848 55.0111C179.706 54.9458 179.644 54.7774 179.71 54.6358C179.776 54.4937 179.945 54.433 180.085 54.4978C181.128 54.9787 182.152 55.4996 183.13 56.0468C183.266 56.1232 183.314 56.2957 183.239 56.4317C183.185 56.5243 183.089 56.5763 182.991 56.5763ZM5.34296 54.0775C5.18871 54.0775 5.06227 53.9536 5.06025 53.7988C5.05671 53.5348 5.05469 53.2708 5.05469 53.0063C5.05469 52.1334 5.07492 51.2529 5.11538 50.3881C5.12246 50.2318 5.25648 50.1089 5.41073 50.1186C5.567 50.1256 5.68737 50.2581 5.68029 50.4139C5.64033 51.2696 5.6201 52.142 5.6201 53.0058C5.6201 53.2678 5.62162 53.5288 5.62567 53.7902C5.62769 53.9465 5.50328 54.075 5.347 54.077C5.34549 54.0775 5.34397 54.0775 5.34296 54.0775ZM176.834 53.7305C176.801 53.7305 176.768 53.7245 176.735 53.7123C176.463 53.6102 176.19 53.5111 175.916 53.4145C175.376 53.2233 174.83 53.0397 174.283 52.8556L173.538 52.6038C173.39 52.5537 173.311 52.3929 173.361 52.2452C173.411 52.0975 173.571 52.0176 173.72 52.0687L174.463 52.32C175.013 52.5046 175.561 52.6892 176.105 52.8814C176.381 52.979 176.657 53.0802 176.934 53.1828C177.08 53.2375 177.154 53.4008 177.099 53.547C177.056 53.6602 176.949 53.7305 176.834 53.7305ZM170.454 51.4208C170.416 51.4208 170.378 51.4132 170.34 51.3971C169.316 50.947 168.439 50.4736 167.66 49.9496C167.548 49.8743 167.438 49.7979 167.33 49.7205C167.203 49.6295 167.173 49.453 167.264 49.3261C167.354 49.1986 167.533 49.1703 167.658 49.2598C167.762 49.3347 167.868 49.408 167.975 49.4803C168.726 49.985 169.574 50.4427 170.567 50.8792C170.71 50.9424 170.776 51.1093 170.712 51.2519C170.666 51.3576 170.562 51.4208 170.454 51.4208ZM164.968 47.5165C164.892 47.5165 164.816 47.4862 164.76 47.426C164.086 46.7003 163.396 45.8597 162.588 44.7815C162.494 44.6566 162.519 44.479 162.644 44.3855C162.768 44.2914 162.947 44.3167 163.04 44.4421C163.836 45.5042 164.515 46.3296 165.175 47.0406C165.281 47.1554 165.274 47.3345 165.16 47.4407C165.105 47.4917 165.037 47.5165 164.968 47.5165ZM5.66056 47.3006C5.65045 47.3006 5.63983 47.3001 5.62971 47.2991C5.47445 47.2819 5.36218 47.1423 5.37887 46.987C5.50227 45.8536 5.66259 44.7173 5.85477 43.6082C5.88157 43.4544 6.02874 43.3518 6.18198 43.3775C6.33573 43.4044 6.4389 43.551 6.4126 43.7048C6.22193 44.8017 6.06364 45.9265 5.94175 47.0477C5.92557 47.1928 5.80318 47.3006 5.66056 47.3006ZM160.815 42.1516C160.728 42.1516 160.642 42.1117 160.586 42.0358C160.218 41.5311 159.845 41.0309 159.462 40.5419C159.152 40.1459 158.835 39.757 158.511 39.3756C158.411 39.2568 158.425 39.0782 158.544 38.9771C158.662 38.8765 158.842 38.8906 158.943 39.01C159.271 39.3969 159.592 39.7908 159.907 40.1929C160.294 40.687 160.67 41.1917 161.043 41.7015C161.135 41.8274 161.107 42.0045 160.981 42.0965C160.931 42.1344 160.873 42.1516 160.815 42.1516ZM6.82225 40.6157C6.8005 40.6157 6.77774 40.6132 6.75549 40.6076C6.60377 40.5712 6.51021 40.418 6.54713 40.2662C6.81567 39.1566 7.12316 38.0501 7.4615 36.9774C7.50854 36.8282 7.66683 36.7443 7.81603 36.7928C7.96522 36.8398 8.04766 36.9986 8.00062 37.1473C7.66633 38.2079 7.36238 39.3018 7.09687 40.3992C7.06551 40.5287 6.9502 40.6157 6.82225 40.6157ZM156.426 36.985C156.353 36.985 156.282 36.9577 156.226 36.9026C155.44 36.1207 154.604 35.356 153.741 34.6293C153.621 34.5286 153.606 34.3501 153.707 34.2307C153.808 34.1109 153.986 34.0962 154.105 34.1968C154.98 34.9332 155.828 35.7085 156.625 36.5015C156.736 36.6118 156.736 36.7908 156.626 36.9015C156.571 36.9572 156.499 36.985 156.426 36.985ZM8.86544 34.1468C8.83105 34.1468 8.79565 34.1402 8.76126 34.1265C8.6156 34.0689 8.5448 33.905 8.60245 33.7594C9.02272 32.6968 9.48447 31.6449 9.97453 30.6324C10.0428 30.4918 10.2112 30.4326 10.3523 30.5009C10.4929 30.5692 10.5521 30.7381 10.4838 30.8787C9.99981 31.8785 9.54364 32.9173 9.12842 33.9667C9.08442 34.079 8.97822 34.1468 8.86544 34.1468ZM151.244 32.6154C151.187 32.6154 151.13 32.5982 151.08 32.5623C150.179 31.918 149.233 31.2919 148.267 30.7032C148.133 30.6218 148.091 30.4478 148.172 30.3143C148.253 30.1813 148.427 30.1373 148.561 30.2197C149.539 30.816 150.497 31.4492 151.409 32.1021C151.536 32.1931 151.566 32.3696 151.475 32.4965C151.419 32.5744 151.332 32.6154 151.244 32.6154ZM145.457 29.0798C145.413 29.0798 145.368 29.0691 145.327 29.0479C144.346 28.5386 143.322 28.0481 142.282 27.5899C142.139 27.5266 142.074 27.3597 142.137 27.2171C142.2 27.0745 142.367 27.0093 142.51 27.0725C143.56 27.5352 144.595 28.0309 145.587 28.5457C145.726 28.618 145.78 28.7885 145.708 28.927C145.658 29.0241 145.559 29.0798 145.457 29.0798ZM11.825 28.0445C11.7765 28.0445 11.7274 28.0319 11.6824 28.0056C11.5474 27.9267 11.5024 27.7532 11.5808 27.6187C12.1568 26.633 12.7763 25.665 13.4217 24.742C13.5112 24.6141 13.6882 24.5827 13.8156 24.6722C13.9436 24.7618 13.9749 24.9383 13.8854 25.0662C13.2487 25.977 12.6378 26.9319 12.0693 27.9044C12.0167 27.9944 11.9221 28.0445 11.825 28.0445ZM139.25 26.3392C139.218 26.3392 139.184 26.3336 139.152 26.3215C138.116 25.9361 137.04 25.5694 135.954 25.2316C135.805 25.1851 135.721 25.0268 135.768 24.8776C135.814 24.7289 135.971 24.6454 136.122 24.6915C137.218 25.0323 138.304 25.402 139.349 25.7909C139.496 25.8456 139.57 26.0084 139.516 26.1551C139.473 26.2689 139.365 26.3392 139.25 26.3392ZM132.772 24.3202C132.749 24.3202 132.725 24.3172 132.701 24.3111C131.629 24.036 130.52 23.7801 129.407 23.55C129.254 23.5181 129.156 23.3689 129.187 23.2157C129.219 23.0625 129.371 22.9644 129.521 22.9957C130.643 23.2273 131.76 23.4858 132.841 23.7629C132.993 23.8019 133.083 23.9556 133.045 24.1073C133.013 24.2353 132.898 24.3202 132.772 24.3202ZM79.2286 23.8261C79.225 23.8261 79.222 23.8261 79.2184 23.8261C78.1225 23.7887 76.975 23.6077 75.8082 23.289C75.6575 23.2476 75.5685 23.0923 75.61 22.9416C75.6515 22.7909 75.8067 22.7009 75.9574 22.7433C77.0822 23.0508 78.1857 23.2248 79.2377 23.2607C79.3939 23.2663 79.5158 23.3973 79.5107 23.553C79.5062 23.7058 79.3803 23.8261 79.2286 23.8261ZM82.5877 23.4483C82.4638 23.4483 82.35 23.3659 82.3151 23.2405C82.2731 23.0898 82.3616 22.934 82.5123 22.8925C82.6914 22.843 82.8704 22.7884 83.0479 22.7287C83.8713 22.451 84.7007 22.0469 85.5134 21.5275C85.6449 21.4431 85.8204 21.482 85.9038 21.6135C85.9883 21.745 85.9493 21.92 85.8178 22.004C84.9667 22.5481 84.0958 22.9724 83.2285 23.2643C83.0403 23.3275 82.8522 23.3851 82.663 23.4372C82.6382 23.4448 82.613 23.4483 82.5877 23.4483ZM126.126 22.9436C126.111 22.9436 126.095 22.9426 126.08 22.9401C124.987 22.7631 123.86 22.6058 122.73 22.4713C122.575 22.4531 122.465 22.3125 122.483 22.1572C122.502 22.0014 122.645 21.8886 122.798 21.9099C123.934 22.0454 125.069 22.2042 126.17 22.3817C126.325 22.4065 126.43 22.5517 126.405 22.7064C126.382 22.8445 126.262 22.9436 126.126 22.9436ZM15.7106 22.491C15.6469 22.491 15.5827 22.4697 15.5301 22.4257C15.4102 22.3261 15.3935 22.1476 15.4937 22.0272C16.2219 21.1518 16.9947 20.3006 17.7902 19.4975C17.9 19.3867 18.0795 19.3857 18.1903 19.4955C18.301 19.6052 18.302 19.7843 18.1923 19.8955C17.4084 20.687 16.6468 21.526 15.9281 22.3893C15.8725 22.4566 15.7921 22.491 15.7106 22.491ZM99.0343 22.2083C99.0328 22.2083 99.0313 22.2083 99.0298 22.2083C97.7978 22.1891 96.6817 22.1294 95.6181 22.0252C95.4628 22.01 95.349 21.8715 95.3642 21.7162C95.3794 21.5609 95.5159 21.4466 95.6732 21.4623C96.7211 21.565 97.8221 21.6241 99.0384 21.6429C99.1947 21.6454 99.3191 21.7738 99.3166 21.9301C99.315 22.0849 99.1891 22.2083 99.0343 22.2083ZM102.428 22.1703C102.277 22.1703 102.151 22.0495 102.146 21.8967C102.141 21.7405 102.263 21.61 102.419 21.6049C103.509 21.57 104.6 21.5184 105.689 21.4669L105.806 21.4613C105.962 21.4512 106.094 21.5741 106.102 21.7303C106.11 21.8866 105.989 22.0186 105.833 22.0262L105.716 22.0318C104.624 22.0834 103.53 22.1349 102.437 22.1698C102.434 22.1703 102.431 22.1703 102.428 22.1703ZM119.386 22.138C119.378 22.138 119.371 22.138 119.364 22.1375C118.255 22.049 117.118 21.9802 115.985 21.9321C115.829 21.9256 115.708 21.7941 115.715 21.6378C115.721 21.4815 115.852 21.3607 116.009 21.3672C117.148 21.4153 118.292 21.4846 119.408 21.5736C119.564 21.5857 119.68 21.7223 119.668 21.878C119.656 22.0257 119.532 22.138 119.386 22.138ZM72.707 22.1117C72.6666 22.1117 72.6256 22.1026 72.5867 22.0844C71.8341 21.7288 71.0796 21.3202 70.3422 20.8701C70.0919 20.7174 69.844 20.5611 69.5983 20.4013C69.4673 20.3163 69.4298 20.1413 69.5148 20.0103C69.5998 19.8793 69.7753 19.8419 69.9057 19.9269C70.1475 20.0837 70.3913 20.2374 70.637 20.3876C71.3567 20.8271 72.0936 21.2261 72.8279 21.5731C72.969 21.6398 73.0297 21.8082 72.9629 21.9498C72.9144 22.052 72.8127 22.1117 72.707 22.1117ZM109.211 21.8881C109.059 21.8881 108.933 21.7668 108.929 21.6135C108.924 21.4573 109.047 21.3273 109.203 21.3227C110.13 21.2964 111.069 21.2828 111.997 21.2828L112.605 21.2848C112.762 21.2858 112.888 21.4127 112.887 21.5695C112.886 21.7253 112.76 21.8507 112.604 21.8507H112.602L111.997 21.8487C111.075 21.8487 110.14 21.8618 109.219 21.8886C109.217 21.8881 109.214 21.8881 109.211 21.8881ZM92.2943 21.5078C92.2741 21.5078 92.2539 21.5058 92.2337 21.5013C91.736 21.3925 91.2429 21.2686 90.769 21.1336C90.1561 20.9591 89.5416 20.7482 88.9428 20.5075C88.7977 20.4488 88.7279 20.2844 88.786 20.1393C88.8447 19.9946 89.0091 19.9254 89.1542 19.9825C89.7343 20.2162 90.3301 20.4205 90.9243 20.5894C91.3871 20.7214 91.8685 20.8423 92.355 20.9485C92.5078 20.9819 92.6044 21.1326 92.571 21.2853C92.5416 21.4173 92.4248 21.5078 92.2943 21.5078ZM88.3197 19.9405C88.2444 19.9405 88.1695 19.9107 88.1139 19.8515C88.0067 19.7377 88.0122 19.5587 88.126 19.4515C88.5301 19.0712 88.9443 18.6565 89.3929 18.1831C89.7763 17.7795 90.1227 17.3987 90.4519 17.0199C90.5546 16.9026 90.7331 16.8894 90.851 16.9916C90.9688 17.0942 90.9814 17.2728 90.8793 17.3906C90.5445 17.776 90.1925 18.1629 89.8036 18.5725C89.3474 19.0535 88.9256 19.4758 88.5139 19.8632C88.4593 19.9153 88.3895 19.9405 88.3197 19.9405ZM86.0328 18.9781C85.9807 18.9781 85.9281 18.9634 85.8811 18.9336C84.8868 18.2989 83.9769 17.5802 83.1758 16.7979C83.0641 16.6886 83.0621 16.5096 83.1713 16.3978C83.28 16.2861 83.4596 16.2835 83.5714 16.3933C84.3446 17.1489 85.2246 17.8432 86.1855 18.4572C86.3175 18.5412 86.3559 18.7161 86.2715 18.8476C86.2179 18.9321 86.1264 18.9781 86.0328 18.9781ZM66.978 18.4916C66.9188 18.4916 66.8597 18.4734 66.8086 18.4355C66.2164 17.9914 65.6287 17.5398 65.042 17.0882L64.1095 16.3725C63.985 16.278 63.9618 16.1005 64.0563 15.976C64.1509 15.8521 64.3295 15.8284 64.4529 15.9229L65.387 16.6396C65.9721 17.0897 66.5572 17.5398 67.1479 17.9823C67.2729 18.0764 67.2981 18.2534 67.2046 18.3783C67.149 18.4526 67.064 18.4916 66.978 18.4916ZM20.4949 17.6895C20.4135 17.6895 20.3326 17.6546 20.277 17.5873C20.1773 17.467 20.194 17.2884 20.3144 17.1888C21.1832 16.4691 22.1037 15.7783 23.0494 15.1355C23.1784 15.0485 23.3549 15.0819 23.4424 15.2103C23.5304 15.3398 23.4965 15.5158 23.3675 15.6033C22.436 16.2355 21.5302 16.9157 20.6755 17.6237C20.6224 17.6682 20.5582 17.6895 20.4949 17.6895ZM92.7187 14.7891C92.6661 14.7891 92.613 14.7744 92.5654 14.7436C92.4339 14.6591 92.3965 14.4841 92.481 14.3526C93.1223 13.3588 93.6275 12.361 93.983 11.387C94.0366 11.2403 94.1985 11.1649 94.3456 11.2185C94.4923 11.2722 94.5676 11.4345 94.514 11.5812C94.1443 12.5942 93.6199 13.6299 92.9559 14.6591C92.9023 14.7436 92.8117 14.7891 92.7187 14.7891ZM61.5428 14.4254C61.4877 14.4254 61.4316 14.4093 61.383 14.3754C60.7473 13.9384 60.1561 13.5566 59.576 13.2091C59.2286 13.0008 58.8771 12.801 58.5225 12.6093C58.385 12.535 58.3339 12.3635 58.4077 12.226C58.4816 12.0879 58.6535 12.0368 58.7911 12.1112C59.1532 12.3069 59.5123 12.5112 59.8668 12.7236C60.457 13.0771 61.0573 13.465 61.7031 13.9086C61.8316 13.9971 61.8645 14.1731 61.776 14.302C61.7219 14.3825 61.6328 14.4254 61.5428 14.4254ZM81.2551 14.2383C81.1595 14.2383 81.0659 14.1898 81.0128 14.1018C80.3902 13.0761 79.9432 11.9989 79.6842 10.8999C79.6483 10.7477 79.7429 10.5955 79.8946 10.5596C80.0473 10.5237 80.1991 10.6182 80.235 10.7699C80.4803 11.8113 80.9046 12.8334 81.4963 13.8079C81.5772 13.9414 81.5347 14.1154 81.4012 14.1963C81.3557 14.2252 81.3051 14.2383 81.2551 14.2383ZM26.099 13.8767C25.9994 13.8767 25.9028 13.8241 25.8512 13.7306C25.7759 13.5935 25.8249 13.4215 25.9615 13.3462C26.9532 12.7975 27.9834 12.2857 29.0232 11.8259C29.1669 11.7632 29.3332 11.828 29.3965 11.9706C29.4597 12.1132 29.3949 12.2806 29.2518 12.3438C28.2272 12.797 27.2122 13.3007 26.2356 13.8413C26.1926 13.8651 26.1456 13.8767 26.099 13.8767ZM55.5801 11.216C55.5458 11.216 55.5109 11.2094 55.4765 11.1963C54.4468 10.7922 53.3721 10.4412 52.2832 10.1545C52.132 10.1145 52.042 9.95975 52.0819 9.80854C52.1219 9.65732 52.2761 9.56882 52.4279 9.60725C53.5385 9.90007 54.6339 10.2576 55.6838 10.6698C55.829 10.727 55.9008 10.8913 55.8436 11.0365C55.8001 11.1477 55.6934 11.216 55.5801 11.216ZM32.2989 11.1326C32.1811 11.1326 32.0713 11.0587 32.0314 10.9409C31.9808 10.7932 32.0602 10.6324 32.2079 10.5823C33.2861 10.2152 34.3901 9.893 35.4896 9.62445C35.6429 9.58804 35.7946 9.68058 35.8315 9.83231C35.8684 9.98403 35.7754 10.1373 35.6236 10.1742C34.5403 10.4382 33.4525 10.7558 32.3899 11.1174C32.3596 11.128 32.3287 11.1326 32.2989 11.1326ZM38.8857 9.52684C38.7481 9.52684 38.6272 9.4262 38.606 9.2856C38.5827 9.13085 38.6894 8.98722 38.8437 8.96395C39.9765 8.79453 41.121 8.6772 42.2463 8.6155C42.396 8.60184 42.5351 8.72625 42.5442 8.88253C42.5528 9.03829 42.4329 9.17181 42.2772 9.18041C41.1706 9.24059 40.0433 9.3564 38.9281 9.5233C38.9135 9.52532 38.8993 9.52684 38.8857 9.52684ZM49.0323 9.48284C49.0187 9.48284 49.0045 9.48183 48.9904 9.4798C47.8964 9.31696 46.7696 9.20924 45.6424 9.16018C45.4861 9.15361 45.3652 9.02161 45.3723 8.86533C45.3789 8.70906 45.5109 8.58515 45.6671 8.59527C46.8142 8.64533 47.9607 8.75458 49.0738 8.92046C49.228 8.94322 49.3348 9.08735 49.312 9.24211C49.2908 9.3822 49.1699 9.48284 49.0323 9.48284ZM94.9161 8.45417C94.9136 8.45417 94.9105 8.45417 94.9075 8.45417C94.7512 8.44961 94.6283 8.31964 94.6329 8.16337C94.6354 8.07082 94.6369 7.97776 94.6369 7.88521C94.6369 6.85401 94.4736 5.8582 94.1514 4.92461C94.1003 4.77693 94.1787 4.6161 94.3264 4.56502C94.4751 4.51546 94.6349 4.59284 94.686 4.74001C95.0289 5.73328 95.2024 6.7918 95.2024 7.88572C95.2024 7.98383 95.2008 8.08194 95.1983 8.18006C95.1943 8.33279 95.0683 8.45417 94.9161 8.45417ZM79.8117 7.7522C79.7955 7.7522 79.7788 7.75068 79.7621 7.74765C79.6084 7.72034 79.5057 7.57367 79.533 7.41993C79.7308 6.30426 80.1723 5.21794 80.8454 4.19179C80.9309 4.0608 81.1069 4.02439 81.2369 4.11036C81.3673 4.19584 81.4042 4.37133 81.3183 4.50181C80.6871 5.46372 80.2739 6.47874 80.0898 7.51855C80.0656 7.6556 79.9462 7.7522 79.8117 7.7522ZM92.6686 2.24014C92.5958 2.24014 92.5229 2.21232 92.4678 2.15618C92.1376 1.8229 91.7719 1.52755 91.381 1.27923C90.858 0.946455 90.2916 0.703699 89.6984 0.55754C89.5467 0.520115 89.4541 0.367382 89.4915 0.215155C89.529 0.0634326 89.6827 -0.029118 89.8339 0.00830677C90.4873 0.169132 91.1099 0.436163 91.6849 0.801308C92.1113 1.07289 92.5098 1.39403 92.8699 1.75766C92.9796 1.86842 92.9786 2.04796 92.8679 2.1577C92.8127 2.21283 92.7409 2.24014 92.6686 2.24014ZM83.3948 2.1663C83.3094 2.1663 83.2244 2.12736 83.1688 2.05352C83.0747 1.92911 83.0995 1.75159 83.2239 1.65752C84.1838 0.932293 85.26 0.393174 86.3352 0.0973164C86.4859 0.0563514 86.6417 0.14435 86.6832 0.29506C86.7246 0.445771 86.6361 0.601539 86.4854 0.643009C85.4785 0.920155 84.4685 1.42691 83.5648 2.10915C83.5137 2.14759 83.454 2.1663 83.3948 2.1663Z" fill="#A39686"/>
<path d="M88.3946 65.8481C89.9901 65.8481 91.2834 64.5547 91.2834 62.9593C91.2834 61.3639 89.9901 60.0705 88.3946 60.0705C86.7992 60.0705 85.5059 61.3639 85.5059 62.9593C85.5059 64.5547 86.7992 65.8481 88.3946 65.8481Z" fill="#F84558"/>
<path d="M96.9122 65.848C98.5077 65.848 99.801 64.5547 99.801 62.9592C99.801 61.3638 98.5077 60.0704 96.9122 60.0704C95.3168 60.0704 94.0234 61.3638 94.0234 62.9592C94.0234 64.5547 95.3168 65.848 96.9122 65.848Z" fill="#F84558"/>
<path d="M104.967 65.848C106.562 65.848 107.856 64.5547 107.856 62.9592C107.856 61.3638 106.562 60.0704 104.967 60.0704C103.371 60.0704 102.078 61.3638 102.078 62.9592C102.078 64.5547 103.371 65.848 104.967 65.848Z" fill="#F84558"/>
<path d="M71.7395 56.0301C71.7172 55.6301 71.7041 55.228 71.7041 54.8224C71.7041 42.9183 81.3541 33.2683 93.2582 33.2683C94.4154 33.2683 95.5508 33.3619 96.6588 33.5379C96.896 19.1157 108.653 7.49579 123.132 7.49579C132.728 7.49579 141.132 12.5992 145.777 20.2404C148.709 19.1217 151.888 18.5037 155.212 18.5037C169.518 18.5037 181.168 29.8485 181.672 44.0315C182.87 43.7614 184.114 43.6142 185.393 43.6142C193.165 43.6142 199.703 48.8765 201.65 56.0307H71.7395V56.0301Z" fill="#8D8D8D"/>
<path d="M130.466 38.1431H121.266V56.0296H130.466V38.1431Z" fill="white"/>
<path d="M135.569 39.6835L125.866 29.9804L116.162 39.6835H135.569Z" fill="white"/>
<path d="M152.089 55.3908H142.889V73.2773H152.089V55.3908Z" fill="#8D8D8D"/>
<path d="M157.192 71.7369L147.489 81.4406L137.785 71.7369H157.192Z" fill="#8D8D8D"/>
<path d="M176.12 172.755C175.86 172.755 175.649 172.545 175.649 172.285V164.836C175.649 164.576 175.86 164.366 176.12 164.366C176.38 164.366 176.59 164.576 176.59 164.836V172.285C176.59 172.545 176.38 172.755 176.12 172.755Z" fill="#473632"/>
<path d="M197.245 185.693C197.245 185.693 187.787 197.163 176.119 197.163C164.452 197.163 154.994 185.693 154.994 185.693C154.994 185.693 164.452 174.223 176.119 174.223C187.787 174.223 197.245 185.693 197.245 185.693Z" fill="#FFCA7A"/>
<path d="M166.003 175.76C165.835 175.76 165.673 175.67 165.588 175.512L161.356 167.62C161.234 167.391 161.32 167.106 161.549 166.983C161.777 166.86 162.063 166.947 162.185 167.175L166.417 175.068C166.539 175.297 166.453 175.582 166.225 175.704C166.154 175.742 166.078 175.76 166.003 175.76Z" fill="#473632"/>
<path d="M186.208 175.76C186.133 175.76 186.056 175.742 185.986 175.704C185.758 175.582 185.672 175.297 185.794 175.068L190.026 167.175C190.148 166.947 190.434 166.86 190.662 166.983C190.891 167.106 190.977 167.391 190.854 167.62L186.623 175.512C186.538 175.67 186.376 175.76 186.208 175.76Z" fill="#473632"/>
<path d="M158.368 180.636C158.242 180.636 158.118 180.586 158.024 180.487L151.278 173.289C151.101 173.1 151.111 172.802 151.3 172.625C151.49 172.446 151.787 172.457 151.965 172.647L158.711 179.844C158.888 180.034 158.879 180.331 158.689 180.509C158.599 180.594 158.483 180.636 158.368 180.636Z" fill="#473632"/>
<path d="M193.133 179.953C193.017 179.953 192.902 179.911 192.811 179.826C192.621 179.648 192.612 179.351 192.789 179.162L199.535 171.964C199.714 171.774 200.01 171.765 200.2 171.942C200.389 172.12 200.399 172.417 200.222 172.607L193.475 179.804C193.383 179.903 193.258 179.953 193.133 179.953Z" fill="#473632"/>
<path d="M176.12 203.02C175.86 203.02 175.649 202.809 175.649 202.549V198.502C175.649 198.242 175.86 198.032 176.12 198.032C176.38 198.032 176.59 198.242 176.59 198.502V202.549C176.59 202.809 176.38 203.02 176.12 203.02Z" fill="#473632"/>
<path d="M161.771 200.996C161.707 200.996 161.641 200.983 161.579 200.955C161.342 200.849 161.236 200.571 161.342 200.333L163.458 195.611C163.565 195.374 163.843 195.269 164.08 195.374C164.317 195.48 164.423 195.758 164.317 195.996L162.201 200.718C162.122 200.892 161.951 200.996 161.771 200.996Z" fill="#473632"/>
<path d="M190.441 200.996C190.261 200.996 190.09 200.893 190.011 200.718L187.895 195.996C187.789 195.758 187.895 195.48 188.132 195.374C188.368 195.269 188.647 195.374 188.753 195.611L190.869 200.333C190.976 200.571 190.869 200.849 190.632 200.955C190.57 200.982 190.504 200.996 190.441 200.996Z" fill="#473632"/>
<path d="M176.12 192.933C180.504 192.933 184.059 189.378 184.059 184.994C184.059 180.609 180.504 177.055 176.12 177.055C171.735 177.055 168.181 180.609 168.181 184.994C168.181 189.378 171.735 192.933 176.12 192.933Z" fill="#5D9DC1"/>
<path d="M176.12 188.547C178.082 188.547 179.673 186.956 179.673 184.994C179.673 183.031 178.082 181.44 176.12 181.44C174.157 181.44 172.566 183.031 172.566 184.994C172.566 186.956 174.157 188.547 176.12 188.547Z" fill="#473632"/>
<path d="M178.739 188.952C179.697 188.952 180.474 188.175 180.474 187.216C180.474 186.258 179.697 185.481 178.739 185.481C177.781 185.481 177.004 186.258 177.004 187.216C177.004 188.175 177.781 188.952 178.739 188.952Z" fill="white"/>
<path d="M104.077 69.4384H44.5117V211.412H104.077V69.4384Z" fill="#8D8D8D"/>
<path d="M134.404 69.4384H75.0205V211.412H134.404V69.4384Z" fill="#C9C9C8"/>
<path d="M131.446 76.1754H78.292V98.2904H131.446V76.1754Z" fill="white"/>
<path d="M84.1678 78.309H81.8398V96.156H84.1678V78.309Z" fill="#C5614A"/>
<path d="M87.95 78.309H85.6221V96.1561H87.95V78.309Z" fill="#C5614A"/>
<path d="M103.4 81.8993H89.96V78.4638H103.4V81.8993ZM90.3059 81.5534H103.055V78.8092H90.3059V81.5534Z" fill="#473632"/>
<path d="M103.4 86.6002H89.96V83.1647H103.4V86.6002ZM90.3059 86.2543H103.055V83.5102H90.3059V86.2543Z" fill="#473632"/>
<path d="M103.4 91.301H89.96V87.8655H103.4V91.301ZM90.3059 90.9551H103.055V88.211H90.3059V90.9551Z" fill="#473632"/>
<path d="M103.4 96.002H89.96V92.5665H103.4V96.002ZM90.3059 95.656H103.055V92.9119H90.3059V95.656Z" fill="#473632"/>
<path d="M127.898 78.6362H113.058V95.8289H127.898V78.6362Z" fill="#F1E4D0"/>
<path d="M125.239 83.3371H115.718C114.952 83.3371 114.331 82.7166 114.331 81.9504C114.331 81.1847 114.952 80.5637 115.718 80.5637H125.239C126.005 80.5637 126.626 81.1842 126.626 81.9504C126.626 82.7166 126.005 83.3371 125.239 83.3371Z" fill="#473632"/>
<path d="M125.255 82.2296H115.701C115.547 82.2296 115.422 82.1046 115.422 81.9509C115.422 81.7972 115.547 81.6722 115.701 81.6722H125.255C125.41 81.6722 125.535 81.7972 125.535 81.9509C125.535 82.1046 125.409 82.2296 125.255 82.2296Z" fill="#EAE2D3"/>
<path d="M125.239 88.619H115.718C114.952 88.619 114.331 87.9985 114.331 87.2323C114.331 86.4666 114.952 85.8455 115.718 85.8455H125.239C126.005 85.8455 126.626 86.4661 126.626 87.2323C126.626 87.9985 126.005 88.619 125.239 88.619Z" fill="#473632"/>
<path d="M125.255 87.5115H115.701C115.547 87.5115 115.422 87.3866 115.422 87.2328C115.422 87.0791 115.547 86.9542 115.701 86.9542H125.255C125.41 86.9542 125.535 87.0791 125.535 87.2328C125.535 87.3866 125.409 87.5115 125.255 87.5115Z" fill="#EAE2D3"/>
<path d="M125.239 93.9009H115.718C114.952 93.9009 114.331 93.2804 114.331 92.5142C114.331 91.7485 114.952 91.1274 115.718 91.1274H125.239C126.005 91.1274 126.626 91.748 126.626 92.5142C126.626 93.2804 126.005 93.9009 125.239 93.9009Z" fill="#473632"/>
<path d="M125.255 92.7934H115.701C115.547 92.7934 115.422 92.6684 115.422 92.5147C115.422 92.3609 115.547 92.236 115.701 92.236H125.255C125.41 92.236 125.535 92.3609 125.535 92.5147C125.535 92.6684 125.409 92.7934 125.255 92.7934Z" fill="#EAE2D3"/>
<path d="M106.05 86.4631C106.422 86.4631 106.723 86.1617 106.723 85.79C106.723 85.4182 106.422 85.1168 106.05 85.1168C105.678 85.1168 105.377 85.4182 105.377 85.79C105.377 86.1617 105.678 86.4631 106.05 86.4631Z" fill="#00AC64"/>
<path d="M108.233 86.4632C108.604 86.4632 108.906 86.1618 108.906 85.79C108.906 85.4183 108.604 85.1169 108.233 85.1169C107.861 85.1169 107.56 85.4183 107.56 85.79C107.56 86.1618 107.861 86.4632 108.233 86.4632Z" fill="#F84558"/>
<path d="M110.415 86.4632C110.787 86.4632 111.088 86.1618 111.088 85.79C111.088 85.4183 110.787 85.1169 110.415 85.1169C110.044 85.1169 109.742 85.4183 109.742 85.79C109.742 86.1618 110.044 86.4632 110.415 86.4632Z" fill="#FFCA7A"/>
<path d="M106.05 88.5003C106.422 88.5003 106.723 88.1989 106.723 87.8271C106.723 87.4554 106.422 87.154 106.05 87.154C105.678 87.154 105.377 87.4554 105.377 87.8271C105.377 88.1989 105.678 88.5003 106.05 88.5003Z" fill="#FFCA7A"/>
<path d="M108.233 88.5003C108.604 88.5003 108.906 88.199 108.906 87.8272C108.906 87.4554 108.604 87.1541 108.233 87.1541C107.861 87.1541 107.56 87.4554 107.56 87.8272C107.56 88.199 107.861 88.5003 108.233 88.5003Z" fill="#00AC64"/>
<path d="M110.415 88.5003C110.787 88.5003 111.088 88.199 111.088 87.8272C111.088 87.4554 110.787 87.1541 110.415 87.1541C110.044 87.1541 109.742 87.4554 109.742 87.8272C109.742 88.199 110.044 88.5003 110.415 88.5003Z" fill="#F84558"/>
<path d="M106.05 79.7525C106.422 79.7525 106.723 79.4511 106.723 79.0793C106.723 78.7076 106.422 78.4062 106.05 78.4062C105.678 78.4062 105.377 78.7076 105.377 79.0793C105.377 79.4511 105.678 79.7525 106.05 79.7525Z" fill="#00AC64"/>
<path d="M108.233 79.7524C108.604 79.7524 108.906 79.451 108.906 79.0793C108.906 78.7075 108.604 78.4061 108.233 78.4061C107.861 78.4061 107.56 78.7075 107.56 79.0793C107.56 79.451 107.861 79.7524 108.233 79.7524Z" fill="#F84558"/>
<path d="M110.415 79.7524C110.787 79.7524 111.088 79.451 111.088 79.0793C111.088 78.7075 110.787 78.4061 110.415 78.4061C110.044 78.4061 109.742 78.7075 109.742 79.0793C109.742 79.451 110.044 79.7524 110.415 79.7524Z" fill="#FFCA7A"/>
<path d="M106.05 81.789C106.422 81.789 106.723 81.4876 106.723 81.1158C106.723 80.7441 106.422 80.4427 106.05 80.4427C105.678 80.4427 105.377 80.7441 105.377 81.1158C105.377 81.4876 105.678 81.789 106.05 81.789Z" fill="#FFCA7A"/>
<path d="M108.233 81.789C108.604 81.789 108.906 81.4876 108.906 81.1158C108.906 80.7441 108.604 80.4427 108.233 80.4427C107.861 80.4427 107.56 80.7441 107.56 81.1158C107.56 81.4876 107.861 81.789 108.233 81.789Z" fill="#FFCA7A"/>
<path d="M110.415 81.789C110.787 81.789 111.088 81.4876 111.088 81.1158C111.088 80.7441 110.787 80.4427 110.415 80.4427C110.044 80.4427 109.742 80.7441 109.742 81.1158C109.742 81.4876 110.044 81.789 110.415 81.789Z" fill="#00AC64"/>
<path d="M106.05 93.1742C106.422 93.1742 106.723 92.8728 106.723 92.5011C106.723 92.1293 106.422 91.8279 106.05 91.8279C105.678 91.8279 105.377 92.1293 105.377 92.5011C105.377 92.8728 105.678 93.1742 106.05 93.1742Z" fill="#FFCA7A"/>
<path d="M108.233 93.1742C108.604 93.1742 108.906 92.8728 108.906 92.5011C108.906 92.1293 108.604 91.8279 108.233 91.8279C107.861 91.8279 107.56 92.1293 107.56 92.5011C107.56 92.8728 107.861 93.1742 108.233 93.1742Z" fill="#00AC64"/>
<path d="M110.415 93.1742C110.787 93.1742 111.088 92.8728 111.088 92.5011C111.088 92.1293 110.787 91.8279 110.415 91.8279C110.044 91.8279 109.742 92.1293 109.742 92.5011C109.742 92.8728 110.044 93.1742 110.415 93.1742Z" fill="#FFCA7A"/>
<path d="M106.05 95.2113C106.422 95.2113 106.723 94.91 106.723 94.5382C106.723 94.1664 106.422 93.8651 106.05 93.8651C105.678 93.8651 105.377 94.1664 105.377 94.5382C105.377 94.91 105.678 95.2113 106.05 95.2113Z" fill="#00AC64"/>
<path d="M108.233 95.2113C108.604 95.2113 108.906 94.91 108.906 94.5382C108.906 94.1664 108.604 93.8651 108.233 93.8651C107.861 93.8651 107.56 94.1664 107.56 94.5382C107.56 94.91 107.861 95.2113 108.233 95.2113Z" fill="#F84558"/>
<path d="M110.415 95.2113C110.787 95.2113 111.088 94.91 111.088 94.5382C111.088 94.1664 110.787 93.8651 110.415 93.8651C110.044 93.8651 109.742 94.1664 109.742 94.5382C109.742 94.91 110.044 95.2113 110.415 95.2113Z" fill="#FFCA7A"/>
<path d="M131.446 102.326H78.292V124.441H131.446V102.326Z" fill="white"/>
<path d="M84.1678 104.459H81.8398V122.306H84.1678V104.459Z" fill="#C5614A"/>
<path d="M87.95 104.459H85.6221V122.306H87.95V104.459Z" fill="#C5614A"/>
<path d="M103.4 108.05H89.96V104.614H103.4V108.05ZM90.3059 107.704H103.055V104.96H90.3059V107.704Z" fill="#473632"/>
<path d="M103.4 112.751H89.96V109.315H103.4V112.751ZM90.3059 112.405H103.055V109.661H90.3059V112.405Z" fill="#473632"/>
<path d="M103.4 117.451H89.96V114.016H103.4V117.451ZM90.3059 117.105H103.055V114.361H90.3059V117.105Z" fill="#473632"/>
<path d="M103.4 122.152H89.96V118.717H103.4V122.152ZM90.3059 121.806H103.055V119.062H90.3059V121.806Z" fill="#473632"/>
<path d="M127.898 104.787H113.058V121.98H127.898V104.787Z" fill="#F1E4D0"/>
<path d="M125.239 109.488H115.718C114.952 109.488 114.331 108.867 114.331 108.101C114.331 107.336 114.952 106.715 115.718 106.715H125.239C126.005 106.715 126.626 107.335 126.626 108.101C126.626 108.867 126.005 109.488 125.239 109.488Z" fill="#473632"/>
<path d="M125.255 108.38H115.701C115.547 108.38 115.422 108.256 115.422 108.101C115.422 107.947 115.547 107.822 115.701 107.822H125.255C125.41 107.822 125.535 107.947 125.535 108.101C125.535 108.256 125.409 108.38 125.255 108.38Z" fill="#EAE2D3"/>
<path d="M125.239 114.77H115.718C114.952 114.77 114.331 114.149 114.331 113.383C114.331 112.618 114.952 111.996 115.718 111.996H125.239C126.005 111.996 126.626 112.617 126.626 113.383C126.626 114.149 126.005 114.77 125.239 114.77Z" fill="#473632"/>
<path d="M125.255 113.662H115.701C115.547 113.662 115.422 113.538 115.422 113.383C115.422 113.229 115.547 113.104 115.701 113.104H125.255C125.41 113.104 125.535 113.229 125.535 113.383C125.535 113.538 125.409 113.662 125.255 113.662Z" fill="#EAE2D3"/>
<path d="M125.239 120.052H115.718C114.952 120.052 114.331 119.431 114.331 118.665C114.331 117.9 114.952 117.279 115.718 117.279H125.239C126.005 117.279 126.626 117.899 126.626 118.665C126.626 119.431 126.005 120.052 125.239 120.052Z" fill="#473632"/>
<path d="M125.255 118.944H115.701C115.547 118.944 115.422 118.819 115.422 118.665C115.422 118.511 115.547 118.386 115.701 118.386H125.255C125.41 118.386 125.535 118.511 125.535 118.665C125.535 118.819 125.409 118.944 125.255 118.944Z" fill="#EAE2D3"/>
<path d="M106.05 112.614C106.422 112.614 106.723 112.313 106.723 111.941C106.723 111.569 106.422 111.268 106.05 111.268C105.678 111.268 105.377 111.569 105.377 111.941C105.377 112.313 105.678 112.614 106.05 112.614Z" fill="#00AC64"/>
<path d="M108.233 112.614C108.604 112.614 108.906 112.313 108.906 111.941C108.906 111.569 108.604 111.268 108.233 111.268C107.861 111.268 107.56 111.569 107.56 111.941C107.56 112.313 107.861 112.614 108.233 112.614Z" fill="#F84558"/>
<path d="M110.415 112.614C110.787 112.614 111.088 112.313 111.088 111.941C111.088 111.569 110.787 111.268 110.415 111.268C110.044 111.268 109.742 111.569 109.742 111.941C109.742 112.313 110.044 112.614 110.415 112.614Z" fill="#FFCA7A"/>
<path d="M106.05 114.651C106.422 114.651 106.723 114.349 106.723 113.977C106.723 113.606 106.422 113.304 106.05 113.304C105.678 113.304 105.377 113.606 105.377 113.977C105.377 114.349 105.678 114.651 106.05 114.651Z" fill="#FFCA7A"/>
<path d="M108.233 114.651C108.604 114.651 108.906 114.349 108.906 113.977C108.906 113.606 108.604 113.304 108.233 113.304C107.861 113.304 107.56 113.606 107.56 113.977C107.56 114.349 107.861 114.651 108.233 114.651Z" fill="#00AC64"/>
<path d="M110.415 114.651C110.787 114.651 111.088 114.349 111.088 113.977C111.088 113.606 110.787 113.304 110.415 113.304C110.044 113.304 109.742 113.606 109.742 113.977C109.742 114.349 110.044 114.651 110.415 114.651Z" fill="#F84558"/>
<path d="M106.05 105.903C106.422 105.903 106.723 105.601 106.723 105.23C106.723 104.858 106.422 104.556 106.05 104.556C105.678 104.556 105.377 104.858 105.377 105.23C105.377 105.601 105.678 105.903 106.05 105.903Z" fill="#00AC64"/>
<path d="M108.233 105.903C108.604 105.903 108.906 105.601 108.906 105.23C108.906 104.858 108.604 104.557 108.233 104.557C107.861 104.557 107.56 104.858 107.56 105.23C107.56 105.601 107.861 105.903 108.233 105.903Z" fill="#F84558"/>
<path d="M110.415 105.903C110.787 105.903 111.088 105.601 111.088 105.23C111.088 104.858 110.787 104.557 110.415 104.557C110.044 104.557 109.742 104.858 109.742 105.23C109.742 105.601 110.044 105.903 110.415 105.903Z" fill="#FFCA7A"/>
<path d="M106.05 107.94C106.422 107.94 106.723 107.639 106.723 107.267C106.723 106.895 106.422 106.594 106.05 106.594C105.678 106.594 105.377 106.895 105.377 107.267C105.377 107.639 105.678 107.94 106.05 107.94Z" fill="#FFCA7A"/>
<path d="M108.233 107.94C108.604 107.94 108.906 107.639 108.906 107.267C108.906 106.895 108.604 106.594 108.233 106.594C107.861 106.594 107.56 106.895 107.56 107.267C107.56 107.639 107.861 107.94 108.233 107.94Z" fill="#FFCA7A"/>
<path d="M110.415 107.94C110.787 107.94 111.088 107.639 111.088 107.267C111.088 106.895 110.787 106.594 110.415 106.594C110.044 106.594 109.742 106.895 109.742 107.267C109.742 107.639 110.044 107.94 110.415 107.94Z" fill="#00AC64"/>
<path d="M106.05 119.325C106.422 119.325 106.723 119.024 106.723 118.652C106.723 118.28 106.422 117.979 106.05 117.979C105.678 117.979 105.377 118.28 105.377 118.652C105.377 119.024 105.678 119.325 106.05 119.325Z" fill="#FFCA7A"/>
<path d="M108.233 119.325C108.604 119.325 108.906 119.024 108.906 118.652C108.906 118.28 108.604 117.979 108.233 117.979C107.861 117.979 107.56 118.28 107.56 118.652C107.56 119.024 107.861 119.325 108.233 119.325Z" fill="#00AC64"/>
<path d="M110.415 119.325C110.787 119.325 111.088 119.024 111.088 118.652C111.088 118.28 110.787 117.979 110.415 117.979C110.044 117.979 109.742 118.28 109.742 118.652C109.742 119.024 110.044 119.325 110.415 119.325Z" fill="#FFCA7A"/>
<path d="M106.05 121.362C106.422 121.362 106.723 121.06 106.723 120.689C106.723 120.317 106.422 120.016 106.05 120.016C105.678 120.016 105.377 120.317 105.377 120.689C105.377 121.06 105.678 121.362 106.05 121.362Z" fill="#00AC64"/>
<path d="M108.233 121.362C108.604 121.362 108.906 121.06 108.906 120.689C108.906 120.317 108.604 120.016 108.233 120.016C107.861 120.016 107.56 120.317 107.56 120.689C107.56 121.06 107.861 121.362 108.233 121.362Z" fill="#F84558"/>
<path d="M110.415 121.362C110.787 121.362 111.088 121.06 111.088 120.689C111.088 120.317 110.787 120.016 110.415 120.016C110.044 120.016 109.742 120.317 109.742 120.689C109.742 121.06 110.044 121.362 110.415 121.362Z" fill="#FFCA7A"/>
<path d="M131.446 128.476H78.292V150.591H131.446V128.476Z" fill="white"/>
<path d="M84.1678 130.61H81.8398V148.457H84.1678V130.61Z" fill="#C5614A"/>
<path d="M87.95 130.61H85.6221V148.457H87.95V130.61Z" fill="#C5614A"/>
<path d="M103.4 134.2H89.96V130.764H103.4V134.2ZM90.3059 133.854H103.055V131.11H90.3059V133.854Z" fill="#473632"/>
<path d="M103.4 138.901H89.96V135.465H103.4V138.901ZM90.3059 138.555H103.055V135.811H90.3059V138.555Z" fill="#473632"/>
<path d="M103.4 143.602H89.96V140.167H103.4V143.602ZM90.3059 143.256H103.055V140.512H90.3059V143.256Z" fill="#473632"/>
<path d="M103.4 148.303H89.96V144.867H103.4V148.303ZM90.3059 147.957H103.055V145.213H90.3059V147.957Z" fill="#473632"/>
<path d="M127.898 130.937H113.058V148.13H127.898V130.937Z" fill="#F1E4D0"/>
<path d="M125.239 135.638H115.718C114.952 135.638 114.331 135.018 114.331 134.251C114.331 133.486 114.952 132.865 115.718 132.865H125.239C126.005 132.865 126.626 133.485 126.626 134.251C126.626 135.018 126.005 135.638 125.239 135.638Z" fill="#473632"/>
<path d="M125.255 134.531H115.701C115.547 134.531 115.422 134.406 115.422 134.252C115.422 134.098 115.547 133.973 115.701 133.973H125.255C125.41 133.973 125.535 134.098 125.535 134.252C125.535 134.406 125.409 134.531 125.255 134.531Z" fill="#EAE2D3"/>
<path d="M125.239 140.92H115.718C114.952 140.92 114.331 140.299 114.331 139.533C114.331 138.768 114.952 138.147 115.718 138.147H125.239C126.005 138.147 126.626 138.767 126.626 139.533C126.626 140.299 126.005 140.92 125.239 140.92Z" fill="#473632"/>
<path d="M125.255 139.812H115.701C115.547 139.812 115.422 139.688 115.422 139.533C115.422 139.379 115.547 139.254 115.701 139.254H125.255C125.41 139.254 125.535 139.379 125.535 139.533C125.535 139.688 125.409 139.812 125.255 139.812Z" fill="#EAE2D3"/>
<path d="M125.239 146.202H115.718C114.952 146.202 114.331 145.581 114.331 144.815C114.331 144.05 114.952 143.429 115.718 143.429H125.239C126.005 143.429 126.626 144.049 126.626 144.815C126.626 145.581 126.005 146.202 125.239 146.202Z" fill="#473632"/>
<path d="M125.255 145.094H115.701C115.547 145.094 115.422 144.969 115.422 144.815C115.422 144.661 115.547 144.536 115.701 144.536H125.255C125.41 144.536 125.535 144.661 125.535 144.815C125.535 144.969 125.409 145.094 125.255 145.094Z" fill="#EAE2D3"/>
<path d="M106.05 138.764C106.422 138.764 106.723 138.463 106.723 138.091C106.723 137.719 106.422 137.418 106.05 137.418C105.678 137.418 105.377 137.719 105.377 138.091C105.377 138.463 105.678 138.764 106.05 138.764Z" fill="#00AC64"/>
<path d="M108.233 138.764C108.604 138.764 108.906 138.463 108.906 138.091C108.906 137.719 108.604 137.418 108.233 137.418C107.861 137.418 107.56 137.719 107.56 138.091C107.56 138.463 107.861 138.764 108.233 138.764Z" fill="#F84558"/>
<path d="M110.415 138.764C110.787 138.764 111.088 138.463 111.088 138.091C111.088 137.719 110.787 137.418 110.415 137.418C110.044 137.418 109.742 137.719 109.742 138.091C109.742 138.463 110.044 138.764 110.415 138.764Z" fill="#FFCA7A"/>
<path d="M106.05 140.801C106.422 140.801 106.723 140.5 106.723 140.128C106.723 139.756 106.422 139.455 106.05 139.455C105.678 139.455 105.377 139.756 105.377 140.128C105.377 140.5 105.678 140.801 106.05 140.801Z" fill="#FFCA7A"/>
<path d="M108.233 140.801C108.604 140.801 108.906 140.5 108.906 140.128C108.906 139.756 108.604 139.455 108.233 139.455C107.861 139.455 107.56 139.756 107.56 140.128C107.56 140.5 107.861 140.801 108.233 140.801Z" fill="#00AC64"/>
<path d="M110.415 140.801C110.787 140.801 111.088 140.5 111.088 140.128C111.088 139.756 110.787 139.455 110.415 139.455C110.044 139.455 109.742 139.756 109.742 140.128C109.742 140.5 110.044 140.801 110.415 140.801Z" fill="#F84558"/>
<path d="M106.05 132.053C106.422 132.053 106.723 131.752 106.723 131.38C106.723 131.008 106.422 130.707 106.05 130.707C105.678 130.707 105.377 131.008 105.377 131.38C105.377 131.752 105.678 132.053 106.05 132.053Z" fill="#00AC64"/>
<path d="M108.233 132.053C108.604 132.053 108.906 131.752 108.906 131.38C108.906 131.008 108.604 130.707 108.233 130.707C107.861 130.707 107.56 131.008 107.56 131.38C107.56 131.752 107.861 132.053 108.233 132.053Z" fill="#F84558"/>
<path d="M110.415 132.053C110.787 132.053 111.088 131.752 111.088 131.38C111.088 131.008 110.787 130.707 110.415 130.707C110.044 130.707 109.742 131.008 109.742 131.38C109.742 131.752 110.044 132.053 110.415 132.053Z" fill="#FFCA7A"/>
<path d="M106.05 134.09C106.422 134.09 106.723 133.789 106.723 133.417C106.723 133.045 106.422 132.744 106.05 132.744C105.678 132.744 105.377 133.045 105.377 133.417C105.377 133.789 105.678 134.09 106.05 134.09Z" fill="#FFCA7A"/>
<path d="M108.233 134.09C108.604 134.09 108.906 133.789 108.906 133.417C108.906 133.045 108.604 132.744 108.233 132.744C107.861 132.744 107.56 133.045 107.56 133.417C107.56 133.789 107.861 134.09 108.233 134.09Z" fill="#FFCA7A"/>
<path d="M110.415 134.09C110.787 134.09 111.088 133.789 111.088 133.417C111.088 133.045 110.787 132.744 110.415 132.744C110.044 132.744 109.742 133.045 109.742 133.417C109.742 133.789 110.044 134.09 110.415 134.09Z" fill="#00AC64"/>
<path d="M106.05 145.475C106.422 145.475 106.723 145.174 106.723 144.802C106.723 144.43 106.422 144.129 106.05 144.129C105.678 144.129 105.377 144.43 105.377 144.802C105.377 145.174 105.678 145.475 106.05 145.475Z" fill="#FFCA7A"/>
<path d="M108.233 145.475C108.604 145.475 108.906 145.174 108.906 144.802C108.906 144.43 108.604 144.129 108.233 144.129C107.861 144.129 107.56 144.43 107.56 144.802C107.56 145.174 107.861 145.475 108.233 145.475Z" fill="#00AC64"/>
<path d="M110.415 145.475C110.787 145.475 111.088 145.174 111.088 144.802C111.088 144.43 110.787 144.129 110.415 144.129C110.044 144.129 109.742 144.43 109.742 144.802C109.742 145.174 110.044 145.475 110.415 145.475Z" fill="#FFCA7A"/>
<path d="M106.05 147.512C106.422 147.512 106.723 147.211 106.723 146.839C106.723 146.468 106.422 146.166 106.05 146.166C105.678 146.166 105.377 146.468 105.377 146.839C105.377 147.211 105.678 147.512 106.05 147.512Z" fill="#00AC64"/>
<path d="M108.233 147.512C108.604 147.512 108.906 147.211 108.906 146.839C108.906 146.468 108.604 146.166 108.233 146.166C107.861 146.166 107.56 146.468 107.56 146.839C107.56 147.211 107.861 147.512 108.233 147.512Z" fill="#F84558"/>
<path d="M110.415 147.512C110.787 147.512 111.088 147.211 111.088 146.839C111.088 146.468 110.787 146.166 110.415 146.166C110.044 146.166 109.742 146.468 109.742 146.839C109.742 147.211 110.044 147.512 110.415 147.512Z" fill="#FFCA7A"/>
<path d="M131.446 155.221H78.292V177.336H131.446V155.221Z" fill="white"/>
<path d="M84.1678 157.355H81.8398V175.202H84.1678V157.355Z" fill="#C5614A"/>
<path d="M87.95 157.355H85.6221V175.202H87.95V157.355Z" fill="#C5614A"/>
<path d="M103.4 160.945H89.96V157.509H103.4V160.945ZM90.3059 160.599H103.055V157.855H90.3059V160.599Z" fill="#473632"/>
<path d="M103.4 165.646H89.96V162.21H103.4V165.646ZM90.3059 165.3H103.055V162.556H90.3059V165.3Z" fill="#473632"/>
<path d="M103.4 170.347H89.96V166.911H103.4V170.347ZM90.3059 170.001H103.055V167.256H90.3059V170.001Z" fill="#473632"/>
<path d="M103.4 175.048H89.96V171.612H103.4V175.048ZM90.3059 174.702H103.055V171.958H90.3059V174.702Z" fill="#473632"/>
<path d="M127.898 157.682H113.058V174.875H127.898V157.682Z" fill="#F1E4D0"/>
<path d="M125.239 162.383H115.718C114.952 162.383 114.331 161.763 114.331 160.996C114.331 160.231 114.952 159.61 115.718 159.61H125.239C126.005 159.61 126.626 160.23 126.626 160.996C126.626 161.763 126.005 162.383 125.239 162.383Z" fill="#473632"/>
<path d="M125.255 161.276H115.701C115.547 161.276 115.422 161.151 115.422 160.997C115.422 160.842 115.547 160.717 115.701 160.717H125.255C125.41 160.717 125.535 160.842 125.535 160.997C125.535 161.151 125.409 161.276 125.255 161.276Z" fill="#EAE2D3"/>
<path d="M125.239 167.665H115.718C114.952 167.665 114.331 167.045 114.331 166.278C114.331 165.513 114.952 164.892 115.718 164.892H125.239C126.005 164.892 126.626 165.512 126.626 166.278C126.626 167.044 126.005 167.665 125.239 167.665Z" fill="#473632"/>
<path d="M125.255 166.558H115.701C115.547 166.558 115.422 166.433 115.422 166.278C115.422 166.124 115.547 165.999 115.701 165.999H125.255C125.41 165.999 125.535 166.124 125.535 166.278C125.535 166.433 125.409 166.558 125.255 166.558Z" fill="#EAE2D3"/>
<path d="M125.239 172.947H115.718C114.952 172.947 114.331 172.327 114.331 171.56C114.331 170.795 114.952 170.174 115.718 170.174H125.239C126.005 170.174 126.626 170.794 126.626 171.56C126.626 172.326 126.005 172.947 125.239 172.947Z" fill="#473632"/>
<path d="M125.255 171.84H115.701C115.547 171.84 115.422 171.715 115.422 171.56C115.422 171.406 115.547 171.281 115.701 171.281H125.255C125.41 171.281 125.535 171.406 125.535 171.56C125.535 171.715 125.409 171.84 125.255 171.84Z" fill="#EAE2D3"/>
<path d="M106.05 165.509C106.422 165.509 106.723 165.208 106.723 164.836C106.723 164.464 106.422 164.163 106.05 164.163C105.678 164.163 105.377 164.464 105.377 164.836C105.377 165.208 105.678 165.509 106.05 165.509Z" fill="#00AC64"/>
<path d="M108.233 165.509C108.604 165.509 108.906 165.208 108.906 164.836C108.906 164.464 108.604 164.163 108.233 164.163C107.861 164.163 107.56 164.464 107.56 164.836C107.56 165.208 107.861 165.509 108.233 165.509Z" fill="#F84558"/>
<path d="M110.415 165.509C110.787 165.509 111.088 165.208 111.088 164.836C111.088 164.464 110.787 164.163 110.415 164.163C110.044 164.163 109.742 164.464 109.742 164.836C109.742 165.208 110.044 165.509 110.415 165.509Z" fill="#FFCA7A"/>
<path d="M106.05 167.546C106.422 167.546 106.723 167.245 106.723 166.873C106.723 166.502 106.422 166.2 106.05 166.2C105.678 166.2 105.377 166.502 105.377 166.873C105.377 167.245 105.678 167.546 106.05 167.546Z" fill="#FFCA7A"/>
<path d="M108.233 167.546C108.604 167.546 108.906 167.245 108.906 166.873C108.906 166.502 108.604 166.2 108.233 166.2C107.861 166.2 107.56 166.502 107.56 166.873C107.56 167.245 107.861 167.546 108.233 167.546Z" fill="#00AC64"/>
<path d="M110.415 167.546C110.787 167.546 111.088 167.245 111.088 166.873C111.088 166.502 110.787 166.2 110.415 166.2C110.044 166.2 109.742 166.502 109.742 166.873C109.742 167.245 110.044 167.546 110.415 167.546Z" fill="#F84558"/>
<path d="M106.05 158.798C106.422 158.798 106.723 158.497 106.723 158.125C106.723 157.753 106.422 157.452 106.05 157.452C105.678 157.452 105.377 157.753 105.377 158.125C105.377 158.497 105.678 158.798 106.05 158.798Z" fill="#00AC64"/>
<path d="M108.233 158.798C108.604 158.798 108.906 158.497 108.906 158.125C108.906 157.753 108.604 157.452 108.233 157.452C107.861 157.452 107.56 157.753 107.56 158.125C107.56 158.497 107.861 158.798 108.233 158.798Z" fill="#F84558"/>
<path d="M110.415 158.798C110.787 158.798 111.088 158.497 111.088 158.125C111.088 157.753 110.787 157.452 110.415 157.452C110.044 157.452 109.742 157.753 109.742 158.125C109.742 158.497 110.044 158.798 110.415 158.798Z" fill="#FFCA7A"/>
<path d="M106.05 160.835C106.422 160.835 106.723 160.534 106.723 160.162C106.723 159.79 106.422 159.489 106.05 159.489C105.678 159.489 105.377 159.79 105.377 160.162C105.377 160.534 105.678 160.835 106.05 160.835Z" fill="#FFCA7A"/>
<path d="M108.233 160.835C108.604 160.835 108.906 160.534 108.906 160.162C108.906 159.79 108.604 159.489 108.233 159.489C107.861 159.489 107.56 159.79 107.56 160.162C107.56 160.534 107.861 160.835 108.233 160.835Z" fill="#FFCA7A"/>
<path d="M110.415 160.835C110.787 160.835 111.088 160.534 111.088 160.162C111.088 159.79 110.787 159.489 110.415 159.489C110.044 159.489 109.742 159.79 109.742 160.162C109.742 160.534 110.044 160.835 110.415 160.835Z" fill="#00AC64"/>
<path d="M106.05 172.22C106.422 172.22 106.723 171.919 106.723 171.547C106.723 171.175 106.422 170.874 106.05 170.874C105.678 170.874 105.377 171.175 105.377 171.547C105.377 171.919 105.678 172.22 106.05 172.22Z" fill="#FFCA7A"/>
<path d="M108.233 172.22C108.604 172.22 108.906 171.919 108.906 171.547C108.906 171.175 108.604 170.874 108.233 170.874C107.861 170.874 107.56 171.175 107.56 171.547C107.56 171.919 107.861 172.22 108.233 172.22Z" fill="#00AC64"/>
<path d="M110.415 172.22C110.787 172.22 111.088 171.919 111.088 171.547C111.088 171.175 110.787 170.874 110.415 170.874C110.044 170.874 109.742 171.175 109.742 171.547C109.742 171.919 110.044 172.22 110.415 172.22Z" fill="#FFCA7A"/>
<path d="M106.05 174.257C106.422 174.257 106.723 173.956 106.723 173.584C106.723 173.212 106.422 172.911 106.05 172.911C105.678 172.911 105.377 173.212 105.377 173.584C105.377 173.956 105.678 174.257 106.05 174.257Z" fill="#00AC64"/>
<path d="M108.233 174.257C108.604 174.257 108.906 173.956 108.906 173.584C108.906 173.212 108.604 172.911 108.233 172.911C107.861 172.911 107.56 173.212 107.56 173.584C107.56 173.956 107.861 174.257 108.233 174.257Z" fill="#F84558"/>
<path d="M110.415 174.257C110.787 174.257 111.088 173.956 111.088 173.584C111.088 173.212 110.787 172.911 110.415 172.911C110.044 172.911 109.742 173.212 109.742 173.584C109.742 173.956 110.044 174.257 110.415 174.257Z" fill="#FFCA7A"/>
<path d="M131.446 182.56H78.292V204.675H131.446V182.56Z" fill="white"/>
<path d="M84.1678 184.694H81.8398V202.542H84.1678V184.694Z" fill="#C5614A"/>
<path d="M87.95 184.695H85.6221V202.542H87.95V184.695Z" fill="#C5614A"/>
<path d="M103.4 188.284H89.96V184.849H103.4V188.284ZM90.3059 187.938H103.055V185.194H90.3059V187.938Z" fill="#473632"/>
<path d="M103.4 192.986H89.96V189.55H103.4V192.986ZM90.3059 192.64H103.055V189.896H90.3059V192.64Z" fill="#473632"/>
<path d="M103.4 197.687H89.96V194.251H103.4V197.687ZM90.3059 197.341H103.055V194.596H90.3059V197.341Z" fill="#473632"/>
<path d="M103.4 202.387H89.96V198.951H103.4V202.387ZM90.3059 202.041H103.055V199.297H90.3059V202.041Z" fill="#473632"/>
<path d="M127.898 185.022H113.058V202.214H127.898V185.022Z" fill="#F1E4D0"/>
<path d="M125.239 189.723H115.718C114.952 189.723 114.331 189.102 114.331 188.336C114.331 187.57 114.952 186.949 115.718 186.949H125.239C126.005 186.949 126.626 187.57 126.626 188.336C126.626 189.102 126.005 189.723 125.239 189.723Z" fill="#473632"/>
<path d="M125.255 188.615H115.701C115.547 188.615 115.422 188.49 115.422 188.336C115.422 188.182 115.547 188.057 115.701 188.057H125.255C125.41 188.057 125.535 188.182 125.535 188.336C125.535 188.49 125.409 188.615 125.255 188.615Z" fill="#EAE2D3"/>
<path d="M125.239 195.005H115.718C114.952 195.005 114.331 194.384 114.331 193.618C114.331 192.852 114.952 192.231 115.718 192.231H125.239C126.005 192.231 126.626 192.852 126.626 193.618C126.626 194.384 126.005 195.005 125.239 195.005Z" fill="#473632"/>
<path d="M125.255 193.897H115.701C115.547 193.897 115.422 193.772 115.422 193.618C115.422 193.464 115.547 193.339 115.701 193.339H125.255C125.41 193.339 125.535 193.464 125.535 193.618C125.535 193.772 125.409 193.897 125.255 193.897Z" fill="#EAE2D3"/>
<path d="M125.239 200.287H115.718C114.952 200.287 114.331 199.666 114.331 198.9C114.331 198.134 114.952 197.513 115.718 197.513H125.239C126.005 197.513 126.626 198.134 126.626 198.9C126.626 199.666 126.005 200.287 125.239 200.287Z" fill="#473632"/>
<path d="M125.255 199.179H115.701C115.547 199.179 115.422 199.054 115.422 198.9C115.422 198.746 115.547 198.621 115.701 198.621H125.255C125.41 198.621 125.535 198.746 125.535 198.9C125.535 199.054 125.409 199.179 125.255 199.179Z" fill="#EAE2D3"/>
<path d="M106.05 192.849C106.422 192.849 106.723 192.547 106.723 192.175C106.723 191.804 106.422 191.502 106.05 191.502C105.678 191.502 105.377 191.804 105.377 192.175C105.377 192.547 105.678 192.849 106.05 192.849Z" fill="#00AC64"/>
<path d="M108.233 192.848C108.604 192.848 108.906 192.547 108.906 192.175C108.906 191.804 108.604 191.502 108.233 191.502C107.861 191.502 107.56 191.804 107.56 192.175C107.56 192.547 107.861 192.848 108.233 192.848Z" fill="#F84558"/>
<path d="M110.415 192.848C110.787 192.848 111.088 192.547 111.088 192.175C111.088 191.804 110.787 191.502 110.415 191.502C110.044 191.502 109.742 191.804 109.742 192.175C109.742 192.547 110.044 192.848 110.415 192.848Z" fill="#FFCA7A"/>
<path d="M106.05 194.886C106.422 194.886 106.723 194.584 106.723 194.213C106.723 193.841 106.422 193.539 106.05 193.539C105.678 193.539 105.377 193.841 105.377 194.213C105.377 194.584 105.678 194.886 106.05 194.886Z" fill="#FFCA7A"/>
<path d="M108.233 194.886C108.604 194.886 108.906 194.584 108.906 194.213C108.906 193.841 108.604 193.539 108.233 193.539C107.861 193.539 107.56 193.841 107.56 194.213C107.56 194.584 107.861 194.886 108.233 194.886Z" fill="#00AC64"/>
<path d="M110.415 194.886C110.787 194.886 111.088 194.584 111.088 194.213C111.088 193.841 110.787 193.539 110.415 193.539C110.044 193.539 109.742 193.841 109.742 194.213C109.742 194.584 110.044 194.886 110.415 194.886Z" fill="#F84558"/>
<path d="M106.05 186.137C106.422 186.137 106.723 185.836 106.723 185.464C106.723 185.093 106.422 184.791 106.05 184.791C105.678 184.791 105.377 185.093 105.377 185.464C105.377 185.836 105.678 186.137 106.05 186.137Z" fill="#00AC64"/>
<path d="M108.233 186.137C108.604 186.137 108.906 185.836 108.906 185.464C108.906 185.093 108.604 184.791 108.233 184.791C107.861 184.791 107.56 185.093 107.56 185.464C107.56 185.836 107.861 186.137 108.233 186.137Z" fill="#F84558"/>
<path d="M110.415 186.137C110.787 186.137 111.088 185.836 111.088 185.464C111.088 185.093 110.787 184.791 110.415 184.791C110.044 184.791 109.742 185.093 109.742 185.464C109.742 185.836 110.044 186.137 110.415 186.137Z" fill="#FFCA7A"/>
<path d="M106.05 188.175C106.422 188.175 106.723 187.873 106.723 187.501C106.723 187.13 106.422 186.828 106.05 186.828C105.678 186.828 105.377 187.13 105.377 187.501C105.377 187.873 105.678 188.175 106.05 188.175Z" fill="#FFCA7A"/>
<path d="M108.233 188.175C108.604 188.175 108.906 187.873 108.906 187.501C108.906 187.13 108.604 186.828 108.233 186.828C107.861 186.828 107.56 187.13 107.56 187.501C107.56 187.873 107.861 188.175 108.233 188.175Z" fill="#FFCA7A"/>
<path d="M110.415 188.175C110.787 188.175 111.088 187.873 111.088 187.501C111.088 187.13 110.787 186.828 110.415 186.828C110.044 186.828 109.742 187.13 109.742 187.501C109.742 187.873 110.044 188.175 110.415 188.175Z" fill="#00AC64"/>
<path d="M106.05 199.56C106.422 199.56 106.723 199.258 106.723 198.887C106.723 198.515 106.422 198.214 106.05 198.214C105.678 198.214 105.377 198.515 105.377 198.887C105.377 199.258 105.678 199.56 106.05 199.56Z" fill="#FFCA7A"/>
<path d="M108.233 199.56C108.604 199.56 108.906 199.258 108.906 198.887C108.906 198.515 108.604 198.214 108.233 198.214C107.861 198.214 107.56 198.515 107.56 198.887C107.56 199.258 107.861 199.56 108.233 199.56Z" fill="#00AC64"/>
<path d="M110.415 199.56C110.787 199.56 111.088 199.258 111.088 198.887C111.088 198.515 110.787 198.214 110.415 198.214C110.044 198.214 109.742 198.515 109.742 198.887C109.742 199.258 110.044 199.56 110.415 199.56Z" fill="#FFCA7A"/>
<path d="M106.05 201.596C106.422 201.596 106.723 201.295 106.723 200.923C106.723 200.551 106.422 200.25 106.05 200.25C105.678 200.25 105.377 200.551 105.377 200.923C105.377 201.295 105.678 201.596 106.05 201.596Z" fill="#00AC64"/>
<path d="M108.233 201.596C108.604 201.596 108.906 201.295 108.906 200.923C108.906 200.551 108.604 200.25 108.233 200.25C107.861 200.25 107.56 200.551 107.56 200.923C107.56 201.295 107.861 201.596 108.233 201.596Z" fill="#F84558"/>
<path d="M110.415 201.596C110.787 201.596 111.088 201.295 111.088 200.923C111.088 200.551 110.787 200.25 110.415 200.25C110.044 200.25 109.742 200.551 109.742 200.923C109.742 201.295 110.044 201.596 110.415 201.596Z" fill="#FFCA7A"/>
<path d="M23.1665 210.968C22.6517 211.121 22.1055 211.125 21.5684 211.128C18.7014 211.142 15.8343 211.155 12.9673 211.168C12.7351 211.169 12.4747 211.159 12.3154 210.99C11.9867 210.641 12.412 210.097 12.8247 209.854C14.8866 208.636 17.4785 208.504 19.4544 207.152C20.2914 206.58 20.9994 205.799 21.9346 205.406C23.1868 204.88 24.6944 205.279 25.6598 206.193C26.0442 206.557 26.639 207.171 26.2718 207.672C26.0659 207.953 25.8419 208.109 25.672 208.44C25.497 208.781 25.317 209.117 25.099 209.433C24.6211 210.125 23.9874 210.723 23.1665 210.968Z" fill="#473632"/>
<path d="M38.2101 120.481C34.2709 128.377 30.3317 136.274 26.5411 144.242C24.6284 148.263 22.736 152.357 21.9369 156.737C21.42 159.571 21.3725 162.467 21.3265 165.347C21.1115 178.818 20.8966 192.288 20.6816 205.758C22.1746 205.459 23.9072 205.485 25.427 205.581C28.3077 197.124 30.7894 187.996 32.0269 179.148C32.8614 173.181 33.2564 166.82 30.622 161.401C31.8226 160.824 32.2449 159.064 31.4372 158.005C35.4316 153.137 39.39 147.903 42.2393 142.289C45.0887 136.674 46.7035 130.226 45.557 124.035C45.1812 122.006 44.0489 119.651 41.9864 119.573C40.7787 119.528 38.7502 119.398 38.2101 120.481Z" fill="#C5614A"/>
<path d="M57.1183 115.718C59.9433 126.275 56.5463 137.387 53.1781 147.783C46.3061 168.992 39.3147 190.459 27.358 209.278C25.5429 208.236 22.8903 207.036 21.0752 205.994C30.9017 178.847 41.1758 150.054 40.6468 121.188C44.8945 117.407 51.4363 115.948 57.1183 115.718Z" fill="#EA6F32"/>
<path d="M38.6611 117.297L24.2404 115.752C24.2404 115.752 18.57 118.699 16.1592 113.917L37.9915 112.858L38.6611 117.297Z" fill="#F4AB7A"/>
<path d="M47.0754 56.9358C53.295 54.3055 61.5547 60.1058 60.827 66.9394C60.4856 70.2924 57.8284 74.2114 60.214 77.3171C61.5082 78.9001 63.8214 79.1732 65.4717 80.3804C70.8507 84.7055 65.7908 92.814 59.4559 91.5269C50.8765 89.4792 50.966 81.7565 52.0195 74.6473C50.4522 68.9476 38.6295 62.4919 47.0754 56.9358Z" fill="#3D342F"/>
<path d="M46.6676 60.4979C51.4418 61.8876 53.4961 68.1765 50.2053 72.0039C48.0483 68.8102 45.8913 65.617 43.7343 62.4232C42.1443 60.6627 45.3972 59.8535 46.6676 60.4979Z" fill="#F1E4D0"/>
<path d="M35.6549 71.5862C31.6146 71.5468 28.6039 65.9047 32.5891 63.595C36.895 63.1343 43.0069 58.529 46.3806 62.9573C51.4719 62.9613 51.5341 69.1668 50.027 72.755C49.5693 74.3086 48.9002 76.0853 47.3517 76.5607C43.8874 77.2804 40.9814 71.6545 35.6549 71.5862Z" fill="#3D342F"/>
<path d="M35.1074 72.6943C37.6149 81.5215 47.5426 79.935 46.4846 70.4473C45.2784 61.396 33.0268 63.5818 35.1074 72.6943Z" fill="#F4AB7A"/>
<path d="M46.0765 71.657C44.9755 75.5613 48.4368 74.5559 49.246 72.1091C49.4215 70.8751 48.8551 69.7741 47.9796 69.6492C47.1042 69.5242 46.2525 70.4235 46.0765 71.657Z" fill="#F4AB7A"/>
<path d="M46.2212 74.1325L47.572 80.9205C42.0544 85.6725 43.3622 80.5635 42.7559 76.4129L46.2212 74.1325Z" fill="#F4AB7A"/>
<path d="M45.909 80.5293C41.4499 81.2257 38.6627 85.612 36.5851 89.6184C35.3709 91.96 34.1778 94.3769 33.8233 96.9906C33.4895 99.4515 33.9189 101.944 34.3467 104.391C35.3511 110.135 34.6684 117.172 35.6733 122.916C42.744 123.588 52.5514 122.777 58.5767 119.017C59.5655 111.529 59.9321 101.376 58.7204 93.9203C58.1873 90.6426 57.2163 87.3497 55.208 84.7047C53.1997 82.0596 49.1902 80.017 45.909 80.5293Z" fill="#F1E4D0"/>
<path d="M39.0527 109.739C45.3861 108.654 51.7098 107.518 58.0245 106.329C59.341 106.081 60.8971 105.623 61.2633 104.334C61.5723 103.247 60.842 102.162 60.1522 101.267C56.6024 96.6588 53.0526 92.051 49.5028 87.4432C51.367 85.9897 54.2087 84.6035 56.5452 84.2459C60.9502 89.4525 64.5845 95.6337 66.5735 102.157C67.1627 104.09 67.762 106.496 66.4067 107.994C61.899 112.979 42.7603 112.807 38.8701 111.737C39.0254 110.656 39.4542 110.755 39.0527 109.739Z" fill="#F4AB7A"/>
<path d="M51.2795 81.5533C51.2795 81.5533 58.417 83.5292 62.5018 89.6016C62.5018 89.6016 60.5598 93.0624 53.7288 95.406L49.8315 91.6635C49.8315 91.6635 44.41 86.5854 51.2795 81.5533Z" fill="#F1E4D0"/>
<path d="M49.2783 86.4458C49.2783 86.4458 50.7622 92.2588 53.0491 95.4065C53.0491 95.4065 54.0009 95.3817 55.2101 94.8517L59.3709 100.253L59.4852 105.088C59.4852 105.087 49.3142 96.906 49.2783 86.4458Z" fill="#E0C8A3"/>
<path d="M14.6187 113.917H41.7865L37.161 92.1107H9.99316L14.6187 113.917Z" fill="#8D8D8D"/>
<path d="M13.2866 113.917H40.4545L35.829 92.1107H8.66113L13.2866 113.917Z" fill="#C9C9C8"/>
<path d="M13.2871 113.917H49.8182C49.9588 112.678 49.0682 111.511 47.7811 111.521H13.2871V113.917Z" fill="#C9C9C8"/>
<path d="M22.7128 103.201C22.9808 104.628 24.497 104.328 24.2017 102.907C23.9336 101.479 22.4174 101.779 22.7128 103.201Z" fill="#8D8D8D"/>
<path d="M202.356 161.177H145.252V94.6176C145.252 92.7312 146.781 91.2018 148.668 91.2018H198.94C200.826 91.2018 202.356 92.7312 202.356 94.6176V161.177Z" fill="#C9C9C8"/>
<path d="M202.356 99.1718H145.252V94.6176C145.252 92.7312 146.781 91.2018 148.668 91.2018H198.94C200.826 91.2018 202.356 92.7312 202.356 94.6176V99.1718Z" fill="#8D8D8D"/>
<path d="M152.017 96.8899C152.806 96.8899 153.446 96.25 153.446 95.4607C153.446 94.6713 152.806 94.0314 152.017 94.0314C151.228 94.0314 150.588 94.6713 150.588 95.4607C150.588 96.25 151.228 96.8899 152.017 96.8899Z" fill="white"/>
<path d="M156.21 96.8899C156.999 96.8899 157.639 96.25 157.639 95.4607C157.639 94.6713 156.999 94.0314 156.21 94.0314C155.42 94.0314 154.78 94.6713 154.78 95.4607C154.78 96.25 155.42 96.8899 156.21 96.8899Z" fill="#F84558"/>
<path d="M160.403 96.8899C161.192 96.8899 161.832 96.25 161.832 95.4607C161.832 94.6713 161.192 94.0314 160.403 94.0314C159.614 94.0314 158.974 94.6713 158.974 95.4607C158.974 96.25 159.614 96.8899 160.403 96.8899Z" fill="#FFCA7A"/>
<path d="M197.451 103.796H150.156V132.604H197.451V103.796Z" fill="white"/>
<path d="M150.156 132.604C150.156 132.604 166.615 116.193 176.721 122.779C186.827 129.366 184.563 110.24 197.452 113.043V132.604H150.156Z" fill="#C5614A"/>
<path d="M160.336 118.14C162.852 118.14 164.893 116.1 164.893 113.583C164.893 111.066 162.852 109.026 160.336 109.026C157.819 109.026 155.778 111.066 155.778 113.583C155.778 116.1 157.819 118.14 160.336 118.14Z" fill="#C5614A"/>
<path d="M184.886 136.627H162.721C162.43 136.627 162.194 136.391 162.194 136.1C162.194 135.81 162.43 135.574 162.721 135.574H184.886C185.177 135.574 185.412 135.81 185.412 136.1C185.412 136.391 185.177 136.627 184.886 136.627Z" fill="white"/>
<path d="M197.451 141.212H150.155C149.865 141.212 149.629 140.976 149.629 140.685C149.629 140.395 149.865 140.159 150.155 140.159H197.451C197.741 140.159 197.977 140.395 197.977 140.685C197.977 140.976 197.742 141.212 197.451 141.212Z" fill="white"/>
<path d="M197.451 144.84H150.155C149.865 144.84 149.629 144.604 149.629 144.314C149.629 144.023 149.865 143.787 150.155 143.787H197.451C197.741 143.787 197.977 144.023 197.977 144.314C197.977 144.604 197.742 144.84 197.451 144.84Z" fill="white"/>
<path d="M197.451 148.468H150.155C149.865 148.468 149.629 148.233 149.629 147.942C149.629 147.651 149.865 147.415 150.155 147.415H197.451C197.741 147.415 197.977 147.651 197.977 147.942C197.977 148.233 197.742 148.468 197.451 148.468Z" fill="white"/>
<path d="M197.451 152.097H150.155C149.865 152.097 149.629 151.861 149.629 151.57C149.629 151.28 149.865 151.044 150.155 151.044H197.451C197.741 151.044 197.977 151.28 197.977 151.57C197.977 151.861 197.742 152.097 197.451 152.097Z" fill="white"/>
<path d="M197.451 155.726H150.155C149.865 155.726 149.629 155.49 149.629 155.199C149.629 154.908 149.865 154.673 150.155 154.673H197.451C197.741 154.673 197.977 154.908 197.977 155.199C197.977 155.49 197.742 155.726 197.451 155.726Z" fill="white"/>
<path d="M54.9536 32.2544H51.8201C51.5885 31.3491 51.2496 30.4863 50.8212 29.6781L52.9888 27.5105C53.5907 26.9087 53.5907 25.9326 52.9888 25.3303L50.6058 22.9472C50.004 22.3454 49.0279 22.3454 48.4256 22.9472L46.3571 25.0157C45.5246 24.5266 44.628 24.1377 43.6817 23.8641V20.9824C43.6817 20.1313 42.9914 19.4409 42.1402 19.4409H38.77C37.9188 19.4409 37.2285 20.1313 37.2285 20.9824V23.8398C36.2716 24.1089 35.3643 24.4963 34.5223 24.9848L32.4846 22.9472C31.8828 22.3454 30.9067 22.3454 30.3044 22.9472L27.9213 25.3303C27.3195 25.9321 27.3195 26.9082 27.9213 27.5105L30.0328 29.622C29.5903 30.4458 29.2423 31.3278 29.0056 32.2538H25.9565C25.1054 32.2538 24.415 32.9442 24.415 33.7953V37.1656C24.415 38.0168 25.1054 38.7071 25.9565 38.7071H29.1821C29.4497 39.5557 29.8128 40.3619 30.2558 41.1159L27.9213 43.4504C27.3195 44.0523 27.3195 45.0283 27.9213 45.6307L30.3044 48.0137C30.9062 48.6155 31.8823 48.6155 32.4846 48.0137L34.9182 45.5801C35.6465 45.966 36.4203 46.2765 37.2285 46.5041V49.9785C37.2285 50.8297 37.9188 51.52 38.77 51.52H42.1402C42.9914 51.52 43.6817 50.8297 43.6817 49.9785V46.4798C44.4798 46.2487 45.2439 45.9371 45.9631 45.5513L48.4256 48.0137C49.0274 48.6155 50.0035 48.6155 50.6058 48.0137L52.9888 45.6307C53.5907 45.0288 53.5907 44.0528 52.9888 43.4504L50.6007 41.0623C51.0296 40.3234 51.3821 39.5355 51.6436 38.7071H54.9536C55.8048 38.7071 56.4951 38.0168 56.4951 37.1656V33.7953C56.4951 32.9447 55.8048 32.2544 54.9536 32.2544ZM40.4551 42.9194C36.347 42.9194 33.0167 39.5891 33.0167 35.481C33.0167 31.3728 36.347 28.0425 40.4551 28.0425C44.5632 28.0425 47.8935 31.3728 47.8935 35.481C47.8935 39.5891 44.5632 42.9194 40.4551 42.9194Z" fill="#C9C9C8"/>
<path d="M170.326 34.9671H167.948C167.772 34.2798 167.515 33.6249 167.19 33.0114L168.835 31.3662C169.292 30.9091 169.292 30.1687 168.835 29.7115L167.026 27.9024C166.568 27.4452 165.828 27.4452 165.371 27.9024L163.801 29.4728C163.169 29.1015 162.488 28.8062 161.77 28.5983V26.411C161.77 25.7647 161.246 25.2407 160.6 25.2407H158.042C157.395 25.2407 156.871 25.7647 156.871 26.411V28.5801C156.145 28.7844 155.456 29.0783 154.817 29.449L153.271 27.9024C152.813 27.4452 152.073 27.4452 151.616 27.9024L149.807 29.7115C149.35 30.1687 149.35 30.9091 149.807 31.3662L151.409 32.9689C151.074 33.5945 150.81 34.2636 150.63 34.9666H148.315C147.668 34.9666 147.145 35.4906 147.145 36.1369V38.6949C147.145 39.3413 147.668 39.8652 148.315 39.8652H150.764C150.967 40.5095 151.243 41.1215 151.579 41.694L149.807 43.4661C149.35 43.9233 149.35 44.6637 149.807 45.1209L151.616 46.9299C152.073 47.3871 152.813 47.3871 153.271 46.9299L155.118 45.0824C155.671 45.3752 156.258 45.6114 156.871 45.7839V48.4213C156.871 49.0677 157.395 49.5916 158.042 49.5916H160.6C161.246 49.5916 161.77 49.0677 161.77 48.4213V45.7657C162.376 45.5902 162.956 45.354 163.502 45.0607L165.371 46.9299C165.828 47.3871 166.568 47.3871 167.026 46.9299L168.835 45.1209C169.292 44.6637 169.292 43.9233 168.835 43.4661L167.022 41.653C167.347 41.0921 167.615 40.4943 167.814 39.8652H170.326C170.972 39.8652 171.496 39.3413 171.496 38.6949V36.1369C171.496 35.4911 170.972 34.9671 170.326 34.9671ZM159.321 43.0625C156.203 43.0625 153.675 40.5348 153.675 37.4164C153.675 34.298 156.203 31.7703 159.321 31.7703C162.44 31.7703 164.967 34.298 164.967 37.4164C164.967 40.5348 162.439 43.0625 159.321 43.0625Z" fill="white"/>
<path d="M186.094 71.0374H183.919C183.758 70.4088 183.523 69.81 183.225 69.2486L184.73 67.7441C185.147 67.3263 185.147 66.6486 184.73 66.2304L183.075 64.5756C182.657 64.1579 181.98 64.1579 181.561 64.5756L180.125 66.0119C179.547 65.6726 178.924 65.4025 178.268 65.2123V63.2116C178.268 62.6204 177.789 62.1415 177.198 62.1415H174.858C174.267 62.1415 173.788 62.6204 173.788 63.2116V65.1956C173.124 65.3828 172.493 65.6513 171.909 65.9907L170.494 64.5761C170.076 64.1584 169.399 64.1584 168.981 64.5761L167.326 66.2309C166.908 66.6486 166.908 67.3263 167.326 67.7446L168.792 69.2107C168.485 69.7827 168.243 70.3952 168.079 71.038H165.962C165.371 71.038 164.892 71.5169 164.892 72.1081V74.4482C164.892 75.0394 165.371 75.5183 165.962 75.5183H168.201C168.387 76.1075 168.639 76.6673 168.947 77.1908L167.326 78.8117C166.908 79.2294 166.908 79.9071 167.326 80.3254L168.981 81.9801C169.398 82.3979 170.076 82.3979 170.494 81.9801L172.184 80.2905C172.69 80.5585 173.227 80.774 173.788 80.9323V83.3446C173.788 83.9358 174.267 84.4148 174.858 84.4148H177.198C177.789 84.4148 178.268 83.9358 178.268 83.3446V80.9156C178.822 80.7552 179.353 80.5388 179.852 80.2707L181.561 81.9801C181.979 82.3979 182.657 82.3979 183.075 81.9801L184.73 80.3254C185.147 79.9076 185.147 79.2299 184.73 78.8117L183.071 77.1534C183.369 76.6405 183.614 76.0933 183.796 75.5178H186.094C186.685 75.5178 187.164 75.0389 187.164 74.4477V72.1076C187.164 71.5164 186.685 71.0374 186.094 71.0374ZM176.028 78.442C173.176 78.442 170.864 76.1297 170.864 73.2779C170.864 70.4255 173.176 68.1138 176.028 68.1138C178.88 68.1138 181.192 70.426 181.192 73.2779C181.193 76.1297 178.88 78.442 176.028 78.442Z" fill="#C9C9C8"/>
<path d="M26.0637 129.099H24.2779C24.1459 128.583 23.9527 128.092 23.7089 127.631L24.9439 126.396C25.2868 126.053 25.2868 125.497 24.9439 125.154L23.586 123.796C23.2431 123.453 22.6868 123.453 22.3439 123.796L21.165 124.975C20.6907 124.696 20.1799 124.475 19.6407 124.318V122.676C19.6407 122.191 19.2473 121.798 18.7623 121.798H16.8415C16.3565 121.798 15.963 122.191 15.963 122.676V124.305C15.4178 124.458 14.901 124.678 14.421 124.957L13.2598 123.796C12.9169 123.453 12.3606 123.453 12.0177 123.796L10.6598 125.154C10.3169 125.497 10.3169 126.053 10.6598 126.396L11.863 127.599C11.6111 128.068 11.4129 128.571 11.2773 129.099H9.5396C9.0546 129.099 8.66113 129.493 8.66113 129.978V131.898C8.66113 132.383 9.0546 132.777 9.5396 132.777H11.378C11.5307 133.26 11.7376 133.72 11.9899 134.149L10.6593 135.48C10.3164 135.823 10.3164 136.379 10.6593 136.722L12.0172 138.08C12.3601 138.423 12.9164 138.423 13.2593 138.08L14.6461 136.693C15.0613 136.913 15.5018 137.09 15.9625 137.22V139.2C15.9625 139.685 16.356 140.078 16.841 140.078H18.7618C19.2468 140.078 19.6402 139.685 19.6402 139.2V137.206C20.0949 137.075 20.5303 136.897 20.9405 136.677L22.3434 138.08C22.6863 138.423 23.2426 138.423 23.5855 138.08L24.9434 136.722C25.2863 136.379 25.2863 135.823 24.9434 135.48L23.5825 134.119C23.8268 133.698 24.028 133.249 24.1767 132.777H26.0631C26.5481 132.777 26.9416 132.383 26.9416 131.898V129.978C26.9416 129.492 26.5487 129.099 26.0637 129.099ZM17.8014 135.176C15.4603 135.176 13.5628 133.278 13.5628 130.937C13.5628 128.596 15.4603 126.699 17.8014 126.699C20.1424 126.699 22.04 128.596 22.04 130.937C22.04 133.278 20.1424 135.176 17.8014 135.176Z" fill="#C9C9C8"/>
<path d="M205.893 211.975H0.562888C0.251858 211.975 0 211.723 0 211.412C0 211.101 0.252364 210.849 0.562888 210.849H205.893C206.204 210.849 206.456 211.101 206.456 211.412C206.456 211.723 206.204 211.975 205.893 211.975Z" fill="#3D342F"/>
</svg>
