<svg width="115" height="64" viewBox="0 0 115 64" fill="none" xmlns="http://www.w3.org/2000/svg">
<path d="M85.8787 35.4979C85.8787 35.4979 106.682 35.1329 107.029 39.4089C107.376 43.6849 101.25 46.5089 112.461 47.3499C123.671 48.1919 93.1847 51.6589 76.8767 53.0459C60.5687 54.4329 60.2857 56.4129 55.0537 59.4099C49.8217 62.4069 34.9127 63.5629 22.7777 62.9849C10.6427 62.4069 -6.69331 59.6329 2.66869 54.4329C12.0297 49.2319 14.1097 44.7249 6.1357 44.0319C-1.8383 43.3389 20.5847 41.7209 27.7487 39.4089C34.9127 37.0969 26.6777 34.4809 36.9927 32.7659C47.3077 31.0509 78.9447 32.5109 85.8787 35.4979Z" fill="#C2CB8E"/>
<path d="M69.7568 25.309C69.7568 25.309 76.5178 10.227 76.3438 9.534C76.1708 8.841 73.9168 0.692993 73.9168 0.692993L76.3468 0C76.3468 0 80.8418 8.84101 79.5458 10.575C78.2498 12.309 73.0498 26.524 73.0498 26.524L69.7568 25.309Z" fill="white"/>
<path d="M90.0396 44.7252C86.5886 35.2372 79.4316 20.2242 60.2346 18.3752C41.0376 16.5262 49.7386 28.5362 49.7386 28.5362C49.7386 28.5362 75.0636 32.7062 79.5466 44.7262C79.5466 44.7262 92.1876 50.6322 90.0396 44.7252Z" fill="#738E51"/>
<path d="M20.3443 56.1692C20.3443 56.1692 28.9403 59.2112 32.7293 59.4012C33.2723 59.4282 33.7203 59.4012 34.0333 59.2932C36.4773 58.4242 48.0883 55.4772 49.5683 54.4312C50.1653 54.0102 52.2303 53.5082 54.6743 52.9512C57.6073 52.2862 61.0703 51.5662 63.1883 50.8872C63.6633 50.7242 64.0713 50.5752 64.3973 50.4252C67.3443 49.0402 79.5523 44.7222 79.5523 44.7222C79.5523 44.7222 79.4713 36.9272 73.5773 32.7722C67.6703 28.6032 62.9993 25.3032 57.7983 24.7872C52.5973 24.2712 53.4663 23.7552 51.3753 24.7872C50.1263 25.4252 49.7863 25.9142 49.7183 26.2262C49.6773 26.4162 49.7453 26.5252 49.7453 26.5252C49.7453 26.5252 49.2293 27.8012 48.4553 29.2142C47.6403 30.6942 46.5543 32.3242 45.4813 32.7722C43.4033 33.6272 39.2483 37.1042 37.5103 38.6522C37.4563 38.7062 37.3883 38.7612 37.3333 38.8152C35.9613 40.0922 34.4543 41.8572 32.4853 42.7262C32.4853 42.7262 32.4853 42.7262 32.4713 42.7262C32.0363 42.9162 31.5883 43.0652 31.0993 43.1612C28.5193 43.6502 22.9513 46.4202 20.7793 47.2212C20.6163 47.2752 20.4673 47.3162 20.3443 47.3572C18.6203 47.8452 20.3443 56.1692 20.3443 56.1692Z" fill="#D9D9D9"/>
<path d="M20.3443 56.1692C20.3443 56.1692 28.9403 59.2112 32.7293 59.4012C35.2823 55.7752 25.9803 45.8762 20.7793 47.2202C20.6303 47.2472 20.4803 47.3012 20.3443 47.3562C18.6203 47.8452 20.3443 56.1692 20.3443 56.1692Z" fill="white"/>
<path d="M49.7451 26.5251C49.7451 26.5251 49.2291 27.8011 48.4551 29.2141C50.2471 28.8201 51.2791 28.8201 52.4741 29.3501C54.7961 30.3961 59.7531 31.2101 61.3821 32.7721C62.9981 34.3201 66.5831 39.7521 66.5831 36.4111C66.5831 33.0571 61.8441 28.5491 57.9061 27.8561C55.8421 27.4891 52.9091 26.6751 49.7181 26.2261C49.6771 26.4161 49.7451 26.5251 49.7451 26.5251Z" fill="white"/>
<path d="M32.4854 42.7251C32.9064 42.8201 33.1644 42.8741 33.1644 42.8741C37.6864 42.1811 47.3413 48.7681 47.7764 48.1971C48.1973 47.6131 48.8904 39.7501 46.5814 38.9491C44.2724 38.1341 38.9904 37.2381 37.5104 38.6501C37.4564 38.7041 37.3884 38.7591 37.3334 38.8131C35.9614 40.0911 34.4544 41.8561 32.4854 42.7251Z" fill="white"/>
<path d="M54.6748 52.9509C57.6078 52.2859 61.0708 51.5659 63.1888 50.8869C63.7728 46.7179 57.3898 40.7429 56.5218 41.8019C55.8558 42.6029 55.9778 47.5049 54.6748 52.9509Z" fill="white"/>
</svg>
