<svg width="227" height="83" viewBox="0 0 227 83" fill="none" xmlns="http://www.w3.org/2000/svg">
<rect width="98.4828" height="7.96552" rx="3.98276" transform="matrix(1 0 0 -1 128 83)" fill="#92B5D8" fill-opacity="0.15"/>
<rect width="98.4828" height="7.96552" rx="3.98276" transform="matrix(1 0 0 -1 121 55.9653)" fill="#92B5D8" fill-opacity="0.15"/>
<rect width="98.4828" height="7.96552" rx="3.98276" transform="matrix(1 0 0 -1 107 69.4829)" fill="#92B5D8" fill-opacity="0.15"/>
<path fill-rule="evenodd" clip-rule="evenodd" d="M166.257 72.2181C166.257 70.6913 165.667 69.4483 164.932 69.4033V69.402H198.639H198.725V69.4033C198.696 69.4024 198.668 69.402 198.639 69.402C197.084 69.402 195.823 70.6628 195.823 72.2181C195.823 73.7734 197.084 75.0342 198.639 75.0342C198.668 75.0342 198.696 75.0338 198.725 75.0329V75.0342H198.639H164.932V75.0329C165.667 74.9879 166.257 73.7449 166.257 72.2181Z" fill="#92B5D8" fill-opacity="0.15"/>
<path fill-rule="evenodd" clip-rule="evenodd" d="M166.257 58.7015C166.257 57.1747 165.667 55.9317 164.932 55.8867V55.8854H198.639H198.725V55.8867C198.696 55.8858 198.668 55.8854 198.639 55.8854C197.084 55.8854 195.823 57.1462 195.823 58.7015C195.823 60.2568 197.084 61.5176 198.639 61.5176C198.668 61.5176 198.696 61.5172 198.725 61.5163V61.5176H198.639H164.932V61.5163C165.667 61.4713 166.257 60.2283 166.257 58.7015Z" fill="#92B5D8" fill-opacity="0.15"/>
<rect width="18.5378" height="9.8208" transform="matrix(-1 0 0 1 111.086 0)" fill="#ADB256"/>
<rect width="18.5378" height="9.8208" transform="matrix(-1 0 0 1 111.086 10.0879)" fill="#DE774B"/>
<rect width="18.5378" height="9.8208" transform="matrix(-1 0 0 1 111.086 20.1753)" fill="#E9B556"/>
<rect width="18.5378" height="9.8208" transform="matrix(-1 0 0 1 111.086 30.2632)" fill="#375592"/>
<rect width="18.5485" height="9.8208" transform="matrix(-1 0 0 1 148.713 0)" fill="#ADB256"/>
<rect width="18.5485" height="9.8208" transform="matrix(-1 0 0 1 148.713 10.0879)" fill="#DE774B"/>
<rect width="18.5485" height="9.8208" transform="matrix(-1 0 0 1 148.713 20.1753)" fill="#E9B556"/>
<rect width="18.5485" height="9.8208" transform="matrix(-1 0 0 1 148.713 30.2632)" fill="#375592"/>
<rect width="18.5378" height="9.8208" transform="matrix(-1 0 0 1 129.84 0)" fill="#ADB256"/>
<rect width="18.5378" height="9.8208" transform="matrix(-1 0 0 1 129.84 10.0874)" fill="#DE774B"/>
<rect width="18.5378" height="9.8208" transform="matrix(-1 0 0 1 129.84 20.1758)" fill="#E9B556"/>
<rect width="18.5378" height="9.8208" transform="matrix(-1 0 0 1 129.84 30.2632)" fill="#375592"/>
<rect width="18.5378" height="9.8208" transform="matrix(-1 0 0 1 92.2773 0)" fill="#ADB256"/>
<rect width="18.5378" height="9.8208" transform="matrix(-1 0 0 1 92.2773 10.0879)" fill="#DE774B"/>
<rect width="18.5378" height="9.8208" transform="matrix(-1 0 0 1 92.2773 20.1753)" fill="#E9B556"/>
<rect width="18.5378" height="9.8208" transform="matrix(-1 0 0 1 92.2773 30.2632)" fill="#375592"/>
<rect width="18.5378" height="9.8208" transform="matrix(-1 0 0 1 73.4697 0)" fill="#ADB256"/>
<rect width="18.5378" height="9.8208" transform="matrix(-1 0 0 1 73.4697 10.0874)" fill="#DE774B"/>
<rect width="18.5378" height="9.8208" transform="matrix(-1 0 0 1 73.4697 20.1758)" fill="#E9B556"/>
<rect width="18.5378" height="9.8208" transform="matrix(-1 0 0 1 73.4697 30.2632)" fill="#375592"/>
<rect width="18.5378" height="9.8208" transform="matrix(-1 0 0 1 54.6602 0)" fill="#ADB256"/>
<rect width="18.5378" height="9.8208" transform="matrix(-1 0 0 1 54.6602 10.0874)" fill="#DE774B"/>
<rect width="18.5378" height="9.8208" transform="matrix(-1 0 0 1 54.6602 20.1758)" fill="#E9B556"/>
<rect width="18.5378" height="9.8208" transform="matrix(-1 0 0 1 54.6602 30.2632)" fill="#375592"/>
<path d="M163.487 23.104V28.3851H168.836V33.7871H175.306V43.3731H155.524V33.7871V28.4967V28.3851V23.104H163.487Z" fill="white"/>
<path d="M156.449 25.5381H157.999V23.9946H156.449V25.5381Z" fill="#4A4A4A"/>
<path d="M156.449 23.0205H157.999V21.4771H156.449V23.0205Z" fill="#F84B29"/>
<path d="M0.0030911 36.3623H1.55273V34.8188H0.0030911V36.3623Z" fill="#F84B29"/>
<path d="M161.014 25.5381H162.563V23.9946H161.014V25.5381Z" fill="#4A4A4A"/>
<path d="M158.736 25.5381H160.286V23.9946H158.736V25.5381Z" fill="#4A4A4A"/>
<path d="M156.449 30.6352H157.999V29.0918H156.449V30.6352Z" fill="#4A4A4A"/>
<path d="M161.014 30.6352H162.563V29.0918H161.014V30.6352Z" fill="#4A4A4A"/>
<path d="M158.736 30.6352H160.286V29.0918H158.736V30.6352Z" fill="#4A4A4A"/>
<path d="M166.447 30.6352H167.997V29.0918H166.447V30.6352Z" fill="#4A4A4A"/>
<path d="M156.449 35.9721H157.999V34.4287H156.449V35.9721Z" fill="#4A4A4A"/>
<path d="M161.014 35.9721H162.563V34.4287H161.014V35.9721Z" fill="#4A4A4A"/>
<path d="M158.736 35.9721H160.286V34.4287H158.736V35.9721Z" fill="#4A4A4A"/>
<path d="M166.447 35.9721H167.997V34.4287H166.447V35.9721Z" fill="#4A4A4A"/>
<path d="M171.002 35.9721H172.552V34.4287H171.002V35.9721Z" fill="#4A4A4A"/>
<path d="M168.724 35.9721H170.273V34.4287H168.724V35.9721Z" fill="#4A4A4A"/>
<path d="M0.0026036 36.4463H26.3629L30.7407 41.3948H159.173L160.476 36.4463H178V45.3777C178 47.9106 177.372 50.2974 176.264 52.3914C176.264 52.3914 168.723 52.3914 162.947 52.3914H16.9629H13.6863C12.1421 51.1845 10.168 50.6883 8.39547 49.8568C5.85747 48.6767 3.68204 46.759 2.2049 44.3987C0.727751 42.0251 -0.0511108 39.2357 0.0026036 36.4463Z" fill="#666666"/>
<path d="M8.43989 39.2259C8.43989 39.5738 8.72199 39.8681 9.08469 39.8681C9.43396 39.8681 9.72949 39.5738 9.72949 39.2259C9.72949 38.8647 9.43396 38.5703 9.08469 38.5703C8.72199 38.5703 8.43989 38.8647 8.43989 39.2259Z" fill="#4A4A4A"/>
<path d="M5.31001 39.2259C5.31001 39.5738 5.59211 39.8681 5.95481 39.8681C6.31751 39.8681 6.59961 39.5738 6.59961 39.2259C6.59961 38.8647 6.31751 38.5703 5.95481 38.5703C5.59211 38.5703 5.31001 38.8647 5.31001 39.2259Z" fill="#4A4A4A"/>
<path d="M2.18012 39.2259C2.18012 39.5738 2.47566 39.8681 2.82493 39.8681C3.18763 39.8681 3.46973 39.5738 3.46973 39.2259C3.46973 38.8647 3.18763 38.5703 2.82493 38.5703C2.47566 38.5703 2.18012 38.8647 2.18012 39.2259Z" fill="#4A4A4A"/>
</svg>
