<svg width="45" height="58" viewBox="0 0 45 58" fill="none" xmlns="http://www.w3.org/2000/svg">
<path d="M16.2969 5.62389V9.714L18.048 10V5.90989C18.214 4.786 18.0971 1.5 21 1.5C23.9029 1.5 23.936 5 23.936 5.62389V9.714H25.4638V5.62389C25.4638 3.74926 24.5471 0 20.8803 0C17.2136 0 16.2969 3.74926 16.2969 5.62389Z" fill="#DE774B"/>
<path d="M0 44.4793H43.8605V57.7722H38.5761C29.0642 57.7722 26.9504 53.9742 16.3816 53.9742C7.9266 53.9742 1.93761 56.5062 0 57.7722V44.4793Z" fill="#DE774B"/>
<path d="M12.9152 9.7135L8.14844 44.4794H11.8559L12.9152 37.2149H30.3934L31.4527 44.4794H34.6306L29.3342 9.7135H12.9152Z" fill="#DE774B"/>
<path d="M11.8559 18L10.5 27.5H14H17H23.5H29H32L30.5 18H11.8559Z" fill="#FFC9B2"/>
</svg>
