<svg width="231" height="155" viewBox="0 0 231 155" fill="none" xmlns="http://www.w3.org/2000/svg">
<path d="M46.2685 130.873C46.2685 112.166 96.0561 97 157.472 97C185.661 97 211.4 100.195 231 105.46V155H4.10934C-16.355 148.857 46.2685 140.316 46.2685 130.873Z" fill="#ADB256"/>
<path d="M127.432 90.063C130.776 95.8833 134.982 98.1296 134.982 98.1296H152.48C152.48 98.1296 124.881 85.6227 127.432 90.063Z" fill="#DE774B"/>
<path d="M140.872 135.096C141.328 135.618 141.386 136.202 141.16 136.826C141.16 136.828 141.159 136.832 141.156 136.835C140.739 137.988 139.36 139.276 137.758 140.562C137.554 140.727 137.372 140.877 137.213 141.016C137.171 141.053 137.13 141.09 137.091 141.126C137.058 141.154 137.027 141.184 136.996 141.211C135.503 142.588 136.065 142.903 133.382 145.697C130.322 148.88 128.216 148.938 127.617 148.648C127.11 148.4 128.14 146.712 129.281 144.815C129.336 144.723 129.391 144.631 129.447 144.538C129.599 144.286 129.75 144.03 129.901 143.776C131.239 141.492 130.895 140.421 130.578 137.022C130.32 134.26 126.281 121.592 126.281 121.592L132.144 120.582C132.144 120.582 133.91 130.669 135.856 132.223C136.896 133.051 138.06 133.061 139.06 133.675C139.131 133.718 139.2 133.762 139.268 133.807C139.836 134.183 140.415 134.572 140.872 135.096Z" fill="#FFB27D"/>
<path d="M140.87 135.092C141.327 135.615 141.385 136.199 141.159 136.823C141.159 136.825 141.157 136.829 141.155 136.831C140.644 137.984 139.299 139.265 137.751 140.547C137.549 140.715 137.37 140.869 137.211 141.013C137.17 141.049 137.128 141.086 137.089 141.123C137.057 141.151 137.025 141.181 136.995 141.208C135.501 142.585 136.063 142.9 133.38 145.694C130.321 148.877 128.214 148.934 127.615 148.644C127.108 148.397 128.138 146.709 129.279 144.811C129.875 144.593 132.642 143.469 134.733 140.793C136.575 138.442 137.804 135.422 139.058 133.672C139.129 133.715 139.198 133.758 139.266 133.803C139.835 134.179 140.413 134.569 140.87 135.092Z" fill="#375592"/>
<path d="M93.5965 131.433C93.2347 133.243 90.6549 132.941 87.7728 132.237C84.8909 131.533 85.5758 132.37 81.474 131.916C77.372 131.461 76.1292 129.932 76.0045 129.322C75.8922 128.781 77.9191 128.59 80.0931 128.34C80.3662 128.309 80.6411 128.275 80.9156 128.241C83.3701 127.933 85.1676 126.35 87.3972 125.049C89.5088 123.817 92.6603 118.797 92.6603 118.797L98.2857 119.243C98.2857 119.243 95.334 123.726 94.1921 125.676C93.5205 126.822 93.5563 128.338 93.6399 129.509C93.6836 130.145 93.725 130.796 93.5965 131.433Z" fill="#FFB27D"/>
<path d="M87.7728 132.237C84.8909 131.533 85.5758 132.37 81.474 131.916C77.372 131.462 76.1292 129.932 76.0045 129.322C75.8922 128.781 77.9191 128.59 80.0931 128.34L80.1133 128.382C80.1133 128.382 82.5733 130.126 85.9874 130.208C88.7704 130.275 91.7177 129.478 93.6397 129.509C93.6833 130.145 93.7248 130.796 93.5963 131.433C93.2347 133.243 90.6552 132.941 87.7728 132.237Z" fill="#375592"/>
<path d="M115.154 95.463L120.413 109.613L127.278 128.09C127.278 128.09 129.142 128.27 130.926 127.756C132.568 127.282 134.453 126.039 134.453 126.039C134.453 126.039 132.547 106.201 128.991 94.8128C128.079 91.8898 127.058 89.5253 125.931 88.1945C120.418 81.6792 115.154 95.463 115.154 95.463Z" fill="#DE774B"/>
<path d="M163.107 82.2636C163.107 82.2636 128.27 70.4844 120.501 72.9905C112.732 75.4967 89.4043 121.908 89.4043 121.908C89.4043 121.908 89.9306 122.608 91.3678 123.147C92.7045 123.649 95.9401 123.616 95.9401 123.616C95.9401 123.616 116.992 105.571 119.499 100.308C122.005 95.0451 123.008 90.0328 125.514 90.5339C127.045 90.8403 138.882 98.1287 149.484 98.1287C153.605 98.1287 164.831 98.1287 164.831 98.1287C171.465 90.986 169.608 79.6621 169.608 79.6621L163.107 82.2636Z" fill="#DE774B"/>
<path d="M139.674 30.411C139.031 29.3088 138.252 27.3231 137.666 23.7208C137.741 24.0772 138.722 28.6017 140.682 31.0535C148.274 35.2337 163.35 49.9912 163.31 53.0132C163.31 53.0132 167.543 44.3628 167.623 44.3065C167.623 44.3065 175.729 32.1678 164.557 26.4449C158.88 23.5359 158.575 19.26 158.512 15.5297C158.452 11.7986 155.502 -4.05124 144.973 0.975632C144.973 0.975632 143.171 0.337329 142.399 0.513918C142.399 0.513918 143.046 0.58619 143.397 0.895714C142.132 0.919145 140.34 1.1522 138.905 2.12245C135.102 4.6931 133.12 25.2571 139.674 30.411Z" fill="#543616"/>
<path d="M143.851 30.6135C143.818 30.635 147.586 31.9217 150.106 30.8057C152.477 29.7577 154.273 25.8572 154.238 25.8555C153.159 25.8057 151.976 24.8628 151.064 18.6758L150.604 18.8405L142.883 21.6191C142.883 21.6191 143.442 24.0968 143.804 26.4556C144.109 28.4358 144.273 30.3331 143.851 30.6135Z" fill="#E1987D"/>
<path d="M142.883 21.6184C142.883 21.6184 143.442 24.0961 143.804 26.4549C148.239 25.6565 149.98 21.2379 150.604 18.8398L142.883 21.6184Z" fill="#E1987D"/>
<path d="M152.468 16.911C152.468 16.911 154.829 13.1812 155.395 9.9917C155.8 7.71479 154.64 -0.725487 146.159 0.490166C146.159 0.490166 143.695 0.732846 141.38 2.2965C139.538 3.54027 136.881 6.22538 139.852 13.5906L140.624 16.0786L152.468 16.911Z" fill="#543616"/>
<path d="M141.733 24.0787C141.733 24.0787 152.297 22.6608 151.313 16.0954C150.328 9.53005 151.029 4.92541 144.242 5.55334C137.456 6.18077 136.524 8.88212 136.319 11.1534C136.115 13.4246 138.959 24.2782 141.733 24.0787Z" fill="#E1987D"/>
<path d="M139.422 6.11907C139.422 6.11907 143.47 13.3844 148.07 13.8542C152.67 14.3238 154.412 12.8472 154.412 12.8472C154.412 12.8472 150.608 10.6623 149.192 6.05889C149.192 6.05889 141.044 2.12485 139.422 6.11907Z" fill="#543616"/>
<path d="M140.23 6.63376C140.23 6.63376 138.335 8.67859 138.062 10.4297C137.789 12.1805 138.073 15.6573 137.052 15.6919C137.052 15.6919 134.087 10.7856 136.083 7.45554C138.2 3.9245 140.23 6.63376 140.23 6.63376Z" fill="#543616"/>
<path d="M171.277 82.4449C170.702 84.0406 168.939 84.4518 166.576 84.1743C162.072 83.648 155.38 80.6238 150.558 78.5316C143.206 75.3451 139.864 78.3395 137.525 76.3109C135.186 74.2824 140.198 69.7727 135.854 48.8313C134.38 41.7298 143.804 26.4546 143.804 26.4546C143.804 26.4546 144.524 30.9122 153.457 25.6104C153.773 25.4234 157.288 30.6298 160.675 37.0479C164.408 44.129 167.984 52.6827 166.933 57.0906C164.928 65.4934 172.948 77.808 171.277 82.4449Z" fill="#375592"/>
<path d="M171.279 82.4477C170.704 84.0434 168.941 84.4546 166.578 84.1771C163.461 82.8186 149.991 77.6004 150.142 74.0647C150.366 68.8296 152.732 68.6627 151.061 62.2011C149.719 57.0132 162.164 47.3664 164.149 45.2695C167.882 52.3509 167.985 52.6855 166.934 57.0934C164.93 65.4961 172.95 77.8108 171.279 82.4477Z" fill="#375592"/>
<path d="M120.414 109.613L127.279 128.089C127.279 128.089 129.143 128.269 130.927 127.756C132.569 127.281 134.454 126.039 134.454 126.039C134.454 126.039 132.548 106.201 128.992 94.8125L120.414 109.613Z" fill="#DE774B"/>
<path d="M143.808 26.457C143.808 26.457 134.618 28.015 133.539 31.9717C132.46 35.9285 126.109 59.1887 126.109 59.1887C126.109 59.1887 130.781 60.0277 132.939 57.8697C135.097 55.7117 140.449 37.8463 140.449 37.8463L143.808 26.457Z" fill="#375592"/>
<path d="M153.458 25.6133C153.458 25.6133 162.145 26.1482 165.151 30.3422C169.384 36.2461 177.782 61.4069 172.969 64.7631C167.549 68.542 148.303 65.7515 148.303 65.7515C148.303 65.7515 147.662 62.7579 148.554 61.31C149.445 59.8617 163.926 57.5224 164.594 56.8543C165.263 56.1859 156.24 43.821 156.24 41.8158C156.24 39.8107 153.458 25.6133 153.458 25.6133Z" fill="#375592"/>
<path d="M153.101 73.191H116.006L109.318 49.8711H146.356L153.101 73.191Z" fill="#B5B5B5"/>
<path d="M164.63 72.2812H116.135V73.1898H164.63V72.2812Z" fill="#B5B5B5"/>
<path d="M127.785 61.1522C127.55 60.3324 128.024 59.668 128.843 59.668C129.663 59.668 130.518 60.3324 130.753 61.1522C130.989 61.9718 130.514 62.6364 129.695 62.6364C128.875 62.6364 128.02 61.9718 127.785 61.1522Z" fill="#F0F0F0"/>
</svg>
