<svg width="103" height="29" viewBox="0 0 103 29" fill="none" xmlns="http://www.w3.org/2000/svg">
<path d="M26.1225 1.31749C15.6445 -0.240203 9.33994 9.29991 10.4655 11.4541C11.5911 13.6062 5.13272 14.4135 0.828518 17.375C-3.47779 20.3344 10.2463 20.874 13.4755 22.2188C16.7047 23.5636 8.88042 24.3709 13.0624 27.3324C17.2443 30.2918 55.4531 28.6772 67.2928 27.3324C79.1325 25.9876 71.8668 22.2188 75.6335 20.874C79.4002 19.5292 100.39 18.6355 102.542 16.2557C104.694 13.876 84.7815 14.4156 85.0513 11.1864C85.3211 7.95719 63.3975 4.11672 51.3512 5.36456C39.3092 6.61029 34.1913 2.51685 26.1225 1.31749Z" fill="#C2CB8E"/>
<path d="M68.4705 17.8285C67.7327 18.0182 67.0161 18.208 66.3205 18.4398C61.3039 20.0629 57.1514 22.7187 51.9451 24.2364C50.6593 24.6158 48.7411 24.953 46.4647 25.2271C38.4127 26.2177 25.9554 26.3653 21.6344 24.2364C16.0908 21.5383 16.0908 9.88198 16.0908 8.13248C16.0908 6.3619 17.6506 6.00361 17.6506 6.00361C21.8663 0.565394 31.2461 -0.298855 35.799 0.565358C38.8554 1.13447 42.0593 1.66146 44.7784 2.56783C46.1275 3.03155 47.35 3.57958 48.3828 4.27517C51.4603 6.36193 57.7417 5.26588 61.072 6.86783C62.2313 7.43695 64.1073 8.09032 66.1097 8.72267C69.8617 9.92414 74.0984 11.0202 75.1313 11.1678C76.7332 11.4207 74.52 16.3531 68.4705 17.8285Z" fill="#D9D9D9"/>
<path d="M11.6765 3.37748C13.1014 0.521367 18.333 -1.29138 22.848 3.2763C22.848 3.2763 28.6572 3.96132 29.768 10.9867C30.8767 18.0143 23.3834 20.8029 19.0434 17.4578C14.7033 14.1127 8.1859 10.3776 11.6765 3.37748Z" fill="#878787"/>
<path d="M18.0537 0.118279C28.7046 2.73832 25.9433 21.6498 15.5875 14.7467C5.23384 7.8435 12.9528 -1.13588 18.0537 0.118279Z" fill="#D9D9D9"/>
<path d="M17.6415 1.55828C14.6399 0.0427482 8.31425 5.99528 14.6019 12.0975C20.8896 18.1996 27.894 6.73513 17.6415 1.55828Z" fill="#878787"/>
<path d="M66.3214 18.4399C61.3047 20.0629 57.1523 22.7188 51.9459 24.2364C50.6601 24.6158 48.742 24.9531 46.4655 25.2271C51.967 18.1237 49.543 4.80218 44.7793 2.56787C46.1283 3.0316 47.3508 3.57963 48.3837 4.27521C51.4611 6.36197 57.7425 5.26592 61.0729 6.86787C62.2322 7.43699 64.1081 8.09037 66.1106 8.72272C67.4385 11.7369 67.3121 15.3624 66.3214 18.4399Z" fill="#375592"/>
<path d="M21.0551 4.86085C19.3815 4.87771 15.5916 11.3804 17.3812 13.0983C19.1707 14.8162 21.9973 13.0688 22.5348 9.68363C23.0744 6.29634 21.4619 4.85663 21.0551 4.86085Z" fill="#727272"/>
</svg>
