<svg width="299" height="299" viewBox="0 0 299 299" fill="none" xmlns="http://www.w3.org/2000/svg">
<path d="M298.896 149.448C298.896 231.987 231.987 298.896 149.448 298.896C138.9 298.896 128.608 297.805 118.676 295.723C99.0284 291.611 80.7955 283.642 64.8138 272.633C61.9112 270.642 59.0807 268.542 56.3293 266.342C39.8468 253.201 26.2057 236.639 16.4826 217.737C5.94542 197.268 0 174.051 0 149.448C0 66.9095 66.9095 0 149.448 0C231.987 0 298.896 66.9095 298.896 149.448Z" fill="#F6EEE0"/>
<path d="M242.5 99L245.082 106.946H253.437L246.678 111.857L249.26 119.804L242.5 114.893L235.74 119.804L238.322 111.857L231.563 106.946H239.918L242.5 99Z" fill="#EA6F32"/>
<path d="M198.15 201H192.853V201.152H198.15V201Z" fill="#EBEBEB"/>
<path d="M225.107 89.6524C223.222 90.3952 224.783 83.8609 219.295 84.0023C213.807 84.1436 213.315 88.6634 213.315 88.6634C213.315 88.6634 209.427 85.4148 206.461 87.5336C203.496 89.6524 205.264 90.5 202.826 90.5C200.388 90.5 197.433 90.4884 197.004 91.9065C196.574 93.3245 233.158 93.737 233.158 91.9065C233.158 90.0759 231.322 90.5 230.191 90.5C229.062 90.5 229.769 87.8163 225.107 89.6524Z" fill="#C9C9C8"/>
<path d="M61.1075 79.6524C59.2221 80.3952 60.7833 73.8609 55.2953 74.0023C49.8072 74.1436 49.3149 78.6634 49.3149 78.6634C49.3149 78.6634 45.4271 75.4148 42.4612 77.5336C39.496 79.6524 41.2644 80.5 38.8263 80.5C36.3882 80.5 33.4334 80.4884 33.0038 81.9065C32.5741 83.3245 69.1579 83.737 69.1579 81.9065C69.1579 80.0759 67.3219 80.5 66.1915 80.5C65.0623 80.5 65.7686 77.8163 61.1075 79.6524Z" fill="#8D8D8D"/>
<path d="M178.906 48.191C180.992 49.0046 179.265 41.8477 185.336 42.0025C191.407 42.1572 191.952 47.1082 191.952 47.1082C191.952 47.1082 196.253 43.5498 199.534 45.8703C202.814 48.191 200.857 49.1194 203.555 49.1194C206.252 49.1194 209.52 49.1067 209.996 50.6603C210.471 52.2139 170 52.6651 170 50.6603C170 48.6552 172.031 49.1194 173.282 49.1194C174.531 49.1191 173.75 46.1797 178.906 48.191Z" fill="#8D8D8D"/>
<path d="M148.656 214.714C213.909 214.714 266.807 211.625 266.807 207.814C266.807 204.003 213.909 200.914 148.656 200.914C83.4034 200.914 30.5054 204.003 30.5054 207.814C30.5054 211.625 83.4034 214.714 148.656 214.714Z" fill="#C5614A"/>
<path d="M178.341 191.557C174.139 188.516 168.095 180.622 171.851 171.781C175.608 162.941 178.711 178.77 181.561 175.848C184.412 172.925 173.557 165.399 180.828 159.407C188.099 153.416 187.617 168.492 190.957 166.193C194.296 163.895 184.171 152.512 195.331 147.422C206.492 142.332 199.048 155.583 203.519 155.745C207.991 155.908 203.629 147.641 211.316 144.382C219.002 141.123 223.23 147.1 217.974 151.583C212.719 156.067 227.592 153.897 226.455 159.26C225.319 164.624 210.908 162.781 209.352 164.898C207.796 167.015 222.65 166.134 221.512 169.422C220.374 172.709 215.096 179.783 210.822 178.985C206.548 178.187 200.299 173.405 198.76 175.009C197.221 176.612 212.358 180.82 210.702 182.911C209.046 185.003 203.315 190.446 200.656 189.319C197.998 188.191 191.608 182.674 190.706 184.344C189.804 186.014 203.003 190.865 200.59 192.268C198.178 193.669 191.608 201.162 178.341 191.557Z" fill="#C5614A"/>
<path d="M192.369 205.342C190.298 202.32 188.139 195.631 192.687 190.65C197.235 185.668 195.596 196.93 198.164 195.667C200.733 194.404 195.305 186.813 201.513 184.563C207.722 182.312 203.887 192.219 206.633 191.488C209.379 190.756 205.334 180.777 213.906 180.052C222.478 179.328 214.462 186.362 217.382 187.536C220.303 188.711 219.345 182.175 225.192 181.84C231.038 181.505 232.441 186.487 227.918 188.215C223.395 189.943 233.742 192.045 231.739 195.339C229.737 198.634 220.631 193.974 219.108 195.011C217.584 196.048 227.619 199.002 226.099 200.916C224.579 202.83 219.437 206.274 216.795 204.725C214.153 203.177 211.133 198.508 209.74 199.207C208.348 199.906 217.383 206.31 215.8 207.307C214.216 208.302 209.154 210.556 207.658 209.172C206.162 207.79 203.221 202.599 202.234 203.494C201.248 204.389 208.85 210.759 206.927 211.116C205.003 211.474 198.908 214.889 192.369 205.342Z" fill="#C5614A"/>
<path d="M124.28 198.578C124.265 198.677 124.855 198.907 123.472 199.533C120.066 201.074 113.845 203.315 110.269 201.106C105.162 197.952 112.904 195.304 111.162 193.132C109.42 190.959 102.104 196.262 99.0803 193.377C96.0569 190.492 102.255 188.79 101.243 187.087C100.23 185.383 94.9773 190.241 91.4092 187.327C87.8403 184.413 94.0789 184.224 92.5698 183.029C91.0607 181.835 81.5487 178.163 83.7532 175.599C85.9577 173.035 95.1698 177.157 97.597 177.015C100.024 176.874 97.8296 170.069 101.534 171.147C105.239 172.225 107.455 182.94 111.231 182.858C114.043 182.796 111.259 179.759 114.322 178.683C118.481 177.219 125.514 190.659 124.28 198.578Z" fill="#C5614A"/>
<path d="M119.387 185.596C119.32 185.673 119.697 186.201 118.17 185.976C114.407 185.421 107.852 183.911 106.01 180.004C103.382 174.427 111.462 176.429 111.17 173.574C110.879 170.719 101.697 171.26 100.702 167.073C99.7076 162.887 105.947 164.853 106.02 162.81C106.093 160.767 98.9221 162.069 97.476 157.555C96.0307 153.04 101.47 156.342 100.839 154.466C100.206 152.59 94.0958 144.114 97.3947 143.112C100.694 142.109 106.3 150.809 108.453 152.035C110.607 153.262 112.482 146.13 115.056 149.126C117.631 152.121 113.619 162.661 116.893 164.687C119.332 166.195 118.626 162.01 121.839 162.777C126.204 163.819 124.809 179.402 119.387 185.596Z" fill="#C5614A"/>
<path d="M66.5854 132.356L67.5196 143.035C67.6159 144.133 68.5842 145.024 69.6823 145.024H134.648L133.54 132.357H66.5854V132.356Z" fill="#8D8D8D"/>
<path d="M134.437 142.61H68.4871C67.9326 142.61 67.4433 142.161 67.3945 141.606L60.4458 62.1841C60.3971 61.6295 60.8078 61.1798 61.3623 61.1798H127.312L134.437 142.61Z" fill="#8D8D8D"/>
<path d="M68.9194 129.642L69.747 139.104H134.13L133.303 129.642H68.9194Z" fill="#8D8D8D"/>
<path d="M127.313 61.1797C106.702 52.941 83.6132 52.2901 62.9292 61.1797L69.7469 139.105C90.4309 130.216 113.52 130.866 134.13 139.105L127.313 61.1797Z" fill="#C9C9C8"/>
<path d="M71.7713 128.235C71.5397 127.729 71.7506 127.161 72.2423 126.979C80.0722 124.083 88.3322 122.433 96.8239 122.069C97.3607 122.046 97.8537 122.474 97.9177 123.013C97.9798 123.539 97.6081 123.975 97.0841 123.998C88.7801 124.352 80.7023 125.966 73.0449 128.8C72.5635 128.977 71.998 128.728 71.7713 128.235Z" fill="#8D8D8D"/>
<path d="M129.03 128.795C120.516 125.839 111.778 124.213 103.028 123.957C102.5 123.942 102.047 123.513 102.011 122.987V122.984C101.973 122.446 102.384 122.013 102.924 122.029C111.872 122.291 120.808 123.954 129.515 126.976C130.038 127.157 130.347 127.724 130.204 128.229L130.203 128.231C130.063 128.725 129.542 128.973 129.03 128.795Z" fill="#8D8D8D"/>
<path d="M70.9185 118.493L70.9179 118.493C70.6863 117.988 70.8966 117.421 71.3877 117.239C76.2621 115.437 81.3388 114.108 86.5045 113.281C87.0291 113.197 87.5611 113.571 87.6854 114.104L87.686 114.105C87.8073 114.627 87.4922 115.105 86.9792 115.187C81.9262 115.995 76.9604 117.295 72.1915 119.059C71.7107 119.237 71.1452 118.987 70.9185 118.493Z" fill="#8D8D8D"/>
<path d="M112.716 115.192C106.047 114.156 99.3519 113.916 92.7865 114.477C92.2661 114.521 91.7719 114.142 91.6757 113.618C91.5769 113.082 91.9322 112.599 92.4654 112.554C99.1777 111.98 106.023 112.226 112.84 113.283C113.38 113.367 113.787 113.877 113.744 114.408V114.409C113.701 114.928 113.244 115.273 112.716 115.192Z" fill="#8D8D8D"/>
<path d="M128.178 119.054C125.002 117.953 121.761 117.028 118.52 116.296C117.996 116.178 117.629 115.674 117.696 115.159C117.765 114.633 118.259 114.296 118.793 114.416C122.106 115.164 125.417 116.11 128.663 117.235C129.186 117.416 129.494 117.983 129.352 118.487C129.212 118.981 128.69 119.232 128.178 119.054Z" fill="#8D8D8D"/>
<path d="M70.0661 108.752C69.8345 108.247 70.046 107.68 70.5365 107.498C80.8935 103.665 91.8762 102.026 103.213 102.63C103.753 102.659 104.206 103.128 104.218 103.665C104.23 104.191 103.814 104.585 103.286 104.557C92.2059 103.971 81.4663 105.567 71.3403 109.317C70.8601 109.495 70.2928 109.247 70.0661 108.752Z" fill="#8D8D8D"/>
<path d="M127.325 109.314C121.679 107.354 115.881 105.969 110.063 105.19C109.534 105.119 109.125 104.648 109.144 104.124V104.124C109.164 103.589 109.621 103.205 110.161 103.278C116.111 104.075 122.038 105.492 127.811 107.494C128.334 107.676 128.644 108.242 128.5 108.747V108.747C128.36 109.242 127.837 109.491 127.325 109.314Z" fill="#8D8D8D"/>
<path d="M69.2142 99.0122C68.9826 98.507 69.1934 97.9391 69.6846 97.7569C76.4779 95.2444 83.6173 93.6649 90.9353 93.0562C91.4685 93.0117 91.9761 93.4212 92.0614 93.9586C92.1449 94.4845 91.7921 94.9355 91.2711 94.9787C84.1146 95.5735 77.1318 97.1182 70.4871 99.5771C70.007 99.755 69.4408 99.5064 69.2142 99.0122Z" fill="#8D8D8D"/>
<path d="M126.473 99.5727C117.049 96.3022 107.377 94.6819 97.7317 94.7026C97.2052 94.7038 96.7396 94.2876 96.686 93.7617L96.6854 93.7575C96.6299 93.22 97.0248 92.7715 97.5623 92.7685C107.435 92.7069 117.32 94.4065 126.957 97.7531C127.48 97.9347 127.791 98.5027 127.648 99.0072V99.0078C127.507 99.5014 126.985 99.7501 126.473 99.5727Z" fill="#8D8D8D"/>
<path d="M68.3617 89.27C68.1302 88.7655 68.3404 88.1988 68.831 88.0178C72.5798 86.6321 76.4567 85.523 80.381 84.7125C80.899 84.6053 81.4444 84.9563 81.5913 85.4852V85.4858C81.7357 86.0044 81.4426 86.4992 80.9343 86.604C77.0953 87.3956 73.3025 88.4809 69.6359 89.8368C69.1545 90.0141 68.5884 89.7649 68.3617 89.27Z" fill="#8D8D8D"/>
<path d="M85.1292 84.8838C85.0049 84.35 85.3352 83.8479 85.8629 83.7766C92.6221 82.8619 99.5519 82.787 106.49 83.556C107.031 83.6157 107.459 84.1093 107.44 84.6443C107.421 85.1672 106.981 85.534 106.453 85.4749C99.6677 84.7217 92.8902 84.7936 86.2773 85.6912C85.7611 85.7619 85.2505 85.4054 85.1292 84.8838Z" fill="#8D8D8D"/>
<path d="M125.623 89.8326C120.956 88.2141 116.174 86.9838 111.379 86.1678C110.852 86.0783 110.46 85.595 110.499 85.0746V85.0722C110.538 84.5408 111.01 84.1752 111.549 84.2666C116.45 85.1008 121.338 86.3592 126.107 88.013C126.629 88.194 126.939 88.7607 126.796 89.2653L126.795 89.2671C126.655 89.7613 126.134 90.0105 125.623 89.8326Z" fill="#8D8D8D"/>
<path d="M67.5105 79.5323C67.279 79.0271 67.4898 78.4591 67.981 78.2769C75.6835 75.4263 83.807 73.7822 92.1561 73.3831C92.6923 73.3575 93.1871 73.7834 93.2536 74.3221V74.3227C93.3188 74.8492 92.9489 75.2861 92.4248 75.3111C84.2604 75.6993 76.316 77.3074 68.7835 80.0965C68.3027 80.2745 67.7366 80.0265 67.5105 79.5323Z" fill="#8D8D8D"/>
<path d="M124.767 80.0911C116.14 77.0967 107.287 75.4678 98.4208 75.2448C97.8925 75.2314 97.4361 74.8024 97.3977 74.2746C97.3581 73.7366 97.767 73.3021 98.3062 73.3155C107.374 73.5434 116.43 75.2094 125.254 78.2721C125.777 78.4537 126.087 79.0204 125.944 79.525C125.803 80.0198 125.28 80.2691 124.767 80.0911Z" fill="#8D8D8D"/>
<path d="M66.6578 69.7914L66.6571 69.7908C66.4256 69.2857 66.6358 68.7183 67.127 68.5367C72.2524 66.6404 77.6064 65.2681 83.0682 64.4509C83.5941 64.3723 84.1242 64.7507 84.2431 65.2851V65.2863C84.3595 65.808 84.0395 66.2833 83.5252 66.3601C78.1822 67.1583 72.9447 68.5008 67.9295 70.3569C67.4493 70.5343 66.8844 70.2856 66.6578 69.7914Z" fill="#8D8D8D"/>
<path d="M108.073 66.4295C101.855 65.4911 95.6026 65.2467 89.4613 65.6989C88.9391 65.7373 88.4486 65.3527 88.3578 64.8275C88.2651 64.2906 88.6259 63.8129 89.1597 63.7739C95.4405 63.312 101.832 63.5618 108.19 64.5209C108.729 64.602 109.137 65.1096 109.097 65.641C109.056 66.1614 108.601 66.5093 108.073 66.4295Z" fill="#8D8D8D"/>
<path d="M123.919 70.3527C120.376 69.123 116.755 68.1139 113.128 67.3461C112.604 67.2352 112.231 66.7373 112.291 66.2206V66.2193C112.353 65.6916 112.842 65.3467 113.378 65.4601C117.083 66.2449 120.782 67.2766 124.402 68.5325C124.925 68.7141 125.234 69.2814 125.091 69.7866C124.951 70.2802 124.43 70.5301 123.919 70.3527Z" fill="#8D8D8D"/>
<path d="M200.495 132.356L201.429 143.035C201.525 144.133 200.712 145.024 199.614 145.024H134.648L133.54 132.357H200.495V132.356Z" fill="#8D8D8D"/>
<path d="M134.437 142.61H200.387C200.942 142.61 201.353 142.161 201.304 141.606L194.355 62.1841C194.306 61.6295 193.818 61.1798 193.263 61.1798H127.313L134.437 142.61Z" fill="#8D8D8D"/>
<path d="M197.686 129.642L198.514 139.104H134.13L133.303 129.642H197.686Z" fill="#8D8D8D"/>
<path d="M127 61.4254C146.168 53.1867 169.144 52.5359 191.383 61.4254L198.201 139.35C175.962 130.461 152.987 131.112 133.818 139.35L127 61.4254Z" fill="#C9C9C8"/>
<path d="M194.587 128.235C194.73 127.729 194.42 127.161 193.896 126.979C185.559 124.083 177.011 122.433 168.456 122.069C167.916 122.046 167.498 122.474 167.527 123.013C167.557 123.539 168.005 123.975 168.533 123.998C176.9 124.352 185.26 125.966 193.413 128.8C193.925 128.977 194.447 128.728 194.587 128.235Z" fill="#8D8D8D"/>
<path d="M137.426 128.795C145.423 125.839 153.877 124.213 162.582 123.957C163.107 123.942 163.485 123.513 163.43 122.987V122.984C163.373 122.446 162.886 122.013 162.35 122.029C153.447 122.291 144.802 123.954 136.624 126.976C136.133 127.157 135.922 127.724 136.153 128.229L136.155 128.231C136.381 128.725 136.946 128.973 137.426 128.795Z" fill="#8D8D8D"/>
<path d="M193.735 118.493C193.879 117.989 193.569 117.421 193.046 117.239C187.857 115.437 182.547 114.108 177.237 113.281C176.697 113.197 176.23 113.571 176.199 114.104V114.105C176.169 114.627 176.568 115.105 177.096 115.187C182.29 115.995 187.483 117.295 192.561 119.059C193.073 119.237 193.595 118.987 193.735 118.493Z" fill="#8D8D8D"/>
<path d="M151.359 115.192C157.847 114.156 164.501 113.916 171.164 114.477C171.692 114.521 172.12 114.142 172.125 113.618C172.13 113.082 171.69 112.599 171.15 112.554C164.337 111.98 157.535 112.226 150.902 113.283C150.378 113.367 150.06 113.877 150.196 114.408L150.197 114.409C150.33 114.928 150.847 115.273 151.359 115.192Z" fill="#8D8D8D"/>
<path d="M136.575 119.054C139.558 117.953 142.637 117.028 145.749 116.296C146.253 116.178 146.531 115.674 146.374 115.159C146.213 114.633 145.661 114.296 145.147 114.416C141.965 115.164 138.819 116.11 135.77 117.235C135.28 117.416 135.07 117.983 135.301 118.487C135.528 118.981 136.093 119.232 136.575 119.054Z" fill="#8D8D8D"/>
<path d="M192.884 108.752C193.027 108.247 192.716 107.68 192.194 107.498C181.166 103.665 169.897 102.026 158.665 102.63C158.13 102.659 157.759 103.128 157.841 103.665C157.921 104.191 158.406 104.585 158.93 104.557C169.907 103.971 180.926 105.567 191.708 109.317C192.219 109.495 192.743 109.247 192.884 108.752Z" fill="#8D8D8D"/>
<path d="M135.723 109.314C141.026 107.354 146.582 105.969 152.264 105.19C152.78 105.119 153.107 104.648 152.996 104.124V104.124C152.883 103.589 152.358 103.205 151.831 103.278C146.021 104.075 140.341 105.492 134.919 107.494C134.428 107.676 134.218 108.242 134.449 108.747V108.747C134.676 109.242 135.242 109.491 135.723 109.314Z" fill="#8D8D8D"/>
<path d="M192.031 99.0122C192.174 98.507 191.864 97.9391 191.341 97.7569C184.107 95.2444 176.692 93.6649 169.267 93.0562C168.726 93.0117 168.29 93.4212 168.299 93.9586C168.308 94.4845 168.739 94.9355 169.268 94.9787C176.529 95.5735 183.782 97.1182 190.857 99.5771C191.369 99.755 191.891 99.5064 192.031 99.0122Z" fill="#8D8D8D"/>
<path d="M134.87 99.5727C143.722 96.3022 153.111 94.6819 162.759 94.7026C163.286 94.7038 163.679 94.2876 163.64 93.7617V93.7575C163.601 93.22 163.128 92.7715 162.59 92.7685C152.707 92.7069 143.119 94.4065 134.068 97.7531C133.577 97.9347 133.365 98.5027 133.597 99.0072L133.597 99.0078C133.824 99.5014 134.39 99.7501 134.87 99.5727Z" fill="#8D8D8D"/>
<path d="M191.179 89.27C191.322 88.7655 191.013 88.1988 190.491 88.0178C186.5 86.6321 182.429 85.523 178.362 84.7125C177.825 84.6053 177.342 84.9563 177.287 85.4852V85.4858C177.234 86.0044 177.613 86.4992 178.14 86.604C182.118 87.3956 186.1 88.4809 190.004 89.8368C190.516 90.0141 191.039 89.7649 191.179 89.27Z" fill="#8D8D8D"/>
<path d="M173.644 84.8838C173.675 84.35 173.257 83.8479 172.716 83.7766C165.797 82.8619 158.854 82.787 152.051 83.556C151.521 83.6157 151.179 84.1093 151.292 84.6443C151.402 85.1672 151.906 85.534 152.424 85.4749C159.078 84.7217 165.868 84.7936 172.638 85.6912C173.166 85.7619 173.614 85.4054 173.644 84.8838Z" fill="#8D8D8D"/>
<path d="M134.016 89.8326C138.399 88.2141 142.966 86.9838 147.619 86.1678C148.13 86.0783 148.437 85.595 148.308 85.0746L148.307 85.0722C148.175 84.5408 147.639 84.1752 147.116 84.2666C142.361 85.1008 137.693 86.3592 133.214 88.013C132.723 88.194 132.513 88.7607 132.744 89.2653L132.744 89.2671C132.971 89.7613 133.536 90.0105 134.016 89.8326Z" fill="#8D8D8D"/>
<path d="M190.327 79.5323C190.47 79.0271 190.16 78.4591 189.636 78.2769C181.435 75.4263 173.024 73.7822 164.605 73.3831C164.065 73.3575 163.644 73.7834 163.672 74.3221V74.3227C163.699 74.8492 164.145 75.2861 164.674 75.3111C172.907 75.6993 181.132 77.3074 189.153 80.0965C189.664 80.2745 190.187 80.0265 190.327 79.5323Z" fill="#8D8D8D"/>
<path d="M133.167 80.0911C141.27 77.0967 149.839 75.4678 158.666 75.2448C159.192 75.2314 159.573 74.8024 159.52 74.2746C159.465 73.7366 158.98 73.3021 158.443 73.3155C149.415 73.5434 140.65 75.2094 132.363 78.2721C131.872 78.4537 131.661 79.0204 131.892 79.525C132.119 80.0198 132.686 80.2691 133.167 80.0911Z" fill="#8D8D8D"/>
<path d="M189.475 69.7914C189.618 69.2863 189.308 68.7183 188.785 68.5367C183.328 66.6404 177.734 65.2681 172.129 64.4509C171.59 64.3723 171.126 64.7507 171.1 65.2851V65.2863C171.075 65.808 171.479 66.2833 172.006 66.3601C177.489 67.1583 182.962 68.5008 188.302 70.3569C188.812 70.5343 189.335 70.2856 189.475 69.7914Z" fill="#8D8D8D"/>
<path d="M147.471 66.4295C153.525 65.4911 159.734 65.2467 165.955 65.6989C166.484 65.7373 166.907 65.3527 166.906 64.8275C166.905 64.2906 166.461 63.8129 165.92 63.7739C159.558 63.312 153.21 63.5618 147.02 64.5209C146.495 64.602 146.176 65.1096 146.31 65.641C146.442 66.1614 146.958 66.5093 147.471 66.4295Z" fill="#8D8D8D"/>
<path d="M132.312 70.3527C135.64 69.123 139.084 68.1139 142.577 67.3461C143.082 67.2352 143.368 66.7373 143.217 66.2206L143.216 66.2193C143.063 65.6916 142.513 65.3467 141.996 65.4601C138.429 66.2449 134.91 67.2766 131.51 68.5325C131.019 68.7141 130.809 69.2814 131.041 69.7866L131.041 69.7872C131.267 70.2808 131.832 70.5301 132.312 70.3527Z" fill="#8D8D8D"/>
<path d="M168.377 117.805L164.726 122.573L162.457 119.873L166.435 115.924L168.377 117.805Z" fill="#7F3E3B"/>
<path d="M147.119 118.219C146.259 115.622 145.053 108.956 147.487 106.4C149.921 103.844 151.817 109.5 153.144 113.888C154.47 118.276 155.457 124.266 157.634 122.97C159.812 121.675 163.28 118.397 163.28 118.397L166.153 121.736C166.153 121.736 158.785 132.348 155.073 130.138C151.361 127.929 148.21 121.513 147.119 118.219Z" fill="#EA6F32"/>
<path opacity="0.7" d="M162.346 119.254L165.316 122.877C165.84 122.187 166.153 121.737 166.153 121.737L163.28 118.398C163.28 118.398 162.913 118.745 162.346 119.254Z" fill="white"/>
<path opacity="0.2" d="M149.089 122.762C150.154 124.798 151.512 126.915 153.038 128.482C153.449 122.904 153.022 115.919 153.022 115.919L150.362 114.943L149.317 115.596L149.089 122.762Z" fill="black"/>
<path d="M179.729 190.839L182.349 203.019L186.442 201.611L185.962 190.087L179.729 190.839Z" fill="#7F3E3B"/>
<path d="M141.381 139.697C141.381 139.697 146.806 139.919 152.854 138.204L156.832 146.283C156.832 146.283 180.946 141.952 184.023 149.387C186.646 155.725 186.752 194.801 186.752 194.801L180.062 195.625C180.062 195.625 172.71 167.163 172.74 157.743C172.743 157.001 171.902 156.569 171.316 157.024C167.604 159.909 157.744 166.142 142.815 165.18C140.503 165.03 137.804 164.531 138.49 156.985C139.177 149.438 141.381 139.697 141.381 139.697Z" fill="#3D342F"/>
<path opacity="0.2" d="M154.749 161.154C161.366 158.219 170.546 150.193 174.79 147.209C176.009 146.352 177.12 145.902 178.09 145.685C174.406 144.887 169.695 144.933 165.638 145.226L156.009 149.479L140.549 156.367L138.642 161.828C139.306 164.77 141.158 165.073 142.816 165.18C149.735 165.626 155.549 164.52 160.182 162.924C159.414 162.996 148.36 163.988 154.749 161.154Z" fill="black"/>
<path d="M200.859 168.516L209.137 176.88L212.343 174.345L205.971 164.757L200.859 168.516Z" fill="#7F3E3B"/>
<path d="M211.751 173.203L208.023 176.057C207.862 176.181 207.807 176.4 207.893 176.584L209.785 180.663C209.95 181.026 210.378 181.186 210.741 181.021C210.788 181 210.832 180.974 210.872 180.943C212.397 179.735 213.705 178.599 215.63 177.131C217.9 175.395 217.532 176.108 220.229 174.104C221.852 172.896 220.749 170.843 219.998 171.275C216.579 173.269 214.977 172.999 212.919 172.802C212.495 172.788 212.078 172.93 211.751 173.203Z" fill="#263238"/>
<path d="M147.215 139.216C136.995 140.903 130.912 139.317 130.912 139.317C130.912 139.317 123.629 165.49 139.697 165.38C146.816 165.331 149.775 162.539 154.4 159.825C164.932 153.642 173.625 144.49 177.694 145.079C183.549 145.928 180.233 152.879 204.103 172.315L209.057 167.962C209.057 167.962 188.427 130.921 177.598 130.995C167.162 131.066 150.372 144.178 148.168 144.192C145.963 144.208 147.215 139.216 147.215 139.216Z" fill="#3D342F"/>
<path opacity="0.2" d="M180.957 146.585L180.949 146.589C182.413 147.248 183.512 148.153 184.024 149.387C184.332 150.132 184.605 151.331 184.848 152.865C185.524 153.842 186.319 154.926 187.265 156.121C186.644 148.27 180.957 146.585 180.957 146.585Z" fill="black"/>
<path d="M186.376 200.512L181.69 200.792C181.487 200.804 181.32 200.955 181.287 201.155L180.573 205.594C180.506 205.988 180.771 206.36 181.165 206.426C181.216 206.434 181.267 206.437 181.318 206.435C183.257 206.286 184.977 206.078 187.395 205.938C190.247 205.771 189.543 206.155 192.9 206.004C194.922 205.911 195.156 203.592 194.292 203.53C190.342 203.269 189.166 202.148 187.57 200.834C187.225 200.585 186.8 200.47 186.376 200.512Z" fill="#263238"/>
<path d="M130.692 139.912C130.692 139.912 144.703 142.571 153.997 140.254C153.997 140.254 151.547 136.624 151.799 129.704C152.045 122.925 155.646 115.015 149.568 106.316C149.328 105.972 148.926 105.771 148.501 105.771C144.9 105.77 128.117 105.923 127.615 108.827C126.974 112.532 133.561 120.984 130.692 139.912Z" fill="#EA6F32"/>
<path opacity="0.2" d="M133.192 122.027C132.083 115.532 129.782 110.036 129.782 110.036L129.446 112.629L128.572 113.703C129.951 118.14 132.152 125.095 131.17 135.94C134.868 135.169 139.618 129.829 139.618 129.829L137.889 125.164C135.421 126.272 133.792 125.544 133.192 122.027Z" fill="black"/>
<path d="M145.962 123.44L141.617 127.587L139.793 124.569L144.334 121.282L145.962 123.44Z" fill="#7F3E3B"/>
<path d="M124.983 120.357C124.535 117.658 124.374 110.886 127.175 108.737C129.975 106.588 130.973 112.469 131.605 117.009C132.237 121.55 132.286 127.62 134.637 126.677C136.989 125.734 140.922 123.032 140.922 123.032L143.244 126.775C143.244 126.775 134.323 136.12 130.998 133.363C127.672 130.605 125.551 123.779 124.983 120.357Z" fill="#EA6F32"/>
<path opacity="0.7" d="M139.925 123.696L142.291 127.722C142.885 127.15 143.243 126.775 143.243 126.775L140.922 123.032C140.922 123.032 140.532 123.3 139.925 123.696Z" fill="white"/>
<path d="M121.236 204.445H172.655C176.189 204.445 179.055 199.993 179.055 194.502C179.055 189.01 176.19 184.558 172.655 184.558H121.236V204.445Z" fill="#BDAC91"/>
<path d="M121.236 182.96C138.07 182.96 154.931 182.656 171.762 182.96C183.292 183.168 183.912 205.268 172.603 206.044C164.72 206.585 156.612 206.044 148.713 206.044C139.555 206.044 130.396 206.044 121.237 206.044C119.18 206.044 119.177 202.848 121.237 202.848C137.192 202.848 153.147 202.848 169.102 202.848C172.795 202.848 175.436 202.806 176.863 198.45C178.099 194.681 177.709 186.989 172.655 186.156C172.11 186.066 171.469 186.156 170.923 186.156C162.224 186.156 153.524 186.156 144.826 186.156C136.963 186.156 129.1 186.156 121.237 186.156C119.18 186.156 119.176 182.96 121.236 182.96Z" fill="#C5614A"/>
<path d="M165.468 194.461C165.468 194.461 170.742 196.856 170.812 207.469L168.725 205.944L166.618 207.484C166.552 196.858 161.273 194.461 161.273 194.461H165.468Z" fill="#C5614A"/>
<path d="M160.945 181.517H121.128C118.391 181.517 116.172 178.069 116.172 173.816C116.172 169.564 118.391 166.116 121.128 166.116H160.945V181.517Z" fill="#BDAC91"/>
<path d="M160.945 164.879C147.909 164.879 134.851 164.644 121.818 164.879C112.89 165.04 112.41 182.154 121.167 182.755C127.272 183.174 133.551 182.755 139.667 182.755C146.76 182.755 153.852 182.755 160.945 182.755C162.537 182.755 162.54 180.28 160.945 180.28C148.589 180.28 136.234 180.28 123.878 180.28C121.019 180.28 118.974 180.248 117.868 176.875C116.912 173.956 117.213 167.999 121.127 167.355C121.549 167.285 122.045 167.355 122.469 167.355C129.205 167.355 135.942 167.355 142.678 167.355C148.767 167.355 154.856 167.355 160.945 167.355C162.538 167.354 162.54 164.879 160.945 164.879Z" fill="#C5614A"/>
<path d="M126.426 171.705C126.426 171.705 121.952 173.738 121.893 182.742L123.663 181.448L125.451 182.754C125.507 173.739 129.986 171.705 129.986 171.705L126.426 171.705Z" fill="#3D342F"/>
<path d="M143.997 91.1737H143.365C143.365 89.3048 143.949 88.4717 145.259 88.4717V89.1037C144.757 89.1031 143.997 89.1031 143.997 91.1737Z" fill="#407BFF"/>
<path d="M148.435 94.131C148.435 96.2461 147.922 97.9603 145.686 97.9603C143.451 97.9603 142.938 96.2455 142.938 94.131C142.938 92.0159 143.451 90.3017 145.686 90.3017C147.922 90.3017 148.435 92.0165 148.435 94.131Z" fill="#EA6F32"/>
<path opacity="0.6" d="M144.722 90.9337C143.623 90.9337 142.605 91.3212 142.605 94.1317C142.605 96.9415 143.623 97.329 144.722 97.329C145.822 97.329 146.839 96.9415 146.839 94.1317C146.839 91.3206 145.822 90.9337 144.722 90.9337Z" fill="black"/>
<path d="M149.764 80.709C149.764 80.709 149.628 76.8638 146.924 78.7998C146.924 78.7998 145.357 74.834 142.836 78.3105C142.836 78.3105 138.993 77.4049 140.388 81.3457C140.388 81.3457 137.206 83.5316 140.853 85.066C140.853 85.066 141.645 88.4833 144.354 85.9477C144.354 85.9477 145.847 88.3225 147.781 85.8265C147.781 85.8265 150.515 86.278 149.757 83.4219C149.757 83.4219 151.527 81.9253 149.764 80.709Z" fill="#263238"/>
<path d="M142.58 83.1245C142.58 83.1245 143.673 82.3336 144.823 82.8107C145.974 83.2878 145.605 85.3445 145.605 85.3445L142.58 83.1245Z" fill="#C5614A"/>
<path d="M134.873 99.7068C134.873 99.7068 136.726 105.118 135.284 107.435C135.284 107.435 140.495 107.698 141.767 106C141.767 106 141.027 105.598 140.797 103.536C140.567 101.473 138.577 99.3296 134.873 99.7068Z" fill="#7F3E3B"/>
<path opacity="0.2" d="M140.797 103.536C140.584 101.625 138.857 99.6465 135.656 99.6672L135.439 99.861L135.207 100.272C135.207 100.272 137.175 105.553 141.119 104.991C140.988 104.635 140.868 104.172 140.797 103.536Z" fill="black"/>
<path d="M132.911 92.5168C133.532 97.4966 133.685 99.6173 136.369 102.024C140.407 105.646 146.385 103.798 147.269 98.7331C148.063 94.1749 146.918 86.8027 141.904 85.1178C138.328 83.896 134.438 85.8046 133.216 89.381C132.872 90.3889 132.768 91.462 132.911 92.5168Z" fill="#7F3E3B"/>
<path d="M131.976 96.5435C132.311 97.4539 132.995 98.1943 133.876 98.6008C135.048 99.1297 135.827 98.1297 135.664 96.9213C135.518 95.8379 134.731 94.2511 133.475 94.2297C132.56 94.2419 131.828 94.9933 131.84 95.9086C131.843 96.1267 131.889 96.343 131.976 96.5435Z" fill="#7F3E3B"/>
<path d="M137.565 83.9405C137.565 83.9405 130.68 83.353 127.279 88.771C123.877 94.1889 134.873 99.7062 134.873 99.7062L137.566 91.5832C137.566 91.5832 139.824 90.9251 140.174 88.8362C140.174 88.8362 140.69 89.5869 139.824 90.9251C139.824 90.9251 145.55 91.2517 145.289 88.281C145.289 88.281 145.731 89.1299 145.298 89.8807C145.298 89.8807 147.082 89.8807 146.887 88.3139C146.692 86.7472 145.443 80.2196 137.565 83.9405Z" fill="#263238"/>
<path d="M127.5 88.8855C127.5 88.8855 129.361 89.2651 129.361 90.8928C129.361 92.5576 126.983 92.6533 126.983 92.6533L127.5 88.8855Z" fill="#C5614A"/>
<path d="M128.088 89.5218C128.088 89.5218 127.952 85.6766 125.248 87.6126C125.248 87.6126 123.681 83.6468 121.16 87.1233C121.16 87.1233 117.316 86.2177 118.712 90.1586C118.712 90.1586 115.53 92.3444 119.177 93.8788C119.177 93.8788 119.969 97.2962 122.678 94.7605C122.678 94.7605 124.171 97.1353 126.105 94.6387C126.105 94.6387 128.839 95.0902 128.081 92.2341C128.081 92.2341 129.851 90.7381 128.088 89.5218Z" fill="#263238"/>
<path d="M146.077 88.2365C146.056 88.0714 146.023 87.8489 145.973 87.5918C144.921 85.5565 142.752 83.4645 138.292 84.1238C130.124 85.3316 131.03 92.7794 131.03 92.7794H134.063C134.063 92.7794 133.038 86.4212 139.019 84.9885C143.025 84.0288 145.083 86.3907 146.087 88.4169C146.084 88.3584 146.085 88.3011 146.077 88.2365Z" fill="#EA6F32"/>
<path d="M132.749 99.6586C134.267 99.6586 135.498 97.9442 135.498 95.8293C135.498 93.7144 134.267 92 132.749 92C131.231 92 130 93.7144 130 95.8293C130 97.9442 131.231 99.6586 132.749 99.6586Z" fill="#EA6F32"/>
<path d="M140.174 109.265C144.994 108.588 142.71 106.578 141.789 105.91C139.664 105.999 137.345 106.141 135.207 106.373C135.207 106.375 134.362 110.08 140.174 109.265Z" fill="#7F3E3B"/>
<path d="M167.669 112.396L166.658 113.04C166.277 113.282 166.037 113.692 166.013 114.143L165.903 116.246C165.858 117.087 166.224 117.898 166.884 118.421L167.293 118.745C169.043 117.793 170.233 115.474 170.233 115.474L170.645 114.85C171.012 114.295 170.885 113.588 170.353 113.226L169.129 112.392C168.706 112.105 168.125 112.106 167.669 112.396Z" fill="#7F3E3B"/>
<path d="M149.611 124.354H146.576C145.951 124.354 145.553 123.847 145.686 123.223L147.372 115.292C147.505 114.667 148.118 114.161 148.743 114.161H151.778C152.403 114.161 152.801 114.668 152.669 115.292L150.982 123.223C150.85 123.848 150.236 124.354 149.611 124.354Z" fill="#407BFF"/>
<path opacity="0.3" d="M149.611 124.354H146.576C145.951 124.354 145.553 123.847 145.686 123.223L147.372 115.292C147.505 114.667 148.118 114.161 148.743 114.161H151.778C152.403 114.161 152.801 114.668 152.669 115.292L150.982 123.223C150.85 123.848 150.236 124.354 149.611 124.354Z" fill="white"/>
<path d="M150.058 124.354H147.022C146.398 124.354 145.999 123.847 146.132 123.223L147.818 115.292C147.951 114.667 148.565 114.161 149.189 114.161H152.225C152.849 114.161 153.248 114.668 153.115 115.292L151.429 123.223C151.296 123.848 150.682 124.354 150.058 124.354Z" fill="#407BFF"/>
<path opacity="0.7" d="M150.058 124.354H147.022C146.398 124.354 145.999 123.847 146.132 123.223L147.818 115.292C147.951 114.667 148.565 114.161 149.189 114.161H152.225C152.849 114.161 153.248 114.668 153.115 115.292L151.429 123.223C151.296 123.848 150.682 124.354 150.058 124.354Z" fill="white"/>
<path d="M148.852 116.507H149.147C149.566 116.507 149.978 116.167 150.067 115.748L150.13 115.453C150.219 115.034 149.951 114.694 149.532 114.694H149.238C148.818 114.694 148.406 115.034 148.317 115.453L148.255 115.748C148.165 116.167 148.433 116.507 148.852 116.507Z" fill="#407BFF"/>
<path d="M149.581 115.147C149.544 115.321 149.374 115.462 149.2 115.462C149.026 115.462 148.915 115.321 148.952 115.147C148.99 114.973 149.16 114.833 149.334 114.833C149.508 114.833 149.619 114.973 149.581 115.147Z" fill="#263238"/>
<path d="M149.388 116.053C149.351 116.227 149.181 116.368 149.007 116.368C148.833 116.368 148.722 116.227 148.759 116.053C148.796 115.88 148.967 115.739 149.14 115.739C149.315 115.739 149.426 115.88 149.388 116.053Z" fill="#263238"/>
<path d="M149.636 121.99L148.992 123.001C148.75 123.381 148.34 123.622 147.889 123.645L145.786 123.756C144.945 123.801 144.134 123.435 143.611 122.775L143.287 122.366C144.239 120.616 146.558 119.426 146.558 119.426L147.182 119.014C147.737 118.647 148.444 118.773 148.806 119.305L149.64 120.53C149.928 120.953 149.926 121.534 149.636 121.99Z" fill="#7F3E3B"/>
<path d="M114.546 174.813C113.32 174.813 108.972 174.649 106.628 172.422C105.65 171.493 105.143 170.32 105.122 168.937C105.067 165.288 108.066 164.812 112.216 164.152C115.702 163.598 120.04 162.909 124.903 160.359C129.25 158.079 131.919 146.844 132.62 127.87C133.154 113.44 132.341 99.5343 132.333 99.3948L133.115 99.3491C133.25 101.629 136.317 155.257 125.266 161.052C120.29 163.662 115.694 164.392 112.339 164.926C107.846 165.64 105.862 166.076 105.905 168.924C105.923 170.089 106.347 171.075 107.166 171.854C109.615 174.181 114.785 174.032 114.84 174.025L114.868 174.809C114.839 174.809 114.726 174.813 114.546 174.813Z" fill="#3D342F"/>
<path d="M114.909 173.5H112.273C112.001 173.5 111.78 173.72 111.78 173.992V174.542C111.78 174.814 112.001 175.035 112.273 175.035H114.86C114.846 174.523 114.863 174.01 114.909 173.5Z" fill="black"/>
<path opacity="0.2" d="M153.996 140.254C153.996 140.254 146.761 141.686 137.102 140.792L148.168 144.193L154.2 140.938L153.996 140.254Z" fill="black"/>
<path d="M247.53 90H241.47C240.592 90 239.91 89.2722 240.01 88.4422L240.423 85H248.577L248.99 88.4422C249.09 89.2722 248.408 90 247.53 90Z" fill="#313333"/>
<path d="M249.056 85.733H239.945C239.519 85.733 239.174 85.388 239.174 84.9628V84.1436H249.827V84.9628C249.826 85.388 249.481 85.733 249.056 85.733Z" fill="#263238"/>
<path d="M239.625 84.5048C239.488 84.5048 239.358 84.427 239.296 84.2944L231.43 67.2406C231.346 67.0596 231.426 66.8454 231.607 66.7611C231.789 66.6781 232.003 66.7565 232.086 66.9381L239.953 83.992C240.037 84.1723 239.958 84.3872 239.776 84.4708C239.727 84.4943 239.676 84.5048 239.625 84.5048Z" fill="#263238"/>
<path d="M249.375 84.5049C249.325 84.5049 249.273 84.4944 249.224 84.4716C249.043 84.3873 248.963 84.173 249.047 83.9927L256.914 66.9389C256.998 66.7573 257.212 66.6776 257.393 66.7618C257.574 66.8461 257.654 67.0604 257.57 67.2413L249.703 84.2945C249.643 84.4271 249.511 84.5049 249.375 84.5049Z" fill="#263238"/>
<g opacity="0.5">
<path d="M249.056 85.733H239.945C239.519 85.733 239.174 85.388 239.174 84.9628V84.1436H249.827V84.9628C249.826 85.388 249.481 85.733 249.056 85.733Z" fill="#3D342F"/>
<path d="M239.625 84.5048C239.488 84.5048 239.358 84.427 239.296 84.2944L231.43 67.2406C231.346 67.0596 231.426 66.8454 231.607 66.7611C231.789 66.6781 232.003 66.7565 232.086 66.9381L239.953 83.992C240.037 84.1723 239.958 84.3872 239.776 84.4708C239.727 84.4943 239.676 84.5048 239.625 84.5048Z" fill="#3D342F"/>
<path d="M249.375 84.5049C249.325 84.5049 249.273 84.4944 249.224 84.4716C249.043 84.3873 248.963 84.173 249.047 83.9927L256.914 66.9389C256.998 66.7573 257.212 66.6776 257.393 66.7618C257.574 66.8461 257.654 67.0604 257.57 67.2413L249.703 84.2945C249.643 84.4271 249.511 84.5049 249.375 84.5049Z" fill="#3D342F"/>
</g>
<path d="M244.5 50C237.053 50 231.016 56.1103 231 63.6527L231.033 63.6818C231.033 63.6818 231.033 65 244.535 65C258.036 65 257.967 63.6818 257.967 63.6818L258 63.6507C257.983 56.109 251.946 50 244.5 50Z" fill="white"/>
<path d="M257.966 63.0309C257.966 63.0309 258.035 64.3408 244.535 64.3408C231.034 64.3408 231.034 63.0309 231.034 63.0309L231.001 63.002C231.001 63.0118 231 63.0211 231 63.0309C231 69.0726 236.532 71.6885 240.328 75.9577C241.565 77.3492 241.831 80 241.831 80H247.169C247.169 80 247.435 77.3492 248.672 75.9577C252.469 71.6878 258 69.0726 258 63.0309C258 63.0204 257.999 63.0105 257.999 63L257.966 63.0309Z" fill="#C5614A"/>
<path d="M244.5 50C241.463 50 239 56.1255 239 63.6818C239 64.1035 239.013 64.5048 239.034 64.8947C240.534 64.9596 242.34 65 244.532 65C246.696 65 248.481 64.9609 249.966 64.8974C249.987 64.5067 250 64.1042 250 63.6818C250.001 56.1255 247.538 50 244.5 50Z" fill="#C5614A"/>
<path d="M244.535 64.8013C242.201 64.8013 240.28 64.7614 238.683 64.6974C238.978 69.8642 241.16 72.3904 242.692 76.3362C243.228 77.7179 243.344 80.3499 243.344 80.3499H245.658C245.658 80.3499 245.772 77.7179 246.309 76.3362C247.841 72.391 250.021 69.8648 250.317 64.7C248.736 64.7627 246.837 64.8013 244.535 64.8013Z" fill="white"/>
<path d="M175.791 90.7211L201.042 85.7041C201.431 85.6267 201.756 86.0046 201.619 86.3775L192.801 110.564C192.668 110.93 192.19 111.017 191.937 110.721L175.504 91.5511C175.251 91.2561 175.41 90.7967 175.791 90.7211Z" fill="#C5614A"/>
<path d="M179.041 102.057L173.562 105.008L176.733 104.035L170.807 108.448L176.968 105.269L169 112.1L177.011 106.856L171.358 113.316L178.708 107.044L174.571 112.072L179.693 107.681L177.732 112.048L182.096 105.62L179.041 102.057Z" fill="#C9C9C8"/>
<path opacity="0.5" d="M181.481 104.903L178.005 109.127L179.693 107.681L182.096 105.62L181.481 104.903Z" fill="white"/>
<path opacity="0.8" d="M174.793 110.372L181.363 104.765L179.751 102.884L176.968 105.269L172.435 109.156L180.447 103.912L174.793 110.372Z" fill="white"/>
<path opacity="0.3" d="M179.618 102.73L179.041 102.057L178.426 102.388L175.851 104.306L176.733 104.035L175.93 104.633L179.618 102.73Z" fill="white"/>
<path d="M182.231 106.668L185.073 102.714L182.369 99.5595L178.027 101.763C178.698 103.816 180.153 105.613 182.231 106.668Z" fill="#263238"/>
<path opacity="0.2" d="M182.369 99.5594C182.369 99.5594 181.717 99.8903 181.353 100.075C181.996 101.493 183.034 102.742 184.407 103.64L185.073 102.714L182.369 99.5594Z" fill="white"/>
<path opacity="0.4" d="M180.261 100.629C179.986 100.768 179.709 100.909 179.445 101.043C180.198 102.782 181.464 104.308 183.159 105.375L183.693 104.632C182.274 103.514 181.12 102.149 180.261 100.629Z" fill="white"/>
<path d="M185.996 104.965C183.172 103.533 181.197 101.091 180.285 98.303L198.596 82.6067C201.736 79.9151 205.67 78.7506 209.492 79.0443C209.198 82.8663 207.446 86.5762 204.306 89.2678L185.996 104.965Z" fill="white"/>
<path d="M198.255 92.9314C196.901 94.0922 194.862 93.9356 193.701 92.581C192.54 91.2263 192.697 89.1874 194.051 88.0265C195.405 86.8657 197.445 87.0223 198.606 88.3769C199.767 89.7315 199.61 91.7705 198.255 92.9314Z" fill="#C9C9C8"/>
<path d="M193.701 92.5816C192.594 91.2898 192.688 89.3769 193.874 88.1954C193.809 88.2435 193.744 88.2911 193.681 88.3447C192.326 89.5055 192.17 91.5445 193.33 92.8991C194.491 94.2538 196.53 94.4104 197.885 93.2495C197.948 93.1959 198.005 93.1386 198.062 93.0813C196.714 94.0722 194.809 93.8729 193.701 92.5816Z" fill="#C5614A"/>
<path d="M197.64 92.2136C196.682 93.0344 195.24 92.9235 194.419 91.9661C193.599 91.0082 193.71 89.5664 194.667 88.7456C195.625 87.9248 197.067 88.0357 197.887 88.993C198.708 89.9503 198.597 91.3921 197.64 92.2136Z" fill="white"/>
<path d="M194.35 91.8668L198.299 89.7139C198.214 89.475 198.089 89.2471 197.92 89.0399L193.983 91.1867C194.061 91.4275 194.188 91.656 194.35 91.8668Z" fill="#C9C9C8"/>
<path d="M194.995 92.4359L198.429 90.5633C198.434 90.4207 198.426 90.2782 198.405 90.1362L194.649 92.1843C194.758 92.2806 194.873 92.364 194.995 92.4359Z" fill="#C9C9C8"/>
<path fill-rule="evenodd" clip-rule="evenodd" d="M137.454 36.016C138.999 36.1887 140.85 36.2102 143.06 35.9873C145.707 35.7203 147.644 36.1111 149.031 36.8846C150.288 36.0945 155.616 33.0927 157.877 37.3815C159.449 40.3647 158.832 42.65 158.266 44.7448C157.907 46.0771 157.568 47.3323 157.826 48.6409C158.491 52.0065 160.312 54.0168 160.312 54.0168C160.312 54.0168 159.776 53.9699 159.032 53.7615C157.78 52.4337 157.155 50.8066 157.155 50.8066C157.306 51.8072 157.73 52.7389 158.147 53.4611C157.632 53.2533 157.083 52.9711 156.571 52.5872C155.614 50.6226 155.111 47.4423 155.111 47.4423C154.959 48.8457 155.406 50.7567 155.676 51.7444C155.192 51.1686 154.81 50.4495 154.626 49.5513C154.408 48.4893 154.371 47.2314 154.333 45.9395C154.231 42.4401 154.121 38.6919 150.381 37.9156C152.939 40.5559 152.245 45.0445 151.046 46.6672C150.966 46.7758 150.899 46.882 150.845 46.9861C151.114 47.7283 151.959 48.3704 152.806 49.0145C153.757 49.7377 154.712 50.4634 154.86 51.3362C154.89 51.5138 154.919 51.6913 154.948 51.8679L154.948 51.8684L154.948 51.8689C155.268 53.8148 155.569 55.6449 156.891 56.1929C158.334 56.7907 157.949 58.9302 157.949 58.9302C157.949 58.9302 160.633 59.8351 159.932 62.7282C159.993 63.412 159.839 64.2568 159.309 65.2909C159.309 65.2909 155.211 63.1782 153.582 59.1703C153.283 58.4335 153.04 57.7588 152.819 57.1438L152.819 57.1434L152.819 57.1429L152.818 57.1423L152.818 57.1422C151.836 54.4129 151.277 52.8577 148.06 52.2521C144.145 51.515 140.806 47.1454 140.76 47.0846C140.741 47.0907 138.438 47.8218 135.237 48.0931L135.247 48.0919L135.235 48.0929L135.237 48.0931C132.381 48.335 128.808 48.2101 125.504 46.8756C125.178 46.7439 124.862 46.6098 124.558 46.4733C124.202 46.3143 123.861 46.1521 123.534 45.987C122.888 46.3969 122.225 46.6494 121.662 46.5496C120.767 46.391 118.171 45.5742 116.274 44.9583L115.184 46.7251C115.184 46.7251 114.829 47.9219 115.756 48.2119L116.701 48.2924C116.701 48.2924 117.189 50.7664 116.058 52.1296L114.197 50.1315C114.197 50.1315 114.024 49.8395 113.82 49.4217C113.915 50.1601 114.044 52.064 113.085 53.221L111.094 51.0833C111.094 51.0833 109.609 48.5812 110.099 47.6044C110.173 47.4577 110.287 47.2156 110.43 46.9103L110.43 46.9103C111.243 45.1816 113.007 41.4279 113.807 41.5149C113.979 41.5336 114.257 41.5909 114.6 41.6616L114.601 41.6616C114.97 41.7377 115.416 41.8294 115.887 41.9056C116.216 41.4497 116.513 41.1644 116.733 41.1883C116.894 41.2058 117.154 41.2594 117.476 41.3255C117.709 41.3736 117.974 41.4282 118.258 41.4806C117.347 39.8025 117.353 38.0445 118.182 36.3419C119.991 32.626 122.013 28.0002 121.121 26.5213C121.121 26.5213 118.276 26.4384 117.615 25.4317L115.862 25.283C115.862 25.283 113.239 27.3915 111.988 25.3391C111.988 25.3391 110.051 21.7578 113.049 21.6274L118.124 19.433C118.124 19.433 119.159 18.6644 120.495 18.2035L119.849 15.6427C121.24 14.4033 129.321 17.9949 130.538 25.149C130.899 27.2698 130.637 28.9453 130.27 30.1105C130.285 30.8945 130.257 31.7263 130.176 32.6083C130.176 32.6083 130.41 33.039 131.049 33.6C132.719 32.2578 135.973 28.9198 134.33 24.2715C132.162 18.1412 141.163 12.5307 153.837 8C153.837 8 155.569 12.371 144.687 15.9791L153.058 14.4624C153.058 14.4624 151.732 20.0114 143.034 20.299L150.074 21.6C150.074 21.6 148.04 25.4037 141.855 23.7267L145.87 26.7559C145.87 26.7559 144.61 28.8022 142.396 27.8065C142.396 27.806 142.174 34.843 137.454 36.016ZM114.118 44.2479C114.118 44.2479 114.248 44.2917 114.475 44.3673C114.128 45.0594 113.812 45.7317 113.579 46.2272C113.444 46.5144 113.337 46.7422 113.268 46.8798C113.009 47.3941 113.337 48.3609 113.672 49.1071L112.762 49.0297C111.77 48.7195 112.15 47.4392 112.15 47.4392L114.118 44.2479Z" fill="#8D8D8D"/>
<path d="M99.5308 104.667C96.6108 105.806 99.0282 95.787 90.5288 96.0035C82.0294 96.2199 81.2671 103.151 81.2671 103.151C81.2671 103.151 75.2452 98.1695 70.6525 101.419C66.0599 104.668 68.7993 105.967 65.0232 105.967C61.2471 105.967 56.6712 105.95 56.0058 108.124C55.3404 110.299 112 110.931 112 108.124C112 105.318 109.156 105.967 107.406 105.967C105.656 105.966 106.75 101.851 99.5308 104.667Z" fill="#E7E7E7"/>
<path d="M233.972 118.906C230.687 120.207 233.407 108.757 223.845 109.004C214.283 109.251 213.425 117.173 213.425 117.173C213.425 117.173 206.651 111.48 201.484 115.193C196.317 118.906 199.399 120.392 195.151 120.392C190.903 120.392 185.755 120.371 185.007 122.856C184.258 125.342 248 126.064 248 122.856C248 119.649 244.801 120.392 242.832 120.392C240.862 120.392 242.094 115.688 233.972 118.906Z" fill="white"/>
</svg>
