<svg width="510" height="221" viewBox="0 0 510 221" fill="none" xmlns="http://www.w3.org/2000/svg">
<ellipse cx="280" cy="198" rx="230" ry="23" fill="#92B5D8"/>
<path d="M364.5 59.5L244.5 156L290 161.5L364.5 59.5Z" fill="#878787"/>
<path d="M364.5 59.5L257 157.5L278.5 160L364.5 59.5Z" fill="#727272"/>
<path d="M131 23.5V0H164.5L158.5 10L164.5 23.5H131Z" fill="#DE774B"/>
<path d="M130 0L130 38" stroke="black" stroke-width="3"/>
<path d="M481 58H360V67.5L481 58Z" fill="#727272"/>
<circle cx="360" cy="63" r="10" fill="#6F4C22"/>
<circle cx="479" cy="59" r="5" fill="#6F4C22"/>
<path d="M358.985 200L370 158.025L185.25 147.683L167.727 127H0C9.01218 130.447 30.4411 139.41 44.0595 147.683C57.6779 155.957 79.1069 186.008 88.1191 200H358.985Z" fill="#D9D9D9"/>
<path d="M360 64L186 45" stroke="black" stroke-width="3"/>
<path d="M95.851 106.765L84.3036 136.935L136.792 164H215V153.352L176.684 106.765V51.3038H186.656V34H64.8829C49.3463 34 48.9614 45.5358 50.711 51.3038H64.8829L95.851 106.765Z" fill="#D9D9D9"/>
<path d="M104 109L78 51H128L132.5 109H104Z" fill="#878787"/>
<path d="M170.5 52.5H137.5L139.5 109H170.5V52.5Z" fill="#878787"/>
</svg>
