<svg width="1280" height="482" viewBox="0 0 1280 482" fill="none" xmlns="http://www.w3.org/2000/svg">
<path d="M674.513 181.511C797.901 181.511 917.177 151.341 991.21 117.4C1052.42 89.3374 1199.3 46.4129 1279.62 73.2223V339.458H671.334V181.511H674.513Z" fill="#738E51"/>
<path d="M1031 123.168C1031 120.406 1032.01 117.903 1033.04 116.076C1034.1 114.209 1034.96 113.311 1035.16 113.045C1035.32 113.39 1039.55 117.494 1039.29 124.119C1039.18 126.994 1038.24 132.713 1035.5 133.257V137.522H1034.38V133.116C1032.46 132.234 1031 128.115 1031 123.168Z" fill="#847D3D"/>
<path d="M1044.68 120.042C1044.68 116.548 1045.96 113.381 1047.26 111.071C1048.6 108.709 1049.69 107.572 1049.94 107.236C1050.15 107.673 1055.5 112.864 1055.17 121.246C1055.04 124.882 1053.84 132.117 1050.37 132.805V138.2H1048.96V132.626C1046.53 131.511 1044.68 126.301 1044.68 120.042Z" fill="#847D3D"/>
<path d="M671.333 181.513H674.512C715.292 181.513 755.621 178.217 794.017 172.58C824.144 168.156 854.701 165.133 885.454 163.497C911.139 162.131 936.505 160.513 959.844 158.601V155.425C956.952 154.203 954.763 148.497 954.763 141.642C954.763 137.816 956.286 134.348 957.827 131.818C959.413 129.231 960.704 127.986 961.004 127.618C961.258 128.096 967.603 133.781 967.218 142.961C967.054 146.944 965.634 154.867 961.518 155.62V158.464C1001.17 155.18 1034.81 151.039 1053.92 145.839C1080.08 138.72 1118.05 136.167 1156.62 135.881V134.961C1155.17 134.35 1154.08 131.497 1154.08 128.07C1154.08 126.157 1154.84 124.423 1155.61 123.158C1156.4 121.864 1157.05 121.242 1157.2 121.058C1157.32 121.297 1160.5 124.139 1160.3 128.729C1160.22 130.72 1159.51 134.682 1157.45 135.058V135.875C1159.85 135.859 1162.24 135.852 1164.64 135.854V130.901C1162.18 129.861 1160.31 125.005 1160.31 119.172C1160.31 115.916 1161.61 112.964 1162.92 110.811C1164.27 108.609 1165.37 107.55 1165.62 107.236C1165.84 107.643 1171.24 112.482 1170.91 120.294C1170.77 123.683 1169.56 130.426 1166.06 131.067V135.855C1170.2 135.862 1174.34 135.894 1178.46 135.946V132.818C1176 131.778 1174.14 126.922 1174.14 121.088C1174.14 117.832 1175.43 114.88 1176.75 112.727C1178.1 110.526 1179.19 109.466 1179.45 109.153C1179.66 109.56 1185.07 114.398 1184.74 122.21C1184.6 125.599 1183.39 132.342 1179.89 132.984V135.965C1218.69 136.506 1255.79 138.893 1279.62 140.752V219.173L671.332 210.347V181.513H671.333Z" fill="#ADB256"/>
<path d="M883.408 145.086C883.408 142.324 884.422 139.821 885.448 137.994C886.504 136.127 887.364 135.229 887.564 134.963C887.732 135.308 891.958 139.412 891.701 146.037C891.592 148.912 890.646 154.631 887.905 155.175V159.44H886.791V155.034C884.865 154.152 883.408 150.033 883.408 145.086Z" fill="#847D3D"/>
<path d="M1280 240.158H0V444.158H1280V240.158Z" fill="#EAC890"/>
<path d="M349.137 254.842C405.168 255.698 448.28 274.044 517.699 273.954C578.993 273.875 643.436 259.257 708.096 258.646C772.692 258.036 837.758 271.432 899.098 270.487C968.374 269.419 1028.6 248.249 1084.75 247.015C1190.83 244.683 1269.56 261.649 1279.62 260.17V216.326C1147.68 209.621 944.554 168.216 777.009 190.121C582.947 215.493 309.803 243.209 139.006 233.438V251.469C169.723 265.311 254.233 253.392 349.137 254.842Z" fill="#BB8E45"/>
<path d="M3 245.695C9.27929 251.138 92.7302 248.375 213.89 249.72C276.62 250.416 349.261 262.231 426.98 262.158C495.602 262.093 567.75 250.211 640.141 249.715C712.46 249.219 785.305 260.108 853.979 259.34C931.538 258.471 1003.66 245.921 1066.52 244.918C1185.31 243.023 1268.76 252.159 1280 250.952V170.158H3V245.695Z" fill="url(#paint0_linear_340_1981)"/>
<path opacity="0.36" d="M790.344 225.155C596.831 245.621 310.037 237.315 139 229.295V246.175C152.146 250.419 225.669 248.367 327.368 249.624C383.399 250.317 448.283 262.075 517.701 262.002C578.995 261.938 643.438 250.113 708.098 249.619C772.694 249.126 837.76 259.963 899.099 259.198C968.376 258.334 1032.8 245.844 1088.94 244.846C1195.04 242.959 1269.58 252.052 1279.62 250.851V215.384C1147.68 209.961 957.89 207.435 790.344 225.155Z" fill="#C7DEF4"/>
<path d="M1276.62 250.413C1269.8 249.682 1243.71 240.613 1201.41 243.264C1196.58 243.55 1192.67 243.794 1187.19 243.689C1177.87 243.632 1171.3 242.091 1163.53 241.573C1151.85 240.866 1136.66 242.552 1125.84 246.488L1125.93 247.211C1133.42 247.99 1155.73 248.191 1161.24 247.826C1172.88 247.205 1180.63 244.072 1201.24 247.251C1220.82 250.132 1252.22 253.795 1271.83 252.041C1273.42 251.868 1275.02 251.744 1276.62 251.228L1276.62 250.413Z" fill="#EDFDFC"/>
<path d="M1025.03 258.833C1029.95 256.982 1038.64 255.503 1043.81 254.968C1049.28 254.455 1049.63 254.487 1056.49 254.961C1068.74 255.922 1074.1 252.166 1087.64 249.124C1096.38 247.15 1101.82 245.984 1112.87 245.733C1117.16 245.665 1121.48 245.793 1125.84 246.49L1125.93 247.213C1119.65 250.036 1108.79 252.978 1101.34 254.37C1095.94 255.386 1085 256.328 1082.35 256.406C1078 256.578 1074.35 256.25 1069.5 256.572C1057.63 257.375 1054.48 261.028 1044.34 261.444C1037.99 261.692 1031.09 261.426 1025.04 259.561L1025.03 258.833Z" fill="#EDFDFC"/>
<path d="M1025.03 258.832C1022.39 258.509 1019.76 258.264 1017.14 257.999C971.629 252.545 963 249.509 930.752 247.556C900.766 246.023 897.011 248.254 867.114 250.533C845 252.508 844.64 251.011 811.935 256.008C801.028 257.713 791.505 259.063 784.536 260.025C777.201 261.036 769.76 260.954 762.446 259.8C746.137 257.226 717.665 253.54 701.798 252.884C675.227 251.628 678.875 250.93 661.3 247.52C660.924 247.463 658.695 247.087 656.492 246.852C647.678 245.823 629.993 246.87 620.412 248.918L620.406 249.647C630.026 251.958 647.001 253.096 656.102 253.206C667.763 253.518 675.363 251.23 696.423 256.649C720.047 262.549 747.088 266.859 771.325 262.646C772.35 262.468 773.393 262.431 774.427 262.541C789.465 264.139 805.729 263.172 820.606 261.268C842.39 258.551 851.749 254.907 867.37 252.87C888.27 250.327 899.388 251.779 906.697 252.147C954.72 256.465 988.819 264.029 1025.04 259.561L1025.03 258.832Z" fill="#EDFDFC"/>
<path d="M415.61 246.261C407.563 246.887 398.785 248.49 387.883 247.971C375.284 247.456 375.702 245.106 351.235 245.571C341.874 245.728 335.541 246.186 333.275 245.503V246.504C337.188 250.067 353.753 251.713 359.928 252.002C375.393 252.818 379.174 249.573 397.11 250.403C404.068 250.718 427.384 254.167 452.588 252.74C460.97 252.302 472.266 251.269 480.334 249.644L480.342 248.915C469.891 246.701 454.231 245.49 443.355 245.295C435.439 245.139 419.476 245.939 415.61 246.261Z" fill="#EDFDFC"/>
<path d="M994.721 39.2673C997.043 38.299 999.804 37.7344 1002.74 37.7034C1005.47 33.613 1011.82 30.8831 1019.04 30.8831C1023.38 30.8831 1027.48 31.8967 1030.65 33.6348C1034.18 28.5521 1042.28 25 1051.45 25C1057.48 25 1063.2 26.5009 1067.43 29.1579C1068.04 29.0971 1068.65 29.0666 1069.27 29.0666C1075.83 29.0666 1081.17 32.4359 1081.17 36.5773C1081.17 37.5073 1080.9 38.4169 1080.38 39.2673H994.721Z" fill="#F6F6F6"/>
<path d="M1141.72 14.2676C1144.04 13.2994 1146.8 12.7348 1149.74 12.7037C1152.47 8.6133 1158.82 5.8834 1166.04 5.8834C1170.38 5.8834 1174.48 6.89698 1177.65 8.63485C1181.18 3.55242 1189.28 0 1198.45 0C1204.48 0 1210.2 1.50088 1214.43 4.1579C1215.04 4.09738 1215.65 4.06665 1216.27 4.06665C1222.83 4.06665 1228.17 7.43592 1228.17 11.5773C1228.17 12.5073 1227.9 13.4169 1227.38 14.2673H1141.72V14.2676Z" fill="#F6F6F6"/>
<path d="M955.012 54.8122C954.01 54.7558 953 54.7219 951.982 54.7111C944.426 43.3701 926.81 35.8005 906.789 35.8005C894.775 35.8005 883.382 38.6109 874.597 43.43C864.821 29.3373 842.367 19.4883 816.926 19.4883C800.212 19.4883 784.361 23.65 772.613 31.0168C770.931 30.8486 769.232 30.7637 767.529 30.7637C749.324 30.7637 734.515 40.1057 734.515 51.5886C734.515 51.6143 734.515 51.6403 734.515 51.6659C734.539 55.7649 737.935 59.0474 742.034 59.0474H954.878C957.615 59.0474 957.746 54.9658 955.012 54.8122Z" fill="#F6F6F6"/>
<g opacity="0.58">
<path d="M1053.03 287.656C1053.04 287.655 1053.05 287.655 1053.05 287.654C1053.04 287.655 1053.04 287.655 1053.03 287.656Z" fill="#F7C9CF"/>
<path d="M1053.17 287.647C1053.17 287.647 1053.18 287.647 1053.18 287.646C1053.17 287.647 1053.16 287.648 1053.15 287.648C1053.15 287.648 1053.15 287.648 1053.15 287.648C1053.16 287.648 1053.16 287.648 1053.17 287.647Z" fill="#F7C9CF"/>
</g>
<path d="M637.363 397.961C637.363 333.453 465.586 281.158 253.687 281.158C156.429 281.158 67.6235 292.176 0 310.332V481.158H782.822C853.428 459.976 637.363 430.525 637.363 397.961Z" fill="#ADB256"/>
<path d="M1279.51 368.464C1279.51 368.464 1270.45 350.353 1250.25 359.803C1230.05 369.252 1238.37 389.725 1238.37 389.725C1238.37 389.725 1226.29 380.473 1216.98 389.725C1207.67 398.977 1208.27 414.529 1208.27 414.529C1208.27 414.529 1195.59 405.867 1187.67 410.198C1179.75 414.529 1181.73 443.072 1181.73 443.072H1279.51V368.464Z" fill="#ADB256"/>
<path d="M1101.32 444.072C1101.32 444.072 1089.91 427.572 1093.06 423.955C1096.21 420.339 1142.24 431.64 1142.24 431.64C1142.24 431.64 1126.11 409.941 1137.92 404.063C1149.72 398.186 1178.83 421.243 1178.83 421.243C1178.83 421.243 1170.97 397.536 1187.49 394.697C1204.02 391.857 1211.49 419.385 1211.49 419.385C1211.49 419.385 1207.27 400.294 1221.83 395.321C1236.39 390.348 1254.38 426.216 1254.38 426.216C1254.38 426.216 1238.25 386.433 1245.72 373.321C1253.2 360.211 1273.66 408.697 1273.66 408.697C1273.66 408.697 1267.31 379.21 1279.51 371.073V444.072H1182.38L1101.32 444.072Z" fill="#738E51"/>
<path d="M1070.57 201.256C1070.57 201.256 1036 275.861 1018.6 293.176C1001.21 310.49 984.354 324.632 984.354 324.632L997.324 330.49C997.324 330.49 1046.39 310.314 1054.23 296.864C1062.07 283.413 1060.32 261.285 1060.32 261.285L1070.57 201.256Z" fill="#DE774B"/>
<path d="M1047.2 317.909C1047.2 317.909 1040.64 329.256 1039.88 336.52C1037.49 359.317 1033.5 407.189 1033.05 443.577H1071.95C1069.99 415.347 1068.87 394.777 1069.7 393.947C1073.52 390.132 1077.2 416.214 1080.68 443.577H1124.67C1125.18 412.041 1124.26 368.897 1115.36 347.686C1101.36 314.311 1047.2 296.979 1047.2 317.909Z" fill="#375592"/>
<path d="M1055.47 313.572C1055.47 313.572 1035.71 321.87 1021.5 317.26C1007.3 312.65 1042.19 244.317 1046.72 227.925C1051.25 211.533 1070.37 202.485 1075.31 197.568C1080.25 192.65 1112.61 204.977 1134.43 219.319C1156.25 233.662 1153.37 331.193 1149.67 341.437C1145.96 351.682 1101.9 346.765 1101.9 346.765C1101.9 346.765 1108.1 338.114 1105.06 332.352C1100.42 323.536 1072.74 313.572 1055.47 313.572Z" fill="#DE774B"/>
<path d="M1148.43 213.684C1142.69 215.319 1128.65 211.034 1124.07 212.681C1116.04 215.546 1116.2 222.226 1112.61 230.588C1107.46 242.578 1110.04 334.778 1101.9 346.764C1101.9 346.764 1109 336.156 1104.5 329.442C1104.17 328.951 1069.23 313.571 1055.47 313.571C1055.47 313.571 1044.39 318.218 1032.87 318.612C1030.64 313.067 1029.62 304.99 1033.24 293.901C1041.02 270.076 1065.91 206.591 1075.31 197.567C1075.62 197.284 1075.89 197.051 1076.17 196.879C1084.81 191.248 1105.5 182.642 1129.9 187.867C1154.3 193.092 1164.24 209.197 1148.43 213.684Z" fill="#DE774B"/>
<path d="M1091.45 201.213C1082.27 198.943 1072.8 203.663 1069.13 212.345C1065.03 222.083 1059.91 234.03 1057.22 239.602C1052.28 249.847 1055.09 257.929 1056.74 261.822C1058.38 265.715 1058.43 279.916 1049.81 296.563C1036.46 322.349 1058.99 334.674 1085.18 336.518C1085.18 336.518 1101.53 336.705 1105.03 333.223C1105.03 333.223 1106.17 249.595 1109.08 242.14C1111.99 234.685 1127.54 220.608 1127.54 219.553C1127.54 218.604 1133.73 211.665 1091.45 201.213Z" fill="#EFBC51"/>
<path d="M1156.08 204.461C1156.08 204.461 1156.01 204.497 1155.87 204.565C1156.08 197.565 1112.33 186.111 1097.08 232.294C1093 244.677 1106.41 337.328 1101.9 346.749C1101.9 346.753 1101.9 346.758 1101.9 346.762C1101.9 346.762 1108.9 343.381 1110.75 308.958C1112.61 274.536 1100.24 233.825 1108.25 223.718C1115.29 214.834 1128.66 213.567 1129.61 215.217C1134.27 223.369 1153.33 234.129 1156.08 220.751C1156.08 220.751 1158.78 212.145 1156.08 204.461Z" fill="#DE774B"/>
<path d="M1136.92 224.867C1143.47 240.447 1139.85 299.663 1123.36 317.055C1106.86 334.447 1073.42 341.279 1073.42 341.279L1068 337.138C1068 337.138 1091.05 303.39 1095.57 285.791C1100.08 268.192 1099.29 227.092 1108.9 218.293C1118.5 209.493 1130.36 209.286 1136.92 224.867Z" fill="#DE774B"/>
<path d="M1068.02 195.439C1068.02 195.439 1073.15 198.959 1075.31 202.11C1079.81 208.672 1082.91 213.413 1080.78 221.065C1079.12 226.994 1077.2 235.693 1077.2 244.009C1077.2 258.563 1105.9 205.201 1105.9 205.201L1086.09 182.154L1068.02 195.439Z" fill="#6F4C22"/>
<path d="M1099.5 136.961C1099.5 136.961 1100.09 131.245 1103.61 120.718C1107.13 110.191 1119.84 102.576 1129.43 108.643C1139.02 114.709 1144.48 108.636 1153.67 101.299C1162.85 93.9624 1174.74 97.1108 1181.48 104.992C1188.22 112.873 1201.21 112.71 1198.68 129.741C1196.15 146.772 1176.19 157.11 1164.54 148.521C1152.89 139.933 1150.84 143.324 1142.05 151.055C1133.26 158.785 1111.76 145.64 1107.13 141.537C1102.51 137.433 1099.5 136.961 1099.5 136.961Z" fill="#423336"/>
<path d="M1057.48 147.751C1057.48 147.751 1051.05 151.286 1049.7 168.122C1048.35 184.957 1051.73 202.297 1058.67 203.813C1065.6 205.328 1082.69 195.227 1088.27 186.978C1093.85 178.728 1084.89 151.792 1075.75 147.751C1066.62 143.71 1057.48 147.751 1057.48 147.751Z" fill="#6F4C22"/>
<path d="M1105.36 134.619C1107.47 136.724 1111.45 146.404 1111.45 157.515C1111.45 168.627 1096.56 189.166 1092.67 190.85C1088.78 192.533 1072.93 182.154 1068.82 157.515C1067.85 151.703 1056.29 148.743 1056.29 148.743C1056.29 148.743 1054.95 137.818 1065.27 133.946C1075.58 130.074 1078.67 129.543 1086.96 127.186C1095.25 124.829 1101.38 130.663 1105.36 134.619Z" fill="#423336"/>
<path d="M1072.93 173.155C1072.93 173.155 1071.88 165.803 1075.92 165.803C1079.97 165.803 1084.82 173.977 1082.19 177.497C1079.56 181.017 1074.81 178.704 1074.81 178.704L1072.93 173.155Z" fill="#6F4C22"/>
<path d="M811.49 97.1981C807.504 98.1056 805.269 101.686 804.286 105.652C797.149 102.277 792.079 104.551 792.41 104.457C792.387 104.466 791.3 104.868 791.369 104.843C788.803 105.799 784.285 108.742 781.08 112.313C789.235 107.101 795.887 103.691 804.23 108.718C804.253 108.733 806.355 110.06 806.355 110.06C806.664 108.29 806.95 101.034 812.084 99.3926C815.999 98.1981 822.297 98.2732 826.408 98.3673C822.062 97.072 815.971 96.2574 811.49 97.1981Z" fill="#375592"/>
<path d="M963.991 13.7476C960.476 11.6583 956.389 12.714 952.946 14.9116C950.097 7.54859 944.856 5.70299 945.16 5.86331C945.138 5.8538 944.073 5.39629 944.14 5.42544C941.622 4.3504 936.319 3.37137 931.536 3.75158C941.038 5.5921 948.209 7.7032 950.792 17.0953C950.798 17.1216 951.408 19.5321 951.408 19.5321C952.851 18.4618 958.058 13.3997 962.91 15.7468C966.57 17.5785 971.083 21.9721 973.998 24.8725C971.74 20.9392 967.886 16.1521 963.991 13.7476Z" fill="#375592"/>
<path d="M733.175 91.0888C730.792 88.7794 727.366 88.846 724.235 89.9346C723.368 83.5858 719.575 81.1445 719.786 81.3283C719.77 81.3165 719.015 80.7554 719.062 80.7912C717.275 79.4697 713.272 77.7011 709.424 77.1035C716.581 80.3407 721.848 83.3538 722.124 91.2549C722.125 91.2767 722.153 93.2947 722.153 93.2947C723.493 92.7206 728.556 89.7008 731.946 92.4649C734.493 94.5985 737.232 98.9151 738.989 101.752C737.945 98.2225 735.8 93.7189 733.175 91.0888Z" fill="#375592"/>
<path d="M1021 315.158H1008V481.158H1021V315.158Z" fill="#473B1E"/>
<path d="M1060.47 426.279H964.529C960.37 426.279 956.998 422.915 956.998 418.763V331.795C956.998 327.644 960.37 324.279 964.529 324.279H1060.47C1064.63 324.279 1068 327.644 1068 331.795V418.763C1068 422.915 1064.63 426.279 1060.47 426.279Z" fill="#EDFDFC"/>
<path d="M974.228 328.002C974.734 325.553 975.911 321.179 978.008 319.773C978.821 319.228 979.809 319.007 980.777 318.839C984.733 318.151 992.78 317.862 996.474 319.381C998.617 320.262 1002 324.548 1002 326.746C1002 326.746 995.305 331.631 993.065 331.305C991.29 331.047 992.061 328.164 992.458 326.978C992.409 327.124 990.087 327.574 989.747 327.707C988.6 328.153 987.902 329.06 987.074 329.907C984.158 332.886 980.515 335.835 976.252 333.345C973.821 331.923 973.758 330.28 974.228 328.002Z" fill="#6F4C22"/>
<path d="M1067.13 350.495C1069.42 349.472 1073.43 347.376 1074.35 345.024C1074.71 344.112 1074.71 343.1 1074.66 342.119C1074.48 338.107 1073.02 330.189 1070.74 326.911C1069.42 325.01 1064.5 322.636 1062.35 323.111C1062.35 323.111 1059.03 330.703 1059.83 332.819C1060.47 334.497 1063.12 333.12 1064.19 332.475C1064.06 332.555 1064.12 334.919 1064.07 335.28C1063.88 336.496 1063.14 337.374 1062.5 338.366C1060.22 341.857 1058.13 346.052 1061.48 349.675C1063.4 351.741 1065.01 351.447 1067.13 350.495Z" fill="#6F4C22"/>
<path d="M1052.25 374.753C1052.87 374.114 1053.56 373.474 1054.46 373.244C1054.51 373.919 1054.55 374.596 1054.56 375.272C1054.57 375.701 1054.57 376.13 1054.51 376.555C1054.41 377.132 1054.2 377.686 1053.95 378.221C1053.61 378.933 1053.22 379.621 1052.76 380.277C1052.71 380.348 1052.66 380.422 1052.66 380.505C1052.66 380.582 1052.7 380.653 1052.73 380.723C1053.79 382.641 1054.58 384.763 1054.39 386.905C1053.83 386.687 1053.2 386.746 1052.61 386.655C1051.16 386.435 1050.08 385.38 1048.91 384.576C1048.14 384.044 1047.29 383.607 1046.45 383.174C1046.55 383.226 1047.64 381.738 1047.74 381.588C1048.12 381.012 1048.33 380.431 1048.48 379.778C1048.6 379.27 1048.9 378.881 1049.21 378.449C1049.64 377.847 1050.09 377.255 1050.56 376.678C1051.1 376.017 1051.66 375.373 1052.25 374.753Z" fill="#375592"/>
<path d="M1038.49 394.345C1038.93 394.249 1039.37 394.079 1039.73 393.825C1039.86 393.73 1039.8 393.538 1039.64 393.521C1038.94 393.448 1038.27 393.235 1037.68 392.897C1037.3 392.679 1036.94 392.407 1036.52 392.269C1036.1 392.13 1035.56 392.159 1035.27 392.474C1034.88 392.9 1035.05 393.954 1035.58 394.257C1036.29 394.658 1037.72 394.512 1038.49 394.345Z" fill="#375592"/>
<path d="M1044.63 387.751C1044.69 387.707 1044.76 387.661 1044.8 387.592C1044.83 387.543 1044.83 387.485 1044.83 387.43C1044.88 386.913 1044.85 386.387 1044.71 385.884C1044.59 385.451 1044.37 384.895 1043.95 384.632C1043.81 384.546 1043.62 384.587 1043.47 384.66C1043.07 384.863 1042.83 385.262 1042.58 385.622C1041.85 386.698 1040.85 387.603 1039.9 388.523C1039.79 388.628 1039.69 388.739 1039.66 388.885C1039.64 389 1039.58 389.071 1039.52 389.181C1039.43 389.376 1039.43 389.603 1039.67 389.699C1040.01 389.831 1040.41 389.487 1040.69 389.368C1041.53 389.001 1044.2 388.031 1044.63 387.751Z" fill="#375592"/>
<path d="M1050.68 381.331C1050.49 382.382 1049.85 383.337 1049.03 384.096C1048.96 384.166 1048.88 384.236 1048.78 384.265C1048.69 384.288 1048.59 384.282 1048.5 384.271C1048.17 384.232 1047.85 384.154 1047.53 384.041C1047.24 383.935 1046.94 383.795 1046.63 383.807C1046.32 383.82 1046.04 383.98 1045.78 384.143C1043.4 385.662 1041.77 387.887 1039.93 389.886C1037.89 392.097 1035.57 394.096 1033.11 395.902C1031.4 397.157 1029.59 398.311 1027.72 399.353C1025.46 400.611 1023.08 401.712 1020.55 402.407C1019.7 402.641 1018.83 402.825 1017.95 402.979C1016.97 403.157 1015.98 403.293 1014.98 403.414C1014.39 403.488 1013.79 403.555 1013.19 403.622C1012.34 403.719 1011.48 403.817 1010.62 403.91C1010.52 403.921 1010.42 403.932 1010.31 403.945C1008.3 404.166 1006.3 404.369 1004.28 404.522C1003.69 404.57 1003.09 404.611 1002.49 404.647C1002.48 404.647 1002.47 404.65 1002.46 404.65L1002.37 404.657C1002.18 404.667 1001.99 404.679 1001.8 404.689C1001.76 404.691 1001.72 404.693 1001.68 404.695C1001.05 404.73 1000.41 404.756 999.781 404.775C999.697 404.779 999.612 404.781 999.526 404.784C999.28 404.791 999.032 404.797 998.785 404.801C998.464 404.808 998.142 404.811 997.821 404.814C995.437 404.83 992.768 404.609 991.204 402.962C991.09 402.841 990.979 402.702 990.979 402.545C990.979 402.187 991.474 402.049 991.861 402.014C993.366 401.876 994.871 401.738 996.375 401.598C994.788 401.38 993.199 401.163 991.611 400.945C991.02 400.862 990.772 400.463 991.058 399.965C992.141 398.074 993.799 396.542 995.542 395.144C995.652 395.057 995.756 394.973 995.867 394.887C997.018 393.971 998.194 393.087 999.394 392.229C999.399 392.228 999.407 392.224 999.407 392.224C999.851 391.905 1000.3 391.595 1000.74 391.292C1002.71 389.945 1004.73 388.673 1006.82 387.485C1007.59 387.043 1008.37 386.613 1009.15 386.196C1014.23 383.486 1019.6 381.245 1025.17 379.522C1029.63 378.141 1034.05 377.464 1038.76 377.683C1039.88 377.737 1041.01 377.84 1042.12 378.037C1043.27 378.242 1044.43 378.689 1045.55 379.021C1046.54 379.314 1047.68 379.598 1048.59 379.127C1048.79 379.025 1048.97 378.893 1049.13 378.746C1049.23 378.653 1049.4 378.372 1049.53 378.333C1049.84 378.239 1050.17 378.833 1050.29 379.038C1050.46 379.33 1050.59 379.649 1050.65 379.975C1050.75 380.419 1050.76 380.885 1050.68 381.331Z" fill="#375592"/>
<path d="M1050.65 379.969C1050.49 380.123 1050.31 380.263 1050.13 380.394C1048.87 381.294 1047.27 381.693 1045.72 382.082C1042.72 382.832 1012.27 396.495 1010.32 397.106C1010.06 397.186 1009.8 397.259 1009.54 397.247C1009.22 397.234 1008.93 397.105 1008.65 396.977C1007.04 396.254 1005.42 395.527 1003.95 394.584C1003.33 394.187 1002.95 393.685 1002.43 393.202C1001.79 392.621 1001.25 391.962 1000.74 391.288C1001.87 390.513 1003.02 389.763 1004.19 389.041C1005.81 388.04 1007.46 387.09 1009.15 386.192C1014.23 383.482 1019.6 381.241 1025.17 379.518C1029.63 378.137 1034.05 377.46 1038.75 377.679C1039.88 377.733 1041.01 377.836 1042.12 378.033C1043.27 378.238 1044.43 378.685 1045.54 379.017C1046.54 379.311 1047.68 379.594 1048.59 379.123C1048.79 379.021 1048.97 378.889 1049.12 378.742C1049.23 378.649 1049.4 378.368 1049.53 378.329C1049.82 378.241 1050.12 378.755 1050.26 378.992C1050.27 379.007 1050.28 379.023 1050.29 379.036C1050.46 379.325 1050.58 379.642 1050.65 379.969Z" fill="#375592"/>
<path d="M1050.26 378.993C1049.92 379.265 1049.51 379.469 1048.99 379.575C1047.88 379.796 1046.73 379.559 1045.59 379.45C1041.24 379.025 1028.71 382.975 1026.67 383.702C1020.93 385.751 1015.35 388.076 1009.88 390.733C1009.34 390.995 1008.76 391.31 1008.57 391.843C1007.76 391.379 1006.96 390.915 1006.15 390.453C1005.46 390.059 1004.57 389.736 1004.19 389.045C1005.81 388.044 1007.46 387.094 1009.15 386.196C1014.23 383.486 1019.6 381.245 1025.16 379.522C1029.63 378.141 1034.05 377.464 1038.75 377.683C1039.88 377.737 1041.01 377.84 1042.12 378.037C1043.27 378.242 1044.43 378.689 1045.54 379.021C1046.54 379.314 1047.68 379.598 1048.59 379.127C1048.79 379.025 1048.97 378.893 1049.12 378.746C1049.22 378.653 1049.39 378.372 1049.53 378.333C1049.82 378.243 1050.12 378.758 1050.26 378.993Z" fill="#375592"/>
<path d="M1040.11 372.342C1040.07 372.379 1040.05 372.412 1040.03 372.434C1039.46 373.077 1039.02 374.074 1038.87 374.888C1038.78 375.435 1038.77 375.997 1038.87 376.546C1038.92 376.807 1038.97 377.121 1039.1 377.36C1039.18 377.512 1039.31 377.645 1039.15 377.773C1039.13 377.792 1039.11 377.809 1039.07 377.826C1038.95 377.89 1038.8 377.898 1038.66 377.899C1037.78 377.908 1036.91 377.822 1036.03 377.845C1034.78 377.882 1033.54 378.152 1032.32 378.422C1031.79 378.539 1031.22 378.649 1030.74 378.446C1030.72 378.44 1030.69 378.431 1030.67 378.42C1030.6 378.383 1030.52 378.331 1030.5 378.258C1030.43 378.014 1030.84 377.603 1030.98 377.412C1031.2 377.12 1031.44 376.838 1031.69 376.57C1032.21 376.031 1032.78 375.542 1033.39 375.099C1034.54 374.257 1035.83 373.58 1037.15 372.972C1038.02 372.566 1038.93 372.188 1039.89 372.007C1040.09 371.967 1040.24 372.19 1040.11 372.342Z" fill="#375592"/>
<path d="M1013.7 398.475C1013.58 399.041 1013.4 399.596 1013.18 400.13C1012.61 401.485 1011.73 402.793 1010.62 403.905C1010.52 403.917 1010.41 403.927 1010.31 403.94C1010.24 403.948 1010.17 403.953 1010.1 403.962C1007.78 404.202 1003.2 404.587 1002.49 404.644C1002.48 404.644 1002.46 404.647 1002.46 404.647L1002.36 404.654C1002.17 404.664 1001.99 404.676 1001.79 404.686C1001.76 404.688 1001.71 404.691 1001.67 404.692C1001.04 404.727 1000.41 404.753 999.777 404.772C999.693 404.776 999.608 404.778 999.522 404.781C999.276 404.788 999.028 404.794 998.781 404.798C998.46 404.805 998.138 404.808 997.817 404.811C995.433 404.827 992.764 404.606 991.2 402.959C991.086 402.838 990.975 402.699 990.975 402.542C990.975 402.184 991.47 402.046 991.857 402.011C993.362 401.873 994.867 401.735 996.371 401.595C994.784 401.377 993.195 401.161 991.607 400.942C991.016 400.86 990.769 400.46 991.054 399.963C992.137 398.071 993.795 396.539 995.538 395.141C995.648 395.054 995.752 394.97 995.863 394.884C997.016 393.993 998.278 393.169 999.39 392.226C999.395 392.225 999.403 392.221 999.403 392.221C999.847 391.902 1000.29 391.593 1000.74 391.289C1002.7 389.942 1004.73 388.67 1006.81 387.482C1008.37 388.359 1009.77 389.489 1010.98 390.743C1011.08 390.851 1011.18 390.963 1011.28 391.072C1012.25 392.13 1013.09 393.305 1013.53 394.625C1013.94 395.867 1013.96 397.196 1013.7 398.475Z" fill="#375592"/>
<path d="M994.873 398.865C996.938 397.986 1005.82 394.414 1008.18 393.476C1008.7 393.269 1009.35 392.979 1009.53 392.437C1009.75 391.787 1009.67 391.201 1009.3 390.606C1008.69 389.632 1007.49 388.994 1006.27 388.994C1005.2 388.994 1004.2 389.436 1003.28 389.914C1000.27 391.473 997.597 393.529 995.091 395.713C994.399 396.314 993.719 396.937 993.142 397.635C992.832 398.007 991.593 399.327 992.627 399.564C992.934 399.634 993.251 399.522 993.542 399.408C993.989 399.235 994.432 399.052 994.873 398.865Z" fill="#375592"/>
<path d="M1013.69 398.477C1013.58 399.042 1013.4 399.598 1013.18 400.131C1012.61 401.486 1011.73 402.795 1010.62 403.907C1010.52 403.919 1010.41 403.929 1010.3 403.942C1010.24 403.949 1010.17 403.955 1010.1 403.964C1015.16 397.772 1012.91 393.148 1011.28 391.072C1012.25 392.131 1013.09 393.305 1013.53 394.626C1013.94 395.869 1013.96 397.197 1013.69 398.477Z" fill="#375592"/>
<path d="M1028.53 400.235C1028.49 400.318 1028.44 400.399 1028.39 400.473C1028.2 400.731 1027.93 400.934 1027.65 401.11C1026.73 401.69 1025.62 402.026 1024.5 402.059C1024.01 402.075 1023.53 402.038 1023.06 401.972C1022.42 401.891 1021.79 401.76 1021.16 401.657C1020.6 401.565 1020.04 401.488 1019.48 401.476C1019.2 401.472 1018.32 401.689 1018.31 401.325C1018.3 400.851 1020.48 400.648 1021.13 400.572H1021.14C1021.18 400.568 1021.22 400.563 1021.25 400.559C1022.41 400.399 1023.58 400.294 1024.74 400.171C1024.99 400.145 1027.07 399.893 1028.08 399.723C1028.4 399.671 1028.66 399.96 1028.53 400.235Z" fill="#375592"/>
<path d="M1047.58 377.416C1047.64 377.477 1047.67 377.564 1047.66 377.653C1047.62 378.109 1047.37 378.505 1047.1 378.881C1046.98 379.061 1046.84 379.364 1046.57 379.325C1046.13 379.263 1045.71 379.178 1045.28 379.092C1044.95 379.025 1044.61 378.957 1044.31 378.82C1044.22 378.781 1044.12 378.72 1044.16 378.624C1044.19 378.544 1044.31 378.47 1044.38 378.414C1044.56 378.26 1044.76 378.119 1044.97 377.994C1045.38 377.744 1045.84 377.557 1046.33 377.445C1046.62 377.376 1046.93 377.336 1047.23 377.327C1047.31 377.325 1047.38 377.324 1047.46 377.346C1047.51 377.36 1047.55 377.385 1047.58 377.416Z" fill="#375592"/>
<path d="M1003.82 398.313C1003.82 398.951 1003.24 399.467 1002.52 399.467C1001.8 399.467 1001.22 398.951 1001.22 398.313C1001.22 397.676 1001.8 397.158 1002.52 397.158C1003.24 397.16 1003.82 397.676 1003.82 398.313Z" fill="#375592"/>
<path d="M1000.76 402.706C1000.48 402.561 1000.07 402.545 999.764 402.51C999.374 402.465 998.918 402.584 998.533 402.633C996.214 402.93 993.817 402.925 991.568 402.331C991.397 402.286 991.322 402.212 991.333 402.135C991.493 402.068 991.687 402.031 991.86 402.015C993.365 401.877 994.869 401.739 996.374 401.6C996.345 401.595 996.32 401.591 996.291 401.589C996.506 401.586 996.722 401.586 996.936 401.604C997.264 401.63 997.585 401.69 997.907 401.758C998.894 401.966 999.877 402.242 1000.76 402.706Z" fill="#375592"/>
<path d="M1048.55 351.468C1049.06 350.931 1049.65 350.394 1050.4 350.201C1050.45 350.767 1050.48 351.336 1050.49 351.904C1050.5 352.263 1050.5 352.623 1050.44 352.98C1050.36 353.464 1050.18 353.929 1049.97 354.378C1049.69 354.976 1049.36 355.553 1048.98 356.104C1048.93 356.164 1048.89 356.226 1048.89 356.295C1048.89 356.36 1048.92 356.42 1048.95 356.478C1049.84 358.088 1050.51 359.87 1050.34 361.667C1049.87 361.484 1049.34 361.534 1048.84 361.457C1047.63 361.273 1046.73 360.387 1045.74 359.712C1045.09 359.266 1044.38 358.9 1043.68 358.536C1043.76 358.58 1044.68 357.33 1044.76 357.205C1045.08 356.721 1045.25 356.233 1045.39 355.685C1045.49 355.259 1045.74 354.932 1046 354.57C1046.36 354.065 1046.73 353.568 1047.13 353.084C1047.58 352.528 1048.05 351.988 1048.55 351.468Z" fill="#375592"/>
<path d="M1036.99 367.913C1037.37 367.832 1037.73 367.69 1038.04 367.476C1038.15 367.397 1038.1 367.236 1037.96 367.221C1037.38 367.16 1036.81 366.981 1036.32 366.698C1035.99 366.515 1035.7 366.286 1035.34 366.17C1034.99 366.053 1034.54 366.078 1034.3 366.342C1033.97 366.7 1034.11 367.585 1034.56 367.839C1035.15 368.175 1036.35 368.053 1036.99 367.913Z" fill="#375592"/>
<path d="M1042.15 362.379C1042.2 362.342 1042.26 362.303 1042.29 362.246C1042.31 362.204 1042.32 362.155 1042.32 362.109C1042.36 361.676 1042.34 361.234 1042.22 360.812C1042.12 360.448 1041.93 359.982 1041.58 359.761C1041.46 359.689 1041.3 359.723 1041.18 359.784C1040.84 359.955 1040.64 360.29 1040.43 360.592C1039.81 361.495 1038.98 362.254 1038.18 363.027C1038.09 363.115 1038 363.209 1037.98 363.331C1037.96 363.427 1037.91 363.487 1037.86 363.58C1037.79 363.743 1037.79 363.933 1037.99 364.014C1038.27 364.125 1038.61 363.836 1038.84 363.736C1039.55 363.428 1041.79 362.614 1042.15 362.379Z" fill="#375592"/>
<path d="M1047.23 356.988C1047.07 357.871 1046.53 358.672 1045.85 359.309C1045.78 359.368 1045.72 359.427 1045.63 359.451C1045.56 359.471 1045.48 359.466 1045.4 359.456C1045.12 359.423 1044.85 359.358 1044.59 359.263C1044.34 359.174 1044.09 359.057 1043.83 359.067C1043.57 359.078 1043.33 359.212 1043.12 359.349C1041.12 360.624 1039.75 362.491 1038.2 364.169C1036.49 366.025 1034.55 367.703 1032.48 369.218C1031.04 370.271 1029.53 371.24 1027.96 372.115C1026.06 373.171 1024.06 374.095 1021.94 374.678C1021.22 374.874 1020.49 375.029 1019.76 375.159C1018.94 375.308 1018.1 375.422 1017.27 375.524C1016.77 375.586 1016.27 375.642 1015.77 375.698C1015.05 375.78 1014.33 375.862 1013.61 375.94C1013.52 375.95 1013.44 375.958 1013.34 375.969C1011.66 376.155 1009.97 376.325 1008.29 376.454C1007.79 376.494 1007.28 376.528 1006.78 376.559C1006.77 376.559 1006.76 376.561 1006.75 376.561L1006.68 376.567C1006.52 376.576 1006.36 376.585 1006.2 376.594C1006.17 376.595 1006.13 376.598 1006.1 376.599C1005.57 376.628 1005.04 376.65 1004.51 376.666C1004.44 376.67 1004.36 376.671 1004.29 376.673C1004.09 376.679 1003.88 376.684 1003.67 376.688C1003.4 376.694 1003.13 376.696 1002.86 376.699C1000.86 376.712 998.62 376.527 997.308 375.144C997.212 375.043 997.119 374.926 997.119 374.794C997.119 374.494 997.535 374.378 997.86 374.349C999.123 374.233 1000.39 374.117 1001.65 374C1000.32 373.816 998.983 373.635 997.649 373.452C997.154 373.382 996.946 373.046 997.186 372.629C998.094 371.042 999.486 369.755 1000.95 368.583C1001.04 368.509 1001.13 368.439 1001.22 368.367C1002.19 367.598 1003.18 366.856 1004.18 366.136C1004.19 366.135 1004.19 366.131 1004.19 366.131C1004.57 365.864 1004.94 365.604 1005.31 365.349C1006.96 364.219 1008.66 363.151 1010.41 362.154C1011.06 361.783 1011.71 361.422 1012.37 361.072C1016.63 358.797 1021.14 356.916 1025.81 355.47C1029.56 354.311 1033.27 353.742 1037.22 353.927C1038.16 353.972 1039.12 354.058 1040.04 354.223C1041.01 354.395 1041.98 354.771 1042.92 355.049C1043.76 355.296 1044.71 355.534 1045.48 355.138C1045.64 355.053 1045.79 354.942 1045.92 354.819C1046.01 354.741 1046.15 354.505 1046.26 354.472C1046.52 354.393 1046.8 354.892 1046.9 355.064C1047.05 355.309 1047.15 355.577 1047.21 355.85C1047.29 356.223 1047.3 356.614 1047.23 356.988Z" fill="#375592"/>
<path d="M1047.2 355.849C1047.07 355.978 1046.92 356.095 1046.77 356.205C1045.71 356.96 1044.37 357.296 1043.07 357.622C1040.55 358.251 1014.99 369.72 1013.35 370.232C1013.14 370.3 1012.92 370.361 1012.7 370.351C1012.43 370.34 1012.19 370.231 1011.95 370.124C1010.6 369.517 1009.24 368.907 1008 368.115C1007.49 367.782 1007.17 367.361 1006.73 366.956C1006.2 366.468 1005.74 365.915 1005.31 365.349C1006.26 364.698 1007.23 364.069 1008.21 363.463C1009.57 362.623 1010.96 361.826 1012.37 361.072C1016.63 358.797 1021.14 356.916 1025.81 355.47C1029.56 354.311 1033.27 353.742 1037.22 353.927C1038.16 353.972 1039.12 354.058 1040.04 354.223C1041.01 354.395 1041.98 354.771 1042.92 355.049C1043.76 355.296 1044.71 355.534 1045.48 355.138C1045.64 355.053 1045.79 354.942 1045.92 354.819C1046.01 354.741 1046.15 354.505 1046.26 354.472C1046.51 354.398 1046.76 354.83 1046.88 355.029C1046.89 355.041 1046.9 355.054 1046.9 355.065C1047.04 355.308 1047.15 355.574 1047.2 355.849Z" fill="#375592"/>
<path d="M1046.88 355.026C1046.59 355.254 1046.24 355.425 1045.8 355.514C1044.87 355.7 1043.91 355.501 1042.96 355.409C1039.31 355.053 1028.79 358.369 1027.08 358.979C1022.25 360.698 1017.57 362.649 1012.98 364.88C1012.53 365.1 1012.04 365.365 1011.88 365.811C1011.21 365.422 1010.53 365.033 1009.85 364.645C1009.27 364.314 1008.52 364.043 1008.21 363.463C1009.57 362.623 1010.95 361.826 1012.37 361.072C1016.63 358.797 1021.14 356.916 1025.81 355.47C1029.56 354.311 1033.27 353.742 1037.22 353.927C1038.16 353.972 1039.11 354.058 1040.04 354.223C1041.01 354.395 1041.98 354.771 1042.92 355.049C1043.75 355.296 1044.71 355.534 1045.47 355.138C1045.64 355.053 1045.79 354.942 1045.92 354.819C1046.01 354.741 1046.15 354.505 1046.26 354.472C1046.51 354.397 1046.76 354.829 1046.88 355.026Z" fill="#375592"/>
<path d="M1038.35 349.444C1038.32 349.474 1038.3 349.502 1038.29 349.521C1037.81 350.06 1037.44 350.897 1037.32 351.581C1037.24 352.04 1037.23 352.512 1037.32 352.972C1037.36 353.191 1037.4 353.455 1037.5 353.655C1037.57 353.783 1037.68 353.894 1037.55 354.002C1037.53 354.018 1037.51 354.032 1037.49 354.047C1037.38 354.101 1037.26 354.107 1037.14 354.108C1036.4 354.115 1035.67 354.043 1034.93 354.063C1033.88 354.093 1032.84 354.32 1031.81 354.547C1031.38 354.645 1030.89 354.738 1030.49 354.567C1030.47 354.562 1030.45 354.555 1030.43 354.545C1030.37 354.514 1030.31 354.47 1030.29 354.409C1030.23 354.204 1030.57 353.859 1030.69 353.699C1030.88 353.454 1031.08 353.217 1031.29 352.993C1031.72 352.54 1032.2 352.13 1032.71 351.758C1033.68 351.051 1034.76 350.482 1035.87 349.972C1036.61 349.632 1037.37 349.315 1038.17 349.162C1038.34 349.129 1038.46 349.316 1038.35 349.444Z" fill="#375592"/>
<path d="M1016.19 371.377C1016.09 371.852 1015.94 372.318 1015.75 372.766C1015.27 373.903 1014.54 375.001 1013.6 375.935C1013.52 375.945 1013.43 375.953 1013.34 375.964C1013.29 375.97 1013.23 375.975 1013.17 375.983C1011.22 376.184 1007.38 376.507 1006.78 376.555C1006.77 376.555 1006.76 376.557 1006.75 376.557L1006.67 376.563C1006.52 376.572 1006.36 376.582 1006.2 376.59C1006.16 376.592 1006.13 376.594 1006.09 376.595C1005.57 376.624 1005.03 376.646 1004.5 376.662C1004.43 376.666 1004.36 376.667 1004.29 376.67C1004.08 376.676 1003.87 376.681 1003.67 376.684C1003.4 376.69 1003.13 376.693 1002.86 376.695C1000.86 376.709 998.616 376.523 997.304 375.141C997.208 375.039 997.115 374.922 997.115 374.79C997.115 374.49 997.531 374.374 997.856 374.345C999.119 374.229 1000.38 374.113 1001.64 373.996C1000.31 373.813 998.979 373.631 997.645 373.448C997.15 373.378 996.942 373.043 997.182 372.625C998.09 371.038 999.482 369.752 1000.95 368.579C1001.04 368.506 1001.13 368.435 1001.22 368.363C1002.19 367.615 1003.24 366.923 1004.18 366.132C1004.18 366.131 1004.19 366.127 1004.19 366.127C1004.56 365.86 1004.94 365.6 1005.31 365.345C1006.96 364.215 1008.66 363.147 1010.41 362.15C1011.71 362.886 1012.89 363.834 1013.9 364.888C1013.99 364.978 1014.08 365.072 1014.16 365.163C1014.97 366.052 1015.68 367.038 1016.04 368.146C1016.39 369.188 1016.41 370.303 1016.19 371.377Z" fill="#375592"/>
<path d="M1000.39 371.705C1002.12 370.968 1009.57 367.969 1011.56 367.182C1012 367.008 1012.54 366.765 1012.69 366.31C1012.87 365.764 1012.81 365.272 1012.5 364.773C1011.99 363.956 1010.98 363.42 1009.95 363.42C1009.06 363.42 1008.22 363.791 1007.44 364.192C1004.92 365.501 1002.67 367.226 1000.57 369.059C999.991 369.564 999.42 370.086 998.935 370.672C998.676 370.985 997.635 372.093 998.504 372.292C998.761 372.35 999.027 372.256 999.271 372.161C999.647 372.016 1000.02 371.862 1000.39 371.705Z" fill="#375592"/>
<path d="M1016.19 371.381C1016.09 371.856 1015.94 372.322 1015.75 372.77C1015.27 373.907 1014.54 375.005 1013.6 375.939C1013.52 375.949 1013.43 375.957 1013.34 375.968C1013.29 375.974 1013.23 375.979 1013.17 375.986C1017.42 370.789 1015.53 366.909 1014.16 365.166C1014.97 366.054 1015.68 367.04 1016.04 368.148C1016.39 369.192 1016.41 370.307 1016.19 371.381Z" fill="#375592"/>
<path d="M1028.64 372.855C1028.6 372.924 1028.56 372.993 1028.52 373.055C1028.36 373.271 1028.13 373.442 1027.9 373.589C1027.12 374.076 1026.19 374.358 1025.25 374.386C1024.85 374.4 1024.44 374.368 1024.04 374.313C1023.51 374.245 1022.98 374.135 1022.45 374.048C1021.98 373.971 1021.51 373.907 1021.04 373.897C1020.81 373.893 1020.07 374.075 1020.06 373.77C1020.05 373.372 1021.88 373.201 1022.43 373.138H1022.43C1022.47 373.134 1022.5 373.13 1022.52 373.127C1023.5 372.993 1024.48 372.905 1025.46 372.801C1025.67 372.779 1027.41 372.568 1028.26 372.425C1028.53 372.381 1028.75 372.624 1028.64 372.855Z" fill="#375592"/>
<path d="M1044.63 353.702C1044.68 353.753 1044.7 353.826 1044.69 353.901C1044.66 354.284 1044.45 354.616 1044.23 354.932C1044.12 355.083 1044.01 355.337 1043.78 355.304C1043.41 355.253 1043.05 355.181 1042.7 355.109C1042.42 355.053 1042.14 354.996 1041.88 354.881C1041.81 354.848 1041.73 354.797 1041.76 354.716C1041.78 354.649 1041.88 354.587 1041.94 354.54C1042.09 354.411 1042.26 354.293 1042.43 354.188C1042.78 353.978 1043.17 353.82 1043.58 353.726C1043.82 353.669 1044.08 353.635 1044.33 353.628C1044.4 353.626 1044.46 353.625 1044.53 353.643C1044.57 353.656 1044.6 353.676 1044.63 353.702Z" fill="#375592"/>
<path d="M1007.9 371.244C1007.9 371.78 1007.41 372.213 1006.8 372.213C1006.2 372.213 1005.71 371.78 1005.71 371.244C1005.71 370.71 1006.2 370.275 1006.8 370.275C1007.41 370.277 1007.9 370.71 1007.9 371.244Z" fill="#375592"/>
<path d="M1005.32 374.929C1005.09 374.807 1004.75 374.793 1004.49 374.764C1004.16 374.726 1003.78 374.826 1003.46 374.868C1001.51 375.117 999.5 375.113 997.612 374.614C997.468 374.576 997.406 374.514 997.415 374.449C997.55 374.393 997.712 374.362 997.857 374.349C999.12 374.233 1000.38 374.117 1001.65 374C1001.62 373.996 1001.6 373.993 1001.58 373.991C1001.76 373.989 1001.94 373.989 1002.12 374.004C1002.39 374.026 1002.66 374.076 1002.93 374.133C1003.76 374.308 1004.59 374.539 1005.32 374.929Z" fill="#375592"/>
<path d="M1012.69 349.928C1013.06 349.546 1013.47 349.163 1014.01 349.025C1014.04 349.429 1014.06 349.834 1014.07 350.239C1014.08 350.496 1014.08 350.752 1014.04 351.006C1013.98 351.352 1013.85 351.683 1013.7 352.003C1013.5 352.429 1013.26 352.841 1012.99 353.233C1012.96 353.276 1012.93 353.32 1012.93 353.37C1012.93 353.416 1012.95 353.459 1012.98 353.5C1013.61 354.648 1014.08 355.918 1013.97 357.199C1013.63 357.069 1013.26 357.105 1012.9 357.05C1012.04 356.918 1011.39 356.287 1010.69 355.806C1010.23 355.487 1009.72 355.226 1009.21 354.967C1009.28 354.998 1009.93 354.108 1009.99 354.018C1010.22 353.673 1010.34 353.326 1010.43 352.935C1010.51 352.631 1010.68 352.398 1010.87 352.14C1011.13 351.78 1011.4 351.426 1011.68 351.08C1012 350.684 1012.33 350.299 1012.69 349.928Z" fill="#375592"/>
<path d="M1004.45 361.647C1004.72 361.59 1004.98 361.488 1005.19 361.336C1005.27 361.279 1005.24 361.165 1005.14 361.154C1004.72 361.111 1004.32 360.983 1003.97 360.781C1003.74 360.65 1003.53 360.488 1003.27 360.405C1003.02 360.322 1002.7 360.339 1002.53 360.528C1002.29 360.783 1002.39 361.413 1002.71 361.594C1003.14 361.834 1003.99 361.747 1004.45 361.647Z" fill="#375592"/>
<path d="M1008.12 357.702C1008.16 357.675 1008.21 357.648 1008.23 357.607C1008.24 357.577 1008.25 357.542 1008.25 357.509C1008.27 357.2 1008.26 356.886 1008.18 356.585C1008.1 356.325 1007.97 355.993 1007.72 355.836C1007.64 355.784 1007.52 355.809 1007.44 355.852C1007.19 355.974 1007.05 356.212 1006.9 356.428C1006.46 357.072 1005.87 357.613 1005.3 358.163C1005.23 358.226 1005.17 358.293 1005.15 358.38C1005.14 358.449 1005.1 358.491 1005.07 358.558C1005.02 358.674 1005.02 358.81 1005.16 358.867C1005.36 358.946 1005.6 358.74 1005.77 358.669C1006.27 358.45 1007.87 357.869 1008.12 357.702Z" fill="#375592"/>
<path d="M1011.75 353.861C1011.63 354.49 1011.25 355.062 1010.76 355.516C1010.72 355.558 1010.67 355.599 1010.61 355.617C1010.55 355.631 1010.5 355.627 1010.44 355.62C1010.25 355.597 1010.05 355.551 1009.86 355.483C1009.69 355.419 1009.51 355.336 1009.32 355.343C1009.14 355.351 1008.97 355.446 1008.82 355.544C1007.39 356.453 1006.41 357.784 1005.31 358.98C1004.09 360.303 1002.71 361.499 1001.23 362.58C1000.21 363.331 999.13 364.021 998.009 364.645C996.657 365.398 995.231 366.056 993.717 366.472C993.207 366.612 992.688 366.723 992.165 366.815C991.577 366.921 990.982 367.003 990.388 367.075C990.032 367.119 989.675 367.159 989.317 367.199C988.805 367.258 988.292 367.316 987.779 367.372C987.719 367.378 987.655 367.385 987.59 367.392C986.39 367.525 985.188 367.646 983.985 367.738C983.629 367.766 983.27 367.791 982.913 367.813C982.905 367.813 982.898 367.814 982.893 367.814L982.838 367.819C982.725 367.825 982.612 367.832 982.498 367.838C982.474 367.839 982.448 367.84 982.425 367.841C982.048 367.862 981.669 367.878 981.291 367.889C981.24 367.892 981.189 367.893 981.138 367.894C980.991 367.899 980.842 367.902 980.694 367.905C980.502 367.909 980.31 367.911 980.118 367.913C978.691 367.922 977.094 367.79 976.158 366.804C976.09 366.732 976.024 366.649 976.024 366.555C976.024 366.341 976.32 366.258 976.552 366.237C977.452 366.154 978.352 366.072 979.253 365.988C978.303 365.858 977.352 365.728 976.402 365.598C976.048 365.548 975.9 365.309 976.071 365.011C976.719 363.88 977.711 362.963 978.754 362.127C978.819 362.074 978.882 362.024 978.949 361.973C979.637 361.425 980.341 360.896 981.059 360.382C981.062 360.382 981.066 360.379 981.066 360.379C981.332 360.188 981.598 360.003 981.865 359.821C983.042 359.016 984.254 358.255 985.501 357.544C985.961 357.279 986.428 357.022 986.898 356.772C989.935 355.151 993.15 353.81 996.48 352.779C999.15 351.953 1001.79 351.547 1004.61 351.679C1005.28 351.711 1005.96 351.773 1006.62 351.89C1007.31 352.013 1008 352.281 1008.67 352.479C1009.27 352.655 1009.95 352.824 1010.5 352.542C1010.62 352.482 1010.72 352.402 1010.82 352.315C1010.88 352.259 1010.98 352.091 1011.06 352.067C1011.24 352.011 1011.44 352.367 1011.51 352.489C1011.62 352.664 1011.69 352.855 1011.73 353.05C1011.79 353.316 1011.79 353.594 1011.75 353.861Z" fill="#375592"/>
<path d="M1011.73 353.049C1011.63 353.141 1011.53 353.225 1011.42 353.303C1010.66 353.841 1009.71 354.081 1008.78 354.313C1006.98 354.762 988.766 362.937 987.598 363.303C987.445 363.351 987.288 363.394 987.128 363.387C986.94 363.379 986.765 363.302 986.596 363.225C985.633 362.793 984.665 362.358 983.785 361.793C983.417 361.556 983.186 361.256 982.875 360.967C982.496 360.619 982.17 360.225 981.865 359.821C982.542 359.358 983.231 358.909 983.932 358.477C984.899 357.878 985.888 357.31 986.898 356.772C989.935 355.151 993.15 353.81 996.48 352.779C999.15 351.953 1001.79 351.547 1004.61 351.679C1005.28 351.711 1005.96 351.773 1006.62 351.89C1007.31 352.013 1008 352.281 1008.67 352.479C1009.27 352.655 1009.95 352.824 1010.5 352.542C1010.62 352.482 1010.72 352.402 1010.82 352.315C1010.88 352.259 1010.98 352.091 1011.06 352.067C1011.23 352.014 1011.41 352.322 1011.5 352.464C1011.5 352.473 1011.51 352.482 1011.51 352.49C1011.61 352.663 1011.69 352.853 1011.73 353.049Z" fill="#375592"/>
<path d="M1011.5 352.462C1011.29 352.625 1011.05 352.747 1010.73 352.81C1010.07 352.943 1009.38 352.801 1008.7 352.736C1006.1 352.482 998.603 354.845 997.383 355.28C993.944 356.506 990.605 357.897 987.336 359.487C987.013 359.644 986.664 359.833 986.552 360.151C986.068 359.873 985.585 359.596 985.102 359.319C984.69 359.084 984.157 358.89 983.932 358.477C984.898 357.878 985.888 357.31 986.898 356.772C989.935 355.151 993.149 353.81 996.48 352.779C999.15 351.953 1001.79 351.547 1004.61 351.679C1005.28 351.711 1005.96 351.773 1006.62 351.89C1007.31 352.013 1008 352.281 1008.67 352.479C1009.27 352.655 1009.95 352.824 1010.5 352.542C1010.62 352.482 1010.72 352.402 1010.82 352.315C1010.88 352.259 1010.98 352.091 1011.06 352.067C1011.23 352.014 1011.42 352.322 1011.5 352.462Z" fill="#375592"/>
<path d="M1005.42 348.483C1005.4 348.505 1005.39 348.525 1005.37 348.538C1005.03 348.922 1004.77 349.519 1004.68 350.006C1004.63 350.333 1004.62 350.67 1004.68 350.998C1004.71 351.155 1004.74 351.342 1004.82 351.485C1004.87 351.576 1004.94 351.656 1004.85 351.732C1004.84 351.744 1004.82 351.754 1004.8 351.764C1004.73 351.803 1004.64 351.807 1004.56 351.808C1004.03 351.813 1003.51 351.762 1002.98 351.776C1002.23 351.797 1001.49 351.959 1000.76 352.121C1000.45 352.191 1000.1 352.257 999.814 352.135C999.801 352.132 999.788 352.126 999.776 352.119C999.731 352.098 999.686 352.066 999.673 352.023C999.629 351.877 999.874 351.63 999.96 351.516C1000.09 351.342 1000.24 351.173 1000.39 351.013C1000.69 350.69 1001.04 350.398 1001.4 350.132C1002.09 349.629 1002.86 349.223 1003.65 348.86C1004.17 348.617 1004.72 348.391 1005.29 348.282C1005.41 348.259 1005.5 348.392 1005.42 348.483Z" fill="#375592"/>
<path d="M989.618 364.119C989.546 364.457 989.442 364.789 989.308 365.109C988.967 365.919 988.442 366.702 987.777 367.368C987.717 367.375 987.654 367.381 987.588 367.389C987.55 367.393 987.509 367.397 987.467 367.402C986.075 367.545 983.337 367.776 982.911 367.81C982.903 367.81 982.897 367.812 982.891 367.812L982.836 367.816C982.723 367.822 982.61 367.829 982.496 367.835C982.472 367.836 982.446 367.838 982.423 367.839C982.046 367.859 981.667 367.875 981.289 367.886C981.238 367.889 981.187 367.89 981.136 367.892C980.989 367.896 980.84 367.899 980.692 367.902C980.5 367.906 980.308 367.908 980.116 367.91C978.689 367.919 977.092 367.787 976.156 366.802C976.088 366.729 976.022 366.646 976.022 366.552C976.022 366.338 976.318 366.255 976.55 366.234C977.45 366.152 978.35 366.069 979.251 365.986C978.301 365.855 977.35 365.725 976.4 365.595C976.046 365.545 975.898 365.306 976.069 365.009C976.717 363.877 977.709 362.96 978.752 362.124C978.818 362.072 978.88 362.021 978.947 361.97C979.636 361.437 980.391 360.943 981.057 360.38C981.06 360.379 981.065 360.376 981.065 360.376C981.33 360.186 981.596 360 981.863 359.819C983.04 359.013 984.252 358.252 985.499 357.541C986.428 358.066 987.267 358.742 987.99 359.492C988.052 359.557 988.112 359.624 988.173 359.689C988.752 360.322 989.256 361.025 989.516 361.815C989.762 362.558 989.777 363.353 989.618 364.119Z" fill="#375592"/>
<path d="M978.354 364.353C979.589 363.828 984.902 361.69 986.315 361.129C986.628 361.005 987.017 360.832 987.124 360.507C987.253 360.118 987.207 359.768 986.985 359.412C986.622 358.829 985.904 358.447 985.171 358.447C984.535 358.447 983.936 358.712 983.382 358.998C981.581 359.931 979.983 361.161 978.484 362.467C978.07 362.827 977.663 363.2 977.317 363.617C977.132 363.84 976.391 364.63 977.01 364.772C977.193 364.814 977.383 364.747 977.557 364.679C977.825 364.575 978.09 364.466 978.354 364.353Z" fill="#375592"/>
<path d="M989.615 364.12C989.544 364.458 989.439 364.791 989.305 365.11C988.964 365.921 988.439 366.704 987.774 367.369C987.715 367.376 987.651 367.382 987.585 367.39C987.547 367.395 987.507 367.398 987.465 367.403C990.492 363.698 989.146 360.932 988.171 359.689C988.751 360.323 989.254 361.026 989.514 361.816C989.759 362.559 989.775 363.355 989.615 364.12Z" fill="#375592"/>
<path d="M998.493 365.171C998.469 365.221 998.441 365.27 998.407 365.314C998.293 365.468 998.132 365.59 997.966 365.695C997.413 366.042 996.751 366.243 996.082 366.263C995.79 366.273 995.503 366.25 995.217 366.211C994.837 366.162 994.459 366.084 994.082 366.022C993.749 365.967 993.414 365.921 993.077 365.914C992.913 365.912 992.383 366.041 992.379 365.824C992.373 365.54 993.676 365.418 994.067 365.373H994.07C994.095 365.37 994.117 365.368 994.134 365.365C994.829 365.27 995.529 365.207 996.226 365.133C996.376 365.117 997.617 364.967 998.222 364.865C998.413 364.834 998.57 365.007 998.493 365.171Z" fill="#375592"/>
<path d="M1009.89 351.516C1009.93 351.553 1009.94 351.605 1009.94 351.658C1009.91 351.931 1009.76 352.168 1009.61 352.393C1009.53 352.501 1009.45 352.682 1009.28 352.659C1009.03 352.622 1008.77 352.571 1008.51 352.519C1008.32 352.479 1008.11 352.439 1007.93 352.357C1007.88 352.333 1007.82 352.297 1007.85 352.239C1007.86 352.191 1007.93 352.147 1007.97 352.114C1008.08 352.022 1008.2 351.937 1008.33 351.863C1008.58 351.713 1008.85 351.601 1009.14 351.534C1009.32 351.493 1009.5 351.469 1009.68 351.463C1009.73 351.462 1009.77 351.462 1009.82 351.475C1009.85 351.483 1009.87 351.498 1009.89 351.516Z" fill="#375592"/>
<path d="M983.707 364.025C983.707 364.407 983.359 364.715 982.929 364.715C982.5 364.715 982.152 364.407 982.152 364.025C982.152 363.644 982.5 363.334 982.929 363.334C983.359 363.335 983.707 363.644 983.707 364.025Z" fill="#375592"/>
<path d="M981.873 366.651C981.708 366.564 981.465 366.555 981.28 366.534C981.046 366.507 980.774 366.578 980.543 366.608C979.155 366.785 977.721 366.783 976.376 366.427C976.273 366.4 976.228 366.356 976.235 366.31C976.331 366.269 976.447 366.248 976.55 366.238C977.451 366.156 978.351 366.073 979.251 365.989C979.234 365.987 979.219 365.984 979.202 365.983C979.33 365.982 979.459 365.982 979.587 365.992C979.784 366.008 979.976 366.043 980.169 366.084C980.759 366.209 981.347 366.374 981.873 366.651Z" fill="#375592"/>
<defs>
<linearGradient id="paint0_linear_340_1981" x1="580.694" y1="418.178" x2="646.909" y2="137.513" gradientUnits="userSpaceOnUse">
<stop stop-color="#EEF0F2"/>
<stop offset="1" stop-color="#92B5D8"/>
</linearGradient>
</defs>
</svg>
