<svg width="239" height="44" viewBox="0 0 239 44" fill="none" xmlns="http://www.w3.org/2000/svg">
<rect width="209.046" height="15.8572" rx="7.92858" transform="matrix(-1 0 0 1 209.046 27.2341)" fill="white" fill-opacity="0.5"/>
<rect width="209.046" height="15.8572" rx="7.92858" transform="matrix(-1 0 0 1 238.764 0.325195)" fill="white" fill-opacity="0.5"/>
<path fill-rule="evenodd" clip-rule="evenodd" d="M115.795 16.1824H44.0635V16.1849C44.1238 16.1832 44.1844 16.1824 44.2452 16.1824C47.5465 16.1824 50.2228 18.6923 50.2228 21.7884C50.2228 24.8819 47.5512 27.3901 44.2538 27.3945H115.795V27.282C115.691 27.2862 115.587 27.2883 115.481 27.2883C111.892 27.2883 108.981 24.8259 108.981 21.7883C108.981 18.7508 111.892 16.2883 115.481 16.2883C115.587 16.2883 115.691 16.2904 115.795 16.2946V16.1824ZM44.2366 27.3945H44.0635V27.392C44.121 27.3936 44.1787 27.3944 44.2366 27.3945Z" fill="white" fill-opacity="0.5"/>
</svg>
