<svg width="566" height="136" viewBox="0 0 566 136" fill="none" xmlns="http://www.w3.org/2000/svg">
<rect x="76" width="408" height="30.9488" rx="15.4744" fill="#ADB256" fill-opacity="0.25"/>
<rect y="105.039" width="408" height="30.9488" rx="15.4744" fill="#ADB256" fill-opacity="0.25"/>
<rect x="158" y="52.5193" width="408" height="30.9488" rx="15.4744" fill="#ADB256" fill-opacity="0.25"/>
<path fill-rule="evenodd" clip-rule="evenodd" d="M220.491 41.8905C220.491 47.8232 218.048 52.6531 215 52.8271V52.832H354.647H355V52.8271C354.883 52.8303 354.765 52.832 354.647 52.832C348.204 52.832 342.98 47.9333 342.98 41.8905C342.98 35.8477 348.204 30.949 354.647 30.949C354.765 30.949 354.883 30.9506 355 30.9539V30.949H354.647H215V30.9538C218.048 31.1278 220.491 35.9577 220.491 41.8905Z" fill="#ADB256" fill-opacity="0.25"/>
<path fill-rule="evenodd" clip-rule="evenodd" d="M220.491 94.4093C220.491 100.342 218.048 105.172 215 105.346V105.351H354.647H355V105.346C354.883 105.349 354.765 105.351 354.647 105.351C348.204 105.351 342.98 100.452 342.98 94.4093C342.98 88.3664 348.204 83.4678 354.647 83.4678C354.765 83.4678 354.883 83.4694 355 83.4727V83.4678H354.647H215V83.4726C218.048 83.6466 220.491 88.4765 220.491 94.4093Z" fill="#ADB256" fill-opacity="0.25"/>
<path d="M489.123 16.3175C478.644 14.7598 472.34 24.2999 473.466 26.4541C474.591 28.6062 468.133 29.4135 463.829 32.375C459.522 35.3344 473.246 35.874 476.476 37.2188C479.705 38.5636 471.88 39.3709 476.062 42.3324C480.244 45.2918 518.453 43.6772 530.293 42.3324C542.132 40.9876 534.867 37.2188 538.633 35.874C542.4 34.5292 563.39 33.6355 565.542 31.2557C567.694 28.876 547.782 29.4156 548.051 26.1864C548.321 22.9572 526.398 19.1167 514.351 20.3646C502.309 21.6103 497.191 17.5168 489.123 16.3175Z" fill="#C2CB8E"/>
<path d="M531.47 32.8285C530.732 33.0182 530.015 33.208 529.32 33.4398C524.303 35.0629 520.15 37.7187 514.944 39.2364C513.658 39.6158 511.74 39.953 509.464 40.2271C501.412 41.2177 488.954 41.3653 484.633 39.2364C479.09 36.5383 479.09 24.882 479.09 23.1325C479.09 21.3619 480.65 21.0036 480.65 21.0036C484.865 15.5654 494.245 14.7011 498.798 15.5654C501.854 16.1345 505.058 16.6615 507.777 17.5678C509.126 18.0316 510.349 18.5796 511.382 19.2752C514.459 21.3619 520.741 20.2659 524.071 21.8678C525.23 22.4369 527.106 23.0903 529.109 23.7227C532.861 24.9241 537.097 26.0202 538.13 26.1678C539.732 26.4207 537.519 31.3531 531.47 32.8285Z" fill="#D9D9D9"/>
<path d="M474.676 18.3775C476.101 15.5214 481.333 13.7086 485.848 18.2763C485.848 18.2763 491.657 18.9613 492.768 25.9867C493.877 33.0143 486.383 35.8029 482.043 32.4578C477.703 29.1127 471.186 25.3776 474.676 18.3775Z" fill="#878787"/>
<path d="M481.054 15.1183C491.705 17.7383 488.943 36.6498 478.588 29.7467C468.234 22.8435 475.953 13.8641 481.054 15.1183Z" fill="#D9D9D9"/>
<path d="M480.641 16.5583C477.64 15.0427 471.314 20.9953 477.602 27.0975C483.89 33.1996 490.894 21.7351 480.641 16.5583Z" fill="#878787"/>
<path d="M529.321 33.4399C524.305 35.0629 520.152 37.7188 514.946 39.2364C513.66 39.6158 511.742 39.9531 509.466 40.2271C514.967 33.1237 512.543 19.8022 507.779 17.5679C509.128 18.0316 510.351 18.5796 511.384 19.2752C514.461 21.362 520.743 20.2659 524.073 21.8679C525.232 22.437 527.108 23.0904 529.111 23.7227C530.439 26.7369 530.312 30.3624 529.321 33.4399Z" fill="#375592"/>
<path d="M484.055 19.8611C482.381 19.878 478.592 26.3807 480.381 28.0986C482.171 29.8164 484.997 28.0691 485.535 24.6839C486.074 21.2966 484.462 19.8569 484.055 19.8611Z" fill="#727272"/>
</svg>
