<svg width="338" height="112" viewBox="0 0 338 112" fill="none" xmlns="http://www.w3.org/2000/svg">
<path d="M33.62 25.44L26.34 54H24.02L18.46 33C18.3267 32.52 18.2067 32.0667 18.1 31.64C17.9933 31.1867 17.8867 30.76 17.78 30.36C17.6733 29.9333 17.58 29.56 17.5 29.24C17.42 28.8933 17.3533 28.5867 17.3 28.32C17.2733 28.5867 17.22 28.88 17.14 29.2C17.0867 29.52 17.02 29.8667 16.94 30.24C16.86 30.5867 16.7667 30.96 16.66 31.36C16.58 31.76 16.4867 32.1733 16.38 32.6L10.86 54H8.5L1.3 25.44H3.74L8.54 45.04C8.67333 45.6 8.79333 46.1333 8.9 46.64C9.03333 47.1467 9.14 47.64 9.22 48.12C9.32667 48.5733 9.42 49.0267 9.5 49.48C9.60667 49.9333 9.68667 50.3733 9.74 50.8C9.82 50.3467 9.9 49.8933 9.98 49.44C10.0867 48.9867 10.1933 48.52 10.3 48.04C10.4067 47.5333 10.5133 47.0267 10.62 46.52C10.7533 46.0133 10.9 45.48 11.06 44.92L16.18 25.44H18.54L23.82 45.04C23.9533 45.6 24.0867 46.1467 24.22 46.68C24.3533 47.2133 24.4733 47.72 24.58 48.2C24.6867 48.6533 24.78 49.1067 24.86 49.56C24.94 50.0133 25.02 50.4533 25.1 50.88C25.2067 50.2933 25.3133 49.7067 25.42 49.12C25.5533 48.5067 25.6867 47.8667 25.82 47.2C25.98 46.5333 26.1533 45.8267 26.34 45.08L31.22 25.44H33.62ZM46.945 32.32C48.6517 32.32 50.0783 32.7467 51.225 33.6C52.3717 34.4267 53.2383 35.5733 53.825 37.04C54.4383 38.5067 54.745 40.2 54.745 42.12V43.64H40.505C40.5317 46.4933 41.145 48.6667 42.345 50.16C43.5717 51.6533 45.3183 52.4 47.585 52.4C48.8383 52.4 49.9317 52.2933 50.865 52.08C51.7983 51.8667 52.8117 51.4933 53.905 50.96V53.04C52.9183 53.52 51.9317 53.8667 50.945 54.08C49.9583 54.2933 48.8117 54.4 47.505 54.4C45.505 54.4 43.7983 53.96 42.385 53.08C40.9983 52.2 39.945 50.9467 39.225 49.32C38.505 47.6667 38.145 45.7467 38.145 43.56C38.145 41.3733 38.4783 39.44 39.145 37.76C39.8383 36.08 40.8383 34.76 42.145 33.8C43.4783 32.8133 45.0783 32.32 46.945 32.32ZM46.905 34.24C45.0917 34.24 43.625 34.8933 42.505 36.2C41.385 37.48 40.7317 39.3333 40.545 41.76H52.385C52.385 40.2667 52.185 38.96 51.785 37.84C51.4117 36.72 50.8117 35.84 49.985 35.2C49.185 34.56 48.1583 34.24 46.905 34.24ZM82.5719 34.56H77.8519V54H75.5319V34.56H71.8519V33.32L75.5319 32.68V30.52C75.5319 28.92 75.7452 27.6 76.1719 26.56C76.6252 25.4933 77.3052 24.7067 78.2119 24.2C79.1185 23.6667 80.2385 23.4 81.5719 23.4C82.2919 23.4 82.9452 23.4667 83.5319 23.6C84.1185 23.7067 84.6519 23.84 85.1319 24L84.5719 25.88C84.1452 25.72 83.6652 25.5867 83.1319 25.48C82.6252 25.3733 82.1052 25.32 81.5719 25.32C80.2652 25.32 79.3052 25.7333 78.6919 26.56C78.1052 27.36 77.8119 28.68 77.8119 30.52V32.72H82.5719V34.56ZM88.6519 32.72V54H86.3719V32.72H88.6519ZM87.5319 24.84C88.0119 24.84 88.3852 25 88.6519 25.32C88.9185 25.6133 89.0519 26.0267 89.0519 26.56C89.0519 27.12 88.9185 27.56 88.6519 27.88C88.3852 28.1733 88.0119 28.32 87.5319 28.32C87.0519 28.32 86.6785 28.1733 86.4119 27.88C86.1452 27.56 86.0119 27.12 86.0119 26.56C86.0119 26.0267 86.1452 25.6133 86.4119 25.32C86.6785 25 87.0519 24.84 87.5319 24.84ZM106.639 32.32C108.905 32.32 110.639 32.9467 111.839 34.2C113.065 35.4533 113.679 37.4267 113.679 40.12V54H111.439V40.24C111.439 38.1867 110.999 36.68 110.119 35.72C109.265 34.76 108.012 34.28 106.359 34.28C104.172 34.28 102.532 34.96 101.439 36.32C100.372 37.68 99.8387 39.7067 99.8387 42.4V54H97.5987V32.72H99.4387L99.7587 36.4H99.8787C100.252 35.6267 100.745 34.9333 101.359 34.32C101.999 33.7067 102.759 33.2267 103.639 32.88C104.545 32.5067 105.545 32.32 106.639 32.32ZM129.62 54.4C126.953 54.4 124.9 53.4933 123.46 51.68C122.02 49.84 121.3 47.1467 121.3 43.6C121.3 39.92 122.046 37.12 123.54 35.2C125.06 33.28 127.153 32.32 129.82 32.32C130.94 32.32 131.913 32.5067 132.74 32.88C133.566 33.2267 134.26 33.7067 134.82 34.32C135.406 34.9333 135.873 35.6267 136.22 36.4H136.38C136.353 35.76 136.313 35.0667 136.26 34.32C136.233 33.5467 136.22 32.8533 136.22 32.24V23.6H138.5V54H136.66L136.34 50.28H136.22C135.873 51.0267 135.406 51.72 134.82 52.36C134.233 52.9733 133.513 53.4667 132.66 53.84C131.806 54.2133 130.793 54.4 129.62 54.4ZM129.94 52.44C132.233 52.44 133.86 51.6933 134.82 50.2C135.78 48.7067 136.26 46.5467 136.26 43.72V43.36C136.26 40.4267 135.78 38.1867 134.82 36.64C133.86 35.0667 132.286 34.28 130.1 34.28C127.993 34.28 126.393 35.0933 125.3 36.72C124.206 38.32 123.66 40.6267 123.66 43.64C123.66 46.52 124.18 48.7067 125.22 50.2C126.26 51.6933 127.833 52.44 129.94 52.44ZM165.403 52.48C165.963 52.48 166.497 52.44 167.003 52.36C167.51 52.2533 167.95 52.1333 168.323 52V53.84C167.923 54 167.443 54.1333 166.883 54.24C166.323 54.3467 165.723 54.4 165.083 54.4C163.963 54.4 163.003 54.1867 162.203 53.76C161.403 53.3067 160.79 52.6133 160.363 51.68C159.963 50.7467 159.763 49.5467 159.763 48.08V34.56H156.843V33.28L159.803 32.56L160.603 27.64H162.043V32.72H168.203V34.56H162.043V48C162.043 49.4667 162.31 50.5867 162.843 51.36C163.403 52.1067 164.257 52.48 165.403 52.48ZM177.173 33.36C177.173 33.8933 177.16 34.4133 177.133 34.92C177.106 35.4267 177.08 35.9333 177.053 36.44H177.213C177.56 35.64 178.04 34.9333 178.653 34.32C179.293 33.7067 180.053 33.2267 180.933 32.88C181.84 32.5333 182.84 32.36 183.933 32.36C185.453 32.36 186.746 32.64 187.813 33.2C188.88 33.7333 189.68 34.5733 190.213 35.72C190.746 36.84 191.013 38.3067 191.013 40.12V54H188.773V40.24C188.773 38.1867 188.333 36.68 187.453 35.72C186.6 34.76 185.346 34.28 183.693 34.28C182.226 34.28 181.013 34.5867 180.053 35.2C179.093 35.7867 178.373 36.6933 177.893 37.92C177.413 39.12 177.173 40.6133 177.173 42.4V54H174.933V23.6H177.173V33.36ZM207.434 32.32C209.141 32.32 210.567 32.7467 211.714 33.6C212.861 34.4267 213.727 35.5733 214.314 37.04C214.927 38.5067 215.234 40.2 215.234 42.12V43.64H200.994C201.021 46.4933 201.634 48.6667 202.834 50.16C204.061 51.6533 205.807 52.4 208.074 52.4C209.327 52.4 210.421 52.2933 211.354 52.08C212.287 51.8667 213.301 51.4933 214.394 50.96V53.04C213.407 53.52 212.421 53.8667 211.434 54.08C210.447 54.2933 209.301 54.4 207.994 54.4C205.994 54.4 204.287 53.96 202.874 53.08C201.487 52.2 200.434 50.9467 199.714 49.32C198.994 47.6667 198.634 45.7467 198.634 43.56C198.634 41.3733 198.967 39.44 199.634 37.76C200.327 36.08 201.327 34.76 202.634 33.8C203.967 32.8133 205.567 32.32 207.434 32.32ZM207.394 34.24C205.581 34.24 204.114 34.8933 202.994 36.2C201.874 37.48 201.221 39.3333 201.034 41.76H212.874C212.874 40.2667 212.674 38.96 212.274 37.84C211.901 36.72 211.301 35.84 210.474 35.2C209.674 34.56 208.647 34.24 207.394 34.24ZM6.06 80.72V102H3.78V80.72H6.06ZM4.94 72.84C5.42 72.84 5.79333 73 6.06 73.32C6.32667 73.6133 6.46 74.0267 6.46 74.56C6.46 75.12 6.32667 75.56 6.06 75.88C5.79333 76.1733 5.42 76.32 4.94 76.32C4.46 76.32 4.08667 76.1733 3.82 75.88C3.55333 75.56 3.42 75.12 3.42 74.56C3.42 74.0267 3.55333 73.6133 3.82 73.32C4.08667 73 4.46 72.84 4.94 72.84ZM24.0481 80.32C26.3148 80.32 28.0481 80.9467 29.2481 82.2C30.4748 83.4533 31.0881 85.4267 31.0881 88.12V102H28.8481V88.24C28.8481 86.1867 28.4081 84.68 27.5281 83.72C26.6748 82.76 25.4215 82.28 23.7681 82.28C21.5815 82.28 19.9415 82.96 18.8481 84.32C17.7815 85.68 17.2481 87.7067 17.2481 90.4V102H15.0081V80.72H16.8481L17.1681 84.4H17.2881C17.6615 83.6267 18.1548 82.9333 18.7681 82.32C19.4081 81.7067 20.1681 81.2267 21.0481 80.88C21.9548 80.5067 22.9548 80.32 24.0481 80.32ZM59.6747 80.32C61.3814 80.32 62.808 80.7467 63.9547 81.6C65.1014 82.4267 65.968 83.5733 66.5547 85.04C67.168 86.5067 67.4747 88.2 67.4747 90.12V91.64H53.2347C53.2614 94.4933 53.8747 96.6667 55.0747 98.16C56.3014 99.6533 58.048 100.4 60.3147 100.4C61.568 100.4 62.6614 100.293 63.5947 100.08C64.528 99.8667 65.5414 99.4933 66.6347 98.96V101.04C65.648 101.52 64.6614 101.867 63.6747 102.08C62.688 102.293 61.5414 102.4 60.2347 102.4C58.2347 102.4 56.528 101.96 55.1147 101.08C53.728 100.2 52.6747 98.9467 51.9547 97.32C51.2347 95.6667 50.8747 93.7467 50.8747 91.56C50.8747 89.3733 51.208 87.44 51.8747 85.76C52.568 84.08 53.568 82.76 54.8747 81.8C56.208 80.8133 57.808 80.32 59.6747 80.32ZM59.6347 82.24C57.8214 82.24 56.3547 82.8933 55.2347 84.2C54.1147 85.48 53.4614 87.3333 53.2747 89.76H65.1147C65.1147 88.2667 64.9147 86.96 64.5147 85.84C64.1414 84.72 63.5414 83.84 62.7147 83.2C61.9147 82.56 60.888 82.24 59.6347 82.24ZM78.8737 102L71.1937 80.72H73.5937L78.5137 94.84C78.7271 95.4267 78.9271 96.0133 79.1137 96.6C79.3004 97.1867 79.4737 97.7467 79.6337 98.28C79.7937 98.7867 79.9137 99.2667 79.9937 99.72H80.1137C80.2471 99.2667 80.3937 98.7733 80.5537 98.24C80.7137 97.7067 80.8871 97.1467 81.0737 96.56C81.2604 95.9733 81.4471 95.4 81.6337 94.84L86.5537 80.72H88.9937L81.3137 102H78.8737ZM102.326 80.32C104.033 80.32 105.46 80.7467 106.606 81.6C107.753 82.4267 108.62 83.5733 109.206 85.04C109.82 86.5067 110.126 88.2 110.126 90.12V91.64H95.8863C95.9129 94.4933 96.5263 96.6667 97.7263 98.16C98.9529 99.6533 100.7 100.4 102.966 100.4C104.22 100.4 105.313 100.293 106.246 100.08C107.18 99.8667 108.193 99.4933 109.286 98.96V101.04C108.3 101.52 107.313 101.867 106.326 102.08C105.34 102.293 104.193 102.4 102.886 102.4C100.886 102.4 99.1796 101.96 97.7663 101.08C96.3796 100.2 95.3263 98.9467 94.6063 97.32C93.8863 95.6667 93.5263 93.7467 93.5263 91.56C93.5263 89.3733 93.8596 87.44 94.5263 85.76C95.2196 84.08 96.2196 82.76 97.5263 81.8C98.8596 80.8133 100.46 80.32 102.326 80.32ZM102.286 82.24C100.473 82.24 99.0063 82.8933 97.8863 84.2C96.7663 85.48 96.1129 87.3333 95.9263 89.76H107.766C107.766 88.2667 107.566 86.96 107.166 85.84C106.793 84.72 106.193 83.84 105.366 83.2C104.566 82.56 103.54 82.24 102.286 82.24ZM126.228 80.36C126.708 80.36 127.174 80.4 127.628 80.48C128.108 80.5333 128.521 80.6133 128.868 80.72L128.548 82.8C128.174 82.6933 127.774 82.6133 127.348 82.56C126.948 82.48 126.521 82.44 126.068 82.44C125.161 82.44 124.348 82.6267 123.628 83C122.908 83.3733 122.281 83.9067 121.748 84.6C121.241 85.2933 120.841 86.12 120.548 87.08C120.281 88.04 120.148 89.12 120.148 90.32V102H117.868V80.72H119.788L120.028 84.72H120.148C120.468 83.8933 120.908 83.16 121.468 82.52C122.054 81.8533 122.748 81.3333 123.548 80.96C124.348 80.56 125.241 80.36 126.228 80.36ZM131.87 80.72H134.35L139.03 93.96C139.324 94.7333 139.577 95.4533 139.79 96.12C140.004 96.7867 140.19 97.4133 140.35 98C140.537 98.56 140.684 99.08 140.79 99.56H140.87C141.057 98.9467 141.297 98.16 141.59 97.2C141.884 96.2133 142.23 95.1467 142.63 94L147.23 80.72H149.71L140.71 105.8C140.257 107.027 139.737 108.08 139.15 108.96C138.59 109.84 137.924 110.507 137.15 110.96C136.404 111.44 135.497 111.68 134.43 111.68C133.95 111.68 133.51 111.64 133.11 111.56C132.71 111.507 132.337 111.427 131.99 111.32V109.4C132.31 109.48 132.644 109.547 132.99 109.6C133.337 109.68 133.724 109.72 134.15 109.72C134.844 109.72 135.457 109.56 135.99 109.24C136.524 108.947 136.99 108.48 137.39 107.84C137.79 107.227 138.15 106.453 138.47 105.52L139.75 101.92L131.87 80.72ZM179.648 102L170.128 75.88H170.008C170.062 76.36 170.088 76.9067 170.088 77.52C170.115 78.1067 170.128 78.7333 170.128 79.4C170.155 80.04 170.168 80.7067 170.168 81.4V102H168.008V73.44H171.448L180.608 98.48H180.728L189.968 73.44H193.408V102H191.088V81.16C191.088 80.5733 191.088 79.9733 191.088 79.36C191.115 78.7467 191.142 78.1467 191.168 77.56C191.222 76.9733 191.248 76.4267 191.248 75.92H191.128L181.528 102H179.648ZM205.138 80.72V102H202.858V80.72H205.138ZM204.018 72.84C204.498 72.84 204.871 73 205.138 73.32C205.405 73.6133 205.538 74.0267 205.538 74.56C205.538 75.12 205.405 75.56 205.138 75.88C204.871 76.1733 204.498 76.32 204.018 76.32C203.538 76.32 203.165 76.1733 202.898 75.88C202.631 75.56 202.498 75.12 202.498 74.56C202.498 74.0267 202.631 73.6133 202.898 73.32C203.165 73 203.538 72.84 204.018 72.84ZM226.726 96.36C226.726 97.64 226.42 98.7333 225.806 99.64C225.22 100.547 224.34 101.24 223.166 101.72C222.02 102.173 220.62 102.4 218.966 102.4C217.58 102.4 216.34 102.267 215.246 102C214.18 101.733 213.273 101.413 212.526 101.04V98.84C213.433 99.32 214.446 99.72 215.566 100.04C216.686 100.333 217.833 100.48 219.006 100.48C220.953 100.48 222.353 100.133 223.206 99.44C224.086 98.72 224.526 97.7467 224.526 96.52C224.526 95.72 224.313 95.0667 223.886 94.56C223.486 94.0267 222.886 93.56 222.086 93.16C221.286 92.7333 220.273 92.3067 219.046 91.88C217.82 91.4267 216.74 90.9733 215.806 90.52C214.873 90.04 214.14 89.44 213.606 88.72C213.073 88 212.806 87.0133 212.806 85.76C212.806 84.0533 213.46 82.72 214.766 81.76C216.1 80.8 217.86 80.32 220.046 80.32C221.246 80.32 222.366 80.44 223.406 80.68C224.446 80.92 225.406 81.24 226.286 81.64L225.526 83.52C224.993 83.28 224.42 83.0667 223.806 82.88C223.193 82.6667 222.553 82.5067 221.886 82.4C221.246 82.2933 220.593 82.24 219.926 82.24C218.38 82.24 217.18 82.5333 216.326 83.12C215.473 83.7067 215.046 84.56 215.046 85.68C215.046 86.5333 215.246 87.2133 215.646 87.72C216.073 88.2 216.686 88.6267 217.486 89C218.286 89.3467 219.26 89.7333 220.406 90.16C221.606 90.5867 222.686 91.04 223.646 91.52C224.606 92 225.353 92.6133 225.886 93.36C226.446 94.1067 226.726 95.1067 226.726 96.36ZM246.783 96.36C246.783 97.64 246.476 98.7333 245.863 99.64C245.276 100.547 244.396 101.24 243.223 101.72C242.076 102.173 240.676 102.4 239.023 102.4C237.636 102.4 236.396 102.267 235.303 102C234.236 101.733 233.329 101.413 232.583 101.04V98.84C233.489 99.32 234.503 99.72 235.623 100.04C236.743 100.333 237.889 100.48 239.063 100.48C241.009 100.48 242.409 100.133 243.263 99.44C244.143 98.72 244.583 97.7467 244.583 96.52C244.583 95.72 244.369 95.0667 243.943 94.56C243.543 94.0267 242.943 93.56 242.143 93.16C241.343 92.7333 240.329 92.3067 239.103 91.88C237.876 91.4267 236.796 90.9733 235.863 90.52C234.929 90.04 234.196 89.44 233.663 88.72C233.129 88 232.863 87.0133 232.863 85.76C232.863 84.0533 233.516 82.72 234.823 81.76C236.156 80.8 237.916 80.32 240.103 80.32C241.303 80.32 242.423 80.44 243.463 80.68C244.503 80.92 245.463 81.24 246.343 81.64L245.583 83.52C245.049 83.28 244.476 83.0667 243.863 82.88C243.249 82.6667 242.609 82.5067 241.943 82.4C241.303 82.2933 240.649 82.24 239.983 82.24C238.436 82.24 237.236 82.5333 236.383 83.12C235.529 83.7067 235.103 84.56 235.103 85.68C235.103 86.5333 235.303 87.2133 235.703 87.72C236.129 88.2 236.743 88.6267 237.543 89C238.343 89.3467 239.316 89.7333 240.463 90.16C241.663 90.5867 242.743 91.04 243.703 91.52C244.663 92 245.409 92.6133 245.943 93.36C246.503 94.1067 246.783 95.1067 246.783 96.36ZM256.479 80.72V102H254.199V80.72H256.479ZM255.359 72.84C255.839 72.84 256.212 73 256.479 73.32C256.745 73.6133 256.879 74.0267 256.879 74.56C256.879 75.12 256.745 75.56 256.479 75.88C256.212 76.1733 255.839 76.32 255.359 76.32C254.879 76.32 254.505 76.1733 254.239 75.88C253.972 75.56 253.839 75.12 253.839 74.56C253.839 74.0267 253.972 73.6133 254.239 73.32C254.505 73 254.879 72.84 255.359 72.84ZM282.227 91.36C282.227 93.0133 282.027 94.52 281.627 95.88C281.254 97.2133 280.68 98.3733 279.907 99.36C279.16 100.32 278.214 101.067 277.067 101.6C275.947 102.133 274.654 102.4 273.187 102.4C271.8 102.4 270.547 102.147 269.427 101.64C268.334 101.107 267.4 100.36 266.627 99.4C265.854 98.4133 265.267 97.24 264.867 95.88C264.467 94.52 264.267 93.0133 264.267 91.36C264.267 89.04 264.627 87.0667 265.347 85.44C266.067 83.7867 267.107 82.52 268.467 81.64C269.854 80.76 271.494 80.32 273.387 80.32C275.307 80.32 276.92 80.7867 278.227 81.72C279.534 82.6267 280.52 83.9067 281.187 85.56C281.88 87.2133 282.227 89.1467 282.227 91.36ZM266.627 91.36C266.627 93.1733 266.867 94.7733 267.347 96.16C267.827 97.52 268.547 98.5733 269.507 99.32C270.494 100.067 271.734 100.44 273.227 100.44C274.747 100.44 276 100.067 276.987 99.32C277.974 98.5467 278.707 97.48 279.187 96.12C279.667 94.7333 279.907 93.1467 279.907 91.36C279.907 89.5733 279.68 88 279.227 86.64C278.774 85.28 278.067 84.2133 277.107 83.44C276.147 82.6667 274.88 82.28 273.307 82.28C271.094 82.28 269.427 83.08 268.307 84.68C267.187 86.28 266.627 88.5067 266.627 91.36ZM299.054 80.32C301.321 80.32 303.054 80.9467 304.254 82.2C305.481 83.4533 306.094 85.4267 306.094 88.12V102H303.854V88.24C303.854 86.1867 303.414 84.68 302.534 83.72C301.681 82.76 300.428 82.28 298.774 82.28C296.588 82.28 294.948 82.96 293.854 84.32C292.788 85.68 292.254 87.7067 292.254 90.4V102H290.014V80.72H291.854L292.174 84.4H292.294C292.668 83.6267 293.161 82.9333 293.774 82.32C294.414 81.7067 295.174 81.2267 296.054 80.88C296.961 80.5067 297.961 80.32 299.054 80.32ZM314.515 100.48C314.515 99.8133 314.662 99.32 314.955 99C315.249 98.68 315.662 98.52 316.195 98.52C316.755 98.52 317.182 98.68 317.475 99C317.795 99.32 317.955 99.8133 317.955 100.48C317.955 101.12 317.795 101.613 317.475 101.96C317.182 102.28 316.755 102.44 316.195 102.44C315.662 102.44 315.249 102.28 314.955 101.96C314.662 101.613 314.515 101.12 314.515 100.48Z" fill="#F1E4D0"/>
<path d="M250.501 46.6C250.501 48.3067 250.101 49.7467 249.301 50.92C248.501 52.0667 247.394 52.9333 245.981 53.52C244.594 54.1067 243.008 54.4 241.221 54.4C240.128 54.4 239.128 54.3333 238.221 54.2C237.341 54.0933 236.541 53.96 235.821 53.8C235.128 53.6133 234.474 53.4 233.861 53.16V50.84C234.848 51.24 235.968 51.6 237.221 51.92C238.474 52.2133 239.834 52.36 241.301 52.36C242.688 52.36 243.888 52.1467 244.901 51.72C245.941 51.2933 246.741 50.6667 247.301 49.84C247.888 49.0133 248.181 47.9733 248.181 46.72C248.181 45.5733 247.928 44.64 247.421 43.92C246.941 43.2 246.194 42.5733 245.181 42.04C244.194 41.48 242.914 40.92 241.341 40.36C240.248 39.9333 239.261 39.4933 238.381 39.04C237.501 38.5867 236.741 38.0533 236.101 37.44C235.488 36.8267 235.008 36.1067 234.661 35.28C234.341 34.4533 234.181 33.4533 234.181 32.28C234.181 30.7067 234.554 29.3867 235.301 28.32C236.048 27.2533 237.061 26.44 238.341 25.88C239.648 25.32 241.128 25.04 242.781 25.04C244.114 25.04 245.354 25.1733 246.501 25.44C247.674 25.68 248.794 26.0533 249.861 26.56L249.101 28.56C248.034 28.08 246.968 27.72 245.901 27.48C244.834 27.24 243.768 27.12 242.701 27.12C241.474 27.12 240.394 27.32 239.461 27.72C238.554 28.0933 237.834 28.6667 237.301 29.44C236.794 30.1867 236.541 31.12 236.541 32.24C236.541 33.4667 236.794 34.4533 237.301 35.2C237.808 35.9467 238.528 36.5733 239.461 37.08C240.421 37.56 241.568 38.0533 242.901 38.56C244.501 39.12 245.861 39.7333 246.981 40.4C248.128 41.0667 248.994 41.88 249.581 42.84C250.194 43.8 250.501 45.0533 250.501 46.6ZM263.849 52.48C264.409 52.48 264.942 52.44 265.449 52.36C265.955 52.2533 266.395 52.1333 266.769 52V53.84C266.369 54 265.889 54.1333 265.329 54.24C264.769 54.3467 264.169 54.4 263.529 54.4C262.409 54.4 261.449 54.1867 260.649 53.76C259.849 53.3067 259.235 52.6133 258.809 51.68C258.409 50.7467 258.209 49.5467 258.209 48.08V34.56H255.289V33.28L258.249 32.56L259.049 27.64H260.489V32.72H266.649V34.56H260.489V48C260.489 49.4667 260.755 50.5867 261.289 51.36C261.849 52.1067 262.702 52.48 263.849 52.48ZM280.498 32.36C282.765 32.36 284.458 32.9467 285.578 34.12C286.725 35.2933 287.298 37.16 287.298 39.72V54H285.578L285.138 50.4H285.058C284.578 51.2 284.032 51.9067 283.418 52.52C282.832 53.1067 282.098 53.5733 281.218 53.92C280.365 54.24 279.312 54.4 278.058 54.4C276.805 54.4 275.712 54.1733 274.778 53.72C273.845 53.24 273.125 52.56 272.618 51.68C272.112 50.8 271.858 49.72 271.858 48.44C271.858 46.3333 272.672 44.7333 274.298 43.64C275.925 42.52 278.285 41.88 281.378 41.72L285.018 41.56V40.04C285.018 37.9333 284.632 36.4533 283.858 35.6C283.085 34.72 281.938 34.28 280.418 34.28C279.405 34.28 278.418 34.4267 277.458 34.72C276.525 34.9867 275.578 35.3733 274.618 35.88L273.858 34.08C274.845 33.5733 275.885 33.16 276.978 32.84C278.098 32.52 279.272 32.36 280.498 32.36ZM281.698 43.4C279.192 43.5333 277.312 44.0133 276.058 44.84C274.832 45.64 274.218 46.8533 274.218 48.48C274.218 49.7867 274.605 50.7867 275.378 51.48C276.152 52.1467 277.192 52.48 278.498 52.48C280.552 52.48 282.152 51.8533 283.298 50.6C284.445 49.3467 285.018 47.5867 285.018 45.32V43.24L281.698 43.4ZM304.412 32.36C304.892 32.36 305.359 32.4 305.812 32.48C306.292 32.5333 306.705 32.6133 307.052 32.72L306.732 34.8C306.359 34.6933 305.959 34.6133 305.532 34.56C305.132 34.48 304.705 34.44 304.252 34.44C303.345 34.44 302.532 34.6267 301.812 35C301.092 35.3733 300.465 35.9067 299.932 36.6C299.425 37.2933 299.025 38.12 298.732 39.08C298.465 40.04 298.332 41.12 298.332 42.32V54H296.052V32.72H297.972L298.212 36.72H298.332C298.652 35.8933 299.092 35.16 299.652 34.52C300.239 33.8533 300.932 33.3333 301.732 32.96C302.532 32.56 303.425 32.36 304.412 32.36Z" fill="#EA6F32"/>
<path d="M260 0L262.694 8.2918H271.413L264.359 13.4164L267.053 21.7082L260 16.5836L252.947 21.7082L255.641 13.4164L248.587 8.2918H257.306L260 0Z" fill="#EA6F32"/>
</svg>
