<svg width="1279" height="59" viewBox="0 0 1279 59" fill="none" xmlns="http://www.w3.org/2000/svg">
<path d="M638.963 33.8729C638.963 15.1656 466.754 0 254.324 0C156.822 0 67.7932 3.19511 0 8.46047V58H784.786C855.57 51.8571 638.963 43.3163 638.963 33.8729Z" fill="#ADB256"/>
<path d="M1183.74 58.1409C1183.74 58.1409 1177.6 49.2596 1179.3 47.3129C1180.99 45.3662 1205.73 51.4495 1205.73 51.4495C1205.73 51.4495 1197.06 39.7692 1203.4 36.6056C1209.75 33.4419 1225.4 45.8529 1225.4 45.8529C1225.4 45.8529 1221.17 33.0925 1230.05 31.564C1238.93 30.0356 1242.95 44.8526 1242.95 44.8526C1242.95 44.8526 1240.68 34.5765 1248.51 31.8998C1256.33 29.2232 1266 48.5299 1266 48.5299C1266 48.5299 1257.33 27.1156 1261.35 20.0583C1265.37 13.0013 1276.37 39.1001 1276.37 39.1001C1276.37 39.1001 1272.96 23.2279 1279.51 18.8479V58.1412H1227.3L1183.74 58.1409Z" fill="#738E51"/>
</svg>
