<svg width="28" height="28" viewBox="0 0 28 28" fill="none" xmlns="http://www.w3.org/2000/svg">
<g clip-path="url(#clip0_797_11142)">
<path d="M3.15 19.6875C2.275 17.9375 1.75 16.0125 1.75 14C1.75 7.2625 7.2625 1.75 14 1.75V3.5C8.225 3.5 3.5 8.225 3.5 14C3.5 15.75 3.9375 17.325 4.725 18.8125L3.15 19.6875Z" fill="#8D8D8D"/>
<path d="M24.5002 14C24.5002 19.775 19.7752 24.5 14.0002 24.5C11.4627 24.5 9.1002 23.625 7.2627 22.05L12.2502 17.0625L11.0252 15.75L5.3377 21.4375C4.9877 21.7875 4.9877 22.3125 5.3377 22.6625C7.6127 24.9375 10.7627 26.25 14.0002 26.25C20.7377 26.25 26.2502 20.7375 26.2502 14H24.5002Z" fill="#8D8D8D"/>
<path d="M15.7499 21.875C15.6624 21.875 15.4874 21.875 15.3999 21.7875C15.1374 21.7 14.8749 21.4375 14.8749 21.0875L14.2624 16.7125L16.0124 16.45L16.3624 19.3375L18.2874 17.85V13.125C18.2874 12.8625 18.3749 12.6875 18.5499 12.5125L21.3499 9.7125C22.1374 8.925 22.6624 7.7875 22.6624 6.65V5.25H21.3499C20.2124 5.25 19.0749 5.6875 18.2874 6.5625L15.4874 9.3625C15.3124 9.5375 15.1374 9.625 14.8749 9.625H10.0624L8.57486 11.55L11.4624 11.9L11.1999 13.65L6.82486 13.0375C6.47486 13.0375 6.21236 12.775 6.12486 12.5125C6.03736 12.25 6.03736 11.9 6.21236 11.6375L8.83736 8.1375C9.09986 7.9625 9.36236 7.875 9.62486 7.875H14.5249L17.1499 5.25C18.2874 4.1125 19.8624 3.5 21.4374 3.5H22.7499C23.7124 3.5 24.4999 4.2875 24.4999 5.25V6.5625C24.4999 8.225 23.8874 9.7125 22.7499 10.85L20.1249 13.475V18.375C20.1249 18.6375 20.0374 18.9 19.7749 19.075L16.2749 21.7C16.0999 21.7875 15.9249 21.875 15.7499 21.875Z" fill="#8D8D8D"/>
</g>
<defs>
<clipPath id="clip0_797_11142">
<rect width="28" height="28" fill="white"/>
</clipPath>
</defs>
</svg>
