<svg width="287" height="253" viewBox="0 0 287 253" fill="none" xmlns="http://www.w3.org/2000/svg">
<path d="M282.136 16.5498H174.535C172.665 16.5498 171.148 18.1342 171.148 20.0879V47.8786C171.148 49.8323 172.665 51.4167 174.535 51.4167H176.63V64.8616C179.891 60.3811 183.152 55.8972 186.413 51.4167H282.136C284.006 51.4167 285.523 49.8323 285.523 47.8786V20.0879C285.526 18.1342 284.01 16.5498 282.136 16.5498Z" fill="white"/>
<path d="M176.058 66.6427V52.0173H174.538C172.354 52.0173 170.576 50.1603 170.576 47.8786V20.0879C170.576 17.8063 172.354 15.9492 174.538 15.9492H282.142C284.326 15.9492 286.101 17.8063 286.101 20.0879V47.8786C286.101 50.1603 284.323 52.0173 282.142 52.0173H186.7L176.058 66.6427ZM174.534 17.147C172.982 17.147 171.719 18.4656 171.719 20.0879V47.8786C171.719 49.4975 172.982 50.8196 174.534 50.8196H177.204V63.0874L186.128 50.8196H282.139C283.689 50.8196 284.951 49.4975 284.951 47.8786V20.0879C284.951 18.469 283.689 17.147 282.139 17.147H174.534Z" fill="#332B33"/>
<path d="M186.897 21.0614L190.268 28.1998L197.811 29.3458L192.352 34.9033L193.641 42.7493L186.897 39.042L180.151 42.7493L181.439 34.9033L175.984 29.3458L183.524 28.1998L186.897 21.0614Z" fill="#EA6F32"/>
<path d="M213.425 21.3822L216.798 28.5206L224.338 29.6666L219.19 34.903L220.168 43.0701L213.425 39.3663L206.681 43.0701L207.97 35.2241L202.512 29.6666L210.055 28.5206L213.425 21.3822Z" fill="#EA6F32"/>
<path d="M239.894 21.0614L243.267 28.1998L250.807 29.3458L245.352 34.9033L246.637 42.7493L239.894 39.042L233.15 42.7493L234.439 34.9033L228.98 29.3458L236.52 28.1998L239.894 21.0614Z" fill="#EA6F32"/>
<path d="M266.084 21.3822L269.457 28.5206L276.997 29.6666L271.542 35.2241L272.827 43.0701L266.084 39.3663L259.34 43.0701L260.629 35.2241L255.174 29.6666L262.714 28.5206L266.084 21.3822Z" fill="#EA6F32"/>
<path d="M212.119 104.309C218.453 139.663 221.707 157.343 226.062 157.574C232.475 157.916 242.618 130.785 240.008 104.309C236.595 69.7531 211.934 41.2513 205.472 44.496C201.741 46.3669 205.201 65.6799 212.119 104.309Z" fill="#EEA493"/>
<path d="M228.742 249.124L227.595 249.113C227.817 225.002 227.817 200.591 227.595 176.549C227.103 123.667 225.771 106.819 220.462 86.3942C216.722 72.007 211.505 58.0029 204.963 44.7686L205.981 44.2163C212.562 57.5266 217.806 71.61 221.569 86.0766C226.911 106.625 228.253 123.532 228.745 176.539C228.963 200.588 228.963 225.006 228.742 249.124Z" fill="#332B33"/>
<path d="M263.501 141.889C256.437 167.83 252.836 180.795 249.38 180.674C244.298 180.498 237.872 159.576 241.48 140.005C246.191 114.461 267.327 94.8684 272.24 97.7231C275.081 99.3765 271.222 113.546 263.501 141.889Z" fill="#EEA493"/>
<path d="M242.948 248.858L241.805 248.775C243.04 230.687 244.468 212.476 246.044 194.633C249.529 155.103 251.578 142.576 257 127.602C260.819 117.057 265.788 106.898 271.765 97.3986L272.724 98.0544C266.79 107.485 261.86 117.564 258.07 128.023C252.695 142.873 250.659 155.341 247.184 194.744C245.611 212.576 244.187 230.781 242.948 248.858Z" fill="#332B33"/>
<path d="M87.8759 68.752C61.3216 96.7325 52.6321 120.139 47.4745 117.744C41.3291 114.893 46.9426 78.5379 64.6818 49.0593C71.7259 37.3542 83.8648 17.7823 107.888 7.47514C133.015 -3.30837 164.337 -1.04052 166.541 7.47514C169.121 17.4406 129.077 25.3383 87.8759 68.752Z" fill="#EEA493"/>
<path d="M63.0047 236.266C53.9187 234.702 44.8327 233.138 35.75 231.575C53.4396 200.487 71.1292 169.4 88.8188 138.313C106.165 144.941 113.202 154.516 116.351 160.926C116.582 161.396 116.8 161.868 117.009 162.341C99.0051 186.984 81.0049 211.623 63.0047 236.266Z" fill="#F96E58"/>
<path d="M177.789 248.544H100.822C101.526 246.598 102.23 244.651 102.934 242.749C106.039 234.444 109.062 226.139 112.125 217.833C112.912 215.8 113.658 213.767 114.362 211.734C115.647 211.693 116.886 211.734 118.172 211.734C119.705 211.776 121.277 211.776 122.807 211.82C125.001 211.862 127.195 211.862 129.392 211.862C134.731 211.948 140.074 211.99 145.413 212.079C148.436 212.124 151.499 212.166 154.483 212.166C157.545 212.207 160.611 212.252 163.631 212.297C164.626 214.848 165.66 217.488 166.654 220.039C169.595 227.609 172.575 235.134 175.516 242.749C176.256 244.651 177.003 246.598 177.789 248.544Z" fill="#F96E58"/>
<path d="M169.598 227.578C149.222 227.644 128.85 227.706 108.474 227.771C101.922 197.951 95.3702 168.134 88.8184 138.314C96.2986 133.523 114.11 123.561 138.705 123.305C161.959 123.064 179.17 131.624 186.848 136.07C181.096 166.57 175.347 197.074 169.598 227.578Z" fill="#F96E58"/>
<path d="M151.746 128.424C143.506 128.469 135.309 128.51 127.068 128.555C128.601 119.17 130.174 109.826 131.747 100.44C137.212 100.526 142.719 100.571 148.184 100.658C148.68 104.379 149.136 108.055 149.592 111.772C150.338 117.306 151.042 122.887 151.746 128.424Z" fill="#7B695F"/>
<path d="M149.592 111.768C148.101 111.986 143.981 112.376 139.62 109.98C134.142 106.97 132.186 101.713 131.75 100.436C137.215 100.522 142.723 100.567 148.187 100.653C148.68 104.371 149.136 108.047 149.592 111.768Z" fill="#332B33"/>
<path d="M138.229 106.978L138.847 107.23C144.745 109.646 151.303 107.067 153.497 101.472L162.064 79.615C161.136 78.0962 157.703 72.8908 150.758 70.1811C144.266 67.6475 138.702 68.8556 136.934 69.3182L129.543 88.1755C126.702 95.4278 130.591 103.847 138.229 106.978Z" fill="#7B695F"/>
<path d="M149.3 100.143C149.423 100.782 145.702 103.412 142.712 101.838C140.379 100.609 139.983 97.6028 139.943 97.2679C140.822 97.8996 142.141 98.7143 143.869 99.27C147.06 100.299 149.211 99.6738 149.3 100.143Z" fill="white"/>
<path d="M189.173 135.517C187.188 173.28 185.199 211.04 183.213 248.803C154.313 249.062 125.416 249.321 96.5161 249.624C93.9488 212.51 91.3817 175.4 88.8145 138.327C91.2561 136.511 95.2308 133.743 100.53 130.93C101.981 130.195 103.511 129.415 105.126 128.679C113.489 124.872 124.422 121.455 137.42 120.937C163.587 119.856 182.466 131.102 189.173 135.517Z" fill="#EA6F32"/>
<path d="M157.261 123.36C155.767 124.948 150.236 130.437 141.388 131.289C130.683 132.321 123.325 125.78 122.066 124.62C123.044 120.416 124.022 116.208 125 112.004C134.086 112.484 143.172 112.967 152.258 113.447C153.924 116.754 155.592 120.057 157.261 123.36Z" fill="#EA6F32"/>
<path d="M47.1714 212.245C42.0965 214.492 40.0281 217.046 40.0281 217.046C39.711 217.481 33.5358 225.237 35.614 234.312C35.7462 234.889 36.1459 236.525 37.3288 238.779C41.4588 246.635 49.1604 250.633 53.6406 252.459C56.1186 252.103 63.2156 251.081 65.6936 250.726C87.0969 247.654 108.474 244.616 129.831 241.606C130.112 237.298 130.406 233.025 130.69 228.717C130.756 227.478 130.842 226.194 130.938 224.937C121.316 221.61 112.415 218.848 104.4 216.542C100.362 215.403 96.5761 214.375 93.0375 213.422C88.6267 212.228 85.2302 211.468 84.728 211.354C65.6474 206.87 53.8323 209.304 47.1714 212.245Z" fill="#7B695F"/>
<path d="M74.6241 221.768C47.7857 224.533 34.1006 224.533 33.5654 221.768C33.4662 221.26 33.8131 220.66 34.5995 219.966C44.7428 199.476 54.5986 180.995 63.9258 164.095C68.938 155.013 75.7938 142.949 89.4195 135.89C92.6607 134.209 95.5285 133.208 97.5175 132.607C102.996 146.946 108.474 161.288 113.955 175.631C100.848 191.009 87.7377 206.387 74.6241 221.768Z" fill="#EA6F32"/>
<path d="M249.538 222.286C249.581 224.319 249.373 227.564 247.922 231.067C241.589 246.207 218.609 247.936 214.261 248.282C209.956 248.585 203.166 248.585 194.883 246.293C186.643 223.497 178.406 200.746 170.166 177.951C175.674 163.591 181.139 149.273 186.603 134.91C188.589 135.514 191.49 136.511 194.718 138.196C198.154 139.97 201.177 142.09 203.867 144.382C205.149 145.507 206.391 146.719 207.511 147.885C213.267 153.94 217.116 160.733 220.222 166.397C229.542 183.315 239.395 201.782 249.538 222.286Z" fill="#EA6F32"/>
<path d="M118.085 249.407C105.83 250.573 93.6977 251.74 81.5687 252.91H43.0639C40.9097 251.395 38.5077 249.275 36.479 246.293C35.6497 245.126 34.9063 243.784 34.2422 242.313C29.8116 232.406 33 223.325 33.5782 221.768C35.5672 220.425 37.5099 219.131 39.4989 217.788C41.7357 216.272 43.9296 214.761 46.1664 213.29C46.9131 212.772 47.6565 212.251 48.4428 211.733C54.5288 207.622 60.6148 203.515 66.7007 199.407C72.9949 201.395 79.2857 203.387 85.5798 205.375C88.2726 206.241 90.9224 207.063 93.6118 207.926C98.3332 209.396 103.012 210.912 107.73 212.382C108.268 214.243 108.764 216.103 109.303 217.964C109.715 219.393 110.089 220.819 110.502 222.248C112.488 229.341 114.477 236.435 116.423 243.528C116.713 244.436 116.961 245.389 117.209 246.296C117.417 247.032 117.622 247.812 117.83 248.547C117.919 248.844 118.002 249.103 118.085 249.407Z" fill="#EA6F32"/>
<path d="M152.945 232.717C149.162 235.982 142.154 240.956 132.589 241.954C130.494 242.171 128.532 242.171 126.734 242.04C124.504 235.13 122.277 228.216 120.047 221.305C128.829 216.293 137.608 211.278 146.39 206.266C148.574 215.085 150.761 223.901 152.945 232.717Z" fill="#7B695F"/>
<path d="M194.712 248.475H135.57C132.894 248.475 131.245 246.207 131.886 243.411L150.342 163.008C150.983 160.212 153.673 157.947 156.349 157.947H215.491C218.167 157.947 219.816 160.212 219.175 163.008L200.719 243.411C200.078 246.207 197.388 248.475 194.712 248.475Z" fill="#332B33"/>
<path d="M205.169 173.784C204.043 173.784 203.071 173.325 202.44 172.486C201.786 171.62 201.581 170.474 201.859 169.255C202.397 166.915 204.661 165.013 206.907 165.013C208.034 165.013 209.005 165.476 209.636 166.314C210.291 167.177 210.495 168.323 210.218 169.535C209.669 171.92 207.456 173.784 205.169 173.784ZM206.907 166.214C205.16 166.214 203.395 167.702 202.976 169.538C202.781 170.388 202.91 171.171 203.342 171.744C203.752 172.286 204.403 172.586 205.173 172.586C206.921 172.586 208.685 171.092 209.105 169.255C209.299 168.41 209.171 167.626 208.738 167.057C208.325 166.511 207.674 166.214 206.907 166.214Z" fill="#E4E7EB"/>
<path d="M184.886 203.211C183.746 208.175 178.971 212.2 174.22 212.2C169.469 212.2 166.542 208.175 167.682 203.211C168.822 198.248 173.596 194.223 178.347 194.223C183.098 194.223 186.026 198.248 184.886 203.211Z" fill="#E4E7EB"/>
<path d="M211.175 218.119H192.22C190.545 218.119 189.174 216.686 189.174 214.936C189.174 213.124 190.545 211.692 192.22 211.692H211.175C212.85 211.692 214.221 213.124 214.221 214.874C214.221 216.683 212.85 218.119 211.175 218.119Z" fill="#7B695F"/>
<path d="M211.175 223.605H192.22C190.545 223.605 189.174 222.172 189.174 220.422C189.174 218.61 190.545 217.177 192.22 217.177H211.175C212.85 217.177 214.221 218.61 214.221 220.36C214.221 222.172 212.85 223.605 211.175 223.605Z" fill="#7B695F"/>
<path d="M211.824 228.709H192.869C191.193 228.709 189.822 227.277 189.822 225.527C189.822 223.715 191.193 222.282 192.869 222.282H211.824C213.499 222.282 214.87 223.715 214.87 225.465C214.87 227.277 213.499 228.709 211.824 228.709Z" fill="#7B695F"/>
<path d="M210.963 233.56H196.753C195.269 233.56 194.057 232.293 194.057 230.743V229.946C194.057 228.396 195.269 227.129 196.753 227.129H210.963C212.447 227.129 213.659 228.396 213.659 229.946V230.743C213.659 232.293 212.447 233.56 210.963 233.56Z" fill="#7B695F"/>
<path d="M107.734 212.98C107.562 212.952 67.3819 199.973 67.3819 199.973C67.0779 199.877 66.9094 199.542 67.0019 199.224C67.0977 198.907 67.4083 198.727 67.7222 198.831L107.905 211.81C108.209 211.91 108.375 212.241 108.285 212.559C108.209 212.818 107.978 212.98 107.734 212.98Z" fill="#E4E7EB"/>
<path d="M209.878 210.829C209.736 210.829 209.594 210.774 209.482 210.664C209.254 210.436 209.244 210.056 209.465 209.818C212.026 207.008 215.198 204.782 218.637 203.366C221.921 202.013 225.542 201.382 229.051 201.523C229.368 201.537 229.613 201.813 229.603 202.144C229.59 202.472 229.342 202.721 229.008 202.721C225.625 202.569 222.195 203.187 219.063 204.481C215.776 205.834 212.746 207.964 210.298 210.643C210.179 210.771 210.03 210.829 209.878 210.829Z" fill="#E4E7EB"/>
<path d="M109.474 246.891C109.227 246.891 108.999 246.721 108.923 246.459L100.269 215.714C100.18 215.396 100.355 215.065 100.659 214.971C100.96 214.892 101.28 215.061 101.373 215.379L110.026 246.124C110.112 246.442 109.94 246.777 109.636 246.87C109.58 246.88 109.527 246.891 109.474 246.891Z" fill="#E4E7EB"/>
<path d="M210.133 241.561C209.902 241.561 209.684 241.416 209.598 241.177C209.482 240.87 209.631 240.522 209.928 240.404C217.181 237.477 221.975 230.442 221.595 223.287C221.264 217.108 217.29 213.021 215.591 211.543C215.35 211.333 215.314 210.96 215.515 210.701C215.723 210.453 216.084 210.415 216.325 210.625C218.135 212.192 222.384 216.566 222.741 223.221C223.151 230.884 218.053 238.409 210.341 241.519C210.272 241.547 210.202 241.561 210.133 241.561Z" fill="#E4E7EB"/>
<path d="M139.678 131.005C138.254 131.005 136.77 130.874 135.247 130.574C129.065 129.362 124.671 125.959 122.074 123.311C121.846 123.077 121.843 122.697 122.064 122.465C122.289 122.231 122.645 122.227 122.877 122.452C125.358 124.985 129.557 128.24 135.458 129.397C146.626 131.582 155.266 124.378 156.885 122.907C157.126 122.693 157.486 122.714 157.694 122.97C157.902 123.218 157.879 123.598 157.638 123.819C156.168 125.144 149.17 131.005 139.678 131.005Z" fill="#E4E7EB"/>
<path d="M126.295 121.924C125.859 121.834 125.667 121.517 125.733 121.192L127.276 114.054C127.346 113.729 127.64 113.526 127.96 113.598C128.271 113.674 128.466 113.992 128.396 114.316L126.854 121.454C126.797 121.734 126.559 121.924 126.295 121.924Z" fill="#E4E7EB"/>
<path d="M128.615 125.856C128.202 125.79 127.994 125.476 128.05 125.155L129.871 114.392C129.923 114.068 130.178 113.85 130.535 113.905C130.845 113.961 131.053 114.275 130.997 114.599L129.177 125.362C129.13 125.648 128.886 125.856 128.615 125.856Z" fill="#E4E7EB"/>
<path d="M132.028 127.24C131.655 127.202 131.423 126.909 131.456 126.581L132.58 115.007C132.613 114.679 132.874 114.375 133.207 114.472C133.521 114.506 133.753 114.8 133.719 115.128L132.596 126.702C132.57 127.012 132.319 127.24 132.028 127.24Z" fill="#E4E7EB"/>
<path d="M147.052 124.664C146.768 124.664 146.52 124.443 146.484 124.14L145.479 115.772C145.44 115.444 145.661 115.144 145.975 115.103C146.302 115.041 146.576 115.293 146.616 115.621L147.62 123.988C147.66 124.316 147.435 124.616 147.121 124.657C147.101 124.664 147.075 124.664 147.052 124.664Z" fill="#E4E7EB"/>
<path d="M143.442 126.052C143.108 126.041 142.861 125.765 142.867 125.434L143.128 116.238C143.138 115.914 143.393 115.658 143.703 115.658C144.037 115.669 144.285 115.945 144.278 116.276L144.017 125.472C144.007 125.793 143.753 126.052 143.442 126.052Z" fill="#E4E7EB"/>
<path d="M150.95 122.877C150.702 122.877 150.474 122.708 150.398 122.445L148.753 116.587C148.667 116.27 148.838 115.935 149.142 115.842C149.443 115.762 149.764 115.932 149.856 116.249L151.501 122.107C151.591 122.424 151.416 122.759 151.112 122.852C151.059 122.866 151.006 122.877 150.95 122.877Z" fill="#E4E7EB"/>
<path d="M68.9687 176.138C68.0898 175.085 68.1955 173.47 69.2065 172.555L80.3609 162.41C81.3686 161.492 82.9148 161.606 83.7904 162.659C84.6693 163.711 84.5603 165.327 83.5525 166.242L72.3982 176.386C71.3905 177.301 69.8442 177.191 68.9687 176.138Z" fill="#0F56BB"/>
<path d="M129.087 164.685C128.208 163.632 128.317 162.02 129.325 161.102L140.479 150.957C141.487 150.039 143.033 150.153 143.908 151.206C144.787 152.258 144.678 153.87 143.671 154.789L132.516 164.93C131.509 165.852 129.962 165.738 129.087 164.685Z" fill="#0F56BB"/>
<path d="M163.769 132.083C164.582 130.971 166.115 130.757 167.178 131.606L178.931 140.985C179.995 141.834 180.2 143.436 179.387 144.544C178.574 145.655 177.041 145.869 175.98 145.02L164.228 135.645C163.161 134.796 162.956 133.194 163.769 132.083Z" fill="#0F56BB"/>
<path d="M125.178 209.949C124.3 208.896 124.409 207.281 125.416 206.366L136.571 196.221C137.578 195.303 139.121 195.417 140 196.47C140.879 197.522 140.77 199.134 139.762 200.053L128.608 210.194C127.6 211.116 126.057 211.002 125.178 209.949Z" fill="#0F56BB"/>
<path d="M39.9949 230.988C39.116 229.935 39.225 228.32 40.2328 227.405L51.3871 217.26C52.3948 216.342 53.9411 216.456 54.8166 217.509C55.6955 218.561 55.5865 220.177 54.5788 221.092L43.4244 231.237C42.4167 232.155 40.8705 232.044 39.9949 230.988Z" fill="#0F56BB"/>
<path d="M87.1473 221.133C86.3379 222.244 84.8015 222.458 83.7409 221.609L71.9886 212.23C70.9247 211.381 70.7199 209.78 71.5326 208.668C72.3454 207.557 73.8785 207.343 74.9424 208.192L86.6947 217.57C87.7552 218.419 87.9601 220.025 87.1473 221.133Z" fill="#0F56BB"/>
<path d="M114.516 184.665C113.509 185.583 111.962 185.469 111.087 184.416L101.38 172.763C100.501 171.71 100.61 170.098 101.618 169.18C102.625 168.261 104.172 168.375 105.047 169.428L114.758 181.082C115.633 182.134 115.524 183.746 114.516 184.665Z" fill="#0F56BB"/>
<path d="M111.586 140.36C110.592 141.268 109.062 141.14 108.15 140.101L100.531 130.93C101.982 130.195 103.511 129.414 105.127 128.679L111.834 136.767C112.703 137.809 112.621 139.452 111.586 140.36Z" fill="#0F56BB"/>
<path d="M207.514 147.889L197.826 155.327C196.749 156.149 195.216 155.89 194.433 154.765C194.103 154.333 193.938 153.771 193.938 153.249C193.938 152.469 194.268 151.693 194.932 151.216L203.876 144.382C205.155 145.507 206.397 146.719 207.514 147.889Z" fill="#0F56BB"/>
<path d="M234.105 197.571C233.659 198.889 232.264 199.583 231.002 199.121L217.059 193.971C215.797 193.505 215.13 192.048 215.576 190.729C216.022 189.411 217.42 188.717 218.678 189.179L232.621 194.33C233.887 194.796 234.551 196.256 234.105 197.571Z" fill="#0F56BB"/>
<path d="M242.027 219.87C242.972 220.857 242.972 222.476 242.027 223.463L231.57 234.388C230.625 235.375 229.076 235.375 228.131 234.388C227.186 233.401 227.186 231.782 228.131 230.795L238.588 219.87C239.533 218.882 241.082 218.882 242.027 219.87Z" fill="#0F56BB"/>
<path d="M165.95 84.0953C160.32 81.8654 154.693 79.6355 149.067 77.4056C143.536 78.5102 138.002 79.6114 132.471 80.716C132.93 79.0867 133.62 76.7705 134.575 74.0263C136.538 68.3895 137.248 67.7509 137.615 67.4713C139.743 65.8351 141.385 67.6542 147.772 67.8095C153.243 67.9407 155.02 66.6808 158.638 68.0788C160.631 68.8485 162.058 69.9946 162.907 70.7816C165.022 70.8265 167.133 70.8713 169.248 70.9162C169.244 72.5524 169.096 74.5855 168.6 76.8637C167.936 79.9289 166.869 82.3693 165.95 84.0953Z" fill="#332B33"/>
<path d="M138.11 82.3143C138.11 85.376 136.316 87.8579 134.099 87.8579C131.885 87.8579 130.088 85.376 130.088 82.3143C130.088 79.2525 131.885 76.7741 134.099 76.7741C136.316 76.7706 138.11 79.2525 138.11 82.3143Z" fill="#7B695F"/>
<path d="M141.649 97.2674C137.377 97.2674 133.904 93.6395 133.904 89.1763C133.904 84.7131 137.38 81.0818 141.649 81.0818C145.918 81.0818 149.393 84.7166 149.393 89.1763C149.397 93.6395 145.921 97.2674 141.649 97.2674ZM141.649 82.2796C138.011 82.2796 135.051 85.3724 135.051 89.1763C135.051 92.9768 138.011 96.0697 141.649 96.0697C145.287 96.0697 148.247 92.9802 148.247 89.1763C148.25 85.3759 145.29 82.2796 141.649 82.2796Z" fill="#332B33"/>
<path d="M158.03 102.656C153.758 102.656 150.285 99.028 150.285 94.5648C150.285 90.1016 153.761 86.4738 158.03 86.4738C162.302 86.4738 165.774 90.1016 165.774 94.5648C165.778 99.028 162.302 102.656 158.03 102.656ZM158.03 87.675C154.392 87.675 151.432 90.7643 151.432 94.5682C151.432 98.3687 154.392 101.458 158.03 101.458C161.667 101.458 164.628 98.3687 164.628 94.5682C164.631 90.7643 161.671 87.675 158.03 87.675Z" fill="#332B33"/>
<path d="M150.878 93.3152L148.195 92.2728L148.592 91.1475L151.278 92.1934L150.878 93.3152Z" fill="#332B33"/>
<path d="M43.0843 246.497H0.257812C3.4726 227.578 6.68739 208.658 9.90218 189.742C17.7228 189.742 25.5433 189.742 33.3639 189.742C36.6018 208.658 39.8431 227.578 43.0843 246.497Z" fill="#332B33"/>
<path d="M25.6483 205.082L24.5117 204.93C28.3807 172.054 36.7563 140.467 49.3974 111.04C64.3712 76.1972 79.8537 40.1774 116.419 20.2776C131.482 12.0795 148.339 7.57141 166.518 6.87415L166.557 8.07193C148.551 8.75884 131.859 13.2255 116.948 21.3442C80.7359 41.0438 65.3393 76.8738 50.4481 111.52C37.8467 140.847 29.5074 172.324 25.6483 205.082Z" fill="#332B33"/>
<path d="M35.188 67.1023C28.5469 102.131 25.1306 119.653 20.5611 119.881C13.8342 120.219 3.192 93.3362 5.93432 67.1023C9.51256 32.8602 35.3829 4.61725 42.1627 7.83436C46.0746 9.69144 42.4435 28.8284 35.188 67.1023Z" fill="#EEA493"/>
<path d="M17.7814 210.602C17.5468 186.718 17.5468 162.518 17.7814 138.679C18.2968 86.1494 19.7043 69.3942 25.3079 49.0354C29.2529 34.6999 34.7541 20.7442 41.6594 7.54785L42.6671 8.12086C35.8014 21.2378 30.3333 35.1141 26.4115 49.3633C20.8409 69.5979 19.4433 86.2944 18.9312 138.686C18.6966 162.521 18.6966 186.712 18.9312 210.591L17.7814 210.602Z" fill="#332B33"/>
</svg>
