<svg width="32" height="32" viewBox="0 0 32 32" fill="none" xmlns="http://www.w3.org/2000/svg">
<g clip-path="url(#clip0_797_11607)">
<path d="M29.1211 16.8789C28.8444 16.6006 28.5155 16.3797 28.1532 16.2289C27.7909 16.0781 27.4024 16.0003 27.01 16H27C26.6059 15.9988 26.2154 16.0759 25.8513 16.2268C25.4872 16.3776 25.1567 16.5993 24.8789 16.8789L19.9778 21.78C19.9237 21.0264 19.5868 20.3211 19.0345 19.8056C18.4823 19.29 17.7555 19.0022 17 19H10C8.6744 19.0016 7.40353 19.5288 6.46619 20.4662C5.52885 21.4035 5.00156 22.6744 5 24V24.667L2 28.6631L3.6 29.8631L7 25.333V24C7.00087 23.2046 7.31722 22.4421 7.87964 21.8796C8.44206 21.3172 9.20462 21.0009 10 21H17C17.2652 21 17.5196 21.1054 17.7071 21.2929C17.8946 21.4804 18 21.7348 18 22C18 22.2652 17.8946 22.5196 17.7071 22.7071C17.5196 22.8946 17.2652 23 17 23H13V25H17.9287C18.4543 25.0015 18.9749 24.8987 19.4605 24.6976C19.946 24.4964 20.3868 24.2009 20.7573 23.8281L26.293 18.293C26.3856 18.1998 26.4958 18.1259 26.6171 18.0756C26.7385 18.0254 26.8686 17.9996 27 18H27.0034C27.2009 18.0007 27.3937 18.0599 27.5576 18.17C27.7215 18.2802 27.8491 18.4363 27.9243 18.6189C27.9996 18.8015 28.0191 19.0022 27.9804 19.1959C27.9417 19.3895 27.8466 19.5674 27.707 19.707L20.293 27.1211C20.0151 27.4007 19.6845 27.6223 19.3203 27.7732C18.9561 27.9241 18.5656 28.0012 18.1714 28H11V30H18.1714C18.8283 30.0018 19.4791 29.8733 20.086 29.6218C20.6929 29.3704 21.2438 29.0011 21.707 28.5352L29.1211 21.1211C29.3997 20.8426 29.6208 20.5119 29.7716 20.148C29.9224 19.784 30 19.394 30 19C30 18.606 29.9224 18.216 29.7716 17.852C29.6208 17.4881 29.3997 17.1574 29.1211 16.8789Z" fill="#8D8D8D"/>
<path d="M21.586 8.586L18 12V2H16V12L12.414 8.586L11 10L17 16L23 10L21.586 8.586Z" fill="#8D8D8D"/>
</g>
<defs>
<clipPath id="clip0_797_11607">
<rect width="32" height="32" fill="white"/>
</clipPath>
</defs>
</svg>
