<svg width="232" height="250" viewBox="0 0 232 250" fill="none" xmlns="http://www.w3.org/2000/svg">
<path d="M174.714 189.599L173.276 189.118L170.711 188.83L168.481 189.191L167.858 190.104L168.169 191.667L167.69 192.509L166.012 192.726V194.312L164.934 194.745L164.79 195.899L165.63 197.894L165.391 201.284L163.904 202.847L161.747 202.222L161.674 204.314L163.76 206.069L164.527 207.392L163.808 208.715L163.377 210.806L164.544 211.961L165.118 212.954L162.85 213.34L161.699 211.512L159.909 212.442L160.069 214.622L159.302 215.872L157.257 217.219L155.403 215.167L156.554 214.558L157.065 212.827L154.892 208.628L152.847 208.532L152.048 206.609L151.153 205.903L149.171 206.545V208.373L146.358 210.04L146.166 212.476L143.992 215.073L144.312 216.868L143.704 219.753L139.612 222.318L139.42 223.568L140.859 225.075L141.722 228.121L141.083 229.948L142.616 234.565L140.699 236.937L137.342 236.039L135.872 237.386L135.353 242.283L134.514 245.745L133.435 247.356L130.151 247.163L123.775 249.495L121.09 250L119.388 248.052L118.836 244.783L116.271 243.196L112.795 239.012H109.008L105.868 235.863L105.556 231.752L104.549 230.429L104.476 229.131L104.907 227.087L104.74 225.765L102.798 225.452L99.4972 227.48L97.0999 226.775L95.9171 228.442L95.0217 229.692L94.2548 230.141L92.5926 230.59L91.8893 231.84L91.2496 233.891L90.386 234.692L88.0523 235.269C88.0523 235.269 88.0523 235.269 86.9013 234.98C85.7503 234.692 85.5913 234.531 85.5913 234.531H84.6006L82.4271 236.551L81.1171 236.326L80.6376 233.826L80.0297 232.256L76.3224 231.582L72.9025 231.006L72.7423 229.98L70.9198 229.082L69.2894 228.794L66.892 229.852L66.2523 230.108L65.2298 230.172L63.6642 230.684L63.5688 231.07L63.2814 232.449L63.186 233.41L62.6111 234.533L61.4601 234.02L60.182 232.931L58.1369 232.674L56.5383 232.065L56.1542 230.878L55.9621 229.885L55.8668 228.955L54.1091 228.442L52.9263 227.609L52.0959 225.59L51.2654 224.757L48.2932 224.02L47.1422 223.09L45.6402 222.897L43.6905 224.052L42.1249 224.437L39.823 224.052L37.521 222.673L33.9409 222.384L31.9594 220.91L31.8958 215.717L30.2972 214.082L28.5713 211.357L28.2839 208.152L25.8548 205.267L22.3064 204.915L21.3157 203.728L21.0283 200.587L19.3978 199.849L18.6627 200.298L17.4799 201.612L16.4574 201.773L15.3713 201.004L12.9104 202.799L11.8242 203.055H10.7992L9.32896 201.805L7.66672 201.549L6.35676 200.426L5.0468 198.31L3.76864 198.085L2.68252 199.464L0.029541 200.426L0.988477 19.4303L73.2892 16.8984H74.1044L73.3375 19.0949L71.1322 21.9802L70.9402 23.0376L74.4885 19.623L75.3991 19.8628L77.8918 20.6319L80.2408 19.285L85.1793 22.7468L85.323 23.9968L86.9051 24.0453L90.4051 25.1027L93.0899 25.6792L94.5283 27.1219L97.1177 30.0556L100.569 31.6909V32.46L96.0608 32.6947L93.2323 33.3682L93.6482 33.8657L95.678 33.3848L94.3998 35.2598L95.3422 35.645L96.8124 33.3363L101.766 32.6947L104.212 31.8771L106.001 29.7291L105.682 28.2227L106.977 27.1971L107.728 28.511L107.665 29.6334L106.61 30.6271L105.924 31.6054L106.451 31.7496L107.267 30.9485L107.73 30.4842L108.081 29.2342L109.127 29.5952L109.375 30.4612L108.64 30.5416L108.265 31.1908L108.752 31.5353L110.662 30.9421L111.558 30.5811L113.483 30.9498L113.532 31.8312L113.403 33.2419L112.508 32.9856L111.437 33.0174L111.021 33.6744L110.845 33.7547L108.512 33.4983L107.713 34.0111L106.914 33.4499L106.036 33.7866L104.534 34.3797H100.634L99.3077 35.9499L97.9176 36.2548L96.8468 36.8645L97.9494 37.5698L99.164 38.4513L99.0203 37.089L99.6918 36.8645L100.395 37.9385L101.338 39.2229L102.392 39.1081L105.476 37.8263L106.051 37.6183L108.864 35.4142L111.166 36.9525L112.812 37.1923L114.211 36.3504L116.392 37.2165L119.077 39.5725L119.843 39.4526L114.666 34.2598L115.17 34.02L121.786 40.2715L124.254 41.7141L127.802 41.4973L132.693 38.6362L137.368 38.0597L142.354 35.0787L144.728 34.2853L150.362 32.1934L154.269 32.5059L155.612 34.0927L159.447 33.9971L162.996 33.0838L165.298 33.7573L167.79 32.3631L172.345 30.0543L175.461 26.3515L178.72 24.5236C178.72 24.5236 183.084 18.3206 189.7 15.0501H192.289C192.289 15.0501 201.735 8.72728 206.145 8.02956C210.556 7.33184 211.084 7.26041 211.084 7.26041L216.358 4.56775L219.33 4.231L224.317 2.16334L226.379 2.50009L231.03 0V22.5529L230.022 25.3412L230.31 27.553L231.028 29.525V93.9603L227.959 95.5637L226.777 95.1147L226.105 94.6976L224.411 96.0114L223.612 97.1658L223.293 98.0956L224.636 100.147L225.308 101.782L225.627 103.417L227.193 105.245L226.553 106.88L226.234 108.259L226.297 110.695L224.571 110.824C224.571 110.824 225.579 111.738 226.042 112.267C226.504 112.796 226.504 112.796 226.504 112.796L226.201 114.608L226.967 116.243L226.68 117.012L225.626 118.615L225.497 119.865C225.497 119.865 223.02 120.988 223.228 123.712L222.877 125.003C222.877 125.003 219.633 127.351 220.896 131.118L219.297 132.656L219.872 135.061L218.657 137.785L219.137 139.902L217.922 141.408L218.242 144.454L217.538 144.774L216.292 143.588L215.109 144.389L216.74 147.467L214.438 149.005L214.566 152.596L212.521 154.231L212.329 155.513L212.904 156.089L214.406 158.141L214.342 159.359L212.137 160.16L212.456 164.424L211.657 165.257L209.292 164.937C209.292 164.937 199.831 172.455 198.297 176.862L196.092 177.247C196.092 177.247 194.126 178.609 193.663 180.806C193.663 180.806 189.592 180.901 187.11 183.571C184.629 186.239 183.635 182.537 183.538 181.576C183.441 180.616 183.01 179.267 181.549 179.413C180.088 179.558 178.097 182.202 178.097 182.202L175.437 184.438L174.714 189.599Z" fill="#F1E4D0"/>
</svg>
